%TF.GenerationSoftware,KiCad,Pcbnew,8.0.6-8.0.6-0~ubuntu24.04.1*%
%TF.CreationDate,2024-10-25T11:14:03+03:00*%
%TF.ProjectId,pss_v2,7073735f-7632-42e6-9b69-6361645f7063,rev?*%
%TF.SameCoordinates,Original*%
%TF.FileFunction,Soldermask,Top*%
%TF.FilePolarity,Negative*%
%FSLAX46Y46*%
G04 Gerber Fmt 4.6, Leading zero omitted, Abs format (unit mm)*
G04 Created by KiCad (PCBNEW 8.0.6-8.0.6-0~ubuntu24.04.1) date 2024-10-25 11:14:03*
%MOMM*%
%LPD*%
G01*
G04 APERTURE LIST*
G04 Aperture macros list*
%AMRoundRect*
0 Rectangle with rounded corners*
0 $1 Rounding radius*
0 $2 $3 $4 $5 $6 $7 $8 $9 X,Y pos of 4 corners*
0 Add a 4 corners polygon primitive as box body*
4,1,4,$2,$3,$4,$5,$6,$7,$8,$9,$2,$3,0*
0 Add four circle primitives for the rounded corners*
1,1,$1+$1,$2,$3*
1,1,$1+$1,$4,$5*
1,1,$1+$1,$6,$7*
1,1,$1+$1,$8,$9*
0 Add four rect primitives between the rounded corners*
20,1,$1+$1,$2,$3,$4,$5,0*
20,1,$1+$1,$4,$5,$6,$7,0*
20,1,$1+$1,$6,$7,$8,$9,0*
20,1,$1+$1,$8,$9,$2,$3,0*%
G04 Aperture macros list end*
%ADD10RoundRect,0.250000X-0.450000X0.262500X-0.450000X-0.262500X0.450000X-0.262500X0.450000X0.262500X0*%
%ADD11RoundRect,0.250000X0.262500X0.450000X-0.262500X0.450000X-0.262500X-0.450000X0.262500X-0.450000X0*%
%ADD12C,2.200000*%
%ADD13RoundRect,0.150000X-0.587500X-0.150000X0.587500X-0.150000X0.587500X0.150000X-0.587500X0.150000X0*%
%ADD14R,1.500000X1.500000*%
%ADD15RoundRect,0.225000X-0.250000X0.225000X-0.250000X-0.225000X0.250000X-0.225000X0.250000X0.225000X0*%
%ADD16RoundRect,0.150000X-0.150000X0.587500X-0.150000X-0.587500X0.150000X-0.587500X0.150000X0.587500X0*%
%ADD17RoundRect,0.250000X0.450000X-0.262500X0.450000X0.262500X-0.450000X0.262500X-0.450000X-0.262500X0*%
%ADD18RoundRect,0.250000X-0.750000X0.600000X-0.750000X-0.600000X0.750000X-0.600000X0.750000X0.600000X0*%
%ADD19O,2.000000X1.700000*%
%ADD20RoundRect,0.225000X0.225000X0.250000X-0.225000X0.250000X-0.225000X-0.250000X0.225000X-0.250000X0*%
%ADD21R,2.000000X4.500000*%
%ADD22O,1.950000X1.700000*%
%ADD23RoundRect,0.250000X0.725000X-0.600000X0.725000X0.600000X-0.725000X0.600000X-0.725000X-0.600000X0*%
%ADD24C,1.524000*%
%ADD25RoundRect,0.150000X0.587500X0.150000X-0.587500X0.150000X-0.587500X-0.150000X0.587500X-0.150000X0*%
%ADD26R,1.560000X1.560000*%
%ADD27C,1.560000*%
%ADD28RoundRect,0.250000X-0.600000X-0.750000X0.600000X-0.750000X0.600000X0.750000X-0.600000X0.750000X0*%
%ADD29O,1.700000X2.000000*%
%ADD30RoundRect,0.225000X-0.225000X-0.250000X0.225000X-0.250000X0.225000X0.250000X-0.225000X0.250000X0*%
%ADD31RoundRect,0.250000X-0.325000X-1.100000X0.325000X-1.100000X0.325000X1.100000X-0.325000X1.100000X0*%
%ADD32RoundRect,0.250000X-0.725000X0.600000X-0.725000X-0.600000X0.725000X-0.600000X0.725000X0.600000X0*%
%ADD33RoundRect,0.250000X0.312500X0.625000X-0.312500X0.625000X-0.312500X-0.625000X0.312500X-0.625000X0*%
%ADD34RoundRect,0.250000X-0.262500X-0.450000X0.262500X-0.450000X0.262500X0.450000X-0.262500X0.450000X0*%
%ADD35RoundRect,0.952500X-1.167500X-0.952500X1.167500X-0.952500X1.167500X0.952500X-1.167500X0.952500X0*%
%ADD36RoundRect,0.225000X0.250000X-0.225000X0.250000X0.225000X-0.250000X0.225000X-0.250000X-0.225000X0*%
%ADD37RoundRect,0.150000X0.150000X-0.587500X0.150000X0.587500X-0.150000X0.587500X-0.150000X-0.587500X0*%
%ADD38RoundRect,0.087500X0.087500X-0.425000X0.087500X0.425000X-0.087500X0.425000X-0.087500X-0.425000X0*%
%ADD39RoundRect,0.087500X0.425000X-0.087500X0.425000X0.087500X-0.425000X0.087500X-0.425000X-0.087500X0*%
%ADD40R,2.100000X2.100000*%
%ADD41R,1.800000X1.800000*%
%ADD42C,1.800000*%
%ADD43RoundRect,0.250000X0.600000X0.725000X-0.600000X0.725000X-0.600000X-0.725000X0.600000X-0.725000X0*%
%ADD44O,1.700000X1.950000*%
%ADD45RoundRect,0.100000X-0.712500X-0.100000X0.712500X-0.100000X0.712500X0.100000X-0.712500X0.100000X0*%
%ADD46RoundRect,0.250000X0.600000X0.750000X-0.600000X0.750000X-0.600000X-0.750000X0.600000X-0.750000X0*%
%ADD47RoundRect,0.250000X-0.850000X-0.350000X0.850000X-0.350000X0.850000X0.350000X-0.850000X0.350000X0*%
%ADD48RoundRect,0.249997X-2.950003X-2.650003X2.950003X-2.650003X2.950003X2.650003X-2.950003X2.650003X0*%
%ADD49C,1.500000*%
G04 APERTURE END LIST*
D10*
%TO.C,RB3*%
X51100000Y-51787500D03*
X51100000Y-53612500D03*
%TD*%
D11*
%TO.C,RA3*%
X49712500Y-22400000D03*
X47887500Y-22400000D03*
%TD*%
D12*
%TO.C,H2*%
X105000000Y-44500000D03*
%TD*%
D13*
%TO.C,Q6*%
X68762500Y-44350000D03*
X68762500Y-46250000D03*
X70637500Y-45300000D03*
%TD*%
D14*
%TO.C,TP14*%
X88500000Y-20600000D03*
%TD*%
%TO.C,TP8*%
X70600000Y-54400000D03*
%TD*%
D12*
%TO.C,H3*%
X115000000Y-37500000D03*
%TD*%
D14*
%TO.C,TP12*%
X84700000Y-28400000D03*
%TD*%
%TO.C,TP4*%
X79100000Y-45900000D03*
%TD*%
%TO.C,TP9*%
X62100000Y-26800000D03*
%TD*%
D13*
%TO.C,Q4*%
X72217597Y-27776082D03*
X72217597Y-29676082D03*
X74092597Y-28726082D03*
%TD*%
D14*
%TO.C,TP11*%
X97100000Y-39700000D03*
%TD*%
D15*
%TO.C,C5*%
X88300000Y-36525000D03*
X88300000Y-38075000D03*
%TD*%
D14*
%TO.C,TP7*%
X51700000Y-39100000D03*
%TD*%
D16*
%TO.C,Q5*%
X68650000Y-33062500D03*
X66750000Y-33062500D03*
X67700000Y-34937500D03*
%TD*%
D17*
%TO.C,R3*%
X71200000Y-50112500D03*
X71200000Y-48287500D03*
%TD*%
D10*
%TO.C,RA4*%
X47700000Y-24287500D03*
X47700000Y-26112500D03*
%TD*%
D11*
%TO.C,R9*%
X93812500Y-47600000D03*
X91987500Y-47600000D03*
%TD*%
D18*
%TO.C,J4*%
X42325000Y-41950000D03*
D19*
X42325000Y-44450000D03*
%TD*%
D16*
%TO.C,Q3*%
X69950000Y-27600000D03*
X68050000Y-27600000D03*
X69000000Y-29475000D03*
%TD*%
D20*
%TO.C,C12*%
X48775000Y-39500000D03*
X47225000Y-39500000D03*
%TD*%
D14*
%TO.C,TP16*%
X111100000Y-45600000D03*
%TD*%
%TO.C,TP6*%
X48400000Y-49100000D03*
%TD*%
%TO.C,TP10*%
X57500000Y-54400000D03*
%TD*%
%TO.C,TP2*%
X85700000Y-44700000D03*
%TD*%
%TO.C,TP17*%
X77900000Y-28500000D03*
%TD*%
D11*
%TO.C,R15*%
X62700000Y-42800000D03*
X60875000Y-42800000D03*
%TD*%
D10*
%TO.C,R4*%
X66050000Y-27787500D03*
X66050000Y-29612500D03*
%TD*%
D13*
%TO.C,D3*%
X53262500Y-48150000D03*
X53262500Y-50050000D03*
X55137500Y-49100000D03*
%TD*%
D21*
%TO.C,X1*%
X92000000Y-34250000D03*
X92000000Y-42750000D03*
%TD*%
D18*
%TO.C,J6*%
X108500000Y-50200000D03*
D19*
X108500000Y-52700000D03*
%TD*%
D17*
%TO.C,RB4*%
X53300000Y-53612500D03*
X53300000Y-51787500D03*
%TD*%
%TO.C,R8*%
X68000000Y-54812500D03*
X68000000Y-52987500D03*
%TD*%
D22*
%TO.C,J8*%
X98075000Y-45150000D03*
X98075000Y-47650000D03*
X98075000Y-50150000D03*
D23*
X98075000Y-52650000D03*
%TD*%
D16*
%TO.C,Q8*%
X49050000Y-52162500D03*
X47150000Y-52162500D03*
X48100000Y-54037500D03*
%TD*%
D24*
%TO.C,TP1*%
X40200000Y-20700000D03*
%TD*%
D25*
%TO.C,Q10*%
X59137500Y-52350000D03*
X59137500Y-50450000D03*
X57262500Y-51400000D03*
%TD*%
D14*
%TO.C,TP15*%
X111100000Y-41500000D03*
%TD*%
D15*
%TO.C,C6*%
X85200000Y-47325000D03*
X85200000Y-48875000D03*
%TD*%
D13*
%TO.C,D4*%
X54262500Y-38150000D03*
X54262500Y-40050000D03*
X56137500Y-39100000D03*
%TD*%
D10*
%TO.C,RB2*%
X51100000Y-48187500D03*
X51100000Y-50012500D03*
%TD*%
D26*
%TO.C,RAV1*%
X39760000Y-28300000D03*
D27*
X44760000Y-25800000D03*
X39760000Y-23300000D03*
%TD*%
D18*
%TO.C,J3*%
X42325000Y-32900000D03*
D19*
X42325000Y-35400000D03*
%TD*%
D28*
%TO.C,J9*%
X114700000Y-30275000D03*
D29*
X117200000Y-30275000D03*
%TD*%
D16*
%TO.C,Q2*%
X65450000Y-48462500D03*
X63550000Y-48462500D03*
X64500000Y-50337500D03*
%TD*%
D30*
%TO.C,C11*%
X88512500Y-47725000D03*
X90062500Y-47725000D03*
%TD*%
D10*
%TO.C,R2*%
X83400000Y-48587500D03*
X83400000Y-50412500D03*
%TD*%
D31*
%TO.C,C20*%
X74325000Y-49700000D03*
X77275000Y-49700000D03*
%TD*%
D10*
%TO.C,R1*%
X81100000Y-49287500D03*
X81100000Y-51112500D03*
%TD*%
D20*
%TO.C,C24*%
X65975000Y-42800000D03*
X64425000Y-42800000D03*
%TD*%
D32*
%TO.C,J12*%
X116625000Y-45190000D03*
D22*
X116625000Y-47690000D03*
X116625000Y-50190000D03*
X116625000Y-52690000D03*
%TD*%
D26*
%TO.C,RBV1*%
X39760000Y-53700000D03*
D27*
X44760000Y-51200000D03*
X39760000Y-48700000D03*
%TD*%
D33*
%TO.C,R6*%
X62862500Y-46200000D03*
X59937500Y-46200000D03*
%TD*%
D34*
%TO.C,RA1*%
X52375000Y-28300000D03*
X54200000Y-28300000D03*
%TD*%
D23*
%TO.C,J7*%
X98075000Y-29750000D03*
D22*
X98075000Y-27250000D03*
X98075000Y-24750000D03*
X98075000Y-22250000D03*
%TD*%
D35*
%TO.C,F1*%
X48775000Y-33900000D03*
X55185000Y-33900000D03*
%TD*%
D36*
%TO.C,C4*%
X88300000Y-41175000D03*
X88300000Y-39625000D03*
%TD*%
D37*
%TO.C,Q1*%
X67250000Y-50337500D03*
X69150000Y-50337500D03*
X68200000Y-48462500D03*
%TD*%
D14*
%TO.C,TP13*%
X119100000Y-35500000D03*
%TD*%
D35*
%TO.C,F2*%
X48475000Y-44300000D03*
X54885000Y-44300000D03*
%TD*%
D38*
%TO.C,U9*%
X61025000Y-40962500D03*
X61675000Y-40962500D03*
X62325000Y-40962500D03*
X62975000Y-40962500D03*
D39*
X63862500Y-40075000D03*
X63862500Y-39425000D03*
X63862500Y-38775000D03*
X63862500Y-38125000D03*
D38*
X62975000Y-37237500D03*
X62325000Y-37237500D03*
X61675000Y-37237500D03*
X61025000Y-37237500D03*
D39*
X60137500Y-38125000D03*
X60137500Y-38775000D03*
X60137500Y-39425000D03*
X60137500Y-40075000D03*
D40*
X62000000Y-39100000D03*
%TD*%
D41*
%TO.C,J5*%
X105730000Y-24420000D03*
D42*
X108270000Y-24420000D03*
X105730000Y-26960000D03*
X108270000Y-26960000D03*
X105730000Y-29500000D03*
X108270000Y-29500000D03*
X105730000Y-32040000D03*
X108270000Y-32040000D03*
X105730000Y-34580000D03*
X108270000Y-34580000D03*
%TD*%
D12*
%TO.C,H1*%
X61500000Y-23000000D03*
%TD*%
D11*
%TO.C,RB1*%
X58912500Y-48500000D03*
X57087500Y-48500000D03*
%TD*%
D14*
%TO.C,TP5*%
X50000000Y-28400000D03*
%TD*%
D43*
%TO.C,J13*%
X84049000Y-23225000D03*
D44*
X81549000Y-23225000D03*
X79049000Y-23225000D03*
X76549000Y-23225000D03*
%TD*%
D45*
%TO.C,U4*%
X87087500Y-49425000D03*
X87087500Y-50075000D03*
X87087500Y-50725000D03*
X87087500Y-51375000D03*
X91312500Y-51375000D03*
X91312500Y-50725000D03*
X91312500Y-50075000D03*
X91312500Y-49425000D03*
%TD*%
D46*
%TO.C,J11*%
X70300000Y-23225000D03*
D29*
X67800000Y-23225000D03*
%TD*%
D16*
%TO.C,D2*%
X57950000Y-26962500D03*
X56050000Y-26962500D03*
X57000000Y-28837500D03*
%TD*%
D47*
%TO.C,D1*%
X70125000Y-37595000D03*
D48*
X76425000Y-39875000D03*
D47*
X70125000Y-42155000D03*
%TD*%
D37*
%TO.C,Q9*%
X63950000Y-54537500D03*
X65850000Y-54537500D03*
X64900000Y-52662500D03*
%TD*%
D33*
%TO.C,R5*%
X63162500Y-33100000D03*
X60237500Y-33100000D03*
%TD*%
D14*
%TO.C,TP3*%
X83000000Y-44700000D03*
%TD*%
D26*
%TO.C,RV1*%
X114400000Y-20960000D03*
D27*
X116900000Y-25960000D03*
X119400000Y-20960000D03*
%TD*%
D11*
%TO.C,RA2*%
X57412500Y-23300000D03*
X55587500Y-23300000D03*
%TD*%
D49*
%TO.C,U2*%
X76380000Y-53717500D03*
X78920000Y-53717500D03*
X81460000Y-53717500D03*
X84000000Y-53717500D03*
X86540000Y-53717500D03*
X89080000Y-53717500D03*
D14*
X91620000Y-53717500D03*
%TD*%
D13*
%TO.C,Q7*%
X51662500Y-22350000D03*
X51662500Y-24250000D03*
X53537500Y-23300000D03*
%TD*%
M02*
