%TF.GenerationSoftware,KiCad,Pcbnew,8.0.6-8.0.6-0~ubuntu24.04.1*%
%TF.CreationDate,2024-10-25T11:14:03+03:00*%
%TF.ProjectId,pss_v2,7073735f-7632-42e6-9b69-6361645f7063,rev?*%
%TF.SameCoordinates,Original*%
%TF.FileFunction,Legend,Bot*%
%TF.FilePolarity,Positive*%
%FSLAX46Y46*%
G04 Gerber Fmt 4.6, Leading zero omitted, Abs format (unit mm)*
G04 Created by KiCad (PCBNEW 8.0.6-8.0.6-0~ubuntu24.04.1) date 2024-10-25 11:14:03*
%MOMM*%
%LPD*%
G01*
G04 APERTURE LIST*
%ADD10C,0.100000*%
%ADD11C,0.150000*%
%ADD12C,0.120000*%
G04 APERTURE END LIST*
D10*
X58196115Y-20205752D02*
X58196115Y-21205752D01*
X58196115Y-20253371D02*
X58100877Y-20205752D01*
X58100877Y-20205752D02*
X57910401Y-20205752D01*
X57910401Y-20205752D02*
X57815163Y-20253371D01*
X57815163Y-20253371D02*
X57767544Y-20300990D01*
X57767544Y-20300990D02*
X57719925Y-20396228D01*
X57719925Y-20396228D02*
X57719925Y-20681942D01*
X57719925Y-20681942D02*
X57767544Y-20777180D01*
X57767544Y-20777180D02*
X57815163Y-20824800D01*
X57815163Y-20824800D02*
X57910401Y-20872419D01*
X57910401Y-20872419D02*
X58100877Y-20872419D01*
X58100877Y-20872419D02*
X58196115Y-20824800D01*
X57338972Y-20824800D02*
X57243734Y-20872419D01*
X57243734Y-20872419D02*
X57053258Y-20872419D01*
X57053258Y-20872419D02*
X56958020Y-20824800D01*
X56958020Y-20824800D02*
X56910401Y-20729561D01*
X56910401Y-20729561D02*
X56910401Y-20681942D01*
X56910401Y-20681942D02*
X56958020Y-20586704D01*
X56958020Y-20586704D02*
X57053258Y-20539085D01*
X57053258Y-20539085D02*
X57196115Y-20539085D01*
X57196115Y-20539085D02*
X57291353Y-20491466D01*
X57291353Y-20491466D02*
X57338972Y-20396228D01*
X57338972Y-20396228D02*
X57338972Y-20348609D01*
X57338972Y-20348609D02*
X57291353Y-20253371D01*
X57291353Y-20253371D02*
X57196115Y-20205752D01*
X57196115Y-20205752D02*
X57053258Y-20205752D01*
X57053258Y-20205752D02*
X56958020Y-20253371D01*
X56529448Y-20824800D02*
X56434210Y-20872419D01*
X56434210Y-20872419D02*
X56243734Y-20872419D01*
X56243734Y-20872419D02*
X56148496Y-20824800D01*
X56148496Y-20824800D02*
X56100877Y-20729561D01*
X56100877Y-20729561D02*
X56100877Y-20681942D01*
X56100877Y-20681942D02*
X56148496Y-20586704D01*
X56148496Y-20586704D02*
X56243734Y-20539085D01*
X56243734Y-20539085D02*
X56386591Y-20539085D01*
X56386591Y-20539085D02*
X56481829Y-20491466D01*
X56481829Y-20491466D02*
X56529448Y-20396228D01*
X56529448Y-20396228D02*
X56529448Y-20348609D01*
X56529448Y-20348609D02*
X56481829Y-20253371D01*
X56481829Y-20253371D02*
X56386591Y-20205752D01*
X56386591Y-20205752D02*
X56243734Y-20205752D01*
X56243734Y-20205752D02*
X56148496Y-20253371D01*
X55672305Y-20491466D02*
X54910401Y-20491466D01*
X54434210Y-20872419D02*
X54434210Y-20205752D01*
X54434210Y-20300990D02*
X54386591Y-20253371D01*
X54386591Y-20253371D02*
X54291353Y-20205752D01*
X54291353Y-20205752D02*
X54148496Y-20205752D01*
X54148496Y-20205752D02*
X54053258Y-20253371D01*
X54053258Y-20253371D02*
X54005639Y-20348609D01*
X54005639Y-20348609D02*
X54005639Y-20872419D01*
X54005639Y-20348609D02*
X53958020Y-20253371D01*
X53958020Y-20253371D02*
X53862782Y-20205752D01*
X53862782Y-20205752D02*
X53719925Y-20205752D01*
X53719925Y-20205752D02*
X53624686Y-20253371D01*
X53624686Y-20253371D02*
X53577067Y-20348609D01*
X53577067Y-20348609D02*
X53577067Y-20872419D01*
X52672306Y-20872419D02*
X52672306Y-20348609D01*
X52672306Y-20348609D02*
X52719925Y-20253371D01*
X52719925Y-20253371D02*
X52815163Y-20205752D01*
X52815163Y-20205752D02*
X53005639Y-20205752D01*
X53005639Y-20205752D02*
X53100877Y-20253371D01*
X52672306Y-20824800D02*
X52767544Y-20872419D01*
X52767544Y-20872419D02*
X53005639Y-20872419D01*
X53005639Y-20872419D02*
X53100877Y-20824800D01*
X53100877Y-20824800D02*
X53148496Y-20729561D01*
X53148496Y-20729561D02*
X53148496Y-20634323D01*
X53148496Y-20634323D02*
X53100877Y-20539085D01*
X53100877Y-20539085D02*
X53005639Y-20491466D01*
X53005639Y-20491466D02*
X52767544Y-20491466D01*
X52767544Y-20491466D02*
X52672306Y-20443847D01*
X52196115Y-20872419D02*
X52196115Y-20205752D01*
X52196115Y-19872419D02*
X52243734Y-19920038D01*
X52243734Y-19920038D02*
X52196115Y-19967657D01*
X52196115Y-19967657D02*
X52148496Y-19920038D01*
X52148496Y-19920038D02*
X52196115Y-19872419D01*
X52196115Y-19872419D02*
X52196115Y-19967657D01*
X51719925Y-20205752D02*
X51719925Y-20872419D01*
X51719925Y-20300990D02*
X51672306Y-20253371D01*
X51672306Y-20253371D02*
X51577068Y-20205752D01*
X51577068Y-20205752D02*
X51434211Y-20205752D01*
X51434211Y-20205752D02*
X51338973Y-20253371D01*
X51338973Y-20253371D02*
X51291354Y-20348609D01*
X51291354Y-20348609D02*
X51291354Y-20872419D01*
X50815163Y-20491466D02*
X50053259Y-20491466D01*
X49577068Y-20872419D02*
X49577068Y-19872419D01*
X49577068Y-20253371D02*
X49481830Y-20205752D01*
X49481830Y-20205752D02*
X49291354Y-20205752D01*
X49291354Y-20205752D02*
X49196116Y-20253371D01*
X49196116Y-20253371D02*
X49148497Y-20300990D01*
X49148497Y-20300990D02*
X49100878Y-20396228D01*
X49100878Y-20396228D02*
X49100878Y-20681942D01*
X49100878Y-20681942D02*
X49148497Y-20777180D01*
X49148497Y-20777180D02*
X49196116Y-20824800D01*
X49196116Y-20824800D02*
X49291354Y-20872419D01*
X49291354Y-20872419D02*
X49481830Y-20872419D01*
X49481830Y-20872419D02*
X49577068Y-20824800D01*
X48529449Y-20872419D02*
X48624687Y-20824800D01*
X48624687Y-20824800D02*
X48672306Y-20777180D01*
X48672306Y-20777180D02*
X48719925Y-20681942D01*
X48719925Y-20681942D02*
X48719925Y-20396228D01*
X48719925Y-20396228D02*
X48672306Y-20300990D01*
X48672306Y-20300990D02*
X48624687Y-20253371D01*
X48624687Y-20253371D02*
X48529449Y-20205752D01*
X48529449Y-20205752D02*
X48386592Y-20205752D01*
X48386592Y-20205752D02*
X48291354Y-20253371D01*
X48291354Y-20253371D02*
X48243735Y-20300990D01*
X48243735Y-20300990D02*
X48196116Y-20396228D01*
X48196116Y-20396228D02*
X48196116Y-20681942D01*
X48196116Y-20681942D02*
X48243735Y-20777180D01*
X48243735Y-20777180D02*
X48291354Y-20824800D01*
X48291354Y-20824800D02*
X48386592Y-20872419D01*
X48386592Y-20872419D02*
X48529449Y-20872419D01*
X47338973Y-20872419D02*
X47338973Y-20348609D01*
X47338973Y-20348609D02*
X47386592Y-20253371D01*
X47386592Y-20253371D02*
X47481830Y-20205752D01*
X47481830Y-20205752D02*
X47672306Y-20205752D01*
X47672306Y-20205752D02*
X47767544Y-20253371D01*
X47338973Y-20824800D02*
X47434211Y-20872419D01*
X47434211Y-20872419D02*
X47672306Y-20872419D01*
X47672306Y-20872419D02*
X47767544Y-20824800D01*
X47767544Y-20824800D02*
X47815163Y-20729561D01*
X47815163Y-20729561D02*
X47815163Y-20634323D01*
X47815163Y-20634323D02*
X47767544Y-20539085D01*
X47767544Y-20539085D02*
X47672306Y-20491466D01*
X47672306Y-20491466D02*
X47434211Y-20491466D01*
X47434211Y-20491466D02*
X47338973Y-20443847D01*
X46862782Y-20872419D02*
X46862782Y-20205752D01*
X46862782Y-20396228D02*
X46815163Y-20300990D01*
X46815163Y-20300990D02*
X46767544Y-20253371D01*
X46767544Y-20253371D02*
X46672306Y-20205752D01*
X46672306Y-20205752D02*
X46577068Y-20205752D01*
X45815163Y-20872419D02*
X45815163Y-19872419D01*
X45815163Y-20824800D02*
X45910401Y-20872419D01*
X45910401Y-20872419D02*
X46100877Y-20872419D01*
X46100877Y-20872419D02*
X46196115Y-20824800D01*
X46196115Y-20824800D02*
X46243734Y-20777180D01*
X46243734Y-20777180D02*
X46291353Y-20681942D01*
X46291353Y-20681942D02*
X46291353Y-20396228D01*
X46291353Y-20396228D02*
X46243734Y-20300990D01*
X46243734Y-20300990D02*
X46196115Y-20253371D01*
X46196115Y-20253371D02*
X46100877Y-20205752D01*
X46100877Y-20205752D02*
X45910401Y-20205752D01*
X45910401Y-20205752D02*
X45815163Y-20253371D01*
X44672305Y-20205752D02*
X44434210Y-20872419D01*
X44434210Y-20872419D02*
X44196115Y-20205752D01*
X43862781Y-19967657D02*
X43815162Y-19920038D01*
X43815162Y-19920038D02*
X43719924Y-19872419D01*
X43719924Y-19872419D02*
X43481829Y-19872419D01*
X43481829Y-19872419D02*
X43386591Y-19920038D01*
X43386591Y-19920038D02*
X43338972Y-19967657D01*
X43338972Y-19967657D02*
X43291353Y-20062895D01*
X43291353Y-20062895D02*
X43291353Y-20158133D01*
X43291353Y-20158133D02*
X43338972Y-20300990D01*
X43338972Y-20300990D02*
X43910400Y-20872419D01*
X43910400Y-20872419D02*
X43291353Y-20872419D01*
X42862781Y-20777180D02*
X42815162Y-20824800D01*
X42815162Y-20824800D02*
X42862781Y-20872419D01*
X42862781Y-20872419D02*
X42910400Y-20824800D01*
X42910400Y-20824800D02*
X42862781Y-20777180D01*
X42862781Y-20777180D02*
X42862781Y-20872419D01*
X42196115Y-19872419D02*
X42100877Y-19872419D01*
X42100877Y-19872419D02*
X42005639Y-19920038D01*
X42005639Y-19920038D02*
X41958020Y-19967657D01*
X41958020Y-19967657D02*
X41910401Y-20062895D01*
X41910401Y-20062895D02*
X41862782Y-20253371D01*
X41862782Y-20253371D02*
X41862782Y-20491466D01*
X41862782Y-20491466D02*
X41910401Y-20681942D01*
X41910401Y-20681942D02*
X41958020Y-20777180D01*
X41958020Y-20777180D02*
X42005639Y-20824800D01*
X42005639Y-20824800D02*
X42100877Y-20872419D01*
X42100877Y-20872419D02*
X42196115Y-20872419D01*
X42196115Y-20872419D02*
X42291353Y-20824800D01*
X42291353Y-20824800D02*
X42338972Y-20777180D01*
X42338972Y-20777180D02*
X42386591Y-20681942D01*
X42386591Y-20681942D02*
X42434210Y-20491466D01*
X42434210Y-20491466D02*
X42434210Y-20253371D01*
X42434210Y-20253371D02*
X42386591Y-20062895D01*
X42386591Y-20062895D02*
X42338972Y-19967657D01*
X42338972Y-19967657D02*
X42291353Y-19920038D01*
X42291353Y-19920038D02*
X42196115Y-19872419D01*
D11*
X103542857Y-24459580D02*
X103590476Y-24507200D01*
X103590476Y-24507200D02*
X103733333Y-24554819D01*
X103733333Y-24554819D02*
X103828571Y-24554819D01*
X103828571Y-24554819D02*
X103971428Y-24507200D01*
X103971428Y-24507200D02*
X104066666Y-24411961D01*
X104066666Y-24411961D02*
X104114285Y-24316723D01*
X104114285Y-24316723D02*
X104161904Y-24126247D01*
X104161904Y-24126247D02*
X104161904Y-23983390D01*
X104161904Y-23983390D02*
X104114285Y-23792914D01*
X104114285Y-23792914D02*
X104066666Y-23697676D01*
X104066666Y-23697676D02*
X103971428Y-23602438D01*
X103971428Y-23602438D02*
X103828571Y-23554819D01*
X103828571Y-23554819D02*
X103733333Y-23554819D01*
X103733333Y-23554819D02*
X103590476Y-23602438D01*
X103590476Y-23602438D02*
X103542857Y-23650057D01*
X102590476Y-24554819D02*
X103161904Y-24554819D01*
X102876190Y-24554819D02*
X102876190Y-23554819D01*
X102876190Y-23554819D02*
X102971428Y-23697676D01*
X102971428Y-23697676D02*
X103066666Y-23792914D01*
X103066666Y-23792914D02*
X103161904Y-23840533D01*
X101685714Y-23554819D02*
X102161904Y-23554819D01*
X102161904Y-23554819D02*
X102209523Y-24031009D01*
X102209523Y-24031009D02*
X102161904Y-23983390D01*
X102161904Y-23983390D02*
X102066666Y-23935771D01*
X102066666Y-23935771D02*
X101828571Y-23935771D01*
X101828571Y-23935771D02*
X101733333Y-23983390D01*
X101733333Y-23983390D02*
X101685714Y-24031009D01*
X101685714Y-24031009D02*
X101638095Y-24126247D01*
X101638095Y-24126247D02*
X101638095Y-24364342D01*
X101638095Y-24364342D02*
X101685714Y-24459580D01*
X101685714Y-24459580D02*
X101733333Y-24507200D01*
X101733333Y-24507200D02*
X101828571Y-24554819D01*
X101828571Y-24554819D02*
X102066666Y-24554819D01*
X102066666Y-24554819D02*
X102161904Y-24507200D01*
X102161904Y-24507200D02*
X102209523Y-24459580D01*
X117417857Y-28109580D02*
X117465476Y-28157200D01*
X117465476Y-28157200D02*
X117608333Y-28204819D01*
X117608333Y-28204819D02*
X117703571Y-28204819D01*
X117703571Y-28204819D02*
X117846428Y-28157200D01*
X117846428Y-28157200D02*
X117941666Y-28061961D01*
X117941666Y-28061961D02*
X117989285Y-27966723D01*
X117989285Y-27966723D02*
X118036904Y-27776247D01*
X118036904Y-27776247D02*
X118036904Y-27633390D01*
X118036904Y-27633390D02*
X117989285Y-27442914D01*
X117989285Y-27442914D02*
X117941666Y-27347676D01*
X117941666Y-27347676D02*
X117846428Y-27252438D01*
X117846428Y-27252438D02*
X117703571Y-27204819D01*
X117703571Y-27204819D02*
X117608333Y-27204819D01*
X117608333Y-27204819D02*
X117465476Y-27252438D01*
X117465476Y-27252438D02*
X117417857Y-27300057D01*
X116465476Y-28204819D02*
X117036904Y-28204819D01*
X116751190Y-28204819D02*
X116751190Y-27204819D01*
X116751190Y-27204819D02*
X116846428Y-27347676D01*
X116846428Y-27347676D02*
X116941666Y-27442914D01*
X116941666Y-27442914D02*
X117036904Y-27490533D01*
X115989285Y-28204819D02*
X115798809Y-28204819D01*
X115798809Y-28204819D02*
X115703571Y-28157200D01*
X115703571Y-28157200D02*
X115655952Y-28109580D01*
X115655952Y-28109580D02*
X115560714Y-27966723D01*
X115560714Y-27966723D02*
X115513095Y-27776247D01*
X115513095Y-27776247D02*
X115513095Y-27395295D01*
X115513095Y-27395295D02*
X115560714Y-27300057D01*
X115560714Y-27300057D02*
X115608333Y-27252438D01*
X115608333Y-27252438D02*
X115703571Y-27204819D01*
X115703571Y-27204819D02*
X115894047Y-27204819D01*
X115894047Y-27204819D02*
X115989285Y-27252438D01*
X115989285Y-27252438D02*
X116036904Y-27300057D01*
X116036904Y-27300057D02*
X116084523Y-27395295D01*
X116084523Y-27395295D02*
X116084523Y-27633390D01*
X116084523Y-27633390D02*
X116036904Y-27728628D01*
X116036904Y-27728628D02*
X115989285Y-27776247D01*
X115989285Y-27776247D02*
X115894047Y-27823866D01*
X115894047Y-27823866D02*
X115703571Y-27823866D01*
X115703571Y-27823866D02*
X115608333Y-27776247D01*
X115608333Y-27776247D02*
X115560714Y-27728628D01*
X115560714Y-27728628D02*
X115513095Y-27633390D01*
X68671428Y-43750057D02*
X68766666Y-43702438D01*
X68766666Y-43702438D02*
X68861904Y-43607200D01*
X68861904Y-43607200D02*
X69004761Y-43464342D01*
X69004761Y-43464342D02*
X69099999Y-43416723D01*
X69099999Y-43416723D02*
X69195237Y-43416723D01*
X69147618Y-43654819D02*
X69242856Y-43607200D01*
X69242856Y-43607200D02*
X69338094Y-43511961D01*
X69338094Y-43511961D02*
X69385713Y-43321485D01*
X69385713Y-43321485D02*
X69385713Y-42988152D01*
X69385713Y-42988152D02*
X69338094Y-42797676D01*
X69338094Y-42797676D02*
X69242856Y-42702438D01*
X69242856Y-42702438D02*
X69147618Y-42654819D01*
X69147618Y-42654819D02*
X68957142Y-42654819D01*
X68957142Y-42654819D02*
X68861904Y-42702438D01*
X68861904Y-42702438D02*
X68766666Y-42797676D01*
X68766666Y-42797676D02*
X68719047Y-42988152D01*
X68719047Y-42988152D02*
X68719047Y-43321485D01*
X68719047Y-43321485D02*
X68766666Y-43511961D01*
X68766666Y-43511961D02*
X68861904Y-43607200D01*
X68861904Y-43607200D02*
X68957142Y-43654819D01*
X68957142Y-43654819D02*
X69147618Y-43654819D01*
X67766666Y-43654819D02*
X68338094Y-43654819D01*
X68052380Y-43654819D02*
X68052380Y-42654819D01*
X68052380Y-42654819D02*
X68147618Y-42797676D01*
X68147618Y-42797676D02*
X68242856Y-42892914D01*
X68242856Y-42892914D02*
X68338094Y-42940533D01*
X67433332Y-42654819D02*
X66814285Y-42654819D01*
X66814285Y-42654819D02*
X67147618Y-43035771D01*
X67147618Y-43035771D02*
X67004761Y-43035771D01*
X67004761Y-43035771D02*
X66909523Y-43083390D01*
X66909523Y-43083390D02*
X66861904Y-43131009D01*
X66861904Y-43131009D02*
X66814285Y-43226247D01*
X66814285Y-43226247D02*
X66814285Y-43464342D01*
X66814285Y-43464342D02*
X66861904Y-43559580D01*
X66861904Y-43559580D02*
X66909523Y-43607200D01*
X66909523Y-43607200D02*
X67004761Y-43654819D01*
X67004761Y-43654819D02*
X67290475Y-43654819D01*
X67290475Y-43654819D02*
X67385713Y-43607200D01*
X67385713Y-43607200D02*
X67433332Y-43559580D01*
X114117857Y-51209580D02*
X114165476Y-51257200D01*
X114165476Y-51257200D02*
X114308333Y-51304819D01*
X114308333Y-51304819D02*
X114403571Y-51304819D01*
X114403571Y-51304819D02*
X114546428Y-51257200D01*
X114546428Y-51257200D02*
X114641666Y-51161961D01*
X114641666Y-51161961D02*
X114689285Y-51066723D01*
X114689285Y-51066723D02*
X114736904Y-50876247D01*
X114736904Y-50876247D02*
X114736904Y-50733390D01*
X114736904Y-50733390D02*
X114689285Y-50542914D01*
X114689285Y-50542914D02*
X114641666Y-50447676D01*
X114641666Y-50447676D02*
X114546428Y-50352438D01*
X114546428Y-50352438D02*
X114403571Y-50304819D01*
X114403571Y-50304819D02*
X114308333Y-50304819D01*
X114308333Y-50304819D02*
X114165476Y-50352438D01*
X114165476Y-50352438D02*
X114117857Y-50400057D01*
X113736904Y-50400057D02*
X113689285Y-50352438D01*
X113689285Y-50352438D02*
X113594047Y-50304819D01*
X113594047Y-50304819D02*
X113355952Y-50304819D01*
X113355952Y-50304819D02*
X113260714Y-50352438D01*
X113260714Y-50352438D02*
X113213095Y-50400057D01*
X113213095Y-50400057D02*
X113165476Y-50495295D01*
X113165476Y-50495295D02*
X113165476Y-50590533D01*
X113165476Y-50590533D02*
X113213095Y-50733390D01*
X113213095Y-50733390D02*
X113784523Y-51304819D01*
X113784523Y-51304819D02*
X113165476Y-51304819D01*
X112784523Y-50400057D02*
X112736904Y-50352438D01*
X112736904Y-50352438D02*
X112641666Y-50304819D01*
X112641666Y-50304819D02*
X112403571Y-50304819D01*
X112403571Y-50304819D02*
X112308333Y-50352438D01*
X112308333Y-50352438D02*
X112260714Y-50400057D01*
X112260714Y-50400057D02*
X112213095Y-50495295D01*
X112213095Y-50495295D02*
X112213095Y-50590533D01*
X112213095Y-50590533D02*
X112260714Y-50733390D01*
X112260714Y-50733390D02*
X112832142Y-51304819D01*
X112832142Y-51304819D02*
X112213095Y-51304819D01*
X56666666Y-44359580D02*
X56714285Y-44407200D01*
X56714285Y-44407200D02*
X56857142Y-44454819D01*
X56857142Y-44454819D02*
X56952380Y-44454819D01*
X56952380Y-44454819D02*
X57095237Y-44407200D01*
X57095237Y-44407200D02*
X57190475Y-44311961D01*
X57190475Y-44311961D02*
X57238094Y-44216723D01*
X57238094Y-44216723D02*
X57285713Y-44026247D01*
X57285713Y-44026247D02*
X57285713Y-43883390D01*
X57285713Y-43883390D02*
X57238094Y-43692914D01*
X57238094Y-43692914D02*
X57190475Y-43597676D01*
X57190475Y-43597676D02*
X57095237Y-43502438D01*
X57095237Y-43502438D02*
X56952380Y-43454819D01*
X56952380Y-43454819D02*
X56857142Y-43454819D01*
X56857142Y-43454819D02*
X56714285Y-43502438D01*
X56714285Y-43502438D02*
X56666666Y-43550057D01*
X56095237Y-43883390D02*
X56190475Y-43835771D01*
X56190475Y-43835771D02*
X56238094Y-43788152D01*
X56238094Y-43788152D02*
X56285713Y-43692914D01*
X56285713Y-43692914D02*
X56285713Y-43645295D01*
X56285713Y-43645295D02*
X56238094Y-43550057D01*
X56238094Y-43550057D02*
X56190475Y-43502438D01*
X56190475Y-43502438D02*
X56095237Y-43454819D01*
X56095237Y-43454819D02*
X55904761Y-43454819D01*
X55904761Y-43454819D02*
X55809523Y-43502438D01*
X55809523Y-43502438D02*
X55761904Y-43550057D01*
X55761904Y-43550057D02*
X55714285Y-43645295D01*
X55714285Y-43645295D02*
X55714285Y-43692914D01*
X55714285Y-43692914D02*
X55761904Y-43788152D01*
X55761904Y-43788152D02*
X55809523Y-43835771D01*
X55809523Y-43835771D02*
X55904761Y-43883390D01*
X55904761Y-43883390D02*
X56095237Y-43883390D01*
X56095237Y-43883390D02*
X56190475Y-43931009D01*
X56190475Y-43931009D02*
X56238094Y-43978628D01*
X56238094Y-43978628D02*
X56285713Y-44073866D01*
X56285713Y-44073866D02*
X56285713Y-44264342D01*
X56285713Y-44264342D02*
X56238094Y-44359580D01*
X56238094Y-44359580D02*
X56190475Y-44407200D01*
X56190475Y-44407200D02*
X56095237Y-44454819D01*
X56095237Y-44454819D02*
X55904761Y-44454819D01*
X55904761Y-44454819D02*
X55809523Y-44407200D01*
X55809523Y-44407200D02*
X55761904Y-44359580D01*
X55761904Y-44359580D02*
X55714285Y-44264342D01*
X55714285Y-44264342D02*
X55714285Y-44073866D01*
X55714285Y-44073866D02*
X55761904Y-43978628D01*
X55761904Y-43978628D02*
X55809523Y-43931009D01*
X55809523Y-43931009D02*
X55904761Y-43883390D01*
X62061904Y-28504819D02*
X62061904Y-29314342D01*
X62061904Y-29314342D02*
X62014285Y-29409580D01*
X62014285Y-29409580D02*
X61966666Y-29457200D01*
X61966666Y-29457200D02*
X61871428Y-29504819D01*
X61871428Y-29504819D02*
X61680952Y-29504819D01*
X61680952Y-29504819D02*
X61585714Y-29457200D01*
X61585714Y-29457200D02*
X61538095Y-29409580D01*
X61538095Y-29409580D02*
X61490476Y-29314342D01*
X61490476Y-29314342D02*
X61490476Y-28504819D01*
X60585714Y-28504819D02*
X60776190Y-28504819D01*
X60776190Y-28504819D02*
X60871428Y-28552438D01*
X60871428Y-28552438D02*
X60919047Y-28600057D01*
X60919047Y-28600057D02*
X61014285Y-28742914D01*
X61014285Y-28742914D02*
X61061904Y-28933390D01*
X61061904Y-28933390D02*
X61061904Y-29314342D01*
X61061904Y-29314342D02*
X61014285Y-29409580D01*
X61014285Y-29409580D02*
X60966666Y-29457200D01*
X60966666Y-29457200D02*
X60871428Y-29504819D01*
X60871428Y-29504819D02*
X60680952Y-29504819D01*
X60680952Y-29504819D02*
X60585714Y-29457200D01*
X60585714Y-29457200D02*
X60538095Y-29409580D01*
X60538095Y-29409580D02*
X60490476Y-29314342D01*
X60490476Y-29314342D02*
X60490476Y-29076247D01*
X60490476Y-29076247D02*
X60538095Y-28981009D01*
X60538095Y-28981009D02*
X60585714Y-28933390D01*
X60585714Y-28933390D02*
X60680952Y-28885771D01*
X60680952Y-28885771D02*
X60871428Y-28885771D01*
X60871428Y-28885771D02*
X60966666Y-28933390D01*
X60966666Y-28933390D02*
X61014285Y-28981009D01*
X61014285Y-28981009D02*
X61061904Y-29076247D01*
X48261904Y-39129819D02*
X48261904Y-39939342D01*
X48261904Y-39939342D02*
X48214285Y-40034580D01*
X48214285Y-40034580D02*
X48166666Y-40082200D01*
X48166666Y-40082200D02*
X48071428Y-40129819D01*
X48071428Y-40129819D02*
X47880952Y-40129819D01*
X47880952Y-40129819D02*
X47785714Y-40082200D01*
X47785714Y-40082200D02*
X47738095Y-40034580D01*
X47738095Y-40034580D02*
X47690476Y-39939342D01*
X47690476Y-39939342D02*
X47690476Y-39129819D01*
X47309523Y-39129819D02*
X46690476Y-39129819D01*
X46690476Y-39129819D02*
X47023809Y-39510771D01*
X47023809Y-39510771D02*
X46880952Y-39510771D01*
X46880952Y-39510771D02*
X46785714Y-39558390D01*
X46785714Y-39558390D02*
X46738095Y-39606009D01*
X46738095Y-39606009D02*
X46690476Y-39701247D01*
X46690476Y-39701247D02*
X46690476Y-39939342D01*
X46690476Y-39939342D02*
X46738095Y-40034580D01*
X46738095Y-40034580D02*
X46785714Y-40082200D01*
X46785714Y-40082200D02*
X46880952Y-40129819D01*
X46880952Y-40129819D02*
X47166666Y-40129819D01*
X47166666Y-40129819D02*
X47261904Y-40082200D01*
X47261904Y-40082200D02*
X47309523Y-40034580D01*
X69442857Y-47659580D02*
X69490476Y-47707200D01*
X69490476Y-47707200D02*
X69633333Y-47754819D01*
X69633333Y-47754819D02*
X69728571Y-47754819D01*
X69728571Y-47754819D02*
X69871428Y-47707200D01*
X69871428Y-47707200D02*
X69966666Y-47611961D01*
X69966666Y-47611961D02*
X70014285Y-47516723D01*
X70014285Y-47516723D02*
X70061904Y-47326247D01*
X70061904Y-47326247D02*
X70061904Y-47183390D01*
X70061904Y-47183390D02*
X70014285Y-46992914D01*
X70014285Y-46992914D02*
X69966666Y-46897676D01*
X69966666Y-46897676D02*
X69871428Y-46802438D01*
X69871428Y-46802438D02*
X69728571Y-46754819D01*
X69728571Y-46754819D02*
X69633333Y-46754819D01*
X69633333Y-46754819D02*
X69490476Y-46802438D01*
X69490476Y-46802438D02*
X69442857Y-46850057D01*
X68490476Y-47754819D02*
X69061904Y-47754819D01*
X68776190Y-47754819D02*
X68776190Y-46754819D01*
X68776190Y-46754819D02*
X68871428Y-46897676D01*
X68871428Y-46897676D02*
X68966666Y-46992914D01*
X68966666Y-46992914D02*
X69061904Y-47040533D01*
X68157142Y-46754819D02*
X67490476Y-46754819D01*
X67490476Y-46754819D02*
X67919047Y-47754819D01*
X80042857Y-40854819D02*
X80376190Y-40378628D01*
X80614285Y-40854819D02*
X80614285Y-39854819D01*
X80614285Y-39854819D02*
X80233333Y-39854819D01*
X80233333Y-39854819D02*
X80138095Y-39902438D01*
X80138095Y-39902438D02*
X80090476Y-39950057D01*
X80090476Y-39950057D02*
X80042857Y-40045295D01*
X80042857Y-40045295D02*
X80042857Y-40188152D01*
X80042857Y-40188152D02*
X80090476Y-40283390D01*
X80090476Y-40283390D02*
X80138095Y-40331009D01*
X80138095Y-40331009D02*
X80233333Y-40378628D01*
X80233333Y-40378628D02*
X80614285Y-40378628D01*
X79090476Y-40854819D02*
X79661904Y-40854819D01*
X79376190Y-40854819D02*
X79376190Y-39854819D01*
X79376190Y-39854819D02*
X79471428Y-39997676D01*
X79471428Y-39997676D02*
X79566666Y-40092914D01*
X79566666Y-40092914D02*
X79661904Y-40140533D01*
X78757142Y-39854819D02*
X78138095Y-39854819D01*
X78138095Y-39854819D02*
X78471428Y-40235771D01*
X78471428Y-40235771D02*
X78328571Y-40235771D01*
X78328571Y-40235771D02*
X78233333Y-40283390D01*
X78233333Y-40283390D02*
X78185714Y-40331009D01*
X78185714Y-40331009D02*
X78138095Y-40426247D01*
X78138095Y-40426247D02*
X78138095Y-40664342D01*
X78138095Y-40664342D02*
X78185714Y-40759580D01*
X78185714Y-40759580D02*
X78233333Y-40807200D01*
X78233333Y-40807200D02*
X78328571Y-40854819D01*
X78328571Y-40854819D02*
X78614285Y-40854819D01*
X78614285Y-40854819D02*
X78709523Y-40807200D01*
X78709523Y-40807200D02*
X78757142Y-40759580D01*
X80942857Y-28154819D02*
X81276190Y-27678628D01*
X81514285Y-28154819D02*
X81514285Y-27154819D01*
X81514285Y-27154819D02*
X81133333Y-27154819D01*
X81133333Y-27154819D02*
X81038095Y-27202438D01*
X81038095Y-27202438D02*
X80990476Y-27250057D01*
X80990476Y-27250057D02*
X80942857Y-27345295D01*
X80942857Y-27345295D02*
X80942857Y-27488152D01*
X80942857Y-27488152D02*
X80990476Y-27583390D01*
X80990476Y-27583390D02*
X81038095Y-27631009D01*
X81038095Y-27631009D02*
X81133333Y-27678628D01*
X81133333Y-27678628D02*
X81514285Y-27678628D01*
X79990476Y-28154819D02*
X80561904Y-28154819D01*
X80276190Y-28154819D02*
X80276190Y-27154819D01*
X80276190Y-27154819D02*
X80371428Y-27297676D01*
X80371428Y-27297676D02*
X80466666Y-27392914D01*
X80466666Y-27392914D02*
X80561904Y-27440533D01*
X79419047Y-27583390D02*
X79514285Y-27535771D01*
X79514285Y-27535771D02*
X79561904Y-27488152D01*
X79561904Y-27488152D02*
X79609523Y-27392914D01*
X79609523Y-27392914D02*
X79609523Y-27345295D01*
X79609523Y-27345295D02*
X79561904Y-27250057D01*
X79561904Y-27250057D02*
X79514285Y-27202438D01*
X79514285Y-27202438D02*
X79419047Y-27154819D01*
X79419047Y-27154819D02*
X79228571Y-27154819D01*
X79228571Y-27154819D02*
X79133333Y-27202438D01*
X79133333Y-27202438D02*
X79085714Y-27250057D01*
X79085714Y-27250057D02*
X79038095Y-27345295D01*
X79038095Y-27345295D02*
X79038095Y-27392914D01*
X79038095Y-27392914D02*
X79085714Y-27488152D01*
X79085714Y-27488152D02*
X79133333Y-27535771D01*
X79133333Y-27535771D02*
X79228571Y-27583390D01*
X79228571Y-27583390D02*
X79419047Y-27583390D01*
X79419047Y-27583390D02*
X79514285Y-27631009D01*
X79514285Y-27631009D02*
X79561904Y-27678628D01*
X79561904Y-27678628D02*
X79609523Y-27773866D01*
X79609523Y-27773866D02*
X79609523Y-27964342D01*
X79609523Y-27964342D02*
X79561904Y-28059580D01*
X79561904Y-28059580D02*
X79514285Y-28107200D01*
X79514285Y-28107200D02*
X79419047Y-28154819D01*
X79419047Y-28154819D02*
X79228571Y-28154819D01*
X79228571Y-28154819D02*
X79133333Y-28107200D01*
X79133333Y-28107200D02*
X79085714Y-28059580D01*
X79085714Y-28059580D02*
X79038095Y-27964342D01*
X79038095Y-27964342D02*
X79038095Y-27773866D01*
X79038095Y-27773866D02*
X79085714Y-27678628D01*
X79085714Y-27678628D02*
X79133333Y-27631009D01*
X79133333Y-27631009D02*
X79228571Y-27583390D01*
X62761904Y-37354819D02*
X62761904Y-38164342D01*
X62761904Y-38164342D02*
X62714285Y-38259580D01*
X62714285Y-38259580D02*
X62666666Y-38307200D01*
X62666666Y-38307200D02*
X62571428Y-38354819D01*
X62571428Y-38354819D02*
X62380952Y-38354819D01*
X62380952Y-38354819D02*
X62285714Y-38307200D01*
X62285714Y-38307200D02*
X62238095Y-38259580D01*
X62238095Y-38259580D02*
X62190476Y-38164342D01*
X62190476Y-38164342D02*
X62190476Y-37354819D01*
X61238095Y-37354819D02*
X61714285Y-37354819D01*
X61714285Y-37354819D02*
X61761904Y-37831009D01*
X61761904Y-37831009D02*
X61714285Y-37783390D01*
X61714285Y-37783390D02*
X61619047Y-37735771D01*
X61619047Y-37735771D02*
X61380952Y-37735771D01*
X61380952Y-37735771D02*
X61285714Y-37783390D01*
X61285714Y-37783390D02*
X61238095Y-37831009D01*
X61238095Y-37831009D02*
X61190476Y-37926247D01*
X61190476Y-37926247D02*
X61190476Y-38164342D01*
X61190476Y-38164342D02*
X61238095Y-38259580D01*
X61238095Y-38259580D02*
X61285714Y-38307200D01*
X61285714Y-38307200D02*
X61380952Y-38354819D01*
X61380952Y-38354819D02*
X61619047Y-38354819D01*
X61619047Y-38354819D02*
X61714285Y-38307200D01*
X61714285Y-38307200D02*
X61761904Y-38259580D01*
X88066666Y-28689580D02*
X88114285Y-28737200D01*
X88114285Y-28737200D02*
X88257142Y-28784819D01*
X88257142Y-28784819D02*
X88352380Y-28784819D01*
X88352380Y-28784819D02*
X88495237Y-28737200D01*
X88495237Y-28737200D02*
X88590475Y-28641961D01*
X88590475Y-28641961D02*
X88638094Y-28546723D01*
X88638094Y-28546723D02*
X88685713Y-28356247D01*
X88685713Y-28356247D02*
X88685713Y-28213390D01*
X88685713Y-28213390D02*
X88638094Y-28022914D01*
X88638094Y-28022914D02*
X88590475Y-27927676D01*
X88590475Y-27927676D02*
X88495237Y-27832438D01*
X88495237Y-27832438D02*
X88352380Y-27784819D01*
X88352380Y-27784819D02*
X88257142Y-27784819D01*
X88257142Y-27784819D02*
X88114285Y-27832438D01*
X88114285Y-27832438D02*
X88066666Y-27880057D01*
X87114285Y-28784819D02*
X87685713Y-28784819D01*
X87399999Y-28784819D02*
X87399999Y-27784819D01*
X87399999Y-27784819D02*
X87495237Y-27927676D01*
X87495237Y-27927676D02*
X87590475Y-28022914D01*
X87590475Y-28022914D02*
X87685713Y-28070533D01*
X54166666Y-33359580D02*
X54214285Y-33407200D01*
X54214285Y-33407200D02*
X54357142Y-33454819D01*
X54357142Y-33454819D02*
X54452380Y-33454819D01*
X54452380Y-33454819D02*
X54595237Y-33407200D01*
X54595237Y-33407200D02*
X54690475Y-33311961D01*
X54690475Y-33311961D02*
X54738094Y-33216723D01*
X54738094Y-33216723D02*
X54785713Y-33026247D01*
X54785713Y-33026247D02*
X54785713Y-32883390D01*
X54785713Y-32883390D02*
X54738094Y-32692914D01*
X54738094Y-32692914D02*
X54690475Y-32597676D01*
X54690475Y-32597676D02*
X54595237Y-32502438D01*
X54595237Y-32502438D02*
X54452380Y-32454819D01*
X54452380Y-32454819D02*
X54357142Y-32454819D01*
X54357142Y-32454819D02*
X54214285Y-32502438D01*
X54214285Y-32502438D02*
X54166666Y-32550057D01*
X53833332Y-32454819D02*
X53166666Y-32454819D01*
X53166666Y-32454819D02*
X53595237Y-33454819D01*
X114742857Y-42154819D02*
X115076190Y-41678628D01*
X115314285Y-42154819D02*
X115314285Y-41154819D01*
X115314285Y-41154819D02*
X114933333Y-41154819D01*
X114933333Y-41154819D02*
X114838095Y-41202438D01*
X114838095Y-41202438D02*
X114790476Y-41250057D01*
X114790476Y-41250057D02*
X114742857Y-41345295D01*
X114742857Y-41345295D02*
X114742857Y-41488152D01*
X114742857Y-41488152D02*
X114790476Y-41583390D01*
X114790476Y-41583390D02*
X114838095Y-41631009D01*
X114838095Y-41631009D02*
X114933333Y-41678628D01*
X114933333Y-41678628D02*
X115314285Y-41678628D01*
X113790476Y-42154819D02*
X114361904Y-42154819D01*
X114076190Y-42154819D02*
X114076190Y-41154819D01*
X114076190Y-41154819D02*
X114171428Y-41297676D01*
X114171428Y-41297676D02*
X114266666Y-41392914D01*
X114266666Y-41392914D02*
X114361904Y-41440533D01*
X112933333Y-41154819D02*
X113123809Y-41154819D01*
X113123809Y-41154819D02*
X113219047Y-41202438D01*
X113219047Y-41202438D02*
X113266666Y-41250057D01*
X113266666Y-41250057D02*
X113361904Y-41392914D01*
X113361904Y-41392914D02*
X113409523Y-41583390D01*
X113409523Y-41583390D02*
X113409523Y-41964342D01*
X113409523Y-41964342D02*
X113361904Y-42059580D01*
X113361904Y-42059580D02*
X113314285Y-42107200D01*
X113314285Y-42107200D02*
X113219047Y-42154819D01*
X113219047Y-42154819D02*
X113028571Y-42154819D01*
X113028571Y-42154819D02*
X112933333Y-42107200D01*
X112933333Y-42107200D02*
X112885714Y-42059580D01*
X112885714Y-42059580D02*
X112838095Y-41964342D01*
X112838095Y-41964342D02*
X112838095Y-41726247D01*
X112838095Y-41726247D02*
X112885714Y-41631009D01*
X112885714Y-41631009D02*
X112933333Y-41583390D01*
X112933333Y-41583390D02*
X113028571Y-41535771D01*
X113028571Y-41535771D02*
X113219047Y-41535771D01*
X113219047Y-41535771D02*
X113314285Y-41583390D01*
X113314285Y-41583390D02*
X113361904Y-41631009D01*
X113361904Y-41631009D02*
X113409523Y-41726247D01*
X101266666Y-28854819D02*
X101599999Y-28378628D01*
X101838094Y-28854819D02*
X101838094Y-27854819D01*
X101838094Y-27854819D02*
X101457142Y-27854819D01*
X101457142Y-27854819D02*
X101361904Y-27902438D01*
X101361904Y-27902438D02*
X101314285Y-27950057D01*
X101314285Y-27950057D02*
X101266666Y-28045295D01*
X101266666Y-28045295D02*
X101266666Y-28188152D01*
X101266666Y-28188152D02*
X101314285Y-28283390D01*
X101314285Y-28283390D02*
X101361904Y-28331009D01*
X101361904Y-28331009D02*
X101457142Y-28378628D01*
X101457142Y-28378628D02*
X101838094Y-28378628D01*
X100933332Y-27854819D02*
X100266666Y-27854819D01*
X100266666Y-27854819D02*
X100695237Y-28854819D01*
X101466666Y-32059580D02*
X101514285Y-32107200D01*
X101514285Y-32107200D02*
X101657142Y-32154819D01*
X101657142Y-32154819D02*
X101752380Y-32154819D01*
X101752380Y-32154819D02*
X101895237Y-32107200D01*
X101895237Y-32107200D02*
X101990475Y-32011961D01*
X101990475Y-32011961D02*
X102038094Y-31916723D01*
X102038094Y-31916723D02*
X102085713Y-31726247D01*
X102085713Y-31726247D02*
X102085713Y-31583390D01*
X102085713Y-31583390D02*
X102038094Y-31392914D01*
X102038094Y-31392914D02*
X101990475Y-31297676D01*
X101990475Y-31297676D02*
X101895237Y-31202438D01*
X101895237Y-31202438D02*
X101752380Y-31154819D01*
X101752380Y-31154819D02*
X101657142Y-31154819D01*
X101657142Y-31154819D02*
X101514285Y-31202438D01*
X101514285Y-31202438D02*
X101466666Y-31250057D01*
X101133332Y-31154819D02*
X100514285Y-31154819D01*
X100514285Y-31154819D02*
X100847618Y-31535771D01*
X100847618Y-31535771D02*
X100704761Y-31535771D01*
X100704761Y-31535771D02*
X100609523Y-31583390D01*
X100609523Y-31583390D02*
X100561904Y-31631009D01*
X100561904Y-31631009D02*
X100514285Y-31726247D01*
X100514285Y-31726247D02*
X100514285Y-31964342D01*
X100514285Y-31964342D02*
X100561904Y-32059580D01*
X100561904Y-32059580D02*
X100609523Y-32107200D01*
X100609523Y-32107200D02*
X100704761Y-32154819D01*
X100704761Y-32154819D02*
X100990475Y-32154819D01*
X100990475Y-32154819D02*
X101085713Y-32107200D01*
X101085713Y-32107200D02*
X101133332Y-32059580D01*
X101742857Y-39254819D02*
X102076190Y-38778628D01*
X102314285Y-39254819D02*
X102314285Y-38254819D01*
X102314285Y-38254819D02*
X101933333Y-38254819D01*
X101933333Y-38254819D02*
X101838095Y-38302438D01*
X101838095Y-38302438D02*
X101790476Y-38350057D01*
X101790476Y-38350057D02*
X101742857Y-38445295D01*
X101742857Y-38445295D02*
X101742857Y-38588152D01*
X101742857Y-38588152D02*
X101790476Y-38683390D01*
X101790476Y-38683390D02*
X101838095Y-38731009D01*
X101838095Y-38731009D02*
X101933333Y-38778628D01*
X101933333Y-38778628D02*
X102314285Y-38778628D01*
X100790476Y-39254819D02*
X101361904Y-39254819D01*
X101076190Y-39254819D02*
X101076190Y-38254819D01*
X101076190Y-38254819D02*
X101171428Y-38397676D01*
X101171428Y-38397676D02*
X101266666Y-38492914D01*
X101266666Y-38492914D02*
X101361904Y-38540533D01*
X100409523Y-38350057D02*
X100361904Y-38302438D01*
X100361904Y-38302438D02*
X100266666Y-38254819D01*
X100266666Y-38254819D02*
X100028571Y-38254819D01*
X100028571Y-38254819D02*
X99933333Y-38302438D01*
X99933333Y-38302438D02*
X99885714Y-38350057D01*
X99885714Y-38350057D02*
X99838095Y-38445295D01*
X99838095Y-38445295D02*
X99838095Y-38540533D01*
X99838095Y-38540533D02*
X99885714Y-38683390D01*
X99885714Y-38683390D02*
X100457142Y-39254819D01*
X100457142Y-39254819D02*
X99838095Y-39254819D01*
X67729166Y-35759580D02*
X67776785Y-35807200D01*
X67776785Y-35807200D02*
X67919642Y-35854819D01*
X67919642Y-35854819D02*
X68014880Y-35854819D01*
X68014880Y-35854819D02*
X68157737Y-35807200D01*
X68157737Y-35807200D02*
X68252975Y-35711961D01*
X68252975Y-35711961D02*
X68300594Y-35616723D01*
X68300594Y-35616723D02*
X68348213Y-35426247D01*
X68348213Y-35426247D02*
X68348213Y-35283390D01*
X68348213Y-35283390D02*
X68300594Y-35092914D01*
X68300594Y-35092914D02*
X68252975Y-34997676D01*
X68252975Y-34997676D02*
X68157737Y-34902438D01*
X68157737Y-34902438D02*
X68014880Y-34854819D01*
X68014880Y-34854819D02*
X67919642Y-34854819D01*
X67919642Y-34854819D02*
X67776785Y-34902438D01*
X67776785Y-34902438D02*
X67729166Y-34950057D01*
X67252975Y-35854819D02*
X67062499Y-35854819D01*
X67062499Y-35854819D02*
X66967261Y-35807200D01*
X66967261Y-35807200D02*
X66919642Y-35759580D01*
X66919642Y-35759580D02*
X66824404Y-35616723D01*
X66824404Y-35616723D02*
X66776785Y-35426247D01*
X66776785Y-35426247D02*
X66776785Y-35045295D01*
X66776785Y-35045295D02*
X66824404Y-34950057D01*
X66824404Y-34950057D02*
X66872023Y-34902438D01*
X66872023Y-34902438D02*
X66967261Y-34854819D01*
X66967261Y-34854819D02*
X67157737Y-34854819D01*
X67157737Y-34854819D02*
X67252975Y-34902438D01*
X67252975Y-34902438D02*
X67300594Y-34950057D01*
X67300594Y-34950057D02*
X67348213Y-35045295D01*
X67348213Y-35045295D02*
X67348213Y-35283390D01*
X67348213Y-35283390D02*
X67300594Y-35378628D01*
X67300594Y-35378628D02*
X67252975Y-35426247D01*
X67252975Y-35426247D02*
X67157737Y-35473866D01*
X67157737Y-35473866D02*
X66967261Y-35473866D01*
X66967261Y-35473866D02*
X66872023Y-35426247D01*
X66872023Y-35426247D02*
X66824404Y-35378628D01*
X66824404Y-35378628D02*
X66776785Y-35283390D01*
X76024404Y-31354819D02*
X76024404Y-32164342D01*
X76024404Y-32164342D02*
X75976785Y-32259580D01*
X75976785Y-32259580D02*
X75929166Y-32307200D01*
X75929166Y-32307200D02*
X75833928Y-32354819D01*
X75833928Y-32354819D02*
X75643452Y-32354819D01*
X75643452Y-32354819D02*
X75548214Y-32307200D01*
X75548214Y-32307200D02*
X75500595Y-32259580D01*
X75500595Y-32259580D02*
X75452976Y-32164342D01*
X75452976Y-32164342D02*
X75452976Y-31354819D01*
X75072023Y-31354819D02*
X74405357Y-31354819D01*
X74405357Y-31354819D02*
X74833928Y-32354819D01*
X93542857Y-49554819D02*
X93876190Y-49078628D01*
X94114285Y-49554819D02*
X94114285Y-48554819D01*
X94114285Y-48554819D02*
X93733333Y-48554819D01*
X93733333Y-48554819D02*
X93638095Y-48602438D01*
X93638095Y-48602438D02*
X93590476Y-48650057D01*
X93590476Y-48650057D02*
X93542857Y-48745295D01*
X93542857Y-48745295D02*
X93542857Y-48888152D01*
X93542857Y-48888152D02*
X93590476Y-48983390D01*
X93590476Y-48983390D02*
X93638095Y-49031009D01*
X93638095Y-49031009D02*
X93733333Y-49078628D01*
X93733333Y-49078628D02*
X94114285Y-49078628D01*
X92590476Y-49554819D02*
X93161904Y-49554819D01*
X92876190Y-49554819D02*
X92876190Y-48554819D01*
X92876190Y-48554819D02*
X92971428Y-48697676D01*
X92971428Y-48697676D02*
X93066666Y-48792914D01*
X93066666Y-48792914D02*
X93161904Y-48840533D01*
X91971428Y-48554819D02*
X91876190Y-48554819D01*
X91876190Y-48554819D02*
X91780952Y-48602438D01*
X91780952Y-48602438D02*
X91733333Y-48650057D01*
X91733333Y-48650057D02*
X91685714Y-48745295D01*
X91685714Y-48745295D02*
X91638095Y-48935771D01*
X91638095Y-48935771D02*
X91638095Y-49173866D01*
X91638095Y-49173866D02*
X91685714Y-49364342D01*
X91685714Y-49364342D02*
X91733333Y-49459580D01*
X91733333Y-49459580D02*
X91780952Y-49507200D01*
X91780952Y-49507200D02*
X91876190Y-49554819D01*
X91876190Y-49554819D02*
X91971428Y-49554819D01*
X91971428Y-49554819D02*
X92066666Y-49507200D01*
X92066666Y-49507200D02*
X92114285Y-49459580D01*
X92114285Y-49459580D02*
X92161904Y-49364342D01*
X92161904Y-49364342D02*
X92209523Y-49173866D01*
X92209523Y-49173866D02*
X92209523Y-48935771D01*
X92209523Y-48935771D02*
X92161904Y-48745295D01*
X92161904Y-48745295D02*
X92114285Y-48650057D01*
X92114285Y-48650057D02*
X92066666Y-48602438D01*
X92066666Y-48602438D02*
X91971428Y-48554819D01*
X65642857Y-33359580D02*
X65690476Y-33407200D01*
X65690476Y-33407200D02*
X65833333Y-33454819D01*
X65833333Y-33454819D02*
X65928571Y-33454819D01*
X65928571Y-33454819D02*
X66071428Y-33407200D01*
X66071428Y-33407200D02*
X66166666Y-33311961D01*
X66166666Y-33311961D02*
X66214285Y-33216723D01*
X66214285Y-33216723D02*
X66261904Y-33026247D01*
X66261904Y-33026247D02*
X66261904Y-32883390D01*
X66261904Y-32883390D02*
X66214285Y-32692914D01*
X66214285Y-32692914D02*
X66166666Y-32597676D01*
X66166666Y-32597676D02*
X66071428Y-32502438D01*
X66071428Y-32502438D02*
X65928571Y-32454819D01*
X65928571Y-32454819D02*
X65833333Y-32454819D01*
X65833333Y-32454819D02*
X65690476Y-32502438D01*
X65690476Y-32502438D02*
X65642857Y-32550057D01*
X64690476Y-33454819D02*
X65261904Y-33454819D01*
X64976190Y-33454819D02*
X64976190Y-32454819D01*
X64976190Y-32454819D02*
X65071428Y-32597676D01*
X65071428Y-32597676D02*
X65166666Y-32692914D01*
X65166666Y-32692914D02*
X65261904Y-32740533D01*
X64071428Y-32454819D02*
X63976190Y-32454819D01*
X63976190Y-32454819D02*
X63880952Y-32502438D01*
X63880952Y-32502438D02*
X63833333Y-32550057D01*
X63833333Y-32550057D02*
X63785714Y-32645295D01*
X63785714Y-32645295D02*
X63738095Y-32835771D01*
X63738095Y-32835771D02*
X63738095Y-33073866D01*
X63738095Y-33073866D02*
X63785714Y-33264342D01*
X63785714Y-33264342D02*
X63833333Y-33359580D01*
X63833333Y-33359580D02*
X63880952Y-33407200D01*
X63880952Y-33407200D02*
X63976190Y-33454819D01*
X63976190Y-33454819D02*
X64071428Y-33454819D01*
X64071428Y-33454819D02*
X64166666Y-33407200D01*
X64166666Y-33407200D02*
X64214285Y-33359580D01*
X64214285Y-33359580D02*
X64261904Y-33264342D01*
X64261904Y-33264342D02*
X64309523Y-33073866D01*
X64309523Y-33073866D02*
X64309523Y-32835771D01*
X64309523Y-32835771D02*
X64261904Y-32645295D01*
X64261904Y-32645295D02*
X64214285Y-32550057D01*
X64214285Y-32550057D02*
X64166666Y-32502438D01*
X64166666Y-32502438D02*
X64071428Y-32454819D01*
X72371428Y-30550057D02*
X72466666Y-30502438D01*
X72466666Y-30502438D02*
X72561904Y-30407200D01*
X72561904Y-30407200D02*
X72704761Y-30264342D01*
X72704761Y-30264342D02*
X72799999Y-30216723D01*
X72799999Y-30216723D02*
X72895237Y-30216723D01*
X72847618Y-30454819D02*
X72942856Y-30407200D01*
X72942856Y-30407200D02*
X73038094Y-30311961D01*
X73038094Y-30311961D02*
X73085713Y-30121485D01*
X73085713Y-30121485D02*
X73085713Y-29788152D01*
X73085713Y-29788152D02*
X73038094Y-29597676D01*
X73038094Y-29597676D02*
X72942856Y-29502438D01*
X72942856Y-29502438D02*
X72847618Y-29454819D01*
X72847618Y-29454819D02*
X72657142Y-29454819D01*
X72657142Y-29454819D02*
X72561904Y-29502438D01*
X72561904Y-29502438D02*
X72466666Y-29597676D01*
X72466666Y-29597676D02*
X72419047Y-29788152D01*
X72419047Y-29788152D02*
X72419047Y-30121485D01*
X72419047Y-30121485D02*
X72466666Y-30311961D01*
X72466666Y-30311961D02*
X72561904Y-30407200D01*
X72561904Y-30407200D02*
X72657142Y-30454819D01*
X72657142Y-30454819D02*
X72847618Y-30454819D01*
X71466666Y-30454819D02*
X72038094Y-30454819D01*
X71752380Y-30454819D02*
X71752380Y-29454819D01*
X71752380Y-29454819D02*
X71847618Y-29597676D01*
X71847618Y-29597676D02*
X71942856Y-29692914D01*
X71942856Y-29692914D02*
X72038094Y-29740533D01*
X70609523Y-29788152D02*
X70609523Y-30454819D01*
X70847618Y-29407200D02*
X71085713Y-30121485D01*
X71085713Y-30121485D02*
X70466666Y-30121485D01*
X82961904Y-47954819D02*
X82961904Y-48764342D01*
X82961904Y-48764342D02*
X82914285Y-48859580D01*
X82914285Y-48859580D02*
X82866666Y-48907200D01*
X82866666Y-48907200D02*
X82771428Y-48954819D01*
X82771428Y-48954819D02*
X82580952Y-48954819D01*
X82580952Y-48954819D02*
X82485714Y-48907200D01*
X82485714Y-48907200D02*
X82438095Y-48859580D01*
X82438095Y-48859580D02*
X82390476Y-48764342D01*
X82390476Y-48764342D02*
X82390476Y-47954819D01*
X81771428Y-48383390D02*
X81866666Y-48335771D01*
X81866666Y-48335771D02*
X81914285Y-48288152D01*
X81914285Y-48288152D02*
X81961904Y-48192914D01*
X81961904Y-48192914D02*
X81961904Y-48145295D01*
X81961904Y-48145295D02*
X81914285Y-48050057D01*
X81914285Y-48050057D02*
X81866666Y-48002438D01*
X81866666Y-48002438D02*
X81771428Y-47954819D01*
X81771428Y-47954819D02*
X81580952Y-47954819D01*
X81580952Y-47954819D02*
X81485714Y-48002438D01*
X81485714Y-48002438D02*
X81438095Y-48050057D01*
X81438095Y-48050057D02*
X81390476Y-48145295D01*
X81390476Y-48145295D02*
X81390476Y-48192914D01*
X81390476Y-48192914D02*
X81438095Y-48288152D01*
X81438095Y-48288152D02*
X81485714Y-48335771D01*
X81485714Y-48335771D02*
X81580952Y-48383390D01*
X81580952Y-48383390D02*
X81771428Y-48383390D01*
X81771428Y-48383390D02*
X81866666Y-48431009D01*
X81866666Y-48431009D02*
X81914285Y-48478628D01*
X81914285Y-48478628D02*
X81961904Y-48573866D01*
X81961904Y-48573866D02*
X81961904Y-48764342D01*
X81961904Y-48764342D02*
X81914285Y-48859580D01*
X81914285Y-48859580D02*
X81866666Y-48907200D01*
X81866666Y-48907200D02*
X81771428Y-48954819D01*
X81771428Y-48954819D02*
X81580952Y-48954819D01*
X81580952Y-48954819D02*
X81485714Y-48907200D01*
X81485714Y-48907200D02*
X81438095Y-48859580D01*
X81438095Y-48859580D02*
X81390476Y-48764342D01*
X81390476Y-48764342D02*
X81390476Y-48573866D01*
X81390476Y-48573866D02*
X81438095Y-48478628D01*
X81438095Y-48478628D02*
X81485714Y-48431009D01*
X81485714Y-48431009D02*
X81580952Y-48383390D01*
X88216666Y-45759580D02*
X88264285Y-45807200D01*
X88264285Y-45807200D02*
X88407142Y-45854819D01*
X88407142Y-45854819D02*
X88502380Y-45854819D01*
X88502380Y-45854819D02*
X88645237Y-45807200D01*
X88645237Y-45807200D02*
X88740475Y-45711961D01*
X88740475Y-45711961D02*
X88788094Y-45616723D01*
X88788094Y-45616723D02*
X88835713Y-45426247D01*
X88835713Y-45426247D02*
X88835713Y-45283390D01*
X88835713Y-45283390D02*
X88788094Y-45092914D01*
X88788094Y-45092914D02*
X88740475Y-44997676D01*
X88740475Y-44997676D02*
X88645237Y-44902438D01*
X88645237Y-44902438D02*
X88502380Y-44854819D01*
X88502380Y-44854819D02*
X88407142Y-44854819D01*
X88407142Y-44854819D02*
X88264285Y-44902438D01*
X88264285Y-44902438D02*
X88216666Y-44950057D01*
X87835713Y-44950057D02*
X87788094Y-44902438D01*
X87788094Y-44902438D02*
X87692856Y-44854819D01*
X87692856Y-44854819D02*
X87454761Y-44854819D01*
X87454761Y-44854819D02*
X87359523Y-44902438D01*
X87359523Y-44902438D02*
X87311904Y-44950057D01*
X87311904Y-44950057D02*
X87264285Y-45045295D01*
X87264285Y-45045295D02*
X87264285Y-45140533D01*
X87264285Y-45140533D02*
X87311904Y-45283390D01*
X87311904Y-45283390D02*
X87883332Y-45854819D01*
X87883332Y-45854819D02*
X87264285Y-45854819D01*
X94261904Y-19454819D02*
X94261904Y-20264342D01*
X94261904Y-20264342D02*
X94214285Y-20359580D01*
X94214285Y-20359580D02*
X94166666Y-20407200D01*
X94166666Y-20407200D02*
X94071428Y-20454819D01*
X94071428Y-20454819D02*
X93880952Y-20454819D01*
X93880952Y-20454819D02*
X93785714Y-20407200D01*
X93785714Y-20407200D02*
X93738095Y-20359580D01*
X93738095Y-20359580D02*
X93690476Y-20264342D01*
X93690476Y-20264342D02*
X93690476Y-19454819D01*
X93261904Y-19550057D02*
X93214285Y-19502438D01*
X93214285Y-19502438D02*
X93119047Y-19454819D01*
X93119047Y-19454819D02*
X92880952Y-19454819D01*
X92880952Y-19454819D02*
X92785714Y-19502438D01*
X92785714Y-19502438D02*
X92738095Y-19550057D01*
X92738095Y-19550057D02*
X92690476Y-19645295D01*
X92690476Y-19645295D02*
X92690476Y-19740533D01*
X92690476Y-19740533D02*
X92738095Y-19883390D01*
X92738095Y-19883390D02*
X93309523Y-20454819D01*
X93309523Y-20454819D02*
X92690476Y-20454819D01*
X119742857Y-42154819D02*
X120076190Y-41678628D01*
X120314285Y-42154819D02*
X120314285Y-41154819D01*
X120314285Y-41154819D02*
X119933333Y-41154819D01*
X119933333Y-41154819D02*
X119838095Y-41202438D01*
X119838095Y-41202438D02*
X119790476Y-41250057D01*
X119790476Y-41250057D02*
X119742857Y-41345295D01*
X119742857Y-41345295D02*
X119742857Y-41488152D01*
X119742857Y-41488152D02*
X119790476Y-41583390D01*
X119790476Y-41583390D02*
X119838095Y-41631009D01*
X119838095Y-41631009D02*
X119933333Y-41678628D01*
X119933333Y-41678628D02*
X120314285Y-41678628D01*
X118790476Y-42154819D02*
X119361904Y-42154819D01*
X119076190Y-42154819D02*
X119076190Y-41154819D01*
X119076190Y-41154819D02*
X119171428Y-41297676D01*
X119171428Y-41297676D02*
X119266666Y-41392914D01*
X119266666Y-41392914D02*
X119361904Y-41440533D01*
X118457142Y-41154819D02*
X117790476Y-41154819D01*
X117790476Y-41154819D02*
X118219047Y-42154819D01*
X57643564Y-29197787D02*
X57691183Y-29245407D01*
X57691183Y-29245407D02*
X57834040Y-29293026D01*
X57834040Y-29293026D02*
X57929278Y-29293026D01*
X57929278Y-29293026D02*
X58072135Y-29245407D01*
X58072135Y-29245407D02*
X58167373Y-29150168D01*
X58167373Y-29150168D02*
X58214992Y-29054930D01*
X58214992Y-29054930D02*
X58262611Y-28864454D01*
X58262611Y-28864454D02*
X58262611Y-28721597D01*
X58262611Y-28721597D02*
X58214992Y-28531121D01*
X58214992Y-28531121D02*
X58167373Y-28435883D01*
X58167373Y-28435883D02*
X58072135Y-28340645D01*
X58072135Y-28340645D02*
X57929278Y-28293026D01*
X57929278Y-28293026D02*
X57834040Y-28293026D01*
X57834040Y-28293026D02*
X57691183Y-28340645D01*
X57691183Y-28340645D02*
X57643564Y-28388264D01*
X56691183Y-29293026D02*
X57262611Y-29293026D01*
X56976897Y-29293026D02*
X56976897Y-28293026D01*
X56976897Y-28293026D02*
X57072135Y-28435883D01*
X57072135Y-28435883D02*
X57167373Y-28531121D01*
X57167373Y-28531121D02*
X57262611Y-28578740D01*
X55834040Y-28626359D02*
X55834040Y-29293026D01*
X56072135Y-28245407D02*
X56310230Y-28959692D01*
X56310230Y-28959692D02*
X55691183Y-28959692D01*
X72442857Y-32259580D02*
X72490476Y-32307200D01*
X72490476Y-32307200D02*
X72633333Y-32354819D01*
X72633333Y-32354819D02*
X72728571Y-32354819D01*
X72728571Y-32354819D02*
X72871428Y-32307200D01*
X72871428Y-32307200D02*
X72966666Y-32211961D01*
X72966666Y-32211961D02*
X73014285Y-32116723D01*
X73014285Y-32116723D02*
X73061904Y-31926247D01*
X73061904Y-31926247D02*
X73061904Y-31783390D01*
X73061904Y-31783390D02*
X73014285Y-31592914D01*
X73014285Y-31592914D02*
X72966666Y-31497676D01*
X72966666Y-31497676D02*
X72871428Y-31402438D01*
X72871428Y-31402438D02*
X72728571Y-31354819D01*
X72728571Y-31354819D02*
X72633333Y-31354819D01*
X72633333Y-31354819D02*
X72490476Y-31402438D01*
X72490476Y-31402438D02*
X72442857Y-31450057D01*
X71490476Y-32354819D02*
X72061904Y-32354819D01*
X71776190Y-32354819D02*
X71776190Y-31354819D01*
X71776190Y-31354819D02*
X71871428Y-31497676D01*
X71871428Y-31497676D02*
X71966666Y-31592914D01*
X71966666Y-31592914D02*
X72061904Y-31640533D01*
X70633333Y-31354819D02*
X70823809Y-31354819D01*
X70823809Y-31354819D02*
X70919047Y-31402438D01*
X70919047Y-31402438D02*
X70966666Y-31450057D01*
X70966666Y-31450057D02*
X71061904Y-31592914D01*
X71061904Y-31592914D02*
X71109523Y-31783390D01*
X71109523Y-31783390D02*
X71109523Y-32164342D01*
X71109523Y-32164342D02*
X71061904Y-32259580D01*
X71061904Y-32259580D02*
X71014285Y-32307200D01*
X71014285Y-32307200D02*
X70919047Y-32354819D01*
X70919047Y-32354819D02*
X70728571Y-32354819D01*
X70728571Y-32354819D02*
X70633333Y-32307200D01*
X70633333Y-32307200D02*
X70585714Y-32259580D01*
X70585714Y-32259580D02*
X70538095Y-32164342D01*
X70538095Y-32164342D02*
X70538095Y-31926247D01*
X70538095Y-31926247D02*
X70585714Y-31831009D01*
X70585714Y-31831009D02*
X70633333Y-31783390D01*
X70633333Y-31783390D02*
X70728571Y-31735771D01*
X70728571Y-31735771D02*
X70919047Y-31735771D01*
X70919047Y-31735771D02*
X71014285Y-31783390D01*
X71014285Y-31783390D02*
X71061904Y-31831009D01*
X71061904Y-31831009D02*
X71109523Y-31926247D01*
X93761904Y-40954819D02*
X93761904Y-41764342D01*
X93761904Y-41764342D02*
X93714285Y-41859580D01*
X93714285Y-41859580D02*
X93666666Y-41907200D01*
X93666666Y-41907200D02*
X93571428Y-41954819D01*
X93571428Y-41954819D02*
X93380952Y-41954819D01*
X93380952Y-41954819D02*
X93285714Y-41907200D01*
X93285714Y-41907200D02*
X93238095Y-41859580D01*
X93238095Y-41859580D02*
X93190476Y-41764342D01*
X93190476Y-41764342D02*
X93190476Y-40954819D01*
X92190476Y-41954819D02*
X92761904Y-41954819D01*
X92476190Y-41954819D02*
X92476190Y-40954819D01*
X92476190Y-40954819D02*
X92571428Y-41097676D01*
X92571428Y-41097676D02*
X92666666Y-41192914D01*
X92666666Y-41192914D02*
X92761904Y-41240533D01*
X72571428Y-37350057D02*
X72666666Y-37302438D01*
X72666666Y-37302438D02*
X72761904Y-37207200D01*
X72761904Y-37207200D02*
X72904761Y-37064342D01*
X72904761Y-37064342D02*
X72999999Y-37016723D01*
X72999999Y-37016723D02*
X73095237Y-37016723D01*
X73047618Y-37254819D02*
X73142856Y-37207200D01*
X73142856Y-37207200D02*
X73238094Y-37111961D01*
X73238094Y-37111961D02*
X73285713Y-36921485D01*
X73285713Y-36921485D02*
X73285713Y-36588152D01*
X73285713Y-36588152D02*
X73238094Y-36397676D01*
X73238094Y-36397676D02*
X73142856Y-36302438D01*
X73142856Y-36302438D02*
X73047618Y-36254819D01*
X73047618Y-36254819D02*
X72857142Y-36254819D01*
X72857142Y-36254819D02*
X72761904Y-36302438D01*
X72761904Y-36302438D02*
X72666666Y-36397676D01*
X72666666Y-36397676D02*
X72619047Y-36588152D01*
X72619047Y-36588152D02*
X72619047Y-36921485D01*
X72619047Y-36921485D02*
X72666666Y-37111961D01*
X72666666Y-37111961D02*
X72761904Y-37207200D01*
X72761904Y-37207200D02*
X72857142Y-37254819D01*
X72857142Y-37254819D02*
X73047618Y-37254819D01*
X71666666Y-37254819D02*
X72238094Y-37254819D01*
X71952380Y-37254819D02*
X71952380Y-36254819D01*
X71952380Y-36254819D02*
X72047618Y-36397676D01*
X72047618Y-36397676D02*
X72142856Y-36492914D01*
X72142856Y-36492914D02*
X72238094Y-36540533D01*
X71285713Y-36350057D02*
X71238094Y-36302438D01*
X71238094Y-36302438D02*
X71142856Y-36254819D01*
X71142856Y-36254819D02*
X70904761Y-36254819D01*
X70904761Y-36254819D02*
X70809523Y-36302438D01*
X70809523Y-36302438D02*
X70761904Y-36350057D01*
X70761904Y-36350057D02*
X70714285Y-36445295D01*
X70714285Y-36445295D02*
X70714285Y-36540533D01*
X70714285Y-36540533D02*
X70761904Y-36683390D01*
X70761904Y-36683390D02*
X71333332Y-37254819D01*
X71333332Y-37254819D02*
X70714285Y-37254819D01*
X101671428Y-42450057D02*
X101766666Y-42402438D01*
X101766666Y-42402438D02*
X101861904Y-42307200D01*
X101861904Y-42307200D02*
X102004761Y-42164342D01*
X102004761Y-42164342D02*
X102099999Y-42116723D01*
X102099999Y-42116723D02*
X102195237Y-42116723D01*
X102147618Y-42354819D02*
X102242856Y-42307200D01*
X102242856Y-42307200D02*
X102338094Y-42211961D01*
X102338094Y-42211961D02*
X102385713Y-42021485D01*
X102385713Y-42021485D02*
X102385713Y-41688152D01*
X102385713Y-41688152D02*
X102338094Y-41497676D01*
X102338094Y-41497676D02*
X102242856Y-41402438D01*
X102242856Y-41402438D02*
X102147618Y-41354819D01*
X102147618Y-41354819D02*
X101957142Y-41354819D01*
X101957142Y-41354819D02*
X101861904Y-41402438D01*
X101861904Y-41402438D02*
X101766666Y-41497676D01*
X101766666Y-41497676D02*
X101719047Y-41688152D01*
X101719047Y-41688152D02*
X101719047Y-42021485D01*
X101719047Y-42021485D02*
X101766666Y-42211961D01*
X101766666Y-42211961D02*
X101861904Y-42307200D01*
X101861904Y-42307200D02*
X101957142Y-42354819D01*
X101957142Y-42354819D02*
X102147618Y-42354819D01*
X100766666Y-42354819D02*
X101338094Y-42354819D01*
X101052380Y-42354819D02*
X101052380Y-41354819D01*
X101052380Y-41354819D02*
X101147618Y-41497676D01*
X101147618Y-41497676D02*
X101242856Y-41592914D01*
X101242856Y-41592914D02*
X101338094Y-41640533D01*
X99814285Y-42354819D02*
X100385713Y-42354819D01*
X100099999Y-42354819D02*
X100099999Y-41354819D01*
X100099999Y-41354819D02*
X100195237Y-41497676D01*
X100195237Y-41497676D02*
X100290475Y-41592914D01*
X100290475Y-41592914D02*
X100385713Y-41640533D01*
X56705357Y-36059580D02*
X56752976Y-36107200D01*
X56752976Y-36107200D02*
X56895833Y-36154819D01*
X56895833Y-36154819D02*
X56991071Y-36154819D01*
X56991071Y-36154819D02*
X57133928Y-36107200D01*
X57133928Y-36107200D02*
X57229166Y-36011961D01*
X57229166Y-36011961D02*
X57276785Y-35916723D01*
X57276785Y-35916723D02*
X57324404Y-35726247D01*
X57324404Y-35726247D02*
X57324404Y-35583390D01*
X57324404Y-35583390D02*
X57276785Y-35392914D01*
X57276785Y-35392914D02*
X57229166Y-35297676D01*
X57229166Y-35297676D02*
X57133928Y-35202438D01*
X57133928Y-35202438D02*
X56991071Y-35154819D01*
X56991071Y-35154819D02*
X56895833Y-35154819D01*
X56895833Y-35154819D02*
X56752976Y-35202438D01*
X56752976Y-35202438D02*
X56705357Y-35250057D01*
X55752976Y-36154819D02*
X56324404Y-36154819D01*
X56038690Y-36154819D02*
X56038690Y-35154819D01*
X56038690Y-35154819D02*
X56133928Y-35297676D01*
X56133928Y-35297676D02*
X56229166Y-35392914D01*
X56229166Y-35392914D02*
X56324404Y-35440533D01*
X55419642Y-35154819D02*
X54800595Y-35154819D01*
X54800595Y-35154819D02*
X55133928Y-35535771D01*
X55133928Y-35535771D02*
X54991071Y-35535771D01*
X54991071Y-35535771D02*
X54895833Y-35583390D01*
X54895833Y-35583390D02*
X54848214Y-35631009D01*
X54848214Y-35631009D02*
X54800595Y-35726247D01*
X54800595Y-35726247D02*
X54800595Y-35964342D01*
X54800595Y-35964342D02*
X54848214Y-36059580D01*
X54848214Y-36059580D02*
X54895833Y-36107200D01*
X54895833Y-36107200D02*
X54991071Y-36154819D01*
X54991071Y-36154819D02*
X55276785Y-36154819D01*
X55276785Y-36154819D02*
X55372023Y-36107200D01*
X55372023Y-36107200D02*
X55419642Y-36059580D01*
X72242857Y-40054819D02*
X72576190Y-39578628D01*
X72814285Y-40054819D02*
X72814285Y-39054819D01*
X72814285Y-39054819D02*
X72433333Y-39054819D01*
X72433333Y-39054819D02*
X72338095Y-39102438D01*
X72338095Y-39102438D02*
X72290476Y-39150057D01*
X72290476Y-39150057D02*
X72242857Y-39245295D01*
X72242857Y-39245295D02*
X72242857Y-39388152D01*
X72242857Y-39388152D02*
X72290476Y-39483390D01*
X72290476Y-39483390D02*
X72338095Y-39531009D01*
X72338095Y-39531009D02*
X72433333Y-39578628D01*
X72433333Y-39578628D02*
X72814285Y-39578628D01*
X71290476Y-40054819D02*
X71861904Y-40054819D01*
X71576190Y-40054819D02*
X71576190Y-39054819D01*
X71576190Y-39054819D02*
X71671428Y-39197676D01*
X71671428Y-39197676D02*
X71766666Y-39292914D01*
X71766666Y-39292914D02*
X71861904Y-39340533D01*
X70433333Y-39388152D02*
X70433333Y-40054819D01*
X70671428Y-39007200D02*
X70909523Y-39721485D01*
X70909523Y-39721485D02*
X70290476Y-39721485D01*
X81042857Y-33959580D02*
X81090476Y-34007200D01*
X81090476Y-34007200D02*
X81233333Y-34054819D01*
X81233333Y-34054819D02*
X81328571Y-34054819D01*
X81328571Y-34054819D02*
X81471428Y-34007200D01*
X81471428Y-34007200D02*
X81566666Y-33911961D01*
X81566666Y-33911961D02*
X81614285Y-33816723D01*
X81614285Y-33816723D02*
X81661904Y-33626247D01*
X81661904Y-33626247D02*
X81661904Y-33483390D01*
X81661904Y-33483390D02*
X81614285Y-33292914D01*
X81614285Y-33292914D02*
X81566666Y-33197676D01*
X81566666Y-33197676D02*
X81471428Y-33102438D01*
X81471428Y-33102438D02*
X81328571Y-33054819D01*
X81328571Y-33054819D02*
X81233333Y-33054819D01*
X81233333Y-33054819D02*
X81090476Y-33102438D01*
X81090476Y-33102438D02*
X81042857Y-33150057D01*
X80090476Y-34054819D02*
X80661904Y-34054819D01*
X80376190Y-34054819D02*
X80376190Y-33054819D01*
X80376190Y-33054819D02*
X80471428Y-33197676D01*
X80471428Y-33197676D02*
X80566666Y-33292914D01*
X80566666Y-33292914D02*
X80661904Y-33340533D01*
X79519047Y-33483390D02*
X79614285Y-33435771D01*
X79614285Y-33435771D02*
X79661904Y-33388152D01*
X79661904Y-33388152D02*
X79709523Y-33292914D01*
X79709523Y-33292914D02*
X79709523Y-33245295D01*
X79709523Y-33245295D02*
X79661904Y-33150057D01*
X79661904Y-33150057D02*
X79614285Y-33102438D01*
X79614285Y-33102438D02*
X79519047Y-33054819D01*
X79519047Y-33054819D02*
X79328571Y-33054819D01*
X79328571Y-33054819D02*
X79233333Y-33102438D01*
X79233333Y-33102438D02*
X79185714Y-33150057D01*
X79185714Y-33150057D02*
X79138095Y-33245295D01*
X79138095Y-33245295D02*
X79138095Y-33292914D01*
X79138095Y-33292914D02*
X79185714Y-33388152D01*
X79185714Y-33388152D02*
X79233333Y-33435771D01*
X79233333Y-33435771D02*
X79328571Y-33483390D01*
X79328571Y-33483390D02*
X79519047Y-33483390D01*
X79519047Y-33483390D02*
X79614285Y-33531009D01*
X79614285Y-33531009D02*
X79661904Y-33578628D01*
X79661904Y-33578628D02*
X79709523Y-33673866D01*
X79709523Y-33673866D02*
X79709523Y-33864342D01*
X79709523Y-33864342D02*
X79661904Y-33959580D01*
X79661904Y-33959580D02*
X79614285Y-34007200D01*
X79614285Y-34007200D02*
X79519047Y-34054819D01*
X79519047Y-34054819D02*
X79328571Y-34054819D01*
X79328571Y-34054819D02*
X79233333Y-34007200D01*
X79233333Y-34007200D02*
X79185714Y-33959580D01*
X79185714Y-33959580D02*
X79138095Y-33864342D01*
X79138095Y-33864342D02*
X79138095Y-33673866D01*
X79138095Y-33673866D02*
X79185714Y-33578628D01*
X79185714Y-33578628D02*
X79233333Y-33531009D01*
X79233333Y-33531009D02*
X79328571Y-33483390D01*
X103942857Y-52254819D02*
X104276190Y-51778628D01*
X104514285Y-52254819D02*
X104514285Y-51254819D01*
X104514285Y-51254819D02*
X104133333Y-51254819D01*
X104133333Y-51254819D02*
X104038095Y-51302438D01*
X104038095Y-51302438D02*
X103990476Y-51350057D01*
X103990476Y-51350057D02*
X103942857Y-51445295D01*
X103942857Y-51445295D02*
X103942857Y-51588152D01*
X103942857Y-51588152D02*
X103990476Y-51683390D01*
X103990476Y-51683390D02*
X104038095Y-51731009D01*
X104038095Y-51731009D02*
X104133333Y-51778628D01*
X104133333Y-51778628D02*
X104514285Y-51778628D01*
X102990476Y-52254819D02*
X103561904Y-52254819D01*
X103276190Y-52254819D02*
X103276190Y-51254819D01*
X103276190Y-51254819D02*
X103371428Y-51397676D01*
X103371428Y-51397676D02*
X103466666Y-51492914D01*
X103466666Y-51492914D02*
X103561904Y-51540533D01*
X102038095Y-52254819D02*
X102609523Y-52254819D01*
X102323809Y-52254819D02*
X102323809Y-51254819D01*
X102323809Y-51254819D02*
X102419047Y-51397676D01*
X102419047Y-51397676D02*
X102514285Y-51492914D01*
X102514285Y-51492914D02*
X102609523Y-51540533D01*
X120042857Y-51459580D02*
X120090476Y-51507200D01*
X120090476Y-51507200D02*
X120233333Y-51554819D01*
X120233333Y-51554819D02*
X120328571Y-51554819D01*
X120328571Y-51554819D02*
X120471428Y-51507200D01*
X120471428Y-51507200D02*
X120566666Y-51411961D01*
X120566666Y-51411961D02*
X120614285Y-51316723D01*
X120614285Y-51316723D02*
X120661904Y-51126247D01*
X120661904Y-51126247D02*
X120661904Y-50983390D01*
X120661904Y-50983390D02*
X120614285Y-50792914D01*
X120614285Y-50792914D02*
X120566666Y-50697676D01*
X120566666Y-50697676D02*
X120471428Y-50602438D01*
X120471428Y-50602438D02*
X120328571Y-50554819D01*
X120328571Y-50554819D02*
X120233333Y-50554819D01*
X120233333Y-50554819D02*
X120090476Y-50602438D01*
X120090476Y-50602438D02*
X120042857Y-50650057D01*
X119661904Y-50650057D02*
X119614285Y-50602438D01*
X119614285Y-50602438D02*
X119519047Y-50554819D01*
X119519047Y-50554819D02*
X119280952Y-50554819D01*
X119280952Y-50554819D02*
X119185714Y-50602438D01*
X119185714Y-50602438D02*
X119138095Y-50650057D01*
X119138095Y-50650057D02*
X119090476Y-50745295D01*
X119090476Y-50745295D02*
X119090476Y-50840533D01*
X119090476Y-50840533D02*
X119138095Y-50983390D01*
X119138095Y-50983390D02*
X119709523Y-51554819D01*
X119709523Y-51554819D02*
X119090476Y-51554819D01*
X118757142Y-50554819D02*
X118138095Y-50554819D01*
X118138095Y-50554819D02*
X118471428Y-50935771D01*
X118471428Y-50935771D02*
X118328571Y-50935771D01*
X118328571Y-50935771D02*
X118233333Y-50983390D01*
X118233333Y-50983390D02*
X118185714Y-51031009D01*
X118185714Y-51031009D02*
X118138095Y-51126247D01*
X118138095Y-51126247D02*
X118138095Y-51364342D01*
X118138095Y-51364342D02*
X118185714Y-51459580D01*
X118185714Y-51459580D02*
X118233333Y-51507200D01*
X118233333Y-51507200D02*
X118328571Y-51554819D01*
X118328571Y-51554819D02*
X118614285Y-51554819D01*
X118614285Y-51554819D02*
X118709523Y-51507200D01*
X118709523Y-51507200D02*
X118757142Y-51459580D01*
X88642857Y-26173184D02*
X88690476Y-26220804D01*
X88690476Y-26220804D02*
X88833333Y-26268423D01*
X88833333Y-26268423D02*
X88928571Y-26268423D01*
X88928571Y-26268423D02*
X89071428Y-26220804D01*
X89071428Y-26220804D02*
X89166666Y-26125565D01*
X89166666Y-26125565D02*
X89214285Y-26030327D01*
X89214285Y-26030327D02*
X89261904Y-25839851D01*
X89261904Y-25839851D02*
X89261904Y-25696994D01*
X89261904Y-25696994D02*
X89214285Y-25506518D01*
X89214285Y-25506518D02*
X89166666Y-25411280D01*
X89166666Y-25411280D02*
X89071428Y-25316042D01*
X89071428Y-25316042D02*
X88928571Y-25268423D01*
X88928571Y-25268423D02*
X88833333Y-25268423D01*
X88833333Y-25268423D02*
X88690476Y-25316042D01*
X88690476Y-25316042D02*
X88642857Y-25363661D01*
X88261904Y-25363661D02*
X88214285Y-25316042D01*
X88214285Y-25316042D02*
X88119047Y-25268423D01*
X88119047Y-25268423D02*
X87880952Y-25268423D01*
X87880952Y-25268423D02*
X87785714Y-25316042D01*
X87785714Y-25316042D02*
X87738095Y-25363661D01*
X87738095Y-25363661D02*
X87690476Y-25458899D01*
X87690476Y-25458899D02*
X87690476Y-25554137D01*
X87690476Y-25554137D02*
X87738095Y-25696994D01*
X87738095Y-25696994D02*
X88309523Y-26268423D01*
X88309523Y-26268423D02*
X87690476Y-26268423D01*
X86738095Y-26268423D02*
X87309523Y-26268423D01*
X87023809Y-26268423D02*
X87023809Y-25268423D01*
X87023809Y-25268423D02*
X87119047Y-25411280D01*
X87119047Y-25411280D02*
X87214285Y-25506518D01*
X87214285Y-25506518D02*
X87309523Y-25554137D01*
X75742857Y-30454819D02*
X76076190Y-29978628D01*
X76314285Y-30454819D02*
X76314285Y-29454819D01*
X76314285Y-29454819D02*
X75933333Y-29454819D01*
X75933333Y-29454819D02*
X75838095Y-29502438D01*
X75838095Y-29502438D02*
X75790476Y-29550057D01*
X75790476Y-29550057D02*
X75742857Y-29645295D01*
X75742857Y-29645295D02*
X75742857Y-29788152D01*
X75742857Y-29788152D02*
X75790476Y-29883390D01*
X75790476Y-29883390D02*
X75838095Y-29931009D01*
X75838095Y-29931009D02*
X75933333Y-29978628D01*
X75933333Y-29978628D02*
X76314285Y-29978628D01*
X74790476Y-30454819D02*
X75361904Y-30454819D01*
X75076190Y-30454819D02*
X75076190Y-29454819D01*
X75076190Y-29454819D02*
X75171428Y-29597676D01*
X75171428Y-29597676D02*
X75266666Y-29692914D01*
X75266666Y-29692914D02*
X75361904Y-29740533D01*
X74314285Y-30454819D02*
X74123809Y-30454819D01*
X74123809Y-30454819D02*
X74028571Y-30407200D01*
X74028571Y-30407200D02*
X73980952Y-30359580D01*
X73980952Y-30359580D02*
X73885714Y-30216723D01*
X73885714Y-30216723D02*
X73838095Y-30026247D01*
X73838095Y-30026247D02*
X73838095Y-29645295D01*
X73838095Y-29645295D02*
X73885714Y-29550057D01*
X73885714Y-29550057D02*
X73933333Y-29502438D01*
X73933333Y-29502438D02*
X74028571Y-29454819D01*
X74028571Y-29454819D02*
X74219047Y-29454819D01*
X74219047Y-29454819D02*
X74314285Y-29502438D01*
X74314285Y-29502438D02*
X74361904Y-29550057D01*
X74361904Y-29550057D02*
X74409523Y-29645295D01*
X74409523Y-29645295D02*
X74409523Y-29883390D01*
X74409523Y-29883390D02*
X74361904Y-29978628D01*
X74361904Y-29978628D02*
X74314285Y-30026247D01*
X74314285Y-30026247D02*
X74219047Y-30073866D01*
X74219047Y-30073866D02*
X74028571Y-30073866D01*
X74028571Y-30073866D02*
X73933333Y-30026247D01*
X73933333Y-30026247D02*
X73885714Y-29978628D01*
X73885714Y-29978628D02*
X73838095Y-29883390D01*
D12*
%TO.C,C15*%
X101210000Y-24040580D02*
X101210000Y-23759420D01*
X100190000Y-24040580D02*
X100190000Y-23759420D01*
%TO.C,C19*%
X113459420Y-27290000D02*
X113740580Y-27290000D01*
X113459420Y-28310000D02*
X113740580Y-28310000D01*
%TO.C,Q13*%
X69890000Y-43850000D02*
X69890000Y-44500000D01*
X69890000Y-45150000D02*
X69890000Y-44500000D01*
X73010000Y-43850000D02*
X73010000Y-44500000D01*
X73010000Y-45150000D02*
X73010000Y-44500000D01*
X69940000Y-43337500D02*
X69610000Y-43577500D01*
X69610000Y-43097500D01*
X69940000Y-43337500D01*
G36*
X69940000Y-43337500D02*
G01*
X69610000Y-43577500D01*
X69610000Y-43097500D01*
X69940000Y-43337500D01*
G37*
%TO.C,C22*%
X113190000Y-48540580D02*
X113190000Y-48259420D01*
X114210000Y-48540580D02*
X114210000Y-48259420D01*
%TO.C,C8*%
X56140580Y-41890000D02*
X55859420Y-41890000D01*
X56140580Y-42910000D02*
X55859420Y-42910000D01*
%TO.C,U6*%
X60650000Y-29840000D02*
X61300000Y-29840000D01*
X60650000Y-32960000D02*
X61300000Y-32960000D01*
X61950000Y-29840000D02*
X61300000Y-29840000D01*
X61950000Y-32960000D02*
X61300000Y-32960000D01*
X60377500Y-33240000D02*
X59897500Y-33240000D01*
X60137500Y-32910000D01*
X60377500Y-33240000D01*
G36*
X60377500Y-33240000D02*
G01*
X59897500Y-33240000D01*
X60137500Y-32910000D01*
X60377500Y-33240000D01*
G37*
%TO.C,U3*%
X48875000Y-37725000D02*
X48875000Y-39675000D01*
X48875000Y-41625000D02*
X48875000Y-39675000D01*
X53995000Y-37725000D02*
X53995000Y-39675000D01*
X53995000Y-41625000D02*
X53995000Y-39675000D01*
X48970000Y-36975000D02*
X48640000Y-37215000D01*
X48640000Y-36735000D01*
X48970000Y-36975000D01*
G36*
X48970000Y-36975000D02*
G01*
X48640000Y-37215000D01*
X48640000Y-36735000D01*
X48970000Y-36975000D01*
G37*
%TO.C,C17*%
X71711252Y-48240000D02*
X70288748Y-48240000D01*
X71711252Y-50960000D02*
X70288748Y-50960000D01*
%TO.C,R13*%
X78127500Y-38127064D02*
X78127500Y-37672936D01*
X79597500Y-38127064D02*
X79597500Y-37672936D01*
%TO.C,R18*%
X83172936Y-26865000D02*
X83627064Y-26865000D01*
X83172936Y-28335000D02*
X83627064Y-28335000D01*
%TO.C,U5*%
X61350000Y-33940000D02*
X62000000Y-33940000D01*
X61350000Y-37060000D02*
X62000000Y-37060000D01*
X62650000Y-33940000D02*
X62000000Y-33940000D01*
X62650000Y-37060000D02*
X62000000Y-37060000D01*
X61077500Y-37340000D02*
X60597500Y-37340000D01*
X60837500Y-37010000D01*
X61077500Y-37340000D01*
G36*
X61077500Y-37340000D02*
G01*
X60597500Y-37340000D01*
X60837500Y-37010000D01*
X61077500Y-37340000D01*
G37*
%TO.C,C1*%
X88090580Y-29490000D02*
X87809420Y-29490000D01*
X88090580Y-30510000D02*
X87809420Y-30510000D01*
%TO.C,C7*%
X52940580Y-33890000D02*
X52659420Y-33890000D01*
X52940580Y-34910000D02*
X52659420Y-34910000D01*
%TO.C,R16*%
X113490000Y-43922936D02*
X113490000Y-44377064D01*
X114960000Y-43922936D02*
X114960000Y-44377064D01*
%TO.C,R7*%
X102365000Y-28172936D02*
X102365000Y-28627064D01*
X103835000Y-28172936D02*
X103835000Y-28627064D01*
%TO.C,C3*%
X102390000Y-31840580D02*
X102390000Y-31559420D01*
X103410000Y-31840580D02*
X103410000Y-31559420D01*
%TO.C,R12*%
X98227064Y-37965000D02*
X97772936Y-37965000D01*
X98227064Y-39435000D02*
X97772936Y-39435000D01*
%TO.C,C9*%
X64690000Y-35540580D02*
X64690000Y-35259420D01*
X65710000Y-35540580D02*
X65710000Y-35259420D01*
%TO.C,U7*%
X74650000Y-32740000D02*
X75300000Y-32740000D01*
X74650000Y-35860000D02*
X75300000Y-35860000D01*
X75950000Y-32740000D02*
X75300000Y-32740000D01*
X75950000Y-35860000D02*
X75300000Y-35860000D01*
X76462500Y-32790000D02*
X76222500Y-32460000D01*
X76702500Y-32460000D01*
X76462500Y-32790000D01*
G36*
X76462500Y-32790000D02*
G01*
X76222500Y-32460000D01*
X76702500Y-32460000D01*
X76462500Y-32790000D01*
G37*
%TO.C,R10*%
X94965000Y-49227064D02*
X94965000Y-48772936D01*
X96435000Y-49227064D02*
X96435000Y-48772936D01*
%TO.C,C10*%
X65040580Y-30890000D02*
X64759420Y-30890000D01*
X65040580Y-31910000D02*
X64759420Y-31910000D01*
%TO.C,Q14*%
X71050000Y-25940000D02*
X71700000Y-25940000D01*
X71050000Y-29060000D02*
X71700000Y-29060000D01*
X72350000Y-25940000D02*
X71700000Y-25940000D01*
X72350000Y-29060000D02*
X71700000Y-29060000D01*
X72862500Y-25990000D02*
X72622500Y-25660000D01*
X73102500Y-25660000D01*
X72862500Y-25990000D01*
G36*
X72862500Y-25990000D02*
G01*
X72622500Y-25660000D01*
X73102500Y-25660000D01*
X72862500Y-25990000D01*
G37*
%TO.C,U8*%
X73890000Y-45190000D02*
X73890000Y-48950000D01*
X75150000Y-45190000D02*
X73890000Y-45190000D01*
X79450000Y-45190000D02*
X80710000Y-45190000D01*
X80710000Y-45190000D02*
X80710000Y-48950000D01*
X80940000Y-50470000D02*
X80610000Y-50230000D01*
X80940000Y-49990000D01*
X80940000Y-50470000D01*
G36*
X80940000Y-50470000D02*
G01*
X80610000Y-50230000D01*
X80940000Y-49990000D01*
X80940000Y-50470000D01*
G37*
%TO.C,C2*%
X88190580Y-43460000D02*
X87909420Y-43460000D01*
X88190580Y-44480000D02*
X87909420Y-44480000D01*
%TO.C,U2*%
X73500000Y-55217500D02*
X94500000Y-55217500D01*
X94500000Y-19217500D01*
X73500000Y-19217500D01*
X73500000Y-55217500D01*
%TO.C,R17*%
X118290000Y-43822936D02*
X118290000Y-44277064D01*
X119760000Y-43822936D02*
X119760000Y-44277064D01*
%TO.C,C14*%
X56959420Y-29890000D02*
X57240580Y-29890000D01*
X56959420Y-30910000D02*
X57240580Y-30910000D01*
%TO.C,C16*%
X71790000Y-33959420D02*
X71790000Y-34240580D01*
X72810000Y-33959420D02*
X72810000Y-34240580D01*
D11*
%TO.C,U1*%
X84275000Y-33600000D02*
X84275000Y-33275000D01*
X84275000Y-40200000D02*
X84275000Y-40525000D01*
X84600000Y-33275000D02*
X84275000Y-33275000D01*
X84600000Y-40525000D02*
X84275000Y-40525000D01*
X91200000Y-33275000D02*
X91525000Y-33275000D01*
X91300000Y-40525000D02*
X91525000Y-40525000D01*
X91525000Y-33600000D02*
X91525000Y-33275000D01*
X91525000Y-40200000D02*
X91525000Y-40525000D01*
D12*
X91710000Y-41630000D02*
X91240000Y-41290000D01*
X91710000Y-40950000D01*
X91710000Y-41630000D01*
G36*
X91710000Y-41630000D02*
G01*
X91240000Y-41290000D01*
X91710000Y-40950000D01*
X91710000Y-41630000D01*
G37*
%TO.C,Q12*%
X75150000Y-36340000D02*
X75800000Y-36340000D01*
X75150000Y-39460000D02*
X75800000Y-39460000D01*
X76450000Y-36340000D02*
X75800000Y-36340000D01*
X76450000Y-39460000D02*
X75800000Y-39460000D01*
X76962500Y-36390000D02*
X76722500Y-36060000D01*
X77202500Y-36060000D01*
X76962500Y-36390000D01*
G36*
X76962500Y-36390000D02*
G01*
X76722500Y-36060000D01*
X77202500Y-36060000D01*
X76962500Y-36390000D01*
G37*
%TO.C,Q11*%
X96440000Y-41150000D02*
X96440000Y-41800000D01*
X96440000Y-42450000D02*
X96440000Y-41800000D01*
X99560000Y-41150000D02*
X99560000Y-41800000D01*
X99560000Y-42450000D02*
X99560000Y-41800000D01*
X96490000Y-40637500D02*
X96160000Y-40877500D01*
X96160000Y-40397500D01*
X96490000Y-40637500D01*
G36*
X96490000Y-40637500D02*
G01*
X96160000Y-40877500D01*
X96160000Y-40397500D01*
X96490000Y-40637500D01*
G37*
%TO.C,C13*%
X57890000Y-35540580D02*
X57890000Y-35259420D01*
X58910000Y-35540580D02*
X58910000Y-35259420D01*
%TO.C,R14*%
X71272936Y-40665000D02*
X71727064Y-40665000D01*
X71272936Y-42135000D02*
X71727064Y-42135000D01*
%TO.C,C18*%
X77690000Y-33959420D02*
X77690000Y-34240580D01*
X78710000Y-33959420D02*
X78710000Y-34240580D01*
%TO.C,R11*%
X99965000Y-51927064D02*
X99965000Y-51472936D01*
X101435000Y-51927064D02*
X101435000Y-51472936D01*
%TO.C,C23*%
X119090000Y-48790580D02*
X119090000Y-48509420D01*
X120110000Y-48790580D02*
X120110000Y-48509420D01*
%TO.C,C21*%
X85240580Y-25303604D02*
X84959420Y-25303604D01*
X85240580Y-26323604D02*
X84959420Y-26323604D01*
%TO.C,R19*%
X74065000Y-27727064D02*
X74065000Y-27272936D01*
X75535000Y-27727064D02*
X75535000Y-27272936D01*
%TD*%
M02*
