%TF.GenerationSoftware,KiCad,Pcbnew,8.0.6-8.0.6-0~ubuntu24.04.1*%
%TF.CreationDate,2024-10-25T11:14:02+03:00*%
%TF.ProjectId,pss_v2,7073735f-7632-42e6-9b69-6361645f7063,rev?*%
%TF.SameCoordinates,Original*%
%TF.FileFunction,Copper,L2,Inr*%
%TF.FilePolarity,Positive*%
%FSLAX46Y46*%
G04 Gerber Fmt 4.6, Leading zero omitted, Abs format (unit mm)*
G04 Created by KiCad (PCBNEW 8.0.6-8.0.6-0~ubuntu24.04.1) date 2024-10-25 11:14:02*
%MOMM*%
%LPD*%
G01*
G04 APERTURE LIST*
G04 Aperture macros list*
%AMRoundRect*
0 Rectangle with rounded corners*
0 $1 Rounding radius*
0 $2 $3 $4 $5 $6 $7 $8 $9 X,Y pos of 4 corners*
0 Add a 4 corners polygon primitive as box body*
4,1,4,$2,$3,$4,$5,$6,$7,$8,$9,$2,$3,0*
0 Add four circle primitives for the rounded corners*
1,1,$1+$1,$2,$3*
1,1,$1+$1,$4,$5*
1,1,$1+$1,$6,$7*
1,1,$1+$1,$8,$9*
0 Add four rect primitives between the rounded corners*
20,1,$1+$1,$2,$3,$4,$5,0*
20,1,$1+$1,$4,$5,$6,$7,0*
20,1,$1+$1,$6,$7,$8,$9,0*
20,1,$1+$1,$8,$9,$2,$3,0*%
G04 Aperture macros list end*
%TA.AperFunction,ComponentPad*%
%ADD10RoundRect,0.250000X-0.750000X0.600000X-0.750000X-0.600000X0.750000X-0.600000X0.750000X0.600000X0*%
%TD*%
%TA.AperFunction,ComponentPad*%
%ADD11O,2.000000X1.700000*%
%TD*%
%TA.AperFunction,ComponentPad*%
%ADD12O,1.950000X1.700000*%
%TD*%
%TA.AperFunction,ComponentPad*%
%ADD13RoundRect,0.250000X0.725000X-0.600000X0.725000X0.600000X-0.725000X0.600000X-0.725000X-0.600000X0*%
%TD*%
%TA.AperFunction,ComponentPad*%
%ADD14C,1.524000*%
%TD*%
%TA.AperFunction,ComponentPad*%
%ADD15R,1.560000X1.560000*%
%TD*%
%TA.AperFunction,ComponentPad*%
%ADD16C,1.560000*%
%TD*%
%TA.AperFunction,ComponentPad*%
%ADD17RoundRect,0.250000X-0.600000X-0.750000X0.600000X-0.750000X0.600000X0.750000X-0.600000X0.750000X0*%
%TD*%
%TA.AperFunction,ComponentPad*%
%ADD18O,1.700000X2.000000*%
%TD*%
%TA.AperFunction,ComponentPad*%
%ADD19RoundRect,0.250000X-0.725000X0.600000X-0.725000X-0.600000X0.725000X-0.600000X0.725000X0.600000X0*%
%TD*%
%TA.AperFunction,ComponentPad*%
%ADD20R,1.800000X1.800000*%
%TD*%
%TA.AperFunction,ComponentPad*%
%ADD21C,1.800000*%
%TD*%
%TA.AperFunction,ComponentPad*%
%ADD22RoundRect,0.250000X0.600000X0.725000X-0.600000X0.725000X-0.600000X-0.725000X0.600000X-0.725000X0*%
%TD*%
%TA.AperFunction,ComponentPad*%
%ADD23O,1.700000X1.950000*%
%TD*%
%TA.AperFunction,ComponentPad*%
%ADD24RoundRect,0.250000X0.600000X0.750000X-0.600000X0.750000X-0.600000X-0.750000X0.600000X-0.750000X0*%
%TD*%
%TA.AperFunction,ComponentPad*%
%ADD25C,1.500000*%
%TD*%
%TA.AperFunction,ComponentPad*%
%ADD26R,1.500000X1.500000*%
%TD*%
%TA.AperFunction,ViaPad*%
%ADD27C,0.600000*%
%TD*%
%TA.AperFunction,ViaPad*%
%ADD28C,0.800000*%
%TD*%
%TA.AperFunction,Conductor*%
%ADD29C,0.250000*%
%TD*%
%TA.AperFunction,Conductor*%
%ADD30C,0.500000*%
%TD*%
%TA.AperFunction,Conductor*%
%ADD31C,0.200000*%
%TD*%
%TA.AperFunction,Conductor*%
%ADD32C,1.000000*%
%TD*%
G04 APERTURE END LIST*
D10*
%TO.N,GND*%
%TO.C,J4*%
X42325000Y-41950000D03*
D11*
%TO.N,Net-(J4-Pin_2)*%
X42325000Y-44450000D03*
%TD*%
D10*
%TO.N,/WAKEUP_BUTTON*%
%TO.C,J6*%
X108500000Y-50200000D03*
D11*
%TO.N,GND*%
X108500000Y-52700000D03*
%TD*%
D12*
%TO.N,Net-(J8-Pin_4)*%
%TO.C,J8*%
X98075000Y-45150000D03*
%TO.N,+5VP*%
X98075000Y-47650000D03*
%TO.N,/SCL_5V*%
X98075000Y-50150000D03*
D13*
%TO.N,/SDA_5V*%
X98075000Y-52650000D03*
%TD*%
D14*
%TO.N,GND*%
%TO.C,TP1*%
X40200000Y-20700000D03*
%TD*%
D15*
%TO.N,Net-(D2-common)*%
%TO.C,RAV1*%
X39760000Y-28300000D03*
D16*
X44760000Y-25800000D03*
%TO.N,GND*%
X39760000Y-23300000D03*
%TD*%
D10*
%TO.N,GND*%
%TO.C,J3*%
X42325000Y-32900000D03*
D11*
%TO.N,Net-(J3-Pin_2)*%
X42325000Y-35400000D03*
%TD*%
D17*
%TO.N,/LIGHT_VALUE*%
%TO.C,J9*%
X114700000Y-30275000D03*
D18*
%TO.N,GND*%
X117200000Y-30275000D03*
%TD*%
D19*
%TO.N,/INDOOR_FL*%
%TO.C,J12*%
X116625000Y-45190000D03*
D12*
%TO.N,/OUTDOOR_FL*%
X116625000Y-47690000D03*
%TO.N,GND*%
X116625000Y-50190000D03*
X116625000Y-52690000D03*
%TD*%
D15*
%TO.N,Net-(D3-common)*%
%TO.C,RBV1*%
X39760000Y-53700000D03*
D16*
X44760000Y-51200000D03*
%TO.N,GND*%
X39760000Y-48700000D03*
%TD*%
D13*
%TO.N,/SCL*%
%TO.C,J7*%
X98075000Y-29750000D03*
D12*
%TO.N,/SDA*%
X98075000Y-27250000D03*
%TO.N,+3.3V*%
X98075000Y-24750000D03*
%TO.N,GND*%
X98075000Y-22250000D03*
%TD*%
D20*
%TO.N,/MOSI*%
%TO.C,J5*%
X105730000Y-24420000D03*
D21*
%TO.N,+3.3V*%
X108270000Y-24420000D03*
%TO.N,unconnected-(J5-Pin_3-Pad3)*%
X105730000Y-26960000D03*
%TO.N,/RXD*%
X108270000Y-26960000D03*
%TO.N,/RESET#*%
X105730000Y-29500000D03*
%TO.N,/TXD*%
X108270000Y-29500000D03*
%TO.N,/SCK*%
X105730000Y-32040000D03*
%TO.N,GND*%
X108270000Y-32040000D03*
%TO.N,/MISO*%
X105730000Y-34580000D03*
%TO.N,GND*%
X108270000Y-34580000D03*
%TD*%
D22*
%TO.N,/IS_DOOR_OPENED*%
%TO.C,J13*%
X84049000Y-23225000D03*
D23*
%TO.N,GND*%
X81549000Y-23225000D03*
%TO.N,VCC*%
X79049000Y-23225000D03*
%TO.N,GND*%
X76549000Y-23225000D03*
%TD*%
D24*
%TO.N,Net-(J11-Pin_1)*%
%TO.C,J11*%
X70300000Y-23225000D03*
D18*
%TO.N,VCC*%
X67800000Y-23225000D03*
%TD*%
D15*
%TO.N,+3.3V*%
%TO.C,RV1*%
X114400000Y-20960000D03*
D16*
%TO.N,/LIGHT_VALUE*%
X116900000Y-25960000D03*
X119400000Y-20960000D03*
%TD*%
D25*
%TO.N,GND*%
%TO.C,U2*%
X76380000Y-53717500D03*
%TO.N,+5VP*%
X78920000Y-53717500D03*
%TO.N,/LORA_AUX*%
X81460000Y-53717500D03*
%TO.N,/RXD*%
X84000000Y-53717500D03*
%TO.N,/TXD*%
X86540000Y-53717500D03*
%TO.N,/LORA_M1*%
X89080000Y-53717500D03*
D26*
%TO.N,/LORA_M0*%
X91620000Y-53717500D03*
%TD*%
D27*
%TO.N,+3.3V*%
X79700000Y-35000000D03*
X63600000Y-42800000D03*
X82500000Y-29000000D03*
X120081250Y-42081250D03*
%TO.N,GND*%
X54600000Y-51400000D03*
X88300000Y-38800000D03*
X62000000Y-39100000D03*
X74300000Y-44700000D03*
%TO.N,Net-(U1-XTAL1{slash}PB6)*%
X85900000Y-39500000D03*
%TO.N,Net-(D2-common)*%
X52070000Y-32900000D03*
%TO.N,VAA*%
X49500000Y-40500000D03*
X56200000Y-37700000D03*
%TO.N,/VOFFSET*%
X58900000Y-30450000D03*
X52700000Y-25300000D03*
X46700000Y-50200000D03*
%TO.N,VCC*%
X73500000Y-34800000D03*
X70300000Y-33900000D03*
X73908058Y-39908058D03*
%TO.N,/LIGHT_VALUE*%
X94000000Y-32675000D03*
%TO.N,+5VP*%
X77300000Y-46800000D03*
%TO.N,/IS_DOOR_OPENED*%
X90500000Y-38900000D03*
%TO.N,/INDOOR_FL*%
X90550000Y-29950000D03*
%TO.N,/OUTDOOR_FL*%
X91800000Y-30800000D03*
%TO.N,/RESET#*%
X94300000Y-37200000D03*
%TO.N,Net-(U1-XTAL2{slash}PB7)*%
X86200000Y-37000000D03*
%TO.N,/TXD*%
X97000000Y-37100000D03*
%TO.N,/SCL*%
X65600000Y-39700000D03*
X83400000Y-50412500D03*
X94400000Y-36200000D03*
%TO.N,/SDA*%
X81100000Y-51112500D03*
X94220520Y-35204999D03*
X68000000Y-41100000D03*
%TO.N,Net-(Q1-D)*%
X66400000Y-48462500D03*
X67450000Y-44350000D03*
%TO.N,/IS_USE_PRIMARY*%
X47900000Y-37200000D03*
X61500000Y-54300000D03*
X50600000Y-22400000D03*
D28*
%TO.N,/R_VCC_AS*%
X58300000Y-39400000D03*
X59300000Y-42400000D03*
D27*
%TO.N,/DISPLAY_EN*%
X97087500Y-39700000D03*
X90300000Y-37100000D03*
%TO.N,/+5VP_EN*%
X81800000Y-37300000D03*
%TO.N,/AIR_DRYER_EN*%
X77900000Y-28500000D03*
%TO.N,/IS_RESERVE_OK*%
X51700000Y-44300000D03*
X70600000Y-54400000D03*
%TO.N,/LORA_M1*%
X83000000Y-44700000D03*
%TO.N,/LORA_AUX*%
X79200000Y-45900000D03*
%TO.N,/SCK*%
X86400000Y-34100000D03*
%TO.N,/LORA_M0*%
X85700000Y-44700000D03*
%TO.N,/MISO*%
X86000000Y-35200000D03*
%TO.N,Net-(D3-common)*%
X56750000Y-47250000D03*
%TO.N,/RXD*%
X97000000Y-36100000D03*
%TO.N,/MOSI*%
X81300000Y-32300000D03*
%TD*%
D29*
%TO.N,/IS_USE_PRIMARY*%
X47900000Y-37200000D02*
X47900000Y-25100000D01*
X47900000Y-25100000D02*
X50600000Y-22400000D01*
D30*
%TO.N,+3.3V*%
X82500000Y-29000000D02*
X86700000Y-24800000D01*
X86700000Y-24800000D02*
X98025000Y-24800000D01*
X98025000Y-24800000D02*
X98075000Y-24750000D01*
D29*
X79700000Y-35000000D02*
X71900000Y-42800000D01*
D30*
X120081250Y-42081250D02*
X120081250Y-24781250D01*
D29*
X71900000Y-42800000D02*
X63600000Y-42800000D01*
D30*
X120081250Y-24781250D02*
X116260000Y-20960000D01*
X116260000Y-20960000D02*
X114400000Y-20960000D01*
D31*
%TO.N,Net-(D2-common)*%
X39760000Y-28300000D02*
X42260000Y-28300000D01*
X42260000Y-28300000D02*
X44760000Y-25800000D01*
D29*
%TO.N,/VOFFSET*%
X59000000Y-30550000D02*
X59000000Y-35783884D01*
X46700000Y-48083884D02*
X46700000Y-50200000D01*
X59000000Y-35783884D02*
X46700000Y-48083884D01*
X58900000Y-30450000D02*
X59000000Y-30550000D01*
D32*
%TO.N,VCC*%
X70300000Y-33900000D02*
X67850000Y-31450000D01*
X70300000Y-33900000D02*
X79050000Y-25150000D01*
X79050000Y-25150000D02*
X79050000Y-23225000D01*
X67850000Y-31450000D02*
X67850000Y-23150000D01*
D29*
%TO.N,/LIGHT_VALUE*%
X94000000Y-32675000D02*
X101225000Y-32675000D01*
X103085000Y-30815000D02*
X113985000Y-30815000D01*
X101225000Y-32675000D02*
X103085000Y-30815000D01*
D30*
%TO.N,+5VP*%
X77300000Y-46800000D02*
X77600000Y-47100000D01*
X98950000Y-55250000D02*
X100200000Y-54000000D01*
X77600000Y-47100000D02*
X77600000Y-54700000D01*
X100200000Y-49775000D02*
X98075000Y-47650000D01*
X78150000Y-55250000D02*
X98950000Y-55250000D01*
X100200000Y-54000000D02*
X100200000Y-49775000D01*
X77600000Y-54700000D02*
X78150000Y-55250000D01*
D29*
%TO.N,/TXD*%
X86540000Y-47560000D02*
X97000000Y-37100000D01*
X86540000Y-53717500D02*
X86540000Y-47560000D01*
%TO.N,Net-(Q1-D)*%
X66400000Y-45400000D02*
X66400000Y-48300000D01*
X67450000Y-44350000D02*
X66400000Y-45400000D01*
%TO.N,/R_VCC_AS*%
X58300000Y-41400000D02*
X58300000Y-39400000D01*
X59300000Y-42400000D02*
X58300000Y-41400000D01*
%TO.N,/SCK*%
X87200000Y-33300000D02*
X104470000Y-33300000D01*
X86400000Y-34100000D02*
X87200000Y-33300000D01*
X104470000Y-33300000D02*
X105730000Y-32040000D01*
%TO.N,/MISO*%
X87620000Y-34580000D02*
X105730000Y-34580000D01*
X87000000Y-35200000D02*
X87620000Y-34580000D01*
X86000000Y-35200000D02*
X87000000Y-35200000D01*
%TO.N,Net-(D3-common)*%
X42260000Y-53700000D02*
X44760000Y-51200000D01*
X39760000Y-53700000D02*
X42260000Y-53700000D01*
%TO.N,/RXD*%
X84000000Y-50696384D02*
X84025000Y-50671384D01*
X84025000Y-50671384D02*
X84025000Y-50153616D01*
X84000000Y-49100000D02*
X97000000Y-36100000D01*
X84000000Y-50128616D02*
X84000000Y-49100000D01*
X84000000Y-53717500D02*
X84000000Y-50696384D01*
X84025000Y-50153616D02*
X84000000Y-50128616D01*
%TO.N,/MOSI*%
X101725000Y-28425000D02*
X105730000Y-24420000D01*
X81300000Y-32300000D02*
X87316116Y-32300000D01*
X91191116Y-28425000D02*
X101725000Y-28425000D01*
X87316116Y-32300000D02*
X91191116Y-28425000D01*
%TD*%
%TA.AperFunction,Conductor*%
%TO.N,/IS_USE_PRIMARY*%
G36*
X50332707Y-22289248D02*
G01*
X50596184Y-22397436D01*
X50602536Y-22403748D01*
X50602563Y-22403815D01*
X50710751Y-22667292D01*
X50710724Y-22676247D01*
X50705346Y-22682106D01*
X50271740Y-22908673D01*
X50262821Y-22909467D01*
X50258049Y-22906576D01*
X50093423Y-22741950D01*
X50089996Y-22733677D01*
X50091324Y-22728264D01*
X50317894Y-22294651D01*
X50324762Y-22288907D01*
X50332707Y-22289248D01*
G37*
%TD.AperFunction*%
%TD*%
%TA.AperFunction,Conductor*%
%TO.N,+3.3V*%
G36*
X82755099Y-28406572D02*
G01*
X83093427Y-28744900D01*
X83096854Y-28753173D01*
X83094086Y-28760731D01*
X82720318Y-29202457D01*
X82712358Y-29206559D01*
X82703828Y-29203831D01*
X82703140Y-29203200D01*
X82499293Y-29000707D01*
X82499238Y-29000652D01*
X82296799Y-28796859D01*
X82293400Y-28788574D01*
X82296854Y-28780312D01*
X82297523Y-28779697D01*
X82739270Y-28405912D01*
X82747798Y-28403185D01*
X82755099Y-28406572D01*
G37*
%TD.AperFunction*%
%TD*%
%TA.AperFunction,Conductor*%
%TO.N,+3.3V*%
G36*
X97483303Y-24049793D02*
G01*
X98071675Y-24744891D01*
X98074405Y-24753420D01*
X98073788Y-24756316D01*
X97788043Y-25572608D01*
X97782075Y-25579284D01*
X97773134Y-25579785D01*
X97773119Y-25579780D01*
X96274152Y-25052749D01*
X96267484Y-25046772D01*
X96266333Y-25041711D01*
X96266333Y-24557788D01*
X96269760Y-24549515D01*
X96273516Y-24546995D01*
X97469859Y-24046557D01*
X97478813Y-24046527D01*
X97483303Y-24049793D01*
G37*
%TD.AperFunction*%
%TD*%
%TA.AperFunction,Conductor*%
%TO.N,+3.3V*%
G36*
X79432707Y-34889248D02*
G01*
X79696184Y-34997436D01*
X79702536Y-35003748D01*
X79702563Y-35003815D01*
X79810751Y-35267292D01*
X79810724Y-35276247D01*
X79805346Y-35282106D01*
X79371740Y-35508673D01*
X79362821Y-35509467D01*
X79358049Y-35506576D01*
X79193423Y-35341950D01*
X79189996Y-35333677D01*
X79191324Y-35328264D01*
X79417894Y-34894651D01*
X79424762Y-34888907D01*
X79432707Y-34889248D01*
G37*
%TD.AperFunction*%
%TD*%
%TA.AperFunction,Conductor*%
%TO.N,+3.3V*%
G36*
X64191802Y-42672429D02*
G01*
X64198670Y-42678174D01*
X64200000Y-42683592D01*
X64200000Y-42916407D01*
X64196573Y-42924680D01*
X64191801Y-42927571D01*
X63724987Y-43073970D01*
X63716068Y-43073176D01*
X63710691Y-43067318D01*
X63600883Y-42804509D01*
X63600857Y-42795556D01*
X63600862Y-42795542D01*
X63710691Y-42532680D01*
X63717042Y-42526370D01*
X63724986Y-42526029D01*
X64191802Y-42672429D01*
G37*
%TD.AperFunction*%
%TD*%
%TA.AperFunction,Conductor*%
%TO.N,+3.3V*%
G36*
X115188000Y-20185436D02*
G01*
X115954876Y-20706518D01*
X115959793Y-20714002D01*
X115960000Y-20716195D01*
X115960000Y-21203804D01*
X115956573Y-21212077D01*
X115954876Y-21213481D01*
X115188000Y-21734563D01*
X115179231Y-21736379D01*
X115173156Y-21733164D01*
X114651400Y-21212077D01*
X114407287Y-20968276D01*
X114403856Y-20960008D01*
X114407277Y-20951733D01*
X115173156Y-20186834D01*
X115181431Y-20183413D01*
X115188000Y-20185436D01*
G37*
%TD.AperFunction*%
%TD*%
%TA.AperFunction,Conductor*%
%TO.N,Net-(D2-common)*%
G36*
X40548228Y-27527173D02*
G01*
X41315988Y-28196502D01*
X41319973Y-28204522D01*
X41320000Y-28205321D01*
X41320000Y-28394678D01*
X41316573Y-28402951D01*
X41315988Y-28403497D01*
X40548230Y-29072825D01*
X40539743Y-29075679D01*
X40532274Y-29072284D01*
X39767287Y-28308276D01*
X39763856Y-28300007D01*
X39767277Y-28291733D01*
X40532275Y-27527714D01*
X40540549Y-27524293D01*
X40548228Y-27527173D01*
G37*
%TD.AperFunction*%
%TD*%
%TA.AperFunction,Conductor*%
%TO.N,Net-(D2-common)*%
G36*
X44050879Y-25506256D02*
G01*
X44756212Y-25797437D01*
X44762551Y-25803762D01*
X44762562Y-25803787D01*
X45053736Y-26509103D01*
X45053725Y-26518058D01*
X45047386Y-26524383D01*
X45046692Y-26524644D01*
X43734518Y-26971448D01*
X43725582Y-26970870D01*
X43722474Y-26968645D01*
X43591354Y-26837525D01*
X43587927Y-26829252D01*
X43588551Y-26825481D01*
X44035356Y-25513305D01*
X44041266Y-25506580D01*
X44050202Y-25506002D01*
X44050879Y-25506256D01*
G37*
%TD.AperFunction*%
%TD*%
%TA.AperFunction,Conductor*%
%TO.N,/VOFFSET*%
G36*
X59186736Y-30449955D02*
G01*
X59194997Y-30453409D01*
X59198396Y-30461694D01*
X59198299Y-30463155D01*
X59126319Y-31019909D01*
X59121860Y-31027675D01*
X59114716Y-31030109D01*
X58881968Y-31030109D01*
X58873695Y-31026682D01*
X58871681Y-31023984D01*
X58629003Y-30576185D01*
X58628074Y-30567278D01*
X58633715Y-30560323D01*
X58634763Y-30559821D01*
X58897822Y-30449909D01*
X58902362Y-30449007D01*
X59186736Y-30449955D01*
G37*
%TD.AperFunction*%
%TD*%
%TA.AperFunction,Conductor*%
%TO.N,/VOFFSET*%
G36*
X46824680Y-49603427D02*
G01*
X46827571Y-49608199D01*
X46973970Y-50075012D01*
X46973176Y-50083931D01*
X46967317Y-50089309D01*
X46704511Y-50199115D01*
X46695556Y-50199142D01*
X46695489Y-50199115D01*
X46432682Y-50089309D01*
X46426370Y-50082957D01*
X46426029Y-50075013D01*
X46572429Y-49608199D01*
X46578175Y-49601330D01*
X46583593Y-49600000D01*
X46816407Y-49600000D01*
X46824680Y-49603427D01*
G37*
%TD.AperFunction*%
%TD*%
%TA.AperFunction,Conductor*%
%TO.N,VCC*%
G36*
X79872886Y-23512403D02*
G01*
X79879561Y-23518370D01*
X79880448Y-23525950D01*
X79552015Y-25024472D01*
X79546896Y-25031820D01*
X79540586Y-25033667D01*
X78559402Y-25033667D01*
X78551129Y-25030240D01*
X78547976Y-25024486D01*
X78217567Y-23525960D01*
X78219133Y-23517143D01*
X78225125Y-23512399D01*
X79045135Y-23225353D01*
X79052865Y-23225353D01*
X79872886Y-23512403D01*
G37*
%TD.AperFunction*%
%TD*%
%TA.AperFunction,Conductor*%
%TO.N,VCC*%
G36*
X68624526Y-23537353D02*
G01*
X68631042Y-23543495D01*
X68631870Y-23550438D01*
X68351785Y-25049116D01*
X68346897Y-25056619D01*
X68340284Y-25058667D01*
X67359110Y-25058667D01*
X67350837Y-25055240D01*
X67347767Y-25049834D01*
X66968886Y-23550929D01*
X66970181Y-23542069D01*
X66976072Y-23537125D01*
X67795845Y-23225579D01*
X67804155Y-23225579D01*
X68624526Y-23537353D01*
G37*
%TD.AperFunction*%
%TD*%
%TA.AperFunction,Conductor*%
%TO.N,/LIGHT_VALUE*%
G36*
X113858932Y-29659879D02*
G01*
X114691677Y-30268190D01*
X114696337Y-30275837D01*
X114694315Y-30284412D01*
X114009258Y-31249029D01*
X114001674Y-31253790D01*
X113996208Y-31253415D01*
X113008189Y-30942576D01*
X113001325Y-30936824D01*
X113000000Y-30931415D01*
X113000000Y-30694182D01*
X113002653Y-30686764D01*
X113842986Y-29661907D01*
X113850879Y-29657684D01*
X113858932Y-29659879D01*
G37*
%TD.AperFunction*%
%TD*%
%TA.AperFunction,Conductor*%
%TO.N,+5VP*%
G36*
X77575753Y-46689478D02*
G01*
X77581863Y-46695367D01*
X77842327Y-47259129D01*
X77842686Y-47268076D01*
X77836613Y-47274657D01*
X77831706Y-47275736D01*
X77354865Y-47275736D01*
X77346592Y-47272309D01*
X77346569Y-47272286D01*
X77333485Y-47259129D01*
X77096076Y-47020386D01*
X77092672Y-47012103D01*
X77096079Y-47003882D01*
X77298338Y-46800669D01*
X77302181Y-46798104D01*
X77566798Y-46689451D01*
X77575753Y-46689478D01*
G37*
%TD.AperFunction*%
%TD*%
%TA.AperFunction,Conductor*%
%TO.N,+5VP*%
G36*
X99032897Y-47487781D02*
G01*
X99037086Y-47493188D01*
X99502125Y-48719182D01*
X99501856Y-48728133D01*
X99499459Y-48731605D01*
X99156885Y-49074179D01*
X99148612Y-49077606D01*
X99143953Y-49076638D01*
X97663433Y-48433888D01*
X97657209Y-48427450D01*
X97657360Y-48418497D01*
X97657801Y-48417589D01*
X98071588Y-47654281D01*
X98078543Y-47648643D01*
X98079871Y-47648332D01*
X99024164Y-47485808D01*
X99032897Y-47487781D01*
G37*
%TD.AperFunction*%
%TD*%
%TA.AperFunction,Conductor*%
%TO.N,/TXD*%
G36*
X96732707Y-36989248D02*
G01*
X96996184Y-37097436D01*
X97002536Y-37103748D01*
X97002563Y-37103815D01*
X97110751Y-37367292D01*
X97110724Y-37376247D01*
X97105346Y-37382106D01*
X96671740Y-37608673D01*
X96662821Y-37609467D01*
X96658049Y-37606576D01*
X96493423Y-37441950D01*
X96489996Y-37433677D01*
X96491324Y-37428264D01*
X96717894Y-36994651D01*
X96724762Y-36988907D01*
X96732707Y-36989248D01*
G37*
%TD.AperFunction*%
%TD*%
%TA.AperFunction,Conductor*%
%TO.N,/TXD*%
G36*
X86665832Y-52220927D02*
G01*
X86668155Y-52224239D01*
X87227725Y-53419414D01*
X87228130Y-53428360D01*
X87222090Y-53434971D01*
X87221620Y-53435179D01*
X86544491Y-53716633D01*
X86535536Y-53716644D01*
X86535509Y-53716633D01*
X85858379Y-53435179D01*
X85852055Y-53428839D01*
X85852066Y-53419884D01*
X85852274Y-53419414D01*
X86411845Y-52224239D01*
X86418456Y-52218199D01*
X86422441Y-52217500D01*
X86657559Y-52217500D01*
X86665832Y-52220927D01*
G37*
%TD.AperFunction*%
%TD*%
%TA.AperFunction,Conductor*%
%TO.N,Net-(Q1-D)*%
G36*
X66524680Y-47865927D02*
G01*
X66527571Y-47870699D01*
X66673970Y-48337512D01*
X66673176Y-48346431D01*
X66667317Y-48351809D01*
X66404511Y-48461615D01*
X66395556Y-48461642D01*
X66395489Y-48461615D01*
X66132682Y-48351809D01*
X66126370Y-48345457D01*
X66126029Y-48337513D01*
X66272429Y-47870699D01*
X66278175Y-47863830D01*
X66283593Y-47862500D01*
X66516407Y-47862500D01*
X66524680Y-47865927D01*
G37*
%TD.AperFunction*%
%TD*%
%TA.AperFunction,Conductor*%
%TO.N,Net-(Q1-D)*%
G36*
X67182707Y-44239248D02*
G01*
X67446184Y-44347436D01*
X67452536Y-44353748D01*
X67452563Y-44353815D01*
X67560751Y-44617292D01*
X67560724Y-44626247D01*
X67555346Y-44632106D01*
X67121740Y-44858673D01*
X67112821Y-44859467D01*
X67108049Y-44856576D01*
X66943423Y-44691950D01*
X66939996Y-44683677D01*
X66941324Y-44678264D01*
X67167894Y-44244651D01*
X67174762Y-44238907D01*
X67182707Y-44239248D01*
G37*
%TD.AperFunction*%
%TD*%
%TA.AperFunction,Conductor*%
%TO.N,/R_VCC_AS*%
G36*
X58659109Y-39548719D02*
G01*
X58665427Y-39555066D01*
X58665551Y-39563655D01*
X58427859Y-40192437D01*
X58421728Y-40198964D01*
X58416915Y-40200000D01*
X58183085Y-40200000D01*
X58174812Y-40196573D01*
X58172141Y-40192437D01*
X57934448Y-39563655D01*
X57934728Y-39554705D01*
X57940889Y-39548719D01*
X58295500Y-39400875D01*
X58304449Y-39400855D01*
X58659109Y-39548719D01*
G37*
%TD.AperFunction*%
%TD*%
%TA.AperFunction,Conductor*%
%TO.N,/R_VCC_AS*%
G36*
X58830071Y-41749252D02*
G01*
X59442760Y-42025793D01*
X59448891Y-42032320D01*
X59448767Y-42040909D01*
X59302563Y-42396195D01*
X59296245Y-42402542D01*
X59296195Y-42402563D01*
X58940909Y-42548767D01*
X58931955Y-42548746D01*
X58925793Y-42542760D01*
X58861676Y-42400707D01*
X58699279Y-42040909D01*
X58649252Y-41930071D01*
X58648972Y-41921121D01*
X58651641Y-41916987D01*
X58816986Y-41751642D01*
X58825258Y-41748216D01*
X58830071Y-41749252D01*
G37*
%TD.AperFunction*%
%TD*%
%TA.AperFunction,Conductor*%
%TO.N,/SCK*%
G36*
X86741950Y-33593423D02*
G01*
X86906576Y-33758049D01*
X86910003Y-33766322D01*
X86908673Y-33771740D01*
X86682106Y-34205346D01*
X86675237Y-34211092D01*
X86667292Y-34210751D01*
X86403815Y-34102563D01*
X86397463Y-34096251D01*
X86397436Y-34096184D01*
X86289248Y-33832707D01*
X86289275Y-33823752D01*
X86294651Y-33817894D01*
X86728262Y-33591325D01*
X86737178Y-33590532D01*
X86741950Y-33593423D01*
G37*
%TD.AperFunction*%
%TD*%
%TA.AperFunction,Conductor*%
%TO.N,/SCK*%
G36*
X104910440Y-31700521D02*
G01*
X105726512Y-32038143D01*
X105732846Y-32044472D01*
X105732853Y-32044488D01*
X106069658Y-32859975D01*
X106069649Y-32868929D01*
X106063310Y-32875255D01*
X106062622Y-32875514D01*
X104467387Y-33419719D01*
X104458450Y-33419147D01*
X104452536Y-33412424D01*
X104451909Y-33408646D01*
X104451909Y-33176728D01*
X104452408Y-33173347D01*
X104542316Y-32875514D01*
X104894774Y-31707951D01*
X104900445Y-31701024D01*
X104909355Y-31700134D01*
X104910440Y-31700521D01*
G37*
%TD.AperFunction*%
%TD*%
%TA.AperFunction,Conductor*%
%TO.N,/MISO*%
G36*
X105390063Y-33759339D02*
G01*
X105390342Y-33759960D01*
X105729135Y-34575512D01*
X105729144Y-34584466D01*
X105729135Y-34584488D01*
X105390342Y-35400039D01*
X105384003Y-35406365D01*
X105375049Y-35406356D01*
X105374428Y-35406077D01*
X103936591Y-34708199D01*
X103930645Y-34701503D01*
X103930000Y-34697673D01*
X103930000Y-34462326D01*
X103933427Y-34454053D01*
X103936586Y-34451802D01*
X105374430Y-33753921D01*
X105383367Y-33753393D01*
X105390063Y-33759339D01*
G37*
%TD.AperFunction*%
%TD*%
%TA.AperFunction,Conductor*%
%TO.N,/MISO*%
G36*
X86591802Y-35072429D02*
G01*
X86598670Y-35078174D01*
X86600000Y-35083592D01*
X86600000Y-35316407D01*
X86596573Y-35324680D01*
X86591801Y-35327571D01*
X86124987Y-35473970D01*
X86116068Y-35473176D01*
X86110691Y-35467318D01*
X86000883Y-35204509D01*
X86000857Y-35195556D01*
X86000862Y-35195542D01*
X86110691Y-34932680D01*
X86117042Y-34926370D01*
X86124986Y-34926029D01*
X86591802Y-35072429D01*
G37*
%TD.AperFunction*%
%TD*%
%TA.AperFunction,Conductor*%
%TO.N,Net-(D3-common)*%
G36*
X44050703Y-50906184D02*
G01*
X44756212Y-51197437D01*
X44762551Y-51203762D01*
X44762562Y-51203787D01*
X45053812Y-51909288D01*
X45053801Y-51918243D01*
X45047462Y-51924568D01*
X45046946Y-51924766D01*
X43752282Y-52388971D01*
X43743338Y-52388538D01*
X43740060Y-52386231D01*
X43573768Y-52219939D01*
X43570341Y-52211666D01*
X43571027Y-52207720D01*
X44035234Y-50913050D01*
X44041251Y-50906422D01*
X44050195Y-50905989D01*
X44050703Y-50906184D01*
G37*
%TD.AperFunction*%
%TD*%
%TA.AperFunction,Conductor*%
%TO.N,Net-(D3-common)*%
G36*
X40548207Y-52926892D02*
G01*
X41315824Y-53571493D01*
X41319956Y-53579438D01*
X41320000Y-53580453D01*
X41320000Y-53819546D01*
X41316573Y-53827819D01*
X41315824Y-53828506D01*
X40548207Y-54473107D01*
X40539668Y-54475803D01*
X40532415Y-54472425D01*
X39767287Y-53708276D01*
X39763856Y-53700007D01*
X39767277Y-53691733D01*
X40532417Y-52927573D01*
X40540690Y-52924152D01*
X40548207Y-52926892D01*
G37*
%TD.AperFunction*%
%TD*%
%TA.AperFunction,Conductor*%
%TO.N,/RXD*%
G36*
X96732707Y-35989248D02*
G01*
X96996184Y-36097436D01*
X97002536Y-36103748D01*
X97002563Y-36103815D01*
X97110751Y-36367292D01*
X97110724Y-36376247D01*
X97105346Y-36382106D01*
X96671740Y-36608673D01*
X96662821Y-36609467D01*
X96658049Y-36606576D01*
X96493423Y-36441950D01*
X96489996Y-36433677D01*
X96491324Y-36428264D01*
X96717894Y-35994651D01*
X96724762Y-35988907D01*
X96732707Y-35989248D01*
G37*
%TD.AperFunction*%
%TD*%
%TA.AperFunction,Conductor*%
%TO.N,/RXD*%
G36*
X84125832Y-52220927D02*
G01*
X84128155Y-52224239D01*
X84687725Y-53419414D01*
X84688130Y-53428360D01*
X84682090Y-53434971D01*
X84681620Y-53435179D01*
X84004491Y-53716633D01*
X83995536Y-53716644D01*
X83995509Y-53716633D01*
X83318379Y-53435179D01*
X83312055Y-53428839D01*
X83312066Y-53419884D01*
X83312274Y-53419414D01*
X83871845Y-52224239D01*
X83878456Y-52218199D01*
X83882441Y-52217500D01*
X84117559Y-52217500D01*
X84125832Y-52220927D01*
G37*
%TD.AperFunction*%
%TD*%
%TA.AperFunction,Conductor*%
%TO.N,/MOSI*%
G36*
X104840898Y-24051710D02*
G01*
X105726215Y-24417437D01*
X105732553Y-24423763D01*
X105732562Y-24423784D01*
X106098267Y-25309046D01*
X106098258Y-25318001D01*
X106091920Y-25324327D01*
X106091780Y-25324383D01*
X104289147Y-26041935D01*
X104280193Y-26041811D01*
X104276547Y-26039338D01*
X104110661Y-25873452D01*
X104107234Y-25865179D01*
X104108064Y-25860852D01*
X104321632Y-25324327D01*
X104825617Y-24058217D01*
X104831859Y-24051800D01*
X104840813Y-24051676D01*
X104840898Y-24051710D01*
G37*
%TD.AperFunction*%
%TD*%
%TA.AperFunction,Conductor*%
%TO.N,/MOSI*%
G36*
X81891802Y-32172429D02*
G01*
X81898670Y-32178174D01*
X81900000Y-32183592D01*
X81900000Y-32416407D01*
X81896573Y-32424680D01*
X81891801Y-32427571D01*
X81424987Y-32573970D01*
X81416068Y-32573176D01*
X81410691Y-32567318D01*
X81300883Y-32304509D01*
X81300857Y-32295556D01*
X81300862Y-32295542D01*
X81410691Y-32032680D01*
X81417042Y-32026370D01*
X81424986Y-32026029D01*
X81891802Y-32172429D01*
G37*
%TD.AperFunction*%
%TD*%
M02*
