%TF.GenerationSoftware,KiCad,Pcbnew,8.0.6-8.0.6-0~ubuntu24.04.1*%
%TF.CreationDate,2024-10-25T11:14:09+03:00*%
%TF.ProjectId,pss_v2,7073735f-7632-42e6-9b69-6361645f7063,rev?*%
%TF.SameCoordinates,Original*%
%TF.FileFunction,Drillmap*%
%TF.FilePolarity,Positive*%
%FSLAX45Y45*%
G04 Gerber Fmt 4.5, Leading zero omitted, Abs format (unit mm)*
G04 Created by KiCad (PCBNEW 8.0.6-8.0.6-0~ubuntu24.04.1) date 2024-10-25 11:14:09*
%MOMM*%
%LPD*%
G01*
G04 APERTURE LIST*
%ADD10C,0.050000*%
%ADD11C,0.200000*%
%ADD12C,0.100000*%
G04 APERTURE END LIST*
D10*
X3800000Y-1900000D02*
X12100000Y-1900000D01*
X12100000Y-5600000D01*
X3800000Y-5600000D01*
X3800000Y-1900000D01*
D11*
D12*
X4655000Y-5005000D02*
X4685000Y-5035000D01*
X4685000Y-5005000D02*
X4655000Y-5035000D01*
X4775000Y-3705000D02*
X4805000Y-3735000D01*
X4805000Y-3705000D02*
X4775000Y-3735000D01*
X4935000Y-4035000D02*
X4965000Y-4065000D01*
X4965000Y-4035000D02*
X4935000Y-4065000D01*
X5045000Y-2225000D02*
X5075000Y-2255000D01*
X5075000Y-2225000D02*
X5045000Y-2255000D01*
X5155000Y-4415000D02*
X5185000Y-4445000D01*
X5185000Y-4415000D02*
X5155000Y-4445000D01*
X5192000Y-3275000D02*
X5222000Y-3305000D01*
X5222000Y-3275000D02*
X5192000Y-3305000D01*
X5255000Y-2515000D02*
X5285000Y-2545000D01*
X5285000Y-2515000D02*
X5255000Y-2545000D01*
X5445000Y-5125000D02*
X5475000Y-5155000D01*
X5475000Y-5125000D02*
X5445000Y-5155000D01*
X5605000Y-3755000D02*
X5635000Y-3785000D01*
X5635000Y-3755000D02*
X5605000Y-3785000D01*
X5660000Y-4710000D02*
X5690000Y-4740000D01*
X5690000Y-4710000D02*
X5660000Y-4740000D01*
X5875000Y-3030000D02*
X5905000Y-3060000D01*
X5905000Y-3030000D02*
X5875000Y-3060000D01*
X6135000Y-5415000D02*
X6165000Y-5445000D01*
X6165000Y-5415000D02*
X6135000Y-5445000D01*
X6185000Y-3895000D02*
X6215000Y-3925000D01*
X6215000Y-3895000D02*
X6185000Y-3925000D01*
X6345000Y-4265000D02*
X6375000Y-4295000D01*
X6375000Y-4265000D02*
X6345000Y-4295000D01*
X6545000Y-3955000D02*
X6575000Y-3985000D01*
X6575000Y-3955000D02*
X6545000Y-3985000D01*
X6625000Y-4831250D02*
X6655000Y-4861250D01*
X6655000Y-4831250D02*
X6625000Y-4861250D01*
X6730000Y-4420000D02*
X6760000Y-4450000D01*
X6760000Y-4420000D02*
X6730000Y-4450000D01*
X6785000Y-4095000D02*
X6815000Y-4125000D01*
X6815000Y-4095000D02*
X6785000Y-4125000D01*
X7015000Y-3375000D02*
X7045000Y-3405000D01*
X7045000Y-3375000D02*
X7015000Y-3405000D01*
X7045000Y-5425000D02*
X7075000Y-5455000D01*
X7075000Y-5425000D02*
X7045000Y-5455000D01*
X7335000Y-3465000D02*
X7365000Y-3495000D01*
X7365000Y-3465000D02*
X7335000Y-3495000D01*
X7375806Y-3975806D02*
X7405806Y-4005806D01*
X7405806Y-3975806D02*
X7375806Y-4005806D01*
X7415000Y-4455000D02*
X7445000Y-4485000D01*
X7445000Y-4455000D02*
X7415000Y-4485000D01*
X7715000Y-4665000D02*
X7745000Y-4695000D01*
X7745000Y-4665000D02*
X7715000Y-4695000D01*
X7775000Y-2835000D02*
X7805000Y-2865000D01*
X7805000Y-2835000D02*
X7775000Y-2865000D01*
X7905000Y-4575000D02*
X7935000Y-4605000D01*
X7935000Y-4575000D02*
X7905000Y-4605000D01*
X7955000Y-3485000D02*
X7985000Y-3515000D01*
X7985000Y-3485000D02*
X7955000Y-3515000D01*
X8095000Y-5096250D02*
X8125000Y-5126250D01*
X8125000Y-5096250D02*
X8095000Y-5126250D01*
X8115000Y-3215000D02*
X8145000Y-3245000D01*
X8145000Y-3215000D02*
X8115000Y-3245000D01*
X8165000Y-3715000D02*
X8195000Y-3745000D01*
X8195000Y-3715000D02*
X8165000Y-3745000D01*
X8235000Y-2885000D02*
X8265000Y-2915000D01*
X8265000Y-2885000D02*
X8235000Y-2915000D01*
X8285000Y-4455000D02*
X8315000Y-4485000D01*
X8315000Y-4455000D02*
X8285000Y-4485000D01*
X8325000Y-5026250D02*
X8355000Y-5056250D01*
X8355000Y-5026250D02*
X8325000Y-5056250D01*
X8555000Y-4455000D02*
X8585000Y-4485000D01*
X8585000Y-4455000D02*
X8555000Y-4485000D01*
X8575000Y-3935000D02*
X8605000Y-3965000D01*
X8605000Y-3935000D02*
X8575000Y-3965000D01*
X8585000Y-3505000D02*
X8615000Y-3535000D01*
X8615000Y-3505000D02*
X8585000Y-3535000D01*
X8605000Y-3685000D02*
X8635000Y-3715000D01*
X8635000Y-3685000D02*
X8605000Y-3715000D01*
X8625000Y-3395000D02*
X8655000Y-3425000D01*
X8655000Y-3395000D02*
X8625000Y-3425000D01*
X8815000Y-3865000D02*
X8845000Y-3895000D01*
X8845000Y-3865000D02*
X8815000Y-3895000D01*
X9015000Y-3695000D02*
X9045000Y-3725000D01*
X9045000Y-3695000D02*
X9015000Y-3725000D01*
X9035000Y-3875000D02*
X9065000Y-3905000D01*
X9065000Y-3875000D02*
X9035000Y-3905000D01*
X9040000Y-2980000D02*
X9070000Y-3010000D01*
X9070000Y-2980000D02*
X9040000Y-3010000D01*
X9165000Y-3065000D02*
X9195000Y-3095000D01*
X9195000Y-3065000D02*
X9165000Y-3095000D01*
X9385000Y-3252500D02*
X9415000Y-3282500D01*
X9415000Y-3252500D02*
X9385000Y-3282500D01*
X9407052Y-3505500D02*
X9437052Y-3535500D01*
X9437052Y-3505500D02*
X9407052Y-3535500D01*
X9415000Y-3705000D02*
X9445000Y-3735000D01*
X9445000Y-3705000D02*
X9415000Y-3735000D01*
X9425000Y-3605000D02*
X9455000Y-3635000D01*
X9455000Y-3605000D02*
X9425000Y-3635000D01*
X9685000Y-3595000D02*
X9715000Y-3625000D01*
X9715000Y-3595000D02*
X9685000Y-3625000D01*
X9685000Y-3695000D02*
X9715000Y-3725000D01*
X9715000Y-3695000D02*
X9685000Y-3725000D01*
X9693750Y-3955000D02*
X9723750Y-3985000D01*
X9723750Y-3955000D02*
X9693750Y-3985000D01*
X11993125Y-4193125D02*
X12023125Y-4223125D01*
X12023125Y-4193125D02*
X11993125Y-4223125D01*
X5850000Y-3940000D02*
G75*
G02*
X5810000Y-3940000I-20000J0D01*
G01*
X5810000Y-3940000D02*
G75*
G02*
X5850000Y-3940000I20000J0D01*
G01*
X5950000Y-4240000D02*
G75*
G02*
X5910000Y-4240000I-20000J0D01*
G01*
X5910000Y-4240000D02*
G75*
G02*
X5950000Y-4240000I20000J0D01*
G01*
X4020000Y-2031900D02*
X4020000Y-2108100D01*
X3981900Y-2070000D02*
X4058100Y-2070000D01*
X7666284Y-5400035D02*
X7666284Y-5343466D01*
X7609715Y-5343466D01*
X7609715Y-5400035D01*
X7666284Y-5400035D01*
X7920284Y-5400035D02*
X7920284Y-5343466D01*
X7863715Y-5343466D01*
X7863715Y-5400035D01*
X7920284Y-5400035D01*
X8174284Y-5400035D02*
X8174284Y-5343466D01*
X8117715Y-5343466D01*
X8117715Y-5400035D01*
X8174284Y-5400035D01*
X8428285Y-5400035D02*
X8428285Y-5343466D01*
X8371715Y-5343466D01*
X8371715Y-5400035D01*
X8428285Y-5400035D01*
X8682285Y-5400035D02*
X8682285Y-5343466D01*
X8625716Y-5343466D01*
X8625716Y-5400035D01*
X8682285Y-5400035D01*
X8936285Y-5400035D02*
X8936285Y-5343466D01*
X8879716Y-5343466D01*
X8879716Y-5400035D01*
X8936285Y-5400035D01*
X9190285Y-5400035D02*
X9190285Y-5343466D01*
X9133716Y-5343466D01*
X9133716Y-5400035D01*
X9190285Y-5400035D01*
X10573000Y-2487000D02*
X10618000Y-2442000D01*
X10573000Y-2397000D01*
X10528000Y-2442000D01*
X10573000Y-2487000D01*
X10573000Y-2741000D02*
X10618000Y-2696000D01*
X10573000Y-2651000D01*
X10528000Y-2696000D01*
X10573000Y-2741000D01*
X10573000Y-2995000D02*
X10618000Y-2950000D01*
X10573000Y-2905000D01*
X10528000Y-2950000D01*
X10573000Y-2995000D01*
X10573000Y-3249000D02*
X10618000Y-3204000D01*
X10573000Y-3159000D01*
X10528000Y-3204000D01*
X10573000Y-3249000D01*
X10573000Y-3503000D02*
X10618000Y-3458000D01*
X10573000Y-3413000D01*
X10528000Y-3458000D01*
X10573000Y-3503000D01*
X10827000Y-2487000D02*
X10872000Y-2442000D01*
X10827000Y-2397000D01*
X10782000Y-2442000D01*
X10827000Y-2487000D01*
X10827000Y-2741000D02*
X10872000Y-2696000D01*
X10827000Y-2651000D01*
X10782000Y-2696000D01*
X10827000Y-2741000D01*
X10827000Y-2995000D02*
X10872000Y-2950000D01*
X10827000Y-2905000D01*
X10782000Y-2950000D01*
X10827000Y-2995000D01*
X10827000Y-3249000D02*
X10872000Y-3204000D01*
X10827000Y-3159000D01*
X10782000Y-3204000D01*
X10827000Y-3249000D01*
X10827000Y-3503000D02*
X10872000Y-3458000D01*
X10827000Y-3413000D01*
X10782000Y-3458000D01*
X10827000Y-3503000D01*
X7607400Y-2275000D02*
X7702400Y-2370000D01*
X7702400Y-2275000D02*
X7607400Y-2370000D01*
X7702400Y-2322500D02*
G75*
G02*
X7607400Y-2322500I-47500J0D01*
G01*
X7607400Y-2322500D02*
G75*
G02*
X7702400Y-2322500I47500J0D01*
G01*
X7857400Y-2275000D02*
X7952400Y-2370000D01*
X7952400Y-2275000D02*
X7857400Y-2370000D01*
X7952400Y-2322500D02*
G75*
G02*
X7857400Y-2322500I-47500J0D01*
G01*
X7857400Y-2322500D02*
G75*
G02*
X7952400Y-2322500I47500J0D01*
G01*
X8107400Y-2275000D02*
X8202400Y-2370000D01*
X8202400Y-2275000D02*
X8107400Y-2370000D01*
X8202400Y-2322500D02*
G75*
G02*
X8107400Y-2322500I-47500J0D01*
G01*
X8107400Y-2322500D02*
G75*
G02*
X8202400Y-2322500I47500J0D01*
G01*
X8357400Y-2275000D02*
X8452400Y-2370000D01*
X8452400Y-2275000D02*
X8357400Y-2370000D01*
X8452400Y-2322500D02*
G75*
G02*
X8357400Y-2322500I-47500J0D01*
G01*
X8357400Y-2322500D02*
G75*
G02*
X8452400Y-2322500I47500J0D01*
G01*
X9760000Y-2177500D02*
X9855000Y-2272500D01*
X9855000Y-2177500D02*
X9760000Y-2272500D01*
X9855000Y-2225000D02*
G75*
G02*
X9760000Y-2225000I-47500J0D01*
G01*
X9760000Y-2225000D02*
G75*
G02*
X9855000Y-2225000I47500J0D01*
G01*
X9760000Y-2427500D02*
X9855000Y-2522500D01*
X9855000Y-2427500D02*
X9760000Y-2522500D01*
X9855000Y-2475000D02*
G75*
G02*
X9760000Y-2475000I-47500J0D01*
G01*
X9760000Y-2475000D02*
G75*
G02*
X9855000Y-2475000I47500J0D01*
G01*
X9760000Y-2677500D02*
X9855000Y-2772500D01*
X9855000Y-2677500D02*
X9760000Y-2772500D01*
X9855000Y-2725000D02*
G75*
G02*
X9760000Y-2725000I-47500J0D01*
G01*
X9760000Y-2725000D02*
G75*
G02*
X9855000Y-2725000I47500J0D01*
G01*
X9760000Y-2927500D02*
X9855000Y-3022500D01*
X9855000Y-2927500D02*
X9760000Y-3022500D01*
X9855000Y-2975000D02*
G75*
G02*
X9760000Y-2975000I-47500J0D01*
G01*
X9760000Y-2975000D02*
G75*
G02*
X9855000Y-2975000I47500J0D01*
G01*
X9760000Y-4467500D02*
X9855000Y-4562500D01*
X9855000Y-4467500D02*
X9760000Y-4562500D01*
X9855000Y-4515000D02*
G75*
G02*
X9760000Y-4515000I-47500J0D01*
G01*
X9760000Y-4515000D02*
G75*
G02*
X9855000Y-4515000I47500J0D01*
G01*
X9760000Y-4717500D02*
X9855000Y-4812500D01*
X9855000Y-4717500D02*
X9760000Y-4812500D01*
X9855000Y-4765000D02*
G75*
G02*
X9760000Y-4765000I-47500J0D01*
G01*
X9760000Y-4765000D02*
G75*
G02*
X9855000Y-4765000I47500J0D01*
G01*
X9760000Y-4967500D02*
X9855000Y-5062500D01*
X9855000Y-4967500D02*
X9760000Y-5062500D01*
X9855000Y-5015000D02*
G75*
G02*
X9760000Y-5015000I-47500J0D01*
G01*
X9760000Y-5015000D02*
G75*
G02*
X9855000Y-5015000I47500J0D01*
G01*
X9760000Y-5217500D02*
X9855000Y-5312500D01*
X9855000Y-5217500D02*
X9760000Y-5312500D01*
X9855000Y-5265000D02*
G75*
G02*
X9760000Y-5265000I-47500J0D01*
G01*
X9760000Y-5265000D02*
G75*
G02*
X9855000Y-5265000I47500J0D01*
G01*
X11615000Y-4471500D02*
X11710000Y-4566500D01*
X11710000Y-4471500D02*
X11615000Y-4566500D01*
X11710000Y-4519000D02*
G75*
G02*
X11615000Y-4519000I-47500J0D01*
G01*
X11615000Y-4519000D02*
G75*
G02*
X11710000Y-4519000I47500J0D01*
G01*
X11615000Y-4721500D02*
X11710000Y-4816500D01*
X11710000Y-4721500D02*
X11615000Y-4816500D01*
X11710000Y-4769000D02*
G75*
G02*
X11615000Y-4769000I-47500J0D01*
G01*
X11615000Y-4769000D02*
G75*
G02*
X11710000Y-4769000I47500J0D01*
G01*
X11615000Y-4971500D02*
X11710000Y-5066500D01*
X11710000Y-4971500D02*
X11615000Y-5066500D01*
X11710000Y-5019000D02*
G75*
G02*
X11615000Y-5019000I-47500J0D01*
G01*
X11615000Y-5019000D02*
G75*
G02*
X11710000Y-5019000I47500J0D01*
G01*
X11615000Y-5221500D02*
X11710000Y-5316500D01*
X11710000Y-5221500D02*
X11615000Y-5316500D01*
X11710000Y-5269000D02*
G75*
G02*
X11615000Y-5269000I-47500J0D01*
G01*
X11615000Y-5269000D02*
G75*
G02*
X11710000Y-5269000I47500J0D01*
G01*
X3926000Y-2280000D02*
X4026000Y-2380000D01*
X4026000Y-2280000D02*
X3926000Y-2380000D01*
X3976000Y-2280000D02*
X3976000Y-2380000D01*
X3926000Y-2330000D02*
X4026000Y-2330000D01*
X3926000Y-2780000D02*
X4026000Y-2880000D01*
X4026000Y-2780000D02*
X3926000Y-2880000D01*
X3976000Y-2780000D02*
X3976000Y-2880000D01*
X3926000Y-2830000D02*
X4026000Y-2830000D01*
X3926000Y-4820000D02*
X4026000Y-4920000D01*
X4026000Y-4820000D02*
X3926000Y-4920000D01*
X3976000Y-4820000D02*
X3976000Y-4920000D01*
X3926000Y-4870000D02*
X4026000Y-4870000D01*
X3926000Y-5320000D02*
X4026000Y-5420000D01*
X4026000Y-5320000D02*
X3926000Y-5420000D01*
X3976000Y-5320000D02*
X3976000Y-5420000D01*
X3926000Y-5370000D02*
X4026000Y-5370000D01*
X4182500Y-3240000D02*
X4282500Y-3340000D01*
X4282500Y-3240000D02*
X4182500Y-3340000D01*
X4232500Y-3240000D02*
X4232500Y-3340000D01*
X4182500Y-3290000D02*
X4282500Y-3290000D01*
X4182500Y-3490000D02*
X4282500Y-3590000D01*
X4282500Y-3490000D02*
X4182500Y-3590000D01*
X4232500Y-3490000D02*
X4232500Y-3590000D01*
X4182500Y-3540000D02*
X4282500Y-3540000D01*
X4182500Y-4145000D02*
X4282500Y-4245000D01*
X4282500Y-4145000D02*
X4182500Y-4245000D01*
X4232500Y-4145000D02*
X4232500Y-4245000D01*
X4182500Y-4195000D02*
X4282500Y-4195000D01*
X4182500Y-4395000D02*
X4282500Y-4495000D01*
X4282500Y-4395000D02*
X4182500Y-4495000D01*
X4232500Y-4395000D02*
X4232500Y-4495000D01*
X4182500Y-4445000D02*
X4282500Y-4445000D01*
X4426000Y-2530000D02*
X4526000Y-2630000D01*
X4526000Y-2530000D02*
X4426000Y-2630000D01*
X4476000Y-2530000D02*
X4476000Y-2630000D01*
X4426000Y-2580000D02*
X4526000Y-2580000D01*
X4426000Y-5070000D02*
X4526000Y-5170000D01*
X4526000Y-5070000D02*
X4426000Y-5170000D01*
X4476000Y-5070000D02*
X4476000Y-5170000D01*
X4426000Y-5120000D02*
X4526000Y-5120000D01*
X6730000Y-2272500D02*
X6830000Y-2372500D01*
X6830000Y-2272500D02*
X6730000Y-2372500D01*
X6780000Y-2272500D02*
X6780000Y-2372500D01*
X6730000Y-2322500D02*
X6830000Y-2322500D01*
X6980000Y-2272500D02*
X7080000Y-2372500D01*
X7080000Y-2272500D02*
X6980000Y-2372500D01*
X7030000Y-2272500D02*
X7030000Y-2372500D01*
X6980000Y-2322500D02*
X7080000Y-2322500D01*
X10800000Y-4970000D02*
X10900000Y-5070000D01*
X10900000Y-4970000D02*
X10800000Y-5070000D01*
X10850000Y-4970000D02*
X10850000Y-5070000D01*
X10800000Y-5020000D02*
X10900000Y-5020000D01*
X10800000Y-5220000D02*
X10900000Y-5320000D01*
X10900000Y-5220000D02*
X10800000Y-5320000D01*
X10850000Y-5220000D02*
X10850000Y-5320000D01*
X10800000Y-5270000D02*
X10900000Y-5270000D01*
X11390000Y-2046000D02*
X11490000Y-2146000D01*
X11490000Y-2046000D02*
X11390000Y-2146000D01*
X11440000Y-2046000D02*
X11440000Y-2146000D01*
X11390000Y-2096000D02*
X11490000Y-2096000D01*
X11420000Y-2977500D02*
X11520000Y-3077500D01*
X11520000Y-2977500D02*
X11420000Y-3077500D01*
X11470000Y-2977500D02*
X11470000Y-3077500D01*
X11420000Y-3027500D02*
X11520000Y-3027500D01*
X11640000Y-2546000D02*
X11740000Y-2646000D01*
X11740000Y-2546000D02*
X11640000Y-2646000D01*
X11690000Y-2546000D02*
X11690000Y-2646000D01*
X11640000Y-2596000D02*
X11740000Y-2596000D01*
X11670000Y-2977500D02*
X11770000Y-3077500D01*
X11770000Y-2977500D02*
X11670000Y-3077500D01*
X11720000Y-2977500D02*
X11720000Y-3077500D01*
X11670000Y-3027500D02*
X11770000Y-3027500D01*
X11890000Y-2046000D02*
X11990000Y-2146000D01*
X11990000Y-2046000D02*
X11890000Y-2146000D01*
X11940000Y-2046000D02*
X11940000Y-2146000D01*
X11890000Y-2096000D02*
X11990000Y-2096000D01*
D11*
X4058277Y-5913984D02*
X4058277Y-5713984D01*
X4058277Y-5713984D02*
X4105896Y-5713984D01*
X4105896Y-5713984D02*
X4134467Y-5723508D01*
X4134467Y-5723508D02*
X4153515Y-5742555D01*
X4153515Y-5742555D02*
X4163039Y-5761603D01*
X4163039Y-5761603D02*
X4172562Y-5799698D01*
X4172562Y-5799698D02*
X4172562Y-5828269D01*
X4172562Y-5828269D02*
X4163039Y-5866365D01*
X4163039Y-5866365D02*
X4153515Y-5885412D01*
X4153515Y-5885412D02*
X4134467Y-5904460D01*
X4134467Y-5904460D02*
X4105896Y-5913984D01*
X4105896Y-5913984D02*
X4058277Y-5913984D01*
X4258277Y-5913984D02*
X4258277Y-5780650D01*
X4258277Y-5818746D02*
X4267801Y-5799698D01*
X4267801Y-5799698D02*
X4277324Y-5790174D01*
X4277324Y-5790174D02*
X4296372Y-5780650D01*
X4296372Y-5780650D02*
X4315420Y-5780650D01*
X4382086Y-5913984D02*
X4382086Y-5780650D01*
X4382086Y-5713984D02*
X4372563Y-5723508D01*
X4372563Y-5723508D02*
X4382086Y-5733031D01*
X4382086Y-5733031D02*
X4391610Y-5723508D01*
X4391610Y-5723508D02*
X4382086Y-5713984D01*
X4382086Y-5713984D02*
X4382086Y-5733031D01*
X4505896Y-5913984D02*
X4486848Y-5904460D01*
X4486848Y-5904460D02*
X4477324Y-5885412D01*
X4477324Y-5885412D02*
X4477324Y-5713984D01*
X4610658Y-5913984D02*
X4591610Y-5904460D01*
X4591610Y-5904460D02*
X4582086Y-5885412D01*
X4582086Y-5885412D02*
X4582086Y-5713984D01*
X4839229Y-5913984D02*
X4839229Y-5713984D01*
X4839229Y-5713984D02*
X4905896Y-5856841D01*
X4905896Y-5856841D02*
X4972563Y-5713984D01*
X4972563Y-5713984D02*
X4972563Y-5913984D01*
X5153515Y-5913984D02*
X5153515Y-5809222D01*
X5153515Y-5809222D02*
X5143991Y-5790174D01*
X5143991Y-5790174D02*
X5124944Y-5780650D01*
X5124944Y-5780650D02*
X5086848Y-5780650D01*
X5086848Y-5780650D02*
X5067801Y-5790174D01*
X5153515Y-5904460D02*
X5134467Y-5913984D01*
X5134467Y-5913984D02*
X5086848Y-5913984D01*
X5086848Y-5913984D02*
X5067801Y-5904460D01*
X5067801Y-5904460D02*
X5058277Y-5885412D01*
X5058277Y-5885412D02*
X5058277Y-5866365D01*
X5058277Y-5866365D02*
X5067801Y-5847317D01*
X5067801Y-5847317D02*
X5086848Y-5837793D01*
X5086848Y-5837793D02*
X5134467Y-5837793D01*
X5134467Y-5837793D02*
X5153515Y-5828269D01*
X5248753Y-5780650D02*
X5248753Y-5980650D01*
X5248753Y-5790174D02*
X5267801Y-5780650D01*
X5267801Y-5780650D02*
X5305896Y-5780650D01*
X5305896Y-5780650D02*
X5324944Y-5790174D01*
X5324944Y-5790174D02*
X5334467Y-5799698D01*
X5334467Y-5799698D02*
X5343991Y-5818746D01*
X5343991Y-5818746D02*
X5343991Y-5875888D01*
X5343991Y-5875888D02*
X5334467Y-5894936D01*
X5334467Y-5894936D02*
X5324944Y-5904460D01*
X5324944Y-5904460D02*
X5305896Y-5913984D01*
X5305896Y-5913984D02*
X5267801Y-5913984D01*
X5267801Y-5913984D02*
X5248753Y-5904460D01*
X5429705Y-5894936D02*
X5439229Y-5904460D01*
X5439229Y-5904460D02*
X5429705Y-5913984D01*
X5429705Y-5913984D02*
X5420182Y-5904460D01*
X5420182Y-5904460D02*
X5429705Y-5894936D01*
X5429705Y-5894936D02*
X5429705Y-5913984D01*
X5429705Y-5790174D02*
X5439229Y-5799698D01*
X5439229Y-5799698D02*
X5429705Y-5809222D01*
X5429705Y-5809222D02*
X5420182Y-5799698D01*
X5420182Y-5799698D02*
X5429705Y-5790174D01*
X5429705Y-5790174D02*
X5429705Y-5809222D01*
D12*
X3767500Y-6227500D02*
X3797500Y-6257500D01*
X3797500Y-6227500D02*
X3767500Y-6257500D01*
D11*
X4096372Y-6133984D02*
X4115420Y-6133984D01*
X4115420Y-6133984D02*
X4134467Y-6143508D01*
X4134467Y-6143508D02*
X4143991Y-6153031D01*
X4143991Y-6153031D02*
X4153515Y-6172079D01*
X4153515Y-6172079D02*
X4163039Y-6210174D01*
X4163039Y-6210174D02*
X4163039Y-6257793D01*
X4163039Y-6257793D02*
X4153515Y-6295888D01*
X4153515Y-6295888D02*
X4143991Y-6314936D01*
X4143991Y-6314936D02*
X4134467Y-6324460D01*
X4134467Y-6324460D02*
X4115420Y-6333984D01*
X4115420Y-6333984D02*
X4096372Y-6333984D01*
X4096372Y-6333984D02*
X4077324Y-6324460D01*
X4077324Y-6324460D02*
X4067801Y-6314936D01*
X4067801Y-6314936D02*
X4058277Y-6295888D01*
X4058277Y-6295888D02*
X4048753Y-6257793D01*
X4048753Y-6257793D02*
X4048753Y-6210174D01*
X4048753Y-6210174D02*
X4058277Y-6172079D01*
X4058277Y-6172079D02*
X4067801Y-6153031D01*
X4067801Y-6153031D02*
X4077324Y-6143508D01*
X4077324Y-6143508D02*
X4096372Y-6133984D01*
X4248753Y-6314936D02*
X4258277Y-6324460D01*
X4258277Y-6324460D02*
X4248753Y-6333984D01*
X4248753Y-6333984D02*
X4239229Y-6324460D01*
X4239229Y-6324460D02*
X4248753Y-6314936D01*
X4248753Y-6314936D02*
X4248753Y-6333984D01*
X4324944Y-6133984D02*
X4448753Y-6133984D01*
X4448753Y-6133984D02*
X4382086Y-6210174D01*
X4382086Y-6210174D02*
X4410658Y-6210174D01*
X4410658Y-6210174D02*
X4429705Y-6219698D01*
X4429705Y-6219698D02*
X4439229Y-6229222D01*
X4439229Y-6229222D02*
X4448753Y-6248269D01*
X4448753Y-6248269D02*
X4448753Y-6295888D01*
X4448753Y-6295888D02*
X4439229Y-6314936D01*
X4439229Y-6314936D02*
X4429705Y-6324460D01*
X4429705Y-6324460D02*
X4410658Y-6333984D01*
X4410658Y-6333984D02*
X4353515Y-6333984D01*
X4353515Y-6333984D02*
X4334467Y-6324460D01*
X4334467Y-6324460D02*
X4324944Y-6314936D01*
X4572563Y-6133984D02*
X4591610Y-6133984D01*
X4591610Y-6133984D02*
X4610658Y-6143508D01*
X4610658Y-6143508D02*
X4620182Y-6153031D01*
X4620182Y-6153031D02*
X4629705Y-6172079D01*
X4629705Y-6172079D02*
X4639229Y-6210174D01*
X4639229Y-6210174D02*
X4639229Y-6257793D01*
X4639229Y-6257793D02*
X4629705Y-6295888D01*
X4629705Y-6295888D02*
X4620182Y-6314936D01*
X4620182Y-6314936D02*
X4610658Y-6324460D01*
X4610658Y-6324460D02*
X4591610Y-6333984D01*
X4591610Y-6333984D02*
X4572563Y-6333984D01*
X4572563Y-6333984D02*
X4553515Y-6324460D01*
X4553515Y-6324460D02*
X4543991Y-6314936D01*
X4543991Y-6314936D02*
X4534467Y-6295888D01*
X4534467Y-6295888D02*
X4524944Y-6257793D01*
X4524944Y-6257793D02*
X4524944Y-6210174D01*
X4524944Y-6210174D02*
X4534467Y-6172079D01*
X4534467Y-6172079D02*
X4543991Y-6153031D01*
X4543991Y-6153031D02*
X4553515Y-6143508D01*
X4553515Y-6143508D02*
X4572563Y-6133984D01*
X4763039Y-6133984D02*
X4782086Y-6133984D01*
X4782086Y-6133984D02*
X4801134Y-6143508D01*
X4801134Y-6143508D02*
X4810658Y-6153031D01*
X4810658Y-6153031D02*
X4820182Y-6172079D01*
X4820182Y-6172079D02*
X4829705Y-6210174D01*
X4829705Y-6210174D02*
X4829705Y-6257793D01*
X4829705Y-6257793D02*
X4820182Y-6295888D01*
X4820182Y-6295888D02*
X4810658Y-6314936D01*
X4810658Y-6314936D02*
X4801134Y-6324460D01*
X4801134Y-6324460D02*
X4782086Y-6333984D01*
X4782086Y-6333984D02*
X4763039Y-6333984D01*
X4763039Y-6333984D02*
X4743991Y-6324460D01*
X4743991Y-6324460D02*
X4734467Y-6314936D01*
X4734467Y-6314936D02*
X4724944Y-6295888D01*
X4724944Y-6295888D02*
X4715420Y-6257793D01*
X4715420Y-6257793D02*
X4715420Y-6210174D01*
X4715420Y-6210174D02*
X4724944Y-6172079D01*
X4724944Y-6172079D02*
X4734467Y-6153031D01*
X4734467Y-6153031D02*
X4743991Y-6143508D01*
X4743991Y-6143508D02*
X4763039Y-6133984D01*
X4915420Y-6333984D02*
X4915420Y-6200650D01*
X4915420Y-6219698D02*
X4924944Y-6210174D01*
X4924944Y-6210174D02*
X4943991Y-6200650D01*
X4943991Y-6200650D02*
X4972563Y-6200650D01*
X4972563Y-6200650D02*
X4991610Y-6210174D01*
X4991610Y-6210174D02*
X5001134Y-6229222D01*
X5001134Y-6229222D02*
X5001134Y-6333984D01*
X5001134Y-6229222D02*
X5010658Y-6210174D01*
X5010658Y-6210174D02*
X5029705Y-6200650D01*
X5029705Y-6200650D02*
X5058277Y-6200650D01*
X5058277Y-6200650D02*
X5077325Y-6210174D01*
X5077325Y-6210174D02*
X5086848Y-6229222D01*
X5086848Y-6229222D02*
X5086848Y-6333984D01*
X5182086Y-6333984D02*
X5182086Y-6200650D01*
X5182086Y-6219698D02*
X5191610Y-6210174D01*
X5191610Y-6210174D02*
X5210658Y-6200650D01*
X5210658Y-6200650D02*
X5239229Y-6200650D01*
X5239229Y-6200650D02*
X5258277Y-6210174D01*
X5258277Y-6210174D02*
X5267801Y-6229222D01*
X5267801Y-6229222D02*
X5267801Y-6333984D01*
X5267801Y-6229222D02*
X5277325Y-6210174D01*
X5277325Y-6210174D02*
X5296372Y-6200650D01*
X5296372Y-6200650D02*
X5324944Y-6200650D01*
X5324944Y-6200650D02*
X5343991Y-6210174D01*
X5343991Y-6210174D02*
X5353515Y-6229222D01*
X5353515Y-6229222D02*
X5353515Y-6333984D01*
X5743991Y-6124460D02*
X5572563Y-6381603D01*
X6001134Y-6133984D02*
X6020182Y-6133984D01*
X6020182Y-6133984D02*
X6039229Y-6143508D01*
X6039229Y-6143508D02*
X6048753Y-6153031D01*
X6048753Y-6153031D02*
X6058277Y-6172079D01*
X6058277Y-6172079D02*
X6067801Y-6210174D01*
X6067801Y-6210174D02*
X6067801Y-6257793D01*
X6067801Y-6257793D02*
X6058277Y-6295888D01*
X6058277Y-6295888D02*
X6048753Y-6314936D01*
X6048753Y-6314936D02*
X6039229Y-6324460D01*
X6039229Y-6324460D02*
X6020182Y-6333984D01*
X6020182Y-6333984D02*
X6001134Y-6333984D01*
X6001134Y-6333984D02*
X5982086Y-6324460D01*
X5982086Y-6324460D02*
X5972563Y-6314936D01*
X5972563Y-6314936D02*
X5963039Y-6295888D01*
X5963039Y-6295888D02*
X5953515Y-6257793D01*
X5953515Y-6257793D02*
X5953515Y-6210174D01*
X5953515Y-6210174D02*
X5963039Y-6172079D01*
X5963039Y-6172079D02*
X5972563Y-6153031D01*
X5972563Y-6153031D02*
X5982086Y-6143508D01*
X5982086Y-6143508D02*
X6001134Y-6133984D01*
X6153515Y-6314936D02*
X6163039Y-6324460D01*
X6163039Y-6324460D02*
X6153515Y-6333984D01*
X6153515Y-6333984D02*
X6143991Y-6324460D01*
X6143991Y-6324460D02*
X6153515Y-6314936D01*
X6153515Y-6314936D02*
X6153515Y-6333984D01*
X6286848Y-6133984D02*
X6305896Y-6133984D01*
X6305896Y-6133984D02*
X6324944Y-6143508D01*
X6324944Y-6143508D02*
X6334467Y-6153031D01*
X6334467Y-6153031D02*
X6343991Y-6172079D01*
X6343991Y-6172079D02*
X6353515Y-6210174D01*
X6353515Y-6210174D02*
X6353515Y-6257793D01*
X6353515Y-6257793D02*
X6343991Y-6295888D01*
X6343991Y-6295888D02*
X6334467Y-6314936D01*
X6334467Y-6314936D02*
X6324944Y-6324460D01*
X6324944Y-6324460D02*
X6305896Y-6333984D01*
X6305896Y-6333984D02*
X6286848Y-6333984D01*
X6286848Y-6333984D02*
X6267801Y-6324460D01*
X6267801Y-6324460D02*
X6258277Y-6314936D01*
X6258277Y-6314936D02*
X6248753Y-6295888D01*
X6248753Y-6295888D02*
X6239229Y-6257793D01*
X6239229Y-6257793D02*
X6239229Y-6210174D01*
X6239229Y-6210174D02*
X6248753Y-6172079D01*
X6248753Y-6172079D02*
X6258277Y-6153031D01*
X6258277Y-6153031D02*
X6267801Y-6143508D01*
X6267801Y-6143508D02*
X6286848Y-6133984D01*
X6543991Y-6333984D02*
X6429706Y-6333984D01*
X6486848Y-6333984D02*
X6486848Y-6133984D01*
X6486848Y-6133984D02*
X6467801Y-6162555D01*
X6467801Y-6162555D02*
X6448753Y-6181603D01*
X6448753Y-6181603D02*
X6429706Y-6191127D01*
X6734467Y-6333984D02*
X6620182Y-6333984D01*
X6677325Y-6333984D02*
X6677325Y-6133984D01*
X6677325Y-6133984D02*
X6658277Y-6162555D01*
X6658277Y-6162555D02*
X6639229Y-6181603D01*
X6639229Y-6181603D02*
X6620182Y-6191127D01*
X6848753Y-6219698D02*
X6829706Y-6210174D01*
X6829706Y-6210174D02*
X6820182Y-6200650D01*
X6820182Y-6200650D02*
X6810658Y-6181603D01*
X6810658Y-6181603D02*
X6810658Y-6172079D01*
X6810658Y-6172079D02*
X6820182Y-6153031D01*
X6820182Y-6153031D02*
X6829706Y-6143508D01*
X6829706Y-6143508D02*
X6848753Y-6133984D01*
X6848753Y-6133984D02*
X6886848Y-6133984D01*
X6886848Y-6133984D02*
X6905896Y-6143508D01*
X6905896Y-6143508D02*
X6915420Y-6153031D01*
X6915420Y-6153031D02*
X6924944Y-6172079D01*
X6924944Y-6172079D02*
X6924944Y-6181603D01*
X6924944Y-6181603D02*
X6915420Y-6200650D01*
X6915420Y-6200650D02*
X6905896Y-6210174D01*
X6905896Y-6210174D02*
X6886848Y-6219698D01*
X6886848Y-6219698D02*
X6848753Y-6219698D01*
X6848753Y-6219698D02*
X6829706Y-6229222D01*
X6829706Y-6229222D02*
X6820182Y-6238746D01*
X6820182Y-6238746D02*
X6810658Y-6257793D01*
X6810658Y-6257793D02*
X6810658Y-6295888D01*
X6810658Y-6295888D02*
X6820182Y-6314936D01*
X6820182Y-6314936D02*
X6829706Y-6324460D01*
X6829706Y-6324460D02*
X6848753Y-6333984D01*
X6848753Y-6333984D02*
X6886848Y-6333984D01*
X6886848Y-6333984D02*
X6905896Y-6324460D01*
X6905896Y-6324460D02*
X6915420Y-6314936D01*
X6915420Y-6314936D02*
X6924944Y-6295888D01*
X6924944Y-6295888D02*
X6924944Y-6257793D01*
X6924944Y-6257793D02*
X6915420Y-6238746D01*
X6915420Y-6238746D02*
X6905896Y-6229222D01*
X6905896Y-6229222D02*
X6886848Y-6219698D01*
X7001134Y-6133984D02*
X7001134Y-6172079D01*
X7077325Y-6133984D02*
X7077325Y-6172079D01*
X7372563Y-6410174D02*
X7363039Y-6400650D01*
X7363039Y-6400650D02*
X7343991Y-6372079D01*
X7343991Y-6372079D02*
X7334468Y-6353031D01*
X7334468Y-6353031D02*
X7324944Y-6324460D01*
X7324944Y-6324460D02*
X7315420Y-6276841D01*
X7315420Y-6276841D02*
X7315420Y-6238746D01*
X7315420Y-6238746D02*
X7324944Y-6191127D01*
X7324944Y-6191127D02*
X7334468Y-6162555D01*
X7334468Y-6162555D02*
X7343991Y-6143508D01*
X7343991Y-6143508D02*
X7363039Y-6114936D01*
X7363039Y-6114936D02*
X7372563Y-6105412D01*
X7543991Y-6133984D02*
X7448753Y-6133984D01*
X7448753Y-6133984D02*
X7439229Y-6229222D01*
X7439229Y-6229222D02*
X7448753Y-6219698D01*
X7448753Y-6219698D02*
X7467801Y-6210174D01*
X7467801Y-6210174D02*
X7515420Y-6210174D01*
X7515420Y-6210174D02*
X7534468Y-6219698D01*
X7534468Y-6219698D02*
X7543991Y-6229222D01*
X7543991Y-6229222D02*
X7553515Y-6248269D01*
X7553515Y-6248269D02*
X7553515Y-6295888D01*
X7553515Y-6295888D02*
X7543991Y-6314936D01*
X7543991Y-6314936D02*
X7534468Y-6324460D01*
X7534468Y-6324460D02*
X7515420Y-6333984D01*
X7515420Y-6333984D02*
X7467801Y-6333984D01*
X7467801Y-6333984D02*
X7448753Y-6324460D01*
X7448753Y-6324460D02*
X7439229Y-6314936D01*
X7743991Y-6333984D02*
X7629706Y-6333984D01*
X7686848Y-6333984D02*
X7686848Y-6133984D01*
X7686848Y-6133984D02*
X7667801Y-6162555D01*
X7667801Y-6162555D02*
X7648753Y-6181603D01*
X7648753Y-6181603D02*
X7629706Y-6191127D01*
X7982087Y-6333984D02*
X7982087Y-6133984D01*
X8067801Y-6333984D02*
X8067801Y-6229222D01*
X8067801Y-6229222D02*
X8058277Y-6210174D01*
X8058277Y-6210174D02*
X8039230Y-6200650D01*
X8039230Y-6200650D02*
X8010658Y-6200650D01*
X8010658Y-6200650D02*
X7991610Y-6210174D01*
X7991610Y-6210174D02*
X7982087Y-6219698D01*
X8191610Y-6333984D02*
X8172563Y-6324460D01*
X8172563Y-6324460D02*
X8163039Y-6314936D01*
X8163039Y-6314936D02*
X8153515Y-6295888D01*
X8153515Y-6295888D02*
X8153515Y-6238746D01*
X8153515Y-6238746D02*
X8163039Y-6219698D01*
X8163039Y-6219698D02*
X8172563Y-6210174D01*
X8172563Y-6210174D02*
X8191610Y-6200650D01*
X8191610Y-6200650D02*
X8220182Y-6200650D01*
X8220182Y-6200650D02*
X8239230Y-6210174D01*
X8239230Y-6210174D02*
X8248753Y-6219698D01*
X8248753Y-6219698D02*
X8258277Y-6238746D01*
X8258277Y-6238746D02*
X8258277Y-6295888D01*
X8258277Y-6295888D02*
X8248753Y-6314936D01*
X8248753Y-6314936D02*
X8239230Y-6324460D01*
X8239230Y-6324460D02*
X8220182Y-6333984D01*
X8220182Y-6333984D02*
X8191610Y-6333984D01*
X8372563Y-6333984D02*
X8353515Y-6324460D01*
X8353515Y-6324460D02*
X8343991Y-6305412D01*
X8343991Y-6305412D02*
X8343991Y-6133984D01*
X8524944Y-6324460D02*
X8505896Y-6333984D01*
X8505896Y-6333984D02*
X8467801Y-6333984D01*
X8467801Y-6333984D02*
X8448753Y-6324460D01*
X8448753Y-6324460D02*
X8439230Y-6305412D01*
X8439230Y-6305412D02*
X8439230Y-6229222D01*
X8439230Y-6229222D02*
X8448753Y-6210174D01*
X8448753Y-6210174D02*
X8467801Y-6200650D01*
X8467801Y-6200650D02*
X8505896Y-6200650D01*
X8505896Y-6200650D02*
X8524944Y-6210174D01*
X8524944Y-6210174D02*
X8534468Y-6229222D01*
X8534468Y-6229222D02*
X8534468Y-6248269D01*
X8534468Y-6248269D02*
X8439230Y-6267317D01*
X8610658Y-6324460D02*
X8629706Y-6333984D01*
X8629706Y-6333984D02*
X8667801Y-6333984D01*
X8667801Y-6333984D02*
X8686849Y-6324460D01*
X8686849Y-6324460D02*
X8696373Y-6305412D01*
X8696373Y-6305412D02*
X8696373Y-6295888D01*
X8696373Y-6295888D02*
X8686849Y-6276841D01*
X8686849Y-6276841D02*
X8667801Y-6267317D01*
X8667801Y-6267317D02*
X8639230Y-6267317D01*
X8639230Y-6267317D02*
X8620182Y-6257793D01*
X8620182Y-6257793D02*
X8610658Y-6238746D01*
X8610658Y-6238746D02*
X8610658Y-6229222D01*
X8610658Y-6229222D02*
X8620182Y-6210174D01*
X8620182Y-6210174D02*
X8639230Y-6200650D01*
X8639230Y-6200650D02*
X8667801Y-6200650D01*
X8667801Y-6200650D02*
X8686849Y-6210174D01*
X8763039Y-6410174D02*
X8772563Y-6400650D01*
X8772563Y-6400650D02*
X8791611Y-6372079D01*
X8791611Y-6372079D02*
X8801134Y-6353031D01*
X8801134Y-6353031D02*
X8810658Y-6324460D01*
X8810658Y-6324460D02*
X8820182Y-6276841D01*
X8820182Y-6276841D02*
X8820182Y-6238746D01*
X8820182Y-6238746D02*
X8810658Y-6191127D01*
X8810658Y-6191127D02*
X8801134Y-6162555D01*
X8801134Y-6162555D02*
X8791611Y-6143508D01*
X8791611Y-6143508D02*
X8772563Y-6114936D01*
X8772563Y-6114936D02*
X8763039Y-6105412D01*
D12*
X3797500Y-6506500D02*
G75*
G02*
X3757500Y-6506500I-20000J0D01*
G01*
X3757500Y-6506500D02*
G75*
G02*
X3797500Y-6506500I20000J0D01*
G01*
D11*
X4096372Y-6397984D02*
X4115420Y-6397984D01*
X4115420Y-6397984D02*
X4134467Y-6407508D01*
X4134467Y-6407508D02*
X4143991Y-6417031D01*
X4143991Y-6417031D02*
X4153515Y-6436079D01*
X4153515Y-6436079D02*
X4163039Y-6474174D01*
X4163039Y-6474174D02*
X4163039Y-6521793D01*
X4163039Y-6521793D02*
X4153515Y-6559888D01*
X4153515Y-6559888D02*
X4143991Y-6578936D01*
X4143991Y-6578936D02*
X4134467Y-6588460D01*
X4134467Y-6588460D02*
X4115420Y-6597984D01*
X4115420Y-6597984D02*
X4096372Y-6597984D01*
X4096372Y-6597984D02*
X4077324Y-6588460D01*
X4077324Y-6588460D02*
X4067801Y-6578936D01*
X4067801Y-6578936D02*
X4058277Y-6559888D01*
X4058277Y-6559888D02*
X4048753Y-6521793D01*
X4048753Y-6521793D02*
X4048753Y-6474174D01*
X4048753Y-6474174D02*
X4058277Y-6436079D01*
X4058277Y-6436079D02*
X4067801Y-6417031D01*
X4067801Y-6417031D02*
X4077324Y-6407508D01*
X4077324Y-6407508D02*
X4096372Y-6397984D01*
X4248753Y-6578936D02*
X4258277Y-6588460D01*
X4258277Y-6588460D02*
X4248753Y-6597984D01*
X4248753Y-6597984D02*
X4239229Y-6588460D01*
X4239229Y-6588460D02*
X4248753Y-6578936D01*
X4248753Y-6578936D02*
X4248753Y-6597984D01*
X4429705Y-6464650D02*
X4429705Y-6597984D01*
X4382086Y-6388460D02*
X4334467Y-6531317D01*
X4334467Y-6531317D02*
X4458277Y-6531317D01*
X4572563Y-6397984D02*
X4591610Y-6397984D01*
X4591610Y-6397984D02*
X4610658Y-6407508D01*
X4610658Y-6407508D02*
X4620182Y-6417031D01*
X4620182Y-6417031D02*
X4629705Y-6436079D01*
X4629705Y-6436079D02*
X4639229Y-6474174D01*
X4639229Y-6474174D02*
X4639229Y-6521793D01*
X4639229Y-6521793D02*
X4629705Y-6559888D01*
X4629705Y-6559888D02*
X4620182Y-6578936D01*
X4620182Y-6578936D02*
X4610658Y-6588460D01*
X4610658Y-6588460D02*
X4591610Y-6597984D01*
X4591610Y-6597984D02*
X4572563Y-6597984D01*
X4572563Y-6597984D02*
X4553515Y-6588460D01*
X4553515Y-6588460D02*
X4543991Y-6578936D01*
X4543991Y-6578936D02*
X4534467Y-6559888D01*
X4534467Y-6559888D02*
X4524944Y-6521793D01*
X4524944Y-6521793D02*
X4524944Y-6474174D01*
X4524944Y-6474174D02*
X4534467Y-6436079D01*
X4534467Y-6436079D02*
X4543991Y-6417031D01*
X4543991Y-6417031D02*
X4553515Y-6407508D01*
X4553515Y-6407508D02*
X4572563Y-6397984D01*
X4763039Y-6397984D02*
X4782086Y-6397984D01*
X4782086Y-6397984D02*
X4801134Y-6407508D01*
X4801134Y-6407508D02*
X4810658Y-6417031D01*
X4810658Y-6417031D02*
X4820182Y-6436079D01*
X4820182Y-6436079D02*
X4829705Y-6474174D01*
X4829705Y-6474174D02*
X4829705Y-6521793D01*
X4829705Y-6521793D02*
X4820182Y-6559888D01*
X4820182Y-6559888D02*
X4810658Y-6578936D01*
X4810658Y-6578936D02*
X4801134Y-6588460D01*
X4801134Y-6588460D02*
X4782086Y-6597984D01*
X4782086Y-6597984D02*
X4763039Y-6597984D01*
X4763039Y-6597984D02*
X4743991Y-6588460D01*
X4743991Y-6588460D02*
X4734467Y-6578936D01*
X4734467Y-6578936D02*
X4724944Y-6559888D01*
X4724944Y-6559888D02*
X4715420Y-6521793D01*
X4715420Y-6521793D02*
X4715420Y-6474174D01*
X4715420Y-6474174D02*
X4724944Y-6436079D01*
X4724944Y-6436079D02*
X4734467Y-6417031D01*
X4734467Y-6417031D02*
X4743991Y-6407508D01*
X4743991Y-6407508D02*
X4763039Y-6397984D01*
X4915420Y-6597984D02*
X4915420Y-6464650D01*
X4915420Y-6483698D02*
X4924944Y-6474174D01*
X4924944Y-6474174D02*
X4943991Y-6464650D01*
X4943991Y-6464650D02*
X4972563Y-6464650D01*
X4972563Y-6464650D02*
X4991610Y-6474174D01*
X4991610Y-6474174D02*
X5001134Y-6493222D01*
X5001134Y-6493222D02*
X5001134Y-6597984D01*
X5001134Y-6493222D02*
X5010658Y-6474174D01*
X5010658Y-6474174D02*
X5029705Y-6464650D01*
X5029705Y-6464650D02*
X5058277Y-6464650D01*
X5058277Y-6464650D02*
X5077325Y-6474174D01*
X5077325Y-6474174D02*
X5086848Y-6493222D01*
X5086848Y-6493222D02*
X5086848Y-6597984D01*
X5182086Y-6597984D02*
X5182086Y-6464650D01*
X5182086Y-6483698D02*
X5191610Y-6474174D01*
X5191610Y-6474174D02*
X5210658Y-6464650D01*
X5210658Y-6464650D02*
X5239229Y-6464650D01*
X5239229Y-6464650D02*
X5258277Y-6474174D01*
X5258277Y-6474174D02*
X5267801Y-6493222D01*
X5267801Y-6493222D02*
X5267801Y-6597984D01*
X5267801Y-6493222D02*
X5277325Y-6474174D01*
X5277325Y-6474174D02*
X5296372Y-6464650D01*
X5296372Y-6464650D02*
X5324944Y-6464650D01*
X5324944Y-6464650D02*
X5343991Y-6474174D01*
X5343991Y-6474174D02*
X5353515Y-6493222D01*
X5353515Y-6493222D02*
X5353515Y-6597984D01*
X5743991Y-6388460D02*
X5572563Y-6645603D01*
X6001134Y-6397984D02*
X6020182Y-6397984D01*
X6020182Y-6397984D02*
X6039229Y-6407508D01*
X6039229Y-6407508D02*
X6048753Y-6417031D01*
X6048753Y-6417031D02*
X6058277Y-6436079D01*
X6058277Y-6436079D02*
X6067801Y-6474174D01*
X6067801Y-6474174D02*
X6067801Y-6521793D01*
X6067801Y-6521793D02*
X6058277Y-6559888D01*
X6058277Y-6559888D02*
X6048753Y-6578936D01*
X6048753Y-6578936D02*
X6039229Y-6588460D01*
X6039229Y-6588460D02*
X6020182Y-6597984D01*
X6020182Y-6597984D02*
X6001134Y-6597984D01*
X6001134Y-6597984D02*
X5982086Y-6588460D01*
X5982086Y-6588460D02*
X5972563Y-6578936D01*
X5972563Y-6578936D02*
X5963039Y-6559888D01*
X5963039Y-6559888D02*
X5953515Y-6521793D01*
X5953515Y-6521793D02*
X5953515Y-6474174D01*
X5953515Y-6474174D02*
X5963039Y-6436079D01*
X5963039Y-6436079D02*
X5972563Y-6417031D01*
X5972563Y-6417031D02*
X5982086Y-6407508D01*
X5982086Y-6407508D02*
X6001134Y-6397984D01*
X6153515Y-6578936D02*
X6163039Y-6588460D01*
X6163039Y-6588460D02*
X6153515Y-6597984D01*
X6153515Y-6597984D02*
X6143991Y-6588460D01*
X6143991Y-6588460D02*
X6153515Y-6578936D01*
X6153515Y-6578936D02*
X6153515Y-6597984D01*
X6286848Y-6397984D02*
X6305896Y-6397984D01*
X6305896Y-6397984D02*
X6324944Y-6407508D01*
X6324944Y-6407508D02*
X6334467Y-6417031D01*
X6334467Y-6417031D02*
X6343991Y-6436079D01*
X6343991Y-6436079D02*
X6353515Y-6474174D01*
X6353515Y-6474174D02*
X6353515Y-6521793D01*
X6353515Y-6521793D02*
X6343991Y-6559888D01*
X6343991Y-6559888D02*
X6334467Y-6578936D01*
X6334467Y-6578936D02*
X6324944Y-6588460D01*
X6324944Y-6588460D02*
X6305896Y-6597984D01*
X6305896Y-6597984D02*
X6286848Y-6597984D01*
X6286848Y-6597984D02*
X6267801Y-6588460D01*
X6267801Y-6588460D02*
X6258277Y-6578936D01*
X6258277Y-6578936D02*
X6248753Y-6559888D01*
X6248753Y-6559888D02*
X6239229Y-6521793D01*
X6239229Y-6521793D02*
X6239229Y-6474174D01*
X6239229Y-6474174D02*
X6248753Y-6436079D01*
X6248753Y-6436079D02*
X6258277Y-6417031D01*
X6258277Y-6417031D02*
X6267801Y-6407508D01*
X6267801Y-6407508D02*
X6286848Y-6397984D01*
X6543991Y-6597984D02*
X6429706Y-6597984D01*
X6486848Y-6597984D02*
X6486848Y-6397984D01*
X6486848Y-6397984D02*
X6467801Y-6426555D01*
X6467801Y-6426555D02*
X6448753Y-6445603D01*
X6448753Y-6445603D02*
X6429706Y-6455127D01*
X6724944Y-6397984D02*
X6629706Y-6397984D01*
X6629706Y-6397984D02*
X6620182Y-6493222D01*
X6620182Y-6493222D02*
X6629706Y-6483698D01*
X6629706Y-6483698D02*
X6648753Y-6474174D01*
X6648753Y-6474174D02*
X6696372Y-6474174D01*
X6696372Y-6474174D02*
X6715420Y-6483698D01*
X6715420Y-6483698D02*
X6724944Y-6493222D01*
X6724944Y-6493222D02*
X6734467Y-6512269D01*
X6734467Y-6512269D02*
X6734467Y-6559888D01*
X6734467Y-6559888D02*
X6724944Y-6578936D01*
X6724944Y-6578936D02*
X6715420Y-6588460D01*
X6715420Y-6588460D02*
X6696372Y-6597984D01*
X6696372Y-6597984D02*
X6648753Y-6597984D01*
X6648753Y-6597984D02*
X6629706Y-6588460D01*
X6629706Y-6588460D02*
X6620182Y-6578936D01*
X6801134Y-6397984D02*
X6934467Y-6397984D01*
X6934467Y-6397984D02*
X6848753Y-6597984D01*
X7001134Y-6397984D02*
X7001134Y-6436079D01*
X7077325Y-6397984D02*
X7077325Y-6436079D01*
X7372563Y-6674174D02*
X7363039Y-6664650D01*
X7363039Y-6664650D02*
X7343991Y-6636079D01*
X7343991Y-6636079D02*
X7334468Y-6617031D01*
X7334468Y-6617031D02*
X7324944Y-6588460D01*
X7324944Y-6588460D02*
X7315420Y-6540841D01*
X7315420Y-6540841D02*
X7315420Y-6502746D01*
X7315420Y-6502746D02*
X7324944Y-6455127D01*
X7324944Y-6455127D02*
X7334468Y-6426555D01*
X7334468Y-6426555D02*
X7343991Y-6407508D01*
X7343991Y-6407508D02*
X7363039Y-6378936D01*
X7363039Y-6378936D02*
X7372563Y-6369412D01*
X7439229Y-6417031D02*
X7448753Y-6407508D01*
X7448753Y-6407508D02*
X7467801Y-6397984D01*
X7467801Y-6397984D02*
X7515420Y-6397984D01*
X7515420Y-6397984D02*
X7534468Y-6407508D01*
X7534468Y-6407508D02*
X7543991Y-6417031D01*
X7543991Y-6417031D02*
X7553515Y-6436079D01*
X7553515Y-6436079D02*
X7553515Y-6455127D01*
X7553515Y-6455127D02*
X7543991Y-6483698D01*
X7543991Y-6483698D02*
X7429706Y-6597984D01*
X7429706Y-6597984D02*
X7553515Y-6597984D01*
X7791610Y-6597984D02*
X7791610Y-6397984D01*
X7877325Y-6597984D02*
X7877325Y-6493222D01*
X7877325Y-6493222D02*
X7867801Y-6474174D01*
X7867801Y-6474174D02*
X7848753Y-6464650D01*
X7848753Y-6464650D02*
X7820182Y-6464650D01*
X7820182Y-6464650D02*
X7801134Y-6474174D01*
X7801134Y-6474174D02*
X7791610Y-6483698D01*
X8001134Y-6597984D02*
X7982087Y-6588460D01*
X7982087Y-6588460D02*
X7972563Y-6578936D01*
X7972563Y-6578936D02*
X7963039Y-6559888D01*
X7963039Y-6559888D02*
X7963039Y-6502746D01*
X7963039Y-6502746D02*
X7972563Y-6483698D01*
X7972563Y-6483698D02*
X7982087Y-6474174D01*
X7982087Y-6474174D02*
X8001134Y-6464650D01*
X8001134Y-6464650D02*
X8029706Y-6464650D01*
X8029706Y-6464650D02*
X8048753Y-6474174D01*
X8048753Y-6474174D02*
X8058277Y-6483698D01*
X8058277Y-6483698D02*
X8067801Y-6502746D01*
X8067801Y-6502746D02*
X8067801Y-6559888D01*
X8067801Y-6559888D02*
X8058277Y-6578936D01*
X8058277Y-6578936D02*
X8048753Y-6588460D01*
X8048753Y-6588460D02*
X8029706Y-6597984D01*
X8029706Y-6597984D02*
X8001134Y-6597984D01*
X8182087Y-6597984D02*
X8163039Y-6588460D01*
X8163039Y-6588460D02*
X8153515Y-6569412D01*
X8153515Y-6569412D02*
X8153515Y-6397984D01*
X8334468Y-6588460D02*
X8315420Y-6597984D01*
X8315420Y-6597984D02*
X8277325Y-6597984D01*
X8277325Y-6597984D02*
X8258277Y-6588460D01*
X8258277Y-6588460D02*
X8248753Y-6569412D01*
X8248753Y-6569412D02*
X8248753Y-6493222D01*
X8248753Y-6493222D02*
X8258277Y-6474174D01*
X8258277Y-6474174D02*
X8277325Y-6464650D01*
X8277325Y-6464650D02*
X8315420Y-6464650D01*
X8315420Y-6464650D02*
X8334468Y-6474174D01*
X8334468Y-6474174D02*
X8343991Y-6493222D01*
X8343991Y-6493222D02*
X8343991Y-6512269D01*
X8343991Y-6512269D02*
X8248753Y-6531317D01*
X8420182Y-6588460D02*
X8439230Y-6597984D01*
X8439230Y-6597984D02*
X8477325Y-6597984D01*
X8477325Y-6597984D02*
X8496373Y-6588460D01*
X8496373Y-6588460D02*
X8505896Y-6569412D01*
X8505896Y-6569412D02*
X8505896Y-6559888D01*
X8505896Y-6559888D02*
X8496373Y-6540841D01*
X8496373Y-6540841D02*
X8477325Y-6531317D01*
X8477325Y-6531317D02*
X8448753Y-6531317D01*
X8448753Y-6531317D02*
X8429706Y-6521793D01*
X8429706Y-6521793D02*
X8420182Y-6502746D01*
X8420182Y-6502746D02*
X8420182Y-6493222D01*
X8420182Y-6493222D02*
X8429706Y-6474174D01*
X8429706Y-6474174D02*
X8448753Y-6464650D01*
X8448753Y-6464650D02*
X8477325Y-6464650D01*
X8477325Y-6464650D02*
X8496373Y-6474174D01*
X8572563Y-6674174D02*
X8582087Y-6664650D01*
X8582087Y-6664650D02*
X8601134Y-6636079D01*
X8601134Y-6636079D02*
X8610658Y-6617031D01*
X8610658Y-6617031D02*
X8620182Y-6588460D01*
X8620182Y-6588460D02*
X8629706Y-6540841D01*
X8629706Y-6540841D02*
X8629706Y-6502746D01*
X8629706Y-6502746D02*
X8620182Y-6455127D01*
X8620182Y-6455127D02*
X8610658Y-6426555D01*
X8610658Y-6426555D02*
X8601134Y-6407508D01*
X8601134Y-6407508D02*
X8582087Y-6378936D01*
X8582087Y-6378936D02*
X8572563Y-6369412D01*
D12*
X3759400Y-6732400D02*
X3759400Y-6808600D01*
X3721300Y-6770500D02*
X3797500Y-6770500D01*
D11*
X4096372Y-6661984D02*
X4115420Y-6661984D01*
X4115420Y-6661984D02*
X4134467Y-6671508D01*
X4134467Y-6671508D02*
X4143991Y-6681031D01*
X4143991Y-6681031D02*
X4153515Y-6700079D01*
X4153515Y-6700079D02*
X4163039Y-6738174D01*
X4163039Y-6738174D02*
X4163039Y-6785793D01*
X4163039Y-6785793D02*
X4153515Y-6823888D01*
X4153515Y-6823888D02*
X4143991Y-6842936D01*
X4143991Y-6842936D02*
X4134467Y-6852460D01*
X4134467Y-6852460D02*
X4115420Y-6861984D01*
X4115420Y-6861984D02*
X4096372Y-6861984D01*
X4096372Y-6861984D02*
X4077324Y-6852460D01*
X4077324Y-6852460D02*
X4067801Y-6842936D01*
X4067801Y-6842936D02*
X4058277Y-6823888D01*
X4058277Y-6823888D02*
X4048753Y-6785793D01*
X4048753Y-6785793D02*
X4048753Y-6738174D01*
X4048753Y-6738174D02*
X4058277Y-6700079D01*
X4058277Y-6700079D02*
X4067801Y-6681031D01*
X4067801Y-6681031D02*
X4077324Y-6671508D01*
X4077324Y-6671508D02*
X4096372Y-6661984D01*
X4248753Y-6842936D02*
X4258277Y-6852460D01*
X4258277Y-6852460D02*
X4248753Y-6861984D01*
X4248753Y-6861984D02*
X4239229Y-6852460D01*
X4239229Y-6852460D02*
X4248753Y-6842936D01*
X4248753Y-6842936D02*
X4248753Y-6861984D01*
X4324944Y-6661984D02*
X4458277Y-6661984D01*
X4458277Y-6661984D02*
X4372563Y-6861984D01*
X4620182Y-6661984D02*
X4582086Y-6661984D01*
X4582086Y-6661984D02*
X4563039Y-6671508D01*
X4563039Y-6671508D02*
X4553515Y-6681031D01*
X4553515Y-6681031D02*
X4534467Y-6709603D01*
X4534467Y-6709603D02*
X4524944Y-6747698D01*
X4524944Y-6747698D02*
X4524944Y-6823888D01*
X4524944Y-6823888D02*
X4534467Y-6842936D01*
X4534467Y-6842936D02*
X4543991Y-6852460D01*
X4543991Y-6852460D02*
X4563039Y-6861984D01*
X4563039Y-6861984D02*
X4601134Y-6861984D01*
X4601134Y-6861984D02*
X4620182Y-6852460D01*
X4620182Y-6852460D02*
X4629705Y-6842936D01*
X4629705Y-6842936D02*
X4639229Y-6823888D01*
X4639229Y-6823888D02*
X4639229Y-6776269D01*
X4639229Y-6776269D02*
X4629705Y-6757222D01*
X4629705Y-6757222D02*
X4620182Y-6747698D01*
X4620182Y-6747698D02*
X4601134Y-6738174D01*
X4601134Y-6738174D02*
X4563039Y-6738174D01*
X4563039Y-6738174D02*
X4543991Y-6747698D01*
X4543991Y-6747698D02*
X4534467Y-6757222D01*
X4534467Y-6757222D02*
X4524944Y-6776269D01*
X4715420Y-6681031D02*
X4724944Y-6671508D01*
X4724944Y-6671508D02*
X4743991Y-6661984D01*
X4743991Y-6661984D02*
X4791610Y-6661984D01*
X4791610Y-6661984D02*
X4810658Y-6671508D01*
X4810658Y-6671508D02*
X4820182Y-6681031D01*
X4820182Y-6681031D02*
X4829705Y-6700079D01*
X4829705Y-6700079D02*
X4829705Y-6719127D01*
X4829705Y-6719127D02*
X4820182Y-6747698D01*
X4820182Y-6747698D02*
X4705896Y-6861984D01*
X4705896Y-6861984D02*
X4829705Y-6861984D01*
X4915420Y-6861984D02*
X4915420Y-6728650D01*
X4915420Y-6747698D02*
X4924944Y-6738174D01*
X4924944Y-6738174D02*
X4943991Y-6728650D01*
X4943991Y-6728650D02*
X4972563Y-6728650D01*
X4972563Y-6728650D02*
X4991610Y-6738174D01*
X4991610Y-6738174D02*
X5001134Y-6757222D01*
X5001134Y-6757222D02*
X5001134Y-6861984D01*
X5001134Y-6757222D02*
X5010658Y-6738174D01*
X5010658Y-6738174D02*
X5029705Y-6728650D01*
X5029705Y-6728650D02*
X5058277Y-6728650D01*
X5058277Y-6728650D02*
X5077325Y-6738174D01*
X5077325Y-6738174D02*
X5086848Y-6757222D01*
X5086848Y-6757222D02*
X5086848Y-6861984D01*
X5182086Y-6861984D02*
X5182086Y-6728650D01*
X5182086Y-6747698D02*
X5191610Y-6738174D01*
X5191610Y-6738174D02*
X5210658Y-6728650D01*
X5210658Y-6728650D02*
X5239229Y-6728650D01*
X5239229Y-6728650D02*
X5258277Y-6738174D01*
X5258277Y-6738174D02*
X5267801Y-6757222D01*
X5267801Y-6757222D02*
X5267801Y-6861984D01*
X5267801Y-6757222D02*
X5277325Y-6738174D01*
X5277325Y-6738174D02*
X5296372Y-6728650D01*
X5296372Y-6728650D02*
X5324944Y-6728650D01*
X5324944Y-6728650D02*
X5343991Y-6738174D01*
X5343991Y-6738174D02*
X5353515Y-6757222D01*
X5353515Y-6757222D02*
X5353515Y-6861984D01*
X5743991Y-6652460D02*
X5572563Y-6909603D01*
X6001134Y-6661984D02*
X6020182Y-6661984D01*
X6020182Y-6661984D02*
X6039229Y-6671508D01*
X6039229Y-6671508D02*
X6048753Y-6681031D01*
X6048753Y-6681031D02*
X6058277Y-6700079D01*
X6058277Y-6700079D02*
X6067801Y-6738174D01*
X6067801Y-6738174D02*
X6067801Y-6785793D01*
X6067801Y-6785793D02*
X6058277Y-6823888D01*
X6058277Y-6823888D02*
X6048753Y-6842936D01*
X6048753Y-6842936D02*
X6039229Y-6852460D01*
X6039229Y-6852460D02*
X6020182Y-6861984D01*
X6020182Y-6861984D02*
X6001134Y-6861984D01*
X6001134Y-6861984D02*
X5982086Y-6852460D01*
X5982086Y-6852460D02*
X5972563Y-6842936D01*
X5972563Y-6842936D02*
X5963039Y-6823888D01*
X5963039Y-6823888D02*
X5953515Y-6785793D01*
X5953515Y-6785793D02*
X5953515Y-6738174D01*
X5953515Y-6738174D02*
X5963039Y-6700079D01*
X5963039Y-6700079D02*
X5972563Y-6681031D01*
X5972563Y-6681031D02*
X5982086Y-6671508D01*
X5982086Y-6671508D02*
X6001134Y-6661984D01*
X6153515Y-6842936D02*
X6163039Y-6852460D01*
X6163039Y-6852460D02*
X6153515Y-6861984D01*
X6153515Y-6861984D02*
X6143991Y-6852460D01*
X6143991Y-6852460D02*
X6153515Y-6842936D01*
X6153515Y-6842936D02*
X6153515Y-6861984D01*
X6286848Y-6661984D02*
X6305896Y-6661984D01*
X6305896Y-6661984D02*
X6324944Y-6671508D01*
X6324944Y-6671508D02*
X6334467Y-6681031D01*
X6334467Y-6681031D02*
X6343991Y-6700079D01*
X6343991Y-6700079D02*
X6353515Y-6738174D01*
X6353515Y-6738174D02*
X6353515Y-6785793D01*
X6353515Y-6785793D02*
X6343991Y-6823888D01*
X6343991Y-6823888D02*
X6334467Y-6842936D01*
X6334467Y-6842936D02*
X6324944Y-6852460D01*
X6324944Y-6852460D02*
X6305896Y-6861984D01*
X6305896Y-6861984D02*
X6286848Y-6861984D01*
X6286848Y-6861984D02*
X6267801Y-6852460D01*
X6267801Y-6852460D02*
X6258277Y-6842936D01*
X6258277Y-6842936D02*
X6248753Y-6823888D01*
X6248753Y-6823888D02*
X6239229Y-6785793D01*
X6239229Y-6785793D02*
X6239229Y-6738174D01*
X6239229Y-6738174D02*
X6248753Y-6700079D01*
X6248753Y-6700079D02*
X6258277Y-6681031D01*
X6258277Y-6681031D02*
X6267801Y-6671508D01*
X6267801Y-6671508D02*
X6286848Y-6661984D01*
X6420182Y-6661984D02*
X6543991Y-6661984D01*
X6543991Y-6661984D02*
X6477325Y-6738174D01*
X6477325Y-6738174D02*
X6505896Y-6738174D01*
X6505896Y-6738174D02*
X6524944Y-6747698D01*
X6524944Y-6747698D02*
X6534467Y-6757222D01*
X6534467Y-6757222D02*
X6543991Y-6776269D01*
X6543991Y-6776269D02*
X6543991Y-6823888D01*
X6543991Y-6823888D02*
X6534467Y-6842936D01*
X6534467Y-6842936D02*
X6524944Y-6852460D01*
X6524944Y-6852460D02*
X6505896Y-6861984D01*
X6505896Y-6861984D02*
X6448753Y-6861984D01*
X6448753Y-6861984D02*
X6429706Y-6852460D01*
X6429706Y-6852460D02*
X6420182Y-6842936D01*
X6667801Y-6661984D02*
X6686848Y-6661984D01*
X6686848Y-6661984D02*
X6705896Y-6671508D01*
X6705896Y-6671508D02*
X6715420Y-6681031D01*
X6715420Y-6681031D02*
X6724944Y-6700079D01*
X6724944Y-6700079D02*
X6734467Y-6738174D01*
X6734467Y-6738174D02*
X6734467Y-6785793D01*
X6734467Y-6785793D02*
X6724944Y-6823888D01*
X6724944Y-6823888D02*
X6715420Y-6842936D01*
X6715420Y-6842936D02*
X6705896Y-6852460D01*
X6705896Y-6852460D02*
X6686848Y-6861984D01*
X6686848Y-6861984D02*
X6667801Y-6861984D01*
X6667801Y-6861984D02*
X6648753Y-6852460D01*
X6648753Y-6852460D02*
X6639229Y-6842936D01*
X6639229Y-6842936D02*
X6629706Y-6823888D01*
X6629706Y-6823888D02*
X6620182Y-6785793D01*
X6620182Y-6785793D02*
X6620182Y-6738174D01*
X6620182Y-6738174D02*
X6629706Y-6700079D01*
X6629706Y-6700079D02*
X6639229Y-6681031D01*
X6639229Y-6681031D02*
X6648753Y-6671508D01*
X6648753Y-6671508D02*
X6667801Y-6661984D01*
X6858277Y-6661984D02*
X6877325Y-6661984D01*
X6877325Y-6661984D02*
X6896372Y-6671508D01*
X6896372Y-6671508D02*
X6905896Y-6681031D01*
X6905896Y-6681031D02*
X6915420Y-6700079D01*
X6915420Y-6700079D02*
X6924944Y-6738174D01*
X6924944Y-6738174D02*
X6924944Y-6785793D01*
X6924944Y-6785793D02*
X6915420Y-6823888D01*
X6915420Y-6823888D02*
X6905896Y-6842936D01*
X6905896Y-6842936D02*
X6896372Y-6852460D01*
X6896372Y-6852460D02*
X6877325Y-6861984D01*
X6877325Y-6861984D02*
X6858277Y-6861984D01*
X6858277Y-6861984D02*
X6839229Y-6852460D01*
X6839229Y-6852460D02*
X6829706Y-6842936D01*
X6829706Y-6842936D02*
X6820182Y-6823888D01*
X6820182Y-6823888D02*
X6810658Y-6785793D01*
X6810658Y-6785793D02*
X6810658Y-6738174D01*
X6810658Y-6738174D02*
X6820182Y-6700079D01*
X6820182Y-6700079D02*
X6829706Y-6681031D01*
X6829706Y-6681031D02*
X6839229Y-6671508D01*
X6839229Y-6671508D02*
X6858277Y-6661984D01*
X7001134Y-6661984D02*
X7001134Y-6700079D01*
X7077325Y-6661984D02*
X7077325Y-6700079D01*
X7372563Y-6938174D02*
X7363039Y-6928650D01*
X7363039Y-6928650D02*
X7343991Y-6900079D01*
X7343991Y-6900079D02*
X7334468Y-6881031D01*
X7334468Y-6881031D02*
X7324944Y-6852460D01*
X7324944Y-6852460D02*
X7315420Y-6804841D01*
X7315420Y-6804841D02*
X7315420Y-6766746D01*
X7315420Y-6766746D02*
X7324944Y-6719127D01*
X7324944Y-6719127D02*
X7334468Y-6690555D01*
X7334468Y-6690555D02*
X7343991Y-6671508D01*
X7343991Y-6671508D02*
X7363039Y-6642936D01*
X7363039Y-6642936D02*
X7372563Y-6633412D01*
X7553515Y-6861984D02*
X7439229Y-6861984D01*
X7496372Y-6861984D02*
X7496372Y-6661984D01*
X7496372Y-6661984D02*
X7477325Y-6690555D01*
X7477325Y-6690555D02*
X7458277Y-6709603D01*
X7458277Y-6709603D02*
X7439229Y-6719127D01*
X7791610Y-6861984D02*
X7791610Y-6661984D01*
X7877325Y-6861984D02*
X7877325Y-6757222D01*
X7877325Y-6757222D02*
X7867801Y-6738174D01*
X7867801Y-6738174D02*
X7848753Y-6728650D01*
X7848753Y-6728650D02*
X7820182Y-6728650D01*
X7820182Y-6728650D02*
X7801134Y-6738174D01*
X7801134Y-6738174D02*
X7791610Y-6747698D01*
X8001134Y-6861984D02*
X7982087Y-6852460D01*
X7982087Y-6852460D02*
X7972563Y-6842936D01*
X7972563Y-6842936D02*
X7963039Y-6823888D01*
X7963039Y-6823888D02*
X7963039Y-6766746D01*
X7963039Y-6766746D02*
X7972563Y-6747698D01*
X7972563Y-6747698D02*
X7982087Y-6738174D01*
X7982087Y-6738174D02*
X8001134Y-6728650D01*
X8001134Y-6728650D02*
X8029706Y-6728650D01*
X8029706Y-6728650D02*
X8048753Y-6738174D01*
X8048753Y-6738174D02*
X8058277Y-6747698D01*
X8058277Y-6747698D02*
X8067801Y-6766746D01*
X8067801Y-6766746D02*
X8067801Y-6823888D01*
X8067801Y-6823888D02*
X8058277Y-6842936D01*
X8058277Y-6842936D02*
X8048753Y-6852460D01*
X8048753Y-6852460D02*
X8029706Y-6861984D01*
X8029706Y-6861984D02*
X8001134Y-6861984D01*
X8182087Y-6861984D02*
X8163039Y-6852460D01*
X8163039Y-6852460D02*
X8153515Y-6833412D01*
X8153515Y-6833412D02*
X8153515Y-6661984D01*
X8334468Y-6852460D02*
X8315420Y-6861984D01*
X8315420Y-6861984D02*
X8277325Y-6861984D01*
X8277325Y-6861984D02*
X8258277Y-6852460D01*
X8258277Y-6852460D02*
X8248753Y-6833412D01*
X8248753Y-6833412D02*
X8248753Y-6757222D01*
X8248753Y-6757222D02*
X8258277Y-6738174D01*
X8258277Y-6738174D02*
X8277325Y-6728650D01*
X8277325Y-6728650D02*
X8315420Y-6728650D01*
X8315420Y-6728650D02*
X8334468Y-6738174D01*
X8334468Y-6738174D02*
X8343991Y-6757222D01*
X8343991Y-6757222D02*
X8343991Y-6776269D01*
X8343991Y-6776269D02*
X8248753Y-6795317D01*
X8410658Y-6938174D02*
X8420182Y-6928650D01*
X8420182Y-6928650D02*
X8439230Y-6900079D01*
X8439230Y-6900079D02*
X8448753Y-6881031D01*
X8448753Y-6881031D02*
X8458277Y-6852460D01*
X8458277Y-6852460D02*
X8467801Y-6804841D01*
X8467801Y-6804841D02*
X8467801Y-6766746D01*
X8467801Y-6766746D02*
X8458277Y-6719127D01*
X8458277Y-6719127D02*
X8448753Y-6690555D01*
X8448753Y-6690555D02*
X8439230Y-6671508D01*
X8439230Y-6671508D02*
X8420182Y-6642936D01*
X8420182Y-6642936D02*
X8410658Y-6633412D01*
D12*
X3785784Y-7062784D02*
X3785784Y-7006215D01*
X3729215Y-7006215D01*
X3729215Y-7062784D01*
X3785784Y-7062784D01*
D11*
X4096372Y-6925984D02*
X4115420Y-6925984D01*
X4115420Y-6925984D02*
X4134467Y-6935508D01*
X4134467Y-6935508D02*
X4143991Y-6945031D01*
X4143991Y-6945031D02*
X4153515Y-6964079D01*
X4153515Y-6964079D02*
X4163039Y-7002174D01*
X4163039Y-7002174D02*
X4163039Y-7049793D01*
X4163039Y-7049793D02*
X4153515Y-7087888D01*
X4153515Y-7087888D02*
X4143991Y-7106936D01*
X4143991Y-7106936D02*
X4134467Y-7116460D01*
X4134467Y-7116460D02*
X4115420Y-7125984D01*
X4115420Y-7125984D02*
X4096372Y-7125984D01*
X4096372Y-7125984D02*
X4077324Y-7116460D01*
X4077324Y-7116460D02*
X4067801Y-7106936D01*
X4067801Y-7106936D02*
X4058277Y-7087888D01*
X4058277Y-7087888D02*
X4048753Y-7049793D01*
X4048753Y-7049793D02*
X4048753Y-7002174D01*
X4048753Y-7002174D02*
X4058277Y-6964079D01*
X4058277Y-6964079D02*
X4067801Y-6945031D01*
X4067801Y-6945031D02*
X4077324Y-6935508D01*
X4077324Y-6935508D02*
X4096372Y-6925984D01*
X4248753Y-7106936D02*
X4258277Y-7116460D01*
X4258277Y-7116460D02*
X4248753Y-7125984D01*
X4248753Y-7125984D02*
X4239229Y-7116460D01*
X4239229Y-7116460D02*
X4248753Y-7106936D01*
X4248753Y-7106936D02*
X4248753Y-7125984D01*
X4372563Y-7011698D02*
X4353515Y-7002174D01*
X4353515Y-7002174D02*
X4343991Y-6992650D01*
X4343991Y-6992650D02*
X4334467Y-6973603D01*
X4334467Y-6973603D02*
X4334467Y-6964079D01*
X4334467Y-6964079D02*
X4343991Y-6945031D01*
X4343991Y-6945031D02*
X4353515Y-6935508D01*
X4353515Y-6935508D02*
X4372563Y-6925984D01*
X4372563Y-6925984D02*
X4410658Y-6925984D01*
X4410658Y-6925984D02*
X4429705Y-6935508D01*
X4429705Y-6935508D02*
X4439229Y-6945031D01*
X4439229Y-6945031D02*
X4448753Y-6964079D01*
X4448753Y-6964079D02*
X4448753Y-6973603D01*
X4448753Y-6973603D02*
X4439229Y-6992650D01*
X4439229Y-6992650D02*
X4429705Y-7002174D01*
X4429705Y-7002174D02*
X4410658Y-7011698D01*
X4410658Y-7011698D02*
X4372563Y-7011698D01*
X4372563Y-7011698D02*
X4353515Y-7021222D01*
X4353515Y-7021222D02*
X4343991Y-7030746D01*
X4343991Y-7030746D02*
X4334467Y-7049793D01*
X4334467Y-7049793D02*
X4334467Y-7087888D01*
X4334467Y-7087888D02*
X4343991Y-7106936D01*
X4343991Y-7106936D02*
X4353515Y-7116460D01*
X4353515Y-7116460D02*
X4372563Y-7125984D01*
X4372563Y-7125984D02*
X4410658Y-7125984D01*
X4410658Y-7125984D02*
X4429705Y-7116460D01*
X4429705Y-7116460D02*
X4439229Y-7106936D01*
X4439229Y-7106936D02*
X4448753Y-7087888D01*
X4448753Y-7087888D02*
X4448753Y-7049793D01*
X4448753Y-7049793D02*
X4439229Y-7030746D01*
X4439229Y-7030746D02*
X4429705Y-7021222D01*
X4429705Y-7021222D02*
X4410658Y-7011698D01*
X4572563Y-6925984D02*
X4591610Y-6925984D01*
X4591610Y-6925984D02*
X4610658Y-6935508D01*
X4610658Y-6935508D02*
X4620182Y-6945031D01*
X4620182Y-6945031D02*
X4629705Y-6964079D01*
X4629705Y-6964079D02*
X4639229Y-7002174D01*
X4639229Y-7002174D02*
X4639229Y-7049793D01*
X4639229Y-7049793D02*
X4629705Y-7087888D01*
X4629705Y-7087888D02*
X4620182Y-7106936D01*
X4620182Y-7106936D02*
X4610658Y-7116460D01*
X4610658Y-7116460D02*
X4591610Y-7125984D01*
X4591610Y-7125984D02*
X4572563Y-7125984D01*
X4572563Y-7125984D02*
X4553515Y-7116460D01*
X4553515Y-7116460D02*
X4543991Y-7106936D01*
X4543991Y-7106936D02*
X4534467Y-7087888D01*
X4534467Y-7087888D02*
X4524944Y-7049793D01*
X4524944Y-7049793D02*
X4524944Y-7002174D01*
X4524944Y-7002174D02*
X4534467Y-6964079D01*
X4534467Y-6964079D02*
X4543991Y-6945031D01*
X4543991Y-6945031D02*
X4553515Y-6935508D01*
X4553515Y-6935508D02*
X4572563Y-6925984D01*
X4763039Y-6925984D02*
X4782086Y-6925984D01*
X4782086Y-6925984D02*
X4801134Y-6935508D01*
X4801134Y-6935508D02*
X4810658Y-6945031D01*
X4810658Y-6945031D02*
X4820182Y-6964079D01*
X4820182Y-6964079D02*
X4829705Y-7002174D01*
X4829705Y-7002174D02*
X4829705Y-7049793D01*
X4829705Y-7049793D02*
X4820182Y-7087888D01*
X4820182Y-7087888D02*
X4810658Y-7106936D01*
X4810658Y-7106936D02*
X4801134Y-7116460D01*
X4801134Y-7116460D02*
X4782086Y-7125984D01*
X4782086Y-7125984D02*
X4763039Y-7125984D01*
X4763039Y-7125984D02*
X4743991Y-7116460D01*
X4743991Y-7116460D02*
X4734467Y-7106936D01*
X4734467Y-7106936D02*
X4724944Y-7087888D01*
X4724944Y-7087888D02*
X4715420Y-7049793D01*
X4715420Y-7049793D02*
X4715420Y-7002174D01*
X4715420Y-7002174D02*
X4724944Y-6964079D01*
X4724944Y-6964079D02*
X4734467Y-6945031D01*
X4734467Y-6945031D02*
X4743991Y-6935508D01*
X4743991Y-6935508D02*
X4763039Y-6925984D01*
X4915420Y-7125984D02*
X4915420Y-6992650D01*
X4915420Y-7011698D02*
X4924944Y-7002174D01*
X4924944Y-7002174D02*
X4943991Y-6992650D01*
X4943991Y-6992650D02*
X4972563Y-6992650D01*
X4972563Y-6992650D02*
X4991610Y-7002174D01*
X4991610Y-7002174D02*
X5001134Y-7021222D01*
X5001134Y-7021222D02*
X5001134Y-7125984D01*
X5001134Y-7021222D02*
X5010658Y-7002174D01*
X5010658Y-7002174D02*
X5029705Y-6992650D01*
X5029705Y-6992650D02*
X5058277Y-6992650D01*
X5058277Y-6992650D02*
X5077325Y-7002174D01*
X5077325Y-7002174D02*
X5086848Y-7021222D01*
X5086848Y-7021222D02*
X5086848Y-7125984D01*
X5182086Y-7125984D02*
X5182086Y-6992650D01*
X5182086Y-7011698D02*
X5191610Y-7002174D01*
X5191610Y-7002174D02*
X5210658Y-6992650D01*
X5210658Y-6992650D02*
X5239229Y-6992650D01*
X5239229Y-6992650D02*
X5258277Y-7002174D01*
X5258277Y-7002174D02*
X5267801Y-7021222D01*
X5267801Y-7021222D02*
X5267801Y-7125984D01*
X5267801Y-7021222D02*
X5277325Y-7002174D01*
X5277325Y-7002174D02*
X5296372Y-6992650D01*
X5296372Y-6992650D02*
X5324944Y-6992650D01*
X5324944Y-6992650D02*
X5343991Y-7002174D01*
X5343991Y-7002174D02*
X5353515Y-7021222D01*
X5353515Y-7021222D02*
X5353515Y-7125984D01*
X5743991Y-6916460D02*
X5572563Y-7173603D01*
X6001134Y-6925984D02*
X6020182Y-6925984D01*
X6020182Y-6925984D02*
X6039229Y-6935508D01*
X6039229Y-6935508D02*
X6048753Y-6945031D01*
X6048753Y-6945031D02*
X6058277Y-6964079D01*
X6058277Y-6964079D02*
X6067801Y-7002174D01*
X6067801Y-7002174D02*
X6067801Y-7049793D01*
X6067801Y-7049793D02*
X6058277Y-7087888D01*
X6058277Y-7087888D02*
X6048753Y-7106936D01*
X6048753Y-7106936D02*
X6039229Y-7116460D01*
X6039229Y-7116460D02*
X6020182Y-7125984D01*
X6020182Y-7125984D02*
X6001134Y-7125984D01*
X6001134Y-7125984D02*
X5982086Y-7116460D01*
X5982086Y-7116460D02*
X5972563Y-7106936D01*
X5972563Y-7106936D02*
X5963039Y-7087888D01*
X5963039Y-7087888D02*
X5953515Y-7049793D01*
X5953515Y-7049793D02*
X5953515Y-7002174D01*
X5953515Y-7002174D02*
X5963039Y-6964079D01*
X5963039Y-6964079D02*
X5972563Y-6945031D01*
X5972563Y-6945031D02*
X5982086Y-6935508D01*
X5982086Y-6935508D02*
X6001134Y-6925984D01*
X6153515Y-7106936D02*
X6163039Y-7116460D01*
X6163039Y-7116460D02*
X6153515Y-7125984D01*
X6153515Y-7125984D02*
X6143991Y-7116460D01*
X6143991Y-7116460D02*
X6153515Y-7106936D01*
X6153515Y-7106936D02*
X6153515Y-7125984D01*
X6286848Y-6925984D02*
X6305896Y-6925984D01*
X6305896Y-6925984D02*
X6324944Y-6935508D01*
X6324944Y-6935508D02*
X6334467Y-6945031D01*
X6334467Y-6945031D02*
X6343991Y-6964079D01*
X6343991Y-6964079D02*
X6353515Y-7002174D01*
X6353515Y-7002174D02*
X6353515Y-7049793D01*
X6353515Y-7049793D02*
X6343991Y-7087888D01*
X6343991Y-7087888D02*
X6334467Y-7106936D01*
X6334467Y-7106936D02*
X6324944Y-7116460D01*
X6324944Y-7116460D02*
X6305896Y-7125984D01*
X6305896Y-7125984D02*
X6286848Y-7125984D01*
X6286848Y-7125984D02*
X6267801Y-7116460D01*
X6267801Y-7116460D02*
X6258277Y-7106936D01*
X6258277Y-7106936D02*
X6248753Y-7087888D01*
X6248753Y-7087888D02*
X6239229Y-7049793D01*
X6239229Y-7049793D02*
X6239229Y-7002174D01*
X6239229Y-7002174D02*
X6248753Y-6964079D01*
X6248753Y-6964079D02*
X6258277Y-6945031D01*
X6258277Y-6945031D02*
X6267801Y-6935508D01*
X6267801Y-6935508D02*
X6286848Y-6925984D01*
X6420182Y-6925984D02*
X6543991Y-6925984D01*
X6543991Y-6925984D02*
X6477325Y-7002174D01*
X6477325Y-7002174D02*
X6505896Y-7002174D01*
X6505896Y-7002174D02*
X6524944Y-7011698D01*
X6524944Y-7011698D02*
X6534467Y-7021222D01*
X6534467Y-7021222D02*
X6543991Y-7040269D01*
X6543991Y-7040269D02*
X6543991Y-7087888D01*
X6543991Y-7087888D02*
X6534467Y-7106936D01*
X6534467Y-7106936D02*
X6524944Y-7116460D01*
X6524944Y-7116460D02*
X6505896Y-7125984D01*
X6505896Y-7125984D02*
X6448753Y-7125984D01*
X6448753Y-7125984D02*
X6429706Y-7116460D01*
X6429706Y-7116460D02*
X6420182Y-7106936D01*
X6734467Y-7125984D02*
X6620182Y-7125984D01*
X6677325Y-7125984D02*
X6677325Y-6925984D01*
X6677325Y-6925984D02*
X6658277Y-6954555D01*
X6658277Y-6954555D02*
X6639229Y-6973603D01*
X6639229Y-6973603D02*
X6620182Y-6983127D01*
X6915420Y-6925984D02*
X6820182Y-6925984D01*
X6820182Y-6925984D02*
X6810658Y-7021222D01*
X6810658Y-7021222D02*
X6820182Y-7011698D01*
X6820182Y-7011698D02*
X6839229Y-7002174D01*
X6839229Y-7002174D02*
X6886848Y-7002174D01*
X6886848Y-7002174D02*
X6905896Y-7011698D01*
X6905896Y-7011698D02*
X6915420Y-7021222D01*
X6915420Y-7021222D02*
X6924944Y-7040269D01*
X6924944Y-7040269D02*
X6924944Y-7087888D01*
X6924944Y-7087888D02*
X6915420Y-7106936D01*
X6915420Y-7106936D02*
X6905896Y-7116460D01*
X6905896Y-7116460D02*
X6886848Y-7125984D01*
X6886848Y-7125984D02*
X6839229Y-7125984D01*
X6839229Y-7125984D02*
X6820182Y-7116460D01*
X6820182Y-7116460D02*
X6810658Y-7106936D01*
X7001134Y-6925984D02*
X7001134Y-6964079D01*
X7077325Y-6925984D02*
X7077325Y-6964079D01*
X7372563Y-7202174D02*
X7363039Y-7192650D01*
X7363039Y-7192650D02*
X7343991Y-7164079D01*
X7343991Y-7164079D02*
X7334468Y-7145031D01*
X7334468Y-7145031D02*
X7324944Y-7116460D01*
X7324944Y-7116460D02*
X7315420Y-7068841D01*
X7315420Y-7068841D02*
X7315420Y-7030746D01*
X7315420Y-7030746D02*
X7324944Y-6983127D01*
X7324944Y-6983127D02*
X7334468Y-6954555D01*
X7334468Y-6954555D02*
X7343991Y-6935508D01*
X7343991Y-6935508D02*
X7363039Y-6906936D01*
X7363039Y-6906936D02*
X7372563Y-6897412D01*
X7429706Y-6925984D02*
X7563039Y-6925984D01*
X7563039Y-6925984D02*
X7477325Y-7125984D01*
X7791610Y-7125984D02*
X7791610Y-6925984D01*
X7877325Y-7125984D02*
X7877325Y-7021222D01*
X7877325Y-7021222D02*
X7867801Y-7002174D01*
X7867801Y-7002174D02*
X7848753Y-6992650D01*
X7848753Y-6992650D02*
X7820182Y-6992650D01*
X7820182Y-6992650D02*
X7801134Y-7002174D01*
X7801134Y-7002174D02*
X7791610Y-7011698D01*
X8001134Y-7125984D02*
X7982087Y-7116460D01*
X7982087Y-7116460D02*
X7972563Y-7106936D01*
X7972563Y-7106936D02*
X7963039Y-7087888D01*
X7963039Y-7087888D02*
X7963039Y-7030746D01*
X7963039Y-7030746D02*
X7972563Y-7011698D01*
X7972563Y-7011698D02*
X7982087Y-7002174D01*
X7982087Y-7002174D02*
X8001134Y-6992650D01*
X8001134Y-6992650D02*
X8029706Y-6992650D01*
X8029706Y-6992650D02*
X8048753Y-7002174D01*
X8048753Y-7002174D02*
X8058277Y-7011698D01*
X8058277Y-7011698D02*
X8067801Y-7030746D01*
X8067801Y-7030746D02*
X8067801Y-7087888D01*
X8067801Y-7087888D02*
X8058277Y-7106936D01*
X8058277Y-7106936D02*
X8048753Y-7116460D01*
X8048753Y-7116460D02*
X8029706Y-7125984D01*
X8029706Y-7125984D02*
X8001134Y-7125984D01*
X8182087Y-7125984D02*
X8163039Y-7116460D01*
X8163039Y-7116460D02*
X8153515Y-7097412D01*
X8153515Y-7097412D02*
X8153515Y-6925984D01*
X8334468Y-7116460D02*
X8315420Y-7125984D01*
X8315420Y-7125984D02*
X8277325Y-7125984D01*
X8277325Y-7125984D02*
X8258277Y-7116460D01*
X8258277Y-7116460D02*
X8248753Y-7097412D01*
X8248753Y-7097412D02*
X8248753Y-7021222D01*
X8248753Y-7021222D02*
X8258277Y-7002174D01*
X8258277Y-7002174D02*
X8277325Y-6992650D01*
X8277325Y-6992650D02*
X8315420Y-6992650D01*
X8315420Y-6992650D02*
X8334468Y-7002174D01*
X8334468Y-7002174D02*
X8343991Y-7021222D01*
X8343991Y-7021222D02*
X8343991Y-7040269D01*
X8343991Y-7040269D02*
X8248753Y-7059317D01*
X8420182Y-7116460D02*
X8439230Y-7125984D01*
X8439230Y-7125984D02*
X8477325Y-7125984D01*
X8477325Y-7125984D02*
X8496373Y-7116460D01*
X8496373Y-7116460D02*
X8505896Y-7097412D01*
X8505896Y-7097412D02*
X8505896Y-7087888D01*
X8505896Y-7087888D02*
X8496373Y-7068841D01*
X8496373Y-7068841D02*
X8477325Y-7059317D01*
X8477325Y-7059317D02*
X8448753Y-7059317D01*
X8448753Y-7059317D02*
X8429706Y-7049793D01*
X8429706Y-7049793D02*
X8420182Y-7030746D01*
X8420182Y-7030746D02*
X8420182Y-7021222D01*
X8420182Y-7021222D02*
X8429706Y-7002174D01*
X8429706Y-7002174D02*
X8448753Y-6992650D01*
X8448753Y-6992650D02*
X8477325Y-6992650D01*
X8477325Y-6992650D02*
X8496373Y-7002174D01*
X8572563Y-7202174D02*
X8582087Y-7192650D01*
X8582087Y-7192650D02*
X8601134Y-7164079D01*
X8601134Y-7164079D02*
X8610658Y-7145031D01*
X8610658Y-7145031D02*
X8620182Y-7116460D01*
X8620182Y-7116460D02*
X8629706Y-7068841D01*
X8629706Y-7068841D02*
X8629706Y-7030746D01*
X8629706Y-7030746D02*
X8620182Y-6983127D01*
X8620182Y-6983127D02*
X8610658Y-6954555D01*
X8610658Y-6954555D02*
X8601134Y-6935508D01*
X8601134Y-6935508D02*
X8582087Y-6906936D01*
X8582087Y-6906936D02*
X8572563Y-6897412D01*
D12*
X3752500Y-7343500D02*
X3797500Y-7298500D01*
X3752500Y-7253500D01*
X3707500Y-7298500D01*
X3752500Y-7343500D01*
D11*
X4096372Y-7189984D02*
X4115420Y-7189984D01*
X4115420Y-7189984D02*
X4134467Y-7199508D01*
X4134467Y-7199508D02*
X4143991Y-7209031D01*
X4143991Y-7209031D02*
X4153515Y-7228079D01*
X4153515Y-7228079D02*
X4163039Y-7266174D01*
X4163039Y-7266174D02*
X4163039Y-7313793D01*
X4163039Y-7313793D02*
X4153515Y-7351888D01*
X4153515Y-7351888D02*
X4143991Y-7370936D01*
X4143991Y-7370936D02*
X4134467Y-7380460D01*
X4134467Y-7380460D02*
X4115420Y-7389984D01*
X4115420Y-7389984D02*
X4096372Y-7389984D01*
X4096372Y-7389984D02*
X4077324Y-7380460D01*
X4077324Y-7380460D02*
X4067801Y-7370936D01*
X4067801Y-7370936D02*
X4058277Y-7351888D01*
X4058277Y-7351888D02*
X4048753Y-7313793D01*
X4048753Y-7313793D02*
X4048753Y-7266174D01*
X4048753Y-7266174D02*
X4058277Y-7228079D01*
X4058277Y-7228079D02*
X4067801Y-7209031D01*
X4067801Y-7209031D02*
X4077324Y-7199508D01*
X4077324Y-7199508D02*
X4096372Y-7189984D01*
X4248753Y-7370936D02*
X4258277Y-7380460D01*
X4258277Y-7380460D02*
X4248753Y-7389984D01*
X4248753Y-7389984D02*
X4239229Y-7380460D01*
X4239229Y-7380460D02*
X4248753Y-7370936D01*
X4248753Y-7370936D02*
X4248753Y-7389984D01*
X4353515Y-7389984D02*
X4391610Y-7389984D01*
X4391610Y-7389984D02*
X4410658Y-7380460D01*
X4410658Y-7380460D02*
X4420182Y-7370936D01*
X4420182Y-7370936D02*
X4439229Y-7342365D01*
X4439229Y-7342365D02*
X4448753Y-7304269D01*
X4448753Y-7304269D02*
X4448753Y-7228079D01*
X4448753Y-7228079D02*
X4439229Y-7209031D01*
X4439229Y-7209031D02*
X4429705Y-7199508D01*
X4429705Y-7199508D02*
X4410658Y-7189984D01*
X4410658Y-7189984D02*
X4372563Y-7189984D01*
X4372563Y-7189984D02*
X4353515Y-7199508D01*
X4353515Y-7199508D02*
X4343991Y-7209031D01*
X4343991Y-7209031D02*
X4334467Y-7228079D01*
X4334467Y-7228079D02*
X4334467Y-7275698D01*
X4334467Y-7275698D02*
X4343991Y-7294746D01*
X4343991Y-7294746D02*
X4353515Y-7304269D01*
X4353515Y-7304269D02*
X4372563Y-7313793D01*
X4372563Y-7313793D02*
X4410658Y-7313793D01*
X4410658Y-7313793D02*
X4429705Y-7304269D01*
X4429705Y-7304269D02*
X4439229Y-7294746D01*
X4439229Y-7294746D02*
X4448753Y-7275698D01*
X4572563Y-7189984D02*
X4591610Y-7189984D01*
X4591610Y-7189984D02*
X4610658Y-7199508D01*
X4610658Y-7199508D02*
X4620182Y-7209031D01*
X4620182Y-7209031D02*
X4629705Y-7228079D01*
X4629705Y-7228079D02*
X4639229Y-7266174D01*
X4639229Y-7266174D02*
X4639229Y-7313793D01*
X4639229Y-7313793D02*
X4629705Y-7351888D01*
X4629705Y-7351888D02*
X4620182Y-7370936D01*
X4620182Y-7370936D02*
X4610658Y-7380460D01*
X4610658Y-7380460D02*
X4591610Y-7389984D01*
X4591610Y-7389984D02*
X4572563Y-7389984D01*
X4572563Y-7389984D02*
X4553515Y-7380460D01*
X4553515Y-7380460D02*
X4543991Y-7370936D01*
X4543991Y-7370936D02*
X4534467Y-7351888D01*
X4534467Y-7351888D02*
X4524944Y-7313793D01*
X4524944Y-7313793D02*
X4524944Y-7266174D01*
X4524944Y-7266174D02*
X4534467Y-7228079D01*
X4534467Y-7228079D02*
X4543991Y-7209031D01*
X4543991Y-7209031D02*
X4553515Y-7199508D01*
X4553515Y-7199508D02*
X4572563Y-7189984D01*
X4763039Y-7189984D02*
X4782086Y-7189984D01*
X4782086Y-7189984D02*
X4801134Y-7199508D01*
X4801134Y-7199508D02*
X4810658Y-7209031D01*
X4810658Y-7209031D02*
X4820182Y-7228079D01*
X4820182Y-7228079D02*
X4829705Y-7266174D01*
X4829705Y-7266174D02*
X4829705Y-7313793D01*
X4829705Y-7313793D02*
X4820182Y-7351888D01*
X4820182Y-7351888D02*
X4810658Y-7370936D01*
X4810658Y-7370936D02*
X4801134Y-7380460D01*
X4801134Y-7380460D02*
X4782086Y-7389984D01*
X4782086Y-7389984D02*
X4763039Y-7389984D01*
X4763039Y-7389984D02*
X4743991Y-7380460D01*
X4743991Y-7380460D02*
X4734467Y-7370936D01*
X4734467Y-7370936D02*
X4724944Y-7351888D01*
X4724944Y-7351888D02*
X4715420Y-7313793D01*
X4715420Y-7313793D02*
X4715420Y-7266174D01*
X4715420Y-7266174D02*
X4724944Y-7228079D01*
X4724944Y-7228079D02*
X4734467Y-7209031D01*
X4734467Y-7209031D02*
X4743991Y-7199508D01*
X4743991Y-7199508D02*
X4763039Y-7189984D01*
X4915420Y-7389984D02*
X4915420Y-7256650D01*
X4915420Y-7275698D02*
X4924944Y-7266174D01*
X4924944Y-7266174D02*
X4943991Y-7256650D01*
X4943991Y-7256650D02*
X4972563Y-7256650D01*
X4972563Y-7256650D02*
X4991610Y-7266174D01*
X4991610Y-7266174D02*
X5001134Y-7285222D01*
X5001134Y-7285222D02*
X5001134Y-7389984D01*
X5001134Y-7285222D02*
X5010658Y-7266174D01*
X5010658Y-7266174D02*
X5029705Y-7256650D01*
X5029705Y-7256650D02*
X5058277Y-7256650D01*
X5058277Y-7256650D02*
X5077325Y-7266174D01*
X5077325Y-7266174D02*
X5086848Y-7285222D01*
X5086848Y-7285222D02*
X5086848Y-7389984D01*
X5182086Y-7389984D02*
X5182086Y-7256650D01*
X5182086Y-7275698D02*
X5191610Y-7266174D01*
X5191610Y-7266174D02*
X5210658Y-7256650D01*
X5210658Y-7256650D02*
X5239229Y-7256650D01*
X5239229Y-7256650D02*
X5258277Y-7266174D01*
X5258277Y-7266174D02*
X5267801Y-7285222D01*
X5267801Y-7285222D02*
X5267801Y-7389984D01*
X5267801Y-7285222D02*
X5277325Y-7266174D01*
X5277325Y-7266174D02*
X5296372Y-7256650D01*
X5296372Y-7256650D02*
X5324944Y-7256650D01*
X5324944Y-7256650D02*
X5343991Y-7266174D01*
X5343991Y-7266174D02*
X5353515Y-7285222D01*
X5353515Y-7285222D02*
X5353515Y-7389984D01*
X5743991Y-7180460D02*
X5572563Y-7437603D01*
X6001134Y-7189984D02*
X6020182Y-7189984D01*
X6020182Y-7189984D02*
X6039229Y-7199508D01*
X6039229Y-7199508D02*
X6048753Y-7209031D01*
X6048753Y-7209031D02*
X6058277Y-7228079D01*
X6058277Y-7228079D02*
X6067801Y-7266174D01*
X6067801Y-7266174D02*
X6067801Y-7313793D01*
X6067801Y-7313793D02*
X6058277Y-7351888D01*
X6058277Y-7351888D02*
X6048753Y-7370936D01*
X6048753Y-7370936D02*
X6039229Y-7380460D01*
X6039229Y-7380460D02*
X6020182Y-7389984D01*
X6020182Y-7389984D02*
X6001134Y-7389984D01*
X6001134Y-7389984D02*
X5982086Y-7380460D01*
X5982086Y-7380460D02*
X5972563Y-7370936D01*
X5972563Y-7370936D02*
X5963039Y-7351888D01*
X5963039Y-7351888D02*
X5953515Y-7313793D01*
X5953515Y-7313793D02*
X5953515Y-7266174D01*
X5953515Y-7266174D02*
X5963039Y-7228079D01*
X5963039Y-7228079D02*
X5972563Y-7209031D01*
X5972563Y-7209031D02*
X5982086Y-7199508D01*
X5982086Y-7199508D02*
X6001134Y-7189984D01*
X6153515Y-7370936D02*
X6163039Y-7380460D01*
X6163039Y-7380460D02*
X6153515Y-7389984D01*
X6153515Y-7389984D02*
X6143991Y-7380460D01*
X6143991Y-7380460D02*
X6153515Y-7370936D01*
X6153515Y-7370936D02*
X6153515Y-7389984D01*
X6286848Y-7189984D02*
X6305896Y-7189984D01*
X6305896Y-7189984D02*
X6324944Y-7199508D01*
X6324944Y-7199508D02*
X6334467Y-7209031D01*
X6334467Y-7209031D02*
X6343991Y-7228079D01*
X6343991Y-7228079D02*
X6353515Y-7266174D01*
X6353515Y-7266174D02*
X6353515Y-7313793D01*
X6353515Y-7313793D02*
X6343991Y-7351888D01*
X6343991Y-7351888D02*
X6334467Y-7370936D01*
X6334467Y-7370936D02*
X6324944Y-7380460D01*
X6324944Y-7380460D02*
X6305896Y-7389984D01*
X6305896Y-7389984D02*
X6286848Y-7389984D01*
X6286848Y-7389984D02*
X6267801Y-7380460D01*
X6267801Y-7380460D02*
X6258277Y-7370936D01*
X6258277Y-7370936D02*
X6248753Y-7351888D01*
X6248753Y-7351888D02*
X6239229Y-7313793D01*
X6239229Y-7313793D02*
X6239229Y-7266174D01*
X6239229Y-7266174D02*
X6248753Y-7228079D01*
X6248753Y-7228079D02*
X6258277Y-7209031D01*
X6258277Y-7209031D02*
X6267801Y-7199508D01*
X6267801Y-7199508D02*
X6286848Y-7189984D01*
X6420182Y-7189984D02*
X6543991Y-7189984D01*
X6543991Y-7189984D02*
X6477325Y-7266174D01*
X6477325Y-7266174D02*
X6505896Y-7266174D01*
X6505896Y-7266174D02*
X6524944Y-7275698D01*
X6524944Y-7275698D02*
X6534467Y-7285222D01*
X6534467Y-7285222D02*
X6543991Y-7304269D01*
X6543991Y-7304269D02*
X6543991Y-7351888D01*
X6543991Y-7351888D02*
X6534467Y-7370936D01*
X6534467Y-7370936D02*
X6524944Y-7380460D01*
X6524944Y-7380460D02*
X6505896Y-7389984D01*
X6505896Y-7389984D02*
X6448753Y-7389984D01*
X6448753Y-7389984D02*
X6429706Y-7380460D01*
X6429706Y-7380460D02*
X6420182Y-7370936D01*
X6724944Y-7189984D02*
X6629706Y-7189984D01*
X6629706Y-7189984D02*
X6620182Y-7285222D01*
X6620182Y-7285222D02*
X6629706Y-7275698D01*
X6629706Y-7275698D02*
X6648753Y-7266174D01*
X6648753Y-7266174D02*
X6696372Y-7266174D01*
X6696372Y-7266174D02*
X6715420Y-7275698D01*
X6715420Y-7275698D02*
X6724944Y-7285222D01*
X6724944Y-7285222D02*
X6734467Y-7304269D01*
X6734467Y-7304269D02*
X6734467Y-7351888D01*
X6734467Y-7351888D02*
X6724944Y-7370936D01*
X6724944Y-7370936D02*
X6715420Y-7380460D01*
X6715420Y-7380460D02*
X6696372Y-7389984D01*
X6696372Y-7389984D02*
X6648753Y-7389984D01*
X6648753Y-7389984D02*
X6629706Y-7380460D01*
X6629706Y-7380460D02*
X6620182Y-7370936D01*
X6905896Y-7256650D02*
X6905896Y-7389984D01*
X6858277Y-7180460D02*
X6810658Y-7323317D01*
X6810658Y-7323317D02*
X6934467Y-7323317D01*
X7001134Y-7189984D02*
X7001134Y-7228079D01*
X7077325Y-7189984D02*
X7077325Y-7228079D01*
X7372563Y-7466174D02*
X7363039Y-7456650D01*
X7363039Y-7456650D02*
X7343991Y-7428079D01*
X7343991Y-7428079D02*
X7334468Y-7409031D01*
X7334468Y-7409031D02*
X7324944Y-7380460D01*
X7324944Y-7380460D02*
X7315420Y-7332841D01*
X7315420Y-7332841D02*
X7315420Y-7294746D01*
X7315420Y-7294746D02*
X7324944Y-7247127D01*
X7324944Y-7247127D02*
X7334468Y-7218555D01*
X7334468Y-7218555D02*
X7343991Y-7199508D01*
X7343991Y-7199508D02*
X7363039Y-7170936D01*
X7363039Y-7170936D02*
X7372563Y-7161412D01*
X7553515Y-7389984D02*
X7439229Y-7389984D01*
X7496372Y-7389984D02*
X7496372Y-7189984D01*
X7496372Y-7189984D02*
X7477325Y-7218555D01*
X7477325Y-7218555D02*
X7458277Y-7237603D01*
X7458277Y-7237603D02*
X7439229Y-7247127D01*
X7677325Y-7189984D02*
X7696372Y-7189984D01*
X7696372Y-7189984D02*
X7715420Y-7199508D01*
X7715420Y-7199508D02*
X7724944Y-7209031D01*
X7724944Y-7209031D02*
X7734468Y-7228079D01*
X7734468Y-7228079D02*
X7743991Y-7266174D01*
X7743991Y-7266174D02*
X7743991Y-7313793D01*
X7743991Y-7313793D02*
X7734468Y-7351888D01*
X7734468Y-7351888D02*
X7724944Y-7370936D01*
X7724944Y-7370936D02*
X7715420Y-7380460D01*
X7715420Y-7380460D02*
X7696372Y-7389984D01*
X7696372Y-7389984D02*
X7677325Y-7389984D01*
X7677325Y-7389984D02*
X7658277Y-7380460D01*
X7658277Y-7380460D02*
X7648753Y-7370936D01*
X7648753Y-7370936D02*
X7639229Y-7351888D01*
X7639229Y-7351888D02*
X7629706Y-7313793D01*
X7629706Y-7313793D02*
X7629706Y-7266174D01*
X7629706Y-7266174D02*
X7639229Y-7228079D01*
X7639229Y-7228079D02*
X7648753Y-7209031D01*
X7648753Y-7209031D02*
X7658277Y-7199508D01*
X7658277Y-7199508D02*
X7677325Y-7189984D01*
X7982087Y-7389984D02*
X7982087Y-7189984D01*
X8067801Y-7389984D02*
X8067801Y-7285222D01*
X8067801Y-7285222D02*
X8058277Y-7266174D01*
X8058277Y-7266174D02*
X8039230Y-7256650D01*
X8039230Y-7256650D02*
X8010658Y-7256650D01*
X8010658Y-7256650D02*
X7991610Y-7266174D01*
X7991610Y-7266174D02*
X7982087Y-7275698D01*
X8191610Y-7389984D02*
X8172563Y-7380460D01*
X8172563Y-7380460D02*
X8163039Y-7370936D01*
X8163039Y-7370936D02*
X8153515Y-7351888D01*
X8153515Y-7351888D02*
X8153515Y-7294746D01*
X8153515Y-7294746D02*
X8163039Y-7275698D01*
X8163039Y-7275698D02*
X8172563Y-7266174D01*
X8172563Y-7266174D02*
X8191610Y-7256650D01*
X8191610Y-7256650D02*
X8220182Y-7256650D01*
X8220182Y-7256650D02*
X8239230Y-7266174D01*
X8239230Y-7266174D02*
X8248753Y-7275698D01*
X8248753Y-7275698D02*
X8258277Y-7294746D01*
X8258277Y-7294746D02*
X8258277Y-7351888D01*
X8258277Y-7351888D02*
X8248753Y-7370936D01*
X8248753Y-7370936D02*
X8239230Y-7380460D01*
X8239230Y-7380460D02*
X8220182Y-7389984D01*
X8220182Y-7389984D02*
X8191610Y-7389984D01*
X8372563Y-7389984D02*
X8353515Y-7380460D01*
X8353515Y-7380460D02*
X8343991Y-7361412D01*
X8343991Y-7361412D02*
X8343991Y-7189984D01*
X8524944Y-7380460D02*
X8505896Y-7389984D01*
X8505896Y-7389984D02*
X8467801Y-7389984D01*
X8467801Y-7389984D02*
X8448753Y-7380460D01*
X8448753Y-7380460D02*
X8439230Y-7361412D01*
X8439230Y-7361412D02*
X8439230Y-7285222D01*
X8439230Y-7285222D02*
X8448753Y-7266174D01*
X8448753Y-7266174D02*
X8467801Y-7256650D01*
X8467801Y-7256650D02*
X8505896Y-7256650D01*
X8505896Y-7256650D02*
X8524944Y-7266174D01*
X8524944Y-7266174D02*
X8534468Y-7285222D01*
X8534468Y-7285222D02*
X8534468Y-7304269D01*
X8534468Y-7304269D02*
X8439230Y-7323317D01*
X8610658Y-7380460D02*
X8629706Y-7389984D01*
X8629706Y-7389984D02*
X8667801Y-7389984D01*
X8667801Y-7389984D02*
X8686849Y-7380460D01*
X8686849Y-7380460D02*
X8696373Y-7361412D01*
X8696373Y-7361412D02*
X8696373Y-7351888D01*
X8696373Y-7351888D02*
X8686849Y-7332841D01*
X8686849Y-7332841D02*
X8667801Y-7323317D01*
X8667801Y-7323317D02*
X8639230Y-7323317D01*
X8639230Y-7323317D02*
X8620182Y-7313793D01*
X8620182Y-7313793D02*
X8610658Y-7294746D01*
X8610658Y-7294746D02*
X8610658Y-7285222D01*
X8610658Y-7285222D02*
X8620182Y-7266174D01*
X8620182Y-7266174D02*
X8639230Y-7256650D01*
X8639230Y-7256650D02*
X8667801Y-7256650D01*
X8667801Y-7256650D02*
X8686849Y-7266174D01*
X8763039Y-7466174D02*
X8772563Y-7456650D01*
X8772563Y-7456650D02*
X8791611Y-7428079D01*
X8791611Y-7428079D02*
X8801134Y-7409031D01*
X8801134Y-7409031D02*
X8810658Y-7380460D01*
X8810658Y-7380460D02*
X8820182Y-7332841D01*
X8820182Y-7332841D02*
X8820182Y-7294746D01*
X8820182Y-7294746D02*
X8810658Y-7247127D01*
X8810658Y-7247127D02*
X8801134Y-7218555D01*
X8801134Y-7218555D02*
X8791611Y-7199508D01*
X8791611Y-7199508D02*
X8772563Y-7170936D01*
X8772563Y-7170936D02*
X8763039Y-7161412D01*
D12*
X3702500Y-7515000D02*
X3797500Y-7610000D01*
X3797500Y-7515000D02*
X3702500Y-7610000D01*
X3797500Y-7562500D02*
G75*
G02*
X3702500Y-7562500I-47500J0D01*
G01*
X3702500Y-7562500D02*
G75*
G02*
X3797500Y-7562500I47500J0D01*
G01*
D11*
X4096372Y-7453984D02*
X4115420Y-7453984D01*
X4115420Y-7453984D02*
X4134467Y-7463508D01*
X4134467Y-7463508D02*
X4143991Y-7473031D01*
X4143991Y-7473031D02*
X4153515Y-7492079D01*
X4153515Y-7492079D02*
X4163039Y-7530174D01*
X4163039Y-7530174D02*
X4163039Y-7577793D01*
X4163039Y-7577793D02*
X4153515Y-7615888D01*
X4153515Y-7615888D02*
X4143991Y-7634936D01*
X4143991Y-7634936D02*
X4134467Y-7644460D01*
X4134467Y-7644460D02*
X4115420Y-7653984D01*
X4115420Y-7653984D02*
X4096372Y-7653984D01*
X4096372Y-7653984D02*
X4077324Y-7644460D01*
X4077324Y-7644460D02*
X4067801Y-7634936D01*
X4067801Y-7634936D02*
X4058277Y-7615888D01*
X4058277Y-7615888D02*
X4048753Y-7577793D01*
X4048753Y-7577793D02*
X4048753Y-7530174D01*
X4048753Y-7530174D02*
X4058277Y-7492079D01*
X4058277Y-7492079D02*
X4067801Y-7473031D01*
X4067801Y-7473031D02*
X4077324Y-7463508D01*
X4077324Y-7463508D02*
X4096372Y-7453984D01*
X4248753Y-7634936D02*
X4258277Y-7644460D01*
X4258277Y-7644460D02*
X4248753Y-7653984D01*
X4248753Y-7653984D02*
X4239229Y-7644460D01*
X4239229Y-7644460D02*
X4248753Y-7634936D01*
X4248753Y-7634936D02*
X4248753Y-7653984D01*
X4353515Y-7653984D02*
X4391610Y-7653984D01*
X4391610Y-7653984D02*
X4410658Y-7644460D01*
X4410658Y-7644460D02*
X4420182Y-7634936D01*
X4420182Y-7634936D02*
X4439229Y-7606365D01*
X4439229Y-7606365D02*
X4448753Y-7568269D01*
X4448753Y-7568269D02*
X4448753Y-7492079D01*
X4448753Y-7492079D02*
X4439229Y-7473031D01*
X4439229Y-7473031D02*
X4429705Y-7463508D01*
X4429705Y-7463508D02*
X4410658Y-7453984D01*
X4410658Y-7453984D02*
X4372563Y-7453984D01*
X4372563Y-7453984D02*
X4353515Y-7463508D01*
X4353515Y-7463508D02*
X4343991Y-7473031D01*
X4343991Y-7473031D02*
X4334467Y-7492079D01*
X4334467Y-7492079D02*
X4334467Y-7539698D01*
X4334467Y-7539698D02*
X4343991Y-7558746D01*
X4343991Y-7558746D02*
X4353515Y-7568269D01*
X4353515Y-7568269D02*
X4372563Y-7577793D01*
X4372563Y-7577793D02*
X4410658Y-7577793D01*
X4410658Y-7577793D02*
X4429705Y-7568269D01*
X4429705Y-7568269D02*
X4439229Y-7558746D01*
X4439229Y-7558746D02*
X4448753Y-7539698D01*
X4629705Y-7453984D02*
X4534467Y-7453984D01*
X4534467Y-7453984D02*
X4524944Y-7549222D01*
X4524944Y-7549222D02*
X4534467Y-7539698D01*
X4534467Y-7539698D02*
X4553515Y-7530174D01*
X4553515Y-7530174D02*
X4601134Y-7530174D01*
X4601134Y-7530174D02*
X4620182Y-7539698D01*
X4620182Y-7539698D02*
X4629705Y-7549222D01*
X4629705Y-7549222D02*
X4639229Y-7568269D01*
X4639229Y-7568269D02*
X4639229Y-7615888D01*
X4639229Y-7615888D02*
X4629705Y-7634936D01*
X4629705Y-7634936D02*
X4620182Y-7644460D01*
X4620182Y-7644460D02*
X4601134Y-7653984D01*
X4601134Y-7653984D02*
X4553515Y-7653984D01*
X4553515Y-7653984D02*
X4534467Y-7644460D01*
X4534467Y-7644460D02*
X4524944Y-7634936D01*
X4763039Y-7453984D02*
X4782086Y-7453984D01*
X4782086Y-7453984D02*
X4801134Y-7463508D01*
X4801134Y-7463508D02*
X4810658Y-7473031D01*
X4810658Y-7473031D02*
X4820182Y-7492079D01*
X4820182Y-7492079D02*
X4829705Y-7530174D01*
X4829705Y-7530174D02*
X4829705Y-7577793D01*
X4829705Y-7577793D02*
X4820182Y-7615888D01*
X4820182Y-7615888D02*
X4810658Y-7634936D01*
X4810658Y-7634936D02*
X4801134Y-7644460D01*
X4801134Y-7644460D02*
X4782086Y-7653984D01*
X4782086Y-7653984D02*
X4763039Y-7653984D01*
X4763039Y-7653984D02*
X4743991Y-7644460D01*
X4743991Y-7644460D02*
X4734467Y-7634936D01*
X4734467Y-7634936D02*
X4724944Y-7615888D01*
X4724944Y-7615888D02*
X4715420Y-7577793D01*
X4715420Y-7577793D02*
X4715420Y-7530174D01*
X4715420Y-7530174D02*
X4724944Y-7492079D01*
X4724944Y-7492079D02*
X4734467Y-7473031D01*
X4734467Y-7473031D02*
X4743991Y-7463508D01*
X4743991Y-7463508D02*
X4763039Y-7453984D01*
X4915420Y-7653984D02*
X4915420Y-7520650D01*
X4915420Y-7539698D02*
X4924944Y-7530174D01*
X4924944Y-7530174D02*
X4943991Y-7520650D01*
X4943991Y-7520650D02*
X4972563Y-7520650D01*
X4972563Y-7520650D02*
X4991610Y-7530174D01*
X4991610Y-7530174D02*
X5001134Y-7549222D01*
X5001134Y-7549222D02*
X5001134Y-7653984D01*
X5001134Y-7549222D02*
X5010658Y-7530174D01*
X5010658Y-7530174D02*
X5029705Y-7520650D01*
X5029705Y-7520650D02*
X5058277Y-7520650D01*
X5058277Y-7520650D02*
X5077325Y-7530174D01*
X5077325Y-7530174D02*
X5086848Y-7549222D01*
X5086848Y-7549222D02*
X5086848Y-7653984D01*
X5182086Y-7653984D02*
X5182086Y-7520650D01*
X5182086Y-7539698D02*
X5191610Y-7530174D01*
X5191610Y-7530174D02*
X5210658Y-7520650D01*
X5210658Y-7520650D02*
X5239229Y-7520650D01*
X5239229Y-7520650D02*
X5258277Y-7530174D01*
X5258277Y-7530174D02*
X5267801Y-7549222D01*
X5267801Y-7549222D02*
X5267801Y-7653984D01*
X5267801Y-7549222D02*
X5277325Y-7530174D01*
X5277325Y-7530174D02*
X5296372Y-7520650D01*
X5296372Y-7520650D02*
X5324944Y-7520650D01*
X5324944Y-7520650D02*
X5343991Y-7530174D01*
X5343991Y-7530174D02*
X5353515Y-7549222D01*
X5353515Y-7549222D02*
X5353515Y-7653984D01*
X5743991Y-7444460D02*
X5572563Y-7701603D01*
X6001134Y-7453984D02*
X6020182Y-7453984D01*
X6020182Y-7453984D02*
X6039229Y-7463508D01*
X6039229Y-7463508D02*
X6048753Y-7473031D01*
X6048753Y-7473031D02*
X6058277Y-7492079D01*
X6058277Y-7492079D02*
X6067801Y-7530174D01*
X6067801Y-7530174D02*
X6067801Y-7577793D01*
X6067801Y-7577793D02*
X6058277Y-7615888D01*
X6058277Y-7615888D02*
X6048753Y-7634936D01*
X6048753Y-7634936D02*
X6039229Y-7644460D01*
X6039229Y-7644460D02*
X6020182Y-7653984D01*
X6020182Y-7653984D02*
X6001134Y-7653984D01*
X6001134Y-7653984D02*
X5982086Y-7644460D01*
X5982086Y-7644460D02*
X5972563Y-7634936D01*
X5972563Y-7634936D02*
X5963039Y-7615888D01*
X5963039Y-7615888D02*
X5953515Y-7577793D01*
X5953515Y-7577793D02*
X5953515Y-7530174D01*
X5953515Y-7530174D02*
X5963039Y-7492079D01*
X5963039Y-7492079D02*
X5972563Y-7473031D01*
X5972563Y-7473031D02*
X5982086Y-7463508D01*
X5982086Y-7463508D02*
X6001134Y-7453984D01*
X6153515Y-7634936D02*
X6163039Y-7644460D01*
X6163039Y-7644460D02*
X6153515Y-7653984D01*
X6153515Y-7653984D02*
X6143991Y-7644460D01*
X6143991Y-7644460D02*
X6153515Y-7634936D01*
X6153515Y-7634936D02*
X6153515Y-7653984D01*
X6286848Y-7453984D02*
X6305896Y-7453984D01*
X6305896Y-7453984D02*
X6324944Y-7463508D01*
X6324944Y-7463508D02*
X6334467Y-7473031D01*
X6334467Y-7473031D02*
X6343991Y-7492079D01*
X6343991Y-7492079D02*
X6353515Y-7530174D01*
X6353515Y-7530174D02*
X6353515Y-7577793D01*
X6353515Y-7577793D02*
X6343991Y-7615888D01*
X6343991Y-7615888D02*
X6334467Y-7634936D01*
X6334467Y-7634936D02*
X6324944Y-7644460D01*
X6324944Y-7644460D02*
X6305896Y-7653984D01*
X6305896Y-7653984D02*
X6286848Y-7653984D01*
X6286848Y-7653984D02*
X6267801Y-7644460D01*
X6267801Y-7644460D02*
X6258277Y-7634936D01*
X6258277Y-7634936D02*
X6248753Y-7615888D01*
X6248753Y-7615888D02*
X6239229Y-7577793D01*
X6239229Y-7577793D02*
X6239229Y-7530174D01*
X6239229Y-7530174D02*
X6248753Y-7492079D01*
X6248753Y-7492079D02*
X6258277Y-7473031D01*
X6258277Y-7473031D02*
X6267801Y-7463508D01*
X6267801Y-7463508D02*
X6286848Y-7453984D01*
X6420182Y-7453984D02*
X6543991Y-7453984D01*
X6543991Y-7453984D02*
X6477325Y-7530174D01*
X6477325Y-7530174D02*
X6505896Y-7530174D01*
X6505896Y-7530174D02*
X6524944Y-7539698D01*
X6524944Y-7539698D02*
X6534467Y-7549222D01*
X6534467Y-7549222D02*
X6543991Y-7568269D01*
X6543991Y-7568269D02*
X6543991Y-7615888D01*
X6543991Y-7615888D02*
X6534467Y-7634936D01*
X6534467Y-7634936D02*
X6524944Y-7644460D01*
X6524944Y-7644460D02*
X6505896Y-7653984D01*
X6505896Y-7653984D02*
X6448753Y-7653984D01*
X6448753Y-7653984D02*
X6429706Y-7644460D01*
X6429706Y-7644460D02*
X6420182Y-7634936D01*
X6610658Y-7453984D02*
X6743991Y-7453984D01*
X6743991Y-7453984D02*
X6658277Y-7653984D01*
X6905896Y-7520650D02*
X6905896Y-7653984D01*
X6858277Y-7444460D02*
X6810658Y-7587317D01*
X6810658Y-7587317D02*
X6934467Y-7587317D01*
X7001134Y-7453984D02*
X7001134Y-7492079D01*
X7077325Y-7453984D02*
X7077325Y-7492079D01*
X7372563Y-7730174D02*
X7363039Y-7720650D01*
X7363039Y-7720650D02*
X7343991Y-7692079D01*
X7343991Y-7692079D02*
X7334468Y-7673031D01*
X7334468Y-7673031D02*
X7324944Y-7644460D01*
X7324944Y-7644460D02*
X7315420Y-7596841D01*
X7315420Y-7596841D02*
X7315420Y-7558746D01*
X7315420Y-7558746D02*
X7324944Y-7511127D01*
X7324944Y-7511127D02*
X7334468Y-7482555D01*
X7334468Y-7482555D02*
X7343991Y-7463508D01*
X7343991Y-7463508D02*
X7363039Y-7434936D01*
X7363039Y-7434936D02*
X7372563Y-7425412D01*
X7553515Y-7653984D02*
X7439229Y-7653984D01*
X7496372Y-7653984D02*
X7496372Y-7453984D01*
X7496372Y-7453984D02*
X7477325Y-7482555D01*
X7477325Y-7482555D02*
X7458277Y-7501603D01*
X7458277Y-7501603D02*
X7439229Y-7511127D01*
X7724944Y-7453984D02*
X7686848Y-7453984D01*
X7686848Y-7453984D02*
X7667801Y-7463508D01*
X7667801Y-7463508D02*
X7658277Y-7473031D01*
X7658277Y-7473031D02*
X7639229Y-7501603D01*
X7639229Y-7501603D02*
X7629706Y-7539698D01*
X7629706Y-7539698D02*
X7629706Y-7615888D01*
X7629706Y-7615888D02*
X7639229Y-7634936D01*
X7639229Y-7634936D02*
X7648753Y-7644460D01*
X7648753Y-7644460D02*
X7667801Y-7653984D01*
X7667801Y-7653984D02*
X7705896Y-7653984D01*
X7705896Y-7653984D02*
X7724944Y-7644460D01*
X7724944Y-7644460D02*
X7734468Y-7634936D01*
X7734468Y-7634936D02*
X7743991Y-7615888D01*
X7743991Y-7615888D02*
X7743991Y-7568269D01*
X7743991Y-7568269D02*
X7734468Y-7549222D01*
X7734468Y-7549222D02*
X7724944Y-7539698D01*
X7724944Y-7539698D02*
X7705896Y-7530174D01*
X7705896Y-7530174D02*
X7667801Y-7530174D01*
X7667801Y-7530174D02*
X7648753Y-7539698D01*
X7648753Y-7539698D02*
X7639229Y-7549222D01*
X7639229Y-7549222D02*
X7629706Y-7568269D01*
X7982087Y-7653984D02*
X7982087Y-7453984D01*
X8067801Y-7653984D02*
X8067801Y-7549222D01*
X8067801Y-7549222D02*
X8058277Y-7530174D01*
X8058277Y-7530174D02*
X8039230Y-7520650D01*
X8039230Y-7520650D02*
X8010658Y-7520650D01*
X8010658Y-7520650D02*
X7991610Y-7530174D01*
X7991610Y-7530174D02*
X7982087Y-7539698D01*
X8191610Y-7653984D02*
X8172563Y-7644460D01*
X8172563Y-7644460D02*
X8163039Y-7634936D01*
X8163039Y-7634936D02*
X8153515Y-7615888D01*
X8153515Y-7615888D02*
X8153515Y-7558746D01*
X8153515Y-7558746D02*
X8163039Y-7539698D01*
X8163039Y-7539698D02*
X8172563Y-7530174D01*
X8172563Y-7530174D02*
X8191610Y-7520650D01*
X8191610Y-7520650D02*
X8220182Y-7520650D01*
X8220182Y-7520650D02*
X8239230Y-7530174D01*
X8239230Y-7530174D02*
X8248753Y-7539698D01*
X8248753Y-7539698D02*
X8258277Y-7558746D01*
X8258277Y-7558746D02*
X8258277Y-7615888D01*
X8258277Y-7615888D02*
X8248753Y-7634936D01*
X8248753Y-7634936D02*
X8239230Y-7644460D01*
X8239230Y-7644460D02*
X8220182Y-7653984D01*
X8220182Y-7653984D02*
X8191610Y-7653984D01*
X8372563Y-7653984D02*
X8353515Y-7644460D01*
X8353515Y-7644460D02*
X8343991Y-7625412D01*
X8343991Y-7625412D02*
X8343991Y-7453984D01*
X8524944Y-7644460D02*
X8505896Y-7653984D01*
X8505896Y-7653984D02*
X8467801Y-7653984D01*
X8467801Y-7653984D02*
X8448753Y-7644460D01*
X8448753Y-7644460D02*
X8439230Y-7625412D01*
X8439230Y-7625412D02*
X8439230Y-7549222D01*
X8439230Y-7549222D02*
X8448753Y-7530174D01*
X8448753Y-7530174D02*
X8467801Y-7520650D01*
X8467801Y-7520650D02*
X8505896Y-7520650D01*
X8505896Y-7520650D02*
X8524944Y-7530174D01*
X8524944Y-7530174D02*
X8534468Y-7549222D01*
X8534468Y-7549222D02*
X8534468Y-7568269D01*
X8534468Y-7568269D02*
X8439230Y-7587317D01*
X8610658Y-7644460D02*
X8629706Y-7653984D01*
X8629706Y-7653984D02*
X8667801Y-7653984D01*
X8667801Y-7653984D02*
X8686849Y-7644460D01*
X8686849Y-7644460D02*
X8696373Y-7625412D01*
X8696373Y-7625412D02*
X8696373Y-7615888D01*
X8696373Y-7615888D02*
X8686849Y-7596841D01*
X8686849Y-7596841D02*
X8667801Y-7587317D01*
X8667801Y-7587317D02*
X8639230Y-7587317D01*
X8639230Y-7587317D02*
X8620182Y-7577793D01*
X8620182Y-7577793D02*
X8610658Y-7558746D01*
X8610658Y-7558746D02*
X8610658Y-7549222D01*
X8610658Y-7549222D02*
X8620182Y-7530174D01*
X8620182Y-7530174D02*
X8639230Y-7520650D01*
X8639230Y-7520650D02*
X8667801Y-7520650D01*
X8667801Y-7520650D02*
X8686849Y-7530174D01*
X8763039Y-7730174D02*
X8772563Y-7720650D01*
X8772563Y-7720650D02*
X8791611Y-7692079D01*
X8791611Y-7692079D02*
X8801134Y-7673031D01*
X8801134Y-7673031D02*
X8810658Y-7644460D01*
X8810658Y-7644460D02*
X8820182Y-7596841D01*
X8820182Y-7596841D02*
X8820182Y-7558746D01*
X8820182Y-7558746D02*
X8810658Y-7511127D01*
X8810658Y-7511127D02*
X8801134Y-7482555D01*
X8801134Y-7482555D02*
X8791611Y-7463508D01*
X8791611Y-7463508D02*
X8772563Y-7434936D01*
X8772563Y-7434936D02*
X8763039Y-7425412D01*
D12*
X3697500Y-7776500D02*
X3797500Y-7876500D01*
X3797500Y-7776500D02*
X3697500Y-7876500D01*
X3747500Y-7776500D02*
X3747500Y-7876500D01*
X3697500Y-7826500D02*
X3797500Y-7826500D01*
D11*
X4163039Y-7917984D02*
X4048753Y-7917984D01*
X4105896Y-7917984D02*
X4105896Y-7717984D01*
X4105896Y-7717984D02*
X4086848Y-7746555D01*
X4086848Y-7746555D02*
X4067801Y-7765603D01*
X4067801Y-7765603D02*
X4048753Y-7775127D01*
X4248753Y-7898936D02*
X4258277Y-7908460D01*
X4258277Y-7908460D02*
X4248753Y-7917984D01*
X4248753Y-7917984D02*
X4239229Y-7908460D01*
X4239229Y-7908460D02*
X4248753Y-7898936D01*
X4248753Y-7898936D02*
X4248753Y-7917984D01*
X4382086Y-7717984D02*
X4401134Y-7717984D01*
X4401134Y-7717984D02*
X4420182Y-7727508D01*
X4420182Y-7727508D02*
X4429705Y-7737031D01*
X4429705Y-7737031D02*
X4439229Y-7756079D01*
X4439229Y-7756079D02*
X4448753Y-7794174D01*
X4448753Y-7794174D02*
X4448753Y-7841793D01*
X4448753Y-7841793D02*
X4439229Y-7879888D01*
X4439229Y-7879888D02*
X4429705Y-7898936D01*
X4429705Y-7898936D02*
X4420182Y-7908460D01*
X4420182Y-7908460D02*
X4401134Y-7917984D01*
X4401134Y-7917984D02*
X4382086Y-7917984D01*
X4382086Y-7917984D02*
X4363039Y-7908460D01*
X4363039Y-7908460D02*
X4353515Y-7898936D01*
X4353515Y-7898936D02*
X4343991Y-7879888D01*
X4343991Y-7879888D02*
X4334467Y-7841793D01*
X4334467Y-7841793D02*
X4334467Y-7794174D01*
X4334467Y-7794174D02*
X4343991Y-7756079D01*
X4343991Y-7756079D02*
X4353515Y-7737031D01*
X4353515Y-7737031D02*
X4363039Y-7727508D01*
X4363039Y-7727508D02*
X4382086Y-7717984D01*
X4572563Y-7717984D02*
X4591610Y-7717984D01*
X4591610Y-7717984D02*
X4610658Y-7727508D01*
X4610658Y-7727508D02*
X4620182Y-7737031D01*
X4620182Y-7737031D02*
X4629705Y-7756079D01*
X4629705Y-7756079D02*
X4639229Y-7794174D01*
X4639229Y-7794174D02*
X4639229Y-7841793D01*
X4639229Y-7841793D02*
X4629705Y-7879888D01*
X4629705Y-7879888D02*
X4620182Y-7898936D01*
X4620182Y-7898936D02*
X4610658Y-7908460D01*
X4610658Y-7908460D02*
X4591610Y-7917984D01*
X4591610Y-7917984D02*
X4572563Y-7917984D01*
X4572563Y-7917984D02*
X4553515Y-7908460D01*
X4553515Y-7908460D02*
X4543991Y-7898936D01*
X4543991Y-7898936D02*
X4534467Y-7879888D01*
X4534467Y-7879888D02*
X4524944Y-7841793D01*
X4524944Y-7841793D02*
X4524944Y-7794174D01*
X4524944Y-7794174D02*
X4534467Y-7756079D01*
X4534467Y-7756079D02*
X4543991Y-7737031D01*
X4543991Y-7737031D02*
X4553515Y-7727508D01*
X4553515Y-7727508D02*
X4572563Y-7717984D01*
X4763039Y-7717984D02*
X4782086Y-7717984D01*
X4782086Y-7717984D02*
X4801134Y-7727508D01*
X4801134Y-7727508D02*
X4810658Y-7737031D01*
X4810658Y-7737031D02*
X4820182Y-7756079D01*
X4820182Y-7756079D02*
X4829705Y-7794174D01*
X4829705Y-7794174D02*
X4829705Y-7841793D01*
X4829705Y-7841793D02*
X4820182Y-7879888D01*
X4820182Y-7879888D02*
X4810658Y-7898936D01*
X4810658Y-7898936D02*
X4801134Y-7908460D01*
X4801134Y-7908460D02*
X4782086Y-7917984D01*
X4782086Y-7917984D02*
X4763039Y-7917984D01*
X4763039Y-7917984D02*
X4743991Y-7908460D01*
X4743991Y-7908460D02*
X4734467Y-7898936D01*
X4734467Y-7898936D02*
X4724944Y-7879888D01*
X4724944Y-7879888D02*
X4715420Y-7841793D01*
X4715420Y-7841793D02*
X4715420Y-7794174D01*
X4715420Y-7794174D02*
X4724944Y-7756079D01*
X4724944Y-7756079D02*
X4734467Y-7737031D01*
X4734467Y-7737031D02*
X4743991Y-7727508D01*
X4743991Y-7727508D02*
X4763039Y-7717984D01*
X4915420Y-7917984D02*
X4915420Y-7784650D01*
X4915420Y-7803698D02*
X4924944Y-7794174D01*
X4924944Y-7794174D02*
X4943991Y-7784650D01*
X4943991Y-7784650D02*
X4972563Y-7784650D01*
X4972563Y-7784650D02*
X4991610Y-7794174D01*
X4991610Y-7794174D02*
X5001134Y-7813222D01*
X5001134Y-7813222D02*
X5001134Y-7917984D01*
X5001134Y-7813222D02*
X5010658Y-7794174D01*
X5010658Y-7794174D02*
X5029705Y-7784650D01*
X5029705Y-7784650D02*
X5058277Y-7784650D01*
X5058277Y-7784650D02*
X5077325Y-7794174D01*
X5077325Y-7794174D02*
X5086848Y-7813222D01*
X5086848Y-7813222D02*
X5086848Y-7917984D01*
X5182086Y-7917984D02*
X5182086Y-7784650D01*
X5182086Y-7803698D02*
X5191610Y-7794174D01*
X5191610Y-7794174D02*
X5210658Y-7784650D01*
X5210658Y-7784650D02*
X5239229Y-7784650D01*
X5239229Y-7784650D02*
X5258277Y-7794174D01*
X5258277Y-7794174D02*
X5267801Y-7813222D01*
X5267801Y-7813222D02*
X5267801Y-7917984D01*
X5267801Y-7813222D02*
X5277325Y-7794174D01*
X5277325Y-7794174D02*
X5296372Y-7784650D01*
X5296372Y-7784650D02*
X5324944Y-7784650D01*
X5324944Y-7784650D02*
X5343991Y-7794174D01*
X5343991Y-7794174D02*
X5353515Y-7813222D01*
X5353515Y-7813222D02*
X5353515Y-7917984D01*
X5743991Y-7708460D02*
X5572563Y-7965603D01*
X6001134Y-7717984D02*
X6020182Y-7717984D01*
X6020182Y-7717984D02*
X6039229Y-7727508D01*
X6039229Y-7727508D02*
X6048753Y-7737031D01*
X6048753Y-7737031D02*
X6058277Y-7756079D01*
X6058277Y-7756079D02*
X6067801Y-7794174D01*
X6067801Y-7794174D02*
X6067801Y-7841793D01*
X6067801Y-7841793D02*
X6058277Y-7879888D01*
X6058277Y-7879888D02*
X6048753Y-7898936D01*
X6048753Y-7898936D02*
X6039229Y-7908460D01*
X6039229Y-7908460D02*
X6020182Y-7917984D01*
X6020182Y-7917984D02*
X6001134Y-7917984D01*
X6001134Y-7917984D02*
X5982086Y-7908460D01*
X5982086Y-7908460D02*
X5972563Y-7898936D01*
X5972563Y-7898936D02*
X5963039Y-7879888D01*
X5963039Y-7879888D02*
X5953515Y-7841793D01*
X5953515Y-7841793D02*
X5953515Y-7794174D01*
X5953515Y-7794174D02*
X5963039Y-7756079D01*
X5963039Y-7756079D02*
X5972563Y-7737031D01*
X5972563Y-7737031D02*
X5982086Y-7727508D01*
X5982086Y-7727508D02*
X6001134Y-7717984D01*
X6153515Y-7898936D02*
X6163039Y-7908460D01*
X6163039Y-7908460D02*
X6153515Y-7917984D01*
X6153515Y-7917984D02*
X6143991Y-7908460D01*
X6143991Y-7908460D02*
X6153515Y-7898936D01*
X6153515Y-7898936D02*
X6153515Y-7917984D01*
X6286848Y-7717984D02*
X6305896Y-7717984D01*
X6305896Y-7717984D02*
X6324944Y-7727508D01*
X6324944Y-7727508D02*
X6334467Y-7737031D01*
X6334467Y-7737031D02*
X6343991Y-7756079D01*
X6343991Y-7756079D02*
X6353515Y-7794174D01*
X6353515Y-7794174D02*
X6353515Y-7841793D01*
X6353515Y-7841793D02*
X6343991Y-7879888D01*
X6343991Y-7879888D02*
X6334467Y-7898936D01*
X6334467Y-7898936D02*
X6324944Y-7908460D01*
X6324944Y-7908460D02*
X6305896Y-7917984D01*
X6305896Y-7917984D02*
X6286848Y-7917984D01*
X6286848Y-7917984D02*
X6267801Y-7908460D01*
X6267801Y-7908460D02*
X6258277Y-7898936D01*
X6258277Y-7898936D02*
X6248753Y-7879888D01*
X6248753Y-7879888D02*
X6239229Y-7841793D01*
X6239229Y-7841793D02*
X6239229Y-7794174D01*
X6239229Y-7794174D02*
X6248753Y-7756079D01*
X6248753Y-7756079D02*
X6258277Y-7737031D01*
X6258277Y-7737031D02*
X6267801Y-7727508D01*
X6267801Y-7727508D02*
X6286848Y-7717984D01*
X6420182Y-7717984D02*
X6543991Y-7717984D01*
X6543991Y-7717984D02*
X6477325Y-7794174D01*
X6477325Y-7794174D02*
X6505896Y-7794174D01*
X6505896Y-7794174D02*
X6524944Y-7803698D01*
X6524944Y-7803698D02*
X6534467Y-7813222D01*
X6534467Y-7813222D02*
X6543991Y-7832269D01*
X6543991Y-7832269D02*
X6543991Y-7879888D01*
X6543991Y-7879888D02*
X6534467Y-7898936D01*
X6534467Y-7898936D02*
X6524944Y-7908460D01*
X6524944Y-7908460D02*
X6505896Y-7917984D01*
X6505896Y-7917984D02*
X6448753Y-7917984D01*
X6448753Y-7917984D02*
X6429706Y-7908460D01*
X6429706Y-7908460D02*
X6420182Y-7898936D01*
X6639229Y-7917984D02*
X6677325Y-7917984D01*
X6677325Y-7917984D02*
X6696372Y-7908460D01*
X6696372Y-7908460D02*
X6705896Y-7898936D01*
X6705896Y-7898936D02*
X6724944Y-7870365D01*
X6724944Y-7870365D02*
X6734467Y-7832269D01*
X6734467Y-7832269D02*
X6734467Y-7756079D01*
X6734467Y-7756079D02*
X6724944Y-7737031D01*
X6724944Y-7737031D02*
X6715420Y-7727508D01*
X6715420Y-7727508D02*
X6696372Y-7717984D01*
X6696372Y-7717984D02*
X6658277Y-7717984D01*
X6658277Y-7717984D02*
X6639229Y-7727508D01*
X6639229Y-7727508D02*
X6629706Y-7737031D01*
X6629706Y-7737031D02*
X6620182Y-7756079D01*
X6620182Y-7756079D02*
X6620182Y-7803698D01*
X6620182Y-7803698D02*
X6629706Y-7822746D01*
X6629706Y-7822746D02*
X6639229Y-7832269D01*
X6639229Y-7832269D02*
X6658277Y-7841793D01*
X6658277Y-7841793D02*
X6696372Y-7841793D01*
X6696372Y-7841793D02*
X6715420Y-7832269D01*
X6715420Y-7832269D02*
X6724944Y-7822746D01*
X6724944Y-7822746D02*
X6734467Y-7803698D01*
X6905896Y-7784650D02*
X6905896Y-7917984D01*
X6858277Y-7708460D02*
X6810658Y-7851317D01*
X6810658Y-7851317D02*
X6934467Y-7851317D01*
X7001134Y-7717984D02*
X7001134Y-7756079D01*
X7077325Y-7717984D02*
X7077325Y-7756079D01*
X7372563Y-7994174D02*
X7363039Y-7984650D01*
X7363039Y-7984650D02*
X7343991Y-7956079D01*
X7343991Y-7956079D02*
X7334468Y-7937031D01*
X7334468Y-7937031D02*
X7324944Y-7908460D01*
X7324944Y-7908460D02*
X7315420Y-7860841D01*
X7315420Y-7860841D02*
X7315420Y-7822746D01*
X7315420Y-7822746D02*
X7324944Y-7775127D01*
X7324944Y-7775127D02*
X7334468Y-7746555D01*
X7334468Y-7746555D02*
X7343991Y-7727508D01*
X7343991Y-7727508D02*
X7363039Y-7698936D01*
X7363039Y-7698936D02*
X7372563Y-7689412D01*
X7553515Y-7917984D02*
X7439229Y-7917984D01*
X7496372Y-7917984D02*
X7496372Y-7717984D01*
X7496372Y-7717984D02*
X7477325Y-7746555D01*
X7477325Y-7746555D02*
X7458277Y-7765603D01*
X7458277Y-7765603D02*
X7439229Y-7775127D01*
X7648753Y-7917984D02*
X7686848Y-7917984D01*
X7686848Y-7917984D02*
X7705896Y-7908460D01*
X7705896Y-7908460D02*
X7715420Y-7898936D01*
X7715420Y-7898936D02*
X7734468Y-7870365D01*
X7734468Y-7870365D02*
X7743991Y-7832269D01*
X7743991Y-7832269D02*
X7743991Y-7756079D01*
X7743991Y-7756079D02*
X7734468Y-7737031D01*
X7734468Y-7737031D02*
X7724944Y-7727508D01*
X7724944Y-7727508D02*
X7705896Y-7717984D01*
X7705896Y-7717984D02*
X7667801Y-7717984D01*
X7667801Y-7717984D02*
X7648753Y-7727508D01*
X7648753Y-7727508D02*
X7639229Y-7737031D01*
X7639229Y-7737031D02*
X7629706Y-7756079D01*
X7629706Y-7756079D02*
X7629706Y-7803698D01*
X7629706Y-7803698D02*
X7639229Y-7822746D01*
X7639229Y-7822746D02*
X7648753Y-7832269D01*
X7648753Y-7832269D02*
X7667801Y-7841793D01*
X7667801Y-7841793D02*
X7705896Y-7841793D01*
X7705896Y-7841793D02*
X7724944Y-7832269D01*
X7724944Y-7832269D02*
X7734468Y-7822746D01*
X7734468Y-7822746D02*
X7743991Y-7803698D01*
X7982087Y-7917984D02*
X7982087Y-7717984D01*
X8067801Y-7917984D02*
X8067801Y-7813222D01*
X8067801Y-7813222D02*
X8058277Y-7794174D01*
X8058277Y-7794174D02*
X8039230Y-7784650D01*
X8039230Y-7784650D02*
X8010658Y-7784650D01*
X8010658Y-7784650D02*
X7991610Y-7794174D01*
X7991610Y-7794174D02*
X7982087Y-7803698D01*
X8191610Y-7917984D02*
X8172563Y-7908460D01*
X8172563Y-7908460D02*
X8163039Y-7898936D01*
X8163039Y-7898936D02*
X8153515Y-7879888D01*
X8153515Y-7879888D02*
X8153515Y-7822746D01*
X8153515Y-7822746D02*
X8163039Y-7803698D01*
X8163039Y-7803698D02*
X8172563Y-7794174D01*
X8172563Y-7794174D02*
X8191610Y-7784650D01*
X8191610Y-7784650D02*
X8220182Y-7784650D01*
X8220182Y-7784650D02*
X8239230Y-7794174D01*
X8239230Y-7794174D02*
X8248753Y-7803698D01*
X8248753Y-7803698D02*
X8258277Y-7822746D01*
X8258277Y-7822746D02*
X8258277Y-7879888D01*
X8258277Y-7879888D02*
X8248753Y-7898936D01*
X8248753Y-7898936D02*
X8239230Y-7908460D01*
X8239230Y-7908460D02*
X8220182Y-7917984D01*
X8220182Y-7917984D02*
X8191610Y-7917984D01*
X8372563Y-7917984D02*
X8353515Y-7908460D01*
X8353515Y-7908460D02*
X8343991Y-7889412D01*
X8343991Y-7889412D02*
X8343991Y-7717984D01*
X8524944Y-7908460D02*
X8505896Y-7917984D01*
X8505896Y-7917984D02*
X8467801Y-7917984D01*
X8467801Y-7917984D02*
X8448753Y-7908460D01*
X8448753Y-7908460D02*
X8439230Y-7889412D01*
X8439230Y-7889412D02*
X8439230Y-7813222D01*
X8439230Y-7813222D02*
X8448753Y-7794174D01*
X8448753Y-7794174D02*
X8467801Y-7784650D01*
X8467801Y-7784650D02*
X8505896Y-7784650D01*
X8505896Y-7784650D02*
X8524944Y-7794174D01*
X8524944Y-7794174D02*
X8534468Y-7813222D01*
X8534468Y-7813222D02*
X8534468Y-7832269D01*
X8534468Y-7832269D02*
X8439230Y-7851317D01*
X8610658Y-7908460D02*
X8629706Y-7917984D01*
X8629706Y-7917984D02*
X8667801Y-7917984D01*
X8667801Y-7917984D02*
X8686849Y-7908460D01*
X8686849Y-7908460D02*
X8696373Y-7889412D01*
X8696373Y-7889412D02*
X8696373Y-7879888D01*
X8696373Y-7879888D02*
X8686849Y-7860841D01*
X8686849Y-7860841D02*
X8667801Y-7851317D01*
X8667801Y-7851317D02*
X8639230Y-7851317D01*
X8639230Y-7851317D02*
X8620182Y-7841793D01*
X8620182Y-7841793D02*
X8610658Y-7822746D01*
X8610658Y-7822746D02*
X8610658Y-7813222D01*
X8610658Y-7813222D02*
X8620182Y-7794174D01*
X8620182Y-7794174D02*
X8639230Y-7784650D01*
X8639230Y-7784650D02*
X8667801Y-7784650D01*
X8667801Y-7784650D02*
X8686849Y-7794174D01*
X8763039Y-7994174D02*
X8772563Y-7984650D01*
X8772563Y-7984650D02*
X8791611Y-7956079D01*
X8791611Y-7956079D02*
X8801134Y-7937031D01*
X8801134Y-7937031D02*
X8810658Y-7908460D01*
X8810658Y-7908460D02*
X8820182Y-7860841D01*
X8820182Y-7860841D02*
X8820182Y-7822746D01*
X8820182Y-7822746D02*
X8810658Y-7775127D01*
X8810658Y-7775127D02*
X8801134Y-7746555D01*
X8801134Y-7746555D02*
X8791611Y-7727508D01*
X8791611Y-7727508D02*
X8772563Y-7698936D01*
X8772563Y-7698936D02*
X8763039Y-7689412D01*
M02*
