%TF.GenerationSoftware,KiCad,Pcbnew,8.0.6-8.0.6-0~ubuntu24.04.1*%
%TF.CreationDate,2024-10-25T11:14:09+03:00*%
%TF.ProjectId,pss_v2,7073735f-7632-42e6-9b69-6361645f7063,rev?*%
%TF.SameCoordinates,Original*%
%TF.FileFunction,Drillmap*%
%TF.FilePolarity,Positive*%
%FSLAX45Y45*%
G04 Gerber Fmt 4.5, Leading zero omitted, Abs format (unit mm)*
G04 Created by KiCad (PCBNEW 8.0.6-8.0.6-0~ubuntu24.04.1) date 2024-10-25 11:14:09*
%MOMM*%
%LPD*%
G01*
G04 APERTURE LIST*
%ADD10C,0.050000*%
%ADD11C,0.200000*%
%ADD12C,0.220000*%
G04 APERTURE END LIST*
D10*
X3800000Y-1900000D02*
X12100000Y-1900000D01*
X12100000Y-5600000D01*
X3800000Y-5600000D01*
X3800000Y-1900000D01*
D11*
D12*
X6040000Y-2190000D02*
X6260000Y-2410000D01*
X6260000Y-2190000D02*
X6040000Y-2410000D01*
X10390000Y-4340000D02*
X10610000Y-4560000D01*
X10610000Y-4340000D02*
X10390000Y-4560000D01*
X11390000Y-3640000D02*
X11610000Y-3860000D01*
X11610000Y-3640000D02*
X11390000Y-3860000D01*
D11*
X4058277Y-5913984D02*
X4058277Y-5713984D01*
X4058277Y-5713984D02*
X4105896Y-5713984D01*
X4105896Y-5713984D02*
X4134467Y-5723508D01*
X4134467Y-5723508D02*
X4153515Y-5742555D01*
X4153515Y-5742555D02*
X4163039Y-5761603D01*
X4163039Y-5761603D02*
X4172562Y-5799698D01*
X4172562Y-5799698D02*
X4172562Y-5828269D01*
X4172562Y-5828269D02*
X4163039Y-5866365D01*
X4163039Y-5866365D02*
X4153515Y-5885412D01*
X4153515Y-5885412D02*
X4134467Y-5904460D01*
X4134467Y-5904460D02*
X4105896Y-5913984D01*
X4105896Y-5913984D02*
X4058277Y-5913984D01*
X4258277Y-5913984D02*
X4258277Y-5780650D01*
X4258277Y-5818746D02*
X4267801Y-5799698D01*
X4267801Y-5799698D02*
X4277324Y-5790174D01*
X4277324Y-5790174D02*
X4296372Y-5780650D01*
X4296372Y-5780650D02*
X4315420Y-5780650D01*
X4382086Y-5913984D02*
X4382086Y-5780650D01*
X4382086Y-5713984D02*
X4372563Y-5723508D01*
X4372563Y-5723508D02*
X4382086Y-5733031D01*
X4382086Y-5733031D02*
X4391610Y-5723508D01*
X4391610Y-5723508D02*
X4382086Y-5713984D01*
X4382086Y-5713984D02*
X4382086Y-5733031D01*
X4505896Y-5913984D02*
X4486848Y-5904460D01*
X4486848Y-5904460D02*
X4477324Y-5885412D01*
X4477324Y-5885412D02*
X4477324Y-5713984D01*
X4610658Y-5913984D02*
X4591610Y-5904460D01*
X4591610Y-5904460D02*
X4582086Y-5885412D01*
X4582086Y-5885412D02*
X4582086Y-5713984D01*
X4839229Y-5913984D02*
X4839229Y-5713984D01*
X4839229Y-5713984D02*
X4905896Y-5856841D01*
X4905896Y-5856841D02*
X4972563Y-5713984D01*
X4972563Y-5713984D02*
X4972563Y-5913984D01*
X5153515Y-5913984D02*
X5153515Y-5809222D01*
X5153515Y-5809222D02*
X5143991Y-5790174D01*
X5143991Y-5790174D02*
X5124944Y-5780650D01*
X5124944Y-5780650D02*
X5086848Y-5780650D01*
X5086848Y-5780650D02*
X5067801Y-5790174D01*
X5153515Y-5904460D02*
X5134467Y-5913984D01*
X5134467Y-5913984D02*
X5086848Y-5913984D01*
X5086848Y-5913984D02*
X5067801Y-5904460D01*
X5067801Y-5904460D02*
X5058277Y-5885412D01*
X5058277Y-5885412D02*
X5058277Y-5866365D01*
X5058277Y-5866365D02*
X5067801Y-5847317D01*
X5067801Y-5847317D02*
X5086848Y-5837793D01*
X5086848Y-5837793D02*
X5134467Y-5837793D01*
X5134467Y-5837793D02*
X5153515Y-5828269D01*
X5248753Y-5780650D02*
X5248753Y-5980650D01*
X5248753Y-5790174D02*
X5267801Y-5780650D01*
X5267801Y-5780650D02*
X5305896Y-5780650D01*
X5305896Y-5780650D02*
X5324944Y-5790174D01*
X5324944Y-5790174D02*
X5334467Y-5799698D01*
X5334467Y-5799698D02*
X5343991Y-5818746D01*
X5343991Y-5818746D02*
X5343991Y-5875888D01*
X5343991Y-5875888D02*
X5334467Y-5894936D01*
X5334467Y-5894936D02*
X5324944Y-5904460D01*
X5324944Y-5904460D02*
X5305896Y-5913984D01*
X5305896Y-5913984D02*
X5267801Y-5913984D01*
X5267801Y-5913984D02*
X5248753Y-5904460D01*
X5429705Y-5894936D02*
X5439229Y-5904460D01*
X5439229Y-5904460D02*
X5429705Y-5913984D01*
X5429705Y-5913984D02*
X5420182Y-5904460D01*
X5420182Y-5904460D02*
X5429705Y-5894936D01*
X5429705Y-5894936D02*
X5429705Y-5913984D01*
X5429705Y-5790174D02*
X5439229Y-5799698D01*
X5439229Y-5799698D02*
X5429705Y-5809222D01*
X5429705Y-5809222D02*
X5420182Y-5799698D01*
X5420182Y-5799698D02*
X5429705Y-5790174D01*
X5429705Y-5790174D02*
X5429705Y-5809222D01*
X3597500Y-6142500D02*
X3797500Y-6342500D01*
X3797500Y-6142500D02*
X3597500Y-6342500D01*
X4048753Y-6153031D02*
X4058277Y-6143508D01*
X4058277Y-6143508D02*
X4077324Y-6133984D01*
X4077324Y-6133984D02*
X4124943Y-6133984D01*
X4124943Y-6133984D02*
X4143991Y-6143508D01*
X4143991Y-6143508D02*
X4153515Y-6153031D01*
X4153515Y-6153031D02*
X4163039Y-6172079D01*
X4163039Y-6172079D02*
X4163039Y-6191127D01*
X4163039Y-6191127D02*
X4153515Y-6219698D01*
X4153515Y-6219698D02*
X4039229Y-6333984D01*
X4039229Y-6333984D02*
X4163039Y-6333984D01*
X4248753Y-6314936D02*
X4258277Y-6324460D01*
X4258277Y-6324460D02*
X4248753Y-6333984D01*
X4248753Y-6333984D02*
X4239229Y-6324460D01*
X4239229Y-6324460D02*
X4248753Y-6314936D01*
X4248753Y-6314936D02*
X4248753Y-6333984D01*
X4334467Y-6153031D02*
X4343991Y-6143508D01*
X4343991Y-6143508D02*
X4363039Y-6133984D01*
X4363039Y-6133984D02*
X4410658Y-6133984D01*
X4410658Y-6133984D02*
X4429705Y-6143508D01*
X4429705Y-6143508D02*
X4439229Y-6153031D01*
X4439229Y-6153031D02*
X4448753Y-6172079D01*
X4448753Y-6172079D02*
X4448753Y-6191127D01*
X4448753Y-6191127D02*
X4439229Y-6219698D01*
X4439229Y-6219698D02*
X4324944Y-6333984D01*
X4324944Y-6333984D02*
X4448753Y-6333984D01*
X4572563Y-6133984D02*
X4591610Y-6133984D01*
X4591610Y-6133984D02*
X4610658Y-6143508D01*
X4610658Y-6143508D02*
X4620182Y-6153031D01*
X4620182Y-6153031D02*
X4629705Y-6172079D01*
X4629705Y-6172079D02*
X4639229Y-6210174D01*
X4639229Y-6210174D02*
X4639229Y-6257793D01*
X4639229Y-6257793D02*
X4629705Y-6295888D01*
X4629705Y-6295888D02*
X4620182Y-6314936D01*
X4620182Y-6314936D02*
X4610658Y-6324460D01*
X4610658Y-6324460D02*
X4591610Y-6333984D01*
X4591610Y-6333984D02*
X4572563Y-6333984D01*
X4572563Y-6333984D02*
X4553515Y-6324460D01*
X4553515Y-6324460D02*
X4543991Y-6314936D01*
X4543991Y-6314936D02*
X4534467Y-6295888D01*
X4534467Y-6295888D02*
X4524944Y-6257793D01*
X4524944Y-6257793D02*
X4524944Y-6210174D01*
X4524944Y-6210174D02*
X4534467Y-6172079D01*
X4534467Y-6172079D02*
X4543991Y-6153031D01*
X4543991Y-6153031D02*
X4553515Y-6143508D01*
X4553515Y-6143508D02*
X4572563Y-6133984D01*
X4763039Y-6133984D02*
X4782086Y-6133984D01*
X4782086Y-6133984D02*
X4801134Y-6143508D01*
X4801134Y-6143508D02*
X4810658Y-6153031D01*
X4810658Y-6153031D02*
X4820182Y-6172079D01*
X4820182Y-6172079D02*
X4829705Y-6210174D01*
X4829705Y-6210174D02*
X4829705Y-6257793D01*
X4829705Y-6257793D02*
X4820182Y-6295888D01*
X4820182Y-6295888D02*
X4810658Y-6314936D01*
X4810658Y-6314936D02*
X4801134Y-6324460D01*
X4801134Y-6324460D02*
X4782086Y-6333984D01*
X4782086Y-6333984D02*
X4763039Y-6333984D01*
X4763039Y-6333984D02*
X4743991Y-6324460D01*
X4743991Y-6324460D02*
X4734467Y-6314936D01*
X4734467Y-6314936D02*
X4724944Y-6295888D01*
X4724944Y-6295888D02*
X4715420Y-6257793D01*
X4715420Y-6257793D02*
X4715420Y-6210174D01*
X4715420Y-6210174D02*
X4724944Y-6172079D01*
X4724944Y-6172079D02*
X4734467Y-6153031D01*
X4734467Y-6153031D02*
X4743991Y-6143508D01*
X4743991Y-6143508D02*
X4763039Y-6133984D01*
X4915420Y-6333984D02*
X4915420Y-6200650D01*
X4915420Y-6219698D02*
X4924944Y-6210174D01*
X4924944Y-6210174D02*
X4943991Y-6200650D01*
X4943991Y-6200650D02*
X4972563Y-6200650D01*
X4972563Y-6200650D02*
X4991610Y-6210174D01*
X4991610Y-6210174D02*
X5001134Y-6229222D01*
X5001134Y-6229222D02*
X5001134Y-6333984D01*
X5001134Y-6229222D02*
X5010658Y-6210174D01*
X5010658Y-6210174D02*
X5029705Y-6200650D01*
X5029705Y-6200650D02*
X5058277Y-6200650D01*
X5058277Y-6200650D02*
X5077325Y-6210174D01*
X5077325Y-6210174D02*
X5086848Y-6229222D01*
X5086848Y-6229222D02*
X5086848Y-6333984D01*
X5182086Y-6333984D02*
X5182086Y-6200650D01*
X5182086Y-6219698D02*
X5191610Y-6210174D01*
X5191610Y-6210174D02*
X5210658Y-6200650D01*
X5210658Y-6200650D02*
X5239229Y-6200650D01*
X5239229Y-6200650D02*
X5258277Y-6210174D01*
X5258277Y-6210174D02*
X5267801Y-6229222D01*
X5267801Y-6229222D02*
X5267801Y-6333984D01*
X5267801Y-6229222D02*
X5277325Y-6210174D01*
X5277325Y-6210174D02*
X5296372Y-6200650D01*
X5296372Y-6200650D02*
X5324944Y-6200650D01*
X5324944Y-6200650D02*
X5343991Y-6210174D01*
X5343991Y-6210174D02*
X5353515Y-6229222D01*
X5353515Y-6229222D02*
X5353515Y-6333984D01*
X5743991Y-6124460D02*
X5572563Y-6381603D01*
X6001134Y-6133984D02*
X6020182Y-6133984D01*
X6020182Y-6133984D02*
X6039229Y-6143508D01*
X6039229Y-6143508D02*
X6048753Y-6153031D01*
X6048753Y-6153031D02*
X6058277Y-6172079D01*
X6058277Y-6172079D02*
X6067801Y-6210174D01*
X6067801Y-6210174D02*
X6067801Y-6257793D01*
X6067801Y-6257793D02*
X6058277Y-6295888D01*
X6058277Y-6295888D02*
X6048753Y-6314936D01*
X6048753Y-6314936D02*
X6039229Y-6324460D01*
X6039229Y-6324460D02*
X6020182Y-6333984D01*
X6020182Y-6333984D02*
X6001134Y-6333984D01*
X6001134Y-6333984D02*
X5982086Y-6324460D01*
X5982086Y-6324460D02*
X5972563Y-6314936D01*
X5972563Y-6314936D02*
X5963039Y-6295888D01*
X5963039Y-6295888D02*
X5953515Y-6257793D01*
X5953515Y-6257793D02*
X5953515Y-6210174D01*
X5953515Y-6210174D02*
X5963039Y-6172079D01*
X5963039Y-6172079D02*
X5972563Y-6153031D01*
X5972563Y-6153031D02*
X5982086Y-6143508D01*
X5982086Y-6143508D02*
X6001134Y-6133984D01*
X6153515Y-6314936D02*
X6163039Y-6324460D01*
X6163039Y-6324460D02*
X6153515Y-6333984D01*
X6153515Y-6333984D02*
X6143991Y-6324460D01*
X6143991Y-6324460D02*
X6153515Y-6314936D01*
X6153515Y-6314936D02*
X6153515Y-6333984D01*
X6286848Y-6133984D02*
X6305896Y-6133984D01*
X6305896Y-6133984D02*
X6324944Y-6143508D01*
X6324944Y-6143508D02*
X6334467Y-6153031D01*
X6334467Y-6153031D02*
X6343991Y-6172079D01*
X6343991Y-6172079D02*
X6353515Y-6210174D01*
X6353515Y-6210174D02*
X6353515Y-6257793D01*
X6353515Y-6257793D02*
X6343991Y-6295888D01*
X6343991Y-6295888D02*
X6334467Y-6314936D01*
X6334467Y-6314936D02*
X6324944Y-6324460D01*
X6324944Y-6324460D02*
X6305896Y-6333984D01*
X6305896Y-6333984D02*
X6286848Y-6333984D01*
X6286848Y-6333984D02*
X6267801Y-6324460D01*
X6267801Y-6324460D02*
X6258277Y-6314936D01*
X6258277Y-6314936D02*
X6248753Y-6295888D01*
X6248753Y-6295888D02*
X6239229Y-6257793D01*
X6239229Y-6257793D02*
X6239229Y-6210174D01*
X6239229Y-6210174D02*
X6248753Y-6172079D01*
X6248753Y-6172079D02*
X6258277Y-6153031D01*
X6258277Y-6153031D02*
X6267801Y-6143508D01*
X6267801Y-6143508D02*
X6286848Y-6133984D01*
X6467801Y-6219698D02*
X6448753Y-6210174D01*
X6448753Y-6210174D02*
X6439229Y-6200650D01*
X6439229Y-6200650D02*
X6429706Y-6181603D01*
X6429706Y-6181603D02*
X6429706Y-6172079D01*
X6429706Y-6172079D02*
X6439229Y-6153031D01*
X6439229Y-6153031D02*
X6448753Y-6143508D01*
X6448753Y-6143508D02*
X6467801Y-6133984D01*
X6467801Y-6133984D02*
X6505896Y-6133984D01*
X6505896Y-6133984D02*
X6524944Y-6143508D01*
X6524944Y-6143508D02*
X6534467Y-6153031D01*
X6534467Y-6153031D02*
X6543991Y-6172079D01*
X6543991Y-6172079D02*
X6543991Y-6181603D01*
X6543991Y-6181603D02*
X6534467Y-6200650D01*
X6534467Y-6200650D02*
X6524944Y-6210174D01*
X6524944Y-6210174D02*
X6505896Y-6219698D01*
X6505896Y-6219698D02*
X6467801Y-6219698D01*
X6467801Y-6219698D02*
X6448753Y-6229222D01*
X6448753Y-6229222D02*
X6439229Y-6238746D01*
X6439229Y-6238746D02*
X6429706Y-6257793D01*
X6429706Y-6257793D02*
X6429706Y-6295888D01*
X6429706Y-6295888D02*
X6439229Y-6314936D01*
X6439229Y-6314936D02*
X6448753Y-6324460D01*
X6448753Y-6324460D02*
X6467801Y-6333984D01*
X6467801Y-6333984D02*
X6505896Y-6333984D01*
X6505896Y-6333984D02*
X6524944Y-6324460D01*
X6524944Y-6324460D02*
X6534467Y-6314936D01*
X6534467Y-6314936D02*
X6543991Y-6295888D01*
X6543991Y-6295888D02*
X6543991Y-6257793D01*
X6543991Y-6257793D02*
X6534467Y-6238746D01*
X6534467Y-6238746D02*
X6524944Y-6229222D01*
X6524944Y-6229222D02*
X6505896Y-6219698D01*
X6715420Y-6133984D02*
X6677325Y-6133984D01*
X6677325Y-6133984D02*
X6658277Y-6143508D01*
X6658277Y-6143508D02*
X6648753Y-6153031D01*
X6648753Y-6153031D02*
X6629706Y-6181603D01*
X6629706Y-6181603D02*
X6620182Y-6219698D01*
X6620182Y-6219698D02*
X6620182Y-6295888D01*
X6620182Y-6295888D02*
X6629706Y-6314936D01*
X6629706Y-6314936D02*
X6639229Y-6324460D01*
X6639229Y-6324460D02*
X6658277Y-6333984D01*
X6658277Y-6333984D02*
X6696372Y-6333984D01*
X6696372Y-6333984D02*
X6715420Y-6324460D01*
X6715420Y-6324460D02*
X6724944Y-6314936D01*
X6724944Y-6314936D02*
X6734467Y-6295888D01*
X6734467Y-6295888D02*
X6734467Y-6248269D01*
X6734467Y-6248269D02*
X6724944Y-6229222D01*
X6724944Y-6229222D02*
X6715420Y-6219698D01*
X6715420Y-6219698D02*
X6696372Y-6210174D01*
X6696372Y-6210174D02*
X6658277Y-6210174D01*
X6658277Y-6210174D02*
X6639229Y-6219698D01*
X6639229Y-6219698D02*
X6629706Y-6229222D01*
X6629706Y-6229222D02*
X6620182Y-6248269D01*
X6905896Y-6133984D02*
X6867801Y-6133984D01*
X6867801Y-6133984D02*
X6848753Y-6143508D01*
X6848753Y-6143508D02*
X6839229Y-6153031D01*
X6839229Y-6153031D02*
X6820182Y-6181603D01*
X6820182Y-6181603D02*
X6810658Y-6219698D01*
X6810658Y-6219698D02*
X6810658Y-6295888D01*
X6810658Y-6295888D02*
X6820182Y-6314936D01*
X6820182Y-6314936D02*
X6829706Y-6324460D01*
X6829706Y-6324460D02*
X6848753Y-6333984D01*
X6848753Y-6333984D02*
X6886848Y-6333984D01*
X6886848Y-6333984D02*
X6905896Y-6324460D01*
X6905896Y-6324460D02*
X6915420Y-6314936D01*
X6915420Y-6314936D02*
X6924944Y-6295888D01*
X6924944Y-6295888D02*
X6924944Y-6248269D01*
X6924944Y-6248269D02*
X6915420Y-6229222D01*
X6915420Y-6229222D02*
X6905896Y-6219698D01*
X6905896Y-6219698D02*
X6886848Y-6210174D01*
X6886848Y-6210174D02*
X6848753Y-6210174D01*
X6848753Y-6210174D02*
X6829706Y-6219698D01*
X6829706Y-6219698D02*
X6820182Y-6229222D01*
X6820182Y-6229222D02*
X6810658Y-6248269D01*
X7001134Y-6133984D02*
X7001134Y-6172079D01*
X7077325Y-6133984D02*
X7077325Y-6172079D01*
X7372563Y-6410174D02*
X7363039Y-6400650D01*
X7363039Y-6400650D02*
X7343991Y-6372079D01*
X7343991Y-6372079D02*
X7334468Y-6353031D01*
X7334468Y-6353031D02*
X7324944Y-6324460D01*
X7324944Y-6324460D02*
X7315420Y-6276841D01*
X7315420Y-6276841D02*
X7315420Y-6238746D01*
X7315420Y-6238746D02*
X7324944Y-6191127D01*
X7324944Y-6191127D02*
X7334468Y-6162555D01*
X7334468Y-6162555D02*
X7343991Y-6143508D01*
X7343991Y-6143508D02*
X7363039Y-6114936D01*
X7363039Y-6114936D02*
X7372563Y-6105412D01*
X7429706Y-6133984D02*
X7553515Y-6133984D01*
X7553515Y-6133984D02*
X7486848Y-6210174D01*
X7486848Y-6210174D02*
X7515420Y-6210174D01*
X7515420Y-6210174D02*
X7534468Y-6219698D01*
X7534468Y-6219698D02*
X7543991Y-6229222D01*
X7543991Y-6229222D02*
X7553515Y-6248269D01*
X7553515Y-6248269D02*
X7553515Y-6295888D01*
X7553515Y-6295888D02*
X7543991Y-6314936D01*
X7543991Y-6314936D02*
X7534468Y-6324460D01*
X7534468Y-6324460D02*
X7515420Y-6333984D01*
X7515420Y-6333984D02*
X7458277Y-6333984D01*
X7458277Y-6333984D02*
X7439229Y-6324460D01*
X7439229Y-6324460D02*
X7429706Y-6314936D01*
X7791610Y-6333984D02*
X7791610Y-6133984D01*
X7877325Y-6333984D02*
X7877325Y-6229222D01*
X7877325Y-6229222D02*
X7867801Y-6210174D01*
X7867801Y-6210174D02*
X7848753Y-6200650D01*
X7848753Y-6200650D02*
X7820182Y-6200650D01*
X7820182Y-6200650D02*
X7801134Y-6210174D01*
X7801134Y-6210174D02*
X7791610Y-6219698D01*
X8001134Y-6333984D02*
X7982087Y-6324460D01*
X7982087Y-6324460D02*
X7972563Y-6314936D01*
X7972563Y-6314936D02*
X7963039Y-6295888D01*
X7963039Y-6295888D02*
X7963039Y-6238746D01*
X7963039Y-6238746D02*
X7972563Y-6219698D01*
X7972563Y-6219698D02*
X7982087Y-6210174D01*
X7982087Y-6210174D02*
X8001134Y-6200650D01*
X8001134Y-6200650D02*
X8029706Y-6200650D01*
X8029706Y-6200650D02*
X8048753Y-6210174D01*
X8048753Y-6210174D02*
X8058277Y-6219698D01*
X8058277Y-6219698D02*
X8067801Y-6238746D01*
X8067801Y-6238746D02*
X8067801Y-6295888D01*
X8067801Y-6295888D02*
X8058277Y-6314936D01*
X8058277Y-6314936D02*
X8048753Y-6324460D01*
X8048753Y-6324460D02*
X8029706Y-6333984D01*
X8029706Y-6333984D02*
X8001134Y-6333984D01*
X8182087Y-6333984D02*
X8163039Y-6324460D01*
X8163039Y-6324460D02*
X8153515Y-6305412D01*
X8153515Y-6305412D02*
X8153515Y-6133984D01*
X8334468Y-6324460D02*
X8315420Y-6333984D01*
X8315420Y-6333984D02*
X8277325Y-6333984D01*
X8277325Y-6333984D02*
X8258277Y-6324460D01*
X8258277Y-6324460D02*
X8248753Y-6305412D01*
X8248753Y-6305412D02*
X8248753Y-6229222D01*
X8248753Y-6229222D02*
X8258277Y-6210174D01*
X8258277Y-6210174D02*
X8277325Y-6200650D01*
X8277325Y-6200650D02*
X8315420Y-6200650D01*
X8315420Y-6200650D02*
X8334468Y-6210174D01*
X8334468Y-6210174D02*
X8343991Y-6229222D01*
X8343991Y-6229222D02*
X8343991Y-6248269D01*
X8343991Y-6248269D02*
X8248753Y-6267317D01*
X8420182Y-6324460D02*
X8439230Y-6333984D01*
X8439230Y-6333984D02*
X8477325Y-6333984D01*
X8477325Y-6333984D02*
X8496373Y-6324460D01*
X8496373Y-6324460D02*
X8505896Y-6305412D01*
X8505896Y-6305412D02*
X8505896Y-6295888D01*
X8505896Y-6295888D02*
X8496373Y-6276841D01*
X8496373Y-6276841D02*
X8477325Y-6267317D01*
X8477325Y-6267317D02*
X8448753Y-6267317D01*
X8448753Y-6267317D02*
X8429706Y-6257793D01*
X8429706Y-6257793D02*
X8420182Y-6238746D01*
X8420182Y-6238746D02*
X8420182Y-6229222D01*
X8420182Y-6229222D02*
X8429706Y-6210174D01*
X8429706Y-6210174D02*
X8448753Y-6200650D01*
X8448753Y-6200650D02*
X8477325Y-6200650D01*
X8477325Y-6200650D02*
X8496373Y-6210174D01*
X8572563Y-6410174D02*
X8582087Y-6400650D01*
X8582087Y-6400650D02*
X8601134Y-6372079D01*
X8601134Y-6372079D02*
X8610658Y-6353031D01*
X8610658Y-6353031D02*
X8620182Y-6324460D01*
X8620182Y-6324460D02*
X8629706Y-6276841D01*
X8629706Y-6276841D02*
X8629706Y-6238746D01*
X8629706Y-6238746D02*
X8620182Y-6191127D01*
X8620182Y-6191127D02*
X8610658Y-6162555D01*
X8610658Y-6162555D02*
X8601134Y-6143508D01*
X8601134Y-6143508D02*
X8582087Y-6114936D01*
X8582087Y-6114936D02*
X8572563Y-6105412D01*
X8934468Y-6410174D02*
X8924944Y-6400650D01*
X8924944Y-6400650D02*
X8905896Y-6372079D01*
X8905896Y-6372079D02*
X8896373Y-6353031D01*
X8896373Y-6353031D02*
X8886849Y-6324460D01*
X8886849Y-6324460D02*
X8877325Y-6276841D01*
X8877325Y-6276841D02*
X8877325Y-6238746D01*
X8877325Y-6238746D02*
X8886849Y-6191127D01*
X8886849Y-6191127D02*
X8896373Y-6162555D01*
X8896373Y-6162555D02*
X8905896Y-6143508D01*
X8905896Y-6143508D02*
X8924944Y-6114936D01*
X8924944Y-6114936D02*
X8934468Y-6105412D01*
X9010658Y-6200650D02*
X9010658Y-6333984D01*
X9010658Y-6219698D02*
X9020182Y-6210174D01*
X9020182Y-6210174D02*
X9039230Y-6200650D01*
X9039230Y-6200650D02*
X9067801Y-6200650D01*
X9067801Y-6200650D02*
X9086849Y-6210174D01*
X9086849Y-6210174D02*
X9096373Y-6229222D01*
X9096373Y-6229222D02*
X9096373Y-6333984D01*
X9220182Y-6333984D02*
X9201134Y-6324460D01*
X9201134Y-6324460D02*
X9191611Y-6314936D01*
X9191611Y-6314936D02*
X9182087Y-6295888D01*
X9182087Y-6295888D02*
X9182087Y-6238746D01*
X9182087Y-6238746D02*
X9191611Y-6219698D01*
X9191611Y-6219698D02*
X9201134Y-6210174D01*
X9201134Y-6210174D02*
X9220182Y-6200650D01*
X9220182Y-6200650D02*
X9248754Y-6200650D01*
X9248754Y-6200650D02*
X9267801Y-6210174D01*
X9267801Y-6210174D02*
X9277325Y-6219698D01*
X9277325Y-6219698D02*
X9286849Y-6238746D01*
X9286849Y-6238746D02*
X9286849Y-6295888D01*
X9286849Y-6295888D02*
X9277325Y-6314936D01*
X9277325Y-6314936D02*
X9267801Y-6324460D01*
X9267801Y-6324460D02*
X9248754Y-6333984D01*
X9248754Y-6333984D02*
X9220182Y-6333984D01*
X9343992Y-6200650D02*
X9420182Y-6200650D01*
X9372563Y-6133984D02*
X9372563Y-6305412D01*
X9372563Y-6305412D02*
X9382087Y-6324460D01*
X9382087Y-6324460D02*
X9401134Y-6333984D01*
X9401134Y-6333984D02*
X9420182Y-6333984D01*
X9639230Y-6200650D02*
X9639230Y-6400650D01*
X9639230Y-6210174D02*
X9658277Y-6200650D01*
X9658277Y-6200650D02*
X9696373Y-6200650D01*
X9696373Y-6200650D02*
X9715420Y-6210174D01*
X9715420Y-6210174D02*
X9724944Y-6219698D01*
X9724944Y-6219698D02*
X9734468Y-6238746D01*
X9734468Y-6238746D02*
X9734468Y-6295888D01*
X9734468Y-6295888D02*
X9724944Y-6314936D01*
X9724944Y-6314936D02*
X9715420Y-6324460D01*
X9715420Y-6324460D02*
X9696373Y-6333984D01*
X9696373Y-6333984D02*
X9658277Y-6333984D01*
X9658277Y-6333984D02*
X9639230Y-6324460D01*
X9848754Y-6333984D02*
X9829706Y-6324460D01*
X9829706Y-6324460D02*
X9820182Y-6305412D01*
X9820182Y-6305412D02*
X9820182Y-6133984D01*
X10010658Y-6333984D02*
X10010658Y-6229222D01*
X10010658Y-6229222D02*
X10001135Y-6210174D01*
X10001135Y-6210174D02*
X9982087Y-6200650D01*
X9982087Y-6200650D02*
X9943992Y-6200650D01*
X9943992Y-6200650D02*
X9924944Y-6210174D01*
X10010658Y-6324460D02*
X9991611Y-6333984D01*
X9991611Y-6333984D02*
X9943992Y-6333984D01*
X9943992Y-6333984D02*
X9924944Y-6324460D01*
X9924944Y-6324460D02*
X9915420Y-6305412D01*
X9915420Y-6305412D02*
X9915420Y-6286365D01*
X9915420Y-6286365D02*
X9924944Y-6267317D01*
X9924944Y-6267317D02*
X9943992Y-6257793D01*
X9943992Y-6257793D02*
X9991611Y-6257793D01*
X9991611Y-6257793D02*
X10010658Y-6248269D01*
X10077325Y-6200650D02*
X10153515Y-6200650D01*
X10105896Y-6133984D02*
X10105896Y-6305412D01*
X10105896Y-6305412D02*
X10115420Y-6324460D01*
X10115420Y-6324460D02*
X10134468Y-6333984D01*
X10134468Y-6333984D02*
X10153515Y-6333984D01*
X10296373Y-6324460D02*
X10277325Y-6333984D01*
X10277325Y-6333984D02*
X10239230Y-6333984D01*
X10239230Y-6333984D02*
X10220182Y-6324460D01*
X10220182Y-6324460D02*
X10210658Y-6305412D01*
X10210658Y-6305412D02*
X10210658Y-6229222D01*
X10210658Y-6229222D02*
X10220182Y-6210174D01*
X10220182Y-6210174D02*
X10239230Y-6200650D01*
X10239230Y-6200650D02*
X10277325Y-6200650D01*
X10277325Y-6200650D02*
X10296373Y-6210174D01*
X10296373Y-6210174D02*
X10305896Y-6229222D01*
X10305896Y-6229222D02*
X10305896Y-6248269D01*
X10305896Y-6248269D02*
X10210658Y-6267317D01*
X10477325Y-6333984D02*
X10477325Y-6133984D01*
X10477325Y-6324460D02*
X10458277Y-6333984D01*
X10458277Y-6333984D02*
X10420182Y-6333984D01*
X10420182Y-6333984D02*
X10401135Y-6324460D01*
X10401135Y-6324460D02*
X10391611Y-6314936D01*
X10391611Y-6314936D02*
X10382087Y-6295888D01*
X10382087Y-6295888D02*
X10382087Y-6238746D01*
X10382087Y-6238746D02*
X10391611Y-6219698D01*
X10391611Y-6219698D02*
X10401135Y-6210174D01*
X10401135Y-6210174D02*
X10420182Y-6200650D01*
X10420182Y-6200650D02*
X10458277Y-6200650D01*
X10458277Y-6200650D02*
X10477325Y-6210174D01*
X10553516Y-6410174D02*
X10563039Y-6400650D01*
X10563039Y-6400650D02*
X10582087Y-6372079D01*
X10582087Y-6372079D02*
X10591611Y-6353031D01*
X10591611Y-6353031D02*
X10601135Y-6324460D01*
X10601135Y-6324460D02*
X10610658Y-6276841D01*
X10610658Y-6276841D02*
X10610658Y-6238746D01*
X10610658Y-6238746D02*
X10601135Y-6191127D01*
X10601135Y-6191127D02*
X10591611Y-6162555D01*
X10591611Y-6162555D02*
X10582087Y-6143508D01*
X10582087Y-6143508D02*
X10563039Y-6114936D01*
X10563039Y-6114936D02*
X10553516Y-6105412D01*
M02*
