%TF.GenerationSoftware,KiCad,Pcbnew,8.0.6-8.0.6-0~ubuntu24.04.1*%
%TF.CreationDate,2024-10-25T11:14:02+03:00*%
%TF.ProjectId,pss_v2,7073735f-7632-42e6-9b69-6361645f7063,rev?*%
%TF.SameCoordinates,Original*%
%TF.FileFunction,Copper,L3,Inr*%
%TF.FilePolarity,Positive*%
%FSLAX46Y46*%
G04 Gerber Fmt 4.6, Leading zero omitted, Abs format (unit mm)*
G04 Created by KiCad (PCBNEW 8.0.6-8.0.6-0~ubuntu24.04.1) date 2024-10-25 11:14:02*
%MOMM*%
%LPD*%
G01*
G04 APERTURE LIST*
G04 Aperture macros list*
%AMRoundRect*
0 Rectangle with rounded corners*
0 $1 Rounding radius*
0 $2 $3 $4 $5 $6 $7 $8 $9 X,Y pos of 4 corners*
0 Add a 4 corners polygon primitive as box body*
4,1,4,$2,$3,$4,$5,$6,$7,$8,$9,$2,$3,0*
0 Add four circle primitives for the rounded corners*
1,1,$1+$1,$2,$3*
1,1,$1+$1,$4,$5*
1,1,$1+$1,$6,$7*
1,1,$1+$1,$8,$9*
0 Add four rect primitives between the rounded corners*
20,1,$1+$1,$2,$3,$4,$5,0*
20,1,$1+$1,$4,$5,$6,$7,0*
20,1,$1+$1,$6,$7,$8,$9,0*
20,1,$1+$1,$8,$9,$2,$3,0*%
G04 Aperture macros list end*
%TA.AperFunction,ComponentPad*%
%ADD10RoundRect,0.250000X-0.750000X0.600000X-0.750000X-0.600000X0.750000X-0.600000X0.750000X0.600000X0*%
%TD*%
%TA.AperFunction,ComponentPad*%
%ADD11O,2.000000X1.700000*%
%TD*%
%TA.AperFunction,ComponentPad*%
%ADD12O,1.950000X1.700000*%
%TD*%
%TA.AperFunction,ComponentPad*%
%ADD13RoundRect,0.250000X0.725000X-0.600000X0.725000X0.600000X-0.725000X0.600000X-0.725000X-0.600000X0*%
%TD*%
%TA.AperFunction,ComponentPad*%
%ADD14C,1.524000*%
%TD*%
%TA.AperFunction,ComponentPad*%
%ADD15R,1.560000X1.560000*%
%TD*%
%TA.AperFunction,ComponentPad*%
%ADD16C,1.560000*%
%TD*%
%TA.AperFunction,ComponentPad*%
%ADD17RoundRect,0.250000X-0.600000X-0.750000X0.600000X-0.750000X0.600000X0.750000X-0.600000X0.750000X0*%
%TD*%
%TA.AperFunction,ComponentPad*%
%ADD18O,1.700000X2.000000*%
%TD*%
%TA.AperFunction,ComponentPad*%
%ADD19RoundRect,0.250000X-0.725000X0.600000X-0.725000X-0.600000X0.725000X-0.600000X0.725000X0.600000X0*%
%TD*%
%TA.AperFunction,ComponentPad*%
%ADD20R,1.800000X1.800000*%
%TD*%
%TA.AperFunction,ComponentPad*%
%ADD21C,1.800000*%
%TD*%
%TA.AperFunction,ComponentPad*%
%ADD22RoundRect,0.250000X0.600000X0.725000X-0.600000X0.725000X-0.600000X-0.725000X0.600000X-0.725000X0*%
%TD*%
%TA.AperFunction,ComponentPad*%
%ADD23O,1.700000X1.950000*%
%TD*%
%TA.AperFunction,ComponentPad*%
%ADD24RoundRect,0.250000X0.600000X0.750000X-0.600000X0.750000X-0.600000X-0.750000X0.600000X-0.750000X0*%
%TD*%
%TA.AperFunction,ComponentPad*%
%ADD25C,1.500000*%
%TD*%
%TA.AperFunction,ComponentPad*%
%ADD26R,1.500000X1.500000*%
%TD*%
%TA.AperFunction,ViaPad*%
%ADD27C,0.600000*%
%TD*%
%TA.AperFunction,ViaPad*%
%ADD28C,0.800000*%
%TD*%
%TA.AperFunction,Conductor*%
%ADD29C,0.250000*%
%TD*%
%TA.AperFunction,Conductor*%
%ADD30C,0.500000*%
%TD*%
G04 APERTURE END LIST*
D10*
%TO.N,GND*%
%TO.C,J4*%
X42325000Y-41950000D03*
D11*
%TO.N,Net-(J4-Pin_2)*%
X42325000Y-44450000D03*
%TD*%
D10*
%TO.N,/WAKEUP_BUTTON*%
%TO.C,J6*%
X108500000Y-50200000D03*
D11*
%TO.N,GND*%
X108500000Y-52700000D03*
%TD*%
D12*
%TO.N,Net-(J8-Pin_4)*%
%TO.C,J8*%
X98075000Y-45150000D03*
%TO.N,+5VP*%
X98075000Y-47650000D03*
%TO.N,/SCL_5V*%
X98075000Y-50150000D03*
D13*
%TO.N,/SDA_5V*%
X98075000Y-52650000D03*
%TD*%
D14*
%TO.N,GND*%
%TO.C,TP1*%
X40200000Y-20700000D03*
%TD*%
D15*
%TO.N,Net-(D2-common)*%
%TO.C,RAV1*%
X39760000Y-28300000D03*
D16*
X44760000Y-25800000D03*
%TO.N,GND*%
X39760000Y-23300000D03*
%TD*%
D10*
%TO.N,GND*%
%TO.C,J3*%
X42325000Y-32900000D03*
D11*
%TO.N,Net-(J3-Pin_2)*%
X42325000Y-35400000D03*
%TD*%
D17*
%TO.N,/LIGHT_VALUE*%
%TO.C,J9*%
X114700000Y-30275000D03*
D18*
%TO.N,GND*%
X117200000Y-30275000D03*
%TD*%
D19*
%TO.N,/INDOOR_FL*%
%TO.C,J12*%
X116625000Y-45190000D03*
D12*
%TO.N,/OUTDOOR_FL*%
X116625000Y-47690000D03*
%TO.N,GND*%
X116625000Y-50190000D03*
X116625000Y-52690000D03*
%TD*%
D15*
%TO.N,Net-(D3-common)*%
%TO.C,RBV1*%
X39760000Y-53700000D03*
D16*
X44760000Y-51200000D03*
%TO.N,GND*%
X39760000Y-48700000D03*
%TD*%
D13*
%TO.N,/SCL*%
%TO.C,J7*%
X98075000Y-29750000D03*
D12*
%TO.N,/SDA*%
X98075000Y-27250000D03*
%TO.N,+3.3V*%
X98075000Y-24750000D03*
%TO.N,GND*%
X98075000Y-22250000D03*
%TD*%
D20*
%TO.N,/MOSI*%
%TO.C,J5*%
X105730000Y-24420000D03*
D21*
%TO.N,+3.3V*%
X108270000Y-24420000D03*
%TO.N,unconnected-(J5-Pin_3-Pad3)*%
X105730000Y-26960000D03*
%TO.N,/RXD*%
X108270000Y-26960000D03*
%TO.N,/RESET#*%
X105730000Y-29500000D03*
%TO.N,/TXD*%
X108270000Y-29500000D03*
%TO.N,/SCK*%
X105730000Y-32040000D03*
%TO.N,GND*%
X108270000Y-32040000D03*
%TO.N,/MISO*%
X105730000Y-34580000D03*
%TO.N,GND*%
X108270000Y-34580000D03*
%TD*%
D22*
%TO.N,/IS_DOOR_OPENED*%
%TO.C,J13*%
X84049000Y-23225000D03*
D23*
%TO.N,GND*%
X81549000Y-23225000D03*
%TO.N,VCC*%
X79049000Y-23225000D03*
%TO.N,GND*%
X76549000Y-23225000D03*
%TD*%
D24*
%TO.N,Net-(J11-Pin_1)*%
%TO.C,J11*%
X70300000Y-23225000D03*
D18*
%TO.N,VCC*%
X67800000Y-23225000D03*
%TD*%
D15*
%TO.N,+3.3V*%
%TO.C,RV1*%
X114400000Y-20960000D03*
D16*
%TO.N,/LIGHT_VALUE*%
X116900000Y-25960000D03*
X119400000Y-20960000D03*
%TD*%
D25*
%TO.N,GND*%
%TO.C,U2*%
X76380000Y-53717500D03*
%TO.N,+5VP*%
X78920000Y-53717500D03*
%TO.N,/LORA_AUX*%
X81460000Y-53717500D03*
%TO.N,/RXD*%
X84000000Y-53717500D03*
%TO.N,/TXD*%
X86540000Y-53717500D03*
%TO.N,/LORA_M1*%
X89080000Y-53717500D03*
D26*
%TO.N,/LORA_M0*%
X91620000Y-53717500D03*
%TD*%
D27*
%TO.N,+3.3V*%
X79700000Y-35000000D03*
X63600000Y-42800000D03*
X82500000Y-29000000D03*
X120081250Y-42081250D03*
%TO.N,GND*%
X54600000Y-51400000D03*
X88300000Y-38800000D03*
X62000000Y-39100000D03*
X74300000Y-44700000D03*
%TO.N,Net-(U1-XTAL1{slash}PB6)*%
X85900000Y-39500000D03*
%TO.N,Net-(D2-common)*%
X52070000Y-32900000D03*
%TO.N,VAA*%
X49500000Y-40500000D03*
X56200000Y-37700000D03*
%TO.N,/VOFFSET*%
X58900000Y-30450000D03*
X52700000Y-25300000D03*
X46700000Y-50200000D03*
%TO.N,VCC*%
X73500000Y-34800000D03*
X70300000Y-33900000D03*
X73908058Y-39908058D03*
%TO.N,/LIGHT_VALUE*%
X94000000Y-32675000D03*
%TO.N,+5VP*%
X77300000Y-46800000D03*
%TO.N,/IS_DOOR_OPENED*%
X90500000Y-38900000D03*
%TO.N,/INDOOR_FL*%
X90550000Y-29950000D03*
%TO.N,/OUTDOOR_FL*%
X91800000Y-30800000D03*
%TO.N,/RESET#*%
X94300000Y-37200000D03*
%TO.N,Net-(U1-XTAL2{slash}PB7)*%
X86200000Y-37000000D03*
%TO.N,/TXD*%
X97000000Y-37100000D03*
%TO.N,/SCL*%
X65600000Y-39700000D03*
X83400000Y-50412500D03*
X94400000Y-36200000D03*
%TO.N,/SDA*%
X81100000Y-51112500D03*
X94220520Y-35204999D03*
X68000000Y-41100000D03*
%TO.N,Net-(Q1-D)*%
X66400000Y-48462500D03*
X67450000Y-44350000D03*
%TO.N,/IS_USE_PRIMARY*%
X47900000Y-37200000D03*
X61500000Y-54300000D03*
X50600000Y-22400000D03*
D28*
%TO.N,/R_VCC_AS*%
X58300000Y-39400000D03*
X59300000Y-42400000D03*
D27*
%TO.N,/DISPLAY_EN*%
X97087500Y-39700000D03*
X90300000Y-37100000D03*
%TO.N,/+5VP_EN*%
X81800000Y-37300000D03*
%TO.N,/AIR_DRYER_EN*%
X77900000Y-28500000D03*
%TO.N,/IS_RESERVE_OK*%
X51700000Y-44300000D03*
X70600000Y-54400000D03*
%TO.N,/LORA_M1*%
X83000000Y-44700000D03*
%TO.N,/LORA_AUX*%
X79200000Y-45900000D03*
%TO.N,/SCK*%
X86400000Y-34100000D03*
%TO.N,/LORA_M0*%
X85700000Y-44700000D03*
%TO.N,/MISO*%
X86000000Y-35200000D03*
%TO.N,Net-(D3-common)*%
X56750000Y-47250000D03*
%TO.N,/RXD*%
X97000000Y-36100000D03*
%TO.N,/MOSI*%
X81300000Y-32300000D03*
%TD*%
D29*
%TO.N,/IS_USE_PRIMARY*%
X47900000Y-37200000D02*
X47900000Y-41900000D01*
X47900000Y-41900000D02*
X60300000Y-54300000D01*
X60300000Y-54300000D02*
X61500000Y-54300000D01*
D30*
%TO.N,/LIGHT_VALUE*%
X116900000Y-25960000D02*
X116900000Y-23460000D01*
X116900000Y-23460000D02*
X119400000Y-20960000D01*
D29*
%TO.N,/IS_DOOR_OPENED*%
X88100000Y-36500000D02*
X88100000Y-27275000D01*
X90500000Y-38900000D02*
X88100000Y-36500000D01*
X88100000Y-27275000D02*
X84050000Y-23225000D01*
%TO.N,/INDOOR_FL*%
X90550000Y-29950000D02*
X94200000Y-29950000D01*
X94200000Y-29950000D02*
X109650000Y-45400000D01*
X109650000Y-45400000D02*
X116175000Y-45400000D01*
%TO.N,/OUTDOOR_FL*%
X110800000Y-47800000D02*
X116275000Y-47800000D01*
X91800000Y-30800000D02*
X93800000Y-30800000D01*
X93800000Y-30800000D02*
X110800000Y-47800000D01*
%TO.N,/SCL*%
X67875000Y-39675000D02*
X65625000Y-39675000D01*
X83387500Y-50400000D02*
X78600000Y-50400000D01*
X84100000Y-50412500D02*
X83400000Y-50412500D01*
X83400000Y-50412500D02*
X83387500Y-50400000D01*
X93600000Y-36709403D02*
X93600000Y-40912500D01*
X93600000Y-40912500D02*
X84100000Y-50412500D01*
X78600000Y-50400000D02*
X67875000Y-39675000D01*
X65625000Y-39675000D02*
X65600000Y-39700000D01*
X94109403Y-36200000D02*
X93600000Y-36709403D01*
X94400000Y-36200000D02*
X94109403Y-36200000D01*
%TO.N,/SDA*%
X78012500Y-51112500D02*
X81100000Y-51112500D01*
X94288883Y-35204999D02*
X94220520Y-35204999D01*
X95025000Y-40475000D02*
X95025000Y-35941116D01*
X84387500Y-51112500D02*
X95025000Y-40475000D01*
X95025000Y-35941116D02*
X94288883Y-35204999D01*
X81100000Y-51112500D02*
X84387500Y-51112500D01*
X68000000Y-41100000D02*
X78012500Y-51112500D01*
%TO.N,/IS_RESERVE_OK*%
X51700000Y-44300000D02*
X60200000Y-52800000D01*
X63100000Y-54400000D02*
X70600000Y-54400000D01*
X61500000Y-52800000D02*
X63100000Y-54400000D01*
X60200000Y-52800000D02*
X61500000Y-52800000D01*
%TD*%
%TA.AperFunction,Conductor*%
%TO.N,GND*%
G36*
X116875000Y-52285854D02*
G01*
X116808343Y-52247370D01*
X116687535Y-52215000D01*
X116562465Y-52215000D01*
X116441657Y-52247370D01*
X116375000Y-52285854D01*
X116375000Y-50594145D01*
X116441657Y-50632630D01*
X116562465Y-50665000D01*
X116687535Y-50665000D01*
X116808343Y-50632630D01*
X116875000Y-50594145D01*
X116875000Y-52285854D01*
G37*
%TD.AperFunction*%
%TA.AperFunction,Conductor*%
G36*
X107850667Y-32213694D02*
G01*
X107909910Y-32316306D01*
X107993694Y-32400090D01*
X108096306Y-32459333D01*
X108181414Y-32482138D01*
X107471201Y-33192351D01*
X107496633Y-33212145D01*
X107537446Y-33268856D01*
X107541121Y-33338629D01*
X107506490Y-33399312D01*
X107496632Y-33407853D01*
X107471201Y-33427646D01*
X107471200Y-33427647D01*
X108181415Y-34137861D01*
X108096306Y-34160667D01*
X107993694Y-34219910D01*
X107909910Y-34303694D01*
X107850667Y-34406306D01*
X107827861Y-34491415D01*
X107118811Y-33782365D01*
X107104106Y-33804873D01*
X107050959Y-33850230D01*
X106981728Y-33859653D01*
X106918392Y-33830150D01*
X106896489Y-33804873D01*
X106838981Y-33716850D01*
X106838980Y-33716849D01*
X106838979Y-33716847D01*
X106681784Y-33546087D01*
X106504180Y-33407853D01*
X106463368Y-33351143D01*
X106459693Y-33281370D01*
X106494324Y-33220687D01*
X106504181Y-33212146D01*
X106681784Y-33073913D01*
X106838979Y-32903153D01*
X106896490Y-32815124D01*
X106949635Y-32769769D01*
X107018866Y-32760345D01*
X107082202Y-32789846D01*
X107104107Y-32815125D01*
X107118812Y-32837633D01*
X107827861Y-32128584D01*
X107850667Y-32213694D01*
G37*
%TD.AperFunction*%
%TA.AperFunction,Conductor*%
G36*
X107081904Y-30250304D02*
G01*
X107103809Y-30275583D01*
X107161016Y-30363147D01*
X107161019Y-30363151D01*
X107161021Y-30363153D01*
X107318216Y-30533913D01*
X107495819Y-30672146D01*
X107496225Y-30672462D01*
X107537038Y-30729173D01*
X107540713Y-30798946D01*
X107506082Y-30859629D01*
X107496225Y-30868170D01*
X107471201Y-30887646D01*
X107471200Y-30887647D01*
X108181415Y-31597861D01*
X108096306Y-31620667D01*
X107993694Y-31679910D01*
X107909910Y-31763694D01*
X107850667Y-31866306D01*
X107827861Y-31951415D01*
X107118811Y-31242365D01*
X107104106Y-31264873D01*
X107050959Y-31310230D01*
X106981728Y-31319653D01*
X106918392Y-31290150D01*
X106896489Y-31264873D01*
X106838981Y-31176850D01*
X106838980Y-31176849D01*
X106838979Y-31176847D01*
X106681784Y-31006087D01*
X106504180Y-30867853D01*
X106463368Y-30811143D01*
X106459693Y-30741370D01*
X106494324Y-30680687D01*
X106504181Y-30672146D01*
X106681784Y-30533913D01*
X106838979Y-30363153D01*
X106896191Y-30275582D01*
X106949337Y-30230226D01*
X107018568Y-30220802D01*
X107081904Y-30250304D01*
G37*
%TD.AperFunction*%
%TA.AperFunction,Conductor*%
G36*
X113390540Y-19520185D02*
G01*
X113436295Y-19572989D01*
X113446239Y-19642147D01*
X113417214Y-19705703D01*
X113382928Y-19733332D01*
X113377666Y-19736205D01*
X113262455Y-19822452D01*
X113262452Y-19822455D01*
X113176206Y-19937664D01*
X113176202Y-19937671D01*
X113125908Y-20072517D01*
X113119501Y-20132116D01*
X113119501Y-20132123D01*
X113119500Y-20132135D01*
X113119500Y-21787870D01*
X113119501Y-21787876D01*
X113125908Y-21847483D01*
X113176202Y-21982328D01*
X113176206Y-21982335D01*
X113262452Y-22097544D01*
X113262455Y-22097547D01*
X113377664Y-22183793D01*
X113377671Y-22183797D01*
X113512517Y-22234091D01*
X113512516Y-22234091D01*
X113519444Y-22234835D01*
X113572127Y-22240500D01*
X115227872Y-22240499D01*
X115287483Y-22234091D01*
X115422331Y-22183796D01*
X115537546Y-22097546D01*
X115623796Y-21982331D01*
X115674091Y-21847483D01*
X115680500Y-21787873D01*
X115680499Y-20132128D01*
X115674091Y-20072517D01*
X115671880Y-20066590D01*
X115623797Y-19937671D01*
X115623793Y-19937664D01*
X115537547Y-19822455D01*
X115537544Y-19822452D01*
X115422333Y-19736205D01*
X115417072Y-19733332D01*
X115367667Y-19683927D01*
X115352815Y-19615654D01*
X115377232Y-19550190D01*
X115433165Y-19508318D01*
X115476499Y-19500500D01*
X118957583Y-19500500D01*
X119024622Y-19520185D01*
X119070377Y-19572989D01*
X119080321Y-19642147D01*
X119051296Y-19705703D01*
X118992518Y-19743477D01*
X118989677Y-19744275D01*
X118960375Y-19752126D01*
X118960368Y-19752129D01*
X118757306Y-19846818D01*
X118757304Y-19846819D01*
X118573764Y-19975334D01*
X118415333Y-20133765D01*
X118286820Y-20317302D01*
X118235092Y-20428231D01*
X118227034Y-20442852D01*
X118214852Y-20461811D01*
X117701542Y-21586027D01*
X117676425Y-21622205D01*
X116317047Y-22981584D01*
X116317043Y-22981589D01*
X116271002Y-23050498D01*
X116271001Y-23050500D01*
X116266189Y-23057702D01*
X116234916Y-23104504D01*
X116234912Y-23104511D01*
X116178343Y-23241082D01*
X116178340Y-23241092D01*
X116149500Y-23386079D01*
X116149500Y-24272996D01*
X116141679Y-24316338D01*
X115709698Y-25474258D01*
X115703163Y-25494467D01*
X115697564Y-25508711D01*
X115692128Y-25520369D01*
X115634137Y-25736792D01*
X115634136Y-25736799D01*
X115614609Y-25959998D01*
X115614609Y-25960001D01*
X115634136Y-26183200D01*
X115634137Y-26183208D01*
X115692126Y-26399625D01*
X115692127Y-26399627D01*
X115692128Y-26399630D01*
X115712210Y-26442696D01*
X115786819Y-26602696D01*
X115786821Y-26602700D01*
X115915181Y-26786016D01*
X115915333Y-26786233D01*
X116073767Y-26944667D01*
X116073769Y-26944668D01*
X116073771Y-26944670D01*
X116257299Y-27073178D01*
X116257301Y-27073179D01*
X116257304Y-27073181D01*
X116460370Y-27167872D01*
X116676794Y-27225863D01*
X116836226Y-27239811D01*
X116899998Y-27245391D01*
X116900000Y-27245391D01*
X116900002Y-27245391D01*
X116955801Y-27240509D01*
X117123206Y-27225863D01*
X117339630Y-27167872D01*
X117542696Y-27073181D01*
X117726233Y-26944667D01*
X117884667Y-26786233D01*
X118013181Y-26602696D01*
X118107872Y-26399630D01*
X118165863Y-26183206D01*
X118185391Y-25960000D01*
X118182423Y-25926081D01*
X118173186Y-25820499D01*
X118165863Y-25736794D01*
X118107872Y-25520370D01*
X118099582Y-25502594D01*
X118090799Y-25476550D01*
X118090299Y-25474250D01*
X117658321Y-24316338D01*
X117650500Y-24272996D01*
X117650500Y-23822229D01*
X117670185Y-23755190D01*
X117686814Y-23734552D01*
X118737798Y-22683568D01*
X118773970Y-22658455D01*
X119898192Y-22145144D01*
X119938122Y-22124725D01*
X119938126Y-22124721D01*
X119943027Y-22121607D01*
X119943237Y-22121937D01*
X119959718Y-22111874D01*
X119990444Y-22097546D01*
X120042696Y-22073181D01*
X120226233Y-21944667D01*
X120287819Y-21883081D01*
X120349142Y-21849596D01*
X120418834Y-21854580D01*
X120474767Y-21896452D01*
X120499184Y-21961916D01*
X120499500Y-21970762D01*
X120499500Y-41204747D01*
X120479815Y-41271786D01*
X120427011Y-41317541D01*
X120357853Y-41327485D01*
X120334546Y-41321789D01*
X120260507Y-41295882D01*
X120260499Y-41295880D01*
X120081254Y-41275685D01*
X120081246Y-41275685D01*
X119902000Y-41295880D01*
X119901995Y-41295881D01*
X119731726Y-41355461D01*
X119578987Y-41451434D01*
X119451434Y-41578987D01*
X119355461Y-41731726D01*
X119295881Y-41901995D01*
X119295880Y-41902000D01*
X119275685Y-42081246D01*
X119275685Y-42081253D01*
X119295880Y-42260499D01*
X119295881Y-42260504D01*
X119355461Y-42430773D01*
X119367843Y-42450478D01*
X119451434Y-42583512D01*
X119578988Y-42711066D01*
X119663000Y-42763854D01*
X119720525Y-42800000D01*
X119731728Y-42807039D01*
X119827957Y-42840711D01*
X119901995Y-42866618D01*
X119902000Y-42866619D01*
X120081246Y-42886815D01*
X120081250Y-42886815D01*
X120081254Y-42886815D01*
X120260499Y-42866619D01*
X120260501Y-42866618D01*
X120260505Y-42866618D01*
X120260508Y-42866616D01*
X120260512Y-42866616D01*
X120334545Y-42840711D01*
X120404324Y-42837149D01*
X120464951Y-42871877D01*
X120497179Y-42933871D01*
X120499500Y-42957752D01*
X120499500Y-55375500D01*
X120479815Y-55442539D01*
X120427011Y-55488294D01*
X120375500Y-55499500D01*
X38624500Y-55499500D01*
X38557461Y-55479815D01*
X38511706Y-55427011D01*
X38500500Y-55375500D01*
X38500500Y-54993973D01*
X38520185Y-54926934D01*
X38572989Y-54881179D01*
X38642147Y-54871235D01*
X38698810Y-54894706D01*
X38737665Y-54923793D01*
X38737668Y-54923795D01*
X38737671Y-54923797D01*
X38872517Y-54974091D01*
X38872516Y-54974091D01*
X38879444Y-54974835D01*
X38932127Y-54980500D01*
X40587872Y-54980499D01*
X40647483Y-54974091D01*
X40782331Y-54923796D01*
X40897546Y-54837546D01*
X40983796Y-54722331D01*
X41034091Y-54587483D01*
X41040500Y-54527873D01*
X41040499Y-52872128D01*
X41034091Y-52812517D01*
X41016676Y-52765826D01*
X40983797Y-52677671D01*
X40983793Y-52677664D01*
X40897547Y-52562455D01*
X40897544Y-52562452D01*
X40782335Y-52476206D01*
X40782328Y-52476202D01*
X40647482Y-52425908D01*
X40647483Y-52425908D01*
X40587883Y-52419501D01*
X40587881Y-52419500D01*
X40587873Y-52419500D01*
X40587864Y-52419500D01*
X38932129Y-52419500D01*
X38932123Y-52419501D01*
X38872516Y-52425908D01*
X38737671Y-52476202D01*
X38737668Y-52476204D01*
X38698811Y-52505293D01*
X38633347Y-52529710D01*
X38565074Y-52514858D01*
X38515668Y-52465453D01*
X38500500Y-52406026D01*
X38500500Y-51199998D01*
X43474609Y-51199998D01*
X43474609Y-51200001D01*
X43494136Y-51423200D01*
X43494137Y-51423208D01*
X43552126Y-51639625D01*
X43552127Y-51639627D01*
X43552128Y-51639630D01*
X43636485Y-51820535D01*
X43646819Y-51842696D01*
X43646821Y-51842700D01*
X43756963Y-51999998D01*
X43775333Y-52026233D01*
X43933767Y-52184667D01*
X43933769Y-52184668D01*
X43933771Y-52184670D01*
X44117299Y-52313178D01*
X44117301Y-52313179D01*
X44117304Y-52313181D01*
X44320370Y-52407872D01*
X44536794Y-52465863D01*
X44696226Y-52479811D01*
X44759998Y-52485391D01*
X44760000Y-52485391D01*
X44760002Y-52485391D01*
X44815801Y-52480509D01*
X44983206Y-52465863D01*
X45199630Y-52407872D01*
X45402696Y-52313181D01*
X45586233Y-52184667D01*
X45744667Y-52026233D01*
X45873181Y-51842696D01*
X45967872Y-51639630D01*
X46025863Y-51423206D01*
X46045391Y-51200000D01*
X46025863Y-50976794D01*
X46025485Y-50975383D01*
X46025500Y-50974740D01*
X46024922Y-50971460D01*
X46025581Y-50971343D01*
X46027145Y-50905536D01*
X46066306Y-50847672D01*
X46130533Y-50820166D01*
X46199436Y-50831749D01*
X46211227Y-50838292D01*
X46242300Y-50857816D01*
X46318245Y-50905536D01*
X46350478Y-50925789D01*
X46480664Y-50971343D01*
X46520745Y-50985368D01*
X46520750Y-50985369D01*
X46699996Y-51005565D01*
X46700000Y-51005565D01*
X46700004Y-51005565D01*
X46879249Y-50985369D01*
X46879252Y-50985368D01*
X46879255Y-50985368D01*
X47049522Y-50925789D01*
X47202262Y-50829816D01*
X47329816Y-50702262D01*
X47425789Y-50549522D01*
X47485368Y-50379255D01*
X47485369Y-50379249D01*
X47505565Y-50200003D01*
X47505565Y-50199996D01*
X47485369Y-50020750D01*
X47485368Y-50020745D01*
X47457114Y-49940000D01*
X47425789Y-49850478D01*
X47415284Y-49833760D01*
X47340662Y-49715000D01*
X47329816Y-49697738D01*
X47202262Y-49570184D01*
X47170125Y-49549991D01*
X47049523Y-49474211D01*
X46879254Y-49414631D01*
X46879249Y-49414630D01*
X46700004Y-49394435D01*
X46699996Y-49394435D01*
X46520750Y-49414630D01*
X46520745Y-49414631D01*
X46350476Y-49474211D01*
X46197737Y-49570184D01*
X46070184Y-49697737D01*
X45974211Y-49850476D01*
X45914631Y-50020745D01*
X45914630Y-50020750D01*
X45894435Y-50199996D01*
X45894435Y-50200003D01*
X45895840Y-50212474D01*
X45883785Y-50281296D01*
X45836436Y-50332675D01*
X45768826Y-50350299D01*
X45702420Y-50328572D01*
X45684939Y-50314039D01*
X45652196Y-50281296D01*
X45586233Y-50215333D01*
X45586229Y-50215330D01*
X45586228Y-50215329D01*
X45402700Y-50086821D01*
X45402696Y-50086819D01*
X45402694Y-50086818D01*
X45199630Y-49992128D01*
X45199627Y-49992127D01*
X45199625Y-49992126D01*
X44983208Y-49934137D01*
X44983200Y-49934136D01*
X44760002Y-49914609D01*
X44759998Y-49914609D01*
X44536799Y-49934136D01*
X44536791Y-49934137D01*
X44320374Y-49992126D01*
X44320368Y-49992129D01*
X44117306Y-50086818D01*
X44117304Y-50086819D01*
X43933764Y-50215334D01*
X43775334Y-50373764D01*
X43646819Y-50557304D01*
X43646818Y-50557306D01*
X43552129Y-50760368D01*
X43552126Y-50760374D01*
X43494137Y-50976791D01*
X43494136Y-50976799D01*
X43474609Y-51199998D01*
X38500500Y-51199998D01*
X38500500Y-49526139D01*
X38520185Y-49459100D01*
X38572989Y-49413345D01*
X38642147Y-49403401D01*
X38650430Y-49407184D01*
X38695334Y-49411112D01*
X39277037Y-48829409D01*
X39294075Y-48892993D01*
X39359901Y-49007007D01*
X39452993Y-49100099D01*
X39567007Y-49165925D01*
X39630590Y-49182962D01*
X39048886Y-49764664D01*
X39117555Y-49812746D01*
X39320540Y-49907399D01*
X39320549Y-49907403D01*
X39536875Y-49965367D01*
X39536886Y-49965369D01*
X39759998Y-49984889D01*
X39760002Y-49984889D01*
X39983113Y-49965369D01*
X39983124Y-49965367D01*
X40199450Y-49907403D01*
X40199459Y-49907399D01*
X40402445Y-49812746D01*
X40402451Y-49812742D01*
X40471112Y-49764665D01*
X39889409Y-49182962D01*
X39952993Y-49165925D01*
X40067007Y-49100099D01*
X40160099Y-49007007D01*
X40225925Y-48892993D01*
X40242962Y-48829409D01*
X40824665Y-49411112D01*
X40872742Y-49342451D01*
X40872746Y-49342445D01*
X40967399Y-49139459D01*
X40967403Y-49139450D01*
X41025367Y-48923124D01*
X41025369Y-48923113D01*
X41044889Y-48700002D01*
X41044889Y-48699997D01*
X41025369Y-48476886D01*
X41025367Y-48476875D01*
X40967403Y-48260549D01*
X40967399Y-48260540D01*
X40872747Y-48057557D01*
X40872746Y-48057555D01*
X40824664Y-47988887D01*
X40824664Y-47988886D01*
X40242962Y-48570589D01*
X40225925Y-48507007D01*
X40160099Y-48392993D01*
X40067007Y-48299901D01*
X39952993Y-48234075D01*
X39889410Y-48217037D01*
X40471112Y-47635334D01*
X40471112Y-47635333D01*
X40402445Y-47587253D01*
X40402443Y-47587252D01*
X40199459Y-47492600D01*
X40199450Y-47492596D01*
X39983124Y-47434632D01*
X39983113Y-47434630D01*
X39760002Y-47415111D01*
X39759998Y-47415111D01*
X39536886Y-47434630D01*
X39536875Y-47434632D01*
X39320549Y-47492596D01*
X39320540Y-47492600D01*
X39117556Y-47587253D01*
X39048887Y-47635334D01*
X39630590Y-48217037D01*
X39567007Y-48234075D01*
X39452993Y-48299901D01*
X39359901Y-48392993D01*
X39294075Y-48507007D01*
X39277037Y-48570590D01*
X38695333Y-47988886D01*
X38637731Y-47993927D01*
X38637572Y-47992118D01*
X38601993Y-47995799D01*
X38539640Y-47964273D01*
X38504229Y-47904042D01*
X38500500Y-47873859D01*
X38500500Y-44343713D01*
X40824500Y-44343713D01*
X40824500Y-44556286D01*
X40853859Y-44741656D01*
X40857754Y-44766243D01*
X40885703Y-44852262D01*
X40923444Y-44968414D01*
X41019951Y-45157820D01*
X41144890Y-45329786D01*
X41295213Y-45480109D01*
X41467179Y-45605048D01*
X41467181Y-45605049D01*
X41467184Y-45605051D01*
X41656588Y-45701557D01*
X41858757Y-45767246D01*
X42068713Y-45800500D01*
X42068714Y-45800500D01*
X42581286Y-45800500D01*
X42581287Y-45800500D01*
X42791243Y-45767246D01*
X42993412Y-45701557D01*
X43182816Y-45605051D01*
X43285966Y-45530109D01*
X43354786Y-45480109D01*
X43354788Y-45480106D01*
X43354792Y-45480104D01*
X43505104Y-45329792D01*
X43505106Y-45329788D01*
X43505109Y-45329786D01*
X43630048Y-45157820D01*
X43630047Y-45157820D01*
X43630051Y-45157816D01*
X43726557Y-44968412D01*
X43792246Y-44766243D01*
X43825500Y-44556287D01*
X43825500Y-44343713D01*
X43792246Y-44133757D01*
X43726557Y-43931588D01*
X43630051Y-43742184D01*
X43630049Y-43742181D01*
X43630048Y-43742179D01*
X43505109Y-43570213D01*
X43365931Y-43431035D01*
X43332446Y-43369712D01*
X43337430Y-43300020D01*
X43379302Y-43244087D01*
X43388516Y-43237815D01*
X43543343Y-43142317D01*
X43667315Y-43018345D01*
X43759356Y-42869124D01*
X43759358Y-42869119D01*
X43814505Y-42702697D01*
X43814506Y-42702690D01*
X43824999Y-42599986D01*
X43825000Y-42599973D01*
X43825000Y-42200000D01*
X42758012Y-42200000D01*
X42790925Y-42142993D01*
X42825000Y-42015826D01*
X42825000Y-41884174D01*
X42790925Y-41757007D01*
X42758012Y-41700000D01*
X43824999Y-41700000D01*
X43824999Y-41300028D01*
X43824998Y-41300013D01*
X43814505Y-41197302D01*
X43759358Y-41030880D01*
X43759356Y-41030875D01*
X43667315Y-40881654D01*
X43543345Y-40757684D01*
X43394124Y-40665643D01*
X43394119Y-40665641D01*
X43227697Y-40610494D01*
X43227690Y-40610493D01*
X43124986Y-40600000D01*
X42575000Y-40600000D01*
X42575000Y-41516988D01*
X42517993Y-41484075D01*
X42390826Y-41450000D01*
X42259174Y-41450000D01*
X42132007Y-41484075D01*
X42075000Y-41516988D01*
X42075000Y-40600000D01*
X41525028Y-40600000D01*
X41525012Y-40600001D01*
X41422302Y-40610494D01*
X41255880Y-40665641D01*
X41255875Y-40665643D01*
X41106654Y-40757684D01*
X40982684Y-40881654D01*
X40890643Y-41030875D01*
X40890641Y-41030880D01*
X40835494Y-41197302D01*
X40835493Y-41197309D01*
X40825000Y-41300013D01*
X40825000Y-41700000D01*
X41891988Y-41700000D01*
X41859075Y-41757007D01*
X41825000Y-41884174D01*
X41825000Y-42015826D01*
X41859075Y-42142993D01*
X41891988Y-42200000D01*
X40825001Y-42200000D01*
X40825001Y-42599986D01*
X40835494Y-42702697D01*
X40890641Y-42869119D01*
X40890643Y-42869124D01*
X40982684Y-43018345D01*
X41106654Y-43142315D01*
X41261484Y-43237815D01*
X41308208Y-43289763D01*
X41319431Y-43358726D01*
X41291587Y-43422808D01*
X41284069Y-43431035D01*
X41144889Y-43570215D01*
X41019951Y-43742179D01*
X40923444Y-43931585D01*
X40857753Y-44133760D01*
X40824500Y-44343713D01*
X38500500Y-44343713D01*
X38500500Y-37199996D01*
X47094435Y-37199996D01*
X47094435Y-37200003D01*
X47114630Y-37379249D01*
X47114631Y-37379254D01*
X47174211Y-37549524D01*
X47255493Y-37678881D01*
X47274500Y-37744854D01*
X47274500Y-41961609D01*
X47285047Y-42014632D01*
X47292130Y-42050243D01*
X47296391Y-42071665D01*
X47298536Y-42082448D01*
X47345688Y-42196286D01*
X47345690Y-42196290D01*
X47373607Y-42238069D01*
X47373608Y-42238070D01*
X47414141Y-42298732D01*
X47414144Y-42298736D01*
X47505586Y-42390178D01*
X47505608Y-42390198D01*
X59811016Y-54695606D01*
X59811045Y-54695637D01*
X59901263Y-54785855D01*
X59901267Y-54785858D01*
X60003707Y-54854307D01*
X60003713Y-54854310D01*
X60003714Y-54854311D01*
X60117548Y-54901463D01*
X60147215Y-54907363D01*
X60173980Y-54912688D01*
X60174000Y-54912691D01*
X60174022Y-54912696D01*
X60238391Y-54925499D01*
X60238392Y-54925500D01*
X60238393Y-54925500D01*
X60238394Y-54925500D01*
X60787664Y-54925500D01*
X60824769Y-54931181D01*
X61223745Y-55056306D01*
X61253525Y-55064654D01*
X61253532Y-55064654D01*
X61258812Y-55065652D01*
X61258704Y-55066222D01*
X61278681Y-55070649D01*
X61320745Y-55085368D01*
X61356596Y-55089407D01*
X61499996Y-55105565D01*
X61500000Y-55105565D01*
X61500004Y-55105565D01*
X61679249Y-55085369D01*
X61679252Y-55085368D01*
X61679255Y-55085368D01*
X61849522Y-55025789D01*
X62002262Y-54929816D01*
X62129816Y-54802262D01*
X62225789Y-54649522D01*
X62225790Y-54649520D01*
X62227692Y-54645571D01*
X62274512Y-54593709D01*
X62341938Y-54575394D01*
X62408563Y-54596439D01*
X62427095Y-54611687D01*
X62701263Y-54885855D01*
X62701267Y-54885858D01*
X62803710Y-54954309D01*
X62803711Y-54954309D01*
X62803715Y-54954312D01*
X62866937Y-54980499D01*
X62917548Y-55001463D01*
X62937597Y-55005451D01*
X62971196Y-55012134D01*
X63038392Y-55025501D01*
X63038394Y-55025501D01*
X63167721Y-55025501D01*
X63167741Y-55025500D01*
X69887664Y-55025500D01*
X69924769Y-55031181D01*
X70323745Y-55156306D01*
X70353525Y-55164654D01*
X70353532Y-55164654D01*
X70358812Y-55165652D01*
X70358704Y-55166222D01*
X70378681Y-55170649D01*
X70420745Y-55185368D01*
X70456596Y-55189407D01*
X70599996Y-55205565D01*
X70600000Y-55205565D01*
X70600004Y-55205565D01*
X70779249Y-55185369D01*
X70779252Y-55185368D01*
X70779255Y-55185368D01*
X70949522Y-55125789D01*
X71102262Y-55029816D01*
X71229816Y-54902262D01*
X71325789Y-54749522D01*
X71385368Y-54579255D01*
X71385803Y-54575394D01*
X71405565Y-54400003D01*
X71405565Y-54399996D01*
X71385369Y-54220750D01*
X71385368Y-54220745D01*
X71349241Y-54117500D01*
X71325789Y-54050478D01*
X71317338Y-54037029D01*
X71253477Y-53935394D01*
X71229816Y-53897738D01*
X71102262Y-53770184D01*
X71100088Y-53768818D01*
X71018415Y-53717499D01*
X75125225Y-53717499D01*
X75125225Y-53717500D01*
X75144287Y-53935384D01*
X75144289Y-53935394D01*
X75200894Y-54146650D01*
X75200898Y-54146659D01*
X75293333Y-54344887D01*
X75336874Y-54407071D01*
X75980000Y-53763945D01*
X75980000Y-53770161D01*
X76007259Y-53871894D01*
X76059920Y-53963106D01*
X76134394Y-54037580D01*
X76225606Y-54090241D01*
X76327339Y-54117500D01*
X76333553Y-54117500D01*
X75690427Y-54760624D01*
X75752612Y-54804166D01*
X75950840Y-54896601D01*
X75950849Y-54896605D01*
X76162105Y-54953210D01*
X76162115Y-54953212D01*
X76379999Y-54972275D01*
X76380001Y-54972275D01*
X76597884Y-54953212D01*
X76597894Y-54953210D01*
X76809150Y-54896605D01*
X76809164Y-54896600D01*
X77007383Y-54804169D01*
X77007385Y-54804168D01*
X77069571Y-54760624D01*
X76426448Y-54117500D01*
X76432661Y-54117500D01*
X76534394Y-54090241D01*
X76625606Y-54037580D01*
X76700080Y-53963106D01*
X76752741Y-53871894D01*
X76780000Y-53770161D01*
X76780000Y-53763946D01*
X77423124Y-54407070D01*
X77466666Y-54344888D01*
X77537340Y-54193325D01*
X77583512Y-54140886D01*
X77650706Y-54121733D01*
X77717587Y-54141948D01*
X77762105Y-54193324D01*
X77832897Y-54345138D01*
X77857998Y-54380986D01*
X77958402Y-54524377D01*
X78113123Y-54679098D01*
X78292361Y-54804602D01*
X78490670Y-54897075D01*
X78702023Y-54953707D01*
X78884926Y-54969708D01*
X78919998Y-54972777D01*
X78920000Y-54972777D01*
X78920002Y-54972777D01*
X78948254Y-54970305D01*
X79137977Y-54953707D01*
X79349330Y-54897075D01*
X79547639Y-54804602D01*
X79726877Y-54679098D01*
X79881598Y-54524377D01*
X80007102Y-54345139D01*
X80077618Y-54193914D01*
X80123790Y-54141477D01*
X80190984Y-54122325D01*
X80257865Y-54142541D01*
X80302381Y-54193914D01*
X80372898Y-54345139D01*
X80498402Y-54524377D01*
X80653123Y-54679098D01*
X80832361Y-54804602D01*
X81030670Y-54897075D01*
X81242023Y-54953707D01*
X81424926Y-54969708D01*
X81459998Y-54972777D01*
X81460000Y-54972777D01*
X81460002Y-54972777D01*
X81488254Y-54970305D01*
X81677977Y-54953707D01*
X81889330Y-54897075D01*
X82087639Y-54804602D01*
X82266877Y-54679098D01*
X82421598Y-54524377D01*
X82547102Y-54345139D01*
X82617618Y-54193914D01*
X82663790Y-54141477D01*
X82730984Y-54122325D01*
X82797865Y-54142541D01*
X82842381Y-54193914D01*
X82912898Y-54345139D01*
X83038402Y-54524377D01*
X83193123Y-54679098D01*
X83372361Y-54804602D01*
X83570670Y-54897075D01*
X83782023Y-54953707D01*
X83964926Y-54969708D01*
X83999998Y-54972777D01*
X84000000Y-54972777D01*
X84000002Y-54972777D01*
X84028254Y-54970305D01*
X84217977Y-54953707D01*
X84429330Y-54897075D01*
X84627639Y-54804602D01*
X84806877Y-54679098D01*
X84961598Y-54524377D01*
X85087102Y-54345139D01*
X85157618Y-54193914D01*
X85203790Y-54141477D01*
X85270984Y-54122325D01*
X85337865Y-54142541D01*
X85382381Y-54193914D01*
X85452898Y-54345139D01*
X85578402Y-54524377D01*
X85733123Y-54679098D01*
X85912361Y-54804602D01*
X86110670Y-54897075D01*
X86322023Y-54953707D01*
X86504926Y-54969708D01*
X86539998Y-54972777D01*
X86540000Y-54972777D01*
X86540002Y-54972777D01*
X86568254Y-54970305D01*
X86757977Y-54953707D01*
X86969330Y-54897075D01*
X87167639Y-54804602D01*
X87346877Y-54679098D01*
X87501598Y-54524377D01*
X87627102Y-54345139D01*
X87697618Y-54193914D01*
X87743790Y-54141477D01*
X87810984Y-54122325D01*
X87877865Y-54142541D01*
X87922381Y-54193914D01*
X87992898Y-54345139D01*
X88118402Y-54524377D01*
X88273123Y-54679098D01*
X88452361Y-54804602D01*
X88650670Y-54897075D01*
X88862023Y-54953707D01*
X89044926Y-54969708D01*
X89079998Y-54972777D01*
X89080000Y-54972777D01*
X89080002Y-54972777D01*
X89108254Y-54970305D01*
X89297977Y-54953707D01*
X89509330Y-54897075D01*
X89707639Y-54804602D01*
X89886877Y-54679098D01*
X90041598Y-54524377D01*
X90143928Y-54378234D01*
X90198502Y-54334612D01*
X90268000Y-54327418D01*
X90330355Y-54358941D01*
X90365769Y-54419170D01*
X90369500Y-54449358D01*
X90369500Y-54515369D01*
X90369501Y-54515376D01*
X90375908Y-54574983D01*
X90426202Y-54709828D01*
X90426206Y-54709835D01*
X90512452Y-54825044D01*
X90512455Y-54825047D01*
X90627664Y-54911293D01*
X90627671Y-54911297D01*
X90762517Y-54961591D01*
X90762516Y-54961591D01*
X90769444Y-54962335D01*
X90822127Y-54968000D01*
X92417872Y-54967999D01*
X92477483Y-54961591D01*
X92612331Y-54911296D01*
X92727546Y-54825046D01*
X92813796Y-54709831D01*
X92864091Y-54574983D01*
X92870500Y-54515373D01*
X92870499Y-52919628D01*
X92864091Y-52860017D01*
X92846374Y-52812516D01*
X92813797Y-52725171D01*
X92813793Y-52725164D01*
X92727547Y-52609955D01*
X92727544Y-52609952D01*
X92612335Y-52523706D01*
X92612328Y-52523702D01*
X92477482Y-52473408D01*
X92477483Y-52473408D01*
X92417883Y-52467001D01*
X92417881Y-52467000D01*
X92417873Y-52467000D01*
X92417864Y-52467000D01*
X90822129Y-52467000D01*
X90822123Y-52467001D01*
X90762516Y-52473408D01*
X90627671Y-52523702D01*
X90627664Y-52523706D01*
X90512455Y-52609952D01*
X90512452Y-52609955D01*
X90426206Y-52725164D01*
X90426202Y-52725171D01*
X90375908Y-52860017D01*
X90370468Y-52910621D01*
X90369501Y-52919623D01*
X90369500Y-52919635D01*
X90369500Y-52985638D01*
X90349815Y-53052677D01*
X90297011Y-53098432D01*
X90227853Y-53108376D01*
X90164297Y-53079351D01*
X90143925Y-53056761D01*
X90041599Y-52910624D01*
X89990991Y-52860016D01*
X89886877Y-52755902D01*
X89713032Y-52634174D01*
X89707638Y-52630397D01*
X89608484Y-52584161D01*
X89509330Y-52537925D01*
X89509326Y-52537924D01*
X89509322Y-52537922D01*
X89297977Y-52481293D01*
X89080002Y-52462223D01*
X89079998Y-52462223D01*
X88952151Y-52473408D01*
X88862023Y-52481293D01*
X88862020Y-52481293D01*
X88650677Y-52537922D01*
X88650668Y-52537926D01*
X88452361Y-52630398D01*
X88452357Y-52630400D01*
X88273121Y-52755902D01*
X88118402Y-52910621D01*
X87992900Y-53089857D01*
X87992898Y-53089861D01*
X87922382Y-53241083D01*
X87876209Y-53293522D01*
X87809016Y-53312674D01*
X87742135Y-53292458D01*
X87697618Y-53241083D01*
X87662571Y-53165925D01*
X87627102Y-53089862D01*
X87627099Y-53089858D01*
X87627099Y-53089857D01*
X87501599Y-52910624D01*
X87450991Y-52860016D01*
X87346877Y-52755902D01*
X87173032Y-52634174D01*
X87167638Y-52630397D01*
X87068484Y-52584161D01*
X86969330Y-52537925D01*
X86969326Y-52537924D01*
X86969322Y-52537922D01*
X86757977Y-52481293D01*
X86540002Y-52462223D01*
X86539998Y-52462223D01*
X86412151Y-52473408D01*
X86322023Y-52481293D01*
X86322020Y-52481293D01*
X86110677Y-52537922D01*
X86110668Y-52537926D01*
X85912361Y-52630398D01*
X85912357Y-52630400D01*
X85733121Y-52755902D01*
X85578402Y-52910621D01*
X85452900Y-53089857D01*
X85452898Y-53089861D01*
X85382382Y-53241083D01*
X85336209Y-53293522D01*
X85269016Y-53312674D01*
X85202135Y-53292458D01*
X85157618Y-53241083D01*
X85122571Y-53165925D01*
X85087102Y-53089862D01*
X85087099Y-53089858D01*
X85087099Y-53089857D01*
X84961599Y-52910624D01*
X84910991Y-52860016D01*
X84806877Y-52755902D01*
X84633032Y-52634174D01*
X84627638Y-52630397D01*
X84528484Y-52584161D01*
X84429330Y-52537925D01*
X84429326Y-52537924D01*
X84429322Y-52537922D01*
X84217977Y-52481293D01*
X84000002Y-52462223D01*
X83999998Y-52462223D01*
X83872151Y-52473408D01*
X83782023Y-52481293D01*
X83782020Y-52481293D01*
X83570677Y-52537922D01*
X83570668Y-52537926D01*
X83372361Y-52630398D01*
X83372357Y-52630400D01*
X83193121Y-52755902D01*
X83038402Y-52910621D01*
X82912900Y-53089857D01*
X82912898Y-53089861D01*
X82842382Y-53241083D01*
X82796209Y-53293522D01*
X82729016Y-53312674D01*
X82662135Y-53292458D01*
X82617618Y-53241083D01*
X82582571Y-53165925D01*
X82547102Y-53089862D01*
X82547099Y-53089858D01*
X82547099Y-53089857D01*
X82421599Y-52910624D01*
X82370991Y-52860016D01*
X82266877Y-52755902D01*
X82093032Y-52634174D01*
X82087638Y-52630397D01*
X81988484Y-52584161D01*
X81889330Y-52537925D01*
X81889326Y-52537924D01*
X81889322Y-52537922D01*
X81677977Y-52481293D01*
X81460002Y-52462223D01*
X81459998Y-52462223D01*
X81332151Y-52473408D01*
X81242023Y-52481293D01*
X81242020Y-52481293D01*
X81030677Y-52537922D01*
X81030668Y-52537926D01*
X80832361Y-52630398D01*
X80832357Y-52630400D01*
X80653121Y-52755902D01*
X80498402Y-52910621D01*
X80372900Y-53089857D01*
X80372898Y-53089861D01*
X80302382Y-53241083D01*
X80256209Y-53293522D01*
X80189016Y-53312674D01*
X80122135Y-53292458D01*
X80077618Y-53241083D01*
X80042571Y-53165925D01*
X80007102Y-53089862D01*
X80007099Y-53089858D01*
X80007099Y-53089857D01*
X79881599Y-52910624D01*
X79830991Y-52860016D01*
X79726877Y-52755902D01*
X79553032Y-52634174D01*
X79547638Y-52630397D01*
X79448484Y-52584161D01*
X79349330Y-52537925D01*
X79349326Y-52537924D01*
X79349322Y-52537922D01*
X79137977Y-52481293D01*
X78920002Y-52462223D01*
X78919998Y-52462223D01*
X78792151Y-52473408D01*
X78702023Y-52481293D01*
X78702020Y-52481293D01*
X78490677Y-52537922D01*
X78490668Y-52537926D01*
X78292361Y-52630398D01*
X78292357Y-52630400D01*
X78113121Y-52755902D01*
X77958402Y-52910621D01*
X77832900Y-53089857D01*
X77832900Y-53089858D01*
X77832898Y-53089861D01*
X77832898Y-53089862D01*
X77828902Y-53098432D01*
X77762105Y-53241676D01*
X77715932Y-53294115D01*
X77648738Y-53313266D01*
X77581857Y-53293050D01*
X77537341Y-53241675D01*
X77466667Y-53090114D01*
X77466666Y-53090112D01*
X77423124Y-53027928D01*
X77423124Y-53027927D01*
X76780000Y-53671051D01*
X76780000Y-53664839D01*
X76752741Y-53563106D01*
X76700080Y-53471894D01*
X76625606Y-53397420D01*
X76534394Y-53344759D01*
X76432661Y-53317500D01*
X76426447Y-53317500D01*
X77069571Y-52674374D01*
X77007387Y-52630833D01*
X76809159Y-52538398D01*
X76809150Y-52538394D01*
X76597894Y-52481789D01*
X76597884Y-52481787D01*
X76380001Y-52462725D01*
X76379999Y-52462725D01*
X76162115Y-52481787D01*
X76162105Y-52481789D01*
X75950849Y-52538394D01*
X75950840Y-52538398D01*
X75752613Y-52630833D01*
X75690428Y-52674374D01*
X76333554Y-53317500D01*
X76327339Y-53317500D01*
X76225606Y-53344759D01*
X76134394Y-53397420D01*
X76059920Y-53471894D01*
X76007259Y-53563106D01*
X75980000Y-53664839D01*
X75980000Y-53671054D01*
X75336874Y-53027928D01*
X75293333Y-53090113D01*
X75200898Y-53288340D01*
X75200894Y-53288349D01*
X75144289Y-53499605D01*
X75144287Y-53499615D01*
X75125225Y-53717499D01*
X71018415Y-53717499D01*
X70949523Y-53674211D01*
X70779254Y-53614631D01*
X70779249Y-53614630D01*
X70600004Y-53594435D01*
X70599996Y-53594435D01*
X70420746Y-53614631D01*
X70420742Y-53614632D01*
X70360084Y-53635856D01*
X70339028Y-53641207D01*
X70323754Y-53643689D01*
X70323748Y-53643691D01*
X69924764Y-53768818D01*
X69887658Y-53774500D01*
X63410453Y-53774500D01*
X63343414Y-53754815D01*
X63322772Y-53738181D01*
X61992928Y-52408338D01*
X61992925Y-52408334D01*
X61992925Y-52408335D01*
X61985858Y-52401268D01*
X61985858Y-52401267D01*
X61898733Y-52314142D01*
X61898732Y-52314141D01*
X61898731Y-52314140D01*
X61847509Y-52279915D01*
X61796287Y-52245689D01*
X61796286Y-52245688D01*
X61796283Y-52245686D01*
X61796280Y-52245685D01*
X61715792Y-52212347D01*
X61682452Y-52198537D01*
X61682453Y-52198537D01*
X61668583Y-52195778D01*
X61612721Y-52184667D01*
X61587164Y-52179583D01*
X61561608Y-52174500D01*
X61561607Y-52174500D01*
X61561606Y-52174500D01*
X60510452Y-52174500D01*
X60443413Y-52154815D01*
X60422771Y-52138181D01*
X56747086Y-48462496D01*
X65594435Y-48462496D01*
X65594435Y-48462503D01*
X65614630Y-48641749D01*
X65614631Y-48641754D01*
X65674211Y-48812023D01*
X65739033Y-48915186D01*
X65770184Y-48964762D01*
X65897738Y-49092316D01*
X65959851Y-49131344D01*
X66005895Y-49160276D01*
X66050478Y-49188289D01*
X66220745Y-49247868D01*
X66220750Y-49247869D01*
X66399996Y-49268065D01*
X66400000Y-49268065D01*
X66400004Y-49268065D01*
X66579249Y-49247869D01*
X66579252Y-49247868D01*
X66579255Y-49247868D01*
X66749522Y-49188289D01*
X66902262Y-49092316D01*
X67029816Y-48964762D01*
X67125789Y-48812022D01*
X67185368Y-48641755D01*
X67186222Y-48634174D01*
X67205565Y-48462503D01*
X67205565Y-48462496D01*
X67185369Y-48283250D01*
X67185368Y-48283245D01*
X67168163Y-48234075D01*
X67125789Y-48112978D01*
X67029816Y-47960238D01*
X66902262Y-47832684D01*
X66844335Y-47796286D01*
X66749523Y-47736711D01*
X66579254Y-47677131D01*
X66579249Y-47677130D01*
X66400004Y-47656935D01*
X66399996Y-47656935D01*
X66220750Y-47677130D01*
X66220745Y-47677131D01*
X66050476Y-47736711D01*
X65897737Y-47832684D01*
X65770184Y-47960237D01*
X65674211Y-48112976D01*
X65614631Y-48283245D01*
X65614630Y-48283250D01*
X65594435Y-48462496D01*
X56747086Y-48462496D01*
X56538691Y-48254101D01*
X56505206Y-48192778D01*
X56510190Y-48123086D01*
X56552062Y-48067153D01*
X56617526Y-48042736D01*
X56640256Y-48043200D01*
X56749997Y-48055565D01*
X56750000Y-48055565D01*
X56750004Y-48055565D01*
X56929249Y-48035369D01*
X56929252Y-48035368D01*
X56929255Y-48035368D01*
X57099522Y-47975789D01*
X57252262Y-47879816D01*
X57379816Y-47752262D01*
X57475789Y-47599522D01*
X57535368Y-47429255D01*
X57551116Y-47289488D01*
X57555565Y-47250003D01*
X57555565Y-47249996D01*
X57535369Y-47070750D01*
X57535368Y-47070745D01*
X57503352Y-46979249D01*
X57475789Y-46900478D01*
X57379816Y-46747738D01*
X57252262Y-46620184D01*
X57173135Y-46570465D01*
X57099523Y-46524211D01*
X56929254Y-46464631D01*
X56929249Y-46464630D01*
X56750004Y-46444435D01*
X56749996Y-46444435D01*
X56570750Y-46464630D01*
X56570745Y-46464631D01*
X56400476Y-46524211D01*
X56247737Y-46620184D01*
X56120184Y-46747737D01*
X56024211Y-46900476D01*
X55964631Y-47070745D01*
X55964630Y-47070750D01*
X55944435Y-47249996D01*
X55944435Y-47250004D01*
X55956799Y-47359744D01*
X55944744Y-47428566D01*
X55897395Y-47479945D01*
X55829784Y-47497569D01*
X55763379Y-47475842D01*
X55745898Y-47461308D01*
X52634586Y-44349996D01*
X66644435Y-44349996D01*
X66644435Y-44350003D01*
X66664630Y-44529249D01*
X66664631Y-44529254D01*
X66724211Y-44699523D01*
X66808558Y-44833760D01*
X66820184Y-44852262D01*
X66947738Y-44979816D01*
X67100478Y-45075789D01*
X67211479Y-45114630D01*
X67270745Y-45135368D01*
X67270750Y-45135369D01*
X67449996Y-45155565D01*
X67450000Y-45155565D01*
X67450004Y-45155565D01*
X67629249Y-45135369D01*
X67629252Y-45135368D01*
X67629255Y-45135368D01*
X67799522Y-45075789D01*
X67952262Y-44979816D01*
X68079816Y-44852262D01*
X68175789Y-44699522D01*
X68235368Y-44529255D01*
X68235369Y-44529249D01*
X68255565Y-44350003D01*
X68255565Y-44349996D01*
X68235369Y-44170750D01*
X68235368Y-44170745D01*
X68175788Y-44000476D01*
X68133285Y-43932833D01*
X68079816Y-43847738D01*
X67952262Y-43720184D01*
X67872688Y-43670184D01*
X67799523Y-43624211D01*
X67629254Y-43564631D01*
X67629249Y-43564630D01*
X67450004Y-43544435D01*
X67449996Y-43544435D01*
X67270750Y-43564630D01*
X67270745Y-43564631D01*
X67100476Y-43624211D01*
X66947737Y-43720184D01*
X66820184Y-43847737D01*
X66724211Y-44000476D01*
X66664631Y-44170745D01*
X66664630Y-44170750D01*
X66644435Y-44349996D01*
X52634586Y-44349996D01*
X52526211Y-44241621D01*
X52492726Y-44180298D01*
X52490673Y-44167838D01*
X52485368Y-44120745D01*
X52425789Y-43950478D01*
X52403265Y-43914632D01*
X52329815Y-43797737D01*
X52202262Y-43670184D01*
X52049523Y-43574211D01*
X51879254Y-43514631D01*
X51879249Y-43514630D01*
X51700004Y-43494435D01*
X51699996Y-43494435D01*
X51520750Y-43514630D01*
X51520745Y-43514631D01*
X51350476Y-43574211D01*
X51197737Y-43670184D01*
X51070184Y-43797737D01*
X51070182Y-43797740D01*
X51003243Y-43904271D01*
X50950908Y-43950562D01*
X50881854Y-43961209D01*
X50818006Y-43932833D01*
X50810569Y-43925979D01*
X49284590Y-42400000D01*
X58394540Y-42400000D01*
X58414326Y-42588256D01*
X58414327Y-42588259D01*
X58472818Y-42768277D01*
X58472821Y-42768284D01*
X58567467Y-42932216D01*
X58627728Y-42999142D01*
X58694129Y-43072888D01*
X58847265Y-43184148D01*
X58847270Y-43184151D01*
X59020192Y-43261142D01*
X59020197Y-43261144D01*
X59205354Y-43300500D01*
X59205355Y-43300500D01*
X59394644Y-43300500D01*
X59394646Y-43300500D01*
X59579803Y-43261144D01*
X59752730Y-43184151D01*
X59905871Y-43072888D01*
X60032533Y-42932216D01*
X60108870Y-42799996D01*
X62794435Y-42799996D01*
X62794435Y-42800003D01*
X62814630Y-42979249D01*
X62814631Y-42979254D01*
X62874211Y-43149523D01*
X62944348Y-43261144D01*
X62970184Y-43302262D01*
X63097738Y-43429816D01*
X63161525Y-43469896D01*
X63232721Y-43514632D01*
X63250478Y-43525789D01*
X63377440Y-43570215D01*
X63420745Y-43585368D01*
X63420750Y-43585369D01*
X63599996Y-43605565D01*
X63600000Y-43605565D01*
X63600004Y-43605565D01*
X63779249Y-43585369D01*
X63779252Y-43585368D01*
X63779255Y-43585368D01*
X63949522Y-43525789D01*
X64102262Y-43429816D01*
X64229816Y-43302262D01*
X64325789Y-43149522D01*
X64385368Y-42979255D01*
X64390668Y-42932216D01*
X64405565Y-42800003D01*
X64405565Y-42799996D01*
X64385369Y-42620750D01*
X64385368Y-42620745D01*
X64325788Y-42450476D01*
X64285186Y-42385858D01*
X64229816Y-42297738D01*
X64102262Y-42170184D01*
X64058988Y-42142993D01*
X63949523Y-42074211D01*
X63779254Y-42014631D01*
X63779249Y-42014630D01*
X63600004Y-41994435D01*
X63599996Y-41994435D01*
X63420750Y-42014630D01*
X63420745Y-42014631D01*
X63250476Y-42074211D01*
X63097737Y-42170184D01*
X62970184Y-42297737D01*
X62874211Y-42450476D01*
X62814631Y-42620745D01*
X62814630Y-42620750D01*
X62794435Y-42799996D01*
X60108870Y-42799996D01*
X60127179Y-42768284D01*
X60185674Y-42588256D01*
X60205460Y-42400000D01*
X60185674Y-42211744D01*
X60127179Y-42031716D01*
X60032533Y-41867784D01*
X59905871Y-41727112D01*
X59905870Y-41727111D01*
X59752734Y-41615851D01*
X59752729Y-41615848D01*
X59579807Y-41538857D01*
X59579802Y-41538855D01*
X59434001Y-41507865D01*
X59394646Y-41499500D01*
X59205354Y-41499500D01*
X59172897Y-41506398D01*
X59020197Y-41538855D01*
X59020192Y-41538857D01*
X58847270Y-41615848D01*
X58847265Y-41615851D01*
X58694129Y-41727111D01*
X58567466Y-41867785D01*
X58472821Y-42031715D01*
X58472818Y-42031722D01*
X58419347Y-42196290D01*
X58414326Y-42211744D01*
X58394540Y-42400000D01*
X49284590Y-42400000D01*
X48561819Y-41677229D01*
X48528334Y-41615906D01*
X48525500Y-41589548D01*
X48525500Y-40868560D01*
X48545185Y-40801521D01*
X48597989Y-40755766D01*
X48667147Y-40745822D01*
X48730703Y-40774847D01*
X48766542Y-40827606D01*
X48774210Y-40849521D01*
X48844168Y-40960858D01*
X48870184Y-41002262D01*
X48997738Y-41129816D01*
X49150478Y-41225789D01*
X49281930Y-41271786D01*
X49320745Y-41285368D01*
X49320750Y-41285369D01*
X49499996Y-41305565D01*
X49500000Y-41305565D01*
X49500004Y-41305565D01*
X49679249Y-41285369D01*
X49679252Y-41285368D01*
X49679255Y-41285368D01*
X49849522Y-41225789D01*
X50002262Y-41129816D01*
X50129816Y-41002262D01*
X50225789Y-40849522D01*
X50285368Y-40679255D01*
X50286902Y-40665641D01*
X50305565Y-40500003D01*
X50305565Y-40499996D01*
X50285369Y-40320750D01*
X50285368Y-40320745D01*
X50263266Y-40257581D01*
X50225789Y-40150478D01*
X50129816Y-39997738D01*
X50002262Y-39870184D01*
X49969379Y-39849522D01*
X49849523Y-39774211D01*
X49679254Y-39714631D01*
X49679249Y-39714630D01*
X49500004Y-39694435D01*
X49499996Y-39694435D01*
X49320750Y-39714630D01*
X49320745Y-39714631D01*
X49150476Y-39774211D01*
X48997737Y-39870184D01*
X48870184Y-39997737D01*
X48774209Y-40150479D01*
X48766541Y-40172395D01*
X48725819Y-40229170D01*
X48660866Y-40254917D01*
X48592305Y-40241460D01*
X48541902Y-40193073D01*
X48525500Y-40131439D01*
X48525500Y-39400000D01*
X57394540Y-39400000D01*
X57414326Y-39588256D01*
X57414327Y-39588259D01*
X57472818Y-39768277D01*
X57472821Y-39768284D01*
X57567467Y-39932216D01*
X57630537Y-40002262D01*
X57694129Y-40072888D01*
X57847265Y-40184148D01*
X57847270Y-40184151D01*
X58020192Y-40261142D01*
X58020197Y-40261144D01*
X58205354Y-40300500D01*
X58205355Y-40300500D01*
X58394644Y-40300500D01*
X58394646Y-40300500D01*
X58579803Y-40261144D01*
X58752730Y-40184151D01*
X58905871Y-40072888D01*
X59032533Y-39932216D01*
X59127179Y-39768284D01*
X59149367Y-39699996D01*
X64794435Y-39699996D01*
X64794435Y-39700003D01*
X64814630Y-39879249D01*
X64814631Y-39879254D01*
X64874211Y-40049523D01*
X64951417Y-40172395D01*
X64970184Y-40202262D01*
X65097738Y-40329816D01*
X65250478Y-40425789D01*
X65377352Y-40470184D01*
X65420745Y-40485368D01*
X65420750Y-40485369D01*
X65599996Y-40505565D01*
X65600000Y-40505565D01*
X65600004Y-40505565D01*
X65779247Y-40485369D01*
X65779247Y-40485368D01*
X65779255Y-40485368D01*
X65859705Y-40457216D01*
X65874707Y-40453005D01*
X65900290Y-40447537D01*
X66278075Y-40308164D01*
X66320994Y-40300500D01*
X67368060Y-40300500D01*
X67435099Y-40320185D01*
X67480854Y-40372989D01*
X67490798Y-40442147D01*
X67461773Y-40505703D01*
X67455741Y-40512181D01*
X67370184Y-40597737D01*
X67274211Y-40750476D01*
X67214631Y-40920745D01*
X67214630Y-40920750D01*
X67194435Y-41099996D01*
X67194435Y-41100003D01*
X67214630Y-41279249D01*
X67214631Y-41279254D01*
X67274211Y-41449523D01*
X67330343Y-41538856D01*
X67370184Y-41602262D01*
X67497738Y-41729816D01*
X67500778Y-41731726D01*
X67650479Y-41825790D01*
X67655967Y-41828432D01*
X67663797Y-41831826D01*
X68031151Y-42023775D01*
X68061403Y-42045993D01*
X77523516Y-51508106D01*
X77523545Y-51508137D01*
X77613763Y-51598355D01*
X77613767Y-51598358D01*
X77716207Y-51666807D01*
X77716216Y-51666812D01*
X77732220Y-51673441D01*
X77830048Y-51713963D01*
X77859715Y-51719863D01*
X77886480Y-51725188D01*
X77886500Y-51725191D01*
X77886522Y-51725196D01*
X77950891Y-51737999D01*
X77950892Y-51738000D01*
X77950893Y-51738000D01*
X77950894Y-51738000D01*
X80387664Y-51738000D01*
X80424769Y-51743681D01*
X80823745Y-51868806D01*
X80853525Y-51877154D01*
X80853532Y-51877154D01*
X80858812Y-51878152D01*
X80858704Y-51878722D01*
X80878681Y-51883149D01*
X80920745Y-51897868D01*
X80956596Y-51901907D01*
X81099996Y-51918065D01*
X81100000Y-51918065D01*
X81100004Y-51918065D01*
X81279249Y-51897869D01*
X81279250Y-51897868D01*
X81279255Y-51897868D01*
X81339918Y-51876640D01*
X81360978Y-51871288D01*
X81376254Y-51868807D01*
X81775233Y-51743681D01*
X81812339Y-51738000D01*
X84449108Y-51738000D01*
X84449108Y-51737999D01*
X84513478Y-51725196D01*
X84513479Y-51725196D01*
X84527693Y-51722368D01*
X84569952Y-51713963D01*
X84607978Y-51698212D01*
X84683786Y-51666812D01*
X84750769Y-51622054D01*
X84786233Y-51598358D01*
X84873358Y-51511233D01*
X84873359Y-51511231D01*
X84880425Y-51504165D01*
X84880428Y-51504161D01*
X91340876Y-45043713D01*
X96599500Y-45043713D01*
X96599500Y-45256286D01*
X96626346Y-45425789D01*
X96632754Y-45466243D01*
X96653505Y-45530109D01*
X96698444Y-45668414D01*
X96794951Y-45857820D01*
X96919890Y-46029786D01*
X97070209Y-46180105D01*
X97070214Y-46180109D01*
X97234793Y-46299682D01*
X97277459Y-46355011D01*
X97283438Y-46424625D01*
X97250833Y-46486420D01*
X97234793Y-46500318D01*
X97070214Y-46619890D01*
X97070209Y-46619894D01*
X96919890Y-46770213D01*
X96794951Y-46942179D01*
X96698444Y-47131585D01*
X96632753Y-47333760D01*
X96599500Y-47543713D01*
X96599500Y-47756286D01*
X96631802Y-47960237D01*
X96632754Y-47966243D01*
X96680431Y-48112978D01*
X96698444Y-48168414D01*
X96794951Y-48357820D01*
X96919890Y-48529786D01*
X97070209Y-48680105D01*
X97070214Y-48680109D01*
X97234793Y-48799682D01*
X97277459Y-48855011D01*
X97283438Y-48924625D01*
X97250833Y-48986420D01*
X97234793Y-49000318D01*
X97070214Y-49119890D01*
X97070209Y-49119894D01*
X96919890Y-49270213D01*
X96794951Y-49442179D01*
X96698444Y-49631585D01*
X96698443Y-49631587D01*
X96698443Y-49631588D01*
X96692039Y-49651298D01*
X96632753Y-49833760D01*
X96608817Y-49984889D01*
X96599500Y-50043713D01*
X96599500Y-50256287D01*
X96632754Y-50466243D01*
X96697334Y-50665000D01*
X96698444Y-50668414D01*
X96794951Y-50857820D01*
X96919890Y-51029786D01*
X97058705Y-51168601D01*
X97092190Y-51229924D01*
X97087206Y-51299616D01*
X97045334Y-51355549D01*
X97036121Y-51361821D01*
X96881342Y-51457289D01*
X96757289Y-51581342D01*
X96665187Y-51730663D01*
X96665185Y-51730668D01*
X96660873Y-51743682D01*
X96610001Y-51897203D01*
X96610001Y-51897204D01*
X96610000Y-51897204D01*
X96599500Y-51999983D01*
X96599500Y-53300001D01*
X96599501Y-53300018D01*
X96610000Y-53402796D01*
X96610001Y-53402799D01*
X96655286Y-53539459D01*
X96665186Y-53569334D01*
X96757288Y-53718656D01*
X96881344Y-53842712D01*
X97030666Y-53934814D01*
X97197203Y-53989999D01*
X97299991Y-54000500D01*
X98850008Y-54000499D01*
X98952797Y-53989999D01*
X99119334Y-53934814D01*
X99268656Y-53842712D01*
X99392712Y-53718656D01*
X99484814Y-53569334D01*
X99539999Y-53402797D01*
X99550500Y-53300009D01*
X99550499Y-51999992D01*
X99539999Y-51897203D01*
X99484814Y-51730666D01*
X99392712Y-51581344D01*
X99268656Y-51457288D01*
X99119334Y-51365186D01*
X99119333Y-51365185D01*
X99113878Y-51361821D01*
X99067154Y-51309873D01*
X99055931Y-51240910D01*
X99083775Y-51176828D01*
X99091272Y-51168623D01*
X99230104Y-51029792D01*
X99286045Y-50952796D01*
X99355048Y-50857820D01*
X99355047Y-50857820D01*
X99355051Y-50857816D01*
X99451557Y-50668412D01*
X99517246Y-50466243D01*
X99550500Y-50256287D01*
X99550500Y-50043713D01*
X99517246Y-49833757D01*
X99451557Y-49631588D01*
X99409977Y-49549983D01*
X106999500Y-49549983D01*
X106999500Y-50850001D01*
X106999501Y-50850018D01*
X107010000Y-50952796D01*
X107010001Y-50952799D01*
X107065185Y-51119331D01*
X107065186Y-51119334D01*
X107140174Y-51240910D01*
X107157289Y-51268657D01*
X107281344Y-51392712D01*
X107436558Y-51488448D01*
X107483283Y-51540396D01*
X107494506Y-51609358D01*
X107466663Y-51673441D01*
X107459144Y-51681668D01*
X107320271Y-51820541D01*
X107195379Y-51992442D01*
X107098904Y-52181782D01*
X107033242Y-52383870D01*
X107033242Y-52383873D01*
X107022769Y-52450000D01*
X108066988Y-52450000D01*
X108034075Y-52507007D01*
X108000000Y-52634174D01*
X108000000Y-52765826D01*
X108034075Y-52892993D01*
X108066988Y-52950000D01*
X107022769Y-52950000D01*
X107033242Y-53016126D01*
X107033242Y-53016129D01*
X107098904Y-53218217D01*
X107195379Y-53407557D01*
X107320272Y-53579459D01*
X107320276Y-53579464D01*
X107470535Y-53729723D01*
X107470540Y-53729727D01*
X107642442Y-53854620D01*
X107831782Y-53951095D01*
X108033870Y-54016757D01*
X108243754Y-54050000D01*
X108250000Y-54050000D01*
X108250000Y-53133012D01*
X108307007Y-53165925D01*
X108434174Y-53200000D01*
X108565826Y-53200000D01*
X108692993Y-53165925D01*
X108750000Y-53133012D01*
X108750000Y-54050000D01*
X108756246Y-54050000D01*
X108966127Y-54016757D01*
X108966130Y-54016757D01*
X109168217Y-53951095D01*
X109357557Y-53854620D01*
X109529459Y-53729727D01*
X109529464Y-53729723D01*
X109679723Y-53579464D01*
X109679727Y-53579459D01*
X109804620Y-53407557D01*
X109901095Y-53218217D01*
X109966757Y-53016129D01*
X109966757Y-53016126D01*
X109977231Y-52950000D01*
X108933012Y-52950000D01*
X108965925Y-52892993D01*
X109000000Y-52765826D01*
X109000000Y-52634174D01*
X108965925Y-52507007D01*
X108933012Y-52450000D01*
X109977231Y-52450000D01*
X109966757Y-52383873D01*
X109966757Y-52383870D01*
X109901095Y-52181782D01*
X109804620Y-51992442D01*
X109679727Y-51820540D01*
X109679723Y-51820535D01*
X109540856Y-51681668D01*
X109507371Y-51620345D01*
X109512355Y-51550653D01*
X109554227Y-51494720D01*
X109563441Y-51488448D01*
X109569331Y-51484814D01*
X109569334Y-51484814D01*
X109718656Y-51392712D01*
X109842712Y-51268656D01*
X109934814Y-51119334D01*
X109989999Y-50952797D01*
X110000500Y-50850009D01*
X110000499Y-49549992D01*
X109989999Y-49447203D01*
X109934814Y-49280666D01*
X109842712Y-49131344D01*
X109718656Y-49007288D01*
X109615012Y-48943360D01*
X109569336Y-48915187D01*
X109569331Y-48915185D01*
X109567862Y-48914698D01*
X109402797Y-48860001D01*
X109402795Y-48860000D01*
X109300010Y-48849500D01*
X107699998Y-48849500D01*
X107699981Y-48849501D01*
X107597203Y-48860000D01*
X107597200Y-48860001D01*
X107430668Y-48915185D01*
X107430663Y-48915187D01*
X107281342Y-49007289D01*
X107157289Y-49131342D01*
X107065187Y-49280663D01*
X107065186Y-49280666D01*
X107010001Y-49447203D01*
X107010001Y-49447204D01*
X107010000Y-49447204D01*
X106999500Y-49549983D01*
X99409977Y-49549983D01*
X99355051Y-49442184D01*
X99355049Y-49442181D01*
X99355048Y-49442179D01*
X99230109Y-49270213D01*
X99079792Y-49119896D01*
X99079784Y-49119890D01*
X98915204Y-49000316D01*
X98872540Y-48944989D01*
X98866561Y-48875376D01*
X98899166Y-48813580D01*
X98915199Y-48799686D01*
X99079792Y-48680104D01*
X99230104Y-48529792D01*
X99230106Y-48529788D01*
X99230109Y-48529786D01*
X99355048Y-48357820D01*
X99355047Y-48357820D01*
X99355051Y-48357816D01*
X99451557Y-48168412D01*
X99517246Y-47966243D01*
X99550500Y-47756287D01*
X99550500Y-47543713D01*
X99517246Y-47333757D01*
X99451557Y-47131588D01*
X99355051Y-46942184D01*
X99355049Y-46942181D01*
X99355048Y-46942179D01*
X99230109Y-46770213D01*
X99079792Y-46619896D01*
X99066274Y-46610075D01*
X98915204Y-46500316D01*
X98872540Y-46444989D01*
X98866561Y-46375376D01*
X98899166Y-46313580D01*
X98915199Y-46299686D01*
X99079792Y-46180104D01*
X99230104Y-46029792D01*
X99230106Y-46029788D01*
X99230109Y-46029786D01*
X99355048Y-45857820D01*
X99355047Y-45857820D01*
X99355051Y-45857816D01*
X99451557Y-45668412D01*
X99517246Y-45466243D01*
X99550500Y-45256287D01*
X99550500Y-45043713D01*
X99517246Y-44833757D01*
X99451557Y-44631588D01*
X99355051Y-44442184D01*
X99355049Y-44442181D01*
X99355048Y-44442179D01*
X99230109Y-44270213D01*
X99079786Y-44119890D01*
X98907820Y-43994951D01*
X98718414Y-43898444D01*
X98718413Y-43898443D01*
X98718412Y-43898443D01*
X98516243Y-43832754D01*
X98516241Y-43832753D01*
X98516240Y-43832753D01*
X98354957Y-43807208D01*
X98306287Y-43799500D01*
X97843713Y-43799500D01*
X97795042Y-43807208D01*
X97633760Y-43832753D01*
X97431585Y-43898444D01*
X97242179Y-43994951D01*
X97070213Y-44119890D01*
X96919890Y-44270213D01*
X96794951Y-44442179D01*
X96698444Y-44631585D01*
X96632753Y-44833760D01*
X96599500Y-45043713D01*
X91340876Y-45043713D01*
X95423729Y-40960860D01*
X95423733Y-40960858D01*
X95510858Y-40873733D01*
X95579311Y-40771286D01*
X95579312Y-40771285D01*
X95617432Y-40679255D01*
X95626463Y-40657452D01*
X95650500Y-40536606D01*
X95650500Y-39699996D01*
X96281935Y-39699996D01*
X96281935Y-39700003D01*
X96302130Y-39879249D01*
X96302131Y-39879254D01*
X96361711Y-40049523D01*
X96438917Y-40172395D01*
X96457684Y-40202262D01*
X96585238Y-40329816D01*
X96737978Y-40425789D01*
X96864852Y-40470184D01*
X96908245Y-40485368D01*
X96908250Y-40485369D01*
X97087496Y-40505565D01*
X97087500Y-40505565D01*
X97087504Y-40505565D01*
X97266749Y-40485369D01*
X97266752Y-40485368D01*
X97266755Y-40485368D01*
X97437022Y-40425789D01*
X97589762Y-40329816D01*
X97717316Y-40202262D01*
X97813289Y-40049522D01*
X97872868Y-39879255D01*
X97884704Y-39774211D01*
X97893065Y-39700003D01*
X97893065Y-39699996D01*
X97872869Y-39520750D01*
X97872868Y-39520745D01*
X97865608Y-39499996D01*
X97813289Y-39350478D01*
X97794606Y-39320745D01*
X97746411Y-39244042D01*
X97717316Y-39197738D01*
X97589762Y-39070184D01*
X97550269Y-39045369D01*
X97437023Y-38974211D01*
X97266754Y-38914631D01*
X97266749Y-38914630D01*
X97087504Y-38894435D01*
X97087496Y-38894435D01*
X96908250Y-38914630D01*
X96908245Y-38914631D01*
X96737976Y-38974211D01*
X96585237Y-39070184D01*
X96457684Y-39197737D01*
X96361711Y-39350476D01*
X96302131Y-39520745D01*
X96302130Y-39520750D01*
X96281935Y-39699996D01*
X95650500Y-39699996D01*
X95650500Y-36008857D01*
X95650501Y-36008836D01*
X95650501Y-35879507D01*
X95626464Y-35758668D01*
X95626462Y-35758663D01*
X95625380Y-35756050D01*
X95620505Y-35744282D01*
X95603100Y-35702262D01*
X95602755Y-35701430D01*
X95579310Y-35644827D01*
X95510858Y-35542383D01*
X95510855Y-35542379D01*
X95178679Y-35210204D01*
X95161995Y-35189486D01*
X95136354Y-35149523D01*
X94928406Y-34825424D01*
X94923832Y-34818424D01*
X94923828Y-34818420D01*
X94922904Y-34817214D01*
X94916301Y-34807720D01*
X94911452Y-34800003D01*
X94850336Y-34702737D01*
X94722782Y-34575183D01*
X94650581Y-34529816D01*
X94570043Y-34479210D01*
X94399774Y-34419630D01*
X94399769Y-34419629D01*
X94220524Y-34399434D01*
X94220516Y-34399434D01*
X94041270Y-34419629D01*
X94041265Y-34419630D01*
X93870996Y-34479210D01*
X93718257Y-34575183D01*
X93590704Y-34702736D01*
X93494731Y-34855475D01*
X93435151Y-35025744D01*
X93435150Y-35025749D01*
X93414955Y-35204995D01*
X93414955Y-35205002D01*
X93435150Y-35384248D01*
X93435151Y-35384253D01*
X93494731Y-35554522D01*
X93587040Y-35701430D01*
X93606040Y-35768667D01*
X93585672Y-35835502D01*
X93569727Y-35855083D01*
X93520185Y-35904625D01*
X93514871Y-35909635D01*
X93474530Y-35945482D01*
X93463265Y-35955801D01*
X93462743Y-35956294D01*
X93416214Y-36006625D01*
X93415789Y-36007196D01*
X93404083Y-36020727D01*
X93201269Y-36223543D01*
X93201267Y-36223545D01*
X93176369Y-36248443D01*
X93114142Y-36310669D01*
X93088196Y-36349501D01*
X93088195Y-36349502D01*
X93045690Y-36413111D01*
X93045690Y-36413113D01*
X93045688Y-36413115D01*
X93045688Y-36413117D01*
X93030609Y-36449522D01*
X93010638Y-36497738D01*
X92998537Y-36526952D01*
X92998535Y-36526959D01*
X92974500Y-36647792D01*
X92974500Y-40602047D01*
X92954815Y-40669086D01*
X92938181Y-40689728D01*
X83954291Y-49673617D01*
X83892968Y-49707102D01*
X83829505Y-49704254D01*
X83725149Y-49671527D01*
X83676253Y-49656193D01*
X83656397Y-49650627D01*
X83646461Y-49647841D01*
X83641192Y-49646847D01*
X83641298Y-49646283D01*
X83621314Y-49641848D01*
X83579254Y-49627131D01*
X83400004Y-49606935D01*
X83399996Y-49606935D01*
X83220746Y-49627131D01*
X83220745Y-49627131D01*
X83168152Y-49645534D01*
X83144366Y-49651298D01*
X83134681Y-49652651D01*
X83134673Y-49652653D01*
X82730432Y-49769614D01*
X82695968Y-49774500D01*
X78910453Y-49774500D01*
X78843414Y-49754815D01*
X78822772Y-49738181D01*
X76810511Y-47725920D01*
X76777026Y-47664597D01*
X76782010Y-47594905D01*
X76823882Y-47538972D01*
X76889346Y-47514555D01*
X76943416Y-47524884D01*
X76943905Y-47523489D01*
X77120745Y-47585368D01*
X77120750Y-47585369D01*
X77299996Y-47605565D01*
X77300000Y-47605565D01*
X77300004Y-47605565D01*
X77479249Y-47585369D01*
X77479252Y-47585368D01*
X77479255Y-47585368D01*
X77649522Y-47525789D01*
X77802262Y-47429816D01*
X77929816Y-47302262D01*
X78025789Y-47149522D01*
X78085368Y-46979255D01*
X78089545Y-46942184D01*
X78105565Y-46800003D01*
X78105565Y-46799996D01*
X78085369Y-46620750D01*
X78085368Y-46620745D01*
X78055243Y-46534653D01*
X78025789Y-46450478D01*
X78009544Y-46424625D01*
X77929815Y-46297737D01*
X77802262Y-46170184D01*
X77649523Y-46074211D01*
X77479254Y-46014631D01*
X77479249Y-46014630D01*
X77300004Y-45994435D01*
X77299996Y-45994435D01*
X77120750Y-46014630D01*
X77120745Y-46014631D01*
X76950476Y-46074211D01*
X76797737Y-46170184D01*
X76670184Y-46297737D01*
X76574211Y-46450476D01*
X76514631Y-46620745D01*
X76514630Y-46620750D01*
X76494435Y-46799996D01*
X76494435Y-46800003D01*
X76514630Y-46979249D01*
X76514631Y-46979254D01*
X76576511Y-47156095D01*
X76574904Y-47156657D01*
X76584833Y-47216944D01*
X76557112Y-47281079D01*
X76499118Y-47320046D01*
X76429262Y-47321473D01*
X76374079Y-47289488D01*
X74984587Y-45899996D01*
X78394435Y-45899996D01*
X78394435Y-45900003D01*
X78414630Y-46079249D01*
X78414631Y-46079254D01*
X78474211Y-46249523D01*
X78509102Y-46305051D01*
X78570184Y-46402262D01*
X78697738Y-46529816D01*
X78788080Y-46586582D01*
X78842450Y-46620745D01*
X78850478Y-46625789D01*
X78980821Y-46671398D01*
X79020745Y-46685368D01*
X79020750Y-46685369D01*
X79199996Y-46705565D01*
X79200000Y-46705565D01*
X79200004Y-46705565D01*
X79379249Y-46685369D01*
X79379252Y-46685368D01*
X79379255Y-46685368D01*
X79549522Y-46625789D01*
X79702262Y-46529816D01*
X79829816Y-46402262D01*
X79925789Y-46249522D01*
X79985368Y-46079255D01*
X79985369Y-46079249D01*
X80005565Y-45900003D01*
X80005565Y-45899996D01*
X79985369Y-45720750D01*
X79985368Y-45720745D01*
X79978653Y-45701555D01*
X79925789Y-45550478D01*
X79829816Y-45397738D01*
X79702262Y-45270184D01*
X79680145Y-45256287D01*
X79549523Y-45174211D01*
X79379254Y-45114631D01*
X79379249Y-45114630D01*
X79200004Y-45094435D01*
X79199996Y-45094435D01*
X79020750Y-45114630D01*
X79020745Y-45114631D01*
X78850476Y-45174211D01*
X78697737Y-45270184D01*
X78570184Y-45397737D01*
X78474211Y-45550476D01*
X78414631Y-45720745D01*
X78414630Y-45720750D01*
X78394435Y-45899996D01*
X74984587Y-45899996D01*
X73784587Y-44699996D01*
X82194435Y-44699996D01*
X82194435Y-44700003D01*
X82214630Y-44879249D01*
X82214631Y-44879254D01*
X82274211Y-45049523D01*
X82328152Y-45135369D01*
X82370184Y-45202262D01*
X82497738Y-45329816D01*
X82577265Y-45379786D01*
X82605833Y-45397737D01*
X82650478Y-45425789D01*
X82766089Y-45466243D01*
X82820745Y-45485368D01*
X82820750Y-45485369D01*
X82999996Y-45505565D01*
X83000000Y-45505565D01*
X83000004Y-45505565D01*
X83179249Y-45485369D01*
X83179252Y-45485368D01*
X83179255Y-45485368D01*
X83349522Y-45425789D01*
X83502262Y-45329816D01*
X83629816Y-45202262D01*
X83725789Y-45049522D01*
X83785368Y-44879255D01*
X83785369Y-44879249D01*
X83805565Y-44700003D01*
X83805565Y-44699996D01*
X84894435Y-44699996D01*
X84894435Y-44700003D01*
X84914630Y-44879249D01*
X84914631Y-44879254D01*
X84974211Y-45049523D01*
X85028152Y-45135369D01*
X85070184Y-45202262D01*
X85197738Y-45329816D01*
X85277265Y-45379786D01*
X85305833Y-45397737D01*
X85350478Y-45425789D01*
X85466089Y-45466243D01*
X85520745Y-45485368D01*
X85520750Y-45485369D01*
X85699996Y-45505565D01*
X85700000Y-45505565D01*
X85700004Y-45505565D01*
X85879249Y-45485369D01*
X85879252Y-45485368D01*
X85879255Y-45485368D01*
X86049522Y-45425789D01*
X86202262Y-45329816D01*
X86329816Y-45202262D01*
X86425789Y-45049522D01*
X86485368Y-44879255D01*
X86485369Y-44879249D01*
X86505565Y-44700003D01*
X86505565Y-44699996D01*
X86485369Y-44520750D01*
X86485368Y-44520745D01*
X86457878Y-44442184D01*
X86425789Y-44350478D01*
X86329816Y-44197738D01*
X86202262Y-44070184D01*
X86091326Y-44000478D01*
X86049523Y-43974211D01*
X85879254Y-43914631D01*
X85879249Y-43914630D01*
X85700004Y-43894435D01*
X85699996Y-43894435D01*
X85520750Y-43914630D01*
X85520745Y-43914631D01*
X85350476Y-43974211D01*
X85197737Y-44070184D01*
X85070184Y-44197737D01*
X84974211Y-44350476D01*
X84914631Y-44520745D01*
X84914630Y-44520750D01*
X84894435Y-44699996D01*
X83805565Y-44699996D01*
X83785369Y-44520750D01*
X83785368Y-44520745D01*
X83757878Y-44442184D01*
X83725789Y-44350478D01*
X83629816Y-44197738D01*
X83502262Y-44070184D01*
X83391326Y-44000478D01*
X83349523Y-43974211D01*
X83179254Y-43914631D01*
X83179249Y-43914630D01*
X83000004Y-43894435D01*
X82999996Y-43894435D01*
X82820750Y-43914630D01*
X82820745Y-43914631D01*
X82650476Y-43974211D01*
X82497737Y-44070184D01*
X82370184Y-44197737D01*
X82274211Y-44350476D01*
X82214631Y-44520745D01*
X82214630Y-44520750D01*
X82194435Y-44699996D01*
X73784587Y-44699996D01*
X68992644Y-39908054D01*
X73102493Y-39908054D01*
X73102493Y-39908061D01*
X73122688Y-40087307D01*
X73122689Y-40087312D01*
X73182269Y-40257581D01*
X73278242Y-40410320D01*
X73405796Y-40537874D01*
X73558536Y-40633847D01*
X73688302Y-40679254D01*
X73728803Y-40693426D01*
X73728808Y-40693427D01*
X73908054Y-40713623D01*
X73908058Y-40713623D01*
X73908062Y-40713623D01*
X74087307Y-40693427D01*
X74087310Y-40693426D01*
X74087313Y-40693426D01*
X74257580Y-40633847D01*
X74410320Y-40537874D01*
X74537874Y-40410320D01*
X74633847Y-40257580D01*
X74693426Y-40087313D01*
X74693427Y-40087307D01*
X74713623Y-39908061D01*
X74713623Y-39908054D01*
X74693427Y-39728808D01*
X74693426Y-39728803D01*
X74657379Y-39625788D01*
X74633847Y-39558536D01*
X74615800Y-39529815D01*
X74597063Y-39499996D01*
X85094435Y-39499996D01*
X85094435Y-39500003D01*
X85114630Y-39679249D01*
X85114631Y-39679254D01*
X85174211Y-39849523D01*
X85226170Y-39932214D01*
X85270184Y-40002262D01*
X85397738Y-40129816D01*
X85430623Y-40150479D01*
X85534755Y-40215910D01*
X85550478Y-40225789D01*
X85651511Y-40261142D01*
X85720745Y-40285368D01*
X85720750Y-40285369D01*
X85899996Y-40305565D01*
X85900000Y-40305565D01*
X85900004Y-40305565D01*
X86079249Y-40285369D01*
X86079252Y-40285368D01*
X86079255Y-40285368D01*
X86249522Y-40225789D01*
X86402262Y-40129816D01*
X86529816Y-40002262D01*
X86625789Y-39849522D01*
X86685368Y-39679255D01*
X86691392Y-39625789D01*
X86705565Y-39500003D01*
X86705565Y-39499996D01*
X86685369Y-39320750D01*
X86685368Y-39320745D01*
X86672277Y-39283334D01*
X86625789Y-39150478D01*
X86608327Y-39122688D01*
X86562340Y-39049500D01*
X86529816Y-38997738D01*
X86402262Y-38870184D01*
X86318012Y-38817246D01*
X86249523Y-38774211D01*
X86079254Y-38714631D01*
X86079249Y-38714630D01*
X85900004Y-38694435D01*
X85899996Y-38694435D01*
X85720750Y-38714630D01*
X85720745Y-38714631D01*
X85550476Y-38774211D01*
X85397737Y-38870184D01*
X85270184Y-38997737D01*
X85174211Y-39150476D01*
X85114631Y-39320745D01*
X85114630Y-39320750D01*
X85094435Y-39499996D01*
X74597063Y-39499996D01*
X74537873Y-39405795D01*
X74410320Y-39278242D01*
X74257581Y-39182269D01*
X74087312Y-39122689D01*
X74087307Y-39122688D01*
X73908062Y-39102493D01*
X73908054Y-39102493D01*
X73728808Y-39122688D01*
X73728803Y-39122689D01*
X73558534Y-39182269D01*
X73405795Y-39278242D01*
X73278242Y-39405795D01*
X73182269Y-39558534D01*
X73122689Y-39728803D01*
X73122688Y-39728808D01*
X73102493Y-39908054D01*
X68992644Y-39908054D01*
X68367928Y-39283338D01*
X68367925Y-39283334D01*
X68367925Y-39283335D01*
X68360858Y-39276268D01*
X68360858Y-39276267D01*
X68273733Y-39189142D01*
X68273732Y-39189141D01*
X68273731Y-39189140D01*
X68222509Y-39154915D01*
X68174282Y-39122690D01*
X68171286Y-39120688D01*
X68090688Y-39087304D01*
X68090686Y-39087303D01*
X68090685Y-39087302D01*
X68057454Y-39073538D01*
X68057455Y-39073538D01*
X68057452Y-39073537D01*
X68057448Y-39073536D01*
X68057444Y-39073535D01*
X67984552Y-39059036D01*
X67984551Y-39059036D01*
X67936611Y-39049500D01*
X67936607Y-39049500D01*
X67936606Y-39049500D01*
X66295846Y-39049500D01*
X66264105Y-39045369D01*
X65854065Y-38936789D01*
X65842011Y-38933845D01*
X65835075Y-38932152D01*
X65835073Y-38932151D01*
X65830192Y-38930960D01*
X65830209Y-38930889D01*
X65814034Y-38926802D01*
X65779251Y-38914630D01*
X65600004Y-38894435D01*
X65599996Y-38894435D01*
X65420750Y-38914630D01*
X65420745Y-38914631D01*
X65250476Y-38974211D01*
X65097737Y-39070184D01*
X64970184Y-39197737D01*
X64874211Y-39350476D01*
X64814631Y-39520745D01*
X64814630Y-39520750D01*
X64794435Y-39699996D01*
X59149367Y-39699996D01*
X59185674Y-39588256D01*
X59205460Y-39400000D01*
X59185674Y-39211744D01*
X59127179Y-39031716D01*
X59032533Y-38867784D01*
X58905871Y-38727112D01*
X58905870Y-38727111D01*
X58752734Y-38615851D01*
X58752729Y-38615848D01*
X58579807Y-38538857D01*
X58579802Y-38538855D01*
X58423180Y-38505565D01*
X58394646Y-38499500D01*
X58205354Y-38499500D01*
X58176820Y-38505565D01*
X58020197Y-38538855D01*
X58020192Y-38538857D01*
X57847270Y-38615848D01*
X57847265Y-38615851D01*
X57694129Y-38727111D01*
X57567466Y-38867785D01*
X57472821Y-39031715D01*
X57472818Y-39031722D01*
X57414327Y-39211740D01*
X57414326Y-39211744D01*
X57394540Y-39400000D01*
X48525500Y-39400000D01*
X48525500Y-37744854D01*
X48538424Y-37699996D01*
X55394435Y-37699996D01*
X55394435Y-37700003D01*
X55414630Y-37879249D01*
X55414631Y-37879254D01*
X55474211Y-38049523D01*
X55550898Y-38171569D01*
X55570184Y-38202262D01*
X55697738Y-38329816D01*
X55777265Y-38379786D01*
X55805833Y-38397737D01*
X55850478Y-38425789D01*
X56020745Y-38485368D01*
X56020750Y-38485369D01*
X56199996Y-38505565D01*
X56200000Y-38505565D01*
X56200004Y-38505565D01*
X56379249Y-38485369D01*
X56379252Y-38485368D01*
X56379255Y-38485368D01*
X56549522Y-38425789D01*
X56702262Y-38329816D01*
X56829816Y-38202262D01*
X56925789Y-38049522D01*
X56985368Y-37879255D01*
X56990784Y-37831188D01*
X57005565Y-37700003D01*
X57005565Y-37699996D01*
X56985369Y-37520750D01*
X56985368Y-37520745D01*
X56925789Y-37350478D01*
X56925188Y-37349522D01*
X56894069Y-37299996D01*
X80994435Y-37299996D01*
X80994435Y-37300003D01*
X81014630Y-37479249D01*
X81014631Y-37479254D01*
X81074211Y-37649523D01*
X81124662Y-37729815D01*
X81170184Y-37802262D01*
X81297738Y-37929816D01*
X81313908Y-37939976D01*
X81438740Y-38018414D01*
X81450478Y-38025789D01*
X81518306Y-38049523D01*
X81620745Y-38085368D01*
X81620750Y-38085369D01*
X81799996Y-38105565D01*
X81800000Y-38105565D01*
X81800004Y-38105565D01*
X81979249Y-38085369D01*
X81979252Y-38085368D01*
X81979255Y-38085368D01*
X82149522Y-38025789D01*
X82302262Y-37929816D01*
X82429816Y-37802262D01*
X82525789Y-37649522D01*
X82585368Y-37479255D01*
X82588718Y-37449522D01*
X82605565Y-37300003D01*
X82605565Y-37299996D01*
X82585369Y-37120750D01*
X82585368Y-37120745D01*
X82549756Y-37018973D01*
X82525789Y-36950478D01*
X82507106Y-36920745D01*
X82462955Y-36850478D01*
X82429816Y-36797738D01*
X82302262Y-36670184D01*
X82295557Y-36665971D01*
X82149523Y-36574211D01*
X81979254Y-36514631D01*
X81979249Y-36514630D01*
X81800004Y-36494435D01*
X81799996Y-36494435D01*
X81620750Y-36514630D01*
X81620745Y-36514631D01*
X81450476Y-36574211D01*
X81297737Y-36670184D01*
X81170184Y-36797737D01*
X81074211Y-36950476D01*
X81014631Y-37120745D01*
X81014630Y-37120750D01*
X80994435Y-37299996D01*
X56894069Y-37299996D01*
X56831237Y-37200000D01*
X56829816Y-37197738D01*
X56702262Y-37070184D01*
X56549523Y-36974211D01*
X56379254Y-36914631D01*
X56379249Y-36914630D01*
X56200004Y-36894435D01*
X56199996Y-36894435D01*
X56020750Y-36914630D01*
X56020745Y-36914631D01*
X55850476Y-36974211D01*
X55697737Y-37070184D01*
X55570184Y-37197737D01*
X55474211Y-37350476D01*
X55414631Y-37520745D01*
X55414630Y-37520750D01*
X55394435Y-37699996D01*
X48538424Y-37699996D01*
X48544507Y-37678881D01*
X48575338Y-37629815D01*
X48625789Y-37549522D01*
X48685368Y-37379255D01*
X48685369Y-37379249D01*
X48705565Y-37200003D01*
X48705565Y-37199996D01*
X48685369Y-37020750D01*
X48685368Y-37020745D01*
X48673161Y-36985859D01*
X48625789Y-36850478D01*
X48607106Y-36820745D01*
X48586582Y-36788080D01*
X48529816Y-36697738D01*
X48402262Y-36570184D01*
X48333459Y-36526952D01*
X48249523Y-36474211D01*
X48079254Y-36414631D01*
X48079249Y-36414630D01*
X47900004Y-36394435D01*
X47899996Y-36394435D01*
X47720750Y-36414630D01*
X47720745Y-36414631D01*
X47550476Y-36474211D01*
X47397737Y-36570184D01*
X47270184Y-36697737D01*
X47174211Y-36850476D01*
X47114631Y-37020745D01*
X47114630Y-37020750D01*
X47094435Y-37199996D01*
X38500500Y-37199996D01*
X38500500Y-35293713D01*
X40824500Y-35293713D01*
X40824500Y-35506287D01*
X40830217Y-35542383D01*
X40855539Y-35702263D01*
X40857754Y-35716243D01*
X40920591Y-35909635D01*
X40923444Y-35918414D01*
X41019951Y-36107820D01*
X41144890Y-36279786D01*
X41295213Y-36430109D01*
X41467179Y-36555048D01*
X41467181Y-36555049D01*
X41467184Y-36555051D01*
X41656588Y-36651557D01*
X41858757Y-36717246D01*
X42068713Y-36750500D01*
X42068714Y-36750500D01*
X42581286Y-36750500D01*
X42581287Y-36750500D01*
X42791243Y-36717246D01*
X42993412Y-36651557D01*
X43182816Y-36555051D01*
X43221493Y-36526951D01*
X43354786Y-36430109D01*
X43354788Y-36430106D01*
X43354792Y-36430104D01*
X43505104Y-36279792D01*
X43505106Y-36279788D01*
X43505109Y-36279786D01*
X43630048Y-36107820D01*
X43630047Y-36107820D01*
X43630051Y-36107816D01*
X43726557Y-35918412D01*
X43792246Y-35716243D01*
X43825500Y-35506287D01*
X43825500Y-35293713D01*
X43792246Y-35083757D01*
X43726557Y-34881588D01*
X43684984Y-34799996D01*
X72694435Y-34799996D01*
X72694435Y-34800003D01*
X72714630Y-34979249D01*
X72714631Y-34979254D01*
X72774211Y-35149523D01*
X72809071Y-35205002D01*
X72870184Y-35302262D01*
X72997738Y-35429816D01*
X73150478Y-35525789D01*
X73320745Y-35585368D01*
X73320750Y-35585369D01*
X73499996Y-35605565D01*
X73500000Y-35605565D01*
X73500004Y-35605565D01*
X73679249Y-35585369D01*
X73679252Y-35585368D01*
X73679255Y-35585368D01*
X73849522Y-35525789D01*
X74002262Y-35429816D01*
X74129816Y-35302262D01*
X74225789Y-35149522D01*
X74278110Y-34999996D01*
X78894435Y-34999996D01*
X78894435Y-35000003D01*
X78914630Y-35179249D01*
X78914631Y-35179254D01*
X78974211Y-35349523D01*
X79033043Y-35443153D01*
X79070184Y-35502262D01*
X79197738Y-35629816D01*
X79288080Y-35686582D01*
X79335285Y-35716243D01*
X79350478Y-35725789D01*
X79478781Y-35770684D01*
X79520745Y-35785368D01*
X79520750Y-35785369D01*
X79699996Y-35805565D01*
X79700000Y-35805565D01*
X79700004Y-35805565D01*
X79879249Y-35785369D01*
X79879252Y-35785368D01*
X79879255Y-35785368D01*
X80049522Y-35725789D01*
X80202262Y-35629816D01*
X80329816Y-35502262D01*
X80425789Y-35349522D01*
X80478110Y-35199996D01*
X85194435Y-35199996D01*
X85194435Y-35200003D01*
X85214630Y-35379249D01*
X85214631Y-35379254D01*
X85274211Y-35549523D01*
X85369661Y-35701430D01*
X85370184Y-35702262D01*
X85497738Y-35829816D01*
X85588080Y-35886582D01*
X85642450Y-35920745D01*
X85650478Y-35925789D01*
X85754846Y-35962309D01*
X85820745Y-35985368D01*
X85820750Y-35985369D01*
X85927776Y-35997428D01*
X85992190Y-36024494D01*
X86031746Y-36082089D01*
X86033883Y-36151926D01*
X85997925Y-36211833D01*
X85954848Y-36237689D01*
X85850480Y-36274209D01*
X85697737Y-36370184D01*
X85570184Y-36497737D01*
X85474211Y-36650476D01*
X85414631Y-36820745D01*
X85414630Y-36820750D01*
X85394435Y-36999996D01*
X85394435Y-37000003D01*
X85414630Y-37179249D01*
X85414631Y-37179254D01*
X85474211Y-37349523D01*
X85501978Y-37393713D01*
X85570184Y-37502262D01*
X85697738Y-37629816D01*
X85850478Y-37725789D01*
X85861984Y-37729815D01*
X86020745Y-37785368D01*
X86020750Y-37785369D01*
X86199996Y-37805565D01*
X86200000Y-37805565D01*
X86200004Y-37805565D01*
X86379249Y-37785369D01*
X86379252Y-37785368D01*
X86379255Y-37785368D01*
X86549522Y-37725789D01*
X86702262Y-37629816D01*
X86829816Y-37502262D01*
X86925789Y-37349522D01*
X86985368Y-37179255D01*
X86991960Y-37120750D01*
X87005565Y-37000003D01*
X87005565Y-36999996D01*
X86985369Y-36820750D01*
X86985368Y-36820745D01*
X86983511Y-36815439D01*
X86925789Y-36650478D01*
X86924104Y-36647797D01*
X86869950Y-36561611D01*
X86829816Y-36497738D01*
X86702262Y-36370184D01*
X86613852Y-36314632D01*
X86549523Y-36274211D01*
X86379254Y-36214631D01*
X86379250Y-36214630D01*
X86272222Y-36202571D01*
X86207808Y-36175504D01*
X86168253Y-36117909D01*
X86166116Y-36048072D01*
X86202075Y-35988166D01*
X86245149Y-35962310D01*
X86349522Y-35925789D01*
X86502262Y-35829816D01*
X86629816Y-35702262D01*
X86725789Y-35549522D01*
X86785368Y-35379255D01*
X86785551Y-35377633D01*
X86805565Y-35200003D01*
X86805565Y-35199996D01*
X86785369Y-35020750D01*
X86785367Y-35020740D01*
X86760841Y-34950653D01*
X86755644Y-34935801D01*
X86752082Y-34866023D01*
X86786811Y-34805395D01*
X86806708Y-34789856D01*
X86902262Y-34729816D01*
X87029816Y-34602262D01*
X87125789Y-34449522D01*
X87185368Y-34279255D01*
X87185369Y-34279249D01*
X87205565Y-34100003D01*
X87205565Y-34099996D01*
X87185369Y-33920750D01*
X87185368Y-33920745D01*
X87149809Y-33819124D01*
X87125789Y-33750478D01*
X87107106Y-33720745D01*
X87064345Y-33652690D01*
X87029816Y-33597738D01*
X86902262Y-33470184D01*
X86834565Y-33427647D01*
X86749523Y-33374211D01*
X86579254Y-33314631D01*
X86579249Y-33314630D01*
X86400004Y-33294435D01*
X86399996Y-33294435D01*
X86220750Y-33314630D01*
X86220745Y-33314631D01*
X86050476Y-33374211D01*
X85897737Y-33470184D01*
X85770184Y-33597737D01*
X85674211Y-33750476D01*
X85614631Y-33920745D01*
X85614630Y-33920750D01*
X85594435Y-34099996D01*
X85594435Y-34100003D01*
X85614630Y-34279249D01*
X85614632Y-34279257D01*
X85644355Y-34364200D01*
X85647916Y-34433978D01*
X85613187Y-34494606D01*
X85593285Y-34510148D01*
X85497737Y-34570184D01*
X85370184Y-34697737D01*
X85274211Y-34850476D01*
X85214631Y-35020745D01*
X85214630Y-35020750D01*
X85194435Y-35199996D01*
X80478110Y-35199996D01*
X80485368Y-35179255D01*
X80502664Y-35025749D01*
X80505565Y-35000003D01*
X80505565Y-34999996D01*
X80485369Y-34820750D01*
X80485368Y-34820745D01*
X80461906Y-34753694D01*
X80425789Y-34650478D01*
X80407106Y-34620745D01*
X80343935Y-34520208D01*
X80329816Y-34497738D01*
X80202262Y-34370184D01*
X80192739Y-34364200D01*
X80049523Y-34274211D01*
X79879254Y-34214631D01*
X79879249Y-34214630D01*
X79700004Y-34194435D01*
X79699996Y-34194435D01*
X79520750Y-34214630D01*
X79520745Y-34214631D01*
X79350476Y-34274211D01*
X79197737Y-34370184D01*
X79070184Y-34497737D01*
X78974211Y-34650476D01*
X78914631Y-34820745D01*
X78914630Y-34820750D01*
X78894435Y-34999996D01*
X74278110Y-34999996D01*
X74285368Y-34979255D01*
X74290264Y-34935802D01*
X74305565Y-34800003D01*
X74305565Y-34799996D01*
X74285369Y-34620750D01*
X74285368Y-34620745D01*
X74225789Y-34450478D01*
X74225188Y-34449522D01*
X74129815Y-34297737D01*
X74002262Y-34170184D01*
X73849523Y-34074211D01*
X73679254Y-34014631D01*
X73679249Y-34014630D01*
X73500004Y-33994435D01*
X73499996Y-33994435D01*
X73320750Y-34014630D01*
X73320745Y-34014631D01*
X73150476Y-34074211D01*
X72997737Y-34170184D01*
X72870184Y-34297737D01*
X72774211Y-34450476D01*
X72714631Y-34620745D01*
X72714630Y-34620750D01*
X72694435Y-34799996D01*
X43684984Y-34799996D01*
X43630051Y-34692184D01*
X43630049Y-34692181D01*
X43630048Y-34692179D01*
X43505109Y-34520213D01*
X43365931Y-34381035D01*
X43332446Y-34319712D01*
X43337430Y-34250020D01*
X43379302Y-34194087D01*
X43388516Y-34187815D01*
X43543343Y-34092317D01*
X43667315Y-33968345D01*
X43709473Y-33899996D01*
X69494435Y-33899996D01*
X69494435Y-33900003D01*
X69514630Y-34079249D01*
X69514631Y-34079254D01*
X69574211Y-34249523D01*
X69646268Y-34364200D01*
X69670184Y-34402262D01*
X69797738Y-34529816D01*
X69861983Y-34570184D01*
X69942450Y-34620745D01*
X69950478Y-34625789D01*
X70120745Y-34685368D01*
X70120750Y-34685369D01*
X70299996Y-34705565D01*
X70300000Y-34705565D01*
X70300004Y-34705565D01*
X70479249Y-34685369D01*
X70479252Y-34685368D01*
X70479255Y-34685368D01*
X70649522Y-34625789D01*
X70802262Y-34529816D01*
X70929816Y-34402262D01*
X71025789Y-34249522D01*
X71085368Y-34079255D01*
X71085369Y-34079249D01*
X71105565Y-33900003D01*
X71105565Y-33899996D01*
X71085369Y-33720750D01*
X71085368Y-33720745D01*
X71061557Y-33652697D01*
X71025789Y-33550478D01*
X71023029Y-33546086D01*
X70936172Y-33407854D01*
X70929816Y-33397738D01*
X70802262Y-33270184D01*
X70769379Y-33249522D01*
X70649523Y-33174211D01*
X70479254Y-33114631D01*
X70479249Y-33114630D01*
X70300004Y-33094435D01*
X70299996Y-33094435D01*
X70120750Y-33114630D01*
X70120745Y-33114631D01*
X69950476Y-33174211D01*
X69797737Y-33270184D01*
X69670184Y-33397737D01*
X69574211Y-33550476D01*
X69514631Y-33720745D01*
X69514630Y-33720750D01*
X69494435Y-33899996D01*
X43709473Y-33899996D01*
X43759356Y-33819124D01*
X43759358Y-33819119D01*
X43814505Y-33652697D01*
X43814506Y-33652690D01*
X43824999Y-33549986D01*
X43825000Y-33549973D01*
X43825000Y-33150000D01*
X42758012Y-33150000D01*
X42790925Y-33092993D01*
X42825000Y-32965826D01*
X42825000Y-32899996D01*
X51264435Y-32899996D01*
X51264435Y-32900003D01*
X51284630Y-33079249D01*
X51284631Y-33079254D01*
X51344211Y-33249523D01*
X51400201Y-33338630D01*
X51440184Y-33402262D01*
X51567738Y-33529816D01*
X51658080Y-33586582D01*
X51675833Y-33597737D01*
X51720478Y-33625789D01*
X51797357Y-33652690D01*
X51890745Y-33685368D01*
X51890750Y-33685369D01*
X52069996Y-33705565D01*
X52070000Y-33705565D01*
X52070004Y-33705565D01*
X52249249Y-33685369D01*
X52249252Y-33685368D01*
X52249255Y-33685368D01*
X52419522Y-33625789D01*
X52572262Y-33529816D01*
X52699816Y-33402262D01*
X52795789Y-33249522D01*
X52855368Y-33079255D01*
X52855369Y-33079249D01*
X52875565Y-32900003D01*
X52875565Y-32899996D01*
X52855369Y-32720750D01*
X52855368Y-32720745D01*
X52830446Y-32649522D01*
X52795789Y-32550478D01*
X52699816Y-32397738D01*
X52602074Y-32299996D01*
X80494435Y-32299996D01*
X80494435Y-32300003D01*
X80514630Y-32479249D01*
X80514631Y-32479254D01*
X80574211Y-32649523D01*
X80670184Y-32802262D01*
X80797738Y-32929816D01*
X80855048Y-32965826D01*
X80948461Y-33024522D01*
X80950478Y-33025789D01*
X81088014Y-33073915D01*
X81120745Y-33085368D01*
X81120750Y-33085369D01*
X81299996Y-33105565D01*
X81300000Y-33105565D01*
X81300004Y-33105565D01*
X81479249Y-33085369D01*
X81479252Y-33085368D01*
X81479255Y-33085368D01*
X81649522Y-33025789D01*
X81802262Y-32929816D01*
X81929816Y-32802262D01*
X82025789Y-32649522D01*
X82085368Y-32479255D01*
X82094553Y-32397737D01*
X82105565Y-32300003D01*
X82105565Y-32299996D01*
X82085369Y-32120750D01*
X82085368Y-32120745D01*
X82036425Y-31980875D01*
X82025789Y-31950478D01*
X82024992Y-31949210D01*
X81972900Y-31866306D01*
X81929816Y-31797738D01*
X81802262Y-31670184D01*
X81649523Y-31574211D01*
X81479254Y-31514631D01*
X81479249Y-31514630D01*
X81300004Y-31494435D01*
X81299996Y-31494435D01*
X81120750Y-31514630D01*
X81120745Y-31514631D01*
X80950476Y-31574211D01*
X80797737Y-31670184D01*
X80670184Y-31797737D01*
X80574211Y-31950476D01*
X80514631Y-32120745D01*
X80514630Y-32120750D01*
X80494435Y-32299996D01*
X52602074Y-32299996D01*
X52572262Y-32270184D01*
X52482359Y-32213694D01*
X52419523Y-32174211D01*
X52249254Y-32114631D01*
X52249249Y-32114630D01*
X52070004Y-32094435D01*
X52069996Y-32094435D01*
X51890750Y-32114630D01*
X51890745Y-32114631D01*
X51720476Y-32174211D01*
X51567737Y-32270184D01*
X51440184Y-32397737D01*
X51344211Y-32550476D01*
X51284631Y-32720745D01*
X51284630Y-32720750D01*
X51264435Y-32899996D01*
X42825000Y-32899996D01*
X42825000Y-32834174D01*
X42790925Y-32707007D01*
X42758012Y-32650000D01*
X43824999Y-32650000D01*
X43824999Y-32250028D01*
X43824998Y-32250013D01*
X43814505Y-32147302D01*
X43759358Y-31980880D01*
X43759356Y-31980875D01*
X43667315Y-31831654D01*
X43543345Y-31707684D01*
X43394124Y-31615643D01*
X43394119Y-31615641D01*
X43227697Y-31560494D01*
X43227690Y-31560493D01*
X43124986Y-31550000D01*
X42575000Y-31550000D01*
X42575000Y-32466988D01*
X42517993Y-32434075D01*
X42390826Y-32400000D01*
X42259174Y-32400000D01*
X42132007Y-32434075D01*
X42075000Y-32466988D01*
X42075000Y-31550000D01*
X41525028Y-31550000D01*
X41525012Y-31550001D01*
X41422302Y-31560494D01*
X41255880Y-31615641D01*
X41255875Y-31615643D01*
X41106654Y-31707684D01*
X40982684Y-31831654D01*
X40890643Y-31980875D01*
X40890641Y-31980880D01*
X40835494Y-32147302D01*
X40835493Y-32147309D01*
X40825000Y-32250013D01*
X40825000Y-32650000D01*
X41891988Y-32650000D01*
X41859075Y-32707007D01*
X41825000Y-32834174D01*
X41825000Y-32965826D01*
X41859075Y-33092993D01*
X41891988Y-33150000D01*
X40825001Y-33150000D01*
X40825001Y-33549986D01*
X40835494Y-33652697D01*
X40890641Y-33819119D01*
X40890643Y-33819124D01*
X40982684Y-33968345D01*
X41106654Y-34092315D01*
X41261484Y-34187815D01*
X41308208Y-34239763D01*
X41319431Y-34308726D01*
X41291587Y-34372808D01*
X41284069Y-34381035D01*
X41144889Y-34520215D01*
X41019951Y-34692179D01*
X40923444Y-34881585D01*
X40857753Y-35083760D01*
X40831606Y-35248848D01*
X40824500Y-35293713D01*
X38500500Y-35293713D01*
X38500500Y-30449996D01*
X58094435Y-30449996D01*
X58094435Y-30450003D01*
X58114630Y-30629249D01*
X58114631Y-30629254D01*
X58174211Y-30799523D01*
X58237660Y-30900500D01*
X58270184Y-30952262D01*
X58397738Y-31079816D01*
X58550478Y-31175789D01*
X58720745Y-31235368D01*
X58720750Y-31235369D01*
X58899996Y-31255565D01*
X58900000Y-31255565D01*
X58900004Y-31255565D01*
X59079249Y-31235369D01*
X59079252Y-31235368D01*
X59079255Y-31235368D01*
X59249522Y-31175789D01*
X59402262Y-31079816D01*
X59529816Y-30952262D01*
X59625789Y-30799522D01*
X59685368Y-30629255D01*
X59690692Y-30582007D01*
X59705565Y-30450003D01*
X59705565Y-30449996D01*
X59685369Y-30270750D01*
X59685368Y-30270745D01*
X59649713Y-30168848D01*
X59625789Y-30100478D01*
X59529816Y-29947738D01*
X59402262Y-29820184D01*
X59378996Y-29805565D01*
X59249523Y-29724211D01*
X59079254Y-29664631D01*
X59079249Y-29664630D01*
X58900004Y-29644435D01*
X58899996Y-29644435D01*
X58720750Y-29664630D01*
X58720745Y-29664631D01*
X58550476Y-29724211D01*
X58397737Y-29820184D01*
X58270184Y-29947737D01*
X58174211Y-30100476D01*
X58114631Y-30270745D01*
X58114630Y-30270750D01*
X58094435Y-30449996D01*
X38500500Y-30449996D01*
X38500500Y-29593973D01*
X38520185Y-29526934D01*
X38572989Y-29481179D01*
X38642147Y-29471235D01*
X38698810Y-29494706D01*
X38737665Y-29523793D01*
X38737668Y-29523795D01*
X38737671Y-29523797D01*
X38872517Y-29574091D01*
X38872516Y-29574091D01*
X38879444Y-29574835D01*
X38932127Y-29580500D01*
X40587872Y-29580499D01*
X40647483Y-29574091D01*
X40782331Y-29523796D01*
X40897546Y-29437546D01*
X40983796Y-29322331D01*
X41034091Y-29187483D01*
X41040500Y-29127873D01*
X41040500Y-28499996D01*
X77094435Y-28499996D01*
X77094435Y-28500003D01*
X77114630Y-28679249D01*
X77114631Y-28679254D01*
X77174211Y-28849523D01*
X77267003Y-28997200D01*
X77270184Y-29002262D01*
X77397738Y-29129816D01*
X77476410Y-29179249D01*
X77547966Y-29224211D01*
X77550478Y-29225789D01*
X77720745Y-29285368D01*
X77720750Y-29285369D01*
X77899996Y-29305565D01*
X77900000Y-29305565D01*
X77900004Y-29305565D01*
X78079249Y-29285369D01*
X78079252Y-29285368D01*
X78079255Y-29285368D01*
X78249522Y-29225789D01*
X78402262Y-29129816D01*
X78529816Y-29002262D01*
X78531240Y-28999996D01*
X81694435Y-28999996D01*
X81694435Y-29000003D01*
X81714630Y-29179249D01*
X81714631Y-29179254D01*
X81774211Y-29349523D01*
X81850688Y-29471235D01*
X81870184Y-29502262D01*
X81997738Y-29629816D01*
X82088080Y-29686582D01*
X82147966Y-29724211D01*
X82150478Y-29725789D01*
X82278955Y-29770745D01*
X82320745Y-29785368D01*
X82320750Y-29785369D01*
X82499996Y-29805565D01*
X82500000Y-29805565D01*
X82500004Y-29805565D01*
X82679249Y-29785369D01*
X82679252Y-29785368D01*
X82679255Y-29785368D01*
X82849522Y-29725789D01*
X83002262Y-29629816D01*
X83129816Y-29502262D01*
X83225789Y-29349522D01*
X83285368Y-29179255D01*
X83287016Y-29164630D01*
X83305565Y-29000003D01*
X83305565Y-28999996D01*
X83285369Y-28820750D01*
X83285368Y-28820745D01*
X83270830Y-28779197D01*
X83225789Y-28650478D01*
X83129816Y-28497738D01*
X83002262Y-28370184D01*
X82938189Y-28329924D01*
X82849523Y-28274211D01*
X82679254Y-28214631D01*
X82679249Y-28214630D01*
X82500004Y-28194435D01*
X82499996Y-28194435D01*
X82320750Y-28214630D01*
X82320745Y-28214631D01*
X82150476Y-28274211D01*
X81997737Y-28370184D01*
X81870184Y-28497737D01*
X81774211Y-28650476D01*
X81714631Y-28820745D01*
X81714630Y-28820750D01*
X81694435Y-28999996D01*
X78531240Y-28999996D01*
X78625789Y-28849522D01*
X78685368Y-28679255D01*
X78685369Y-28679249D01*
X78705565Y-28500003D01*
X78705565Y-28499996D01*
X78685369Y-28320750D01*
X78685368Y-28320745D01*
X78669085Y-28274211D01*
X78625789Y-28150478D01*
X78612787Y-28129786D01*
X78529815Y-27997737D01*
X78402262Y-27870184D01*
X78249523Y-27774211D01*
X78079254Y-27714631D01*
X78079249Y-27714630D01*
X77900004Y-27694435D01*
X77899996Y-27694435D01*
X77720750Y-27714630D01*
X77720745Y-27714631D01*
X77550476Y-27774211D01*
X77397737Y-27870184D01*
X77270184Y-27997737D01*
X77174211Y-28150476D01*
X77114631Y-28320745D01*
X77114630Y-28320750D01*
X77094435Y-28499996D01*
X41040500Y-28499996D01*
X41040499Y-27472128D01*
X41034091Y-27412517D01*
X41013118Y-27356286D01*
X40983797Y-27277671D01*
X40983793Y-27277664D01*
X40897547Y-27162455D01*
X40897544Y-27162452D01*
X40782335Y-27076206D01*
X40782328Y-27076202D01*
X40647482Y-27025908D01*
X40647483Y-27025908D01*
X40587883Y-27019501D01*
X40587881Y-27019500D01*
X40587873Y-27019500D01*
X40587864Y-27019500D01*
X38932129Y-27019500D01*
X38932123Y-27019501D01*
X38872516Y-27025908D01*
X38737671Y-27076202D01*
X38737668Y-27076204D01*
X38698811Y-27105293D01*
X38633347Y-27129710D01*
X38565074Y-27114858D01*
X38515668Y-27065453D01*
X38500500Y-27006026D01*
X38500500Y-25799998D01*
X43474609Y-25799998D01*
X43474609Y-25800001D01*
X43494136Y-26023200D01*
X43494137Y-26023208D01*
X43552126Y-26239625D01*
X43552127Y-26239627D01*
X43552128Y-26239630D01*
X43613020Y-26370213D01*
X43646819Y-26442696D01*
X43646821Y-26442700D01*
X43775329Y-26626228D01*
X43775334Y-26626234D01*
X43933765Y-26784665D01*
X43933771Y-26784670D01*
X44117299Y-26913178D01*
X44117301Y-26913179D01*
X44117304Y-26913181D01*
X44320370Y-27007872D01*
X44536794Y-27065863D01*
X44696226Y-27079811D01*
X44759998Y-27085391D01*
X44760000Y-27085391D01*
X44760002Y-27085391D01*
X44815801Y-27080509D01*
X44983206Y-27065863D01*
X45199630Y-27007872D01*
X45402696Y-26913181D01*
X45586233Y-26784667D01*
X45744667Y-26626233D01*
X45873181Y-26442696D01*
X45967872Y-26239630D01*
X46025863Y-26023206D01*
X46042601Y-25831886D01*
X46045391Y-25800001D01*
X46045391Y-25799998D01*
X46034678Y-25677547D01*
X46025863Y-25576794D01*
X45967872Y-25360370D01*
X45939719Y-25299996D01*
X51894435Y-25299996D01*
X51894435Y-25300003D01*
X51914630Y-25479249D01*
X51914631Y-25479254D01*
X51974211Y-25649523D01*
X52056261Y-25780104D01*
X52070184Y-25802262D01*
X52197738Y-25929816D01*
X52245776Y-25960000D01*
X52348625Y-26024625D01*
X52350478Y-26025789D01*
X52520745Y-26085368D01*
X52520750Y-26085369D01*
X52699996Y-26105565D01*
X52700000Y-26105565D01*
X52700004Y-26105565D01*
X52879249Y-26085369D01*
X52879252Y-26085368D01*
X52879255Y-26085368D01*
X53049522Y-26025789D01*
X53202262Y-25929816D01*
X53329816Y-25802262D01*
X53425789Y-25649522D01*
X53485368Y-25479255D01*
X53485932Y-25474250D01*
X53505565Y-25300003D01*
X53505565Y-25299996D01*
X53485369Y-25120750D01*
X53485368Y-25120745D01*
X53466297Y-25066243D01*
X53425789Y-24950478D01*
X53329816Y-24797738D01*
X53202262Y-24670184D01*
X53145968Y-24634812D01*
X53049523Y-24574211D01*
X52879254Y-24514631D01*
X52879249Y-24514630D01*
X52700004Y-24494435D01*
X52699996Y-24494435D01*
X52520750Y-24514630D01*
X52520745Y-24514631D01*
X52350476Y-24574211D01*
X52197737Y-24670184D01*
X52070184Y-24797737D01*
X51974211Y-24950476D01*
X51914631Y-25120745D01*
X51914630Y-25120750D01*
X51894435Y-25299996D01*
X45939719Y-25299996D01*
X45873181Y-25157305D01*
X45744667Y-24973767D01*
X45586233Y-24815333D01*
X45586229Y-24815330D01*
X45586228Y-24815329D01*
X45402700Y-24686821D01*
X45402696Y-24686819D01*
X45326542Y-24651308D01*
X45199630Y-24592128D01*
X45199627Y-24592127D01*
X45199625Y-24592126D01*
X44983208Y-24534137D01*
X44983200Y-24534136D01*
X44760002Y-24514609D01*
X44759998Y-24514609D01*
X44536799Y-24534136D01*
X44536791Y-24534137D01*
X44320374Y-24592126D01*
X44320370Y-24592128D01*
X44297604Y-24602743D01*
X44117306Y-24686818D01*
X44117304Y-24686819D01*
X43933764Y-24815334D01*
X43775334Y-24973764D01*
X43646819Y-25157304D01*
X43646818Y-25157306D01*
X43552129Y-25360368D01*
X43552126Y-25360374D01*
X43494137Y-25576791D01*
X43494136Y-25576799D01*
X43474609Y-25799998D01*
X38500500Y-25799998D01*
X38500500Y-24126139D01*
X38520185Y-24059100D01*
X38572989Y-24013345D01*
X38642147Y-24003401D01*
X38650430Y-24007184D01*
X38695334Y-24011112D01*
X39277037Y-23429409D01*
X39294075Y-23492993D01*
X39359901Y-23607007D01*
X39452993Y-23700099D01*
X39567007Y-23765925D01*
X39630590Y-23782962D01*
X39048886Y-24364664D01*
X39117555Y-24412746D01*
X39320540Y-24507399D01*
X39320549Y-24507403D01*
X39536875Y-24565367D01*
X39536886Y-24565369D01*
X39759998Y-24584889D01*
X39760002Y-24584889D01*
X39983113Y-24565369D01*
X39983124Y-24565367D01*
X40199450Y-24507403D01*
X40199459Y-24507399D01*
X40402445Y-24412746D01*
X40402451Y-24412742D01*
X40471112Y-24364665D01*
X39889409Y-23782962D01*
X39952993Y-23765925D01*
X40067007Y-23700099D01*
X40160099Y-23607007D01*
X40225925Y-23492993D01*
X40242962Y-23429409D01*
X40824665Y-24011112D01*
X40872742Y-23942451D01*
X40872746Y-23942445D01*
X40967399Y-23739459D01*
X40967403Y-23739450D01*
X41025367Y-23523124D01*
X41025369Y-23523113D01*
X41044889Y-23300002D01*
X41044889Y-23299997D01*
X41025369Y-23076886D01*
X41025367Y-23076875D01*
X40967403Y-22860549D01*
X40967399Y-22860540D01*
X40872747Y-22657557D01*
X40872746Y-22657555D01*
X40824664Y-22588887D01*
X40824664Y-22588886D01*
X40242962Y-23170589D01*
X40225925Y-23107007D01*
X40160099Y-22992993D01*
X40067007Y-22899901D01*
X39952993Y-22834075D01*
X39889410Y-22817037D01*
X40306450Y-22399996D01*
X49794435Y-22399996D01*
X49794435Y-22400003D01*
X49814630Y-22579249D01*
X49814631Y-22579254D01*
X49874211Y-22749523D01*
X49905928Y-22800000D01*
X49970184Y-22902262D01*
X50097738Y-23029816D01*
X50188080Y-23086582D01*
X50220586Y-23107007D01*
X50250478Y-23125789D01*
X50355292Y-23162465D01*
X50420745Y-23185368D01*
X50420750Y-23185369D01*
X50599996Y-23205565D01*
X50600000Y-23205565D01*
X50600004Y-23205565D01*
X50779249Y-23185369D01*
X50779252Y-23185368D01*
X50779255Y-23185368D01*
X50949522Y-23125789D01*
X51102262Y-23029816D01*
X51229816Y-22902262D01*
X51235188Y-22893713D01*
X60149500Y-22893713D01*
X60149500Y-23106286D01*
X60180181Y-23300002D01*
X60182754Y-23316243D01*
X60236380Y-23481287D01*
X60248444Y-23518414D01*
X60344951Y-23707820D01*
X60469890Y-23879786D01*
X60620213Y-24030109D01*
X60792179Y-24155048D01*
X60792181Y-24155049D01*
X60792184Y-24155051D01*
X60981588Y-24251557D01*
X61183757Y-24317246D01*
X61393713Y-24350500D01*
X61393714Y-24350500D01*
X61606286Y-24350500D01*
X61606287Y-24350500D01*
X61816243Y-24317246D01*
X62018412Y-24251557D01*
X62207816Y-24155051D01*
X62279738Y-24102797D01*
X62379786Y-24030109D01*
X62379788Y-24030106D01*
X62379792Y-24030104D01*
X62530104Y-23879792D01*
X62530106Y-23879788D01*
X62530109Y-23879786D01*
X62655048Y-23707820D01*
X62655047Y-23707820D01*
X62655051Y-23707816D01*
X62751557Y-23518412D01*
X62817246Y-23316243D01*
X62850500Y-23106287D01*
X62850500Y-22968713D01*
X66449500Y-22968713D01*
X66449500Y-23481287D01*
X66482754Y-23691243D01*
X66518091Y-23800000D01*
X66548444Y-23893414D01*
X66644951Y-24082820D01*
X66769890Y-24254786D01*
X66920213Y-24405109D01*
X67092179Y-24530048D01*
X67092181Y-24530049D01*
X67092184Y-24530051D01*
X67281588Y-24626557D01*
X67483757Y-24692246D01*
X67693713Y-24725500D01*
X67693714Y-24725500D01*
X67906286Y-24725500D01*
X67906287Y-24725500D01*
X68116243Y-24692246D01*
X68318412Y-24626557D01*
X68507816Y-24530051D01*
X68679792Y-24405104D01*
X68818604Y-24266291D01*
X68879923Y-24232809D01*
X68949615Y-24237793D01*
X69005549Y-24279664D01*
X69011821Y-24288878D01*
X69015185Y-24294333D01*
X69015186Y-24294334D01*
X69107288Y-24443656D01*
X69231344Y-24567712D01*
X69380666Y-24659814D01*
X69547203Y-24714999D01*
X69649991Y-24725500D01*
X70950008Y-24725499D01*
X71052797Y-24714999D01*
X71219334Y-24659814D01*
X71368656Y-24567712D01*
X71492712Y-24443656D01*
X71584814Y-24294334D01*
X71639999Y-24127797D01*
X71650500Y-24025009D01*
X71650499Y-22975000D01*
X75201970Y-22975000D01*
X76144854Y-22975000D01*
X76106370Y-23041657D01*
X76074000Y-23162465D01*
X76074000Y-23287535D01*
X76106370Y-23408343D01*
X76144854Y-23475000D01*
X75201970Y-23475000D01*
X75232242Y-23666127D01*
X75232242Y-23666130D01*
X75297904Y-23868217D01*
X75394379Y-24057557D01*
X75519272Y-24229459D01*
X75519276Y-24229464D01*
X75669535Y-24379723D01*
X75669540Y-24379727D01*
X75841442Y-24504620D01*
X76030782Y-24601095D01*
X76232871Y-24666757D01*
X76299000Y-24677231D01*
X76299000Y-23629145D01*
X76365657Y-23667630D01*
X76486465Y-23700000D01*
X76611535Y-23700000D01*
X76732343Y-23667630D01*
X76799000Y-23629145D01*
X76799000Y-24677230D01*
X76865126Y-24666757D01*
X76865129Y-24666757D01*
X77067217Y-24601095D01*
X77256557Y-24504620D01*
X77428459Y-24379727D01*
X77428464Y-24379723D01*
X77578721Y-24229466D01*
X77698371Y-24064781D01*
X77753701Y-24022115D01*
X77823314Y-24016136D01*
X77885110Y-24048741D01*
X77899008Y-24064781D01*
X78018890Y-24229785D01*
X78018894Y-24229790D01*
X78169213Y-24380109D01*
X78341179Y-24505048D01*
X78341181Y-24505049D01*
X78341184Y-24505051D01*
X78530588Y-24601557D01*
X78732757Y-24667246D01*
X78942713Y-24700500D01*
X78942714Y-24700500D01*
X79155286Y-24700500D01*
X79155287Y-24700500D01*
X79365243Y-24667246D01*
X79567412Y-24601557D01*
X79756816Y-24505051D01*
X79778789Y-24489086D01*
X79928786Y-24380109D01*
X79928788Y-24380106D01*
X79928792Y-24380104D01*
X80079104Y-24229792D01*
X80198991Y-24064779D01*
X80254320Y-24022115D01*
X80323933Y-24016136D01*
X80385729Y-24048741D01*
X80399627Y-24064781D01*
X80519272Y-24229459D01*
X80519276Y-24229464D01*
X80669535Y-24379723D01*
X80669540Y-24379727D01*
X80841442Y-24504620D01*
X81030782Y-24601095D01*
X81232871Y-24666757D01*
X81299000Y-24677231D01*
X81299000Y-23629145D01*
X81365657Y-23667630D01*
X81486465Y-23700000D01*
X81611535Y-23700000D01*
X81732343Y-23667630D01*
X81799000Y-23629145D01*
X81799000Y-24677230D01*
X81865126Y-24666757D01*
X81865129Y-24666757D01*
X82067217Y-24601095D01*
X82256557Y-24504620D01*
X82428458Y-24379728D01*
X82567330Y-24240856D01*
X82628653Y-24207371D01*
X82698345Y-24212355D01*
X82754279Y-24254226D01*
X82760551Y-24263440D01*
X82764185Y-24269332D01*
X82764186Y-24269334D01*
X82856288Y-24418656D01*
X82980344Y-24542712D01*
X83129666Y-24634814D01*
X83296203Y-24689999D01*
X83398991Y-24700500D01*
X83702128Y-24700499D01*
X83742579Y-24707283D01*
X85097626Y-25174910D01*
X85144855Y-25204445D01*
X87438181Y-27497771D01*
X87471666Y-27559094D01*
X87474500Y-27585452D01*
X87474500Y-36561611D01*
X87498535Y-36682444D01*
X87498540Y-36682461D01*
X87545685Y-36796281D01*
X87545690Y-36796290D01*
X87565209Y-36825501D01*
X87565210Y-36825502D01*
X87614140Y-36898731D01*
X87614141Y-36898732D01*
X87614142Y-36898733D01*
X87701267Y-36985858D01*
X87701268Y-36985858D01*
X87708335Y-36992925D01*
X87708334Y-36992925D01*
X87708338Y-36992928D01*
X89554003Y-38838594D01*
X89576223Y-38868850D01*
X89768177Y-39236214D01*
X89771572Y-39244042D01*
X89774210Y-39249520D01*
X89774211Y-39249522D01*
X89870184Y-39402262D01*
X89997738Y-39529816D01*
X90150478Y-39625789D01*
X90303258Y-39679249D01*
X90320745Y-39685368D01*
X90320750Y-39685369D01*
X90499996Y-39705565D01*
X90500000Y-39705565D01*
X90500004Y-39705565D01*
X90679249Y-39685369D01*
X90679252Y-39685368D01*
X90679255Y-39685368D01*
X90849522Y-39625789D01*
X91002262Y-39529816D01*
X91129816Y-39402262D01*
X91225789Y-39249522D01*
X91285368Y-39079255D01*
X91286012Y-39073538D01*
X91305565Y-38900003D01*
X91305565Y-38899996D01*
X91285369Y-38720750D01*
X91285368Y-38720745D01*
X91225788Y-38550476D01*
X91184878Y-38485368D01*
X91129816Y-38397738D01*
X91002262Y-38270184D01*
X90849522Y-38174211D01*
X90849517Y-38174209D01*
X90844035Y-38171569D01*
X90836222Y-38168181D01*
X90622400Y-38056456D01*
X90572102Y-38007966D01*
X90556003Y-37939976D01*
X90579218Y-37874076D01*
X90634376Y-37831188D01*
X90638875Y-37829515D01*
X90649520Y-37825790D01*
X90649522Y-37825789D01*
X90802262Y-37729816D01*
X90929816Y-37602262D01*
X91025789Y-37449522D01*
X91085368Y-37279255D01*
X91085369Y-37279249D01*
X91105565Y-37100003D01*
X91105565Y-37099996D01*
X91085369Y-36920750D01*
X91085368Y-36920745D01*
X91064870Y-36862166D01*
X91025789Y-36750478D01*
X90929816Y-36597738D01*
X90802262Y-36470184D01*
X90769379Y-36449522D01*
X90649523Y-36374211D01*
X90479254Y-36314631D01*
X90479249Y-36314630D01*
X90300004Y-36294435D01*
X90299996Y-36294435D01*
X90120750Y-36314630D01*
X90120745Y-36314631D01*
X89950476Y-36374211D01*
X89797737Y-36470184D01*
X89670184Y-36597737D01*
X89574210Y-36750478D01*
X89551480Y-36815439D01*
X89510758Y-36872215D01*
X89445805Y-36897963D01*
X89377244Y-36884507D01*
X89346757Y-36862166D01*
X88761819Y-36277228D01*
X88728334Y-36215905D01*
X88725500Y-36189547D01*
X88725500Y-29949996D01*
X89744435Y-29949996D01*
X89744435Y-29950003D01*
X89764630Y-30129249D01*
X89764631Y-30129254D01*
X89824211Y-30299523D01*
X89887357Y-30400018D01*
X89920184Y-30452262D01*
X90047738Y-30579816D01*
X90126410Y-30629249D01*
X90199379Y-30675099D01*
X90200478Y-30675789D01*
X90294781Y-30708787D01*
X90370745Y-30735368D01*
X90370750Y-30735369D01*
X90549996Y-30755565D01*
X90550000Y-30755565D01*
X90550004Y-30755565D01*
X90729249Y-30735369D01*
X90729250Y-30735368D01*
X90729255Y-30735368D01*
X90789918Y-30714140D01*
X90810978Y-30708788D01*
X90826254Y-30706307D01*
X90835003Y-30703562D01*
X90904859Y-30702279D01*
X90964321Y-30738968D01*
X90994508Y-30801980D01*
X90995335Y-30807994D01*
X91014630Y-30979250D01*
X91014631Y-30979254D01*
X91074211Y-31149523D01*
X91170184Y-31302262D01*
X91297738Y-31429816D01*
X91388080Y-31486582D01*
X91432721Y-31514632D01*
X91450478Y-31525789D01*
X91549785Y-31560538D01*
X91620745Y-31585368D01*
X91620750Y-31585369D01*
X91799996Y-31605565D01*
X91800000Y-31605565D01*
X91800004Y-31605565D01*
X91979249Y-31585369D01*
X91979250Y-31585368D01*
X91979255Y-31585368D01*
X92039918Y-31564140D01*
X92060978Y-31558788D01*
X92076254Y-31556307D01*
X92475233Y-31431181D01*
X92512339Y-31425500D01*
X93489548Y-31425500D01*
X93556587Y-31445185D01*
X93577229Y-31461819D01*
X93817726Y-31702316D01*
X93851211Y-31763639D01*
X93846227Y-31833331D01*
X93804355Y-31889264D01*
X93770999Y-31907039D01*
X93650478Y-31949210D01*
X93497737Y-32045184D01*
X93370184Y-32172737D01*
X93274211Y-32325476D01*
X93214631Y-32495745D01*
X93214630Y-32495750D01*
X93194435Y-32674996D01*
X93194435Y-32675003D01*
X93214630Y-32854249D01*
X93214631Y-32854254D01*
X93274211Y-33024523D01*
X93330830Y-33114631D01*
X93370184Y-33177262D01*
X93497738Y-33304816D01*
X93551551Y-33338629D01*
X93645620Y-33397737D01*
X93650478Y-33400789D01*
X93670669Y-33407854D01*
X93820745Y-33460368D01*
X93820750Y-33460369D01*
X93999996Y-33480565D01*
X94000000Y-33480565D01*
X94000004Y-33480565D01*
X94179249Y-33460369D01*
X94179252Y-33460368D01*
X94179255Y-33460368D01*
X94349522Y-33400789D01*
X94502262Y-33304816D01*
X94629816Y-33177262D01*
X94725789Y-33024522D01*
X94767961Y-32904000D01*
X94808683Y-32847225D01*
X94873635Y-32821477D01*
X94942197Y-32834933D01*
X94972684Y-32857274D01*
X97211308Y-35095898D01*
X97244793Y-35157221D01*
X97239809Y-35226913D01*
X97197937Y-35282846D01*
X97132473Y-35307263D01*
X97109744Y-35306799D01*
X97000004Y-35294435D01*
X96999996Y-35294435D01*
X96820750Y-35314630D01*
X96820745Y-35314631D01*
X96650476Y-35374211D01*
X96497737Y-35470184D01*
X96370184Y-35597737D01*
X96274211Y-35750476D01*
X96214631Y-35920745D01*
X96214630Y-35920750D01*
X96194435Y-36099996D01*
X96194435Y-36100003D01*
X96214630Y-36279249D01*
X96214633Y-36279262D01*
X96274209Y-36449520D01*
X96327309Y-36534029D01*
X96346309Y-36601266D01*
X96327309Y-36665971D01*
X96274209Y-36750479D01*
X96214633Y-36920737D01*
X96214630Y-36920750D01*
X96194435Y-37099996D01*
X96194435Y-37100003D01*
X96214630Y-37279249D01*
X96214631Y-37279254D01*
X96274211Y-37449523D01*
X96337045Y-37549522D01*
X96370184Y-37602262D01*
X96497738Y-37729816D01*
X96521671Y-37744854D01*
X96635285Y-37816243D01*
X96650478Y-37825789D01*
X96788474Y-37874076D01*
X96820745Y-37885368D01*
X96820750Y-37885369D01*
X96999996Y-37905565D01*
X97000000Y-37905565D01*
X97000004Y-37905565D01*
X97179249Y-37885369D01*
X97179252Y-37885368D01*
X97179255Y-37885368D01*
X97349522Y-37825789D01*
X97502262Y-37729816D01*
X97629816Y-37602262D01*
X97725789Y-37449522D01*
X97785368Y-37279255D01*
X97785369Y-37279249D01*
X97805565Y-37100003D01*
X97805565Y-37099996D01*
X97785369Y-36920750D01*
X97785368Y-36920745D01*
X97725788Y-36750475D01*
X97672691Y-36665973D01*
X97653690Y-36598736D01*
X97672691Y-36534027D01*
X97725788Y-36449524D01*
X97725789Y-36449522D01*
X97785368Y-36279255D01*
X97785369Y-36279249D01*
X97805565Y-36100003D01*
X97805565Y-36099997D01*
X97793200Y-35990256D01*
X97805254Y-35921434D01*
X97852603Y-35870054D01*
X97920214Y-35852430D01*
X97986620Y-35874156D01*
X98004099Y-35888689D01*
X101615405Y-39499996D01*
X105053228Y-42937819D01*
X105086713Y-42999142D01*
X105081729Y-43068834D01*
X105039857Y-43124767D01*
X104974393Y-43149184D01*
X104965547Y-43149500D01*
X104893713Y-43149500D01*
X104845042Y-43157208D01*
X104683760Y-43182753D01*
X104683757Y-43182754D01*
X104514298Y-43237815D01*
X104481585Y-43248444D01*
X104292179Y-43344951D01*
X104120213Y-43469890D01*
X103969890Y-43620213D01*
X103844951Y-43792179D01*
X103748444Y-43981585D01*
X103682753Y-44183760D01*
X103649500Y-44393713D01*
X103649500Y-44606286D01*
X103676142Y-44774500D01*
X103682754Y-44816243D01*
X103735902Y-44979816D01*
X103748444Y-45018414D01*
X103844951Y-45207820D01*
X103969890Y-45379786D01*
X104120213Y-45530109D01*
X104292179Y-45655048D01*
X104292181Y-45655049D01*
X104292184Y-45655051D01*
X104481588Y-45751557D01*
X104683757Y-45817246D01*
X104893713Y-45850500D01*
X104893714Y-45850500D01*
X105106286Y-45850500D01*
X105106287Y-45850500D01*
X105316243Y-45817246D01*
X105518412Y-45751557D01*
X105707816Y-45655051D01*
X105776640Y-45605048D01*
X105879786Y-45530109D01*
X105879788Y-45530106D01*
X105879792Y-45530104D01*
X106030104Y-45379792D01*
X106030106Y-45379788D01*
X106030109Y-45379786D01*
X106155048Y-45207820D01*
X106155047Y-45207820D01*
X106155051Y-45207816D01*
X106251557Y-45018412D01*
X106317246Y-44816243D01*
X106350500Y-44606287D01*
X106350500Y-44534453D01*
X106370185Y-44467414D01*
X106422989Y-44421659D01*
X106492147Y-44411715D01*
X106555703Y-44440740D01*
X106562181Y-44446772D01*
X110401263Y-48285855D01*
X110401267Y-48285858D01*
X110503710Y-48354309D01*
X110503711Y-48354309D01*
X110503715Y-48354312D01*
X110570396Y-48381931D01*
X110570398Y-48381933D01*
X110608753Y-48397820D01*
X110617548Y-48401463D01*
X110637597Y-48405451D01*
X110671196Y-48412134D01*
X110738392Y-48425501D01*
X110738394Y-48425501D01*
X110867721Y-48425501D01*
X110867741Y-48425500D01*
X114683999Y-48425500D01*
X114729495Y-48434147D01*
X115687547Y-48812023D01*
X115744639Y-48834541D01*
X115799780Y-48877451D01*
X115822970Y-48943360D01*
X115806845Y-49011343D01*
X115772027Y-49050211D01*
X115620540Y-49160272D01*
X115620535Y-49160276D01*
X115470276Y-49310535D01*
X115470272Y-49310540D01*
X115345379Y-49482442D01*
X115248904Y-49671782D01*
X115183242Y-49873870D01*
X115183242Y-49873873D01*
X115172769Y-49940000D01*
X116220854Y-49940000D01*
X116182370Y-50006657D01*
X116150000Y-50127465D01*
X116150000Y-50252535D01*
X116182370Y-50373343D01*
X116220854Y-50440000D01*
X115172769Y-50440000D01*
X115183242Y-50506126D01*
X115183242Y-50506129D01*
X115248904Y-50708217D01*
X115345379Y-50897557D01*
X115470272Y-51069459D01*
X115470276Y-51069464D01*
X115620535Y-51219723D01*
X115620540Y-51219727D01*
X115785644Y-51339682D01*
X115828310Y-51395012D01*
X115834289Y-51464625D01*
X115801684Y-51526420D01*
X115785644Y-51540318D01*
X115620540Y-51660272D01*
X115620535Y-51660276D01*
X115470276Y-51810535D01*
X115470272Y-51810540D01*
X115345379Y-51982442D01*
X115248904Y-52171782D01*
X115183242Y-52373870D01*
X115183242Y-52373873D01*
X115172769Y-52440000D01*
X116220854Y-52440000D01*
X116182370Y-52506657D01*
X116150000Y-52627465D01*
X116150000Y-52752535D01*
X116182370Y-52873343D01*
X116220854Y-52940000D01*
X115172769Y-52940000D01*
X115183242Y-53006126D01*
X115183242Y-53006129D01*
X115248904Y-53208217D01*
X115345379Y-53397557D01*
X115470272Y-53569459D01*
X115470276Y-53569464D01*
X115620535Y-53719723D01*
X115620540Y-53719727D01*
X115792442Y-53844620D01*
X115981782Y-53941095D01*
X116183872Y-54006757D01*
X116375000Y-54037029D01*
X116375000Y-53094145D01*
X116441657Y-53132630D01*
X116562465Y-53165000D01*
X116687535Y-53165000D01*
X116808343Y-53132630D01*
X116875000Y-53094145D01*
X116875000Y-54037028D01*
X117066127Y-54006757D01*
X117268217Y-53941095D01*
X117457557Y-53844620D01*
X117629459Y-53719727D01*
X117629464Y-53719723D01*
X117779723Y-53569464D01*
X117779727Y-53569459D01*
X117904620Y-53397557D01*
X118001095Y-53208217D01*
X118066757Y-53006129D01*
X118066757Y-53006126D01*
X118077231Y-52940000D01*
X117029146Y-52940000D01*
X117067630Y-52873343D01*
X117100000Y-52752535D01*
X117100000Y-52627465D01*
X117067630Y-52506657D01*
X117029146Y-52440000D01*
X118077231Y-52440000D01*
X118066757Y-52373873D01*
X118066757Y-52373870D01*
X118001095Y-52171782D01*
X117904620Y-51982442D01*
X117779727Y-51810540D01*
X117779723Y-51810535D01*
X117629460Y-51660272D01*
X117464355Y-51540318D01*
X117421689Y-51484989D01*
X117415710Y-51415375D01*
X117448315Y-51353580D01*
X117464355Y-51339682D01*
X117629460Y-51219727D01*
X117779723Y-51069464D01*
X117779727Y-51069459D01*
X117904620Y-50897557D01*
X118001095Y-50708217D01*
X118066757Y-50506129D01*
X118066757Y-50506126D01*
X118077231Y-50440000D01*
X117029146Y-50440000D01*
X117067630Y-50373343D01*
X117100000Y-50252535D01*
X117100000Y-50127465D01*
X117067630Y-50006657D01*
X117029146Y-49940000D01*
X118077231Y-49940000D01*
X118066757Y-49873873D01*
X118066757Y-49873870D01*
X118001095Y-49671782D01*
X117904620Y-49482442D01*
X117779727Y-49310540D01*
X117779723Y-49310535D01*
X117629464Y-49160276D01*
X117629459Y-49160272D01*
X117464781Y-49040627D01*
X117422115Y-48985297D01*
X117416136Y-48915684D01*
X117448741Y-48853889D01*
X117464776Y-48839994D01*
X117629792Y-48720104D01*
X117780104Y-48569792D01*
X117780106Y-48569788D01*
X117780109Y-48569786D01*
X117905048Y-48397820D01*
X117905047Y-48397820D01*
X117905051Y-48397816D01*
X118001557Y-48208412D01*
X118067246Y-48006243D01*
X118100500Y-47796287D01*
X118100500Y-47583713D01*
X118067246Y-47373757D01*
X118001557Y-47171588D01*
X117905051Y-46982184D01*
X117905049Y-46982181D01*
X117905048Y-46982179D01*
X117780109Y-46810213D01*
X117641294Y-46671398D01*
X117607809Y-46610075D01*
X117612793Y-46540383D01*
X117654665Y-46484450D01*
X117663879Y-46478178D01*
X117669331Y-46474814D01*
X117669334Y-46474814D01*
X117818656Y-46382712D01*
X117942712Y-46258656D01*
X118034814Y-46109334D01*
X118089999Y-45942797D01*
X118100500Y-45840009D01*
X118100499Y-44539992D01*
X118098533Y-44520750D01*
X118089999Y-44437203D01*
X118089998Y-44437200D01*
X118061260Y-44350476D01*
X118034814Y-44270666D01*
X117942712Y-44121344D01*
X117818656Y-43997288D01*
X117703045Y-43925979D01*
X117669336Y-43905187D01*
X117669331Y-43905185D01*
X117648985Y-43898443D01*
X117502797Y-43850001D01*
X117502795Y-43850000D01*
X117400010Y-43839500D01*
X115849998Y-43839500D01*
X115849981Y-43839501D01*
X115747203Y-43850000D01*
X115747200Y-43850001D01*
X115580668Y-43905185D01*
X115580663Y-43905187D01*
X115470201Y-43973320D01*
X115435137Y-43994949D01*
X115431338Y-43997292D01*
X115332099Y-44096530D01*
X115328482Y-44100004D01*
X114632691Y-44741656D01*
X114570064Y-44772633D01*
X114548628Y-44774500D01*
X109960453Y-44774500D01*
X109893414Y-44754815D01*
X109872772Y-44738181D01*
X102528304Y-37393713D01*
X113649500Y-37393713D01*
X113649500Y-37606287D01*
X113653227Y-37629816D01*
X113681062Y-37805565D01*
X113682754Y-37816243D01*
X113731878Y-37967431D01*
X113748444Y-38018414D01*
X113844951Y-38207820D01*
X113969890Y-38379786D01*
X114120213Y-38530109D01*
X114292179Y-38655048D01*
X114292181Y-38655049D01*
X114292184Y-38655051D01*
X114481588Y-38751557D01*
X114683757Y-38817246D01*
X114893713Y-38850500D01*
X114893714Y-38850500D01*
X115106286Y-38850500D01*
X115106287Y-38850500D01*
X115316243Y-38817246D01*
X115518412Y-38751557D01*
X115707816Y-38655051D01*
X115761775Y-38615848D01*
X115879786Y-38530109D01*
X115879788Y-38530106D01*
X115879792Y-38530104D01*
X116030104Y-38379792D01*
X116030106Y-38379788D01*
X116030109Y-38379786D01*
X116155048Y-38207820D01*
X116155047Y-38207820D01*
X116155051Y-38207816D01*
X116251557Y-38018412D01*
X116317246Y-37816243D01*
X116350500Y-37606287D01*
X116350500Y-37393713D01*
X116317246Y-37183757D01*
X116251557Y-36981588D01*
X116155051Y-36792184D01*
X116155049Y-36792181D01*
X116155048Y-36792179D01*
X116030109Y-36620213D01*
X115879786Y-36469890D01*
X115707820Y-36344951D01*
X115518414Y-36248444D01*
X115518413Y-36248443D01*
X115518412Y-36248443D01*
X115316243Y-36182754D01*
X115316241Y-36182753D01*
X115316240Y-36182753D01*
X115154957Y-36157208D01*
X115106287Y-36149500D01*
X114893713Y-36149500D01*
X114845042Y-36157208D01*
X114683760Y-36182753D01*
X114481585Y-36248444D01*
X114292179Y-36344951D01*
X114120213Y-36469890D01*
X113969890Y-36620213D01*
X113844951Y-36792179D01*
X113748444Y-36981585D01*
X113682753Y-37183760D01*
X113667628Y-37279255D01*
X113649500Y-37393713D01*
X102528304Y-37393713D01*
X94685858Y-29551267D01*
X94598733Y-29464142D01*
X94598732Y-29464141D01*
X94598731Y-29464140D01*
X94547509Y-29429915D01*
X94496287Y-29395689D01*
X94496286Y-29395688D01*
X94496283Y-29395686D01*
X94496280Y-29395685D01*
X94415792Y-29362347D01*
X94382453Y-29348537D01*
X94372427Y-29346543D01*
X94322029Y-29336518D01*
X94261610Y-29324500D01*
X94261607Y-29324500D01*
X94261606Y-29324500D01*
X91262337Y-29324500D01*
X91225231Y-29318818D01*
X90826254Y-29193693D01*
X90796465Y-29185342D01*
X90791192Y-29184347D01*
X90791298Y-29183783D01*
X90771314Y-29179348D01*
X90729254Y-29164631D01*
X90550004Y-29144435D01*
X90549996Y-29144435D01*
X90370750Y-29164630D01*
X90370745Y-29164631D01*
X90200476Y-29224211D01*
X90047737Y-29320184D01*
X89920184Y-29447737D01*
X89824211Y-29600476D01*
X89764631Y-29770745D01*
X89764630Y-29770750D01*
X89744435Y-29949996D01*
X88725500Y-29949996D01*
X88725500Y-27213393D01*
X88725499Y-27213389D01*
X88721105Y-27191297D01*
X88701463Y-27092548D01*
X88666389Y-27007872D01*
X88654312Y-26978715D01*
X88631561Y-26944667D01*
X88624273Y-26933760D01*
X88585856Y-26876264D01*
X88495637Y-26786045D01*
X88495606Y-26786016D01*
X86353303Y-24643713D01*
X96599500Y-24643713D01*
X96599500Y-24856287D01*
X96632754Y-25066243D01*
X96688053Y-25236436D01*
X96698444Y-25268414D01*
X96794951Y-25457820D01*
X96919890Y-25629786D01*
X97070209Y-25780105D01*
X97070214Y-25780109D01*
X97234793Y-25899682D01*
X97277459Y-25955011D01*
X97283438Y-26024625D01*
X97250833Y-26086420D01*
X97234793Y-26100318D01*
X97070214Y-26219890D01*
X97070209Y-26219894D01*
X96919890Y-26370213D01*
X96794951Y-26542179D01*
X96698444Y-26731585D01*
X96632753Y-26933760D01*
X96599500Y-27143713D01*
X96599500Y-27356286D01*
X96631621Y-27559094D01*
X96632754Y-27566243D01*
X96687776Y-27735583D01*
X96698444Y-27768414D01*
X96794951Y-27957820D01*
X96919890Y-28129786D01*
X97058705Y-28268601D01*
X97092190Y-28329924D01*
X97087206Y-28399616D01*
X97045334Y-28455549D01*
X97036121Y-28461821D01*
X96881342Y-28557289D01*
X96757289Y-28681342D01*
X96665187Y-28830663D01*
X96665185Y-28830668D01*
X96639283Y-28908836D01*
X96610001Y-28997203D01*
X96610001Y-28997204D01*
X96610000Y-28997204D01*
X96599500Y-29099983D01*
X96599500Y-30400001D01*
X96599501Y-30400018D01*
X96610000Y-30502796D01*
X96610001Y-30502799D01*
X96665185Y-30669331D01*
X96665187Y-30669336D01*
X96686298Y-30703563D01*
X96757288Y-30818656D01*
X96881344Y-30942712D01*
X97030666Y-31034814D01*
X97197203Y-31089999D01*
X97299991Y-31100500D01*
X98850008Y-31100499D01*
X98952797Y-31089999D01*
X99119334Y-31034814D01*
X99268656Y-30942712D01*
X99392712Y-30818656D01*
X99484814Y-30669334D01*
X99539999Y-30502797D01*
X99550500Y-30400009D01*
X99550499Y-29099992D01*
X99539999Y-28997203D01*
X99484814Y-28830666D01*
X99392712Y-28681344D01*
X99268656Y-28557288D01*
X99119334Y-28465186D01*
X99119333Y-28465185D01*
X99113878Y-28461821D01*
X99067154Y-28409873D01*
X99055931Y-28340910D01*
X99083775Y-28276828D01*
X99091272Y-28268623D01*
X99230104Y-28129792D01*
X99355051Y-27957816D01*
X99451557Y-27768412D01*
X99517246Y-27566243D01*
X99550500Y-27356287D01*
X99550500Y-27143713D01*
X99521401Y-26959993D01*
X104324700Y-26959993D01*
X104324700Y-26960006D01*
X104343864Y-27191297D01*
X104343866Y-27191308D01*
X104400842Y-27416300D01*
X104494075Y-27628848D01*
X104621016Y-27823147D01*
X104621019Y-27823151D01*
X104621021Y-27823153D01*
X104778216Y-27993913D01*
X104778219Y-27993915D01*
X104778222Y-27993918D01*
X104955818Y-28132147D01*
X104996631Y-28188857D01*
X105000306Y-28258630D01*
X104965674Y-28319313D01*
X104955818Y-28327853D01*
X104778222Y-28466081D01*
X104778219Y-28466084D01*
X104621016Y-28636852D01*
X104494075Y-28831151D01*
X104400842Y-29043699D01*
X104343866Y-29268691D01*
X104343864Y-29268702D01*
X104324700Y-29499993D01*
X104324700Y-29500006D01*
X104343864Y-29731297D01*
X104343866Y-29731308D01*
X104400842Y-29956300D01*
X104494075Y-30168848D01*
X104621016Y-30363147D01*
X104621019Y-30363151D01*
X104621021Y-30363153D01*
X104778216Y-30533913D01*
X104778219Y-30533915D01*
X104778222Y-30533918D01*
X104955818Y-30672147D01*
X104996631Y-30728857D01*
X105000306Y-30798630D01*
X104965674Y-30859313D01*
X104955818Y-30867853D01*
X104778222Y-31006081D01*
X104778219Y-31006084D01*
X104621016Y-31176852D01*
X104494075Y-31371151D01*
X104400842Y-31583699D01*
X104343866Y-31808691D01*
X104343864Y-31808702D01*
X104324700Y-32039993D01*
X104324700Y-32040006D01*
X104343864Y-32271297D01*
X104343866Y-32271308D01*
X104400842Y-32496300D01*
X104494075Y-32708848D01*
X104621016Y-32903147D01*
X104621019Y-32903151D01*
X104621021Y-32903153D01*
X104778216Y-33073913D01*
X104778219Y-33073915D01*
X104778222Y-33073918D01*
X104955818Y-33212147D01*
X104996631Y-33268857D01*
X105000306Y-33338630D01*
X104965674Y-33399313D01*
X104955818Y-33407853D01*
X104778222Y-33546081D01*
X104778219Y-33546084D01*
X104621016Y-33716852D01*
X104494075Y-33911151D01*
X104400842Y-34123699D01*
X104343866Y-34348691D01*
X104343864Y-34348702D01*
X104324700Y-34579993D01*
X104324700Y-34580006D01*
X104343864Y-34811297D01*
X104343866Y-34811308D01*
X104400842Y-35036300D01*
X104494075Y-35248848D01*
X104621016Y-35443147D01*
X104621019Y-35443151D01*
X104621021Y-35443153D01*
X104778216Y-35613913D01*
X104778219Y-35613915D01*
X104778222Y-35613918D01*
X104961365Y-35756464D01*
X104961371Y-35756468D01*
X104961374Y-35756470D01*
X105096905Y-35829816D01*
X105164652Y-35866479D01*
X105165497Y-35866936D01*
X105275281Y-35904625D01*
X105385015Y-35942297D01*
X105385017Y-35942297D01*
X105385019Y-35942298D01*
X105613951Y-35980500D01*
X105613952Y-35980500D01*
X105846048Y-35980500D01*
X105846049Y-35980500D01*
X106074981Y-35942298D01*
X106294503Y-35866936D01*
X106498626Y-35756470D01*
X106499170Y-35756047D01*
X106642060Y-35644831D01*
X106681784Y-35613913D01*
X106838979Y-35443153D01*
X106896490Y-35355124D01*
X106949635Y-35309769D01*
X107018866Y-35300345D01*
X107082202Y-35329846D01*
X107104107Y-35355125D01*
X107118812Y-35377633D01*
X107827861Y-34668584D01*
X107850667Y-34753694D01*
X107909910Y-34856306D01*
X107993694Y-34940090D01*
X108096306Y-34999333D01*
X108181414Y-35022138D01*
X107471201Y-35732351D01*
X107501649Y-35756050D01*
X107705697Y-35866476D01*
X107705706Y-35866479D01*
X107925139Y-35941811D01*
X108153993Y-35980000D01*
X108386007Y-35980000D01*
X108614860Y-35941811D01*
X108834293Y-35866479D01*
X108834301Y-35866476D01*
X109038355Y-35756047D01*
X109068797Y-35732351D01*
X109068798Y-35732350D01*
X108358585Y-35022137D01*
X108443694Y-34999333D01*
X108546306Y-34940090D01*
X108630090Y-34856306D01*
X108689333Y-34753694D01*
X108712138Y-34668585D01*
X109421186Y-35377633D01*
X109505482Y-35248611D01*
X109598682Y-35036135D01*
X109655638Y-34811218D01*
X109674798Y-34580005D01*
X109674798Y-34579994D01*
X109655638Y-34348781D01*
X109598682Y-34123864D01*
X109505484Y-33911393D01*
X109421186Y-33782365D01*
X108712137Y-34491414D01*
X108689333Y-34406306D01*
X108630090Y-34303694D01*
X108546306Y-34219910D01*
X108443694Y-34160667D01*
X108358584Y-34137861D01*
X109068797Y-33427647D01*
X109068797Y-33427646D01*
X109043367Y-33407853D01*
X109002555Y-33351143D01*
X108998880Y-33281370D01*
X109033512Y-33220687D01*
X109043366Y-33212148D01*
X109068797Y-33192352D01*
X109068798Y-33192350D01*
X108358585Y-32482137D01*
X108443694Y-32459333D01*
X108546306Y-32400090D01*
X108630090Y-32316306D01*
X108689333Y-32213694D01*
X108712138Y-32128585D01*
X109421186Y-32837633D01*
X109505482Y-32708611D01*
X109598682Y-32496135D01*
X109655638Y-32271218D01*
X109674798Y-32040005D01*
X109674798Y-32039994D01*
X109655638Y-31808781D01*
X109598682Y-31583864D01*
X109505484Y-31371393D01*
X109421186Y-31242365D01*
X108712137Y-31951414D01*
X108689333Y-31866306D01*
X108630090Y-31763694D01*
X108546306Y-31679910D01*
X108443694Y-31620667D01*
X108358584Y-31597861D01*
X109068797Y-30887647D01*
X109068797Y-30887646D01*
X109043773Y-30868169D01*
X109002961Y-30811459D01*
X108999286Y-30741686D01*
X109033918Y-30681003D01*
X109043760Y-30672473D01*
X109221784Y-30533913D01*
X109378979Y-30363153D01*
X109505924Y-30168849D01*
X109599157Y-29956300D01*
X109656134Y-29731305D01*
X109663332Y-29644435D01*
X109675300Y-29500006D01*
X109675300Y-29499993D01*
X109673228Y-29474983D01*
X113349500Y-29474983D01*
X113349500Y-31075001D01*
X113349501Y-31075018D01*
X113360000Y-31177796D01*
X113360001Y-31177799D01*
X113413233Y-31338441D01*
X113415186Y-31344334D01*
X113507288Y-31493656D01*
X113631344Y-31617712D01*
X113780666Y-31709814D01*
X113947203Y-31764999D01*
X114049991Y-31775500D01*
X115350008Y-31775499D01*
X115452797Y-31764999D01*
X115619334Y-31709814D01*
X115768656Y-31617712D01*
X115892712Y-31493656D01*
X115984814Y-31344334D01*
X115984814Y-31344331D01*
X115988448Y-31338441D01*
X116040395Y-31291716D01*
X116109358Y-31280493D01*
X116173440Y-31308336D01*
X116181668Y-31315856D01*
X116320535Y-31454723D01*
X116320540Y-31454727D01*
X116492442Y-31579620D01*
X116681782Y-31676095D01*
X116883871Y-31741757D01*
X116950000Y-31752231D01*
X116950000Y-30708012D01*
X117007007Y-30740925D01*
X117134174Y-30775000D01*
X117265826Y-30775000D01*
X117392993Y-30740925D01*
X117450000Y-30708012D01*
X117450000Y-31752230D01*
X117516126Y-31741757D01*
X117516129Y-31741757D01*
X117718217Y-31676095D01*
X117907557Y-31579620D01*
X118079459Y-31454727D01*
X118079464Y-31454723D01*
X118229723Y-31304464D01*
X118229727Y-31304459D01*
X118354620Y-31132557D01*
X118451095Y-30943217D01*
X118516757Y-30741130D01*
X118516757Y-30741127D01*
X118550000Y-30531246D01*
X118550000Y-30525000D01*
X117633012Y-30525000D01*
X117665925Y-30467993D01*
X117700000Y-30340826D01*
X117700000Y-30209174D01*
X117665925Y-30082007D01*
X117633012Y-30025000D01*
X118550000Y-30025000D01*
X118550000Y-30018753D01*
X118516757Y-29808872D01*
X118516757Y-29808869D01*
X118451095Y-29606782D01*
X118354620Y-29417442D01*
X118229727Y-29245540D01*
X118229723Y-29245535D01*
X118079464Y-29095276D01*
X118079459Y-29095272D01*
X117907557Y-28970379D01*
X117718215Y-28873903D01*
X117516124Y-28808241D01*
X117450000Y-28797768D01*
X117450000Y-29841988D01*
X117392993Y-29809075D01*
X117265826Y-29775000D01*
X117134174Y-29775000D01*
X117007007Y-29809075D01*
X116950000Y-29841988D01*
X116950000Y-28797768D01*
X116949999Y-28797768D01*
X116883875Y-28808241D01*
X116681784Y-28873903D01*
X116492442Y-28970379D01*
X116320541Y-29095271D01*
X116181668Y-29234144D01*
X116120345Y-29267628D01*
X116050653Y-29262644D01*
X115994720Y-29220772D01*
X115988448Y-29211558D01*
X115971583Y-29184216D01*
X115892712Y-29056344D01*
X115768656Y-28932288D01*
X115619334Y-28840186D01*
X115452797Y-28785001D01*
X115452795Y-28785000D01*
X115350010Y-28774500D01*
X114049998Y-28774500D01*
X114049981Y-28774501D01*
X113947203Y-28785000D01*
X113947200Y-28785001D01*
X113780668Y-28840185D01*
X113780663Y-28840187D01*
X113631342Y-28932289D01*
X113507289Y-29056342D01*
X113415187Y-29205663D01*
X113415185Y-29205668D01*
X113394300Y-29268695D01*
X113360001Y-29372203D01*
X113360001Y-29372204D01*
X113360000Y-29372204D01*
X113349500Y-29474983D01*
X109673228Y-29474983D01*
X109656135Y-29268702D01*
X109656133Y-29268691D01*
X109599157Y-29043699D01*
X109505924Y-28831151D01*
X109378983Y-28636852D01*
X109378980Y-28636849D01*
X109378979Y-28636847D01*
X109221784Y-28466087D01*
X109044180Y-28327853D01*
X109003368Y-28271143D01*
X108999693Y-28201370D01*
X109034324Y-28140687D01*
X109044181Y-28132146D01*
X109221784Y-27993913D01*
X109378979Y-27823153D01*
X109505924Y-27628849D01*
X109599157Y-27416300D01*
X109656134Y-27191305D01*
X109658525Y-27162452D01*
X109675300Y-26960006D01*
X109675300Y-26959993D01*
X109656135Y-26728702D01*
X109656133Y-26728691D01*
X109599157Y-26503699D01*
X109505924Y-26291151D01*
X109378983Y-26096852D01*
X109378980Y-26096849D01*
X109378979Y-26096847D01*
X109221784Y-25926087D01*
X109044180Y-25787853D01*
X109003368Y-25731143D01*
X108999693Y-25661370D01*
X109034324Y-25600687D01*
X109044181Y-25592146D01*
X109063899Y-25576799D01*
X109221784Y-25453913D01*
X109378979Y-25283153D01*
X109505924Y-25088849D01*
X109599157Y-24876300D01*
X109656134Y-24651305D01*
X109656763Y-24643713D01*
X109675300Y-24420006D01*
X109675300Y-24419993D01*
X109656135Y-24188702D01*
X109656133Y-24188691D01*
X109599157Y-23963699D01*
X109505924Y-23751151D01*
X109378983Y-23556852D01*
X109378980Y-23556849D01*
X109378979Y-23556847D01*
X109221784Y-23386087D01*
X109221778Y-23386082D01*
X109221777Y-23386081D01*
X109038634Y-23243535D01*
X109038628Y-23243531D01*
X108834504Y-23133064D01*
X108834495Y-23133061D01*
X108614984Y-23057702D01*
X108424450Y-23025908D01*
X108386049Y-23019500D01*
X108153951Y-23019500D01*
X108115550Y-23025908D01*
X107925015Y-23057702D01*
X107705504Y-23133061D01*
X107705495Y-23133064D01*
X107501371Y-23243531D01*
X107501365Y-23243535D01*
X107318222Y-23386081D01*
X107318218Y-23386085D01*
X107309866Y-23395158D01*
X107249979Y-23431148D01*
X107180141Y-23429047D01*
X107122525Y-23389522D01*
X107102455Y-23354507D01*
X107073797Y-23277671D01*
X107073793Y-23277664D01*
X106987547Y-23162455D01*
X106987544Y-23162452D01*
X106872335Y-23076206D01*
X106872328Y-23076202D01*
X106737482Y-23025908D01*
X106737483Y-23025908D01*
X106677883Y-23019501D01*
X106677881Y-23019500D01*
X106677873Y-23019500D01*
X106677864Y-23019500D01*
X104782129Y-23019500D01*
X104782123Y-23019501D01*
X104722516Y-23025908D01*
X104587671Y-23076202D01*
X104587664Y-23076206D01*
X104472455Y-23162452D01*
X104472452Y-23162455D01*
X104386206Y-23277664D01*
X104386202Y-23277671D01*
X104335908Y-23412517D01*
X104329501Y-23472116D01*
X104329500Y-23472135D01*
X104329500Y-25367870D01*
X104329501Y-25367876D01*
X104335908Y-25427483D01*
X104386202Y-25562328D01*
X104386206Y-25562335D01*
X104472452Y-25677544D01*
X104472455Y-25677547D01*
X104587664Y-25763793D01*
X104587673Y-25763798D01*
X104667904Y-25793722D01*
X104723838Y-25835593D01*
X104748256Y-25901057D01*
X104733405Y-25969330D01*
X104715802Y-25993886D01*
X104621019Y-26096849D01*
X104494075Y-26291151D01*
X104400842Y-26503699D01*
X104343866Y-26728691D01*
X104343864Y-26728702D01*
X104324700Y-26959993D01*
X99521401Y-26959993D01*
X99517246Y-26933757D01*
X99451557Y-26731588D01*
X99355051Y-26542184D01*
X99355049Y-26542181D01*
X99355048Y-26542179D01*
X99230109Y-26370213D01*
X99079792Y-26219896D01*
X99065751Y-26209695D01*
X98915204Y-26100316D01*
X98872540Y-26044989D01*
X98866561Y-25975376D01*
X98899166Y-25913580D01*
X98915199Y-25899686D01*
X99079792Y-25780104D01*
X99230104Y-25629792D01*
X99230106Y-25629788D01*
X99230109Y-25629786D01*
X99355048Y-25457820D01*
X99355047Y-25457820D01*
X99355051Y-25457816D01*
X99451557Y-25268412D01*
X99517246Y-25066243D01*
X99550500Y-24856287D01*
X99550500Y-24643713D01*
X99517246Y-24433757D01*
X99451557Y-24231588D01*
X99355051Y-24042184D01*
X99355049Y-24042181D01*
X99355048Y-24042179D01*
X99230109Y-23870213D01*
X99079790Y-23719894D01*
X99079785Y-23719890D01*
X98914781Y-23600008D01*
X98872115Y-23544678D01*
X98866136Y-23475065D01*
X98898741Y-23413270D01*
X98914781Y-23399371D01*
X99079466Y-23279721D01*
X99229723Y-23129464D01*
X99229727Y-23129459D01*
X99354620Y-22957557D01*
X99451095Y-22768217D01*
X99516757Y-22566129D01*
X99516757Y-22566126D01*
X99527231Y-22500000D01*
X98479146Y-22500000D01*
X98517630Y-22433343D01*
X98550000Y-22312535D01*
X98550000Y-22187465D01*
X98517630Y-22066657D01*
X98479146Y-22000000D01*
X99527231Y-22000000D01*
X99516757Y-21933873D01*
X99516757Y-21933870D01*
X99451095Y-21731782D01*
X99354620Y-21542442D01*
X99229727Y-21370540D01*
X99229723Y-21370535D01*
X99079464Y-21220276D01*
X99079459Y-21220272D01*
X98907557Y-21095379D01*
X98718217Y-20998904D01*
X98516128Y-20933242D01*
X98325000Y-20902969D01*
X98325000Y-21845854D01*
X98258343Y-21807370D01*
X98137535Y-21775000D01*
X98012465Y-21775000D01*
X97891657Y-21807370D01*
X97825000Y-21845854D01*
X97825000Y-20902969D01*
X97633872Y-20933242D01*
X97633869Y-20933242D01*
X97431782Y-20998904D01*
X97242442Y-21095379D01*
X97070540Y-21220272D01*
X97070535Y-21220276D01*
X96920276Y-21370535D01*
X96920272Y-21370540D01*
X96795379Y-21542442D01*
X96698904Y-21731782D01*
X96633242Y-21933870D01*
X96633242Y-21933873D01*
X96622769Y-22000000D01*
X97670854Y-22000000D01*
X97632370Y-22066657D01*
X97600000Y-22187465D01*
X97600000Y-22312535D01*
X97632370Y-22433343D01*
X97670854Y-22500000D01*
X96622769Y-22500000D01*
X96633242Y-22566126D01*
X96633242Y-22566129D01*
X96698904Y-22768217D01*
X96795379Y-22957557D01*
X96920272Y-23129459D01*
X96920276Y-23129464D01*
X97070535Y-23279723D01*
X97070540Y-23279727D01*
X97235218Y-23399372D01*
X97277884Y-23454701D01*
X97283863Y-23524315D01*
X97251258Y-23586110D01*
X97235218Y-23600008D01*
X97070214Y-23719890D01*
X97070209Y-23719894D01*
X96919890Y-23870213D01*
X96794951Y-24042179D01*
X96698444Y-24231585D01*
X96698443Y-24231587D01*
X96698443Y-24231588D01*
X96678055Y-24294336D01*
X96632753Y-24433760D01*
X96611538Y-24567710D01*
X96599500Y-24643713D01*
X86353303Y-24643713D01*
X86020245Y-24310655D01*
X85992566Y-24268450D01*
X85987179Y-24254786D01*
X85437550Y-22860540D01*
X85408139Y-22785933D01*
X85399499Y-22740457D01*
X85399499Y-22449998D01*
X85399498Y-22449981D01*
X85388999Y-22347203D01*
X85388998Y-22347200D01*
X85370766Y-22292179D01*
X85333814Y-22180666D01*
X85241712Y-22031344D01*
X85117656Y-21907288D01*
X85016588Y-21844949D01*
X84968336Y-21815187D01*
X84968331Y-21815185D01*
X84944747Y-21807370D01*
X84801797Y-21760001D01*
X84801795Y-21760000D01*
X84699010Y-21749500D01*
X83398998Y-21749500D01*
X83398981Y-21749501D01*
X83296203Y-21760000D01*
X83296200Y-21760001D01*
X83129668Y-21815185D01*
X83129663Y-21815187D01*
X82980342Y-21907289D01*
X82856289Y-22031342D01*
X82760551Y-22186559D01*
X82708603Y-22233283D01*
X82639640Y-22244506D01*
X82575558Y-22216662D01*
X82567331Y-22209143D01*
X82428464Y-22070276D01*
X82428459Y-22070272D01*
X82256557Y-21945379D01*
X82067215Y-21848903D01*
X81865124Y-21783241D01*
X81799000Y-21772768D01*
X81799000Y-22820854D01*
X81732343Y-22782370D01*
X81611535Y-22750000D01*
X81486465Y-22750000D01*
X81365657Y-22782370D01*
X81299000Y-22820854D01*
X81299000Y-21772768D01*
X81298999Y-21772768D01*
X81232875Y-21783241D01*
X81030784Y-21848903D01*
X80841442Y-21945379D01*
X80669540Y-22070272D01*
X80669535Y-22070276D01*
X80519276Y-22220535D01*
X80519272Y-22220540D01*
X80399627Y-22385218D01*
X80344297Y-22427884D01*
X80274684Y-22433863D01*
X80212889Y-22401257D01*
X80198991Y-22385218D01*
X80079109Y-22220214D01*
X80079105Y-22220209D01*
X79928786Y-22069890D01*
X79756820Y-21944951D01*
X79567414Y-21848444D01*
X79567413Y-21848443D01*
X79567412Y-21848443D01*
X79365243Y-21782754D01*
X79365241Y-21782753D01*
X79365240Y-21782753D01*
X79203957Y-21757208D01*
X79155287Y-21749500D01*
X78942713Y-21749500D01*
X78894042Y-21757208D01*
X78732760Y-21782753D01*
X78530585Y-21848444D01*
X78341179Y-21944951D01*
X78169213Y-22069890D01*
X78018894Y-22220209D01*
X78018890Y-22220214D01*
X77899008Y-22385218D01*
X77843678Y-22427884D01*
X77774065Y-22433863D01*
X77712270Y-22401257D01*
X77698372Y-22385218D01*
X77578727Y-22220540D01*
X77578723Y-22220535D01*
X77428464Y-22070276D01*
X77428459Y-22070272D01*
X77256557Y-21945379D01*
X77067215Y-21848903D01*
X76865124Y-21783241D01*
X76799000Y-21772768D01*
X76799000Y-22820854D01*
X76732343Y-22782370D01*
X76611535Y-22750000D01*
X76486465Y-22750000D01*
X76365657Y-22782370D01*
X76299000Y-22820854D01*
X76299000Y-21772768D01*
X76298999Y-21772768D01*
X76232875Y-21783241D01*
X76030784Y-21848903D01*
X75841442Y-21945379D01*
X75669540Y-22070272D01*
X75669535Y-22070276D01*
X75519276Y-22220535D01*
X75519272Y-22220540D01*
X75394379Y-22392442D01*
X75297904Y-22581782D01*
X75232242Y-22783869D01*
X75232242Y-22783872D01*
X75201970Y-22975000D01*
X71650499Y-22975000D01*
X71650499Y-22424992D01*
X71648074Y-22401257D01*
X71639999Y-22322203D01*
X71639998Y-22322200D01*
X71630050Y-22292179D01*
X71584814Y-22155666D01*
X71492712Y-22006344D01*
X71368656Y-21882288D01*
X71234349Y-21799447D01*
X71219336Y-21790187D01*
X71219331Y-21790185D01*
X71198375Y-21783241D01*
X71052797Y-21735001D01*
X71052795Y-21735000D01*
X70950010Y-21724500D01*
X69649998Y-21724500D01*
X69649981Y-21724501D01*
X69547203Y-21735000D01*
X69547200Y-21735001D01*
X69380668Y-21790185D01*
X69380663Y-21790187D01*
X69231342Y-21882289D01*
X69107289Y-22006342D01*
X69011821Y-22161121D01*
X68959873Y-22207845D01*
X68890910Y-22219068D01*
X68826828Y-22191224D01*
X68818601Y-22183705D01*
X68679786Y-22044890D01*
X68507820Y-21919951D01*
X68318414Y-21823444D01*
X68318413Y-21823443D01*
X68318412Y-21823443D01*
X68116243Y-21757754D01*
X68116241Y-21757753D01*
X68116240Y-21757753D01*
X67952263Y-21731782D01*
X67906287Y-21724500D01*
X67693713Y-21724500D01*
X67647737Y-21731782D01*
X67483760Y-21757753D01*
X67281585Y-21823444D01*
X67092179Y-21919951D01*
X66920213Y-22044890D01*
X66769890Y-22195213D01*
X66644951Y-22367179D01*
X66548444Y-22556585D01*
X66482753Y-22758760D01*
X66461379Y-22893713D01*
X66449500Y-22968713D01*
X62850500Y-22968713D01*
X62850500Y-22893713D01*
X62817246Y-22683757D01*
X62751557Y-22481588D01*
X62655051Y-22292184D01*
X62655049Y-22292181D01*
X62655048Y-22292179D01*
X62530109Y-22120213D01*
X62379786Y-21969890D01*
X62207820Y-21844951D01*
X62018414Y-21748444D01*
X62018413Y-21748443D01*
X62018412Y-21748443D01*
X61816243Y-21682754D01*
X61816241Y-21682753D01*
X61816240Y-21682753D01*
X61654957Y-21657208D01*
X61606287Y-21649500D01*
X61393713Y-21649500D01*
X61345042Y-21657208D01*
X61183760Y-21682753D01*
X60981585Y-21748444D01*
X60792179Y-21844951D01*
X60620213Y-21969890D01*
X60469890Y-22120213D01*
X60344951Y-22292179D01*
X60248444Y-22481585D01*
X60182753Y-22683760D01*
X60149500Y-22893713D01*
X51235188Y-22893713D01*
X51325789Y-22749522D01*
X51385368Y-22579255D01*
X51386847Y-22566129D01*
X51405565Y-22400003D01*
X51405565Y-22399996D01*
X51385369Y-22220750D01*
X51385368Y-22220745D01*
X51364505Y-22161121D01*
X51325789Y-22050478D01*
X51315830Y-22034629D01*
X51267897Y-21958343D01*
X51229816Y-21897738D01*
X51102262Y-21770184D01*
X51067663Y-21748444D01*
X50949523Y-21674211D01*
X50779254Y-21614631D01*
X50779249Y-21614630D01*
X50600004Y-21594435D01*
X50599996Y-21594435D01*
X50420750Y-21614630D01*
X50420745Y-21614631D01*
X50250476Y-21674211D01*
X50097737Y-21770184D01*
X49970184Y-21897737D01*
X49874211Y-22050476D01*
X49814631Y-22220745D01*
X49814630Y-22220750D01*
X49794435Y-22399996D01*
X40306450Y-22399996D01*
X40471112Y-22235334D01*
X40471112Y-22235333D01*
X40402445Y-22187253D01*
X40390726Y-22181789D01*
X40338286Y-22135617D01*
X40319133Y-22068424D01*
X40339348Y-22001543D01*
X40392512Y-21956207D01*
X40414854Y-21949358D01*
X40414752Y-21948976D01*
X40633270Y-21890424D01*
X40633284Y-21890419D01*
X40833407Y-21797100D01*
X40833417Y-21797094D01*
X40898188Y-21751741D01*
X40227448Y-21081000D01*
X40250160Y-21081000D01*
X40347061Y-21055036D01*
X40433940Y-21004876D01*
X40504876Y-20933940D01*
X40555036Y-20847061D01*
X40581000Y-20750160D01*
X40581000Y-20727447D01*
X41251741Y-21398188D01*
X41297094Y-21333417D01*
X41297100Y-21333407D01*
X41390419Y-21133284D01*
X41390424Y-21133270D01*
X41447573Y-20919986D01*
X41447575Y-20919976D01*
X41466821Y-20700000D01*
X41466821Y-20699999D01*
X41447575Y-20480023D01*
X41447573Y-20480013D01*
X41390424Y-20266729D01*
X41390420Y-20266720D01*
X41297096Y-20066586D01*
X41251741Y-20001811D01*
X41251740Y-20001810D01*
X40581000Y-20672551D01*
X40581000Y-20649840D01*
X40555036Y-20552939D01*
X40504876Y-20466060D01*
X40433940Y-20395124D01*
X40347061Y-20344964D01*
X40250160Y-20319000D01*
X40227448Y-20319000D01*
X40898188Y-19648258D01*
X40897055Y-19635308D01*
X40910821Y-19566808D01*
X40959436Y-19516625D01*
X41020583Y-19500500D01*
X113323501Y-19500500D01*
X113390540Y-19520185D01*
G37*
%TD.AperFunction*%
%TA.AperFunction,Conductor*%
G36*
X39446455Y-19520185D02*
G01*
X39492210Y-19572989D01*
X39502944Y-19635308D01*
X39501810Y-19648257D01*
X40172553Y-20319000D01*
X40149840Y-20319000D01*
X40052939Y-20344964D01*
X39966060Y-20395124D01*
X39895124Y-20466060D01*
X39844964Y-20552939D01*
X39819000Y-20649840D01*
X39819000Y-20672553D01*
X39148258Y-20001811D01*
X39102901Y-20066590D01*
X39009579Y-20266720D01*
X39009575Y-20266729D01*
X38952426Y-20480013D01*
X38952424Y-20480023D01*
X38933179Y-20699999D01*
X38933179Y-20700000D01*
X38952424Y-20919976D01*
X38952426Y-20919986D01*
X39009575Y-21133270D01*
X39009580Y-21133284D01*
X39102898Y-21333405D01*
X39102901Y-21333411D01*
X39148258Y-21398187D01*
X39148259Y-21398188D01*
X39819000Y-20727447D01*
X39819000Y-20750160D01*
X39844964Y-20847061D01*
X39895124Y-20933940D01*
X39966060Y-21004876D01*
X40052939Y-21055036D01*
X40149840Y-21081000D01*
X40172553Y-21081000D01*
X39501810Y-21751740D01*
X39566588Y-21797098D01*
X39571626Y-21799447D01*
X39624067Y-21845618D01*
X39643221Y-21912811D01*
X39623007Y-21979693D01*
X39569843Y-22025029D01*
X39540762Y-22033946D01*
X39536887Y-22034629D01*
X39320549Y-22092596D01*
X39320540Y-22092600D01*
X39117556Y-22187253D01*
X39048887Y-22235334D01*
X39630590Y-22817037D01*
X39567007Y-22834075D01*
X39452993Y-22899901D01*
X39359901Y-22992993D01*
X39294075Y-23107007D01*
X39277037Y-23170590D01*
X38695333Y-22588886D01*
X38637731Y-22593927D01*
X38637572Y-22592118D01*
X38601993Y-22595799D01*
X38539640Y-22564273D01*
X38504229Y-22504042D01*
X38500500Y-22473859D01*
X38500500Y-19624500D01*
X38520185Y-19557461D01*
X38572989Y-19511706D01*
X38624500Y-19500500D01*
X39379416Y-19500500D01*
X39446455Y-19520185D01*
G37*
%TD.AperFunction*%
%TD*%
%TA.AperFunction,Conductor*%
%TO.N,/IS_USE_PRIMARY*%
G36*
X61383931Y-54026823D02*
G01*
X61389309Y-54032682D01*
X61499115Y-54295489D01*
X61499142Y-54304444D01*
X61499115Y-54304511D01*
X61389309Y-54567317D01*
X61382957Y-54573629D01*
X61375012Y-54573970D01*
X60908199Y-54427571D01*
X60901330Y-54421825D01*
X60900000Y-54416407D01*
X60900000Y-54183592D01*
X60903427Y-54175319D01*
X60908196Y-54172429D01*
X61375013Y-54026029D01*
X61383931Y-54026823D01*
G37*
%TD.AperFunction*%
%TD*%
%TA.AperFunction,Conductor*%
%TO.N,/LIGHT_VALUE*%
G36*
X117150150Y-24403427D02*
G01*
X117152839Y-24407610D01*
X117616684Y-25650940D01*
X117616365Y-25659890D01*
X117610212Y-25665834D01*
X116904490Y-25959133D01*
X116895535Y-25959144D01*
X116895510Y-25959133D01*
X116189787Y-25665834D01*
X116183462Y-25659495D01*
X116183315Y-25650943D01*
X116647161Y-24407610D01*
X116653263Y-24401057D01*
X116658123Y-24400000D01*
X117141877Y-24400000D01*
X117150150Y-24403427D01*
G37*
%TD.AperFunction*%
%TD*%
%TA.AperFunction,Conductor*%
%TO.N,/LIGHT_VALUE*%
G36*
X118689797Y-20665809D02*
G01*
X119396212Y-20957437D01*
X119402551Y-20963762D01*
X119402562Y-20963787D01*
X119694189Y-21670201D01*
X119694178Y-21679156D01*
X119688234Y-21685309D01*
X118481080Y-22236488D01*
X118472130Y-22236807D01*
X118467947Y-22234118D01*
X118125881Y-21892052D01*
X118122454Y-21883779D01*
X118123509Y-21878924D01*
X118674690Y-20671764D01*
X118681243Y-20665663D01*
X118689797Y-20665809D01*
G37*
%TD.AperFunction*%
%TD*%
%TA.AperFunction,Conductor*%
%TO.N,/IS_DOOR_OPENED*%
G36*
X90171736Y-38391325D02*
G01*
X90605346Y-38617893D01*
X90611092Y-38624762D01*
X90610751Y-38632707D01*
X90502563Y-38896184D01*
X90496251Y-38902536D01*
X90496184Y-38902563D01*
X90232707Y-39010751D01*
X90223752Y-39010724D01*
X90217893Y-39005346D01*
X89991325Y-38571737D01*
X89990532Y-38562821D01*
X89993421Y-38558051D01*
X90158050Y-38393422D01*
X90166322Y-38389996D01*
X90171736Y-38391325D01*
G37*
%TD.AperFunction*%
%TD*%
%TA.AperFunction,Conductor*%
%TO.N,/IS_DOOR_OPENED*%
G36*
X84896962Y-22877292D02*
G01*
X84903289Y-22883630D01*
X84903361Y-22883807D01*
X85562860Y-24556758D01*
X85562706Y-24565712D01*
X85560248Y-24569322D01*
X85394070Y-24735500D01*
X85385797Y-24738927D01*
X85381980Y-24738287D01*
X85373904Y-24735500D01*
X83832139Y-24203436D01*
X83825438Y-24197499D01*
X83824559Y-24189737D01*
X84046933Y-23230161D01*
X84052138Y-23222877D01*
X84053855Y-23221994D01*
X84888008Y-22877285D01*
X84896962Y-22877292D01*
G37*
%TD.AperFunction*%
%TD*%
%TA.AperFunction,Conductor*%
%TO.N,/INDOOR_FL*%
G36*
X91141802Y-29822429D02*
G01*
X91148670Y-29828174D01*
X91150000Y-29833592D01*
X91150000Y-30066407D01*
X91146573Y-30074680D01*
X91141801Y-30077571D01*
X90674987Y-30223970D01*
X90666068Y-30223176D01*
X90660691Y-30217318D01*
X90550883Y-29954509D01*
X90550857Y-29945556D01*
X90550862Y-29945542D01*
X90660691Y-29682680D01*
X90667042Y-29676370D01*
X90674986Y-29676029D01*
X91141802Y-29822429D01*
G37*
%TD.AperFunction*%
%TD*%
%TA.AperFunction,Conductor*%
%TO.N,/INDOOR_FL*%
G36*
X115712992Y-44446703D02*
G01*
X116102569Y-44763865D01*
X116616006Y-45181864D01*
X116620258Y-45189744D01*
X116617692Y-45198324D01*
X116616939Y-45199163D01*
X115810263Y-46014968D01*
X115802009Y-46018442D01*
X115796762Y-46017233D01*
X114806519Y-45528219D01*
X114800619Y-45521483D01*
X114800000Y-45517728D01*
X114800000Y-45280126D01*
X114803427Y-45271853D01*
X114803768Y-45271525D01*
X114892450Y-45189744D01*
X115697675Y-44447175D01*
X115706079Y-44444087D01*
X115712992Y-44446703D01*
G37*
%TD.AperFunction*%
%TD*%
%TA.AperFunction,Conductor*%
%TO.N,/OUTDOOR_FL*%
G36*
X116034049Y-46990675D02*
G01*
X116621675Y-47684891D01*
X116624405Y-47693420D01*
X116623788Y-47696316D01*
X116338192Y-48512185D01*
X116332224Y-48518861D01*
X116323283Y-48519362D01*
X116322856Y-48519203D01*
X114823740Y-47927921D01*
X114817301Y-47921698D01*
X114816333Y-47917037D01*
X114816333Y-47681792D01*
X114819760Y-47673519D01*
X114822231Y-47671632D01*
X116019319Y-46988073D01*
X116028201Y-46986947D01*
X116034049Y-46990675D01*
G37*
%TD.AperFunction*%
%TD*%
%TA.AperFunction,Conductor*%
%TO.N,/OUTDOOR_FL*%
G36*
X92391802Y-30672429D02*
G01*
X92398670Y-30678174D01*
X92400000Y-30683592D01*
X92400000Y-30916407D01*
X92396573Y-30924680D01*
X92391801Y-30927571D01*
X91924987Y-31073970D01*
X91916068Y-31073176D01*
X91910691Y-31067318D01*
X91800883Y-30804509D01*
X91800857Y-30795556D01*
X91800862Y-30795542D01*
X91910691Y-30532680D01*
X91917042Y-30526370D01*
X91924986Y-30526029D01*
X92391802Y-30672429D01*
G37*
%TD.AperFunction*%
%TD*%
%TA.AperFunction,Conductor*%
%TO.N,/SCL*%
G36*
X66186323Y-39547695D02*
G01*
X66193442Y-39553124D01*
X66195027Y-39559004D01*
X66195027Y-39791845D01*
X66191600Y-39800118D01*
X66187377Y-39802822D01*
X65725327Y-39973282D01*
X65716379Y-39972930D01*
X65710481Y-39966816D01*
X65640831Y-39800118D01*
X65600883Y-39704509D01*
X65600857Y-39695556D01*
X65600862Y-39695542D01*
X65710874Y-39432243D01*
X65717225Y-39425933D01*
X65724661Y-39425446D01*
X66186323Y-39547695D01*
G37*
%TD.AperFunction*%
%TD*%
%TA.AperFunction,Conductor*%
%TO.N,/SCL*%
G36*
X83284070Y-50139228D02*
G01*
X83289218Y-50144964D01*
X83399115Y-50407989D01*
X83399142Y-50416944D01*
X83399115Y-50417011D01*
X83289412Y-50679569D01*
X83283060Y-50685881D01*
X83274839Y-50686131D01*
X82810409Y-50527702D01*
X82803685Y-50521788D01*
X82802486Y-50516629D01*
X82802486Y-50283794D01*
X82805913Y-50275521D01*
X82810931Y-50272556D01*
X83275171Y-50138236D01*
X83284070Y-50139228D01*
G37*
%TD.AperFunction*%
%TD*%
%TA.AperFunction,Conductor*%
%TO.N,/SCL*%
G36*
X83991802Y-50284929D02*
G01*
X83998670Y-50290674D01*
X84000000Y-50296092D01*
X84000000Y-50528907D01*
X83996573Y-50537180D01*
X83991801Y-50540071D01*
X83524987Y-50686470D01*
X83516068Y-50685676D01*
X83510691Y-50679818D01*
X83400883Y-50417009D01*
X83400857Y-50408056D01*
X83400862Y-50408042D01*
X83510691Y-50145180D01*
X83517042Y-50138870D01*
X83524986Y-50138529D01*
X83991802Y-50284929D01*
G37*
%TD.AperFunction*%
%TD*%
%TA.AperFunction,Conductor*%
%TO.N,/SCL*%
G36*
X94195666Y-35995615D02*
G01*
X94397241Y-36195850D01*
X94400695Y-36204112D01*
X94400695Y-36204179D01*
X94400026Y-36488556D01*
X94396580Y-36496821D01*
X94388558Y-36500226D01*
X93982798Y-36508264D01*
X93974458Y-36505001D01*
X93974293Y-36504839D01*
X93809815Y-36340361D01*
X93806388Y-36332088D01*
X93809815Y-36323815D01*
X93810300Y-36323357D01*
X94179650Y-35995169D01*
X94188109Y-35992236D01*
X94195666Y-35995615D01*
G37*
%TD.AperFunction*%
%TD*%
%TA.AperFunction,Conductor*%
%TO.N,/SDA*%
G36*
X80983931Y-50839323D02*
G01*
X80989309Y-50845182D01*
X81099115Y-51107989D01*
X81099142Y-51116944D01*
X81099115Y-51117011D01*
X80989309Y-51379817D01*
X80982957Y-51386129D01*
X80975012Y-51386470D01*
X80508199Y-51240071D01*
X80501330Y-51234325D01*
X80500000Y-51228907D01*
X80500000Y-50996092D01*
X80503427Y-50987819D01*
X80508196Y-50984929D01*
X80975013Y-50838529D01*
X80983931Y-50839323D01*
G37*
%TD.AperFunction*%
%TD*%
%TA.AperFunction,Conductor*%
%TO.N,/SDA*%
G36*
X94497615Y-35093926D02*
G01*
X94502951Y-35098404D01*
X94755466Y-35491963D01*
X94757050Y-35500776D01*
X94753892Y-35506554D01*
X94589267Y-35671179D01*
X94580994Y-35674606D01*
X94576585Y-35673743D01*
X94116587Y-35486586D01*
X94110215Y-35480294D01*
X94110159Y-35471340D01*
X94110173Y-35471305D01*
X94217956Y-35208814D01*
X94224266Y-35202463D01*
X94488660Y-35093899D01*
X94497615Y-35093926D01*
G37*
%TD.AperFunction*%
%TD*%
%TA.AperFunction,Conductor*%
%TO.N,/SDA*%
G36*
X81691802Y-50984929D02*
G01*
X81698670Y-50990674D01*
X81700000Y-50996092D01*
X81700000Y-51228907D01*
X81696573Y-51237180D01*
X81691801Y-51240071D01*
X81224987Y-51386470D01*
X81216068Y-51385676D01*
X81210691Y-51379818D01*
X81100883Y-51117009D01*
X81100857Y-51108056D01*
X81100862Y-51108042D01*
X81210691Y-50845180D01*
X81217042Y-50838870D01*
X81224986Y-50838529D01*
X81691802Y-50984929D01*
G37*
%TD.AperFunction*%
%TD*%
%TA.AperFunction,Conductor*%
%TO.N,/SDA*%
G36*
X68276247Y-40989275D02*
G01*
X68282105Y-40994652D01*
X68481974Y-41377164D01*
X68508673Y-41428259D01*
X68509467Y-41437178D01*
X68506576Y-41441950D01*
X68341950Y-41606576D01*
X68333677Y-41610003D01*
X68328260Y-41608673D01*
X67894652Y-41382105D01*
X67888907Y-41375237D01*
X67889247Y-41367293D01*
X67997436Y-41103814D01*
X68003746Y-41097464D01*
X68267293Y-40989248D01*
X68276247Y-40989275D01*
G37*
%TD.AperFunction*%
%TD*%
%TA.AperFunction,Conductor*%
%TO.N,/IS_RESERVE_OK*%
G36*
X70483931Y-54126823D02*
G01*
X70489309Y-54132682D01*
X70599115Y-54395489D01*
X70599142Y-54404444D01*
X70599115Y-54404511D01*
X70489309Y-54667317D01*
X70482957Y-54673629D01*
X70475012Y-54673970D01*
X70008199Y-54527571D01*
X70001330Y-54521825D01*
X70000000Y-54516407D01*
X70000000Y-54283592D01*
X70003427Y-54275319D01*
X70008196Y-54272429D01*
X70475013Y-54126029D01*
X70483931Y-54126823D01*
G37*
%TD.AperFunction*%
%TD*%
M02*
