%TF.GenerationSoftware,KiCad,Pcbnew,8.0.6-8.0.6-0~ubuntu24.04.1*%
%TF.CreationDate,2024-10-25T11:14:03+03:00*%
%TF.ProjectId,pss_v2,7073735f-7632-42e6-9b69-6361645f7063,rev?*%
%TF.SameCoordinates,Original*%
%TF.FileFunction,Legend,Top*%
%TF.FilePolarity,Positive*%
%FSLAX46Y46*%
G04 Gerber Fmt 4.6, Leading zero omitted, Abs format (unit mm)*
G04 Created by KiCad (PCBNEW 8.0.6-8.0.6-0~ubuntu24.04.1) date 2024-10-25 11:14:03*
%MOMM*%
%LPD*%
G01*
G04 APERTURE LIST*
%ADD10C,0.150000*%
%ADD11C,0.120000*%
G04 APERTURE END LIST*
D10*
X53833333Y-55654819D02*
X53500000Y-55178628D01*
X53261905Y-55654819D02*
X53261905Y-54654819D01*
X53261905Y-54654819D02*
X53642857Y-54654819D01*
X53642857Y-54654819D02*
X53738095Y-54702438D01*
X53738095Y-54702438D02*
X53785714Y-54750057D01*
X53785714Y-54750057D02*
X53833333Y-54845295D01*
X53833333Y-54845295D02*
X53833333Y-54988152D01*
X53833333Y-54988152D02*
X53785714Y-55083390D01*
X53785714Y-55083390D02*
X53738095Y-55131009D01*
X53738095Y-55131009D02*
X53642857Y-55178628D01*
X53642857Y-55178628D02*
X53261905Y-55178628D01*
X54595238Y-55131009D02*
X54738095Y-55178628D01*
X54738095Y-55178628D02*
X54785714Y-55226247D01*
X54785714Y-55226247D02*
X54833333Y-55321485D01*
X54833333Y-55321485D02*
X54833333Y-55464342D01*
X54833333Y-55464342D02*
X54785714Y-55559580D01*
X54785714Y-55559580D02*
X54738095Y-55607200D01*
X54738095Y-55607200D02*
X54642857Y-55654819D01*
X54642857Y-55654819D02*
X54261905Y-55654819D01*
X54261905Y-55654819D02*
X54261905Y-54654819D01*
X54261905Y-54654819D02*
X54595238Y-54654819D01*
X54595238Y-54654819D02*
X54690476Y-54702438D01*
X54690476Y-54702438D02*
X54738095Y-54750057D01*
X54738095Y-54750057D02*
X54785714Y-54845295D01*
X54785714Y-54845295D02*
X54785714Y-54940533D01*
X54785714Y-54940533D02*
X54738095Y-55035771D01*
X54738095Y-55035771D02*
X54690476Y-55083390D01*
X54690476Y-55083390D02*
X54595238Y-55131009D01*
X54595238Y-55131009D02*
X54261905Y-55131009D01*
X55166667Y-54654819D02*
X55785714Y-54654819D01*
X55785714Y-54654819D02*
X55452381Y-55035771D01*
X55452381Y-55035771D02*
X55595238Y-55035771D01*
X55595238Y-55035771D02*
X55690476Y-55083390D01*
X55690476Y-55083390D02*
X55738095Y-55131009D01*
X55738095Y-55131009D02*
X55785714Y-55226247D01*
X55785714Y-55226247D02*
X55785714Y-55464342D01*
X55785714Y-55464342D02*
X55738095Y-55559580D01*
X55738095Y-55559580D02*
X55690476Y-55607200D01*
X55690476Y-55607200D02*
X55595238Y-55654819D01*
X55595238Y-55654819D02*
X55309524Y-55654819D01*
X55309524Y-55654819D02*
X55214286Y-55607200D01*
X55214286Y-55607200D02*
X55166667Y-55559580D01*
X49604761Y-21154819D02*
X49271428Y-20678628D01*
X49033333Y-21154819D02*
X49033333Y-20154819D01*
X49033333Y-20154819D02*
X49414285Y-20154819D01*
X49414285Y-20154819D02*
X49509523Y-20202438D01*
X49509523Y-20202438D02*
X49557142Y-20250057D01*
X49557142Y-20250057D02*
X49604761Y-20345295D01*
X49604761Y-20345295D02*
X49604761Y-20488152D01*
X49604761Y-20488152D02*
X49557142Y-20583390D01*
X49557142Y-20583390D02*
X49509523Y-20631009D01*
X49509523Y-20631009D02*
X49414285Y-20678628D01*
X49414285Y-20678628D02*
X49033333Y-20678628D01*
X49985714Y-20869104D02*
X50461904Y-20869104D01*
X49890476Y-21154819D02*
X50223809Y-20154819D01*
X50223809Y-20154819D02*
X50557142Y-21154819D01*
X50795238Y-20154819D02*
X51414285Y-20154819D01*
X51414285Y-20154819D02*
X51080952Y-20535771D01*
X51080952Y-20535771D02*
X51223809Y-20535771D01*
X51223809Y-20535771D02*
X51319047Y-20583390D01*
X51319047Y-20583390D02*
X51366666Y-20631009D01*
X51366666Y-20631009D02*
X51414285Y-20726247D01*
X51414285Y-20726247D02*
X51414285Y-20964342D01*
X51414285Y-20964342D02*
X51366666Y-21059580D01*
X51366666Y-21059580D02*
X51319047Y-21107200D01*
X51319047Y-21107200D02*
X51223809Y-21154819D01*
X51223809Y-21154819D02*
X50938095Y-21154819D01*
X50938095Y-21154819D02*
X50842857Y-21107200D01*
X50842857Y-21107200D02*
X50795238Y-21059580D01*
X72504761Y-45850057D02*
X72409523Y-45802438D01*
X72409523Y-45802438D02*
X72314285Y-45707200D01*
X72314285Y-45707200D02*
X72171428Y-45564342D01*
X72171428Y-45564342D02*
X72076190Y-45516723D01*
X72076190Y-45516723D02*
X71980952Y-45516723D01*
X72028571Y-45754819D02*
X71933333Y-45707200D01*
X71933333Y-45707200D02*
X71838095Y-45611961D01*
X71838095Y-45611961D02*
X71790476Y-45421485D01*
X71790476Y-45421485D02*
X71790476Y-45088152D01*
X71790476Y-45088152D02*
X71838095Y-44897676D01*
X71838095Y-44897676D02*
X71933333Y-44802438D01*
X71933333Y-44802438D02*
X72028571Y-44754819D01*
X72028571Y-44754819D02*
X72219047Y-44754819D01*
X72219047Y-44754819D02*
X72314285Y-44802438D01*
X72314285Y-44802438D02*
X72409523Y-44897676D01*
X72409523Y-44897676D02*
X72457142Y-45088152D01*
X72457142Y-45088152D02*
X72457142Y-45421485D01*
X72457142Y-45421485D02*
X72409523Y-45611961D01*
X72409523Y-45611961D02*
X72314285Y-45707200D01*
X72314285Y-45707200D02*
X72219047Y-45754819D01*
X72219047Y-45754819D02*
X72028571Y-45754819D01*
X73314285Y-44754819D02*
X73123809Y-44754819D01*
X73123809Y-44754819D02*
X73028571Y-44802438D01*
X73028571Y-44802438D02*
X72980952Y-44850057D01*
X72980952Y-44850057D02*
X72885714Y-44992914D01*
X72885714Y-44992914D02*
X72838095Y-45183390D01*
X72838095Y-45183390D02*
X72838095Y-45564342D01*
X72838095Y-45564342D02*
X72885714Y-45659580D01*
X72885714Y-45659580D02*
X72933333Y-45707200D01*
X72933333Y-45707200D02*
X73028571Y-45754819D01*
X73028571Y-45754819D02*
X73219047Y-45754819D01*
X73219047Y-45754819D02*
X73314285Y-45707200D01*
X73314285Y-45707200D02*
X73361904Y-45659580D01*
X73361904Y-45659580D02*
X73409523Y-45564342D01*
X73409523Y-45564342D02*
X73409523Y-45326247D01*
X73409523Y-45326247D02*
X73361904Y-45231009D01*
X73361904Y-45231009D02*
X73314285Y-45183390D01*
X73314285Y-45183390D02*
X73219047Y-45135771D01*
X73219047Y-45135771D02*
X73028571Y-45135771D01*
X73028571Y-45135771D02*
X72933333Y-45183390D01*
X72933333Y-45183390D02*
X72885714Y-45231009D01*
X72885714Y-45231009D02*
X72838095Y-45326247D01*
X87561905Y-21954819D02*
X88133333Y-21954819D01*
X87847619Y-22954819D02*
X87847619Y-21954819D01*
X88466667Y-22954819D02*
X88466667Y-21954819D01*
X88466667Y-21954819D02*
X88847619Y-21954819D01*
X88847619Y-21954819D02*
X88942857Y-22002438D01*
X88942857Y-22002438D02*
X88990476Y-22050057D01*
X88990476Y-22050057D02*
X89038095Y-22145295D01*
X89038095Y-22145295D02*
X89038095Y-22288152D01*
X89038095Y-22288152D02*
X88990476Y-22383390D01*
X88990476Y-22383390D02*
X88942857Y-22431009D01*
X88942857Y-22431009D02*
X88847619Y-22478628D01*
X88847619Y-22478628D02*
X88466667Y-22478628D01*
X89990476Y-22954819D02*
X89419048Y-22954819D01*
X89704762Y-22954819D02*
X89704762Y-21954819D01*
X89704762Y-21954819D02*
X89609524Y-22097676D01*
X89609524Y-22097676D02*
X89514286Y-22192914D01*
X89514286Y-22192914D02*
X89419048Y-22240533D01*
X90847619Y-22288152D02*
X90847619Y-22954819D01*
X90609524Y-21907200D02*
X90371429Y-22621485D01*
X90371429Y-22621485D02*
X90990476Y-22621485D01*
X87809524Y-24354819D02*
X87809524Y-23354819D01*
X87809524Y-23354819D02*
X88047619Y-23354819D01*
X88047619Y-23354819D02*
X88190476Y-23402438D01*
X88190476Y-23402438D02*
X88285714Y-23497676D01*
X88285714Y-23497676D02*
X88333333Y-23592914D01*
X88333333Y-23592914D02*
X88380952Y-23783390D01*
X88380952Y-23783390D02*
X88380952Y-23926247D01*
X88380952Y-23926247D02*
X88333333Y-24116723D01*
X88333333Y-24116723D02*
X88285714Y-24211961D01*
X88285714Y-24211961D02*
X88190476Y-24307200D01*
X88190476Y-24307200D02*
X88047619Y-24354819D01*
X88047619Y-24354819D02*
X87809524Y-24354819D01*
X89380952Y-24354819D02*
X89047619Y-23878628D01*
X88809524Y-24354819D02*
X88809524Y-23354819D01*
X88809524Y-23354819D02*
X89190476Y-23354819D01*
X89190476Y-23354819D02*
X89285714Y-23402438D01*
X89285714Y-23402438D02*
X89333333Y-23450057D01*
X89333333Y-23450057D02*
X89380952Y-23545295D01*
X89380952Y-23545295D02*
X89380952Y-23688152D01*
X89380952Y-23688152D02*
X89333333Y-23783390D01*
X89333333Y-23783390D02*
X89285714Y-23831009D01*
X89285714Y-23831009D02*
X89190476Y-23878628D01*
X89190476Y-23878628D02*
X88809524Y-23878628D01*
X89571429Y-24450057D02*
X90333333Y-24450057D01*
X90761905Y-23354819D02*
X90952381Y-23354819D01*
X90952381Y-23354819D02*
X91047619Y-23402438D01*
X91047619Y-23402438D02*
X91142857Y-23497676D01*
X91142857Y-23497676D02*
X91190476Y-23688152D01*
X91190476Y-23688152D02*
X91190476Y-24021485D01*
X91190476Y-24021485D02*
X91142857Y-24211961D01*
X91142857Y-24211961D02*
X91047619Y-24307200D01*
X91047619Y-24307200D02*
X90952381Y-24354819D01*
X90952381Y-24354819D02*
X90761905Y-24354819D01*
X90761905Y-24354819D02*
X90666667Y-24307200D01*
X90666667Y-24307200D02*
X90571429Y-24211961D01*
X90571429Y-24211961D02*
X90523810Y-24021485D01*
X90523810Y-24021485D02*
X90523810Y-23688152D01*
X90523810Y-23688152D02*
X90571429Y-23497676D01*
X90571429Y-23497676D02*
X90666667Y-23402438D01*
X90666667Y-23402438D02*
X90761905Y-23354819D01*
X91619048Y-24354819D02*
X91619048Y-23354819D01*
X91619048Y-23354819D02*
X92000000Y-23354819D01*
X92000000Y-23354819D02*
X92095238Y-23402438D01*
X92095238Y-23402438D02*
X92142857Y-23450057D01*
X92142857Y-23450057D02*
X92190476Y-23545295D01*
X92190476Y-23545295D02*
X92190476Y-23688152D01*
X92190476Y-23688152D02*
X92142857Y-23783390D01*
X92142857Y-23783390D02*
X92095238Y-23831009D01*
X92095238Y-23831009D02*
X92000000Y-23878628D01*
X92000000Y-23878628D02*
X91619048Y-23878628D01*
X92619048Y-24354819D02*
X92619048Y-23354819D01*
X92619048Y-23354819D02*
X93190476Y-24354819D01*
X93190476Y-24354819D02*
X93190476Y-23354819D01*
X93666667Y-24354819D02*
X93666667Y-23354819D01*
X93666667Y-23354819D02*
X93904762Y-23354819D01*
X93904762Y-23354819D02*
X94047619Y-23402438D01*
X94047619Y-23402438D02*
X94142857Y-23497676D01*
X94142857Y-23497676D02*
X94190476Y-23592914D01*
X94190476Y-23592914D02*
X94238095Y-23783390D01*
X94238095Y-23783390D02*
X94238095Y-23926247D01*
X94238095Y-23926247D02*
X94190476Y-24116723D01*
X94190476Y-24116723D02*
X94142857Y-24211961D01*
X94142857Y-24211961D02*
X94047619Y-24307200D01*
X94047619Y-24307200D02*
X93904762Y-24354819D01*
X93904762Y-24354819D02*
X93666667Y-24354819D01*
X71838095Y-53354819D02*
X72409523Y-53354819D01*
X72123809Y-54354819D02*
X72123809Y-53354819D01*
X72742857Y-54354819D02*
X72742857Y-53354819D01*
X72742857Y-53354819D02*
X73123809Y-53354819D01*
X73123809Y-53354819D02*
X73219047Y-53402438D01*
X73219047Y-53402438D02*
X73266666Y-53450057D01*
X73266666Y-53450057D02*
X73314285Y-53545295D01*
X73314285Y-53545295D02*
X73314285Y-53688152D01*
X73314285Y-53688152D02*
X73266666Y-53783390D01*
X73266666Y-53783390D02*
X73219047Y-53831009D01*
X73219047Y-53831009D02*
X73123809Y-53878628D01*
X73123809Y-53878628D02*
X72742857Y-53878628D01*
X73885714Y-53783390D02*
X73790476Y-53735771D01*
X73790476Y-53735771D02*
X73742857Y-53688152D01*
X73742857Y-53688152D02*
X73695238Y-53592914D01*
X73695238Y-53592914D02*
X73695238Y-53545295D01*
X73695238Y-53545295D02*
X73742857Y-53450057D01*
X73742857Y-53450057D02*
X73790476Y-53402438D01*
X73790476Y-53402438D02*
X73885714Y-53354819D01*
X73885714Y-53354819D02*
X74076190Y-53354819D01*
X74076190Y-53354819D02*
X74171428Y-53402438D01*
X74171428Y-53402438D02*
X74219047Y-53450057D01*
X74219047Y-53450057D02*
X74266666Y-53545295D01*
X74266666Y-53545295D02*
X74266666Y-53592914D01*
X74266666Y-53592914D02*
X74219047Y-53688152D01*
X74219047Y-53688152D02*
X74171428Y-53735771D01*
X74171428Y-53735771D02*
X74076190Y-53783390D01*
X74076190Y-53783390D02*
X73885714Y-53783390D01*
X73885714Y-53783390D02*
X73790476Y-53831009D01*
X73790476Y-53831009D02*
X73742857Y-53878628D01*
X73742857Y-53878628D02*
X73695238Y-53973866D01*
X73695238Y-53973866D02*
X73695238Y-54164342D01*
X73695238Y-54164342D02*
X73742857Y-54259580D01*
X73742857Y-54259580D02*
X73790476Y-54307200D01*
X73790476Y-54307200D02*
X73885714Y-54354819D01*
X73885714Y-54354819D02*
X74076190Y-54354819D01*
X74076190Y-54354819D02*
X74171428Y-54307200D01*
X74171428Y-54307200D02*
X74219047Y-54259580D01*
X74219047Y-54259580D02*
X74266666Y-54164342D01*
X74266666Y-54164342D02*
X74266666Y-53973866D01*
X74266666Y-53973866D02*
X74219047Y-53878628D01*
X74219047Y-53878628D02*
X74171428Y-53831009D01*
X74171428Y-53831009D02*
X74076190Y-53783390D01*
X72704761Y-55754819D02*
X72371428Y-55278628D01*
X72133333Y-55754819D02*
X72133333Y-54754819D01*
X72133333Y-54754819D02*
X72514285Y-54754819D01*
X72514285Y-54754819D02*
X72609523Y-54802438D01*
X72609523Y-54802438D02*
X72657142Y-54850057D01*
X72657142Y-54850057D02*
X72704761Y-54945295D01*
X72704761Y-54945295D02*
X72704761Y-55088152D01*
X72704761Y-55088152D02*
X72657142Y-55183390D01*
X72657142Y-55183390D02*
X72609523Y-55231009D01*
X72609523Y-55231009D02*
X72514285Y-55278628D01*
X72514285Y-55278628D02*
X72133333Y-55278628D01*
X72895238Y-55850057D02*
X73657142Y-55850057D01*
X74085714Y-54754819D02*
X74276190Y-54754819D01*
X74276190Y-54754819D02*
X74371428Y-54802438D01*
X74371428Y-54802438D02*
X74466666Y-54897676D01*
X74466666Y-54897676D02*
X74514285Y-55088152D01*
X74514285Y-55088152D02*
X74514285Y-55421485D01*
X74514285Y-55421485D02*
X74466666Y-55611961D01*
X74466666Y-55611961D02*
X74371428Y-55707200D01*
X74371428Y-55707200D02*
X74276190Y-55754819D01*
X74276190Y-55754819D02*
X74085714Y-55754819D01*
X74085714Y-55754819D02*
X73990476Y-55707200D01*
X73990476Y-55707200D02*
X73895238Y-55611961D01*
X73895238Y-55611961D02*
X73847619Y-55421485D01*
X73847619Y-55421485D02*
X73847619Y-55088152D01*
X73847619Y-55088152D02*
X73895238Y-54897676D01*
X73895238Y-54897676D02*
X73990476Y-54802438D01*
X73990476Y-54802438D02*
X74085714Y-54754819D01*
X74942857Y-55754819D02*
X74942857Y-54754819D01*
X75514285Y-55754819D02*
X75085714Y-55183390D01*
X75514285Y-54754819D02*
X74942857Y-55326247D01*
X86561905Y-26654819D02*
X87133333Y-26654819D01*
X86847619Y-27654819D02*
X86847619Y-26654819D01*
X87466667Y-27654819D02*
X87466667Y-26654819D01*
X87466667Y-26654819D02*
X87847619Y-26654819D01*
X87847619Y-26654819D02*
X87942857Y-26702438D01*
X87942857Y-26702438D02*
X87990476Y-26750057D01*
X87990476Y-26750057D02*
X88038095Y-26845295D01*
X88038095Y-26845295D02*
X88038095Y-26988152D01*
X88038095Y-26988152D02*
X87990476Y-27083390D01*
X87990476Y-27083390D02*
X87942857Y-27131009D01*
X87942857Y-27131009D02*
X87847619Y-27178628D01*
X87847619Y-27178628D02*
X87466667Y-27178628D01*
X88990476Y-27654819D02*
X88419048Y-27654819D01*
X88704762Y-27654819D02*
X88704762Y-26654819D01*
X88704762Y-26654819D02*
X88609524Y-26797676D01*
X88609524Y-26797676D02*
X88514286Y-26892914D01*
X88514286Y-26892914D02*
X88419048Y-26940533D01*
X89371429Y-26750057D02*
X89419048Y-26702438D01*
X89419048Y-26702438D02*
X89514286Y-26654819D01*
X89514286Y-26654819D02*
X89752381Y-26654819D01*
X89752381Y-26654819D02*
X89847619Y-26702438D01*
X89847619Y-26702438D02*
X89895238Y-26750057D01*
X89895238Y-26750057D02*
X89942857Y-26845295D01*
X89942857Y-26845295D02*
X89942857Y-26940533D01*
X89942857Y-26940533D02*
X89895238Y-27083390D01*
X89895238Y-27083390D02*
X89323810Y-27654819D01*
X89323810Y-27654819D02*
X89942857Y-27654819D01*
X86157143Y-28673866D02*
X86919048Y-28673866D01*
X86538095Y-29054819D02*
X86538095Y-28292914D01*
X87871428Y-28054819D02*
X87395238Y-28054819D01*
X87395238Y-28054819D02*
X87347619Y-28531009D01*
X87347619Y-28531009D02*
X87395238Y-28483390D01*
X87395238Y-28483390D02*
X87490476Y-28435771D01*
X87490476Y-28435771D02*
X87728571Y-28435771D01*
X87728571Y-28435771D02*
X87823809Y-28483390D01*
X87823809Y-28483390D02*
X87871428Y-28531009D01*
X87871428Y-28531009D02*
X87919047Y-28626247D01*
X87919047Y-28626247D02*
X87919047Y-28864342D01*
X87919047Y-28864342D02*
X87871428Y-28959580D01*
X87871428Y-28959580D02*
X87823809Y-29007200D01*
X87823809Y-29007200D02*
X87728571Y-29054819D01*
X87728571Y-29054819D02*
X87490476Y-29054819D01*
X87490476Y-29054819D02*
X87395238Y-29007200D01*
X87395238Y-29007200D02*
X87347619Y-28959580D01*
X88204762Y-28054819D02*
X88538095Y-29054819D01*
X88538095Y-29054819D02*
X88871428Y-28054819D01*
X89204762Y-29054819D02*
X89204762Y-28054819D01*
X89204762Y-28054819D02*
X89585714Y-28054819D01*
X89585714Y-28054819D02*
X89680952Y-28102438D01*
X89680952Y-28102438D02*
X89728571Y-28150057D01*
X89728571Y-28150057D02*
X89776190Y-28245295D01*
X89776190Y-28245295D02*
X89776190Y-28388152D01*
X89776190Y-28388152D02*
X89728571Y-28483390D01*
X89728571Y-28483390D02*
X89680952Y-28531009D01*
X89680952Y-28531009D02*
X89585714Y-28578628D01*
X89585714Y-28578628D02*
X89204762Y-28578628D01*
X89966667Y-29150057D02*
X90728571Y-29150057D01*
X90966667Y-28531009D02*
X91300000Y-28531009D01*
X91442857Y-29054819D02*
X90966667Y-29054819D01*
X90966667Y-29054819D02*
X90966667Y-28054819D01*
X90966667Y-28054819D02*
X91442857Y-28054819D01*
X91871429Y-29054819D02*
X91871429Y-28054819D01*
X91871429Y-28054819D02*
X92442857Y-29054819D01*
X92442857Y-29054819D02*
X92442857Y-28054819D01*
X77838095Y-43706819D02*
X78409523Y-43706819D01*
X78123809Y-44706819D02*
X78123809Y-43706819D01*
X78742857Y-44706819D02*
X78742857Y-43706819D01*
X78742857Y-43706819D02*
X79123809Y-43706819D01*
X79123809Y-43706819D02*
X79219047Y-43754438D01*
X79219047Y-43754438D02*
X79266666Y-43802057D01*
X79266666Y-43802057D02*
X79314285Y-43897295D01*
X79314285Y-43897295D02*
X79314285Y-44040152D01*
X79314285Y-44040152D02*
X79266666Y-44135390D01*
X79266666Y-44135390D02*
X79219047Y-44183009D01*
X79219047Y-44183009D02*
X79123809Y-44230628D01*
X79123809Y-44230628D02*
X78742857Y-44230628D01*
X80171428Y-44040152D02*
X80171428Y-44706819D01*
X79933333Y-43659200D02*
X79695238Y-44373485D01*
X79695238Y-44373485D02*
X80314285Y-44373485D01*
X77861905Y-47819104D02*
X78338095Y-47819104D01*
X77766667Y-48104819D02*
X78100000Y-47104819D01*
X78100000Y-47104819D02*
X78433333Y-48104819D01*
X78766667Y-47104819D02*
X78766667Y-47914342D01*
X78766667Y-47914342D02*
X78814286Y-48009580D01*
X78814286Y-48009580D02*
X78861905Y-48057200D01*
X78861905Y-48057200D02*
X78957143Y-48104819D01*
X78957143Y-48104819D02*
X79147619Y-48104819D01*
X79147619Y-48104819D02*
X79242857Y-48057200D01*
X79242857Y-48057200D02*
X79290476Y-48009580D01*
X79290476Y-48009580D02*
X79338095Y-47914342D01*
X79338095Y-47914342D02*
X79338095Y-47104819D01*
X79719048Y-47104819D02*
X80385714Y-48104819D01*
X80385714Y-47104819D02*
X79719048Y-48104819D01*
X60838095Y-24606819D02*
X61409523Y-24606819D01*
X61123809Y-25606819D02*
X61123809Y-24606819D01*
X61742857Y-25606819D02*
X61742857Y-24606819D01*
X61742857Y-24606819D02*
X62123809Y-24606819D01*
X62123809Y-24606819D02*
X62219047Y-24654438D01*
X62219047Y-24654438D02*
X62266666Y-24702057D01*
X62266666Y-24702057D02*
X62314285Y-24797295D01*
X62314285Y-24797295D02*
X62314285Y-24940152D01*
X62314285Y-24940152D02*
X62266666Y-25035390D01*
X62266666Y-25035390D02*
X62219047Y-25083009D01*
X62219047Y-25083009D02*
X62123809Y-25130628D01*
X62123809Y-25130628D02*
X61742857Y-25130628D01*
X62790476Y-25606819D02*
X62980952Y-25606819D01*
X62980952Y-25606819D02*
X63076190Y-25559200D01*
X63076190Y-25559200D02*
X63123809Y-25511580D01*
X63123809Y-25511580D02*
X63219047Y-25368723D01*
X63219047Y-25368723D02*
X63266666Y-25178247D01*
X63266666Y-25178247D02*
X63266666Y-24797295D01*
X63266666Y-24797295D02*
X63219047Y-24702057D01*
X63219047Y-24702057D02*
X63171428Y-24654438D01*
X63171428Y-24654438D02*
X63076190Y-24606819D01*
X63076190Y-24606819D02*
X62885714Y-24606819D01*
X62885714Y-24606819D02*
X62790476Y-24654438D01*
X62790476Y-24654438D02*
X62742857Y-24702057D01*
X62742857Y-24702057D02*
X62695238Y-24797295D01*
X62695238Y-24797295D02*
X62695238Y-25035390D01*
X62695238Y-25035390D02*
X62742857Y-25130628D01*
X62742857Y-25130628D02*
X62790476Y-25178247D01*
X62790476Y-25178247D02*
X62885714Y-25225866D01*
X62885714Y-25225866D02*
X63076190Y-25225866D01*
X63076190Y-25225866D02*
X63171428Y-25178247D01*
X63171428Y-25178247D02*
X63219047Y-25130628D01*
X63219047Y-25130628D02*
X63266666Y-25035390D01*
X60004762Y-28004819D02*
X60004762Y-28814342D01*
X60004762Y-28814342D02*
X60052381Y-28909580D01*
X60052381Y-28909580D02*
X60100000Y-28957200D01*
X60100000Y-28957200D02*
X60195238Y-29004819D01*
X60195238Y-29004819D02*
X60385714Y-29004819D01*
X60385714Y-29004819D02*
X60480952Y-28957200D01*
X60480952Y-28957200D02*
X60528571Y-28909580D01*
X60528571Y-28909580D02*
X60576190Y-28814342D01*
X60576190Y-28814342D02*
X60576190Y-28004819D01*
X61004762Y-28957200D02*
X61147619Y-29004819D01*
X61147619Y-29004819D02*
X61385714Y-29004819D01*
X61385714Y-29004819D02*
X61480952Y-28957200D01*
X61480952Y-28957200D02*
X61528571Y-28909580D01*
X61528571Y-28909580D02*
X61576190Y-28814342D01*
X61576190Y-28814342D02*
X61576190Y-28719104D01*
X61576190Y-28719104D02*
X61528571Y-28623866D01*
X61528571Y-28623866D02*
X61480952Y-28576247D01*
X61480952Y-28576247D02*
X61385714Y-28528628D01*
X61385714Y-28528628D02*
X61195238Y-28481009D01*
X61195238Y-28481009D02*
X61100000Y-28433390D01*
X61100000Y-28433390D02*
X61052381Y-28385771D01*
X61052381Y-28385771D02*
X61004762Y-28290533D01*
X61004762Y-28290533D02*
X61004762Y-28195295D01*
X61004762Y-28195295D02*
X61052381Y-28100057D01*
X61052381Y-28100057D02*
X61100000Y-28052438D01*
X61100000Y-28052438D02*
X61195238Y-28004819D01*
X61195238Y-28004819D02*
X61433333Y-28004819D01*
X61433333Y-28004819D02*
X61576190Y-28052438D01*
X62004762Y-28481009D02*
X62338095Y-28481009D01*
X62480952Y-29004819D02*
X62004762Y-29004819D01*
X62004762Y-29004819D02*
X62004762Y-28004819D01*
X62004762Y-28004819D02*
X62480952Y-28004819D01*
X62671429Y-29100057D02*
X63433333Y-29100057D01*
X63671429Y-29004819D02*
X63671429Y-28004819D01*
X63671429Y-28004819D02*
X64052381Y-28004819D01*
X64052381Y-28004819D02*
X64147619Y-28052438D01*
X64147619Y-28052438D02*
X64195238Y-28100057D01*
X64195238Y-28100057D02*
X64242857Y-28195295D01*
X64242857Y-28195295D02*
X64242857Y-28338152D01*
X64242857Y-28338152D02*
X64195238Y-28433390D01*
X64195238Y-28433390D02*
X64147619Y-28481009D01*
X64147619Y-28481009D02*
X64052381Y-28528628D01*
X64052381Y-28528628D02*
X63671429Y-28528628D01*
X73059858Y-31638639D02*
X72964620Y-31591020D01*
X72964620Y-31591020D02*
X72869382Y-31495782D01*
X72869382Y-31495782D02*
X72726525Y-31352924D01*
X72726525Y-31352924D02*
X72631287Y-31305305D01*
X72631287Y-31305305D02*
X72536049Y-31305305D01*
X72583668Y-31543401D02*
X72488430Y-31495782D01*
X72488430Y-31495782D02*
X72393192Y-31400543D01*
X72393192Y-31400543D02*
X72345573Y-31210067D01*
X72345573Y-31210067D02*
X72345573Y-30876734D01*
X72345573Y-30876734D02*
X72393192Y-30686258D01*
X72393192Y-30686258D02*
X72488430Y-30591020D01*
X72488430Y-30591020D02*
X72583668Y-30543401D01*
X72583668Y-30543401D02*
X72774144Y-30543401D01*
X72774144Y-30543401D02*
X72869382Y-30591020D01*
X72869382Y-30591020D02*
X72964620Y-30686258D01*
X72964620Y-30686258D02*
X73012239Y-30876734D01*
X73012239Y-30876734D02*
X73012239Y-31210067D01*
X73012239Y-31210067D02*
X72964620Y-31400543D01*
X72964620Y-31400543D02*
X72869382Y-31495782D01*
X72869382Y-31495782D02*
X72774144Y-31543401D01*
X72774144Y-31543401D02*
X72583668Y-31543401D01*
X73869382Y-30876734D02*
X73869382Y-31543401D01*
X73631287Y-30495782D02*
X73393192Y-31210067D01*
X73393192Y-31210067D02*
X74012239Y-31210067D01*
X95147100Y-35277655D02*
X95718528Y-35277655D01*
X95432814Y-36277655D02*
X95432814Y-35277655D01*
X96051862Y-36277655D02*
X96051862Y-35277655D01*
X96051862Y-35277655D02*
X96432814Y-35277655D01*
X96432814Y-35277655D02*
X96528052Y-35325274D01*
X96528052Y-35325274D02*
X96575671Y-35372893D01*
X96575671Y-35372893D02*
X96623290Y-35468131D01*
X96623290Y-35468131D02*
X96623290Y-35610988D01*
X96623290Y-35610988D02*
X96575671Y-35706226D01*
X96575671Y-35706226D02*
X96528052Y-35753845D01*
X96528052Y-35753845D02*
X96432814Y-35801464D01*
X96432814Y-35801464D02*
X96051862Y-35801464D01*
X97575671Y-36277655D02*
X97004243Y-36277655D01*
X97289957Y-36277655D02*
X97289957Y-35277655D01*
X97289957Y-35277655D02*
X97194719Y-35420512D01*
X97194719Y-35420512D02*
X97099481Y-35515750D01*
X97099481Y-35515750D02*
X97004243Y-35563369D01*
X98528052Y-36277655D02*
X97956624Y-36277655D01*
X98242338Y-36277655D02*
X98242338Y-35277655D01*
X98242338Y-35277655D02*
X98147100Y-35420512D01*
X98147100Y-35420512D02*
X98051862Y-35515750D01*
X98051862Y-35515750D02*
X97956624Y-35563369D01*
X95566667Y-37654819D02*
X95566667Y-36654819D01*
X95566667Y-36654819D02*
X95804762Y-36654819D01*
X95804762Y-36654819D02*
X95947619Y-36702438D01*
X95947619Y-36702438D02*
X96042857Y-36797676D01*
X96042857Y-36797676D02*
X96090476Y-36892914D01*
X96090476Y-36892914D02*
X96138095Y-37083390D01*
X96138095Y-37083390D02*
X96138095Y-37226247D01*
X96138095Y-37226247D02*
X96090476Y-37416723D01*
X96090476Y-37416723D02*
X96042857Y-37511961D01*
X96042857Y-37511961D02*
X95947619Y-37607200D01*
X95947619Y-37607200D02*
X95804762Y-37654819D01*
X95804762Y-37654819D02*
X95566667Y-37654819D01*
X96566667Y-37654819D02*
X96566667Y-36654819D01*
X96995238Y-37607200D02*
X97138095Y-37654819D01*
X97138095Y-37654819D02*
X97376190Y-37654819D01*
X97376190Y-37654819D02*
X97471428Y-37607200D01*
X97471428Y-37607200D02*
X97519047Y-37559580D01*
X97519047Y-37559580D02*
X97566666Y-37464342D01*
X97566666Y-37464342D02*
X97566666Y-37369104D01*
X97566666Y-37369104D02*
X97519047Y-37273866D01*
X97519047Y-37273866D02*
X97471428Y-37226247D01*
X97471428Y-37226247D02*
X97376190Y-37178628D01*
X97376190Y-37178628D02*
X97185714Y-37131009D01*
X97185714Y-37131009D02*
X97090476Y-37083390D01*
X97090476Y-37083390D02*
X97042857Y-37035771D01*
X97042857Y-37035771D02*
X96995238Y-36940533D01*
X96995238Y-36940533D02*
X96995238Y-36845295D01*
X96995238Y-36845295D02*
X97042857Y-36750057D01*
X97042857Y-36750057D02*
X97090476Y-36702438D01*
X97090476Y-36702438D02*
X97185714Y-36654819D01*
X97185714Y-36654819D02*
X97423809Y-36654819D01*
X97423809Y-36654819D02*
X97566666Y-36702438D01*
X97995238Y-37654819D02*
X97995238Y-36654819D01*
X97995238Y-36654819D02*
X98376190Y-36654819D01*
X98376190Y-36654819D02*
X98471428Y-36702438D01*
X98471428Y-36702438D02*
X98519047Y-36750057D01*
X98519047Y-36750057D02*
X98566666Y-36845295D01*
X98566666Y-36845295D02*
X98566666Y-36988152D01*
X98566666Y-36988152D02*
X98519047Y-37083390D01*
X98519047Y-37083390D02*
X98471428Y-37131009D01*
X98471428Y-37131009D02*
X98376190Y-37178628D01*
X98376190Y-37178628D02*
X97995238Y-37178628D01*
X98757143Y-37750057D02*
X99519047Y-37750057D01*
X99757143Y-37131009D02*
X100090476Y-37131009D01*
X100233333Y-37654819D02*
X99757143Y-37654819D01*
X99757143Y-37654819D02*
X99757143Y-36654819D01*
X99757143Y-36654819D02*
X100233333Y-36654819D01*
X100661905Y-37654819D02*
X100661905Y-36654819D01*
X100661905Y-36654819D02*
X101233333Y-37654819D01*
X101233333Y-37654819D02*
X101233333Y-36654819D01*
X86233333Y-37759580D02*
X86185714Y-37807200D01*
X86185714Y-37807200D02*
X86042857Y-37854819D01*
X86042857Y-37854819D02*
X85947619Y-37854819D01*
X85947619Y-37854819D02*
X85804762Y-37807200D01*
X85804762Y-37807200D02*
X85709524Y-37711961D01*
X85709524Y-37711961D02*
X85661905Y-37616723D01*
X85661905Y-37616723D02*
X85614286Y-37426247D01*
X85614286Y-37426247D02*
X85614286Y-37283390D01*
X85614286Y-37283390D02*
X85661905Y-37092914D01*
X85661905Y-37092914D02*
X85709524Y-36997676D01*
X85709524Y-36997676D02*
X85804762Y-36902438D01*
X85804762Y-36902438D02*
X85947619Y-36854819D01*
X85947619Y-36854819D02*
X86042857Y-36854819D01*
X86042857Y-36854819D02*
X86185714Y-36902438D01*
X86185714Y-36902438D02*
X86233333Y-36950057D01*
X87138095Y-36854819D02*
X86661905Y-36854819D01*
X86661905Y-36854819D02*
X86614286Y-37331009D01*
X86614286Y-37331009D02*
X86661905Y-37283390D01*
X86661905Y-37283390D02*
X86757143Y-37235771D01*
X86757143Y-37235771D02*
X86995238Y-37235771D01*
X86995238Y-37235771D02*
X87090476Y-37283390D01*
X87090476Y-37283390D02*
X87138095Y-37331009D01*
X87138095Y-37331009D02*
X87185714Y-37426247D01*
X87185714Y-37426247D02*
X87185714Y-37664342D01*
X87185714Y-37664342D02*
X87138095Y-37759580D01*
X87138095Y-37759580D02*
X87090476Y-37807200D01*
X87090476Y-37807200D02*
X86995238Y-37854819D01*
X86995238Y-37854819D02*
X86757143Y-37854819D01*
X86757143Y-37854819D02*
X86661905Y-37807200D01*
X86661905Y-37807200D02*
X86614286Y-37759580D01*
X46938095Y-36854819D02*
X47509523Y-36854819D01*
X47223809Y-37854819D02*
X47223809Y-36854819D01*
X47842857Y-37854819D02*
X47842857Y-36854819D01*
X47842857Y-36854819D02*
X48223809Y-36854819D01*
X48223809Y-36854819D02*
X48319047Y-36902438D01*
X48319047Y-36902438D02*
X48366666Y-36950057D01*
X48366666Y-36950057D02*
X48414285Y-37045295D01*
X48414285Y-37045295D02*
X48414285Y-37188152D01*
X48414285Y-37188152D02*
X48366666Y-37283390D01*
X48366666Y-37283390D02*
X48319047Y-37331009D01*
X48319047Y-37331009D02*
X48223809Y-37378628D01*
X48223809Y-37378628D02*
X47842857Y-37378628D01*
X48747619Y-36854819D02*
X49414285Y-36854819D01*
X49414285Y-36854819D02*
X48985714Y-37854819D01*
X50309524Y-36854819D02*
X50642857Y-37854819D01*
X50642857Y-37854819D02*
X50976190Y-36854819D01*
X51261905Y-37569104D02*
X51738095Y-37569104D01*
X51166667Y-37854819D02*
X51500000Y-36854819D01*
X51500000Y-36854819D02*
X51833333Y-37854819D01*
X52119048Y-37569104D02*
X52595238Y-37569104D01*
X52023810Y-37854819D02*
X52357143Y-36854819D01*
X52357143Y-36854819D02*
X52690476Y-37854819D01*
X70504761Y-33350057D02*
X70409523Y-33302438D01*
X70409523Y-33302438D02*
X70314285Y-33207200D01*
X70314285Y-33207200D02*
X70171428Y-33064342D01*
X70171428Y-33064342D02*
X70076190Y-33016723D01*
X70076190Y-33016723D02*
X69980952Y-33016723D01*
X70028571Y-33254819D02*
X69933333Y-33207200D01*
X69933333Y-33207200D02*
X69838095Y-33111961D01*
X69838095Y-33111961D02*
X69790476Y-32921485D01*
X69790476Y-32921485D02*
X69790476Y-32588152D01*
X69790476Y-32588152D02*
X69838095Y-32397676D01*
X69838095Y-32397676D02*
X69933333Y-32302438D01*
X69933333Y-32302438D02*
X70028571Y-32254819D01*
X70028571Y-32254819D02*
X70219047Y-32254819D01*
X70219047Y-32254819D02*
X70314285Y-32302438D01*
X70314285Y-32302438D02*
X70409523Y-32397676D01*
X70409523Y-32397676D02*
X70457142Y-32588152D01*
X70457142Y-32588152D02*
X70457142Y-32921485D01*
X70457142Y-32921485D02*
X70409523Y-33111961D01*
X70409523Y-33111961D02*
X70314285Y-33207200D01*
X70314285Y-33207200D02*
X70219047Y-33254819D01*
X70219047Y-33254819D02*
X70028571Y-33254819D01*
X71361904Y-32254819D02*
X70885714Y-32254819D01*
X70885714Y-32254819D02*
X70838095Y-32731009D01*
X70838095Y-32731009D02*
X70885714Y-32683390D01*
X70885714Y-32683390D02*
X70980952Y-32635771D01*
X70980952Y-32635771D02*
X71219047Y-32635771D01*
X71219047Y-32635771D02*
X71314285Y-32683390D01*
X71314285Y-32683390D02*
X71361904Y-32731009D01*
X71361904Y-32731009D02*
X71409523Y-32826247D01*
X71409523Y-32826247D02*
X71409523Y-33064342D01*
X71409523Y-33064342D02*
X71361904Y-33159580D01*
X71361904Y-33159580D02*
X71314285Y-33207200D01*
X71314285Y-33207200D02*
X71219047Y-33254819D01*
X71219047Y-33254819D02*
X70980952Y-33254819D01*
X70980952Y-33254819D02*
X70885714Y-33207200D01*
X70885714Y-33207200D02*
X70838095Y-33159580D01*
X72533333Y-52454819D02*
X72200000Y-51978628D01*
X71961905Y-52454819D02*
X71961905Y-51454819D01*
X71961905Y-51454819D02*
X72342857Y-51454819D01*
X72342857Y-51454819D02*
X72438095Y-51502438D01*
X72438095Y-51502438D02*
X72485714Y-51550057D01*
X72485714Y-51550057D02*
X72533333Y-51645295D01*
X72533333Y-51645295D02*
X72533333Y-51788152D01*
X72533333Y-51788152D02*
X72485714Y-51883390D01*
X72485714Y-51883390D02*
X72438095Y-51931009D01*
X72438095Y-51931009D02*
X72342857Y-51978628D01*
X72342857Y-51978628D02*
X71961905Y-51978628D01*
X72866667Y-51454819D02*
X73485714Y-51454819D01*
X73485714Y-51454819D02*
X73152381Y-51835771D01*
X73152381Y-51835771D02*
X73295238Y-51835771D01*
X73295238Y-51835771D02*
X73390476Y-51883390D01*
X73390476Y-51883390D02*
X73438095Y-51931009D01*
X73438095Y-51931009D02*
X73485714Y-52026247D01*
X73485714Y-52026247D02*
X73485714Y-52264342D01*
X73485714Y-52264342D02*
X73438095Y-52359580D01*
X73438095Y-52359580D02*
X73390476Y-52407200D01*
X73390476Y-52407200D02*
X73295238Y-52454819D01*
X73295238Y-52454819D02*
X73009524Y-52454819D01*
X73009524Y-52454819D02*
X72914286Y-52407200D01*
X72914286Y-52407200D02*
X72866667Y-52359580D01*
X50054819Y-25295238D02*
X49578628Y-25628571D01*
X50054819Y-25866666D02*
X49054819Y-25866666D01*
X49054819Y-25866666D02*
X49054819Y-25485714D01*
X49054819Y-25485714D02*
X49102438Y-25390476D01*
X49102438Y-25390476D02*
X49150057Y-25342857D01*
X49150057Y-25342857D02*
X49245295Y-25295238D01*
X49245295Y-25295238D02*
X49388152Y-25295238D01*
X49388152Y-25295238D02*
X49483390Y-25342857D01*
X49483390Y-25342857D02*
X49531009Y-25390476D01*
X49531009Y-25390476D02*
X49578628Y-25485714D01*
X49578628Y-25485714D02*
X49578628Y-25866666D01*
X49769104Y-24914285D02*
X49769104Y-24438095D01*
X50054819Y-25009523D02*
X49054819Y-24676190D01*
X49054819Y-24676190D02*
X50054819Y-24342857D01*
X49388152Y-23580952D02*
X50054819Y-23580952D01*
X49007200Y-23819047D02*
X49721485Y-24057142D01*
X49721485Y-24057142D02*
X49721485Y-23438095D01*
X93133333Y-49854819D02*
X92800000Y-49378628D01*
X92561905Y-49854819D02*
X92561905Y-48854819D01*
X92561905Y-48854819D02*
X92942857Y-48854819D01*
X92942857Y-48854819D02*
X93038095Y-48902438D01*
X93038095Y-48902438D02*
X93085714Y-48950057D01*
X93085714Y-48950057D02*
X93133333Y-49045295D01*
X93133333Y-49045295D02*
X93133333Y-49188152D01*
X93133333Y-49188152D02*
X93085714Y-49283390D01*
X93085714Y-49283390D02*
X93038095Y-49331009D01*
X93038095Y-49331009D02*
X92942857Y-49378628D01*
X92942857Y-49378628D02*
X92561905Y-49378628D01*
X93609524Y-49854819D02*
X93800000Y-49854819D01*
X93800000Y-49854819D02*
X93895238Y-49807200D01*
X93895238Y-49807200D02*
X93942857Y-49759580D01*
X93942857Y-49759580D02*
X94038095Y-49616723D01*
X94038095Y-49616723D02*
X94085714Y-49426247D01*
X94085714Y-49426247D02*
X94085714Y-49045295D01*
X94085714Y-49045295D02*
X94038095Y-48950057D01*
X94038095Y-48950057D02*
X93990476Y-48902438D01*
X93990476Y-48902438D02*
X93895238Y-48854819D01*
X93895238Y-48854819D02*
X93704762Y-48854819D01*
X93704762Y-48854819D02*
X93609524Y-48902438D01*
X93609524Y-48902438D02*
X93561905Y-48950057D01*
X93561905Y-48950057D02*
X93514286Y-49045295D01*
X93514286Y-49045295D02*
X93514286Y-49283390D01*
X93514286Y-49283390D02*
X93561905Y-49378628D01*
X93561905Y-49378628D02*
X93609524Y-49426247D01*
X93609524Y-49426247D02*
X93704762Y-49473866D01*
X93704762Y-49473866D02*
X93895238Y-49473866D01*
X93895238Y-49473866D02*
X93990476Y-49426247D01*
X93990476Y-49426247D02*
X94038095Y-49378628D01*
X94038095Y-49378628D02*
X94085714Y-49283390D01*
X45666666Y-38154819D02*
X45666666Y-38869104D01*
X45666666Y-38869104D02*
X45619047Y-39011961D01*
X45619047Y-39011961D02*
X45523809Y-39107200D01*
X45523809Y-39107200D02*
X45380952Y-39154819D01*
X45380952Y-39154819D02*
X45285714Y-39154819D01*
X46571428Y-38488152D02*
X46571428Y-39154819D01*
X46333333Y-38107200D02*
X46095238Y-38821485D01*
X46095238Y-38821485D02*
X46714285Y-38821485D01*
X45819048Y-47673866D02*
X46580953Y-47673866D01*
X46200000Y-48054819D02*
X46200000Y-47292914D01*
X69104761Y-31750057D02*
X69009523Y-31702438D01*
X69009523Y-31702438D02*
X68914285Y-31607200D01*
X68914285Y-31607200D02*
X68771428Y-31464342D01*
X68771428Y-31464342D02*
X68676190Y-31416723D01*
X68676190Y-31416723D02*
X68580952Y-31416723D01*
X68628571Y-31654819D02*
X68533333Y-31607200D01*
X68533333Y-31607200D02*
X68438095Y-31511961D01*
X68438095Y-31511961D02*
X68390476Y-31321485D01*
X68390476Y-31321485D02*
X68390476Y-30988152D01*
X68390476Y-30988152D02*
X68438095Y-30797676D01*
X68438095Y-30797676D02*
X68533333Y-30702438D01*
X68533333Y-30702438D02*
X68628571Y-30654819D01*
X68628571Y-30654819D02*
X68819047Y-30654819D01*
X68819047Y-30654819D02*
X68914285Y-30702438D01*
X68914285Y-30702438D02*
X69009523Y-30797676D01*
X69009523Y-30797676D02*
X69057142Y-30988152D01*
X69057142Y-30988152D02*
X69057142Y-31321485D01*
X69057142Y-31321485D02*
X69009523Y-31511961D01*
X69009523Y-31511961D02*
X68914285Y-31607200D01*
X68914285Y-31607200D02*
X68819047Y-31654819D01*
X68819047Y-31654819D02*
X68628571Y-31654819D01*
X69390476Y-30654819D02*
X70009523Y-30654819D01*
X70009523Y-30654819D02*
X69676190Y-31035771D01*
X69676190Y-31035771D02*
X69819047Y-31035771D01*
X69819047Y-31035771D02*
X69914285Y-31083390D01*
X69914285Y-31083390D02*
X69961904Y-31131009D01*
X69961904Y-31131009D02*
X70009523Y-31226247D01*
X70009523Y-31226247D02*
X70009523Y-31464342D01*
X70009523Y-31464342D02*
X69961904Y-31559580D01*
X69961904Y-31559580D02*
X69914285Y-31607200D01*
X69914285Y-31607200D02*
X69819047Y-31654819D01*
X69819047Y-31654819D02*
X69533333Y-31654819D01*
X69533333Y-31654819D02*
X69438095Y-31607200D01*
X69438095Y-31607200D02*
X69390476Y-31559580D01*
X47357142Y-41289580D02*
X47309523Y-41337200D01*
X47309523Y-41337200D02*
X47166666Y-41384819D01*
X47166666Y-41384819D02*
X47071428Y-41384819D01*
X47071428Y-41384819D02*
X46928571Y-41337200D01*
X46928571Y-41337200D02*
X46833333Y-41241961D01*
X46833333Y-41241961D02*
X46785714Y-41146723D01*
X46785714Y-41146723D02*
X46738095Y-40956247D01*
X46738095Y-40956247D02*
X46738095Y-40813390D01*
X46738095Y-40813390D02*
X46785714Y-40622914D01*
X46785714Y-40622914D02*
X46833333Y-40527676D01*
X46833333Y-40527676D02*
X46928571Y-40432438D01*
X46928571Y-40432438D02*
X47071428Y-40384819D01*
X47071428Y-40384819D02*
X47166666Y-40384819D01*
X47166666Y-40384819D02*
X47309523Y-40432438D01*
X47309523Y-40432438D02*
X47357142Y-40480057D01*
X48309523Y-41384819D02*
X47738095Y-41384819D01*
X48023809Y-41384819D02*
X48023809Y-40384819D01*
X48023809Y-40384819D02*
X47928571Y-40527676D01*
X47928571Y-40527676D02*
X47833333Y-40622914D01*
X47833333Y-40622914D02*
X47738095Y-40670533D01*
X48690476Y-40480057D02*
X48738095Y-40432438D01*
X48738095Y-40432438D02*
X48833333Y-40384819D01*
X48833333Y-40384819D02*
X49071428Y-40384819D01*
X49071428Y-40384819D02*
X49166666Y-40432438D01*
X49166666Y-40432438D02*
X49214285Y-40480057D01*
X49214285Y-40480057D02*
X49261904Y-40575295D01*
X49261904Y-40575295D02*
X49261904Y-40670533D01*
X49261904Y-40670533D02*
X49214285Y-40813390D01*
X49214285Y-40813390D02*
X48642857Y-41384819D01*
X48642857Y-41384819D02*
X49261904Y-41384819D01*
X106261905Y-44654819D02*
X106833333Y-44654819D01*
X106547619Y-45654819D02*
X106547619Y-44654819D01*
X107166667Y-45654819D02*
X107166667Y-44654819D01*
X107166667Y-44654819D02*
X107547619Y-44654819D01*
X107547619Y-44654819D02*
X107642857Y-44702438D01*
X107642857Y-44702438D02*
X107690476Y-44750057D01*
X107690476Y-44750057D02*
X107738095Y-44845295D01*
X107738095Y-44845295D02*
X107738095Y-44988152D01*
X107738095Y-44988152D02*
X107690476Y-45083390D01*
X107690476Y-45083390D02*
X107642857Y-45131009D01*
X107642857Y-45131009D02*
X107547619Y-45178628D01*
X107547619Y-45178628D02*
X107166667Y-45178628D01*
X108690476Y-45654819D02*
X108119048Y-45654819D01*
X108404762Y-45654819D02*
X108404762Y-44654819D01*
X108404762Y-44654819D02*
X108309524Y-44797676D01*
X108309524Y-44797676D02*
X108214286Y-44892914D01*
X108214286Y-44892914D02*
X108119048Y-44940533D01*
X109547619Y-44654819D02*
X109357143Y-44654819D01*
X109357143Y-44654819D02*
X109261905Y-44702438D01*
X109261905Y-44702438D02*
X109214286Y-44750057D01*
X109214286Y-44750057D02*
X109119048Y-44892914D01*
X109119048Y-44892914D02*
X109071429Y-45083390D01*
X109071429Y-45083390D02*
X109071429Y-45464342D01*
X109071429Y-45464342D02*
X109119048Y-45559580D01*
X109119048Y-45559580D02*
X109166667Y-45607200D01*
X109166667Y-45607200D02*
X109261905Y-45654819D01*
X109261905Y-45654819D02*
X109452381Y-45654819D01*
X109452381Y-45654819D02*
X109547619Y-45607200D01*
X109547619Y-45607200D02*
X109595238Y-45559580D01*
X109595238Y-45559580D02*
X109642857Y-45464342D01*
X109642857Y-45464342D02*
X109642857Y-45226247D01*
X109642857Y-45226247D02*
X109595238Y-45131009D01*
X109595238Y-45131009D02*
X109547619Y-45083390D01*
X109547619Y-45083390D02*
X109452381Y-45035771D01*
X109452381Y-45035771D02*
X109261905Y-45035771D01*
X109261905Y-45035771D02*
X109166667Y-45083390D01*
X109166667Y-45083390D02*
X109119048Y-45131009D01*
X109119048Y-45131009D02*
X109071429Y-45226247D01*
X105085714Y-45954819D02*
X105276190Y-45954819D01*
X105276190Y-45954819D02*
X105371428Y-46002438D01*
X105371428Y-46002438D02*
X105466666Y-46097676D01*
X105466666Y-46097676D02*
X105514285Y-46288152D01*
X105514285Y-46288152D02*
X105514285Y-46621485D01*
X105514285Y-46621485D02*
X105466666Y-46811961D01*
X105466666Y-46811961D02*
X105371428Y-46907200D01*
X105371428Y-46907200D02*
X105276190Y-46954819D01*
X105276190Y-46954819D02*
X105085714Y-46954819D01*
X105085714Y-46954819D02*
X104990476Y-46907200D01*
X104990476Y-46907200D02*
X104895238Y-46811961D01*
X104895238Y-46811961D02*
X104847619Y-46621485D01*
X104847619Y-46621485D02*
X104847619Y-46288152D01*
X104847619Y-46288152D02*
X104895238Y-46097676D01*
X104895238Y-46097676D02*
X104990476Y-46002438D01*
X104990476Y-46002438D02*
X105085714Y-45954819D01*
X105942857Y-45954819D02*
X105942857Y-46764342D01*
X105942857Y-46764342D02*
X105990476Y-46859580D01*
X105990476Y-46859580D02*
X106038095Y-46907200D01*
X106038095Y-46907200D02*
X106133333Y-46954819D01*
X106133333Y-46954819D02*
X106323809Y-46954819D01*
X106323809Y-46954819D02*
X106419047Y-46907200D01*
X106419047Y-46907200D02*
X106466666Y-46859580D01*
X106466666Y-46859580D02*
X106514285Y-46764342D01*
X106514285Y-46764342D02*
X106514285Y-45954819D01*
X106847619Y-45954819D02*
X107419047Y-45954819D01*
X107133333Y-46954819D02*
X107133333Y-45954819D01*
X107514286Y-47050057D02*
X108276190Y-47050057D01*
X108847619Y-46431009D02*
X108514286Y-46431009D01*
X108514286Y-46954819D02*
X108514286Y-45954819D01*
X108514286Y-45954819D02*
X108990476Y-45954819D01*
X109847619Y-46954819D02*
X109371429Y-46954819D01*
X109371429Y-46954819D02*
X109371429Y-45954819D01*
X47138095Y-46954819D02*
X47709523Y-46954819D01*
X47423809Y-47954819D02*
X47423809Y-46954819D01*
X48042857Y-47954819D02*
X48042857Y-46954819D01*
X48042857Y-46954819D02*
X48423809Y-46954819D01*
X48423809Y-46954819D02*
X48519047Y-47002438D01*
X48519047Y-47002438D02*
X48566666Y-47050057D01*
X48566666Y-47050057D02*
X48614285Y-47145295D01*
X48614285Y-47145295D02*
X48614285Y-47288152D01*
X48614285Y-47288152D02*
X48566666Y-47383390D01*
X48566666Y-47383390D02*
X48519047Y-47431009D01*
X48519047Y-47431009D02*
X48423809Y-47478628D01*
X48423809Y-47478628D02*
X48042857Y-47478628D01*
X49471428Y-46954819D02*
X49280952Y-46954819D01*
X49280952Y-46954819D02*
X49185714Y-47002438D01*
X49185714Y-47002438D02*
X49138095Y-47050057D01*
X49138095Y-47050057D02*
X49042857Y-47192914D01*
X49042857Y-47192914D02*
X48995238Y-47383390D01*
X48995238Y-47383390D02*
X48995238Y-47764342D01*
X48995238Y-47764342D02*
X49042857Y-47859580D01*
X49042857Y-47859580D02*
X49090476Y-47907200D01*
X49090476Y-47907200D02*
X49185714Y-47954819D01*
X49185714Y-47954819D02*
X49376190Y-47954819D01*
X49376190Y-47954819D02*
X49471428Y-47907200D01*
X49471428Y-47907200D02*
X49519047Y-47859580D01*
X49519047Y-47859580D02*
X49566666Y-47764342D01*
X49566666Y-47764342D02*
X49566666Y-47526247D01*
X49566666Y-47526247D02*
X49519047Y-47431009D01*
X49519047Y-47431009D02*
X49471428Y-47383390D01*
X49471428Y-47383390D02*
X49376190Y-47335771D01*
X49376190Y-47335771D02*
X49185714Y-47335771D01*
X49185714Y-47335771D02*
X49090476Y-47383390D01*
X49090476Y-47383390D02*
X49042857Y-47431009D01*
X49042857Y-47431009D02*
X48995238Y-47526247D01*
X47009524Y-51162295D02*
X46742857Y-50781342D01*
X46552381Y-51162295D02*
X46552381Y-50362295D01*
X46552381Y-50362295D02*
X46857143Y-50362295D01*
X46857143Y-50362295D02*
X46933333Y-50400390D01*
X46933333Y-50400390D02*
X46971428Y-50438485D01*
X46971428Y-50438485D02*
X47009524Y-50514676D01*
X47009524Y-50514676D02*
X47009524Y-50628961D01*
X47009524Y-50628961D02*
X46971428Y-50705152D01*
X46971428Y-50705152D02*
X46933333Y-50743247D01*
X46933333Y-50743247D02*
X46857143Y-50781342D01*
X46857143Y-50781342D02*
X46552381Y-50781342D01*
X47161905Y-51238485D02*
X47771428Y-51238485D01*
X47961905Y-51162295D02*
X47961905Y-50362295D01*
X47961905Y-50362295D02*
X48152381Y-50362295D01*
X48152381Y-50362295D02*
X48266667Y-50400390D01*
X48266667Y-50400390D02*
X48342857Y-50476580D01*
X48342857Y-50476580D02*
X48380952Y-50552771D01*
X48380952Y-50552771D02*
X48419048Y-50705152D01*
X48419048Y-50705152D02*
X48419048Y-50819438D01*
X48419048Y-50819438D02*
X48380952Y-50971819D01*
X48380952Y-50971819D02*
X48342857Y-51048009D01*
X48342857Y-51048009D02*
X48266667Y-51124200D01*
X48266667Y-51124200D02*
X48152381Y-51162295D01*
X48152381Y-51162295D02*
X47961905Y-51162295D01*
X48761905Y-51162295D02*
X48761905Y-50362295D01*
X49028571Y-50362295D02*
X49295238Y-51162295D01*
X49295238Y-51162295D02*
X49561904Y-50362295D01*
X58809523Y-53962295D02*
X59266666Y-53962295D01*
X59038094Y-54762295D02*
X59038094Y-53962295D01*
X59533333Y-54762295D02*
X59533333Y-53962295D01*
X59533333Y-53962295D02*
X59838095Y-53962295D01*
X59838095Y-53962295D02*
X59914285Y-54000390D01*
X59914285Y-54000390D02*
X59952380Y-54038485D01*
X59952380Y-54038485D02*
X59990476Y-54114676D01*
X59990476Y-54114676D02*
X59990476Y-54228961D01*
X59990476Y-54228961D02*
X59952380Y-54305152D01*
X59952380Y-54305152D02*
X59914285Y-54343247D01*
X59914285Y-54343247D02*
X59838095Y-54381342D01*
X59838095Y-54381342D02*
X59533333Y-54381342D01*
X60752380Y-54762295D02*
X60295237Y-54762295D01*
X60523809Y-54762295D02*
X60523809Y-53962295D01*
X60523809Y-53962295D02*
X60447618Y-54076580D01*
X60447618Y-54076580D02*
X60371428Y-54152771D01*
X60371428Y-54152771D02*
X60295237Y-54190866D01*
X61247619Y-53962295D02*
X61323809Y-53962295D01*
X61323809Y-53962295D02*
X61400000Y-54000390D01*
X61400000Y-54000390D02*
X61438095Y-54038485D01*
X61438095Y-54038485D02*
X61476190Y-54114676D01*
X61476190Y-54114676D02*
X61514285Y-54267057D01*
X61514285Y-54267057D02*
X61514285Y-54457533D01*
X61514285Y-54457533D02*
X61476190Y-54609914D01*
X61476190Y-54609914D02*
X61438095Y-54686104D01*
X61438095Y-54686104D02*
X61400000Y-54724200D01*
X61400000Y-54724200D02*
X61323809Y-54762295D01*
X61323809Y-54762295D02*
X61247619Y-54762295D01*
X61247619Y-54762295D02*
X61171428Y-54724200D01*
X61171428Y-54724200D02*
X61133333Y-54686104D01*
X61133333Y-54686104D02*
X61095238Y-54609914D01*
X61095238Y-54609914D02*
X61057142Y-54457533D01*
X61057142Y-54457533D02*
X61057142Y-54267057D01*
X61057142Y-54267057D02*
X61095238Y-54114676D01*
X61095238Y-54114676D02*
X61133333Y-54038485D01*
X61133333Y-54038485D02*
X61171428Y-54000390D01*
X61171428Y-54000390D02*
X61247619Y-53962295D01*
X58923809Y-54962295D02*
X58923809Y-55609914D01*
X58923809Y-55609914D02*
X58961904Y-55686104D01*
X58961904Y-55686104D02*
X58999999Y-55724200D01*
X58999999Y-55724200D02*
X59076190Y-55762295D01*
X59076190Y-55762295D02*
X59228571Y-55762295D01*
X59228571Y-55762295D02*
X59304761Y-55724200D01*
X59304761Y-55724200D02*
X59342856Y-55686104D01*
X59342856Y-55686104D02*
X59380952Y-55609914D01*
X59380952Y-55609914D02*
X59380952Y-54962295D01*
X59723808Y-55724200D02*
X59838094Y-55762295D01*
X59838094Y-55762295D02*
X60028570Y-55762295D01*
X60028570Y-55762295D02*
X60104761Y-55724200D01*
X60104761Y-55724200D02*
X60142856Y-55686104D01*
X60142856Y-55686104D02*
X60180951Y-55609914D01*
X60180951Y-55609914D02*
X60180951Y-55533723D01*
X60180951Y-55533723D02*
X60142856Y-55457533D01*
X60142856Y-55457533D02*
X60104761Y-55419438D01*
X60104761Y-55419438D02*
X60028570Y-55381342D01*
X60028570Y-55381342D02*
X59876189Y-55343247D01*
X59876189Y-55343247D02*
X59799999Y-55305152D01*
X59799999Y-55305152D02*
X59761904Y-55267057D01*
X59761904Y-55267057D02*
X59723808Y-55190866D01*
X59723808Y-55190866D02*
X59723808Y-55114676D01*
X59723808Y-55114676D02*
X59761904Y-55038485D01*
X59761904Y-55038485D02*
X59799999Y-55000390D01*
X59799999Y-55000390D02*
X59876189Y-54962295D01*
X59876189Y-54962295D02*
X60066666Y-54962295D01*
X60066666Y-54962295D02*
X60180951Y-55000390D01*
X60523809Y-55343247D02*
X60790475Y-55343247D01*
X60904761Y-55762295D02*
X60523809Y-55762295D01*
X60523809Y-55762295D02*
X60523809Y-54962295D01*
X60523809Y-54962295D02*
X60904761Y-54962295D01*
X61057143Y-55838485D02*
X61666666Y-55838485D01*
X62314286Y-55762295D02*
X62047619Y-55381342D01*
X61857143Y-55762295D02*
X61857143Y-54962295D01*
X61857143Y-54962295D02*
X62161905Y-54962295D01*
X62161905Y-54962295D02*
X62238095Y-55000390D01*
X62238095Y-55000390D02*
X62276190Y-55038485D01*
X62276190Y-55038485D02*
X62314286Y-55114676D01*
X62314286Y-55114676D02*
X62314286Y-55228961D01*
X62314286Y-55228961D02*
X62276190Y-55305152D01*
X62276190Y-55305152D02*
X62238095Y-55343247D01*
X62238095Y-55343247D02*
X62161905Y-55381342D01*
X62161905Y-55381342D02*
X61857143Y-55381342D01*
X83538095Y-40054819D02*
X84109523Y-40054819D01*
X83823809Y-41054819D02*
X83823809Y-40054819D01*
X84442857Y-41054819D02*
X84442857Y-40054819D01*
X84442857Y-40054819D02*
X84823809Y-40054819D01*
X84823809Y-40054819D02*
X84919047Y-40102438D01*
X84919047Y-40102438D02*
X84966666Y-40150057D01*
X84966666Y-40150057D02*
X85014285Y-40245295D01*
X85014285Y-40245295D02*
X85014285Y-40388152D01*
X85014285Y-40388152D02*
X84966666Y-40483390D01*
X84966666Y-40483390D02*
X84919047Y-40531009D01*
X84919047Y-40531009D02*
X84823809Y-40578628D01*
X84823809Y-40578628D02*
X84442857Y-40578628D01*
X85395238Y-40150057D02*
X85442857Y-40102438D01*
X85442857Y-40102438D02*
X85538095Y-40054819D01*
X85538095Y-40054819D02*
X85776190Y-40054819D01*
X85776190Y-40054819D02*
X85871428Y-40102438D01*
X85871428Y-40102438D02*
X85919047Y-40150057D01*
X85919047Y-40150057D02*
X85966666Y-40245295D01*
X85966666Y-40245295D02*
X85966666Y-40340533D01*
X85966666Y-40340533D02*
X85919047Y-40483390D01*
X85919047Y-40483390D02*
X85347619Y-41054819D01*
X85347619Y-41054819D02*
X85966666Y-41054819D01*
X83790476Y-42854819D02*
X83790476Y-41854819D01*
X83790476Y-41854819D02*
X84123809Y-42569104D01*
X84123809Y-42569104D02*
X84457142Y-41854819D01*
X84457142Y-41854819D02*
X84457142Y-42854819D01*
X85123809Y-41854819D02*
X85219047Y-41854819D01*
X85219047Y-41854819D02*
X85314285Y-41902438D01*
X85314285Y-41902438D02*
X85361904Y-41950057D01*
X85361904Y-41950057D02*
X85409523Y-42045295D01*
X85409523Y-42045295D02*
X85457142Y-42235771D01*
X85457142Y-42235771D02*
X85457142Y-42473866D01*
X85457142Y-42473866D02*
X85409523Y-42664342D01*
X85409523Y-42664342D02*
X85361904Y-42759580D01*
X85361904Y-42759580D02*
X85314285Y-42807200D01*
X85314285Y-42807200D02*
X85219047Y-42854819D01*
X85219047Y-42854819D02*
X85123809Y-42854819D01*
X85123809Y-42854819D02*
X85028571Y-42807200D01*
X85028571Y-42807200D02*
X84980952Y-42759580D01*
X84980952Y-42759580D02*
X84933333Y-42664342D01*
X84933333Y-42664342D02*
X84885714Y-42473866D01*
X84885714Y-42473866D02*
X84885714Y-42235771D01*
X84885714Y-42235771D02*
X84933333Y-42045295D01*
X84933333Y-42045295D02*
X84980952Y-41950057D01*
X84980952Y-41950057D02*
X85028571Y-41902438D01*
X85028571Y-41902438D02*
X85123809Y-41854819D01*
X75261905Y-29854819D02*
X75833333Y-29854819D01*
X75547619Y-30854819D02*
X75547619Y-29854819D01*
X76166667Y-30854819D02*
X76166667Y-29854819D01*
X76166667Y-29854819D02*
X76547619Y-29854819D01*
X76547619Y-29854819D02*
X76642857Y-29902438D01*
X76642857Y-29902438D02*
X76690476Y-29950057D01*
X76690476Y-29950057D02*
X76738095Y-30045295D01*
X76738095Y-30045295D02*
X76738095Y-30188152D01*
X76738095Y-30188152D02*
X76690476Y-30283390D01*
X76690476Y-30283390D02*
X76642857Y-30331009D01*
X76642857Y-30331009D02*
X76547619Y-30378628D01*
X76547619Y-30378628D02*
X76166667Y-30378628D01*
X77690476Y-30854819D02*
X77119048Y-30854819D01*
X77404762Y-30854819D02*
X77404762Y-29854819D01*
X77404762Y-29854819D02*
X77309524Y-29997676D01*
X77309524Y-29997676D02*
X77214286Y-30092914D01*
X77214286Y-30092914D02*
X77119048Y-30140533D01*
X78023810Y-29854819D02*
X78690476Y-29854819D01*
X78690476Y-29854819D02*
X78261905Y-30854819D01*
X75385714Y-31969104D02*
X75861904Y-31969104D01*
X75290476Y-32254819D02*
X75623809Y-31254819D01*
X75623809Y-31254819D02*
X75957142Y-32254819D01*
X76290476Y-32254819D02*
X76290476Y-31254819D01*
X77338094Y-32254819D02*
X77004761Y-31778628D01*
X76766666Y-32254819D02*
X76766666Y-31254819D01*
X76766666Y-31254819D02*
X77147618Y-31254819D01*
X77147618Y-31254819D02*
X77242856Y-31302438D01*
X77242856Y-31302438D02*
X77290475Y-31350057D01*
X77290475Y-31350057D02*
X77338094Y-31445295D01*
X77338094Y-31445295D02*
X77338094Y-31588152D01*
X77338094Y-31588152D02*
X77290475Y-31683390D01*
X77290475Y-31683390D02*
X77242856Y-31731009D01*
X77242856Y-31731009D02*
X77147618Y-31778628D01*
X77147618Y-31778628D02*
X76766666Y-31778628D01*
X77528571Y-32350057D02*
X78290475Y-32350057D01*
X78528571Y-32254819D02*
X78528571Y-31254819D01*
X78528571Y-31254819D02*
X78766666Y-31254819D01*
X78766666Y-31254819D02*
X78909523Y-31302438D01*
X78909523Y-31302438D02*
X79004761Y-31397676D01*
X79004761Y-31397676D02*
X79052380Y-31492914D01*
X79052380Y-31492914D02*
X79099999Y-31683390D01*
X79099999Y-31683390D02*
X79099999Y-31826247D01*
X79099999Y-31826247D02*
X79052380Y-32016723D01*
X79052380Y-32016723D02*
X79004761Y-32111961D01*
X79004761Y-32111961D02*
X78909523Y-32207200D01*
X78909523Y-32207200D02*
X78766666Y-32254819D01*
X78766666Y-32254819D02*
X78528571Y-32254819D01*
X80099999Y-32254819D02*
X79766666Y-31778628D01*
X79528571Y-32254819D02*
X79528571Y-31254819D01*
X79528571Y-31254819D02*
X79909523Y-31254819D01*
X79909523Y-31254819D02*
X80004761Y-31302438D01*
X80004761Y-31302438D02*
X80052380Y-31350057D01*
X80052380Y-31350057D02*
X80099999Y-31445295D01*
X80099999Y-31445295D02*
X80099999Y-31588152D01*
X80099999Y-31588152D02*
X80052380Y-31683390D01*
X80052380Y-31683390D02*
X80004761Y-31731009D01*
X80004761Y-31731009D02*
X79909523Y-31778628D01*
X79909523Y-31778628D02*
X79528571Y-31778628D01*
X80290476Y-32350057D02*
X81052380Y-32350057D01*
X81290476Y-31731009D02*
X81623809Y-31731009D01*
X81766666Y-32254819D02*
X81290476Y-32254819D01*
X81290476Y-32254819D02*
X81290476Y-31254819D01*
X81290476Y-31254819D02*
X81766666Y-31254819D01*
X82195238Y-32254819D02*
X82195238Y-31254819D01*
X82195238Y-31254819D02*
X82766666Y-32254819D01*
X82766666Y-32254819D02*
X82766666Y-31254819D01*
X61144642Y-44904819D02*
X60811309Y-44428628D01*
X60573214Y-44904819D02*
X60573214Y-43904819D01*
X60573214Y-43904819D02*
X60954166Y-43904819D01*
X60954166Y-43904819D02*
X61049404Y-43952438D01*
X61049404Y-43952438D02*
X61097023Y-44000057D01*
X61097023Y-44000057D02*
X61144642Y-44095295D01*
X61144642Y-44095295D02*
X61144642Y-44238152D01*
X61144642Y-44238152D02*
X61097023Y-44333390D01*
X61097023Y-44333390D02*
X61049404Y-44381009D01*
X61049404Y-44381009D02*
X60954166Y-44428628D01*
X60954166Y-44428628D02*
X60573214Y-44428628D01*
X62097023Y-44904819D02*
X61525595Y-44904819D01*
X61811309Y-44904819D02*
X61811309Y-43904819D01*
X61811309Y-43904819D02*
X61716071Y-44047676D01*
X61716071Y-44047676D02*
X61620833Y-44142914D01*
X61620833Y-44142914D02*
X61525595Y-44190533D01*
X63001785Y-43904819D02*
X62525595Y-43904819D01*
X62525595Y-43904819D02*
X62477976Y-44381009D01*
X62477976Y-44381009D02*
X62525595Y-44333390D01*
X62525595Y-44333390D02*
X62620833Y-44285771D01*
X62620833Y-44285771D02*
X62858928Y-44285771D01*
X62858928Y-44285771D02*
X62954166Y-44333390D01*
X62954166Y-44333390D02*
X63001785Y-44381009D01*
X63001785Y-44381009D02*
X63049404Y-44476247D01*
X63049404Y-44476247D02*
X63049404Y-44714342D01*
X63049404Y-44714342D02*
X63001785Y-44809580D01*
X63001785Y-44809580D02*
X62954166Y-44857200D01*
X62954166Y-44857200D02*
X62858928Y-44904819D01*
X62858928Y-44904819D02*
X62620833Y-44904819D01*
X62620833Y-44904819D02*
X62525595Y-44857200D01*
X62525595Y-44857200D02*
X62477976Y-44809580D01*
X63833333Y-30454819D02*
X63500000Y-29978628D01*
X63261905Y-30454819D02*
X63261905Y-29454819D01*
X63261905Y-29454819D02*
X63642857Y-29454819D01*
X63642857Y-29454819D02*
X63738095Y-29502438D01*
X63738095Y-29502438D02*
X63785714Y-29550057D01*
X63785714Y-29550057D02*
X63833333Y-29645295D01*
X63833333Y-29645295D02*
X63833333Y-29788152D01*
X63833333Y-29788152D02*
X63785714Y-29883390D01*
X63785714Y-29883390D02*
X63738095Y-29931009D01*
X63738095Y-29931009D02*
X63642857Y-29978628D01*
X63642857Y-29978628D02*
X63261905Y-29978628D01*
X64690476Y-29788152D02*
X64690476Y-30454819D01*
X64452381Y-29407200D02*
X64214286Y-30121485D01*
X64214286Y-30121485D02*
X64833333Y-30121485D01*
X55461905Y-50854819D02*
X55461905Y-49854819D01*
X55461905Y-49854819D02*
X55700000Y-49854819D01*
X55700000Y-49854819D02*
X55842857Y-49902438D01*
X55842857Y-49902438D02*
X55938095Y-49997676D01*
X55938095Y-49997676D02*
X55985714Y-50092914D01*
X55985714Y-50092914D02*
X56033333Y-50283390D01*
X56033333Y-50283390D02*
X56033333Y-50426247D01*
X56033333Y-50426247D02*
X55985714Y-50616723D01*
X55985714Y-50616723D02*
X55938095Y-50711961D01*
X55938095Y-50711961D02*
X55842857Y-50807200D01*
X55842857Y-50807200D02*
X55700000Y-50854819D01*
X55700000Y-50854819D02*
X55461905Y-50854819D01*
X56366667Y-49854819D02*
X56985714Y-49854819D01*
X56985714Y-49854819D02*
X56652381Y-50235771D01*
X56652381Y-50235771D02*
X56795238Y-50235771D01*
X56795238Y-50235771D02*
X56890476Y-50283390D01*
X56890476Y-50283390D02*
X56938095Y-50331009D01*
X56938095Y-50331009D02*
X56985714Y-50426247D01*
X56985714Y-50426247D02*
X56985714Y-50664342D01*
X56985714Y-50664342D02*
X56938095Y-50759580D01*
X56938095Y-50759580D02*
X56890476Y-50807200D01*
X56890476Y-50807200D02*
X56795238Y-50854819D01*
X56795238Y-50854819D02*
X56509524Y-50854819D01*
X56509524Y-50854819D02*
X56414286Y-50807200D01*
X56414286Y-50807200D02*
X56366667Y-50759580D01*
X88590476Y-30354819D02*
X89257142Y-31354819D01*
X89257142Y-30354819D02*
X88590476Y-31354819D01*
X90161904Y-31354819D02*
X89590476Y-31354819D01*
X89876190Y-31354819D02*
X89876190Y-30354819D01*
X89876190Y-30354819D02*
X89780952Y-30497676D01*
X89780952Y-30497676D02*
X89685714Y-30592914D01*
X89685714Y-30592914D02*
X89590476Y-30640533D01*
X103066666Y-50954819D02*
X103066666Y-51669104D01*
X103066666Y-51669104D02*
X103019047Y-51811961D01*
X103019047Y-51811961D02*
X102923809Y-51907200D01*
X102923809Y-51907200D02*
X102780952Y-51954819D01*
X102780952Y-51954819D02*
X102685714Y-51954819D01*
X103971428Y-50954819D02*
X103780952Y-50954819D01*
X103780952Y-50954819D02*
X103685714Y-51002438D01*
X103685714Y-51002438D02*
X103638095Y-51050057D01*
X103638095Y-51050057D02*
X103542857Y-51192914D01*
X103542857Y-51192914D02*
X103495238Y-51383390D01*
X103495238Y-51383390D02*
X103495238Y-51764342D01*
X103495238Y-51764342D02*
X103542857Y-51859580D01*
X103542857Y-51859580D02*
X103590476Y-51907200D01*
X103590476Y-51907200D02*
X103685714Y-51954819D01*
X103685714Y-51954819D02*
X103876190Y-51954819D01*
X103876190Y-51954819D02*
X103971428Y-51907200D01*
X103971428Y-51907200D02*
X104019047Y-51859580D01*
X104019047Y-51859580D02*
X104066666Y-51764342D01*
X104066666Y-51764342D02*
X104066666Y-51526247D01*
X104066666Y-51526247D02*
X104019047Y-51431009D01*
X104019047Y-51431009D02*
X103971428Y-51383390D01*
X103971428Y-51383390D02*
X103876190Y-51335771D01*
X103876190Y-51335771D02*
X103685714Y-51335771D01*
X103685714Y-51335771D02*
X103590476Y-51383390D01*
X103590476Y-51383390D02*
X103542857Y-51431009D01*
X103542857Y-51431009D02*
X103495238Y-51526247D01*
X55554819Y-53666666D02*
X55078628Y-53999999D01*
X55554819Y-54238094D02*
X54554819Y-54238094D01*
X54554819Y-54238094D02*
X54554819Y-53857142D01*
X54554819Y-53857142D02*
X54602438Y-53761904D01*
X54602438Y-53761904D02*
X54650057Y-53714285D01*
X54650057Y-53714285D02*
X54745295Y-53666666D01*
X54745295Y-53666666D02*
X54888152Y-53666666D01*
X54888152Y-53666666D02*
X54983390Y-53714285D01*
X54983390Y-53714285D02*
X55031009Y-53761904D01*
X55031009Y-53761904D02*
X55078628Y-53857142D01*
X55078628Y-53857142D02*
X55078628Y-54238094D01*
X55031009Y-52904761D02*
X55078628Y-52761904D01*
X55078628Y-52761904D02*
X55126247Y-52714285D01*
X55126247Y-52714285D02*
X55221485Y-52666666D01*
X55221485Y-52666666D02*
X55364342Y-52666666D01*
X55364342Y-52666666D02*
X55459580Y-52714285D01*
X55459580Y-52714285D02*
X55507200Y-52761904D01*
X55507200Y-52761904D02*
X55554819Y-52857142D01*
X55554819Y-52857142D02*
X55554819Y-53238094D01*
X55554819Y-53238094D02*
X54554819Y-53238094D01*
X54554819Y-53238094D02*
X54554819Y-52904761D01*
X54554819Y-52904761D02*
X54602438Y-52809523D01*
X54602438Y-52809523D02*
X54650057Y-52761904D01*
X54650057Y-52761904D02*
X54745295Y-52714285D01*
X54745295Y-52714285D02*
X54840533Y-52714285D01*
X54840533Y-52714285D02*
X54935771Y-52761904D01*
X54935771Y-52761904D02*
X54983390Y-52809523D01*
X54983390Y-52809523D02*
X55031009Y-52904761D01*
X55031009Y-52904761D02*
X55031009Y-53238094D01*
X54888152Y-51809523D02*
X55554819Y-51809523D01*
X54507200Y-52047618D02*
X55221485Y-52285713D01*
X55221485Y-52285713D02*
X55221485Y-51666666D01*
X70133333Y-52654819D02*
X69800000Y-52178628D01*
X69561905Y-52654819D02*
X69561905Y-51654819D01*
X69561905Y-51654819D02*
X69942857Y-51654819D01*
X69942857Y-51654819D02*
X70038095Y-51702438D01*
X70038095Y-51702438D02*
X70085714Y-51750057D01*
X70085714Y-51750057D02*
X70133333Y-51845295D01*
X70133333Y-51845295D02*
X70133333Y-51988152D01*
X70133333Y-51988152D02*
X70085714Y-52083390D01*
X70085714Y-52083390D02*
X70038095Y-52131009D01*
X70038095Y-52131009D02*
X69942857Y-52178628D01*
X69942857Y-52178628D02*
X69561905Y-52178628D01*
X70704762Y-52083390D02*
X70609524Y-52035771D01*
X70609524Y-52035771D02*
X70561905Y-51988152D01*
X70561905Y-51988152D02*
X70514286Y-51892914D01*
X70514286Y-51892914D02*
X70514286Y-51845295D01*
X70514286Y-51845295D02*
X70561905Y-51750057D01*
X70561905Y-51750057D02*
X70609524Y-51702438D01*
X70609524Y-51702438D02*
X70704762Y-51654819D01*
X70704762Y-51654819D02*
X70895238Y-51654819D01*
X70895238Y-51654819D02*
X70990476Y-51702438D01*
X70990476Y-51702438D02*
X71038095Y-51750057D01*
X71038095Y-51750057D02*
X71085714Y-51845295D01*
X71085714Y-51845295D02*
X71085714Y-51892914D01*
X71085714Y-51892914D02*
X71038095Y-51988152D01*
X71038095Y-51988152D02*
X70990476Y-52035771D01*
X70990476Y-52035771D02*
X70895238Y-52083390D01*
X70895238Y-52083390D02*
X70704762Y-52083390D01*
X70704762Y-52083390D02*
X70609524Y-52131009D01*
X70609524Y-52131009D02*
X70561905Y-52178628D01*
X70561905Y-52178628D02*
X70514286Y-52273866D01*
X70514286Y-52273866D02*
X70514286Y-52464342D01*
X70514286Y-52464342D02*
X70561905Y-52559580D01*
X70561905Y-52559580D02*
X70609524Y-52607200D01*
X70609524Y-52607200D02*
X70704762Y-52654819D01*
X70704762Y-52654819D02*
X70895238Y-52654819D01*
X70895238Y-52654819D02*
X70990476Y-52607200D01*
X70990476Y-52607200D02*
X71038095Y-52559580D01*
X71038095Y-52559580D02*
X71085714Y-52464342D01*
X71085714Y-52464342D02*
X71085714Y-52273866D01*
X71085714Y-52273866D02*
X71038095Y-52178628D01*
X71038095Y-52178628D02*
X70990476Y-52131009D01*
X70990476Y-52131009D02*
X70895238Y-52083390D01*
X95566666Y-41054819D02*
X95566666Y-41769104D01*
X95566666Y-41769104D02*
X95519047Y-41911961D01*
X95519047Y-41911961D02*
X95423809Y-42007200D01*
X95423809Y-42007200D02*
X95280952Y-42054819D01*
X95280952Y-42054819D02*
X95185714Y-42054819D01*
X96185714Y-41483390D02*
X96090476Y-41435771D01*
X96090476Y-41435771D02*
X96042857Y-41388152D01*
X96042857Y-41388152D02*
X95995238Y-41292914D01*
X95995238Y-41292914D02*
X95995238Y-41245295D01*
X95995238Y-41245295D02*
X96042857Y-41150057D01*
X96042857Y-41150057D02*
X96090476Y-41102438D01*
X96090476Y-41102438D02*
X96185714Y-41054819D01*
X96185714Y-41054819D02*
X96376190Y-41054819D01*
X96376190Y-41054819D02*
X96471428Y-41102438D01*
X96471428Y-41102438D02*
X96519047Y-41150057D01*
X96519047Y-41150057D02*
X96566666Y-41245295D01*
X96566666Y-41245295D02*
X96566666Y-41292914D01*
X96566666Y-41292914D02*
X96519047Y-41388152D01*
X96519047Y-41388152D02*
X96471428Y-41435771D01*
X96471428Y-41435771D02*
X96376190Y-41483390D01*
X96376190Y-41483390D02*
X96185714Y-41483390D01*
X96185714Y-41483390D02*
X96090476Y-41531009D01*
X96090476Y-41531009D02*
X96042857Y-41578628D01*
X96042857Y-41578628D02*
X95995238Y-41673866D01*
X95995238Y-41673866D02*
X95995238Y-41864342D01*
X95995238Y-41864342D02*
X96042857Y-41959580D01*
X96042857Y-41959580D02*
X96090476Y-42007200D01*
X96090476Y-42007200D02*
X96185714Y-42054819D01*
X96185714Y-42054819D02*
X96376190Y-42054819D01*
X96376190Y-42054819D02*
X96471428Y-42007200D01*
X96471428Y-42007200D02*
X96519047Y-41959580D01*
X96519047Y-41959580D02*
X96566666Y-41864342D01*
X96566666Y-41864342D02*
X96566666Y-41673866D01*
X96566666Y-41673866D02*
X96519047Y-41578628D01*
X96519047Y-41578628D02*
X96471428Y-41531009D01*
X96471428Y-41531009D02*
X96376190Y-41483390D01*
X97538095Y-42054819D02*
X97538095Y-41054819D01*
X97538095Y-41054819D02*
X97776190Y-41054819D01*
X97776190Y-41054819D02*
X97919047Y-41102438D01*
X97919047Y-41102438D02*
X98014285Y-41197676D01*
X98014285Y-41197676D02*
X98061904Y-41292914D01*
X98061904Y-41292914D02*
X98109523Y-41483390D01*
X98109523Y-41483390D02*
X98109523Y-41626247D01*
X98109523Y-41626247D02*
X98061904Y-41816723D01*
X98061904Y-41816723D02*
X98014285Y-41911961D01*
X98014285Y-41911961D02*
X97919047Y-42007200D01*
X97919047Y-42007200D02*
X97776190Y-42054819D01*
X97776190Y-42054819D02*
X97538095Y-42054819D01*
X99109523Y-42054819D02*
X98776190Y-41578628D01*
X98538095Y-42054819D02*
X98538095Y-41054819D01*
X98538095Y-41054819D02*
X98919047Y-41054819D01*
X98919047Y-41054819D02*
X99014285Y-41102438D01*
X99014285Y-41102438D02*
X99061904Y-41150057D01*
X99061904Y-41150057D02*
X99109523Y-41245295D01*
X99109523Y-41245295D02*
X99109523Y-41388152D01*
X99109523Y-41388152D02*
X99061904Y-41483390D01*
X99061904Y-41483390D02*
X99014285Y-41531009D01*
X99014285Y-41531009D02*
X98919047Y-41578628D01*
X98919047Y-41578628D02*
X98538095Y-41578628D01*
X100347619Y-42054819D02*
X100300000Y-42054819D01*
X100300000Y-42054819D02*
X100204761Y-42007200D01*
X100204761Y-42007200D02*
X100061904Y-41864342D01*
X100061904Y-41864342D02*
X99823809Y-41578628D01*
X99823809Y-41578628D02*
X99728571Y-41435771D01*
X99728571Y-41435771D02*
X99680952Y-41292914D01*
X99680952Y-41292914D02*
X99680952Y-41197676D01*
X99680952Y-41197676D02*
X99728571Y-41102438D01*
X99728571Y-41102438D02*
X99823809Y-41054819D01*
X99823809Y-41054819D02*
X99871428Y-41054819D01*
X99871428Y-41054819D02*
X99966666Y-41102438D01*
X99966666Y-41102438D02*
X100014285Y-41197676D01*
X100014285Y-41197676D02*
X100014285Y-41245295D01*
X100014285Y-41245295D02*
X99966666Y-41340533D01*
X99966666Y-41340533D02*
X99919047Y-41388152D01*
X99919047Y-41388152D02*
X99633333Y-41578628D01*
X99633333Y-41578628D02*
X99585714Y-41626247D01*
X99585714Y-41626247D02*
X99538095Y-41721485D01*
X99538095Y-41721485D02*
X99538095Y-41864342D01*
X99538095Y-41864342D02*
X99585714Y-41959580D01*
X99585714Y-41959580D02*
X99633333Y-42007200D01*
X99633333Y-42007200D02*
X99728571Y-42054819D01*
X99728571Y-42054819D02*
X99871428Y-42054819D01*
X99871428Y-42054819D02*
X99966666Y-42007200D01*
X99966666Y-42007200D02*
X100014285Y-41959580D01*
X100014285Y-41959580D02*
X100157142Y-41769104D01*
X100157142Y-41769104D02*
X100204761Y-41626247D01*
X100204761Y-41626247D02*
X100204761Y-41531009D01*
X101109523Y-41531009D02*
X100776190Y-41531009D01*
X100776190Y-42054819D02*
X100776190Y-41054819D01*
X100776190Y-41054819D02*
X101252380Y-41054819D01*
X101585714Y-41769104D02*
X102061904Y-41769104D01*
X101490476Y-42054819D02*
X101823809Y-41054819D01*
X101823809Y-41054819D02*
X102157142Y-42054819D01*
X102490476Y-42054819D02*
X102490476Y-41054819D01*
X102490476Y-41054819D02*
X103061904Y-42054819D01*
X103061904Y-42054819D02*
X103061904Y-41054819D01*
X46504761Y-55850057D02*
X46409523Y-55802438D01*
X46409523Y-55802438D02*
X46314285Y-55707200D01*
X46314285Y-55707200D02*
X46171428Y-55564342D01*
X46171428Y-55564342D02*
X46076190Y-55516723D01*
X46076190Y-55516723D02*
X45980952Y-55516723D01*
X46028571Y-55754819D02*
X45933333Y-55707200D01*
X45933333Y-55707200D02*
X45838095Y-55611961D01*
X45838095Y-55611961D02*
X45790476Y-55421485D01*
X45790476Y-55421485D02*
X45790476Y-55088152D01*
X45790476Y-55088152D02*
X45838095Y-54897676D01*
X45838095Y-54897676D02*
X45933333Y-54802438D01*
X45933333Y-54802438D02*
X46028571Y-54754819D01*
X46028571Y-54754819D02*
X46219047Y-54754819D01*
X46219047Y-54754819D02*
X46314285Y-54802438D01*
X46314285Y-54802438D02*
X46409523Y-54897676D01*
X46409523Y-54897676D02*
X46457142Y-55088152D01*
X46457142Y-55088152D02*
X46457142Y-55421485D01*
X46457142Y-55421485D02*
X46409523Y-55611961D01*
X46409523Y-55611961D02*
X46314285Y-55707200D01*
X46314285Y-55707200D02*
X46219047Y-55754819D01*
X46219047Y-55754819D02*
X46028571Y-55754819D01*
X47028571Y-55183390D02*
X46933333Y-55135771D01*
X46933333Y-55135771D02*
X46885714Y-55088152D01*
X46885714Y-55088152D02*
X46838095Y-54992914D01*
X46838095Y-54992914D02*
X46838095Y-54945295D01*
X46838095Y-54945295D02*
X46885714Y-54850057D01*
X46885714Y-54850057D02*
X46933333Y-54802438D01*
X46933333Y-54802438D02*
X47028571Y-54754819D01*
X47028571Y-54754819D02*
X47219047Y-54754819D01*
X47219047Y-54754819D02*
X47314285Y-54802438D01*
X47314285Y-54802438D02*
X47361904Y-54850057D01*
X47361904Y-54850057D02*
X47409523Y-54945295D01*
X47409523Y-54945295D02*
X47409523Y-54992914D01*
X47409523Y-54992914D02*
X47361904Y-55088152D01*
X47361904Y-55088152D02*
X47314285Y-55135771D01*
X47314285Y-55135771D02*
X47219047Y-55183390D01*
X47219047Y-55183390D02*
X47028571Y-55183390D01*
X47028571Y-55183390D02*
X46933333Y-55231009D01*
X46933333Y-55231009D02*
X46885714Y-55278628D01*
X46885714Y-55278628D02*
X46838095Y-55373866D01*
X46838095Y-55373866D02*
X46838095Y-55564342D01*
X46838095Y-55564342D02*
X46885714Y-55659580D01*
X46885714Y-55659580D02*
X46933333Y-55707200D01*
X46933333Y-55707200D02*
X47028571Y-55754819D01*
X47028571Y-55754819D02*
X47219047Y-55754819D01*
X47219047Y-55754819D02*
X47314285Y-55707200D01*
X47314285Y-55707200D02*
X47361904Y-55659580D01*
X47361904Y-55659580D02*
X47409523Y-55564342D01*
X47409523Y-55564342D02*
X47409523Y-55373866D01*
X47409523Y-55373866D02*
X47361904Y-55278628D01*
X47361904Y-55278628D02*
X47314285Y-55231009D01*
X47314285Y-55231009D02*
X47219047Y-55183390D01*
X41538095Y-19654819D02*
X42109523Y-19654819D01*
X41823809Y-20654819D02*
X41823809Y-19654819D01*
X42442857Y-20654819D02*
X42442857Y-19654819D01*
X42442857Y-19654819D02*
X42823809Y-19654819D01*
X42823809Y-19654819D02*
X42919047Y-19702438D01*
X42919047Y-19702438D02*
X42966666Y-19750057D01*
X42966666Y-19750057D02*
X43014285Y-19845295D01*
X43014285Y-19845295D02*
X43014285Y-19988152D01*
X43014285Y-19988152D02*
X42966666Y-20083390D01*
X42966666Y-20083390D02*
X42919047Y-20131009D01*
X42919047Y-20131009D02*
X42823809Y-20178628D01*
X42823809Y-20178628D02*
X42442857Y-20178628D01*
X43966666Y-20654819D02*
X43395238Y-20654819D01*
X43680952Y-20654819D02*
X43680952Y-19654819D01*
X43680952Y-19654819D02*
X43585714Y-19797676D01*
X43585714Y-19797676D02*
X43490476Y-19892914D01*
X43490476Y-19892914D02*
X43395238Y-19940533D01*
X42038095Y-21002438D02*
X41942857Y-20954819D01*
X41942857Y-20954819D02*
X41800000Y-20954819D01*
X41800000Y-20954819D02*
X41657143Y-21002438D01*
X41657143Y-21002438D02*
X41561905Y-21097676D01*
X41561905Y-21097676D02*
X41514286Y-21192914D01*
X41514286Y-21192914D02*
X41466667Y-21383390D01*
X41466667Y-21383390D02*
X41466667Y-21526247D01*
X41466667Y-21526247D02*
X41514286Y-21716723D01*
X41514286Y-21716723D02*
X41561905Y-21811961D01*
X41561905Y-21811961D02*
X41657143Y-21907200D01*
X41657143Y-21907200D02*
X41800000Y-21954819D01*
X41800000Y-21954819D02*
X41895238Y-21954819D01*
X41895238Y-21954819D02*
X42038095Y-21907200D01*
X42038095Y-21907200D02*
X42085714Y-21859580D01*
X42085714Y-21859580D02*
X42085714Y-21526247D01*
X42085714Y-21526247D02*
X41895238Y-21526247D01*
X42514286Y-21954819D02*
X42514286Y-20954819D01*
X42514286Y-20954819D02*
X43085714Y-21954819D01*
X43085714Y-21954819D02*
X43085714Y-20954819D01*
X43561905Y-21954819D02*
X43561905Y-20954819D01*
X43561905Y-20954819D02*
X43800000Y-20954819D01*
X43800000Y-20954819D02*
X43942857Y-21002438D01*
X43942857Y-21002438D02*
X44038095Y-21097676D01*
X44038095Y-21097676D02*
X44085714Y-21192914D01*
X44085714Y-21192914D02*
X44133333Y-21383390D01*
X44133333Y-21383390D02*
X44133333Y-21526247D01*
X44133333Y-21526247D02*
X44085714Y-21716723D01*
X44085714Y-21716723D02*
X44038095Y-21811961D01*
X44038095Y-21811961D02*
X43942857Y-21907200D01*
X43942857Y-21907200D02*
X43800000Y-21954819D01*
X43800000Y-21954819D02*
X43561905Y-21954819D01*
X61128571Y-52550057D02*
X61033333Y-52502438D01*
X61033333Y-52502438D02*
X60938095Y-52407200D01*
X60938095Y-52407200D02*
X60795238Y-52264342D01*
X60795238Y-52264342D02*
X60700000Y-52216723D01*
X60700000Y-52216723D02*
X60604762Y-52216723D01*
X60652381Y-52454819D02*
X60557143Y-52407200D01*
X60557143Y-52407200D02*
X60461905Y-52311961D01*
X60461905Y-52311961D02*
X60414286Y-52121485D01*
X60414286Y-52121485D02*
X60414286Y-51788152D01*
X60414286Y-51788152D02*
X60461905Y-51597676D01*
X60461905Y-51597676D02*
X60557143Y-51502438D01*
X60557143Y-51502438D02*
X60652381Y-51454819D01*
X60652381Y-51454819D02*
X60842857Y-51454819D01*
X60842857Y-51454819D02*
X60938095Y-51502438D01*
X60938095Y-51502438D02*
X61033333Y-51597676D01*
X61033333Y-51597676D02*
X61080952Y-51788152D01*
X61080952Y-51788152D02*
X61080952Y-52121485D01*
X61080952Y-52121485D02*
X61033333Y-52311961D01*
X61033333Y-52311961D02*
X60938095Y-52407200D01*
X60938095Y-52407200D02*
X60842857Y-52454819D01*
X60842857Y-52454819D02*
X60652381Y-52454819D01*
X62033333Y-52454819D02*
X61461905Y-52454819D01*
X61747619Y-52454819D02*
X61747619Y-51454819D01*
X61747619Y-51454819D02*
X61652381Y-51597676D01*
X61652381Y-51597676D02*
X61557143Y-51692914D01*
X61557143Y-51692914D02*
X61461905Y-51740533D01*
X62652381Y-51454819D02*
X62747619Y-51454819D01*
X62747619Y-51454819D02*
X62842857Y-51502438D01*
X62842857Y-51502438D02*
X62890476Y-51550057D01*
X62890476Y-51550057D02*
X62938095Y-51645295D01*
X62938095Y-51645295D02*
X62985714Y-51835771D01*
X62985714Y-51835771D02*
X62985714Y-52073866D01*
X62985714Y-52073866D02*
X62938095Y-52264342D01*
X62938095Y-52264342D02*
X62890476Y-52359580D01*
X62890476Y-52359580D02*
X62842857Y-52407200D01*
X62842857Y-52407200D02*
X62747619Y-52454819D01*
X62747619Y-52454819D02*
X62652381Y-52454819D01*
X62652381Y-52454819D02*
X62557143Y-52407200D01*
X62557143Y-52407200D02*
X62509524Y-52359580D01*
X62509524Y-52359580D02*
X62461905Y-52264342D01*
X62461905Y-52264342D02*
X62414286Y-52073866D01*
X62414286Y-52073866D02*
X62414286Y-51835771D01*
X62414286Y-51835771D02*
X62461905Y-51645295D01*
X62461905Y-51645295D02*
X62509524Y-51550057D01*
X62509524Y-51550057D02*
X62557143Y-51502438D01*
X62557143Y-51502438D02*
X62652381Y-51454819D01*
X105661905Y-39854819D02*
X106233333Y-39854819D01*
X105947619Y-40854819D02*
X105947619Y-39854819D01*
X106566667Y-40854819D02*
X106566667Y-39854819D01*
X106566667Y-39854819D02*
X106947619Y-39854819D01*
X106947619Y-39854819D02*
X107042857Y-39902438D01*
X107042857Y-39902438D02*
X107090476Y-39950057D01*
X107090476Y-39950057D02*
X107138095Y-40045295D01*
X107138095Y-40045295D02*
X107138095Y-40188152D01*
X107138095Y-40188152D02*
X107090476Y-40283390D01*
X107090476Y-40283390D02*
X107042857Y-40331009D01*
X107042857Y-40331009D02*
X106947619Y-40378628D01*
X106947619Y-40378628D02*
X106566667Y-40378628D01*
X108090476Y-40854819D02*
X107519048Y-40854819D01*
X107804762Y-40854819D02*
X107804762Y-39854819D01*
X107804762Y-39854819D02*
X107709524Y-39997676D01*
X107709524Y-39997676D02*
X107614286Y-40092914D01*
X107614286Y-40092914D02*
X107519048Y-40140533D01*
X108995238Y-39854819D02*
X108519048Y-39854819D01*
X108519048Y-39854819D02*
X108471429Y-40331009D01*
X108471429Y-40331009D02*
X108519048Y-40283390D01*
X108519048Y-40283390D02*
X108614286Y-40235771D01*
X108614286Y-40235771D02*
X108852381Y-40235771D01*
X108852381Y-40235771D02*
X108947619Y-40283390D01*
X108947619Y-40283390D02*
X108995238Y-40331009D01*
X108995238Y-40331009D02*
X109042857Y-40426247D01*
X109042857Y-40426247D02*
X109042857Y-40664342D01*
X109042857Y-40664342D02*
X108995238Y-40759580D01*
X108995238Y-40759580D02*
X108947619Y-40807200D01*
X108947619Y-40807200D02*
X108852381Y-40854819D01*
X108852381Y-40854819D02*
X108614286Y-40854819D01*
X108614286Y-40854819D02*
X108519048Y-40807200D01*
X108519048Y-40807200D02*
X108471429Y-40759580D01*
X105861905Y-42354819D02*
X105861905Y-41354819D01*
X106338095Y-42354819D02*
X106338095Y-41354819D01*
X106338095Y-41354819D02*
X106909523Y-42354819D01*
X106909523Y-42354819D02*
X106909523Y-41354819D01*
X107147619Y-42450057D02*
X107909523Y-42450057D01*
X108480952Y-41831009D02*
X108147619Y-41831009D01*
X108147619Y-42354819D02*
X108147619Y-41354819D01*
X108147619Y-41354819D02*
X108623809Y-41354819D01*
X109480952Y-42354819D02*
X109004762Y-42354819D01*
X109004762Y-42354819D02*
X109004762Y-41354819D01*
X86633333Y-48159580D02*
X86585714Y-48207200D01*
X86585714Y-48207200D02*
X86442857Y-48254819D01*
X86442857Y-48254819D02*
X86347619Y-48254819D01*
X86347619Y-48254819D02*
X86204762Y-48207200D01*
X86204762Y-48207200D02*
X86109524Y-48111961D01*
X86109524Y-48111961D02*
X86061905Y-48016723D01*
X86061905Y-48016723D02*
X86014286Y-47826247D01*
X86014286Y-47826247D02*
X86014286Y-47683390D01*
X86014286Y-47683390D02*
X86061905Y-47492914D01*
X86061905Y-47492914D02*
X86109524Y-47397676D01*
X86109524Y-47397676D02*
X86204762Y-47302438D01*
X86204762Y-47302438D02*
X86347619Y-47254819D01*
X86347619Y-47254819D02*
X86442857Y-47254819D01*
X86442857Y-47254819D02*
X86585714Y-47302438D01*
X86585714Y-47302438D02*
X86633333Y-47350057D01*
X87490476Y-47254819D02*
X87300000Y-47254819D01*
X87300000Y-47254819D02*
X87204762Y-47302438D01*
X87204762Y-47302438D02*
X87157143Y-47350057D01*
X87157143Y-47350057D02*
X87061905Y-47492914D01*
X87061905Y-47492914D02*
X87014286Y-47683390D01*
X87014286Y-47683390D02*
X87014286Y-48064342D01*
X87014286Y-48064342D02*
X87061905Y-48159580D01*
X87061905Y-48159580D02*
X87109524Y-48207200D01*
X87109524Y-48207200D02*
X87204762Y-48254819D01*
X87204762Y-48254819D02*
X87395238Y-48254819D01*
X87395238Y-48254819D02*
X87490476Y-48207200D01*
X87490476Y-48207200D02*
X87538095Y-48159580D01*
X87538095Y-48159580D02*
X87585714Y-48064342D01*
X87585714Y-48064342D02*
X87585714Y-47826247D01*
X87585714Y-47826247D02*
X87538095Y-47731009D01*
X87538095Y-47731009D02*
X87490476Y-47683390D01*
X87490476Y-47683390D02*
X87395238Y-47635771D01*
X87395238Y-47635771D02*
X87204762Y-47635771D01*
X87204762Y-47635771D02*
X87109524Y-47683390D01*
X87109524Y-47683390D02*
X87061905Y-47731009D01*
X87061905Y-47731009D02*
X87014286Y-47826247D01*
X57361905Y-38054819D02*
X57361905Y-37054819D01*
X57361905Y-37054819D02*
X57600000Y-37054819D01*
X57600000Y-37054819D02*
X57742857Y-37102438D01*
X57742857Y-37102438D02*
X57838095Y-37197676D01*
X57838095Y-37197676D02*
X57885714Y-37292914D01*
X57885714Y-37292914D02*
X57933333Y-37483390D01*
X57933333Y-37483390D02*
X57933333Y-37626247D01*
X57933333Y-37626247D02*
X57885714Y-37816723D01*
X57885714Y-37816723D02*
X57838095Y-37911961D01*
X57838095Y-37911961D02*
X57742857Y-38007200D01*
X57742857Y-38007200D02*
X57600000Y-38054819D01*
X57600000Y-38054819D02*
X57361905Y-38054819D01*
X58790476Y-37388152D02*
X58790476Y-38054819D01*
X58552381Y-37007200D02*
X58314286Y-37721485D01*
X58314286Y-37721485D02*
X58933333Y-37721485D01*
X50533333Y-55654819D02*
X50200000Y-55178628D01*
X49961905Y-55654819D02*
X49961905Y-54654819D01*
X49961905Y-54654819D02*
X50342857Y-54654819D01*
X50342857Y-54654819D02*
X50438095Y-54702438D01*
X50438095Y-54702438D02*
X50485714Y-54750057D01*
X50485714Y-54750057D02*
X50533333Y-54845295D01*
X50533333Y-54845295D02*
X50533333Y-54988152D01*
X50533333Y-54988152D02*
X50485714Y-55083390D01*
X50485714Y-55083390D02*
X50438095Y-55131009D01*
X50438095Y-55131009D02*
X50342857Y-55178628D01*
X50342857Y-55178628D02*
X49961905Y-55178628D01*
X51295238Y-55131009D02*
X51438095Y-55178628D01*
X51438095Y-55178628D02*
X51485714Y-55226247D01*
X51485714Y-55226247D02*
X51533333Y-55321485D01*
X51533333Y-55321485D02*
X51533333Y-55464342D01*
X51533333Y-55464342D02*
X51485714Y-55559580D01*
X51485714Y-55559580D02*
X51438095Y-55607200D01*
X51438095Y-55607200D02*
X51342857Y-55654819D01*
X51342857Y-55654819D02*
X50961905Y-55654819D01*
X50961905Y-55654819D02*
X50961905Y-54654819D01*
X50961905Y-54654819D02*
X51295238Y-54654819D01*
X51295238Y-54654819D02*
X51390476Y-54702438D01*
X51390476Y-54702438D02*
X51438095Y-54750057D01*
X51438095Y-54750057D02*
X51485714Y-54845295D01*
X51485714Y-54845295D02*
X51485714Y-54940533D01*
X51485714Y-54940533D02*
X51438095Y-55035771D01*
X51438095Y-55035771D02*
X51390476Y-55083390D01*
X51390476Y-55083390D02*
X51295238Y-55131009D01*
X51295238Y-55131009D02*
X50961905Y-55131009D01*
X51914286Y-54750057D02*
X51961905Y-54702438D01*
X51961905Y-54702438D02*
X52057143Y-54654819D01*
X52057143Y-54654819D02*
X52295238Y-54654819D01*
X52295238Y-54654819D02*
X52390476Y-54702438D01*
X52390476Y-54702438D02*
X52438095Y-54750057D01*
X52438095Y-54750057D02*
X52485714Y-54845295D01*
X52485714Y-54845295D02*
X52485714Y-54940533D01*
X52485714Y-54940533D02*
X52438095Y-55083390D01*
X52438095Y-55083390D02*
X51866667Y-55654819D01*
X51866667Y-55654819D02*
X52485714Y-55654819D01*
X44976190Y-20254819D02*
X44642857Y-19778628D01*
X44404762Y-20254819D02*
X44404762Y-19254819D01*
X44404762Y-19254819D02*
X44785714Y-19254819D01*
X44785714Y-19254819D02*
X44880952Y-19302438D01*
X44880952Y-19302438D02*
X44928571Y-19350057D01*
X44928571Y-19350057D02*
X44976190Y-19445295D01*
X44976190Y-19445295D02*
X44976190Y-19588152D01*
X44976190Y-19588152D02*
X44928571Y-19683390D01*
X44928571Y-19683390D02*
X44880952Y-19731009D01*
X44880952Y-19731009D02*
X44785714Y-19778628D01*
X44785714Y-19778628D02*
X44404762Y-19778628D01*
X45357143Y-19969104D02*
X45833333Y-19969104D01*
X45261905Y-20254819D02*
X45595238Y-19254819D01*
X45595238Y-19254819D02*
X45928571Y-20254819D01*
X46119048Y-19254819D02*
X46452381Y-20254819D01*
X46452381Y-20254819D02*
X46785714Y-19254819D01*
X47642857Y-20254819D02*
X47071429Y-20254819D01*
X47357143Y-20254819D02*
X47357143Y-19254819D01*
X47357143Y-19254819D02*
X47261905Y-19397676D01*
X47261905Y-19397676D02*
X47166667Y-19492914D01*
X47166667Y-19492914D02*
X47071429Y-19540533D01*
X45891666Y-29554819D02*
X45891666Y-30269104D01*
X45891666Y-30269104D02*
X45844047Y-30411961D01*
X45844047Y-30411961D02*
X45748809Y-30507200D01*
X45748809Y-30507200D02*
X45605952Y-30554819D01*
X45605952Y-30554819D02*
X45510714Y-30554819D01*
X46272619Y-29554819D02*
X46891666Y-29554819D01*
X46891666Y-29554819D02*
X46558333Y-29935771D01*
X46558333Y-29935771D02*
X46701190Y-29935771D01*
X46701190Y-29935771D02*
X46796428Y-29983390D01*
X46796428Y-29983390D02*
X46844047Y-30031009D01*
X46844047Y-30031009D02*
X46891666Y-30126247D01*
X46891666Y-30126247D02*
X46891666Y-30364342D01*
X46891666Y-30364342D02*
X46844047Y-30459580D01*
X46844047Y-30459580D02*
X46796428Y-30507200D01*
X46796428Y-30507200D02*
X46701190Y-30554819D01*
X46701190Y-30554819D02*
X46415476Y-30554819D01*
X46415476Y-30554819D02*
X46320238Y-30507200D01*
X46320238Y-30507200D02*
X46272619Y-30459580D01*
X45444048Y-37373866D02*
X46205953Y-37373866D01*
X45825000Y-37754819D02*
X45825000Y-36992914D01*
X112666666Y-34129819D02*
X112666666Y-34844104D01*
X112666666Y-34844104D02*
X112619047Y-34986961D01*
X112619047Y-34986961D02*
X112523809Y-35082200D01*
X112523809Y-35082200D02*
X112380952Y-35129819D01*
X112380952Y-35129819D02*
X112285714Y-35129819D01*
X113190476Y-35129819D02*
X113380952Y-35129819D01*
X113380952Y-35129819D02*
X113476190Y-35082200D01*
X113476190Y-35082200D02*
X113523809Y-35034580D01*
X113523809Y-35034580D02*
X113619047Y-34891723D01*
X113619047Y-34891723D02*
X113666666Y-34701247D01*
X113666666Y-34701247D02*
X113666666Y-34320295D01*
X113666666Y-34320295D02*
X113619047Y-34225057D01*
X113619047Y-34225057D02*
X113571428Y-34177438D01*
X113571428Y-34177438D02*
X113476190Y-34129819D01*
X113476190Y-34129819D02*
X113285714Y-34129819D01*
X113285714Y-34129819D02*
X113190476Y-34177438D01*
X113190476Y-34177438D02*
X113142857Y-34225057D01*
X113142857Y-34225057D02*
X113095238Y-34320295D01*
X113095238Y-34320295D02*
X113095238Y-34558390D01*
X113095238Y-34558390D02*
X113142857Y-34653628D01*
X113142857Y-34653628D02*
X113190476Y-34701247D01*
X113190476Y-34701247D02*
X113285714Y-34748866D01*
X113285714Y-34748866D02*
X113476190Y-34748866D01*
X113476190Y-34748866D02*
X113571428Y-34701247D01*
X113571428Y-34701247D02*
X113619047Y-34653628D01*
X113619047Y-34653628D02*
X113666666Y-34558390D01*
X61604761Y-51150057D02*
X61509523Y-51102438D01*
X61509523Y-51102438D02*
X61414285Y-51007200D01*
X61414285Y-51007200D02*
X61271428Y-50864342D01*
X61271428Y-50864342D02*
X61176190Y-50816723D01*
X61176190Y-50816723D02*
X61080952Y-50816723D01*
X61128571Y-51054819D02*
X61033333Y-51007200D01*
X61033333Y-51007200D02*
X60938095Y-50911961D01*
X60938095Y-50911961D02*
X60890476Y-50721485D01*
X60890476Y-50721485D02*
X60890476Y-50388152D01*
X60890476Y-50388152D02*
X60938095Y-50197676D01*
X60938095Y-50197676D02*
X61033333Y-50102438D01*
X61033333Y-50102438D02*
X61128571Y-50054819D01*
X61128571Y-50054819D02*
X61319047Y-50054819D01*
X61319047Y-50054819D02*
X61414285Y-50102438D01*
X61414285Y-50102438D02*
X61509523Y-50197676D01*
X61509523Y-50197676D02*
X61557142Y-50388152D01*
X61557142Y-50388152D02*
X61557142Y-50721485D01*
X61557142Y-50721485D02*
X61509523Y-50911961D01*
X61509523Y-50911961D02*
X61414285Y-51007200D01*
X61414285Y-51007200D02*
X61319047Y-51054819D01*
X61319047Y-51054819D02*
X61128571Y-51054819D01*
X61938095Y-50150057D02*
X61985714Y-50102438D01*
X61985714Y-50102438D02*
X62080952Y-50054819D01*
X62080952Y-50054819D02*
X62319047Y-50054819D01*
X62319047Y-50054819D02*
X62414285Y-50102438D01*
X62414285Y-50102438D02*
X62461904Y-50150057D01*
X62461904Y-50150057D02*
X62509523Y-50245295D01*
X62509523Y-50245295D02*
X62509523Y-50340533D01*
X62509523Y-50340533D02*
X62461904Y-50483390D01*
X62461904Y-50483390D02*
X61890476Y-51054819D01*
X61890476Y-51054819D02*
X62509523Y-51054819D01*
X88644642Y-46654580D02*
X88597023Y-46702200D01*
X88597023Y-46702200D02*
X88454166Y-46749819D01*
X88454166Y-46749819D02*
X88358928Y-46749819D01*
X88358928Y-46749819D02*
X88216071Y-46702200D01*
X88216071Y-46702200D02*
X88120833Y-46606961D01*
X88120833Y-46606961D02*
X88073214Y-46511723D01*
X88073214Y-46511723D02*
X88025595Y-46321247D01*
X88025595Y-46321247D02*
X88025595Y-46178390D01*
X88025595Y-46178390D02*
X88073214Y-45987914D01*
X88073214Y-45987914D02*
X88120833Y-45892676D01*
X88120833Y-45892676D02*
X88216071Y-45797438D01*
X88216071Y-45797438D02*
X88358928Y-45749819D01*
X88358928Y-45749819D02*
X88454166Y-45749819D01*
X88454166Y-45749819D02*
X88597023Y-45797438D01*
X88597023Y-45797438D02*
X88644642Y-45845057D01*
X89597023Y-46749819D02*
X89025595Y-46749819D01*
X89311309Y-46749819D02*
X89311309Y-45749819D01*
X89311309Y-45749819D02*
X89216071Y-45892676D01*
X89216071Y-45892676D02*
X89120833Y-45987914D01*
X89120833Y-45987914D02*
X89025595Y-46035533D01*
X90549404Y-46749819D02*
X89977976Y-46749819D01*
X90263690Y-46749819D02*
X90263690Y-45749819D01*
X90263690Y-45749819D02*
X90168452Y-45892676D01*
X90168452Y-45892676D02*
X90073214Y-45987914D01*
X90073214Y-45987914D02*
X89977976Y-46035533D01*
X83933333Y-52254819D02*
X83600000Y-51778628D01*
X83361905Y-52254819D02*
X83361905Y-51254819D01*
X83361905Y-51254819D02*
X83742857Y-51254819D01*
X83742857Y-51254819D02*
X83838095Y-51302438D01*
X83838095Y-51302438D02*
X83885714Y-51350057D01*
X83885714Y-51350057D02*
X83933333Y-51445295D01*
X83933333Y-51445295D02*
X83933333Y-51588152D01*
X83933333Y-51588152D02*
X83885714Y-51683390D01*
X83885714Y-51683390D02*
X83838095Y-51731009D01*
X83838095Y-51731009D02*
X83742857Y-51778628D01*
X83742857Y-51778628D02*
X83361905Y-51778628D01*
X84314286Y-51350057D02*
X84361905Y-51302438D01*
X84361905Y-51302438D02*
X84457143Y-51254819D01*
X84457143Y-51254819D02*
X84695238Y-51254819D01*
X84695238Y-51254819D02*
X84790476Y-51302438D01*
X84790476Y-51302438D02*
X84838095Y-51350057D01*
X84838095Y-51350057D02*
X84885714Y-51445295D01*
X84885714Y-51445295D02*
X84885714Y-51540533D01*
X84885714Y-51540533D02*
X84838095Y-51683390D01*
X84838095Y-51683390D02*
X84266667Y-52254819D01*
X84266667Y-52254819D02*
X84885714Y-52254819D01*
X74757142Y-47759580D02*
X74709523Y-47807200D01*
X74709523Y-47807200D02*
X74566666Y-47854819D01*
X74566666Y-47854819D02*
X74471428Y-47854819D01*
X74471428Y-47854819D02*
X74328571Y-47807200D01*
X74328571Y-47807200D02*
X74233333Y-47711961D01*
X74233333Y-47711961D02*
X74185714Y-47616723D01*
X74185714Y-47616723D02*
X74138095Y-47426247D01*
X74138095Y-47426247D02*
X74138095Y-47283390D01*
X74138095Y-47283390D02*
X74185714Y-47092914D01*
X74185714Y-47092914D02*
X74233333Y-46997676D01*
X74233333Y-46997676D02*
X74328571Y-46902438D01*
X74328571Y-46902438D02*
X74471428Y-46854819D01*
X74471428Y-46854819D02*
X74566666Y-46854819D01*
X74566666Y-46854819D02*
X74709523Y-46902438D01*
X74709523Y-46902438D02*
X74757142Y-46950057D01*
X75138095Y-46950057D02*
X75185714Y-46902438D01*
X75185714Y-46902438D02*
X75280952Y-46854819D01*
X75280952Y-46854819D02*
X75519047Y-46854819D01*
X75519047Y-46854819D02*
X75614285Y-46902438D01*
X75614285Y-46902438D02*
X75661904Y-46950057D01*
X75661904Y-46950057D02*
X75709523Y-47045295D01*
X75709523Y-47045295D02*
X75709523Y-47140533D01*
X75709523Y-47140533D02*
X75661904Y-47283390D01*
X75661904Y-47283390D02*
X75090476Y-47854819D01*
X75090476Y-47854819D02*
X75709523Y-47854819D01*
X76328571Y-46854819D02*
X76423809Y-46854819D01*
X76423809Y-46854819D02*
X76519047Y-46902438D01*
X76519047Y-46902438D02*
X76566666Y-46950057D01*
X76566666Y-46950057D02*
X76614285Y-47045295D01*
X76614285Y-47045295D02*
X76661904Y-47235771D01*
X76661904Y-47235771D02*
X76661904Y-47473866D01*
X76661904Y-47473866D02*
X76614285Y-47664342D01*
X76614285Y-47664342D02*
X76566666Y-47759580D01*
X76566666Y-47759580D02*
X76519047Y-47807200D01*
X76519047Y-47807200D02*
X76423809Y-47854819D01*
X76423809Y-47854819D02*
X76328571Y-47854819D01*
X76328571Y-47854819D02*
X76233333Y-47807200D01*
X76233333Y-47807200D02*
X76185714Y-47759580D01*
X76185714Y-47759580D02*
X76138095Y-47664342D01*
X76138095Y-47664342D02*
X76090476Y-47473866D01*
X76090476Y-47473866D02*
X76090476Y-47235771D01*
X76090476Y-47235771D02*
X76138095Y-47045295D01*
X76138095Y-47045295D02*
X76185714Y-46950057D01*
X76185714Y-46950057D02*
X76233333Y-46902438D01*
X76233333Y-46902438D02*
X76328571Y-46854819D01*
X78933333Y-50854819D02*
X78600000Y-50378628D01*
X78361905Y-50854819D02*
X78361905Y-49854819D01*
X78361905Y-49854819D02*
X78742857Y-49854819D01*
X78742857Y-49854819D02*
X78838095Y-49902438D01*
X78838095Y-49902438D02*
X78885714Y-49950057D01*
X78885714Y-49950057D02*
X78933333Y-50045295D01*
X78933333Y-50045295D02*
X78933333Y-50188152D01*
X78933333Y-50188152D02*
X78885714Y-50283390D01*
X78885714Y-50283390D02*
X78838095Y-50331009D01*
X78838095Y-50331009D02*
X78742857Y-50378628D01*
X78742857Y-50378628D02*
X78361905Y-50378628D01*
X79885714Y-50854819D02*
X79314286Y-50854819D01*
X79600000Y-50854819D02*
X79600000Y-49854819D01*
X79600000Y-49854819D02*
X79504762Y-49997676D01*
X79504762Y-49997676D02*
X79409524Y-50092914D01*
X79409524Y-50092914D02*
X79314286Y-50140533D01*
X64557142Y-44589580D02*
X64509523Y-44637200D01*
X64509523Y-44637200D02*
X64366666Y-44684819D01*
X64366666Y-44684819D02*
X64271428Y-44684819D01*
X64271428Y-44684819D02*
X64128571Y-44637200D01*
X64128571Y-44637200D02*
X64033333Y-44541961D01*
X64033333Y-44541961D02*
X63985714Y-44446723D01*
X63985714Y-44446723D02*
X63938095Y-44256247D01*
X63938095Y-44256247D02*
X63938095Y-44113390D01*
X63938095Y-44113390D02*
X63985714Y-43922914D01*
X63985714Y-43922914D02*
X64033333Y-43827676D01*
X64033333Y-43827676D02*
X64128571Y-43732438D01*
X64128571Y-43732438D02*
X64271428Y-43684819D01*
X64271428Y-43684819D02*
X64366666Y-43684819D01*
X64366666Y-43684819D02*
X64509523Y-43732438D01*
X64509523Y-43732438D02*
X64557142Y-43780057D01*
X64938095Y-43780057D02*
X64985714Y-43732438D01*
X64985714Y-43732438D02*
X65080952Y-43684819D01*
X65080952Y-43684819D02*
X65319047Y-43684819D01*
X65319047Y-43684819D02*
X65414285Y-43732438D01*
X65414285Y-43732438D02*
X65461904Y-43780057D01*
X65461904Y-43780057D02*
X65509523Y-43875295D01*
X65509523Y-43875295D02*
X65509523Y-43970533D01*
X65509523Y-43970533D02*
X65461904Y-44113390D01*
X65461904Y-44113390D02*
X64890476Y-44684819D01*
X64890476Y-44684819D02*
X65509523Y-44684819D01*
X66366666Y-44018152D02*
X66366666Y-44684819D01*
X66128571Y-43637200D02*
X65890476Y-44351485D01*
X65890476Y-44351485D02*
X66509523Y-44351485D01*
X114190476Y-40954819D02*
X114190476Y-41669104D01*
X114190476Y-41669104D02*
X114142857Y-41811961D01*
X114142857Y-41811961D02*
X114047619Y-41907200D01*
X114047619Y-41907200D02*
X113904762Y-41954819D01*
X113904762Y-41954819D02*
X113809524Y-41954819D01*
X115190476Y-41954819D02*
X114619048Y-41954819D01*
X114904762Y-41954819D02*
X114904762Y-40954819D01*
X114904762Y-40954819D02*
X114809524Y-41097676D01*
X114809524Y-41097676D02*
X114714286Y-41192914D01*
X114714286Y-41192914D02*
X114619048Y-41240533D01*
X115571429Y-41050057D02*
X115619048Y-41002438D01*
X115619048Y-41002438D02*
X115714286Y-40954819D01*
X115714286Y-40954819D02*
X115952381Y-40954819D01*
X115952381Y-40954819D02*
X116047619Y-41002438D01*
X116047619Y-41002438D02*
X116095238Y-41050057D01*
X116095238Y-41050057D02*
X116142857Y-41145295D01*
X116142857Y-41145295D02*
X116142857Y-41240533D01*
X116142857Y-41240533D02*
X116095238Y-41383390D01*
X116095238Y-41383390D02*
X115523810Y-41954819D01*
X115523810Y-41954819D02*
X116142857Y-41954819D01*
X117438095Y-41431009D02*
X117104762Y-41431009D01*
X117104762Y-41954819D02*
X117104762Y-40954819D01*
X117104762Y-40954819D02*
X117580952Y-40954819D01*
X118438095Y-41954819D02*
X117961905Y-41954819D01*
X117961905Y-41954819D02*
X117961905Y-40954819D01*
X41304761Y-55754819D02*
X40971428Y-55278628D01*
X40733333Y-55754819D02*
X40733333Y-54754819D01*
X40733333Y-54754819D02*
X41114285Y-54754819D01*
X41114285Y-54754819D02*
X41209523Y-54802438D01*
X41209523Y-54802438D02*
X41257142Y-54850057D01*
X41257142Y-54850057D02*
X41304761Y-54945295D01*
X41304761Y-54945295D02*
X41304761Y-55088152D01*
X41304761Y-55088152D02*
X41257142Y-55183390D01*
X41257142Y-55183390D02*
X41209523Y-55231009D01*
X41209523Y-55231009D02*
X41114285Y-55278628D01*
X41114285Y-55278628D02*
X40733333Y-55278628D01*
X42066666Y-55231009D02*
X42209523Y-55278628D01*
X42209523Y-55278628D02*
X42257142Y-55326247D01*
X42257142Y-55326247D02*
X42304761Y-55421485D01*
X42304761Y-55421485D02*
X42304761Y-55564342D01*
X42304761Y-55564342D02*
X42257142Y-55659580D01*
X42257142Y-55659580D02*
X42209523Y-55707200D01*
X42209523Y-55707200D02*
X42114285Y-55754819D01*
X42114285Y-55754819D02*
X41733333Y-55754819D01*
X41733333Y-55754819D02*
X41733333Y-54754819D01*
X41733333Y-54754819D02*
X42066666Y-54754819D01*
X42066666Y-54754819D02*
X42161904Y-54802438D01*
X42161904Y-54802438D02*
X42209523Y-54850057D01*
X42209523Y-54850057D02*
X42257142Y-54945295D01*
X42257142Y-54945295D02*
X42257142Y-55040533D01*
X42257142Y-55040533D02*
X42209523Y-55135771D01*
X42209523Y-55135771D02*
X42161904Y-55183390D01*
X42161904Y-55183390D02*
X42066666Y-55231009D01*
X42066666Y-55231009D02*
X41733333Y-55231009D01*
X42590476Y-54754819D02*
X42923809Y-55754819D01*
X42923809Y-55754819D02*
X43257142Y-54754819D01*
X44114285Y-55754819D02*
X43542857Y-55754819D01*
X43828571Y-55754819D02*
X43828571Y-54754819D01*
X43828571Y-54754819D02*
X43733333Y-54897676D01*
X43733333Y-54897676D02*
X43638095Y-54992914D01*
X43638095Y-54992914D02*
X43542857Y-55040533D01*
X61233333Y-48474819D02*
X60900000Y-47998628D01*
X60661905Y-48474819D02*
X60661905Y-47474819D01*
X60661905Y-47474819D02*
X61042857Y-47474819D01*
X61042857Y-47474819D02*
X61138095Y-47522438D01*
X61138095Y-47522438D02*
X61185714Y-47570057D01*
X61185714Y-47570057D02*
X61233333Y-47665295D01*
X61233333Y-47665295D02*
X61233333Y-47808152D01*
X61233333Y-47808152D02*
X61185714Y-47903390D01*
X61185714Y-47903390D02*
X61138095Y-47951009D01*
X61138095Y-47951009D02*
X61042857Y-47998628D01*
X61042857Y-47998628D02*
X60661905Y-47998628D01*
X62090476Y-47474819D02*
X61900000Y-47474819D01*
X61900000Y-47474819D02*
X61804762Y-47522438D01*
X61804762Y-47522438D02*
X61757143Y-47570057D01*
X61757143Y-47570057D02*
X61661905Y-47712914D01*
X61661905Y-47712914D02*
X61614286Y-47903390D01*
X61614286Y-47903390D02*
X61614286Y-48284342D01*
X61614286Y-48284342D02*
X61661905Y-48379580D01*
X61661905Y-48379580D02*
X61709524Y-48427200D01*
X61709524Y-48427200D02*
X61804762Y-48474819D01*
X61804762Y-48474819D02*
X61995238Y-48474819D01*
X61995238Y-48474819D02*
X62090476Y-48427200D01*
X62090476Y-48427200D02*
X62138095Y-48379580D01*
X62138095Y-48379580D02*
X62185714Y-48284342D01*
X62185714Y-48284342D02*
X62185714Y-48046247D01*
X62185714Y-48046247D02*
X62138095Y-47951009D01*
X62138095Y-47951009D02*
X62090476Y-47903390D01*
X62090476Y-47903390D02*
X61995238Y-47855771D01*
X61995238Y-47855771D02*
X61804762Y-47855771D01*
X61804762Y-47855771D02*
X61709524Y-47903390D01*
X61709524Y-47903390D02*
X61661905Y-47951009D01*
X61661905Y-47951009D02*
X61614286Y-48046247D01*
X52692261Y-27104819D02*
X52358928Y-26628628D01*
X52120833Y-27104819D02*
X52120833Y-26104819D01*
X52120833Y-26104819D02*
X52501785Y-26104819D01*
X52501785Y-26104819D02*
X52597023Y-26152438D01*
X52597023Y-26152438D02*
X52644642Y-26200057D01*
X52644642Y-26200057D02*
X52692261Y-26295295D01*
X52692261Y-26295295D02*
X52692261Y-26438152D01*
X52692261Y-26438152D02*
X52644642Y-26533390D01*
X52644642Y-26533390D02*
X52597023Y-26581009D01*
X52597023Y-26581009D02*
X52501785Y-26628628D01*
X52501785Y-26628628D02*
X52120833Y-26628628D01*
X53073214Y-26819104D02*
X53549404Y-26819104D01*
X52977976Y-27104819D02*
X53311309Y-26104819D01*
X53311309Y-26104819D02*
X53644642Y-27104819D01*
X54501785Y-27104819D02*
X53930357Y-27104819D01*
X54216071Y-27104819D02*
X54216071Y-26104819D01*
X54216071Y-26104819D02*
X54120833Y-26247676D01*
X54120833Y-26247676D02*
X54025595Y-26342914D01*
X54025595Y-26342914D02*
X53930357Y-26390533D01*
X93766666Y-30054819D02*
X93766666Y-30769104D01*
X93766666Y-30769104D02*
X93719047Y-30911961D01*
X93719047Y-30911961D02*
X93623809Y-31007200D01*
X93623809Y-31007200D02*
X93480952Y-31054819D01*
X93480952Y-31054819D02*
X93385714Y-31054819D01*
X94147619Y-30054819D02*
X94814285Y-30054819D01*
X94814285Y-30054819D02*
X94385714Y-31054819D01*
X53866666Y-30131009D02*
X53533333Y-30131009D01*
X53533333Y-30654819D02*
X53533333Y-29654819D01*
X53533333Y-29654819D02*
X54009523Y-29654819D01*
X54914285Y-30654819D02*
X54342857Y-30654819D01*
X54628571Y-30654819D02*
X54628571Y-29654819D01*
X54628571Y-29654819D02*
X54533333Y-29797676D01*
X54533333Y-29797676D02*
X54438095Y-29892914D01*
X54438095Y-29892914D02*
X54342857Y-29940533D01*
X87833333Y-42959580D02*
X87785714Y-43007200D01*
X87785714Y-43007200D02*
X87642857Y-43054819D01*
X87642857Y-43054819D02*
X87547619Y-43054819D01*
X87547619Y-43054819D02*
X87404762Y-43007200D01*
X87404762Y-43007200D02*
X87309524Y-42911961D01*
X87309524Y-42911961D02*
X87261905Y-42816723D01*
X87261905Y-42816723D02*
X87214286Y-42626247D01*
X87214286Y-42626247D02*
X87214286Y-42483390D01*
X87214286Y-42483390D02*
X87261905Y-42292914D01*
X87261905Y-42292914D02*
X87309524Y-42197676D01*
X87309524Y-42197676D02*
X87404762Y-42102438D01*
X87404762Y-42102438D02*
X87547619Y-42054819D01*
X87547619Y-42054819D02*
X87642857Y-42054819D01*
X87642857Y-42054819D02*
X87785714Y-42102438D01*
X87785714Y-42102438D02*
X87833333Y-42150057D01*
X88690476Y-42388152D02*
X88690476Y-43054819D01*
X88452381Y-42007200D02*
X88214286Y-42721485D01*
X88214286Y-42721485D02*
X88833333Y-42721485D01*
X66004761Y-47250057D02*
X65909523Y-47202438D01*
X65909523Y-47202438D02*
X65814285Y-47107200D01*
X65814285Y-47107200D02*
X65671428Y-46964342D01*
X65671428Y-46964342D02*
X65576190Y-46916723D01*
X65576190Y-46916723D02*
X65480952Y-46916723D01*
X65528571Y-47154819D02*
X65433333Y-47107200D01*
X65433333Y-47107200D02*
X65338095Y-47011961D01*
X65338095Y-47011961D02*
X65290476Y-46821485D01*
X65290476Y-46821485D02*
X65290476Y-46488152D01*
X65290476Y-46488152D02*
X65338095Y-46297676D01*
X65338095Y-46297676D02*
X65433333Y-46202438D01*
X65433333Y-46202438D02*
X65528571Y-46154819D01*
X65528571Y-46154819D02*
X65719047Y-46154819D01*
X65719047Y-46154819D02*
X65814285Y-46202438D01*
X65814285Y-46202438D02*
X65909523Y-46297676D01*
X65909523Y-46297676D02*
X65957142Y-46488152D01*
X65957142Y-46488152D02*
X65957142Y-46821485D01*
X65957142Y-46821485D02*
X65909523Y-47011961D01*
X65909523Y-47011961D02*
X65814285Y-47107200D01*
X65814285Y-47107200D02*
X65719047Y-47154819D01*
X65719047Y-47154819D02*
X65528571Y-47154819D01*
X66909523Y-47154819D02*
X66338095Y-47154819D01*
X66623809Y-47154819D02*
X66623809Y-46154819D01*
X66623809Y-46154819D02*
X66528571Y-46297676D01*
X66528571Y-46297676D02*
X66433333Y-46392914D01*
X66433333Y-46392914D02*
X66338095Y-46440533D01*
X116561905Y-36754819D02*
X117133333Y-36754819D01*
X116847619Y-37754819D02*
X116847619Y-36754819D01*
X117466667Y-37754819D02*
X117466667Y-36754819D01*
X117466667Y-36754819D02*
X117847619Y-36754819D01*
X117847619Y-36754819D02*
X117942857Y-36802438D01*
X117942857Y-36802438D02*
X117990476Y-36850057D01*
X117990476Y-36850057D02*
X118038095Y-36945295D01*
X118038095Y-36945295D02*
X118038095Y-37088152D01*
X118038095Y-37088152D02*
X117990476Y-37183390D01*
X117990476Y-37183390D02*
X117942857Y-37231009D01*
X117942857Y-37231009D02*
X117847619Y-37278628D01*
X117847619Y-37278628D02*
X117466667Y-37278628D01*
X118990476Y-37754819D02*
X118419048Y-37754819D01*
X118704762Y-37754819D02*
X118704762Y-36754819D01*
X118704762Y-36754819D02*
X118609524Y-36897676D01*
X118609524Y-36897676D02*
X118514286Y-36992914D01*
X118514286Y-36992914D02*
X118419048Y-37040533D01*
X119323810Y-36754819D02*
X119942857Y-36754819D01*
X119942857Y-36754819D02*
X119609524Y-37135771D01*
X119609524Y-37135771D02*
X119752381Y-37135771D01*
X119752381Y-37135771D02*
X119847619Y-37183390D01*
X119847619Y-37183390D02*
X119895238Y-37231009D01*
X119895238Y-37231009D02*
X119942857Y-37326247D01*
X119942857Y-37326247D02*
X119942857Y-37564342D01*
X119942857Y-37564342D02*
X119895238Y-37659580D01*
X119895238Y-37659580D02*
X119847619Y-37707200D01*
X119847619Y-37707200D02*
X119752381Y-37754819D01*
X119752381Y-37754819D02*
X119466667Y-37754819D01*
X119466667Y-37754819D02*
X119371429Y-37707200D01*
X119371429Y-37707200D02*
X119323810Y-37659580D01*
X117266666Y-39354819D02*
X116790476Y-39354819D01*
X116790476Y-39354819D02*
X116790476Y-38354819D01*
X117600000Y-39354819D02*
X117600000Y-38354819D01*
X118599999Y-38402438D02*
X118504761Y-38354819D01*
X118504761Y-38354819D02*
X118361904Y-38354819D01*
X118361904Y-38354819D02*
X118219047Y-38402438D01*
X118219047Y-38402438D02*
X118123809Y-38497676D01*
X118123809Y-38497676D02*
X118076190Y-38592914D01*
X118076190Y-38592914D02*
X118028571Y-38783390D01*
X118028571Y-38783390D02*
X118028571Y-38926247D01*
X118028571Y-38926247D02*
X118076190Y-39116723D01*
X118076190Y-39116723D02*
X118123809Y-39211961D01*
X118123809Y-39211961D02*
X118219047Y-39307200D01*
X118219047Y-39307200D02*
X118361904Y-39354819D01*
X118361904Y-39354819D02*
X118457142Y-39354819D01*
X118457142Y-39354819D02*
X118599999Y-39307200D01*
X118599999Y-39307200D02*
X118647618Y-39259580D01*
X118647618Y-39259580D02*
X118647618Y-38926247D01*
X118647618Y-38926247D02*
X118457142Y-38926247D01*
X119076190Y-39354819D02*
X119076190Y-38354819D01*
X119076190Y-38831009D02*
X119647618Y-38831009D01*
X119647618Y-39354819D02*
X119647618Y-38354819D01*
X119980952Y-38354819D02*
X120552380Y-38354819D01*
X120266666Y-39354819D02*
X120266666Y-38354819D01*
X57966666Y-44031009D02*
X57633333Y-44031009D01*
X57633333Y-44554819D02*
X57633333Y-43554819D01*
X57633333Y-43554819D02*
X58109523Y-43554819D01*
X58442857Y-43650057D02*
X58490476Y-43602438D01*
X58490476Y-43602438D02*
X58585714Y-43554819D01*
X58585714Y-43554819D02*
X58823809Y-43554819D01*
X58823809Y-43554819D02*
X58919047Y-43602438D01*
X58919047Y-43602438D02*
X58966666Y-43650057D01*
X58966666Y-43650057D02*
X59014285Y-43745295D01*
X59014285Y-43745295D02*
X59014285Y-43840533D01*
X59014285Y-43840533D02*
X58966666Y-43983390D01*
X58966666Y-43983390D02*
X58395238Y-44554819D01*
X58395238Y-44554819D02*
X59014285Y-44554819D01*
X58938095Y-35554819D02*
X58938095Y-36364342D01*
X58938095Y-36364342D02*
X58985714Y-36459580D01*
X58985714Y-36459580D02*
X59033333Y-36507200D01*
X59033333Y-36507200D02*
X59128571Y-36554819D01*
X59128571Y-36554819D02*
X59319047Y-36554819D01*
X59319047Y-36554819D02*
X59414285Y-36507200D01*
X59414285Y-36507200D02*
X59461904Y-36459580D01*
X59461904Y-36459580D02*
X59509523Y-36364342D01*
X59509523Y-36364342D02*
X59509523Y-35554819D01*
X60033333Y-36554819D02*
X60223809Y-36554819D01*
X60223809Y-36554819D02*
X60319047Y-36507200D01*
X60319047Y-36507200D02*
X60366666Y-36459580D01*
X60366666Y-36459580D02*
X60461904Y-36316723D01*
X60461904Y-36316723D02*
X60509523Y-36126247D01*
X60509523Y-36126247D02*
X60509523Y-35745295D01*
X60509523Y-35745295D02*
X60461904Y-35650057D01*
X60461904Y-35650057D02*
X60414285Y-35602438D01*
X60414285Y-35602438D02*
X60319047Y-35554819D01*
X60319047Y-35554819D02*
X60128571Y-35554819D01*
X60128571Y-35554819D02*
X60033333Y-35602438D01*
X60033333Y-35602438D02*
X59985714Y-35650057D01*
X59985714Y-35650057D02*
X59938095Y-35745295D01*
X59938095Y-35745295D02*
X59938095Y-35983390D01*
X59938095Y-35983390D02*
X59985714Y-36078628D01*
X59985714Y-36078628D02*
X60033333Y-36126247D01*
X60033333Y-36126247D02*
X60128571Y-36173866D01*
X60128571Y-36173866D02*
X60319047Y-36173866D01*
X60319047Y-36173866D02*
X60414285Y-36126247D01*
X60414285Y-36126247D02*
X60461904Y-36078628D01*
X60461904Y-36078628D02*
X60509523Y-35983390D01*
X100966666Y-34054819D02*
X100966666Y-34769104D01*
X100966666Y-34769104D02*
X100919047Y-34911961D01*
X100919047Y-34911961D02*
X100823809Y-35007200D01*
X100823809Y-35007200D02*
X100680952Y-35054819D01*
X100680952Y-35054819D02*
X100585714Y-35054819D01*
X101919047Y-34054819D02*
X101442857Y-34054819D01*
X101442857Y-34054819D02*
X101395238Y-34531009D01*
X101395238Y-34531009D02*
X101442857Y-34483390D01*
X101442857Y-34483390D02*
X101538095Y-34435771D01*
X101538095Y-34435771D02*
X101776190Y-34435771D01*
X101776190Y-34435771D02*
X101871428Y-34483390D01*
X101871428Y-34483390D02*
X101919047Y-34531009D01*
X101919047Y-34531009D02*
X101966666Y-34626247D01*
X101966666Y-34626247D02*
X101966666Y-34864342D01*
X101966666Y-34864342D02*
X101919047Y-34959580D01*
X101919047Y-34959580D02*
X101871428Y-35007200D01*
X101871428Y-35007200D02*
X101776190Y-35054819D01*
X101776190Y-35054819D02*
X101538095Y-35054819D01*
X101538095Y-35054819D02*
X101442857Y-35007200D01*
X101442857Y-35007200D02*
X101395238Y-34959580D01*
X60333333Y-49754819D02*
X60000000Y-49278628D01*
X59761905Y-49754819D02*
X59761905Y-48754819D01*
X59761905Y-48754819D02*
X60142857Y-48754819D01*
X60142857Y-48754819D02*
X60238095Y-48802438D01*
X60238095Y-48802438D02*
X60285714Y-48850057D01*
X60285714Y-48850057D02*
X60333333Y-48945295D01*
X60333333Y-48945295D02*
X60333333Y-49088152D01*
X60333333Y-49088152D02*
X60285714Y-49183390D01*
X60285714Y-49183390D02*
X60238095Y-49231009D01*
X60238095Y-49231009D02*
X60142857Y-49278628D01*
X60142857Y-49278628D02*
X59761905Y-49278628D01*
X61095238Y-49231009D02*
X61238095Y-49278628D01*
X61238095Y-49278628D02*
X61285714Y-49326247D01*
X61285714Y-49326247D02*
X61333333Y-49421485D01*
X61333333Y-49421485D02*
X61333333Y-49564342D01*
X61333333Y-49564342D02*
X61285714Y-49659580D01*
X61285714Y-49659580D02*
X61238095Y-49707200D01*
X61238095Y-49707200D02*
X61142857Y-49754819D01*
X61142857Y-49754819D02*
X60761905Y-49754819D01*
X60761905Y-49754819D02*
X60761905Y-48754819D01*
X60761905Y-48754819D02*
X61095238Y-48754819D01*
X61095238Y-48754819D02*
X61190476Y-48802438D01*
X61190476Y-48802438D02*
X61238095Y-48850057D01*
X61238095Y-48850057D02*
X61285714Y-48945295D01*
X61285714Y-48945295D02*
X61285714Y-49040533D01*
X61285714Y-49040533D02*
X61238095Y-49135771D01*
X61238095Y-49135771D02*
X61190476Y-49183390D01*
X61190476Y-49183390D02*
X61095238Y-49231009D01*
X61095238Y-49231009D02*
X60761905Y-49231009D01*
X62285714Y-49754819D02*
X61714286Y-49754819D01*
X62000000Y-49754819D02*
X62000000Y-48754819D01*
X62000000Y-48754819D02*
X61904762Y-48897676D01*
X61904762Y-48897676D02*
X61809524Y-48992914D01*
X61809524Y-48992914D02*
X61714286Y-49040533D01*
X48738095Y-26206819D02*
X49309523Y-26206819D01*
X49023809Y-27206819D02*
X49023809Y-26206819D01*
X49642857Y-27206819D02*
X49642857Y-26206819D01*
X49642857Y-26206819D02*
X50023809Y-26206819D01*
X50023809Y-26206819D02*
X50119047Y-26254438D01*
X50119047Y-26254438D02*
X50166666Y-26302057D01*
X50166666Y-26302057D02*
X50214285Y-26397295D01*
X50214285Y-26397295D02*
X50214285Y-26540152D01*
X50214285Y-26540152D02*
X50166666Y-26635390D01*
X50166666Y-26635390D02*
X50119047Y-26683009D01*
X50119047Y-26683009D02*
X50023809Y-26730628D01*
X50023809Y-26730628D02*
X49642857Y-26730628D01*
X51119047Y-26206819D02*
X50642857Y-26206819D01*
X50642857Y-26206819D02*
X50595238Y-26683009D01*
X50595238Y-26683009D02*
X50642857Y-26635390D01*
X50642857Y-26635390D02*
X50738095Y-26587771D01*
X50738095Y-26587771D02*
X50976190Y-26587771D01*
X50976190Y-26587771D02*
X51071428Y-26635390D01*
X51071428Y-26635390D02*
X51119047Y-26683009D01*
X51119047Y-26683009D02*
X51166666Y-26778247D01*
X51166666Y-26778247D02*
X51166666Y-27016342D01*
X51166666Y-27016342D02*
X51119047Y-27111580D01*
X51119047Y-27111580D02*
X51071428Y-27159200D01*
X51071428Y-27159200D02*
X50976190Y-27206819D01*
X50976190Y-27206819D02*
X50738095Y-27206819D01*
X50738095Y-27206819D02*
X50642857Y-27159200D01*
X50642857Y-27159200D02*
X50595238Y-27111580D01*
X48190476Y-30604819D02*
X48190476Y-29604819D01*
X48190476Y-29604819D02*
X48571428Y-29604819D01*
X48571428Y-29604819D02*
X48666666Y-29652438D01*
X48666666Y-29652438D02*
X48714285Y-29700057D01*
X48714285Y-29700057D02*
X48761904Y-29795295D01*
X48761904Y-29795295D02*
X48761904Y-29938152D01*
X48761904Y-29938152D02*
X48714285Y-30033390D01*
X48714285Y-30033390D02*
X48666666Y-30081009D01*
X48666666Y-30081009D02*
X48571428Y-30128628D01*
X48571428Y-30128628D02*
X48190476Y-30128628D01*
X48952381Y-30700057D02*
X49714285Y-30700057D01*
X49952381Y-30604819D02*
X49952381Y-29604819D01*
X49952381Y-29604819D02*
X50190476Y-29604819D01*
X50190476Y-29604819D02*
X50333333Y-29652438D01*
X50333333Y-29652438D02*
X50428571Y-29747676D01*
X50428571Y-29747676D02*
X50476190Y-29842914D01*
X50476190Y-29842914D02*
X50523809Y-30033390D01*
X50523809Y-30033390D02*
X50523809Y-30176247D01*
X50523809Y-30176247D02*
X50476190Y-30366723D01*
X50476190Y-30366723D02*
X50428571Y-30461961D01*
X50428571Y-30461961D02*
X50333333Y-30557200D01*
X50333333Y-30557200D02*
X50190476Y-30604819D01*
X50190476Y-30604819D02*
X49952381Y-30604819D01*
X50952381Y-30604819D02*
X50952381Y-29604819D01*
X51285714Y-29604819D02*
X51619047Y-30604819D01*
X51619047Y-30604819D02*
X51952380Y-29604819D01*
X80390476Y-26354819D02*
X80390476Y-27069104D01*
X80390476Y-27069104D02*
X80342857Y-27211961D01*
X80342857Y-27211961D02*
X80247619Y-27307200D01*
X80247619Y-27307200D02*
X80104762Y-27354819D01*
X80104762Y-27354819D02*
X80009524Y-27354819D01*
X81390476Y-27354819D02*
X80819048Y-27354819D01*
X81104762Y-27354819D02*
X81104762Y-26354819D01*
X81104762Y-26354819D02*
X81009524Y-26497676D01*
X81009524Y-26497676D02*
X80914286Y-26592914D01*
X80914286Y-26592914D02*
X80819048Y-26640533D01*
X81723810Y-26354819D02*
X82342857Y-26354819D01*
X82342857Y-26354819D02*
X82009524Y-26735771D01*
X82009524Y-26735771D02*
X82152381Y-26735771D01*
X82152381Y-26735771D02*
X82247619Y-26783390D01*
X82247619Y-26783390D02*
X82295238Y-26831009D01*
X82295238Y-26831009D02*
X82342857Y-26926247D01*
X82342857Y-26926247D02*
X82342857Y-27164342D01*
X82342857Y-27164342D02*
X82295238Y-27259580D01*
X82295238Y-27259580D02*
X82247619Y-27307200D01*
X82247619Y-27307200D02*
X82152381Y-27354819D01*
X82152381Y-27354819D02*
X81866667Y-27354819D01*
X81866667Y-27354819D02*
X81771429Y-27307200D01*
X81771429Y-27307200D02*
X81723810Y-27259580D01*
X92738095Y-51154819D02*
X92738095Y-51964342D01*
X92738095Y-51964342D02*
X92785714Y-52059580D01*
X92785714Y-52059580D02*
X92833333Y-52107200D01*
X92833333Y-52107200D02*
X92928571Y-52154819D01*
X92928571Y-52154819D02*
X93119047Y-52154819D01*
X93119047Y-52154819D02*
X93214285Y-52107200D01*
X93214285Y-52107200D02*
X93261904Y-52059580D01*
X93261904Y-52059580D02*
X93309523Y-51964342D01*
X93309523Y-51964342D02*
X93309523Y-51154819D01*
X94214285Y-51488152D02*
X94214285Y-52154819D01*
X93976190Y-51107200D02*
X93738095Y-51821485D01*
X93738095Y-51821485D02*
X94357142Y-51821485D01*
X62790476Y-19454819D02*
X62790476Y-20169104D01*
X62790476Y-20169104D02*
X62742857Y-20311961D01*
X62742857Y-20311961D02*
X62647619Y-20407200D01*
X62647619Y-20407200D02*
X62504762Y-20454819D01*
X62504762Y-20454819D02*
X62409524Y-20454819D01*
X63790476Y-20454819D02*
X63219048Y-20454819D01*
X63504762Y-20454819D02*
X63504762Y-19454819D01*
X63504762Y-19454819D02*
X63409524Y-19597676D01*
X63409524Y-19597676D02*
X63314286Y-19692914D01*
X63314286Y-19692914D02*
X63219048Y-19740533D01*
X64742857Y-20454819D02*
X64171429Y-20454819D01*
X64457143Y-20454819D02*
X64457143Y-19454819D01*
X64457143Y-19454819D02*
X64361905Y-19597676D01*
X64361905Y-19597676D02*
X64266667Y-19692914D01*
X64266667Y-19692914D02*
X64171429Y-19740533D01*
X56161905Y-25754819D02*
X56161905Y-24754819D01*
X56161905Y-24754819D02*
X56400000Y-24754819D01*
X56400000Y-24754819D02*
X56542857Y-24802438D01*
X56542857Y-24802438D02*
X56638095Y-24897676D01*
X56638095Y-24897676D02*
X56685714Y-24992914D01*
X56685714Y-24992914D02*
X56733333Y-25183390D01*
X56733333Y-25183390D02*
X56733333Y-25326247D01*
X56733333Y-25326247D02*
X56685714Y-25516723D01*
X56685714Y-25516723D02*
X56638095Y-25611961D01*
X56638095Y-25611961D02*
X56542857Y-25707200D01*
X56542857Y-25707200D02*
X56400000Y-25754819D01*
X56400000Y-25754819D02*
X56161905Y-25754819D01*
X57114286Y-24850057D02*
X57161905Y-24802438D01*
X57161905Y-24802438D02*
X57257143Y-24754819D01*
X57257143Y-24754819D02*
X57495238Y-24754819D01*
X57495238Y-24754819D02*
X57590476Y-24802438D01*
X57590476Y-24802438D02*
X57638095Y-24850057D01*
X57638095Y-24850057D02*
X57685714Y-24945295D01*
X57685714Y-24945295D02*
X57685714Y-25040533D01*
X57685714Y-25040533D02*
X57638095Y-25183390D01*
X57638095Y-25183390D02*
X57066667Y-25754819D01*
X57066667Y-25754819D02*
X57685714Y-25754819D01*
X75361905Y-35854819D02*
X75361905Y-34854819D01*
X75361905Y-34854819D02*
X75600000Y-34854819D01*
X75600000Y-34854819D02*
X75742857Y-34902438D01*
X75742857Y-34902438D02*
X75838095Y-34997676D01*
X75838095Y-34997676D02*
X75885714Y-35092914D01*
X75885714Y-35092914D02*
X75933333Y-35283390D01*
X75933333Y-35283390D02*
X75933333Y-35426247D01*
X75933333Y-35426247D02*
X75885714Y-35616723D01*
X75885714Y-35616723D02*
X75838095Y-35711961D01*
X75838095Y-35711961D02*
X75742857Y-35807200D01*
X75742857Y-35807200D02*
X75600000Y-35854819D01*
X75600000Y-35854819D02*
X75361905Y-35854819D01*
X76885714Y-35854819D02*
X76314286Y-35854819D01*
X76600000Y-35854819D02*
X76600000Y-34854819D01*
X76600000Y-34854819D02*
X76504762Y-34997676D01*
X76504762Y-34997676D02*
X76409524Y-35092914D01*
X76409524Y-35092914D02*
X76314286Y-35140533D01*
X62004761Y-53850057D02*
X61909523Y-53802438D01*
X61909523Y-53802438D02*
X61814285Y-53707200D01*
X61814285Y-53707200D02*
X61671428Y-53564342D01*
X61671428Y-53564342D02*
X61576190Y-53516723D01*
X61576190Y-53516723D02*
X61480952Y-53516723D01*
X61528571Y-53754819D02*
X61433333Y-53707200D01*
X61433333Y-53707200D02*
X61338095Y-53611961D01*
X61338095Y-53611961D02*
X61290476Y-53421485D01*
X61290476Y-53421485D02*
X61290476Y-53088152D01*
X61290476Y-53088152D02*
X61338095Y-52897676D01*
X61338095Y-52897676D02*
X61433333Y-52802438D01*
X61433333Y-52802438D02*
X61528571Y-52754819D01*
X61528571Y-52754819D02*
X61719047Y-52754819D01*
X61719047Y-52754819D02*
X61814285Y-52802438D01*
X61814285Y-52802438D02*
X61909523Y-52897676D01*
X61909523Y-52897676D02*
X61957142Y-53088152D01*
X61957142Y-53088152D02*
X61957142Y-53421485D01*
X61957142Y-53421485D02*
X61909523Y-53611961D01*
X61909523Y-53611961D02*
X61814285Y-53707200D01*
X61814285Y-53707200D02*
X61719047Y-53754819D01*
X61719047Y-53754819D02*
X61528571Y-53754819D01*
X62433333Y-53754819D02*
X62623809Y-53754819D01*
X62623809Y-53754819D02*
X62719047Y-53707200D01*
X62719047Y-53707200D02*
X62766666Y-53659580D01*
X62766666Y-53659580D02*
X62861904Y-53516723D01*
X62861904Y-53516723D02*
X62909523Y-53326247D01*
X62909523Y-53326247D02*
X62909523Y-52945295D01*
X62909523Y-52945295D02*
X62861904Y-52850057D01*
X62861904Y-52850057D02*
X62814285Y-52802438D01*
X62814285Y-52802438D02*
X62719047Y-52754819D01*
X62719047Y-52754819D02*
X62528571Y-52754819D01*
X62528571Y-52754819D02*
X62433333Y-52802438D01*
X62433333Y-52802438D02*
X62385714Y-52850057D01*
X62385714Y-52850057D02*
X62338095Y-52945295D01*
X62338095Y-52945295D02*
X62338095Y-53183390D01*
X62338095Y-53183390D02*
X62385714Y-53278628D01*
X62385714Y-53278628D02*
X62433333Y-53326247D01*
X62433333Y-53326247D02*
X62528571Y-53373866D01*
X62528571Y-53373866D02*
X62719047Y-53373866D01*
X62719047Y-53373866D02*
X62814285Y-53326247D01*
X62814285Y-53326247D02*
X62861904Y-53278628D01*
X62861904Y-53278628D02*
X62909523Y-53183390D01*
X61533333Y-35374819D02*
X61200000Y-34898628D01*
X60961905Y-35374819D02*
X60961905Y-34374819D01*
X60961905Y-34374819D02*
X61342857Y-34374819D01*
X61342857Y-34374819D02*
X61438095Y-34422438D01*
X61438095Y-34422438D02*
X61485714Y-34470057D01*
X61485714Y-34470057D02*
X61533333Y-34565295D01*
X61533333Y-34565295D02*
X61533333Y-34708152D01*
X61533333Y-34708152D02*
X61485714Y-34803390D01*
X61485714Y-34803390D02*
X61438095Y-34851009D01*
X61438095Y-34851009D02*
X61342857Y-34898628D01*
X61342857Y-34898628D02*
X60961905Y-34898628D01*
X62438095Y-34374819D02*
X61961905Y-34374819D01*
X61961905Y-34374819D02*
X61914286Y-34851009D01*
X61914286Y-34851009D02*
X61961905Y-34803390D01*
X61961905Y-34803390D02*
X62057143Y-34755771D01*
X62057143Y-34755771D02*
X62295238Y-34755771D01*
X62295238Y-34755771D02*
X62390476Y-34803390D01*
X62390476Y-34803390D02*
X62438095Y-34851009D01*
X62438095Y-34851009D02*
X62485714Y-34946247D01*
X62485714Y-34946247D02*
X62485714Y-35184342D01*
X62485714Y-35184342D02*
X62438095Y-35279580D01*
X62438095Y-35279580D02*
X62390476Y-35327200D01*
X62390476Y-35327200D02*
X62295238Y-35374819D01*
X62295238Y-35374819D02*
X62057143Y-35374819D01*
X62057143Y-35374819D02*
X61961905Y-35327200D01*
X61961905Y-35327200D02*
X61914286Y-35279580D01*
X80438095Y-40054819D02*
X81009523Y-40054819D01*
X80723809Y-41054819D02*
X80723809Y-40054819D01*
X81342857Y-41054819D02*
X81342857Y-40054819D01*
X81342857Y-40054819D02*
X81723809Y-40054819D01*
X81723809Y-40054819D02*
X81819047Y-40102438D01*
X81819047Y-40102438D02*
X81866666Y-40150057D01*
X81866666Y-40150057D02*
X81914285Y-40245295D01*
X81914285Y-40245295D02*
X81914285Y-40388152D01*
X81914285Y-40388152D02*
X81866666Y-40483390D01*
X81866666Y-40483390D02*
X81819047Y-40531009D01*
X81819047Y-40531009D02*
X81723809Y-40578628D01*
X81723809Y-40578628D02*
X81342857Y-40578628D01*
X82247619Y-40054819D02*
X82866666Y-40054819D01*
X82866666Y-40054819D02*
X82533333Y-40435771D01*
X82533333Y-40435771D02*
X82676190Y-40435771D01*
X82676190Y-40435771D02*
X82771428Y-40483390D01*
X82771428Y-40483390D02*
X82819047Y-40531009D01*
X82819047Y-40531009D02*
X82866666Y-40626247D01*
X82866666Y-40626247D02*
X82866666Y-40864342D01*
X82866666Y-40864342D02*
X82819047Y-40959580D01*
X82819047Y-40959580D02*
X82771428Y-41007200D01*
X82771428Y-41007200D02*
X82676190Y-41054819D01*
X82676190Y-41054819D02*
X82390476Y-41054819D01*
X82390476Y-41054819D02*
X82295238Y-41007200D01*
X82295238Y-41007200D02*
X82247619Y-40959580D01*
X80590476Y-42754819D02*
X80590476Y-41754819D01*
X80590476Y-41754819D02*
X80923809Y-42469104D01*
X80923809Y-42469104D02*
X81257142Y-41754819D01*
X81257142Y-41754819D02*
X81257142Y-42754819D01*
X82257142Y-42754819D02*
X81685714Y-42754819D01*
X81971428Y-42754819D02*
X81971428Y-41754819D01*
X81971428Y-41754819D02*
X81876190Y-41897676D01*
X81876190Y-41897676D02*
X81780952Y-41992914D01*
X81780952Y-41992914D02*
X81685714Y-42040533D01*
X113054819Y-23795238D02*
X112578628Y-24128571D01*
X113054819Y-24366666D02*
X112054819Y-24366666D01*
X112054819Y-24366666D02*
X112054819Y-23985714D01*
X112054819Y-23985714D02*
X112102438Y-23890476D01*
X112102438Y-23890476D02*
X112150057Y-23842857D01*
X112150057Y-23842857D02*
X112245295Y-23795238D01*
X112245295Y-23795238D02*
X112388152Y-23795238D01*
X112388152Y-23795238D02*
X112483390Y-23842857D01*
X112483390Y-23842857D02*
X112531009Y-23890476D01*
X112531009Y-23890476D02*
X112578628Y-23985714D01*
X112578628Y-23985714D02*
X112578628Y-24366666D01*
X112054819Y-23509523D02*
X113054819Y-23176190D01*
X113054819Y-23176190D02*
X112054819Y-22842857D01*
X113054819Y-21985714D02*
X113054819Y-22557142D01*
X113054819Y-22271428D02*
X112054819Y-22271428D01*
X112054819Y-22271428D02*
X112197676Y-22366666D01*
X112197676Y-22366666D02*
X112292914Y-22461904D01*
X112292914Y-22461904D02*
X112340533Y-22557142D01*
X55804761Y-22354819D02*
X55471428Y-21878628D01*
X55233333Y-22354819D02*
X55233333Y-21354819D01*
X55233333Y-21354819D02*
X55614285Y-21354819D01*
X55614285Y-21354819D02*
X55709523Y-21402438D01*
X55709523Y-21402438D02*
X55757142Y-21450057D01*
X55757142Y-21450057D02*
X55804761Y-21545295D01*
X55804761Y-21545295D02*
X55804761Y-21688152D01*
X55804761Y-21688152D02*
X55757142Y-21783390D01*
X55757142Y-21783390D02*
X55709523Y-21831009D01*
X55709523Y-21831009D02*
X55614285Y-21878628D01*
X55614285Y-21878628D02*
X55233333Y-21878628D01*
X56185714Y-22069104D02*
X56661904Y-22069104D01*
X56090476Y-22354819D02*
X56423809Y-21354819D01*
X56423809Y-21354819D02*
X56757142Y-22354819D01*
X57042857Y-21450057D02*
X57090476Y-21402438D01*
X57090476Y-21402438D02*
X57185714Y-21354819D01*
X57185714Y-21354819D02*
X57423809Y-21354819D01*
X57423809Y-21354819D02*
X57519047Y-21402438D01*
X57519047Y-21402438D02*
X57566666Y-21450057D01*
X57566666Y-21450057D02*
X57614285Y-21545295D01*
X57614285Y-21545295D02*
X57614285Y-21640533D01*
X57614285Y-21640533D02*
X57566666Y-21783390D01*
X57566666Y-21783390D02*
X56995238Y-22354819D01*
X56995238Y-22354819D02*
X57614285Y-22354819D01*
X52504761Y-21450057D02*
X52409523Y-21402438D01*
X52409523Y-21402438D02*
X52314285Y-21307200D01*
X52314285Y-21307200D02*
X52171428Y-21164342D01*
X52171428Y-21164342D02*
X52076190Y-21116723D01*
X52076190Y-21116723D02*
X51980952Y-21116723D01*
X52028571Y-21354819D02*
X51933333Y-21307200D01*
X51933333Y-21307200D02*
X51838095Y-21211961D01*
X51838095Y-21211961D02*
X51790476Y-21021485D01*
X51790476Y-21021485D02*
X51790476Y-20688152D01*
X51790476Y-20688152D02*
X51838095Y-20497676D01*
X51838095Y-20497676D02*
X51933333Y-20402438D01*
X51933333Y-20402438D02*
X52028571Y-20354819D01*
X52028571Y-20354819D02*
X52219047Y-20354819D01*
X52219047Y-20354819D02*
X52314285Y-20402438D01*
X52314285Y-20402438D02*
X52409523Y-20497676D01*
X52409523Y-20497676D02*
X52457142Y-20688152D01*
X52457142Y-20688152D02*
X52457142Y-21021485D01*
X52457142Y-21021485D02*
X52409523Y-21211961D01*
X52409523Y-21211961D02*
X52314285Y-21307200D01*
X52314285Y-21307200D02*
X52219047Y-21354819D01*
X52219047Y-21354819D02*
X52028571Y-21354819D01*
X52790476Y-20354819D02*
X53457142Y-20354819D01*
X53457142Y-20354819D02*
X53028571Y-21354819D01*
D11*
%TO.C,RB3*%
X51835000Y-52472936D02*
X51835000Y-52927064D01*
X50365000Y-52472936D02*
X50365000Y-52927064D01*
%TO.C,RA3*%
X49027064Y-23135000D02*
X48572936Y-23135000D01*
X49027064Y-21665000D02*
X48572936Y-21665000D01*
%TO.C,Q6*%
X69700000Y-43740000D02*
X69050000Y-43740000D01*
X69700000Y-43740000D02*
X70350000Y-43740000D01*
X69700000Y-46860000D02*
X69050000Y-46860000D01*
X69700000Y-46860000D02*
X70350000Y-46860000D01*
X68537500Y-43790000D02*
X68297500Y-43460000D01*
X68777500Y-43460000D01*
X68537500Y-43790000D01*
G36*
X68537500Y-43790000D02*
G01*
X68297500Y-43460000D01*
X68777500Y-43460000D01*
X68537500Y-43790000D01*
G37*
%TO.C,TP14*%
X87550000Y-19650000D02*
X89450000Y-19650000D01*
X87550000Y-21550000D02*
X87550000Y-19650000D01*
X89450000Y-19650000D02*
X89450000Y-21550000D01*
X89450000Y-21550000D02*
X87550000Y-21550000D01*
%TO.C,TP8*%
X69650000Y-53450000D02*
X71550000Y-53450000D01*
X69650000Y-55350000D02*
X69650000Y-53450000D01*
X71550000Y-53450000D02*
X71550000Y-55350000D01*
X71550000Y-55350000D02*
X69650000Y-55350000D01*
%TO.C,TP12*%
X83750000Y-27450000D02*
X85650000Y-27450000D01*
X83750000Y-29350000D02*
X83750000Y-27450000D01*
X85650000Y-27450000D02*
X85650000Y-29350000D01*
X85650000Y-29350000D02*
X83750000Y-29350000D01*
%TO.C,TP4*%
X78150000Y-44950000D02*
X80050000Y-44950000D01*
X78150000Y-46850000D02*
X78150000Y-44950000D01*
X80050000Y-44950000D02*
X80050000Y-46850000D01*
X80050000Y-46850000D02*
X78150000Y-46850000D01*
%TO.C,TP9*%
X61150000Y-25850000D02*
X63050000Y-25850000D01*
X61150000Y-27750000D02*
X61150000Y-25850000D01*
X63050000Y-25850000D02*
X63050000Y-27750000D01*
X63050000Y-27750000D02*
X61150000Y-27750000D01*
%TO.C,Q4*%
X73155097Y-27166082D02*
X72505097Y-27166082D01*
X73155097Y-27166082D02*
X73805097Y-27166082D01*
X73155097Y-30286082D02*
X72505097Y-30286082D01*
X73155097Y-30286082D02*
X73805097Y-30286082D01*
X71992597Y-27216082D02*
X71752597Y-26886082D01*
X72232597Y-26886082D01*
X71992597Y-27216082D01*
G36*
X71992597Y-27216082D02*
G01*
X71752597Y-26886082D01*
X72232597Y-26886082D01*
X71992597Y-27216082D01*
G37*
%TO.C,TP11*%
X96150000Y-38750000D02*
X98050000Y-38750000D01*
X96150000Y-40650000D02*
X96150000Y-38750000D01*
X98050000Y-38750000D02*
X98050000Y-40650000D01*
X98050000Y-40650000D02*
X96150000Y-40650000D01*
%TO.C,C5*%
X87790000Y-37159420D02*
X87790000Y-37440580D01*
X88810000Y-37159420D02*
X88810000Y-37440580D01*
%TO.C,TP7*%
X50750000Y-38150000D02*
X52650000Y-38150000D01*
X50750000Y-40050000D02*
X50750000Y-38150000D01*
X52650000Y-38150000D02*
X52650000Y-40050000D01*
X52650000Y-40050000D02*
X50750000Y-40050000D01*
%TO.C,Q5*%
X66140000Y-34000000D02*
X66140000Y-33350000D01*
X66140000Y-34000000D02*
X66140000Y-34650000D01*
X69260000Y-34000000D02*
X69260000Y-33350000D01*
X69260000Y-34000000D02*
X69260000Y-34650000D01*
X69540000Y-33077500D02*
X69210000Y-32837500D01*
X69540000Y-32597500D01*
X69540000Y-33077500D01*
G36*
X69540000Y-33077500D02*
G01*
X69210000Y-32837500D01*
X69540000Y-32597500D01*
X69540000Y-33077500D01*
G37*
%TO.C,R3*%
X70465000Y-49427064D02*
X70465000Y-48972936D01*
X71935000Y-49427064D02*
X71935000Y-48972936D01*
%TO.C,RA4*%
X46965000Y-24972936D02*
X46965000Y-25427064D01*
X48435000Y-24972936D02*
X48435000Y-25427064D01*
%TO.C,R9*%
X93127064Y-46865000D02*
X92672936Y-46865000D01*
X93127064Y-48335000D02*
X92672936Y-48335000D01*
%TO.C,J4*%
X38815000Y-39390000D02*
X38815000Y-47010000D01*
X38815000Y-47010000D02*
X44785000Y-47010000D01*
X39575000Y-40150000D02*
X39575000Y-43200000D01*
X39575000Y-46250000D02*
X39575000Y-43200000D01*
X42525000Y-39400000D02*
X42525000Y-40150000D01*
X42525000Y-40150000D02*
X39575000Y-40150000D01*
X42525000Y-46250000D02*
X39575000Y-46250000D01*
X42525000Y-47000000D02*
X42525000Y-46250000D01*
X44025000Y-39400000D02*
X44025000Y-41200000D01*
X44025000Y-41200000D02*
X44775000Y-41200000D01*
X44025000Y-42700000D02*
X44025000Y-43700000D01*
X44025000Y-43700000D02*
X44775000Y-43700000D01*
X44025000Y-45200000D02*
X44025000Y-47000000D01*
X44025000Y-47000000D02*
X44775000Y-47000000D01*
X44775000Y-39400000D02*
X44025000Y-39400000D01*
X44775000Y-41200000D02*
X44775000Y-39400000D01*
X44775000Y-42700000D02*
X44025000Y-42700000D01*
X44775000Y-43700000D02*
X44775000Y-42700000D01*
X44775000Y-45200000D02*
X44025000Y-45200000D01*
X44775000Y-47000000D02*
X44775000Y-45200000D01*
X44785000Y-39390000D02*
X38815000Y-39390000D01*
X44785000Y-47010000D02*
X44785000Y-39390000D01*
X45075000Y-39100000D02*
X43825000Y-39100000D01*
X45075000Y-40350000D02*
X45075000Y-39100000D01*
%TO.C,Q3*%
X67440000Y-28537500D02*
X67440000Y-27887500D01*
X67440000Y-28537500D02*
X67440000Y-29187500D01*
X70560000Y-28537500D02*
X70560000Y-27887500D01*
X70560000Y-28537500D02*
X70560000Y-29187500D01*
X70840000Y-27615000D02*
X70510000Y-27375000D01*
X70840000Y-27135000D01*
X70840000Y-27615000D01*
G36*
X70840000Y-27615000D02*
G01*
X70510000Y-27375000D01*
X70840000Y-27135000D01*
X70840000Y-27615000D01*
G37*
%TO.C,C12*%
X48140580Y-38990000D02*
X47859420Y-38990000D01*
X48140580Y-40010000D02*
X47859420Y-40010000D01*
%TO.C,TP16*%
X110150000Y-44650000D02*
X112050000Y-44650000D01*
X110150000Y-46550000D02*
X110150000Y-44650000D01*
X112050000Y-44650000D02*
X112050000Y-46550000D01*
X112050000Y-46550000D02*
X110150000Y-46550000D01*
%TO.C,TP6*%
X49350000Y-50050000D02*
X47450000Y-50050000D01*
X49350000Y-48150000D02*
X49350000Y-50050000D01*
X47450000Y-50050000D02*
X47450000Y-48150000D01*
X47450000Y-48150000D02*
X49350000Y-48150000D01*
%TO.C,TP10*%
X56550000Y-53450000D02*
X58450000Y-53450000D01*
X56550000Y-55350000D02*
X56550000Y-53450000D01*
X58450000Y-53450000D02*
X58450000Y-55350000D01*
X58450000Y-55350000D02*
X56550000Y-55350000D01*
%TO.C,TP2*%
X84750000Y-43750000D02*
X86650000Y-43750000D01*
X84750000Y-45650000D02*
X84750000Y-43750000D01*
X86650000Y-43750000D02*
X86650000Y-45650000D01*
X86650000Y-45650000D02*
X84750000Y-45650000D01*
%TO.C,TP17*%
X76950000Y-27550000D02*
X78850000Y-27550000D01*
X76950000Y-29450000D02*
X76950000Y-27550000D01*
X78850000Y-27550000D02*
X78850000Y-29450000D01*
X78850000Y-29450000D02*
X76950000Y-29450000D01*
%TO.C,R15*%
X62014564Y-42065000D02*
X61560436Y-42065000D01*
X62014564Y-43535000D02*
X61560436Y-43535000D01*
%TO.C,R4*%
X65315000Y-28472936D02*
X65315000Y-28927064D01*
X66785000Y-28472936D02*
X66785000Y-28927064D01*
%TO.C,D3*%
X54200000Y-47540000D02*
X53550000Y-47540000D01*
X54200000Y-47540000D02*
X54850000Y-47540000D01*
X54200000Y-50660000D02*
X53550000Y-50660000D01*
X54200000Y-50660000D02*
X54850000Y-50660000D01*
X53037500Y-47590000D02*
X52797500Y-47260000D01*
X53277500Y-47260000D01*
X53037500Y-47590000D01*
G36*
X53037500Y-47590000D02*
G01*
X52797500Y-47260000D01*
X53277500Y-47260000D01*
X53037500Y-47590000D01*
G37*
%TO.C,X1*%
X89450000Y-31800000D02*
X89450000Y-44400000D01*
X94550000Y-31800000D02*
X89450000Y-31800000D01*
X94550000Y-44400000D02*
X94550000Y-31800000D01*
%TO.C,J6*%
X104990000Y-47640000D02*
X104990000Y-55260000D01*
X104990000Y-55260000D02*
X110960000Y-55260000D01*
X105750000Y-48400000D02*
X105750000Y-51450000D01*
X105750000Y-54500000D02*
X105750000Y-51450000D01*
X108700000Y-47650000D02*
X108700000Y-48400000D01*
X108700000Y-48400000D02*
X105750000Y-48400000D01*
X108700000Y-54500000D02*
X105750000Y-54500000D01*
X108700000Y-55250000D02*
X108700000Y-54500000D01*
X110200000Y-47650000D02*
X110200000Y-49450000D01*
X110200000Y-49450000D02*
X110950000Y-49450000D01*
X110200000Y-50950000D02*
X110200000Y-51950000D01*
X110200000Y-51950000D02*
X110950000Y-51950000D01*
X110200000Y-53450000D02*
X110200000Y-55250000D01*
X110200000Y-55250000D02*
X110950000Y-55250000D01*
X110950000Y-47650000D02*
X110200000Y-47650000D01*
X110950000Y-49450000D02*
X110950000Y-47650000D01*
X110950000Y-50950000D02*
X110200000Y-50950000D01*
X110950000Y-51950000D02*
X110950000Y-50950000D01*
X110950000Y-53450000D02*
X110200000Y-53450000D01*
X110950000Y-55250000D02*
X110950000Y-53450000D01*
X110960000Y-47640000D02*
X104990000Y-47640000D01*
X110960000Y-55260000D02*
X110960000Y-47640000D01*
X111250000Y-47350000D02*
X110000000Y-47350000D01*
X111250000Y-48600000D02*
X111250000Y-47350000D01*
%TO.C,RB4*%
X52565000Y-52927064D02*
X52565000Y-52472936D01*
X54035000Y-52927064D02*
X54035000Y-52472936D01*
%TO.C,R8*%
X67265000Y-54127064D02*
X67265000Y-53672936D01*
X68735000Y-54127064D02*
X68735000Y-53672936D01*
%TO.C,J8*%
X101585000Y-55210000D02*
X101585000Y-42590000D01*
X101585000Y-42590000D02*
X95615000Y-42590000D01*
X100825000Y-54450000D02*
X100825000Y-48900000D01*
X100825000Y-43350000D02*
X100825000Y-48900000D01*
X97875000Y-55200000D02*
X97875000Y-54450000D01*
X97875000Y-54450000D02*
X100825000Y-54450000D01*
X97875000Y-43350000D02*
X100825000Y-43350000D01*
X97875000Y-42600000D02*
X97875000Y-43350000D01*
X96375000Y-55200000D02*
X96375000Y-53400000D01*
X96375000Y-53400000D02*
X95625000Y-53400000D01*
X96375000Y-51900000D02*
X96375000Y-45900000D01*
X96375000Y-45900000D02*
X95625000Y-45900000D01*
X96375000Y-44400000D02*
X96375000Y-42600000D01*
X96375000Y-42600000D02*
X95625000Y-42600000D01*
X95625000Y-55200000D02*
X96375000Y-55200000D01*
X95625000Y-53400000D02*
X95625000Y-55200000D01*
X95625000Y-51900000D02*
X96375000Y-51900000D01*
X95625000Y-45900000D02*
X95625000Y-51900000D01*
X95625000Y-44400000D02*
X96375000Y-44400000D01*
X95625000Y-42600000D02*
X95625000Y-44400000D01*
X95615000Y-55210000D02*
X101585000Y-55210000D01*
X95615000Y-42590000D02*
X95615000Y-55210000D01*
X95325000Y-55500000D02*
X96575000Y-55500000D01*
X95325000Y-54250000D02*
X95325000Y-55500000D01*
%TO.C,Q8*%
X46540000Y-53100000D02*
X46540000Y-52450000D01*
X46540000Y-53100000D02*
X46540000Y-53750000D01*
X49660000Y-53100000D02*
X49660000Y-52450000D01*
X49660000Y-53100000D02*
X49660000Y-53750000D01*
X49940000Y-52177500D02*
X49610000Y-51937500D01*
X49940000Y-51697500D01*
X49940000Y-52177500D01*
G36*
X49940000Y-52177500D02*
G01*
X49610000Y-51937500D01*
X49940000Y-51697500D01*
X49940000Y-52177500D01*
G37*
%TO.C,Q10*%
X58200000Y-49840000D02*
X57550000Y-49840000D01*
X58200000Y-49840000D02*
X58850000Y-49840000D01*
X58200000Y-52960000D02*
X57550000Y-52960000D01*
X58200000Y-52960000D02*
X58850000Y-52960000D01*
X59602500Y-53240000D02*
X59122500Y-53240000D01*
X59362500Y-52910000D01*
X59602500Y-53240000D01*
G36*
X59602500Y-53240000D02*
G01*
X59122500Y-53240000D01*
X59362500Y-52910000D01*
X59602500Y-53240000D01*
G37*
%TO.C,TP15*%
X110150000Y-40550000D02*
X112050000Y-40550000D01*
X110150000Y-42450000D02*
X110150000Y-40550000D01*
X112050000Y-40550000D02*
X112050000Y-42450000D01*
X112050000Y-42450000D02*
X110150000Y-42450000D01*
%TO.C,C6*%
X84690000Y-47959420D02*
X84690000Y-48240580D01*
X85710000Y-47959420D02*
X85710000Y-48240580D01*
%TO.C,D4*%
X55200000Y-37540000D02*
X54550000Y-37540000D01*
X55200000Y-37540000D02*
X55850000Y-37540000D01*
X55200000Y-40660000D02*
X54550000Y-40660000D01*
X55200000Y-40660000D02*
X55850000Y-40660000D01*
X54037500Y-37590000D02*
X53797500Y-37260000D01*
X54277500Y-37260000D01*
X54037500Y-37590000D01*
G36*
X54037500Y-37590000D02*
G01*
X53797500Y-37260000D01*
X54277500Y-37260000D01*
X54037500Y-37590000D01*
G37*
%TO.C,RB2*%
X50365000Y-48872936D02*
X50365000Y-49327064D01*
X51835000Y-48872936D02*
X51835000Y-49327064D01*
%TO.C,RAV1*%
X38350000Y-22590000D02*
X38550000Y-22590000D01*
X38350000Y-24010000D02*
X38350000Y-22590000D01*
X38350000Y-29010000D02*
X38350000Y-27590000D01*
X38350000Y-29010000D02*
X38550000Y-29010000D01*
X38550000Y-22490000D02*
X39240000Y-22490000D01*
X38550000Y-22590000D02*
X38550000Y-22490000D01*
X38550000Y-24010000D02*
X38350000Y-24010000D01*
X38550000Y-27590000D02*
X38350000Y-27590000D01*
X38550000Y-27590000D02*
X38550000Y-24010000D01*
X38550000Y-29010000D02*
X38550000Y-29110000D01*
X38550000Y-29110000D02*
X38800000Y-29110000D01*
X40280000Y-22490000D02*
X44260000Y-22490000D01*
X44260000Y-29110000D02*
X40720000Y-29110000D01*
X45570000Y-23800000D02*
X45570000Y-25290000D01*
X45570000Y-26310000D02*
X45570000Y-27800000D01*
X44260000Y-22490000D02*
G75*
G02*
X45570000Y-23800000I0J-1310000D01*
G01*
X45570000Y-27800000D02*
G75*
G02*
X44260000Y-29110000I-1310000J0D01*
G01*
%TO.C,J3*%
X38815000Y-30340000D02*
X38815000Y-37960000D01*
X38815000Y-37960000D02*
X44785000Y-37960000D01*
X39575000Y-31100000D02*
X39575000Y-34150000D01*
X39575000Y-37200000D02*
X39575000Y-34150000D01*
X42525000Y-30350000D02*
X42525000Y-31100000D01*
X42525000Y-31100000D02*
X39575000Y-31100000D01*
X42525000Y-37200000D02*
X39575000Y-37200000D01*
X42525000Y-37950000D02*
X42525000Y-37200000D01*
X44025000Y-30350000D02*
X44025000Y-32150000D01*
X44025000Y-32150000D02*
X44775000Y-32150000D01*
X44025000Y-33650000D02*
X44025000Y-34650000D01*
X44025000Y-34650000D02*
X44775000Y-34650000D01*
X44025000Y-36150000D02*
X44025000Y-37950000D01*
X44025000Y-37950000D02*
X44775000Y-37950000D01*
X44775000Y-30350000D02*
X44025000Y-30350000D01*
X44775000Y-32150000D02*
X44775000Y-30350000D01*
X44775000Y-33650000D02*
X44025000Y-33650000D01*
X44775000Y-34650000D02*
X44775000Y-33650000D01*
X44775000Y-36150000D02*
X44025000Y-36150000D01*
X44775000Y-37950000D02*
X44775000Y-36150000D01*
X44785000Y-30340000D02*
X38815000Y-30340000D01*
X44785000Y-37960000D02*
X44785000Y-30340000D01*
X45075000Y-30050000D02*
X43825000Y-30050000D01*
X45075000Y-31300000D02*
X45075000Y-30050000D01*
%TO.C,J9*%
X111850000Y-27525000D02*
X111850000Y-28775000D01*
X112140000Y-27815000D02*
X112140000Y-33785000D01*
X112140000Y-33785000D02*
X119760000Y-33785000D01*
X112150000Y-27825000D02*
X112150000Y-28575000D01*
X112150000Y-28575000D02*
X113950000Y-28575000D01*
X112150000Y-30075000D02*
X112900000Y-30075000D01*
X112900000Y-30075000D02*
X112900000Y-33025000D01*
X112900000Y-33025000D02*
X115950000Y-33025000D01*
X113100000Y-27525000D02*
X111850000Y-27525000D01*
X113950000Y-27825000D02*
X112150000Y-27825000D01*
X113950000Y-28575000D02*
X113950000Y-27825000D01*
X115450000Y-27825000D02*
X115450000Y-28575000D01*
X115450000Y-28575000D02*
X116450000Y-28575000D01*
X116450000Y-27825000D02*
X115450000Y-27825000D01*
X116450000Y-28575000D02*
X116450000Y-27825000D01*
X117950000Y-27825000D02*
X117950000Y-28575000D01*
X117950000Y-28575000D02*
X119750000Y-28575000D01*
X119000000Y-30075000D02*
X119000000Y-33025000D01*
X119000000Y-33025000D02*
X115950000Y-33025000D01*
X119750000Y-27825000D02*
X117950000Y-27825000D01*
X119750000Y-28575000D02*
X119750000Y-27825000D01*
X119750000Y-30075000D02*
X119000000Y-30075000D01*
X119760000Y-27815000D02*
X112140000Y-27815000D01*
X119760000Y-33785000D02*
X119760000Y-27815000D01*
%TO.C,Q2*%
X62940000Y-49400000D02*
X62940000Y-48750000D01*
X62940000Y-49400000D02*
X62940000Y-50050000D01*
X66060000Y-49400000D02*
X66060000Y-48750000D01*
X66060000Y-49400000D02*
X66060000Y-50050000D01*
X66340000Y-48477500D02*
X66010000Y-48237500D01*
X66340000Y-47997500D01*
X66340000Y-48477500D01*
G36*
X66340000Y-48477500D02*
G01*
X66010000Y-48237500D01*
X66340000Y-47997500D01*
X66340000Y-48477500D01*
G37*
%TO.C,C11*%
X89146920Y-47215000D02*
X89428080Y-47215000D01*
X89146920Y-48235000D02*
X89428080Y-48235000D01*
%TO.C,R2*%
X82665000Y-49272936D02*
X82665000Y-49727064D01*
X84135000Y-49272936D02*
X84135000Y-49727064D01*
%TO.C,C20*%
X75088748Y-48340000D02*
X76511252Y-48340000D01*
X75088748Y-51060000D02*
X76511252Y-51060000D01*
%TO.C,R1*%
X80365000Y-49972936D02*
X80365000Y-50427064D01*
X81835000Y-49972936D02*
X81835000Y-50427064D01*
%TO.C,C24*%
X65340580Y-42290000D02*
X65059420Y-42290000D01*
X65340580Y-43310000D02*
X65059420Y-43310000D01*
%TO.C,J12*%
X113115000Y-42630000D02*
X113115000Y-55250000D01*
X113115000Y-55250000D02*
X119085000Y-55250000D01*
X113875000Y-43390000D02*
X113875000Y-48940000D01*
X113875000Y-54490000D02*
X113875000Y-48940000D01*
X116825000Y-42640000D02*
X116825000Y-43390000D01*
X116825000Y-43390000D02*
X113875000Y-43390000D01*
X116825000Y-54490000D02*
X113875000Y-54490000D01*
X116825000Y-55240000D02*
X116825000Y-54490000D01*
X118325000Y-42640000D02*
X118325000Y-44440000D01*
X118325000Y-44440000D02*
X119075000Y-44440000D01*
X118325000Y-45940000D02*
X118325000Y-51940000D01*
X118325000Y-51940000D02*
X119075000Y-51940000D01*
X118325000Y-53440000D02*
X118325000Y-55240000D01*
X118325000Y-55240000D02*
X119075000Y-55240000D01*
X119075000Y-42640000D02*
X118325000Y-42640000D01*
X119075000Y-44440000D02*
X119075000Y-42640000D01*
X119075000Y-45940000D02*
X118325000Y-45940000D01*
X119075000Y-51940000D02*
X119075000Y-45940000D01*
X119075000Y-53440000D02*
X118325000Y-53440000D01*
X119075000Y-55240000D02*
X119075000Y-53440000D01*
X119085000Y-42630000D02*
X113115000Y-42630000D01*
X119085000Y-55250000D02*
X119085000Y-42630000D01*
X119375000Y-42340000D02*
X118125000Y-42340000D01*
X119375000Y-43590000D02*
X119375000Y-42340000D01*
%TO.C,RBV1*%
X38350000Y-47990000D02*
X38550000Y-47990000D01*
X38350000Y-49410000D02*
X38350000Y-47990000D01*
X38350000Y-54410000D02*
X38350000Y-52990000D01*
X38350000Y-54410000D02*
X38550000Y-54410000D01*
X38550000Y-47890000D02*
X39240000Y-47890000D01*
X38550000Y-47990000D02*
X38550000Y-47890000D01*
X38550000Y-49410000D02*
X38350000Y-49410000D01*
X38550000Y-52990000D02*
X38350000Y-52990000D01*
X38550000Y-52990000D02*
X38550000Y-49410000D01*
X38550000Y-54410000D02*
X38550000Y-54510000D01*
X38550000Y-54510000D02*
X38800000Y-54510000D01*
X40280000Y-47890000D02*
X44260000Y-47890000D01*
X44260000Y-54510000D02*
X40720000Y-54510000D01*
X45570000Y-49200000D02*
X45570000Y-50690000D01*
X45570000Y-51710000D02*
X45570000Y-53200000D01*
X44260000Y-47890000D02*
G75*
G02*
X45570000Y-49200000I0J-1310000D01*
G01*
X45570000Y-53200000D02*
G75*
G02*
X44260000Y-54510000I-1310000J0D01*
G01*
%TO.C,R6*%
X62127064Y-45290000D02*
X60672936Y-45290000D01*
X62127064Y-47110000D02*
X60672936Y-47110000D01*
%TO.C,RA1*%
X53060436Y-27565000D02*
X53514564Y-27565000D01*
X53060436Y-29035000D02*
X53514564Y-29035000D01*
%TO.C,J7*%
X95325000Y-31350000D02*
X95325000Y-32600000D01*
X95325000Y-32600000D02*
X96575000Y-32600000D01*
X95615000Y-19690000D02*
X95615000Y-32310000D01*
X95615000Y-32310000D02*
X101585000Y-32310000D01*
X95625000Y-19700000D02*
X95625000Y-21500000D01*
X95625000Y-21500000D02*
X96375000Y-21500000D01*
X95625000Y-23000000D02*
X95625000Y-29000000D01*
X95625000Y-29000000D02*
X96375000Y-29000000D01*
X95625000Y-30500000D02*
X95625000Y-32300000D01*
X95625000Y-32300000D02*
X96375000Y-32300000D01*
X96375000Y-19700000D02*
X95625000Y-19700000D01*
X96375000Y-21500000D02*
X96375000Y-19700000D01*
X96375000Y-23000000D02*
X95625000Y-23000000D01*
X96375000Y-29000000D02*
X96375000Y-23000000D01*
X96375000Y-30500000D02*
X95625000Y-30500000D01*
X96375000Y-32300000D02*
X96375000Y-30500000D01*
X97875000Y-19700000D02*
X97875000Y-20450000D01*
X97875000Y-20450000D02*
X100825000Y-20450000D01*
X97875000Y-31550000D02*
X100825000Y-31550000D01*
X97875000Y-32300000D02*
X97875000Y-31550000D01*
X100825000Y-20450000D02*
X100825000Y-26000000D01*
X100825000Y-31550000D02*
X100825000Y-26000000D01*
X101585000Y-19690000D02*
X95615000Y-19690000D01*
X101585000Y-32310000D02*
X101585000Y-19690000D01*
%TO.C,F1*%
X46500000Y-31400000D02*
X46500000Y-36400000D01*
X46500000Y-36400000D02*
X57500000Y-36400000D01*
X57500000Y-31400000D02*
X46500000Y-31400000D01*
X57500000Y-36400000D02*
X57500000Y-31400000D01*
%TO.C,C4*%
X87790000Y-40540580D02*
X87790000Y-40259420D01*
X88810000Y-40540580D02*
X88810000Y-40259420D01*
%TO.C,Q1*%
X66640000Y-49400000D02*
X66640000Y-48750000D01*
X66640000Y-49400000D02*
X66640000Y-50050000D01*
X69760000Y-49400000D02*
X69760000Y-48750000D01*
X69760000Y-49400000D02*
X69760000Y-50050000D01*
X66690000Y-50562500D02*
X66360000Y-50802500D01*
X66360000Y-50322500D01*
X66690000Y-50562500D01*
G36*
X66690000Y-50562500D02*
G01*
X66360000Y-50802500D01*
X66360000Y-50322500D01*
X66690000Y-50562500D01*
G37*
%TO.C,TP13*%
X118150000Y-34550000D02*
X120050000Y-34550000D01*
X118150000Y-36450000D02*
X118150000Y-34550000D01*
X120050000Y-34550000D02*
X120050000Y-36450000D01*
X120050000Y-36450000D02*
X118150000Y-36450000D01*
%TO.C,F2*%
X46200000Y-41800000D02*
X46200000Y-46800000D01*
X46200000Y-46800000D02*
X57200000Y-46800000D01*
X57200000Y-41800000D02*
X46200000Y-41800000D01*
X57200000Y-46800000D02*
X57200000Y-41800000D01*
%TO.C,U9*%
X59890000Y-36990000D02*
X60590000Y-36990000D01*
X59890000Y-37690000D02*
X59890000Y-36990000D01*
X59890000Y-40510000D02*
X59890000Y-40910000D01*
X60590000Y-41210000D02*
X60130000Y-41210000D01*
X64110000Y-36990000D02*
X63410000Y-36990000D01*
X64110000Y-37690000D02*
X64110000Y-36990000D01*
X64110000Y-40510000D02*
X64110000Y-41210000D01*
X64110000Y-41210000D02*
X63410000Y-41210000D01*
X59890000Y-41210000D02*
X59560000Y-41450000D01*
X59560000Y-40970000D01*
X59890000Y-41210000D01*
G36*
X59890000Y-41210000D02*
G01*
X59560000Y-41450000D01*
X59560000Y-40970000D01*
X59890000Y-41210000D01*
G37*
%TO.C,J5*%
X102600000Y-31500000D02*
X104200000Y-31500000D01*
X104200000Y-27500000D02*
X102600000Y-27500000D01*
X104200000Y-31500000D02*
X104200000Y-27500000D01*
X102600000Y-39500000D02*
X111400000Y-39500000D01*
X111400000Y-19500000D01*
X102600000Y-19500000D01*
X102600000Y-39500000D01*
%TO.C,RB1*%
X58227064Y-47765000D02*
X57772936Y-47765000D01*
X58227064Y-49235000D02*
X57772936Y-49235000D01*
%TO.C,TP5*%
X49050000Y-27450000D02*
X50950000Y-27450000D01*
X49050000Y-29350000D02*
X49050000Y-27450000D01*
X50950000Y-27450000D02*
X50950000Y-29350000D01*
X50950000Y-29350000D02*
X49050000Y-29350000D01*
%TO.C,J13*%
X73989000Y-19715000D02*
X73989000Y-25685000D01*
X73989000Y-25685000D02*
X86609000Y-25685000D01*
X73999000Y-23425000D02*
X74749000Y-23425000D01*
X73999000Y-24925000D02*
X73999000Y-25675000D01*
X73999000Y-25675000D02*
X75799000Y-25675000D01*
X74749000Y-20475000D02*
X80299000Y-20475000D01*
X74749000Y-23425000D02*
X74749000Y-20475000D01*
X75799000Y-24925000D02*
X73999000Y-24925000D01*
X75799000Y-25675000D02*
X75799000Y-24925000D01*
X77299000Y-24925000D02*
X77299000Y-25675000D01*
X77299000Y-25675000D02*
X83299000Y-25675000D01*
X83299000Y-24925000D02*
X77299000Y-24925000D01*
X83299000Y-25675000D02*
X83299000Y-24925000D01*
X84799000Y-24925000D02*
X84799000Y-25675000D01*
X84799000Y-25675000D02*
X86599000Y-25675000D01*
X85649000Y-25975000D02*
X86899000Y-25975000D01*
X85849000Y-20475000D02*
X80299000Y-20475000D01*
X85849000Y-23425000D02*
X85849000Y-20475000D01*
X86599000Y-23425000D02*
X85849000Y-23425000D01*
X86599000Y-24925000D02*
X84799000Y-24925000D01*
X86599000Y-25675000D02*
X86599000Y-24925000D01*
X86609000Y-19715000D02*
X73989000Y-19715000D01*
X86609000Y-25685000D02*
X86609000Y-19715000D01*
X86899000Y-25975000D02*
X86899000Y-24725000D01*
%TO.C,U4*%
X89200000Y-48790000D02*
X87700000Y-48790000D01*
X89200000Y-48790000D02*
X90700000Y-48790000D01*
X89200000Y-52010000D02*
X87700000Y-52010000D01*
X89200000Y-52010000D02*
X90700000Y-52010000D01*
X86987500Y-48965000D02*
X86747500Y-48635000D01*
X87227500Y-48635000D01*
X86987500Y-48965000D01*
G36*
X86987500Y-48965000D02*
G01*
X86747500Y-48635000D01*
X87227500Y-48635000D01*
X86987500Y-48965000D01*
G37*
%TO.C,J11*%
X65240000Y-19715000D02*
X65240000Y-25685000D01*
X65240000Y-25685000D02*
X72860000Y-25685000D01*
X65250000Y-23425000D02*
X66000000Y-23425000D01*
X65250000Y-24925000D02*
X65250000Y-25675000D01*
X65250000Y-25675000D02*
X67050000Y-25675000D01*
X66000000Y-20475000D02*
X69050000Y-20475000D01*
X66000000Y-23425000D02*
X66000000Y-20475000D01*
X67050000Y-24925000D02*
X65250000Y-24925000D01*
X67050000Y-25675000D02*
X67050000Y-24925000D01*
X68550000Y-24925000D02*
X68550000Y-25675000D01*
X68550000Y-25675000D02*
X69550000Y-25675000D01*
X69550000Y-24925000D02*
X68550000Y-24925000D01*
X69550000Y-25675000D02*
X69550000Y-24925000D01*
X71050000Y-24925000D02*
X71050000Y-25675000D01*
X71050000Y-25675000D02*
X72850000Y-25675000D01*
X71900000Y-25975000D02*
X73150000Y-25975000D01*
X72100000Y-20475000D02*
X69050000Y-20475000D01*
X72100000Y-23425000D02*
X72100000Y-20475000D01*
X72850000Y-23425000D02*
X72100000Y-23425000D01*
X72850000Y-24925000D02*
X71050000Y-24925000D01*
X72850000Y-25675000D02*
X72850000Y-24925000D01*
X72860000Y-19715000D02*
X65240000Y-19715000D01*
X72860000Y-25685000D02*
X72860000Y-19715000D01*
X73150000Y-25975000D02*
X73150000Y-24725000D01*
%TO.C,D2*%
X55440000Y-27900000D02*
X55440000Y-27250000D01*
X55440000Y-27900000D02*
X55440000Y-28550000D01*
X58560000Y-27900000D02*
X58560000Y-27250000D01*
X58560000Y-27900000D02*
X58560000Y-28550000D01*
X58840000Y-26977500D02*
X58510000Y-26737500D01*
X58840000Y-26497500D01*
X58840000Y-26977500D01*
G36*
X58840000Y-26977500D02*
G01*
X58510000Y-26737500D01*
X58840000Y-26497500D01*
X58840000Y-26977500D01*
G37*
%TO.C,D1*%
X71855000Y-36425000D02*
X71855000Y-36695000D01*
X71855000Y-43325000D02*
X71855000Y-43055000D01*
X78275000Y-36425000D02*
X71855000Y-36425000D01*
X78275000Y-43325000D02*
X71855000Y-43325000D01*
X70435000Y-36735000D02*
X70195000Y-36405000D01*
X70675000Y-36405000D01*
X70435000Y-36735000D01*
G36*
X70435000Y-36735000D02*
G01*
X70195000Y-36405000D01*
X70675000Y-36405000D01*
X70435000Y-36735000D01*
G37*
%TO.C,Q9*%
X63340000Y-53600000D02*
X63340000Y-52950000D01*
X63340000Y-53600000D02*
X63340000Y-54250000D01*
X66460000Y-53600000D02*
X66460000Y-52950000D01*
X66460000Y-53600000D02*
X66460000Y-54250000D01*
X63390000Y-54762500D02*
X63060000Y-55002500D01*
X63060000Y-54522500D01*
X63390000Y-54762500D01*
G36*
X63390000Y-54762500D02*
G01*
X63060000Y-55002500D01*
X63060000Y-54522500D01*
X63390000Y-54762500D01*
G37*
%TO.C,R5*%
X62427064Y-32190000D02*
X60972936Y-32190000D01*
X62427064Y-34010000D02*
X60972936Y-34010000D01*
%TO.C,TP3*%
X82050000Y-43750000D02*
X83950000Y-43750000D01*
X82050000Y-45650000D02*
X82050000Y-43750000D01*
X83950000Y-43750000D02*
X83950000Y-45650000D01*
X83950000Y-45650000D02*
X82050000Y-45650000D01*
%TO.C,RV1*%
X113590000Y-19750000D02*
X113590000Y-20000000D01*
X113590000Y-25460000D02*
X113590000Y-21920000D01*
X113690000Y-19550000D02*
X113690000Y-19750000D01*
X113690000Y-19550000D02*
X115110000Y-19550000D01*
X113690000Y-19750000D02*
X113590000Y-19750000D01*
X115110000Y-19750000D02*
X115110000Y-19550000D01*
X115110000Y-19750000D02*
X118690000Y-19750000D01*
X116390000Y-26770000D02*
X114900000Y-26770000D01*
X118690000Y-19550000D02*
X120110000Y-19550000D01*
X118690000Y-19750000D02*
X118690000Y-19550000D01*
X118900000Y-26770000D02*
X117410000Y-26770000D01*
X120110000Y-19550000D02*
X120110000Y-19750000D01*
X120110000Y-19750000D02*
X120210000Y-19750000D01*
X120210000Y-19750000D02*
X120210000Y-20440000D01*
X120210000Y-21480000D02*
X120210000Y-25460000D01*
X114900000Y-26770000D02*
G75*
G02*
X113590000Y-25460000I0J1310000D01*
G01*
X120210000Y-25460000D02*
G75*
G02*
X118900000Y-26770000I-1310000J0D01*
G01*
%TO.C,RA2*%
X56727064Y-22565000D02*
X56272936Y-22565000D01*
X56727064Y-24035000D02*
X56272936Y-24035000D01*
%TO.C,Q7*%
X52600000Y-21740000D02*
X51950000Y-21740000D01*
X52600000Y-21740000D02*
X53250000Y-21740000D01*
X52600000Y-24860000D02*
X51950000Y-24860000D01*
X52600000Y-24860000D02*
X53250000Y-24860000D01*
X51437500Y-21790000D02*
X51197500Y-21460000D01*
X51677500Y-21460000D01*
X51437500Y-21790000D01*
G36*
X51437500Y-21790000D02*
G01*
X51197500Y-21460000D01*
X51677500Y-21460000D01*
X51437500Y-21790000D01*
G37*
%TD*%
M02*
