%TF.GenerationSoftware,KiCad,Pcbnew,8.0.6-8.0.6-0~ubuntu24.04.1*%
%TF.CreationDate,2024-10-25T11:14:03+03:00*%
%TF.ProjectId,pss_v2,7073735f-7632-42e6-9b69-6361645f7063,rev?*%
%TF.SameCoordinates,Original*%
%TF.FileFunction,Paste,Top*%
%TF.FilePolarity,Positive*%
%FSLAX46Y46*%
G04 Gerber Fmt 4.6, Leading zero omitted, Abs format (unit mm)*
G04 Created by KiCad (PCBNEW 8.0.6-8.0.6-0~ubuntu24.04.1) date 2024-10-25 11:14:03*
%MOMM*%
%LPD*%
G01*
G04 APERTURE LIST*
G04 Aperture macros list*
%AMRoundRect*
0 Rectangle with rounded corners*
0 $1 Rounding radius*
0 $2 $3 $4 $5 $6 $7 $8 $9 X,Y pos of 4 corners*
0 Add a 4 corners polygon primitive as box body*
4,1,4,$2,$3,$4,$5,$6,$7,$8,$9,$2,$3,0*
0 Add four circle primitives for the rounded corners*
1,1,$1+$1,$2,$3*
1,1,$1+$1,$4,$5*
1,1,$1+$1,$6,$7*
1,1,$1+$1,$8,$9*
0 Add four rect primitives between the rounded corners*
20,1,$1+$1,$2,$3,$4,$5,0*
20,1,$1+$1,$4,$5,$6,$7,0*
20,1,$1+$1,$6,$7,$8,$9,0*
20,1,$1+$1,$8,$9,$2,$3,0*%
G04 Aperture macros list end*
%ADD10RoundRect,0.250000X-0.450000X0.262500X-0.450000X-0.262500X0.450000X-0.262500X0.450000X0.262500X0*%
%ADD11RoundRect,0.250000X0.262500X0.450000X-0.262500X0.450000X-0.262500X-0.450000X0.262500X-0.450000X0*%
%ADD12RoundRect,0.150000X-0.587500X-0.150000X0.587500X-0.150000X0.587500X0.150000X-0.587500X0.150000X0*%
%ADD13RoundRect,0.225000X-0.250000X0.225000X-0.250000X-0.225000X0.250000X-0.225000X0.250000X0.225000X0*%
%ADD14RoundRect,0.150000X-0.150000X0.587500X-0.150000X-0.587500X0.150000X-0.587500X0.150000X0.587500X0*%
%ADD15RoundRect,0.250000X0.450000X-0.262500X0.450000X0.262500X-0.450000X0.262500X-0.450000X-0.262500X0*%
%ADD16RoundRect,0.225000X0.225000X0.250000X-0.225000X0.250000X-0.225000X-0.250000X0.225000X-0.250000X0*%
%ADD17R,2.000000X4.500000*%
%ADD18RoundRect,0.150000X0.587500X0.150000X-0.587500X0.150000X-0.587500X-0.150000X0.587500X-0.150000X0*%
%ADD19RoundRect,0.225000X-0.225000X-0.250000X0.225000X-0.250000X0.225000X0.250000X-0.225000X0.250000X0*%
%ADD20RoundRect,0.250000X-0.325000X-1.100000X0.325000X-1.100000X0.325000X1.100000X-0.325000X1.100000X0*%
%ADD21RoundRect,0.250000X0.312500X0.625000X-0.312500X0.625000X-0.312500X-0.625000X0.312500X-0.625000X0*%
%ADD22RoundRect,0.250000X-0.262500X-0.450000X0.262500X-0.450000X0.262500X0.450000X-0.262500X0.450000X0*%
%ADD23RoundRect,0.952500X-1.167500X-0.952500X1.167500X-0.952500X1.167500X0.952500X-1.167500X0.952500X0*%
%ADD24RoundRect,0.225000X0.250000X-0.225000X0.250000X0.225000X-0.250000X0.225000X-0.250000X-0.225000X0*%
%ADD25RoundRect,0.150000X0.150000X-0.587500X0.150000X0.587500X-0.150000X0.587500X-0.150000X-0.587500X0*%
%ADD26RoundRect,0.212500X0.212500X-0.212500X0.212500X0.212500X-0.212500X0.212500X-0.212500X-0.212500X0*%
%ADD27RoundRect,0.087500X0.087500X-0.425000X0.087500X0.425000X-0.087500X0.425000X-0.087500X-0.425000X0*%
%ADD28RoundRect,0.087500X0.425000X-0.087500X0.425000X0.087500X-0.425000X0.087500X-0.425000X-0.087500X0*%
%ADD29RoundRect,0.100000X-0.712500X-0.100000X0.712500X-0.100000X0.712500X0.100000X-0.712500X0.100000X0*%
%ADD30RoundRect,0.250000X-0.850000X-0.350000X0.850000X-0.350000X0.850000X0.350000X-0.850000X0.350000X0*%
%ADD31RoundRect,0.250000X-1.275000X-1.125000X1.275000X-1.125000X1.275000X1.125000X-1.275000X1.125000X0*%
G04 APERTURE END LIST*
D10*
%TO.C,RB3*%
X51100000Y-51787500D03*
X51100000Y-53612500D03*
%TD*%
D11*
%TO.C,RA3*%
X49712500Y-22400000D03*
X47887500Y-22400000D03*
%TD*%
D12*
%TO.C,Q6*%
X68762500Y-44350000D03*
X68762500Y-46250000D03*
X70637500Y-45300000D03*
%TD*%
%TO.C,Q4*%
X72217597Y-27776082D03*
X72217597Y-29676082D03*
X74092597Y-28726082D03*
%TD*%
D13*
%TO.C,C5*%
X88300000Y-36525000D03*
X88300000Y-38075000D03*
%TD*%
D14*
%TO.C,Q5*%
X68650000Y-33062500D03*
X66750000Y-33062500D03*
X67700000Y-34937500D03*
%TD*%
D15*
%TO.C,R3*%
X71200000Y-50112500D03*
X71200000Y-48287500D03*
%TD*%
D10*
%TO.C,RA4*%
X47700000Y-24287500D03*
X47700000Y-26112500D03*
%TD*%
D11*
%TO.C,R9*%
X93812500Y-47600000D03*
X91987500Y-47600000D03*
%TD*%
D14*
%TO.C,Q3*%
X69950000Y-27600000D03*
X68050000Y-27600000D03*
X69000000Y-29475000D03*
%TD*%
D16*
%TO.C,C12*%
X48775000Y-39500000D03*
X47225000Y-39500000D03*
%TD*%
D11*
%TO.C,R15*%
X62700000Y-42800000D03*
X60875000Y-42800000D03*
%TD*%
D10*
%TO.C,R4*%
X66050000Y-27787500D03*
X66050000Y-29612500D03*
%TD*%
D12*
%TO.C,D3*%
X53262500Y-48150000D03*
X53262500Y-50050000D03*
X55137500Y-49100000D03*
%TD*%
D17*
%TO.C,X1*%
X92000000Y-34250000D03*
X92000000Y-42750000D03*
%TD*%
D15*
%TO.C,RB4*%
X53300000Y-53612500D03*
X53300000Y-51787500D03*
%TD*%
%TO.C,R8*%
X68000000Y-54812500D03*
X68000000Y-52987500D03*
%TD*%
D14*
%TO.C,Q8*%
X49050000Y-52162500D03*
X47150000Y-52162500D03*
X48100000Y-54037500D03*
%TD*%
D18*
%TO.C,Q10*%
X59137500Y-52350000D03*
X59137500Y-50450000D03*
X57262500Y-51400000D03*
%TD*%
D13*
%TO.C,C6*%
X85200000Y-47325000D03*
X85200000Y-48875000D03*
%TD*%
D12*
%TO.C,D4*%
X54262500Y-38150000D03*
X54262500Y-40050000D03*
X56137500Y-39100000D03*
%TD*%
D10*
%TO.C,RB2*%
X51100000Y-48187500D03*
X51100000Y-50012500D03*
%TD*%
D14*
%TO.C,Q2*%
X65450000Y-48462500D03*
X63550000Y-48462500D03*
X64500000Y-50337500D03*
%TD*%
D19*
%TO.C,C11*%
X88512500Y-47725000D03*
X90062500Y-47725000D03*
%TD*%
D10*
%TO.C,R2*%
X83400000Y-48587500D03*
X83400000Y-50412500D03*
%TD*%
D20*
%TO.C,C20*%
X74325000Y-49700000D03*
X77275000Y-49700000D03*
%TD*%
D10*
%TO.C,R1*%
X81100000Y-49287500D03*
X81100000Y-51112500D03*
%TD*%
D16*
%TO.C,C24*%
X65975000Y-42800000D03*
X64425000Y-42800000D03*
%TD*%
D21*
%TO.C,R6*%
X62862500Y-46200000D03*
X59937500Y-46200000D03*
%TD*%
D22*
%TO.C,RA1*%
X52375000Y-28300000D03*
X54200000Y-28300000D03*
%TD*%
D23*
%TO.C,F1*%
X48775000Y-33900000D03*
X55185000Y-33900000D03*
%TD*%
D24*
%TO.C,C4*%
X88300000Y-41175000D03*
X88300000Y-39625000D03*
%TD*%
D25*
%TO.C,Q1*%
X67250000Y-50337500D03*
X69150000Y-50337500D03*
X68200000Y-48462500D03*
%TD*%
D23*
%TO.C,F2*%
X48475000Y-44300000D03*
X54885000Y-44300000D03*
%TD*%
D26*
%TO.C,U9*%
X61475000Y-39625000D03*
X62525000Y-39625000D03*
X61475000Y-38575000D03*
X62525000Y-38575000D03*
D27*
X61025000Y-40962500D03*
X61675000Y-40962500D03*
X62325000Y-40962500D03*
X62975000Y-40962500D03*
D28*
X63862500Y-40075000D03*
X63862500Y-39425000D03*
X63862500Y-38775000D03*
X63862500Y-38125000D03*
D27*
X62975000Y-37237500D03*
X62325000Y-37237500D03*
X61675000Y-37237500D03*
X61025000Y-37237500D03*
D28*
X60137500Y-38125000D03*
X60137500Y-38775000D03*
X60137500Y-39425000D03*
X60137500Y-40075000D03*
%TD*%
D11*
%TO.C,RB1*%
X58912500Y-48500000D03*
X57087500Y-48500000D03*
%TD*%
D29*
%TO.C,U4*%
X87087500Y-49425000D03*
X87087500Y-50075000D03*
X87087500Y-50725000D03*
X87087500Y-51375000D03*
X91312500Y-51375000D03*
X91312500Y-50725000D03*
X91312500Y-50075000D03*
X91312500Y-49425000D03*
%TD*%
D14*
%TO.C,D2*%
X57950000Y-26962500D03*
X56050000Y-26962500D03*
X57000000Y-28837500D03*
%TD*%
D30*
%TO.C,D1*%
X70125000Y-37595000D03*
D31*
X74750000Y-38350000D03*
X74750000Y-41400000D03*
X78100000Y-38350000D03*
X78100000Y-41400000D03*
D30*
X70125000Y-42155000D03*
%TD*%
D25*
%TO.C,Q9*%
X63950000Y-54537500D03*
X65850000Y-54537500D03*
X64900000Y-52662500D03*
%TD*%
D21*
%TO.C,R5*%
X63162500Y-33100000D03*
X60237500Y-33100000D03*
%TD*%
D11*
%TO.C,RA2*%
X57412500Y-23300000D03*
X55587500Y-23300000D03*
%TD*%
D12*
%TO.C,Q7*%
X51662500Y-22350000D03*
X51662500Y-24250000D03*
X53537500Y-23300000D03*
%TD*%
M02*
