M48
; DRILL file {KiCad 8.0.6-8.0.6-0~ubuntu24.04.1} date 2024-10-25T11:14:08+0300
; FORMAT={-:-/ absolute / inch / decimal}
; #@! TF.CreationDate,2024-10-25T11:14:08+03:00
; #@! TF.GenerationSoftware,Kicad,Pcbnew,8.0.6-8.0.6-0~ubuntu24.04.1
; #@! TF.FileFunction,Plated,1,4,PTH
FMAT,2
INCH
; #@! TA.AperFunction,Plated,PTH,ViaDrill
T1C0.0118
; #@! TA.AperFunction,Plated,PTH,ViaDrill
T2C0.0157
; #@! TA.AperFunction,Plated,PTH,ComponentDrill
T3C0.0300
; #@! TA.AperFunction,Plated,PTH,ComponentDrill
T4C0.0315
; #@! TA.AperFunction,Plated,PTH,ComponentDrill
T5C0.0354
; #@! TA.AperFunction,Plated,PTH,ComponentDrill
T6C0.0374
; #@! TA.AperFunction,Plated,PTH,ComponentDrill
T7C0.0394
%
G90
G05
T1
X1.8386Y-1.9764
X1.8858Y-1.4646
X1.9488Y-1.5945
X1.9921Y-0.8819
X2.0354Y-1.7441
X2.05Y-1.2953
X2.0748Y-0.9961
X2.1496Y-2.0236
X2.2126Y-1.4843
X2.2343Y-1.8602
X2.3189Y-1.1988
X2.4213Y-2.1378
X2.4409Y-1.5394
X2.5039Y-1.685
X2.5827Y-1.563
X2.6142Y-1.908
X2.6555Y-1.7461
X2.6772Y-1.6181
X2.7677Y-1.3346
X2.7795Y-2.1417
X2.8937Y-1.3701
X2.9098Y-1.5712
X2.9252Y-1.7598
X3.0433Y-1.8425
X3.0669Y-1.122
X3.1181Y-1.8071
X3.1378Y-1.378
X3.1929Y-2.0123
X3.2008Y-1.2717
X3.2205Y-1.4685
X3.248Y-1.1417
X3.2677Y-1.7598
X3.2835Y-1.9847
X3.374Y-1.7598
X3.3819Y-1.5551
X3.3858Y-1.3858
X3.3937Y-1.4567
X3.4016Y-1.3425
X3.4764Y-1.5276
X3.5551Y-1.4606
X3.563Y-1.5315
X3.565Y-1.1791
X3.6142Y-1.2126
X3.7008Y-1.2864
X3.7095Y-1.386
X3.7126Y-1.4646
X3.7165Y-1.4252
X3.8189Y-1.4213
X3.8189Y-1.4606
X3.8223Y-1.563
X4.7276Y-1.6567
T2
X2.2953Y-1.5512
X2.3346Y-1.6693
T3
X1.5827Y-0.815
T4
X3.0071Y-2.1149
X3.1071Y-2.1149
X3.2071Y-2.1149
X3.3071Y-2.1149
X3.4071Y-2.1149
X3.5071Y-2.1149
X3.6071Y-2.1149
T5
X4.1626Y-0.9614
X4.1626Y-1.0614
X4.1626Y-1.1614
X4.1626Y-1.2614
X4.1626Y-1.3614
X4.2626Y-0.9614
X4.2626Y-1.0614
X4.2626Y-1.1614
X4.2626Y-1.2614
X4.2626Y-1.3614
T6
X3.0137Y-0.9144
X3.1122Y-0.9144
X3.2106Y-0.9144
X3.309Y-0.9144
X3.8612Y-0.876
X3.8612Y-0.9744
X3.8612Y-1.0728
X3.8612Y-1.1713
X3.8612Y-1.7776
X3.8612Y-1.876
X3.8612Y-1.9744
X3.8612Y-2.0728
X4.5915Y-1.7791
X4.5915Y-1.8776
X4.5915Y-1.976
X4.5915Y-2.0744
T7
X1.5654Y-0.9173
X1.5654Y-1.1142
X1.5654Y-1.9173
X1.5654Y-2.1142
X1.6663Y-1.2953
X1.6663Y-1.3937
X1.6663Y-1.6516
X1.6663Y-1.75
X1.7622Y-1.0157
X1.7622Y-2.0157
X2.6693Y-0.9144
X2.7677Y-0.9144
X4.2717Y-1.9764
X4.2717Y-2.0748
X4.5039Y-0.8252
X4.5157Y-1.1919
X4.6024Y-1.022
X4.6142Y-1.1919
X4.7008Y-0.8252
M30
