%TF.GenerationSoftware,KiCad,Pcbnew,8.0.6-8.0.6-0~ubuntu24.04.1*%
%TF.CreationDate,2024-10-25T12:09:51+03:00*%
%TF.ProjectId,pss_v2_fan_block,7073735f-7632-45f6-9661-6e5f626c6f63,rev?*%
%TF.SameCoordinates,Original*%
%TF.FileFunction,Copper,L2,Bot*%
%TF.FilePolarity,Positive*%
%FSLAX46Y46*%
G04 Gerber Fmt 4.6, Leading zero omitted, Abs format (unit mm)*
G04 Created by KiCad (PCBNEW 8.0.6-8.0.6-0~ubuntu24.04.1) date 2024-10-25 12:09:51*
%MOMM*%
%LPD*%
G01*
G04 APERTURE LIST*
G04 Aperture macros list*
%AMRoundRect*
0 Rectangle with rounded corners*
0 $1 Rounding radius*
0 $2 $3 $4 $5 $6 $7 $8 $9 X,Y pos of 4 corners*
0 Add a 4 corners polygon primitive as box body*
4,1,4,$2,$3,$4,$5,$6,$7,$8,$9,$2,$3,0*
0 Add four circle primitives for the rounded corners*
1,1,$1+$1,$2,$3*
1,1,$1+$1,$4,$5*
1,1,$1+$1,$6,$7*
1,1,$1+$1,$8,$9*
0 Add four rect primitives between the rounded corners*
20,1,$1+$1,$2,$3,$4,$5,0*
20,1,$1+$1,$4,$5,$6,$7,0*
20,1,$1+$1,$6,$7,$8,$9,0*
20,1,$1+$1,$8,$9,$2,$3,0*%
G04 Aperture macros list end*
%TA.AperFunction,ComponentPad*%
%ADD10RoundRect,0.250000X0.600000X0.750000X-0.600000X0.750000X-0.600000X-0.750000X0.600000X-0.750000X0*%
%TD*%
%TA.AperFunction,ComponentPad*%
%ADD11O,1.700000X2.000000*%
%TD*%
%TA.AperFunction,ComponentPad*%
%ADD12RoundRect,0.250000X-0.600000X-0.750000X0.600000X-0.750000X0.600000X0.750000X-0.600000X0.750000X0*%
%TD*%
%TA.AperFunction,SMDPad,CuDef*%
%ADD13RoundRect,0.250000X0.450000X-0.262500X0.450000X0.262500X-0.450000X0.262500X-0.450000X-0.262500X0*%
%TD*%
%TA.AperFunction,ComponentPad*%
%ADD14R,1.905000X2.000000*%
%TD*%
%TA.AperFunction,ComponentPad*%
%ADD15O,1.905000X2.000000*%
%TD*%
%TA.AperFunction,ComponentPad*%
%ADD16RoundRect,0.250000X-0.750000X0.600000X-0.750000X-0.600000X0.750000X-0.600000X0.750000X0.600000X0*%
%TD*%
%TA.AperFunction,ComponentPad*%
%ADD17O,2.000000X1.700000*%
%TD*%
%TA.AperFunction,ComponentPad*%
%ADD18R,2.000000X2.000000*%
%TD*%
%TA.AperFunction,ComponentPad*%
%ADD19C,2.000000*%
%TD*%
%TA.AperFunction,Conductor*%
%ADD20C,1.000000*%
%TD*%
G04 APERTURE END LIST*
D10*
%TO.P,SW2,1,1*%
%TO.N,GND*%
X85100000Y-76300000D03*
D11*
%TO.P,SW2,2,2*%
%TO.N,Net-(Q1-D)*%
X82600000Y-76300000D03*
%TD*%
D12*
%TO.P,SW1,1,1*%
%TO.N,VCC*%
X62300000Y-88200000D03*
D11*
%TO.P,SW1,2,2*%
%TO.N,Net-(Q2-G)*%
X64800000Y-88200000D03*
%TD*%
D13*
%TO.P,R2,1*%
%TO.N,GND*%
X76300000Y-88812500D03*
%TO.P,R2,2*%
%TO.N,Net-(Q2-G)*%
X76300000Y-86987500D03*
%TD*%
D14*
%TO.P,Q2,1,G*%
%TO.N,Net-(Q2-G)*%
X80560000Y-82900000D03*
D15*
%TO.P,Q2,2,D*%
%TO.N,Net-(J2-Pin_1)*%
X83100000Y-82900000D03*
%TO.P,Q2,3,S*%
%TO.N,GND*%
X85640000Y-82900000D03*
%TD*%
D14*
%TO.P,Q1,1,G*%
%TO.N,Net-(J2-Pin_1)*%
X76400000Y-74300000D03*
D15*
%TO.P,Q1,2,D*%
%TO.N,Net-(Q1-D)*%
X73860000Y-74300000D03*
%TO.P,Q1,3,S*%
%TO.N,GND*%
X71320000Y-74300000D03*
%TD*%
D12*
%TO.P,J2,1,Pin_1*%
%TO.N,Net-(J2-Pin_1)*%
X82550000Y-88175000D03*
D11*
%TO.P,J2,2,Pin_2*%
%TO.N,VCC*%
X85050000Y-88175000D03*
%TD*%
D16*
%TO.P,J1,1,Pin_1*%
%TO.N,GND*%
X63600000Y-79100000D03*
D17*
%TO.P,J1,2,Pin_2*%
%TO.N,VCC*%
X63600000Y-81600000D03*
%TD*%
D18*
%TO.P,C1,1*%
%TO.N,Net-(Q2-G)*%
X73400000Y-85400000D03*
D19*
%TO.P,C1,2*%
%TO.N,GND*%
X73400000Y-90400000D03*
%TD*%
D20*
%TO.N,Net-(Q2-G)*%
X76300000Y-86987500D02*
X74987500Y-86987500D01*
X74987500Y-86987500D02*
X73400000Y-85400000D01*
%TO.N,VCC*%
X62300000Y-88200000D02*
X62300000Y-90800000D01*
X62300000Y-90800000D02*
X64500000Y-93000000D01*
X64500000Y-93000000D02*
X82225000Y-93000000D01*
X85050000Y-90175000D02*
X85050000Y-88175000D01*
X82225000Y-93000000D02*
X85050000Y-90175000D01*
%TO.N,Net-(Q1-D)*%
X82600000Y-76300000D02*
X74800000Y-76300000D01*
X74800000Y-76300000D02*
X73860000Y-75360000D01*
X73860000Y-75360000D02*
X73860000Y-74300000D01*
%TD*%
%TA.AperFunction,Conductor*%
%TO.N,GND*%
G36*
X88442539Y-72520185D02*
G01*
X88488294Y-72572989D01*
X88499500Y-72624500D01*
X88499500Y-93375500D01*
X88479815Y-93442539D01*
X88427011Y-93488294D01*
X88375500Y-93499500D01*
X83439782Y-93499500D01*
X83372743Y-93479815D01*
X83326988Y-93427011D01*
X83317044Y-93357853D01*
X83346069Y-93294297D01*
X83352101Y-93287819D01*
X85827136Y-90812785D01*
X85827136Y-90812784D01*
X85827139Y-90812782D01*
X85866714Y-90753553D01*
X85936631Y-90648916D01*
X85936636Y-90648906D01*
X86012049Y-90466839D01*
X86012051Y-90466835D01*
X86028214Y-90385580D01*
X86050500Y-90273543D01*
X86050500Y-89285199D01*
X86070185Y-89218160D01*
X86079471Y-89205664D01*
X86205048Y-89032820D01*
X86205047Y-89032820D01*
X86205051Y-89032816D01*
X86301557Y-88843412D01*
X86367246Y-88641243D01*
X86400500Y-88431287D01*
X86400500Y-87918713D01*
X86367246Y-87708757D01*
X86301557Y-87506588D01*
X86205051Y-87317184D01*
X86205049Y-87317181D01*
X86205048Y-87317179D01*
X86080109Y-87145213D01*
X85929786Y-86994890D01*
X85757820Y-86869951D01*
X85568414Y-86773444D01*
X85568413Y-86773443D01*
X85568412Y-86773443D01*
X85366243Y-86707754D01*
X85366241Y-86707753D01*
X85366240Y-86707753D01*
X85204957Y-86682208D01*
X85156287Y-86674500D01*
X84943713Y-86674500D01*
X84895042Y-86682208D01*
X84733760Y-86707753D01*
X84531585Y-86773444D01*
X84342179Y-86869951D01*
X84170215Y-86994889D01*
X84031398Y-87133706D01*
X83970075Y-87167190D01*
X83900383Y-87162206D01*
X83844450Y-87120334D01*
X83838178Y-87111120D01*
X83742712Y-86956344D01*
X83618657Y-86832289D01*
X83618656Y-86832288D01*
X83469334Y-86740186D01*
X83302797Y-86685001D01*
X83302795Y-86685000D01*
X83200010Y-86674500D01*
X81899998Y-86674500D01*
X81899981Y-86674501D01*
X81797203Y-86685000D01*
X81797200Y-86685001D01*
X81630668Y-86740185D01*
X81630663Y-86740187D01*
X81481342Y-86832289D01*
X81357289Y-86956342D01*
X81265187Y-87105663D01*
X81265185Y-87105668D01*
X81252083Y-87145208D01*
X81210001Y-87272203D01*
X81210001Y-87272204D01*
X81210000Y-87272204D01*
X81199500Y-87374983D01*
X81199500Y-88975001D01*
X81199501Y-88975018D01*
X81210000Y-89077796D01*
X81210001Y-89077799D01*
X81265185Y-89244331D01*
X81265187Y-89244336D01*
X81280604Y-89269331D01*
X81357288Y-89393656D01*
X81481344Y-89517712D01*
X81630666Y-89609814D01*
X81797203Y-89664999D01*
X81899991Y-89675500D01*
X83200008Y-89675499D01*
X83302797Y-89664999D01*
X83469334Y-89609814D01*
X83618656Y-89517712D01*
X83742712Y-89393656D01*
X83819961Y-89268413D01*
X83871909Y-89221689D01*
X83940871Y-89210466D01*
X84004953Y-89238309D01*
X84043810Y-89296378D01*
X84049500Y-89333510D01*
X84049500Y-89709217D01*
X84029815Y-89776256D01*
X84013181Y-89796898D01*
X81846899Y-91963181D01*
X81785576Y-91996666D01*
X81759218Y-91999500D01*
X74085657Y-91999500D01*
X74018618Y-91979815D01*
X73972863Y-91927011D01*
X73962919Y-91857853D01*
X73991944Y-91794297D01*
X74026640Y-91766445D01*
X74223228Y-91660057D01*
X74223231Y-91660055D01*
X74270056Y-91623609D01*
X73529409Y-90882962D01*
X73592993Y-90865925D01*
X73707007Y-90800099D01*
X73800099Y-90707007D01*
X73865925Y-90592993D01*
X73882962Y-90529409D01*
X74623434Y-91269882D01*
X74723731Y-91116369D01*
X74823587Y-90888717D01*
X74884612Y-90647738D01*
X74884614Y-90647729D01*
X74905141Y-90400005D01*
X74905141Y-90399994D01*
X74884614Y-90152270D01*
X74884612Y-90152261D01*
X74823587Y-89911282D01*
X74723731Y-89683630D01*
X74623434Y-89530116D01*
X73882962Y-90270589D01*
X73865925Y-90207007D01*
X73800099Y-90092993D01*
X73707007Y-89999901D01*
X73592993Y-89934075D01*
X73529410Y-89917037D01*
X74270057Y-89176390D01*
X74270056Y-89176389D01*
X74223229Y-89139943D01*
X74195591Y-89124986D01*
X75100001Y-89124986D01*
X75110494Y-89227697D01*
X75165641Y-89394119D01*
X75165643Y-89394124D01*
X75257684Y-89543345D01*
X75381654Y-89667315D01*
X75530875Y-89759356D01*
X75530880Y-89759358D01*
X75697302Y-89814505D01*
X75697309Y-89814506D01*
X75800019Y-89824999D01*
X76049999Y-89824999D01*
X76550000Y-89824999D01*
X76799972Y-89824999D01*
X76799986Y-89824998D01*
X76902697Y-89814505D01*
X77069119Y-89759358D01*
X77069124Y-89759356D01*
X77218345Y-89667315D01*
X77342315Y-89543345D01*
X77434356Y-89394124D01*
X77434358Y-89394119D01*
X77489505Y-89227697D01*
X77489506Y-89227690D01*
X77499999Y-89124986D01*
X77500000Y-89124973D01*
X77500000Y-89062500D01*
X76550000Y-89062500D01*
X76550000Y-89824999D01*
X76049999Y-89824999D01*
X76050000Y-89824998D01*
X76050000Y-89062500D01*
X75100001Y-89062500D01*
X75100001Y-89124986D01*
X74195591Y-89124986D01*
X74004614Y-89021635D01*
X74004603Y-89021630D01*
X73769493Y-88940916D01*
X73524293Y-88900000D01*
X73275707Y-88900000D01*
X73030506Y-88940916D01*
X72795396Y-89021630D01*
X72795390Y-89021632D01*
X72576761Y-89139949D01*
X72529942Y-89176388D01*
X72529942Y-89176390D01*
X73270590Y-89917037D01*
X73207007Y-89934075D01*
X73092993Y-89999901D01*
X72999901Y-90092993D01*
X72934075Y-90207007D01*
X72917037Y-90270589D01*
X72176564Y-89530116D01*
X72076267Y-89683632D01*
X71976412Y-89911282D01*
X71915387Y-90152261D01*
X71915385Y-90152270D01*
X71894859Y-90399994D01*
X71894859Y-90400005D01*
X71915385Y-90647729D01*
X71915387Y-90647738D01*
X71976412Y-90888717D01*
X72076266Y-91116364D01*
X72176564Y-91269882D01*
X72917037Y-90529409D01*
X72934075Y-90592993D01*
X72999901Y-90707007D01*
X73092993Y-90800099D01*
X73207007Y-90865925D01*
X73270590Y-90882962D01*
X72529942Y-91623609D01*
X72576768Y-91660055D01*
X72576770Y-91660056D01*
X72773360Y-91766445D01*
X72822951Y-91815664D01*
X72838059Y-91883881D01*
X72813889Y-91949437D01*
X72758113Y-91991518D01*
X72714343Y-91999500D01*
X64965782Y-91999500D01*
X64898743Y-91979815D01*
X64878101Y-91963181D01*
X63336819Y-90421899D01*
X63303334Y-90360576D01*
X63300500Y-90334218D01*
X63300500Y-89653957D01*
X63320185Y-89586918D01*
X63359407Y-89548416D01*
X63368656Y-89542712D01*
X63492712Y-89418656D01*
X63584814Y-89269334D01*
X63584814Y-89269331D01*
X63588178Y-89263879D01*
X63640126Y-89217154D01*
X63709088Y-89205931D01*
X63773170Y-89233774D01*
X63781398Y-89241294D01*
X63920213Y-89380109D01*
X64092179Y-89505048D01*
X64092181Y-89505049D01*
X64092184Y-89505051D01*
X64281588Y-89601557D01*
X64483757Y-89667246D01*
X64693713Y-89700500D01*
X64693714Y-89700500D01*
X64906286Y-89700500D01*
X64906287Y-89700500D01*
X65116243Y-89667246D01*
X65318412Y-89601557D01*
X65507816Y-89505051D01*
X65529789Y-89489086D01*
X65679786Y-89380109D01*
X65679788Y-89380106D01*
X65679792Y-89380104D01*
X65830104Y-89229792D01*
X65830106Y-89229788D01*
X65830109Y-89229786D01*
X65955048Y-89057820D01*
X65955047Y-89057820D01*
X65955051Y-89057816D01*
X66051557Y-88868412D01*
X66117246Y-88666243D01*
X66150500Y-88456287D01*
X66150500Y-87943713D01*
X66117246Y-87733757D01*
X66051557Y-87531588D01*
X65955051Y-87342184D01*
X65955049Y-87342181D01*
X65955048Y-87342179D01*
X65830109Y-87170213D01*
X65679786Y-87019890D01*
X65507820Y-86894951D01*
X65318414Y-86798444D01*
X65318413Y-86798443D01*
X65318412Y-86798443D01*
X65116243Y-86732754D01*
X65116241Y-86732753D01*
X65116240Y-86732753D01*
X64954957Y-86707208D01*
X64906287Y-86699500D01*
X64693713Y-86699500D01*
X64645042Y-86707208D01*
X64483760Y-86732753D01*
X64281585Y-86798444D01*
X64092179Y-86894951D01*
X63920215Y-87019889D01*
X63781398Y-87158706D01*
X63720075Y-87192190D01*
X63650383Y-87187206D01*
X63594450Y-87145334D01*
X63588178Y-87136120D01*
X63492712Y-86981344D01*
X63368657Y-86857289D01*
X63368656Y-86857288D01*
X63273253Y-86798443D01*
X63219336Y-86765187D01*
X63219331Y-86765185D01*
X63196272Y-86757544D01*
X63052797Y-86710001D01*
X63052795Y-86710000D01*
X62950010Y-86699500D01*
X61649998Y-86699500D01*
X61649981Y-86699501D01*
X61547203Y-86710000D01*
X61547200Y-86710001D01*
X61380668Y-86765185D01*
X61380663Y-86765187D01*
X61231342Y-86857289D01*
X61107289Y-86981342D01*
X61015187Y-87130663D01*
X61015185Y-87130668D01*
X61003083Y-87167190D01*
X60960001Y-87297203D01*
X60960001Y-87297204D01*
X60960000Y-87297204D01*
X60949500Y-87399983D01*
X60949500Y-89000001D01*
X60949501Y-89000018D01*
X60960000Y-89102796D01*
X60960001Y-89102799D01*
X61015185Y-89269331D01*
X61015187Y-89269336D01*
X61031867Y-89296378D01*
X61107288Y-89418656D01*
X61231344Y-89542712D01*
X61240591Y-89548416D01*
X61287318Y-89600360D01*
X61299500Y-89653957D01*
X61299500Y-90898541D01*
X61299500Y-90898543D01*
X61299499Y-90898543D01*
X61337947Y-91091829D01*
X61337950Y-91091839D01*
X61413364Y-91273907D01*
X61413371Y-91273920D01*
X61522860Y-91437781D01*
X61522863Y-91437785D01*
X61666537Y-91581459D01*
X61666559Y-91581479D01*
X63372899Y-93287819D01*
X63406384Y-93349142D01*
X63401400Y-93418834D01*
X63359528Y-93474767D01*
X63294064Y-93499184D01*
X63285218Y-93499500D01*
X59624500Y-93499500D01*
X59557461Y-93479815D01*
X59511706Y-93427011D01*
X59500500Y-93375500D01*
X59500500Y-84352135D01*
X71899500Y-84352135D01*
X71899500Y-86447870D01*
X71899501Y-86447876D01*
X71905908Y-86507483D01*
X71956202Y-86642328D01*
X71956206Y-86642335D01*
X72042452Y-86757544D01*
X72042455Y-86757547D01*
X72157664Y-86843793D01*
X72157671Y-86843797D01*
X72292517Y-86894091D01*
X72292516Y-86894091D01*
X72299444Y-86894835D01*
X72352127Y-86900500D01*
X73434217Y-86900499D01*
X73501256Y-86920184D01*
X73521898Y-86936818D01*
X74207235Y-87622155D01*
X74207264Y-87622186D01*
X74349717Y-87764639D01*
X74513580Y-87874128D01*
X74513586Y-87874132D01*
X74595750Y-87908165D01*
X74695664Y-87949551D01*
X74792312Y-87968775D01*
X74840635Y-87978387D01*
X74888958Y-87988000D01*
X74888959Y-87988000D01*
X74888960Y-87988000D01*
X75086040Y-87988000D01*
X75093276Y-87988000D01*
X75160315Y-88007685D01*
X75206070Y-88060489D01*
X75216014Y-88129647D01*
X75198815Y-88177097D01*
X75165643Y-88230875D01*
X75165641Y-88230880D01*
X75110494Y-88397302D01*
X75110493Y-88397309D01*
X75100000Y-88500013D01*
X75100000Y-88562500D01*
X77499999Y-88562500D01*
X77499999Y-88500028D01*
X77499998Y-88500013D01*
X77489505Y-88397302D01*
X77434358Y-88230880D01*
X77434356Y-88230875D01*
X77342315Y-88081654D01*
X77248695Y-87988034D01*
X77215210Y-87926711D01*
X77220194Y-87857019D01*
X77248691Y-87812676D01*
X77342712Y-87718656D01*
X77434814Y-87569334D01*
X77489999Y-87402797D01*
X77500500Y-87300009D01*
X77500499Y-86674992D01*
X77489999Y-86572203D01*
X77434814Y-86405666D01*
X77342712Y-86256344D01*
X77218656Y-86132288D01*
X77069334Y-86040186D01*
X76902797Y-85985001D01*
X76902795Y-85985000D01*
X76800010Y-85974500D01*
X75799998Y-85974500D01*
X75799980Y-85974501D01*
X75690468Y-85985689D01*
X75690432Y-85985339D01*
X75674742Y-85987000D01*
X75453282Y-85987000D01*
X75386243Y-85967315D01*
X75365601Y-85950681D01*
X74936818Y-85521898D01*
X74903333Y-85460575D01*
X74900499Y-85434217D01*
X74900499Y-84352129D01*
X74900498Y-84352123D01*
X74900497Y-84352116D01*
X74894256Y-84294048D01*
X74894091Y-84292516D01*
X74843797Y-84157671D01*
X74843793Y-84157664D01*
X74757547Y-84042455D01*
X74757544Y-84042452D01*
X74642335Y-83956206D01*
X74642328Y-83956202D01*
X74507482Y-83905908D01*
X74507483Y-83905908D01*
X74447883Y-83899501D01*
X74447881Y-83899500D01*
X74447873Y-83899500D01*
X74447864Y-83899500D01*
X72352129Y-83899500D01*
X72352123Y-83899501D01*
X72292516Y-83905908D01*
X72157671Y-83956202D01*
X72157664Y-83956206D01*
X72042455Y-84042452D01*
X72042452Y-84042455D01*
X71956206Y-84157664D01*
X71956202Y-84157671D01*
X71905908Y-84292517D01*
X71899501Y-84352116D01*
X71899501Y-84352123D01*
X71899500Y-84352135D01*
X59500500Y-84352135D01*
X59500500Y-81493713D01*
X62099500Y-81493713D01*
X62099500Y-81706286D01*
X62131120Y-81905931D01*
X62132754Y-81916243D01*
X62172805Y-82039508D01*
X62198444Y-82118414D01*
X62294951Y-82307820D01*
X62419890Y-82479786D01*
X62570213Y-82630109D01*
X62742179Y-82755048D01*
X62742181Y-82755049D01*
X62742184Y-82755051D01*
X62931588Y-82851557D01*
X63133757Y-82917246D01*
X63343713Y-82950500D01*
X63343714Y-82950500D01*
X63856286Y-82950500D01*
X63856287Y-82950500D01*
X64066243Y-82917246D01*
X64268412Y-82851557D01*
X64457816Y-82755051D01*
X64481084Y-82738146D01*
X64629786Y-82630109D01*
X64629788Y-82630106D01*
X64629792Y-82630104D01*
X64780104Y-82479792D01*
X64780106Y-82479788D01*
X64780109Y-82479786D01*
X64905048Y-82307820D01*
X64905047Y-82307820D01*
X64905051Y-82307816D01*
X65001557Y-82118412D01*
X65067246Y-81916243D01*
X65100500Y-81706287D01*
X65100500Y-81493713D01*
X65067246Y-81283757D01*
X65001557Y-81081588D01*
X64905830Y-80893713D01*
X68149500Y-80893713D01*
X68149500Y-81106286D01*
X68177608Y-81283757D01*
X68182754Y-81316243D01*
X68244394Y-81505952D01*
X68248444Y-81518414D01*
X68344951Y-81707820D01*
X68469890Y-81879786D01*
X68620213Y-82030109D01*
X68792179Y-82155048D01*
X68792181Y-82155049D01*
X68792184Y-82155051D01*
X68981588Y-82251557D01*
X69183757Y-82317246D01*
X69393713Y-82350500D01*
X69393714Y-82350500D01*
X69606286Y-82350500D01*
X69606287Y-82350500D01*
X69816243Y-82317246D01*
X70018412Y-82251557D01*
X70207816Y-82155051D01*
X70258246Y-82118412D01*
X70379786Y-82030109D01*
X70379788Y-82030106D01*
X70379792Y-82030104D01*
X70530104Y-81879792D01*
X70530106Y-81879788D01*
X70530109Y-81879786D01*
X70550198Y-81852135D01*
X79107000Y-81852135D01*
X79107000Y-83947870D01*
X79107001Y-83947876D01*
X79113408Y-84007483D01*
X79163702Y-84142328D01*
X79163706Y-84142335D01*
X79249952Y-84257544D01*
X79249955Y-84257547D01*
X79365164Y-84343793D01*
X79365171Y-84343797D01*
X79500017Y-84394091D01*
X79500016Y-84394091D01*
X79506944Y-84394835D01*
X79559627Y-84400500D01*
X81560372Y-84400499D01*
X81619983Y-84394091D01*
X81754831Y-84343796D01*
X81870046Y-84257546D01*
X81956296Y-84142331D01*
X81966690Y-84114460D01*
X82008560Y-84058527D01*
X82074023Y-84034108D01*
X82142297Y-84048958D01*
X82155746Y-84057465D01*
X82338462Y-84190217D01*
X82470599Y-84257544D01*
X82542244Y-84294049D01*
X82759751Y-84364721D01*
X82759752Y-84364721D01*
X82759755Y-84364722D01*
X82985646Y-84400500D01*
X82985647Y-84400500D01*
X83214353Y-84400500D01*
X83214354Y-84400500D01*
X83440245Y-84364722D01*
X83440248Y-84364721D01*
X83440249Y-84364721D01*
X83657755Y-84294049D01*
X83657755Y-84294048D01*
X83657758Y-84294048D01*
X83861538Y-84190217D01*
X84046566Y-84055786D01*
X84208286Y-83894066D01*
X84269992Y-83809134D01*
X84325319Y-83766470D01*
X84394932Y-83760491D01*
X84456727Y-83793096D01*
X84470626Y-83809135D01*
X84532097Y-83893741D01*
X84532097Y-83893742D01*
X84693757Y-84055402D01*
X84878723Y-84189788D01*
X85082429Y-84293582D01*
X85299871Y-84364234D01*
X85390000Y-84378509D01*
X85390000Y-83390747D01*
X85427708Y-83412518D01*
X85567591Y-83450000D01*
X85712409Y-83450000D01*
X85852292Y-83412518D01*
X85890000Y-83390747D01*
X85890000Y-84378508D01*
X85980128Y-84364234D01*
X86197570Y-84293582D01*
X86401276Y-84189788D01*
X86586242Y-84055402D01*
X86747902Y-83893742D01*
X86882288Y-83708776D01*
X86986082Y-83505070D01*
X87056734Y-83287628D01*
X87078532Y-83150000D01*
X86130748Y-83150000D01*
X86152518Y-83112292D01*
X86190000Y-82972409D01*
X86190000Y-82827591D01*
X86152518Y-82687708D01*
X86130748Y-82650000D01*
X87078532Y-82650000D01*
X87056734Y-82512371D01*
X86986082Y-82294929D01*
X86882288Y-82091223D01*
X86747902Y-81906257D01*
X86586242Y-81744597D01*
X86401276Y-81610211D01*
X86197568Y-81506417D01*
X85980124Y-81435765D01*
X85890000Y-81421490D01*
X85890000Y-82409252D01*
X85852292Y-82387482D01*
X85712409Y-82350000D01*
X85567591Y-82350000D01*
X85427708Y-82387482D01*
X85390000Y-82409252D01*
X85390000Y-81421490D01*
X85389999Y-81421490D01*
X85299875Y-81435765D01*
X85082431Y-81506417D01*
X84878723Y-81610211D01*
X84693757Y-81744597D01*
X84532097Y-81906257D01*
X84470627Y-81990864D01*
X84415297Y-82033529D01*
X84345684Y-82039508D01*
X84283889Y-82006902D01*
X84269991Y-81990864D01*
X84208286Y-81905934D01*
X84046566Y-81744214D01*
X83861538Y-81609783D01*
X83657755Y-81505950D01*
X83440248Y-81435278D01*
X83254812Y-81405908D01*
X83214354Y-81399500D01*
X82985646Y-81399500D01*
X82945188Y-81405908D01*
X82759753Y-81435278D01*
X82759750Y-81435278D01*
X82542244Y-81505950D01*
X82338461Y-81609783D01*
X82155759Y-81742525D01*
X82089952Y-81766005D01*
X82021898Y-81750180D01*
X81973203Y-81700074D01*
X81966690Y-81685538D01*
X81956296Y-81657669D01*
X81956293Y-81657664D01*
X81870047Y-81542455D01*
X81870044Y-81542452D01*
X81754835Y-81456206D01*
X81754828Y-81456202D01*
X81619982Y-81405908D01*
X81619983Y-81405908D01*
X81560383Y-81399501D01*
X81560381Y-81399500D01*
X81560373Y-81399500D01*
X81560364Y-81399500D01*
X79559629Y-81399500D01*
X79559623Y-81399501D01*
X79500016Y-81405908D01*
X79365171Y-81456202D01*
X79365164Y-81456206D01*
X79249955Y-81542452D01*
X79249952Y-81542455D01*
X79163706Y-81657664D01*
X79163702Y-81657671D01*
X79113408Y-81792517D01*
X79107001Y-81852116D01*
X79107000Y-81852135D01*
X70550198Y-81852135D01*
X70655048Y-81707820D01*
X70655047Y-81707820D01*
X70655051Y-81707816D01*
X70751557Y-81518412D01*
X70817246Y-81316243D01*
X70850500Y-81106287D01*
X70850500Y-80893713D01*
X70817246Y-80683757D01*
X70751557Y-80481588D01*
X70655051Y-80292184D01*
X70655049Y-80292181D01*
X70655048Y-80292179D01*
X70530109Y-80120213D01*
X70379786Y-79969890D01*
X70207820Y-79844951D01*
X70018414Y-79748444D01*
X70018413Y-79748443D01*
X70018412Y-79748443D01*
X69816243Y-79682754D01*
X69816241Y-79682753D01*
X69816240Y-79682753D01*
X69654957Y-79657208D01*
X69606287Y-79649500D01*
X69393713Y-79649500D01*
X69345042Y-79657208D01*
X69183760Y-79682753D01*
X68981585Y-79748444D01*
X68792179Y-79844951D01*
X68620213Y-79969890D01*
X68469890Y-80120213D01*
X68344951Y-80292179D01*
X68248444Y-80481585D01*
X68182753Y-80683760D01*
X68149500Y-80893713D01*
X64905830Y-80893713D01*
X64905051Y-80892184D01*
X64905049Y-80892181D01*
X64905048Y-80892179D01*
X64780109Y-80720213D01*
X64640931Y-80581035D01*
X64607446Y-80519712D01*
X64612430Y-80450020D01*
X64654302Y-80394087D01*
X64663516Y-80387815D01*
X64818343Y-80292317D01*
X64942315Y-80168345D01*
X65034356Y-80019124D01*
X65034358Y-80019119D01*
X65089505Y-79852697D01*
X65089506Y-79852690D01*
X65099999Y-79749986D01*
X65100000Y-79749973D01*
X65100000Y-79350000D01*
X64033012Y-79350000D01*
X64065925Y-79292993D01*
X64100000Y-79165826D01*
X64100000Y-79034174D01*
X64065925Y-78907007D01*
X64033012Y-78850000D01*
X65099999Y-78850000D01*
X65099999Y-78450028D01*
X65099998Y-78450013D01*
X65089505Y-78347302D01*
X65034358Y-78180880D01*
X65034356Y-78180875D01*
X64942315Y-78031654D01*
X64818345Y-77907684D01*
X64669124Y-77815643D01*
X64669119Y-77815641D01*
X64502697Y-77760494D01*
X64502690Y-77760493D01*
X64399986Y-77750000D01*
X63850000Y-77750000D01*
X63850000Y-78666988D01*
X63792993Y-78634075D01*
X63665826Y-78600000D01*
X63534174Y-78600000D01*
X63407007Y-78634075D01*
X63350000Y-78666988D01*
X63350000Y-77750000D01*
X62800028Y-77750000D01*
X62800012Y-77750001D01*
X62697302Y-77760494D01*
X62530880Y-77815641D01*
X62530875Y-77815643D01*
X62381654Y-77907684D01*
X62257684Y-78031654D01*
X62165643Y-78180875D01*
X62165641Y-78180880D01*
X62110494Y-78347302D01*
X62110493Y-78347309D01*
X62100000Y-78450013D01*
X62100000Y-78850000D01*
X63166988Y-78850000D01*
X63134075Y-78907007D01*
X63100000Y-79034174D01*
X63100000Y-79165826D01*
X63134075Y-79292993D01*
X63166988Y-79350000D01*
X62100001Y-79350000D01*
X62100001Y-79749986D01*
X62110494Y-79852697D01*
X62165641Y-80019119D01*
X62165643Y-80019124D01*
X62257684Y-80168345D01*
X62381654Y-80292315D01*
X62536484Y-80387815D01*
X62583208Y-80439763D01*
X62594431Y-80508726D01*
X62566587Y-80572808D01*
X62559069Y-80581035D01*
X62419889Y-80720215D01*
X62294951Y-80892179D01*
X62198444Y-81081585D01*
X62132753Y-81283760D01*
X62099500Y-81493713D01*
X59500500Y-81493713D01*
X59500500Y-74050000D01*
X69881468Y-74050000D01*
X70829252Y-74050000D01*
X70807482Y-74087708D01*
X70770000Y-74227591D01*
X70770000Y-74372409D01*
X70807482Y-74512292D01*
X70829252Y-74550000D01*
X69881468Y-74550000D01*
X69903265Y-74687628D01*
X69973917Y-74905070D01*
X70077711Y-75108776D01*
X70212097Y-75293742D01*
X70373757Y-75455402D01*
X70558723Y-75589788D01*
X70762429Y-75693582D01*
X70979871Y-75764234D01*
X71070000Y-75778509D01*
X71070000Y-74790747D01*
X71107708Y-74812518D01*
X71247591Y-74850000D01*
X71392409Y-74850000D01*
X71532292Y-74812518D01*
X71570000Y-74790747D01*
X71570000Y-75778508D01*
X71660128Y-75764234D01*
X71877570Y-75693582D01*
X72081276Y-75589788D01*
X72266242Y-75455402D01*
X72427905Y-75293739D01*
X72489371Y-75209137D01*
X72544701Y-75166470D01*
X72614314Y-75160491D01*
X72676109Y-75193096D01*
X72690007Y-75209134D01*
X72751714Y-75294066D01*
X72751716Y-75294068D01*
X72823181Y-75365533D01*
X72856666Y-75426856D01*
X72859500Y-75453214D01*
X72859500Y-75458544D01*
X72897947Y-75651829D01*
X72897949Y-75651836D01*
X72902248Y-75662213D01*
X72902249Y-75662220D01*
X72902250Y-75662220D01*
X72973364Y-75833907D01*
X72973371Y-75833920D01*
X73082859Y-75997780D01*
X73082860Y-75997781D01*
X73082861Y-75997782D01*
X73222218Y-76137139D01*
X73222219Y-76137139D01*
X73229286Y-76144206D01*
X73229285Y-76144206D01*
X73229288Y-76144208D01*
X74022860Y-76937781D01*
X74022861Y-76937782D01*
X74162218Y-77077139D01*
X74162219Y-77077140D01*
X74326079Y-77186628D01*
X74326092Y-77186635D01*
X74454833Y-77239961D01*
X74497744Y-77257735D01*
X74508164Y-77262051D01*
X74604812Y-77281275D01*
X74653135Y-77290887D01*
X74701458Y-77300500D01*
X74701459Y-77300500D01*
X74701460Y-77300500D01*
X74898540Y-77300500D01*
X81489242Y-77300500D01*
X81556281Y-77320185D01*
X81576923Y-77336819D01*
X81720213Y-77480109D01*
X81892179Y-77605048D01*
X81892181Y-77605049D01*
X81892184Y-77605051D01*
X82081588Y-77701557D01*
X82283757Y-77767246D01*
X82493713Y-77800500D01*
X82493714Y-77800500D01*
X82706286Y-77800500D01*
X82706287Y-77800500D01*
X82916243Y-77767246D01*
X83118412Y-77701557D01*
X83307816Y-77605051D01*
X83365141Y-77563402D01*
X83479784Y-77480110D01*
X83479784Y-77480109D01*
X83479792Y-77480104D01*
X83618967Y-77340928D01*
X83680286Y-77307446D01*
X83749978Y-77312430D01*
X83805912Y-77354301D01*
X83812184Y-77363515D01*
X83907684Y-77518345D01*
X84031654Y-77642315D01*
X84180875Y-77734356D01*
X84180880Y-77734358D01*
X84347302Y-77789505D01*
X84347309Y-77789506D01*
X84450019Y-77799999D01*
X84849999Y-77799999D01*
X84850000Y-77799998D01*
X84850000Y-76733012D01*
X84907007Y-76765925D01*
X85034174Y-76800000D01*
X85165826Y-76800000D01*
X85292993Y-76765925D01*
X85350000Y-76733012D01*
X85350000Y-77799999D01*
X85749972Y-77799999D01*
X85749986Y-77799998D01*
X85852697Y-77789505D01*
X86019119Y-77734358D01*
X86019124Y-77734356D01*
X86168345Y-77642315D01*
X86292315Y-77518345D01*
X86384356Y-77369124D01*
X86384358Y-77369119D01*
X86439505Y-77202697D01*
X86439506Y-77202690D01*
X86449999Y-77099986D01*
X86450000Y-77099973D01*
X86450000Y-76550000D01*
X85533012Y-76550000D01*
X85565925Y-76492993D01*
X85600000Y-76365826D01*
X85600000Y-76234174D01*
X85565925Y-76107007D01*
X85533012Y-76050000D01*
X86449999Y-76050000D01*
X86449999Y-75500028D01*
X86449998Y-75500013D01*
X86439505Y-75397302D01*
X86384358Y-75230880D01*
X86384356Y-75230875D01*
X86292315Y-75081654D01*
X86168345Y-74957684D01*
X86019124Y-74865643D01*
X86019119Y-74865641D01*
X85852697Y-74810494D01*
X85852690Y-74810493D01*
X85749986Y-74800000D01*
X85350000Y-74800000D01*
X85350000Y-75866988D01*
X85292993Y-75834075D01*
X85165826Y-75800000D01*
X85034174Y-75800000D01*
X84907007Y-75834075D01*
X84850000Y-75866988D01*
X84850000Y-74800000D01*
X84450028Y-74800000D01*
X84450012Y-74800001D01*
X84347302Y-74810494D01*
X84180880Y-74865641D01*
X84180875Y-74865643D01*
X84031654Y-74957684D01*
X83907683Y-75081655D01*
X83907680Y-75081659D01*
X83812183Y-75236484D01*
X83760235Y-75283209D01*
X83691273Y-75294430D01*
X83627191Y-75266587D01*
X83618964Y-75259068D01*
X83479786Y-75119890D01*
X83307820Y-74994951D01*
X83118414Y-74898444D01*
X83118413Y-74898443D01*
X83118412Y-74898443D01*
X82916243Y-74832754D01*
X82916241Y-74832753D01*
X82916240Y-74832753D01*
X82754957Y-74807208D01*
X82706287Y-74799500D01*
X82493713Y-74799500D01*
X82445042Y-74807208D01*
X82283760Y-74832753D01*
X82081585Y-74898444D01*
X81892179Y-74994951D01*
X81720213Y-75119890D01*
X81720209Y-75119894D01*
X81576923Y-75263181D01*
X81515600Y-75296666D01*
X81489242Y-75299500D01*
X77977000Y-75299500D01*
X77909961Y-75279815D01*
X77864206Y-75227011D01*
X77853000Y-75175500D01*
X77852999Y-73252129D01*
X77852998Y-73252123D01*
X77846591Y-73192516D01*
X77796297Y-73057671D01*
X77796293Y-73057664D01*
X77710047Y-72942455D01*
X77710044Y-72942452D01*
X77594835Y-72856206D01*
X77594828Y-72856202D01*
X77459982Y-72805908D01*
X77459983Y-72805908D01*
X77400383Y-72799501D01*
X77400381Y-72799500D01*
X77400373Y-72799500D01*
X77400364Y-72799500D01*
X75399629Y-72799500D01*
X75399623Y-72799501D01*
X75340016Y-72805908D01*
X75205171Y-72856202D01*
X75205164Y-72856206D01*
X75089955Y-72942452D01*
X75089952Y-72942455D01*
X75003706Y-73057664D01*
X75003703Y-73057670D01*
X74993308Y-73085541D01*
X74951436Y-73141474D01*
X74885972Y-73165891D01*
X74817699Y-73151039D01*
X74804250Y-73142531D01*
X74621538Y-73009783D01*
X74417755Y-72905950D01*
X74200248Y-72835278D01*
X74014812Y-72805908D01*
X73974354Y-72799500D01*
X73745646Y-72799500D01*
X73705188Y-72805908D01*
X73519753Y-72835278D01*
X73519750Y-72835278D01*
X73302244Y-72905950D01*
X73098461Y-73009783D01*
X73032551Y-73057670D01*
X72913434Y-73144214D01*
X72913432Y-73144216D01*
X72913431Y-73144216D01*
X72751716Y-73305931D01*
X72751709Y-73305940D01*
X72690007Y-73390864D01*
X72634677Y-73433530D01*
X72565063Y-73439508D01*
X72503269Y-73406901D01*
X72489372Y-73390863D01*
X72427907Y-73306263D01*
X72427902Y-73306257D01*
X72266242Y-73144597D01*
X72081276Y-73010211D01*
X71877568Y-72906417D01*
X71660124Y-72835765D01*
X71570000Y-72821490D01*
X71570000Y-73809252D01*
X71532292Y-73787482D01*
X71392409Y-73750000D01*
X71247591Y-73750000D01*
X71107708Y-73787482D01*
X71070000Y-73809252D01*
X71070000Y-72821490D01*
X71069999Y-72821490D01*
X70979875Y-72835765D01*
X70762431Y-72906417D01*
X70558723Y-73010211D01*
X70373757Y-73144597D01*
X70212097Y-73306257D01*
X70077711Y-73491223D01*
X69973917Y-73694929D01*
X69903265Y-73912371D01*
X69881468Y-74050000D01*
X59500500Y-74050000D01*
X59500500Y-72624500D01*
X59520185Y-72557461D01*
X59572989Y-72511706D01*
X59624500Y-72500500D01*
X88375500Y-72500500D01*
X88442539Y-72520185D01*
G37*
%TD.AperFunction*%
%TD*%
M02*
