%TF.GenerationSoftware,KiCad,Pcbnew,8.0.6-8.0.6-0~ubuntu24.04.1*%
%TF.CreationDate,2024-10-25T12:09:54+03:00*%
%TF.ProjectId,pss_v2_fan_block,7073735f-7632-45f6-9661-6e5f626c6f63,rev?*%
%TF.SameCoordinates,Original*%
%TF.FileFunction,Drillmap*%
%TF.FilePolarity,Positive*%
%FSLAX45Y45*%
G04 Gerber Fmt 4.5, Leading zero omitted, Abs format (unit mm)*
G04 Created by KiCad (PCBNEW 8.0.6-8.0.6-0~ubuntu24.04.1) date 2024-10-25 12:09:54*
%MOMM*%
%LPD*%
G01*
G04 APERTURE LIST*
%ADD10C,0.050000*%
%ADD11C,0.200000*%
%ADD12C,0.100000*%
%ADD13C,0.110000*%
G04 APERTURE END LIST*
D10*
X5900000Y-7200000D02*
X8900000Y-7200000D01*
X8900000Y-9400000D01*
X5900000Y-9400000D01*
X5900000Y-7200000D01*
D11*
D12*
X6180000Y-8770000D02*
X6280000Y-8870000D01*
X6280000Y-8770000D02*
X6180000Y-8870000D01*
X6310000Y-7860000D02*
X6410000Y-7960000D01*
X6410000Y-7860000D02*
X6310000Y-7960000D01*
X6310000Y-8110000D02*
X6410000Y-8210000D01*
X6410000Y-8110000D02*
X6310000Y-8210000D01*
X6430000Y-8770000D02*
X6530000Y-8870000D01*
X6530000Y-8770000D02*
X6430000Y-8870000D01*
X7290000Y-8490000D02*
X7390000Y-8590000D01*
X7390000Y-8490000D02*
X7290000Y-8590000D01*
X7290000Y-8990000D02*
X7390000Y-9090000D01*
X7390000Y-8990000D02*
X7290000Y-9090000D01*
X8205000Y-8767500D02*
X8305000Y-8867500D01*
X8305000Y-8767500D02*
X8205000Y-8867500D01*
X8210000Y-7580000D02*
X8310000Y-7680000D01*
X8310000Y-7580000D02*
X8210000Y-7680000D01*
X8455000Y-8767500D02*
X8555000Y-8867500D01*
X8555000Y-8767500D02*
X8455000Y-8867500D01*
X8460000Y-7580000D02*
X8560000Y-7680000D01*
X8560000Y-7580000D02*
X8460000Y-7680000D01*
D13*
X7187000Y-7430000D02*
G75*
G02*
X7077000Y-7430000I-55000J0D01*
G01*
X7077000Y-7430000D02*
G75*
G02*
X7187000Y-7430000I55000J0D01*
G01*
X7441000Y-7430000D02*
G75*
G02*
X7331000Y-7430000I-55000J0D01*
G01*
X7331000Y-7430000D02*
G75*
G02*
X7441000Y-7430000I55000J0D01*
G01*
X7695000Y-7430000D02*
G75*
G02*
X7585000Y-7430000I-55000J0D01*
G01*
X7585000Y-7430000D02*
G75*
G02*
X7695000Y-7430000I55000J0D01*
G01*
X8111000Y-8290000D02*
G75*
G02*
X8001000Y-8290000I-55000J0D01*
G01*
X8001000Y-8290000D02*
G75*
G02*
X8111000Y-8290000I55000J0D01*
G01*
X8365000Y-8290000D02*
G75*
G02*
X8255000Y-8290000I-55000J0D01*
G01*
X8255000Y-8290000D02*
G75*
G02*
X8365000Y-8290000I55000J0D01*
G01*
X8619000Y-8290000D02*
G75*
G02*
X8509000Y-8290000I-55000J0D01*
G01*
X8509000Y-8290000D02*
G75*
G02*
X8619000Y-8290000I55000J0D01*
G01*
D11*
X6158277Y-9713984D02*
X6158277Y-9513984D01*
X6158277Y-9513984D02*
X6205896Y-9513984D01*
X6205896Y-9513984D02*
X6234467Y-9523508D01*
X6234467Y-9523508D02*
X6253515Y-9542555D01*
X6253515Y-9542555D02*
X6263039Y-9561603D01*
X6263039Y-9561603D02*
X6272562Y-9599698D01*
X6272562Y-9599698D02*
X6272562Y-9628270D01*
X6272562Y-9628270D02*
X6263039Y-9666365D01*
X6263039Y-9666365D02*
X6253515Y-9685412D01*
X6253515Y-9685412D02*
X6234467Y-9704460D01*
X6234467Y-9704460D02*
X6205896Y-9713984D01*
X6205896Y-9713984D02*
X6158277Y-9713984D01*
X6358277Y-9713984D02*
X6358277Y-9580650D01*
X6358277Y-9618746D02*
X6367801Y-9599698D01*
X6367801Y-9599698D02*
X6377324Y-9590174D01*
X6377324Y-9590174D02*
X6396372Y-9580650D01*
X6396372Y-9580650D02*
X6415420Y-9580650D01*
X6482086Y-9713984D02*
X6482086Y-9580650D01*
X6482086Y-9513984D02*
X6472562Y-9523508D01*
X6472562Y-9523508D02*
X6482086Y-9533031D01*
X6482086Y-9533031D02*
X6491610Y-9523508D01*
X6491610Y-9523508D02*
X6482086Y-9513984D01*
X6482086Y-9513984D02*
X6482086Y-9533031D01*
X6605896Y-9713984D02*
X6586848Y-9704460D01*
X6586848Y-9704460D02*
X6577324Y-9685412D01*
X6577324Y-9685412D02*
X6577324Y-9513984D01*
X6710658Y-9713984D02*
X6691610Y-9704460D01*
X6691610Y-9704460D02*
X6682086Y-9685412D01*
X6682086Y-9685412D02*
X6682086Y-9513984D01*
X6939229Y-9713984D02*
X6939229Y-9513984D01*
X6939229Y-9513984D02*
X7005896Y-9656841D01*
X7005896Y-9656841D02*
X7072562Y-9513984D01*
X7072562Y-9513984D02*
X7072562Y-9713984D01*
X7253515Y-9713984D02*
X7253515Y-9609222D01*
X7253515Y-9609222D02*
X7243991Y-9590174D01*
X7243991Y-9590174D02*
X7224943Y-9580650D01*
X7224943Y-9580650D02*
X7186848Y-9580650D01*
X7186848Y-9580650D02*
X7167801Y-9590174D01*
X7253515Y-9704460D02*
X7234467Y-9713984D01*
X7234467Y-9713984D02*
X7186848Y-9713984D01*
X7186848Y-9713984D02*
X7167801Y-9704460D01*
X7167801Y-9704460D02*
X7158277Y-9685412D01*
X7158277Y-9685412D02*
X7158277Y-9666365D01*
X7158277Y-9666365D02*
X7167801Y-9647317D01*
X7167801Y-9647317D02*
X7186848Y-9637793D01*
X7186848Y-9637793D02*
X7234467Y-9637793D01*
X7234467Y-9637793D02*
X7253515Y-9628270D01*
X7348753Y-9580650D02*
X7348753Y-9780650D01*
X7348753Y-9590174D02*
X7367801Y-9580650D01*
X7367801Y-9580650D02*
X7405896Y-9580650D01*
X7405896Y-9580650D02*
X7424943Y-9590174D01*
X7424943Y-9590174D02*
X7434467Y-9599698D01*
X7434467Y-9599698D02*
X7443991Y-9618746D01*
X7443991Y-9618746D02*
X7443991Y-9675889D01*
X7443991Y-9675889D02*
X7434467Y-9694936D01*
X7434467Y-9694936D02*
X7424943Y-9704460D01*
X7424943Y-9704460D02*
X7405896Y-9713984D01*
X7405896Y-9713984D02*
X7367801Y-9713984D01*
X7367801Y-9713984D02*
X7348753Y-9704460D01*
X7529705Y-9694936D02*
X7539229Y-9704460D01*
X7539229Y-9704460D02*
X7529705Y-9713984D01*
X7529705Y-9713984D02*
X7520182Y-9704460D01*
X7520182Y-9704460D02*
X7529705Y-9694936D01*
X7529705Y-9694936D02*
X7529705Y-9713984D01*
X7529705Y-9590174D02*
X7539229Y-9599698D01*
X7539229Y-9599698D02*
X7529705Y-9609222D01*
X7529705Y-9609222D02*
X7520182Y-9599698D01*
X7520182Y-9599698D02*
X7529705Y-9590174D01*
X7529705Y-9590174D02*
X7529705Y-9609222D01*
D12*
X5797500Y-9992500D02*
X5897500Y-10092500D01*
X5897500Y-9992500D02*
X5797500Y-10092500D01*
D11*
X6263039Y-10133984D02*
X6148753Y-10133984D01*
X6205896Y-10133984D02*
X6205896Y-9933984D01*
X6205896Y-9933984D02*
X6186848Y-9962555D01*
X6186848Y-9962555D02*
X6167801Y-9981603D01*
X6167801Y-9981603D02*
X6148753Y-9991127D01*
X6348753Y-10114936D02*
X6358277Y-10124460D01*
X6358277Y-10124460D02*
X6348753Y-10133984D01*
X6348753Y-10133984D02*
X6339229Y-10124460D01*
X6339229Y-10124460D02*
X6348753Y-10114936D01*
X6348753Y-10114936D02*
X6348753Y-10133984D01*
X6482086Y-9933984D02*
X6501134Y-9933984D01*
X6501134Y-9933984D02*
X6520182Y-9943508D01*
X6520182Y-9943508D02*
X6529705Y-9953031D01*
X6529705Y-9953031D02*
X6539229Y-9972079D01*
X6539229Y-9972079D02*
X6548753Y-10010174D01*
X6548753Y-10010174D02*
X6548753Y-10057793D01*
X6548753Y-10057793D02*
X6539229Y-10095889D01*
X6539229Y-10095889D02*
X6529705Y-10114936D01*
X6529705Y-10114936D02*
X6520182Y-10124460D01*
X6520182Y-10124460D02*
X6501134Y-10133984D01*
X6501134Y-10133984D02*
X6482086Y-10133984D01*
X6482086Y-10133984D02*
X6463039Y-10124460D01*
X6463039Y-10124460D02*
X6453515Y-10114936D01*
X6453515Y-10114936D02*
X6443991Y-10095889D01*
X6443991Y-10095889D02*
X6434467Y-10057793D01*
X6434467Y-10057793D02*
X6434467Y-10010174D01*
X6434467Y-10010174D02*
X6443991Y-9972079D01*
X6443991Y-9972079D02*
X6453515Y-9953031D01*
X6453515Y-9953031D02*
X6463039Y-9943508D01*
X6463039Y-9943508D02*
X6482086Y-9933984D01*
X6672562Y-9933984D02*
X6691610Y-9933984D01*
X6691610Y-9933984D02*
X6710658Y-9943508D01*
X6710658Y-9943508D02*
X6720182Y-9953031D01*
X6720182Y-9953031D02*
X6729705Y-9972079D01*
X6729705Y-9972079D02*
X6739229Y-10010174D01*
X6739229Y-10010174D02*
X6739229Y-10057793D01*
X6739229Y-10057793D02*
X6729705Y-10095889D01*
X6729705Y-10095889D02*
X6720182Y-10114936D01*
X6720182Y-10114936D02*
X6710658Y-10124460D01*
X6710658Y-10124460D02*
X6691610Y-10133984D01*
X6691610Y-10133984D02*
X6672562Y-10133984D01*
X6672562Y-10133984D02*
X6653515Y-10124460D01*
X6653515Y-10124460D02*
X6643991Y-10114936D01*
X6643991Y-10114936D02*
X6634467Y-10095889D01*
X6634467Y-10095889D02*
X6624943Y-10057793D01*
X6624943Y-10057793D02*
X6624943Y-10010174D01*
X6624943Y-10010174D02*
X6634467Y-9972079D01*
X6634467Y-9972079D02*
X6643991Y-9953031D01*
X6643991Y-9953031D02*
X6653515Y-9943508D01*
X6653515Y-9943508D02*
X6672562Y-9933984D01*
X6863039Y-9933984D02*
X6882086Y-9933984D01*
X6882086Y-9933984D02*
X6901134Y-9943508D01*
X6901134Y-9943508D02*
X6910658Y-9953031D01*
X6910658Y-9953031D02*
X6920182Y-9972079D01*
X6920182Y-9972079D02*
X6929705Y-10010174D01*
X6929705Y-10010174D02*
X6929705Y-10057793D01*
X6929705Y-10057793D02*
X6920182Y-10095889D01*
X6920182Y-10095889D02*
X6910658Y-10114936D01*
X6910658Y-10114936D02*
X6901134Y-10124460D01*
X6901134Y-10124460D02*
X6882086Y-10133984D01*
X6882086Y-10133984D02*
X6863039Y-10133984D01*
X6863039Y-10133984D02*
X6843991Y-10124460D01*
X6843991Y-10124460D02*
X6834467Y-10114936D01*
X6834467Y-10114936D02*
X6824943Y-10095889D01*
X6824943Y-10095889D02*
X6815420Y-10057793D01*
X6815420Y-10057793D02*
X6815420Y-10010174D01*
X6815420Y-10010174D02*
X6824943Y-9972079D01*
X6824943Y-9972079D02*
X6834467Y-9953031D01*
X6834467Y-9953031D02*
X6843991Y-9943508D01*
X6843991Y-9943508D02*
X6863039Y-9933984D01*
X7015420Y-10133984D02*
X7015420Y-10000650D01*
X7015420Y-10019698D02*
X7024943Y-10010174D01*
X7024943Y-10010174D02*
X7043991Y-10000650D01*
X7043991Y-10000650D02*
X7072563Y-10000650D01*
X7072563Y-10000650D02*
X7091610Y-10010174D01*
X7091610Y-10010174D02*
X7101134Y-10029222D01*
X7101134Y-10029222D02*
X7101134Y-10133984D01*
X7101134Y-10029222D02*
X7110658Y-10010174D01*
X7110658Y-10010174D02*
X7129705Y-10000650D01*
X7129705Y-10000650D02*
X7158277Y-10000650D01*
X7158277Y-10000650D02*
X7177324Y-10010174D01*
X7177324Y-10010174D02*
X7186848Y-10029222D01*
X7186848Y-10029222D02*
X7186848Y-10133984D01*
X7282086Y-10133984D02*
X7282086Y-10000650D01*
X7282086Y-10019698D02*
X7291610Y-10010174D01*
X7291610Y-10010174D02*
X7310658Y-10000650D01*
X7310658Y-10000650D02*
X7339229Y-10000650D01*
X7339229Y-10000650D02*
X7358277Y-10010174D01*
X7358277Y-10010174D02*
X7367801Y-10029222D01*
X7367801Y-10029222D02*
X7367801Y-10133984D01*
X7367801Y-10029222D02*
X7377324Y-10010174D01*
X7377324Y-10010174D02*
X7396372Y-10000650D01*
X7396372Y-10000650D02*
X7424943Y-10000650D01*
X7424943Y-10000650D02*
X7443991Y-10010174D01*
X7443991Y-10010174D02*
X7453515Y-10029222D01*
X7453515Y-10029222D02*
X7453515Y-10133984D01*
X7843991Y-9924460D02*
X7672563Y-10181603D01*
X8101134Y-9933984D02*
X8120182Y-9933984D01*
X8120182Y-9933984D02*
X8139229Y-9943508D01*
X8139229Y-9943508D02*
X8148753Y-9953031D01*
X8148753Y-9953031D02*
X8158277Y-9972079D01*
X8158277Y-9972079D02*
X8167801Y-10010174D01*
X8167801Y-10010174D02*
X8167801Y-10057793D01*
X8167801Y-10057793D02*
X8158277Y-10095889D01*
X8158277Y-10095889D02*
X8148753Y-10114936D01*
X8148753Y-10114936D02*
X8139229Y-10124460D01*
X8139229Y-10124460D02*
X8120182Y-10133984D01*
X8120182Y-10133984D02*
X8101134Y-10133984D01*
X8101134Y-10133984D02*
X8082086Y-10124460D01*
X8082086Y-10124460D02*
X8072563Y-10114936D01*
X8072563Y-10114936D02*
X8063039Y-10095889D01*
X8063039Y-10095889D02*
X8053515Y-10057793D01*
X8053515Y-10057793D02*
X8053515Y-10010174D01*
X8053515Y-10010174D02*
X8063039Y-9972079D01*
X8063039Y-9972079D02*
X8072563Y-9953031D01*
X8072563Y-9953031D02*
X8082086Y-9943508D01*
X8082086Y-9943508D02*
X8101134Y-9933984D01*
X8253515Y-10114936D02*
X8263039Y-10124460D01*
X8263039Y-10124460D02*
X8253515Y-10133984D01*
X8253515Y-10133984D02*
X8243991Y-10124460D01*
X8243991Y-10124460D02*
X8253515Y-10114936D01*
X8253515Y-10114936D02*
X8253515Y-10133984D01*
X8386848Y-9933984D02*
X8405896Y-9933984D01*
X8405896Y-9933984D02*
X8424944Y-9943508D01*
X8424944Y-9943508D02*
X8434468Y-9953031D01*
X8434468Y-9953031D02*
X8443991Y-9972079D01*
X8443991Y-9972079D02*
X8453515Y-10010174D01*
X8453515Y-10010174D02*
X8453515Y-10057793D01*
X8453515Y-10057793D02*
X8443991Y-10095889D01*
X8443991Y-10095889D02*
X8434468Y-10114936D01*
X8434468Y-10114936D02*
X8424944Y-10124460D01*
X8424944Y-10124460D02*
X8405896Y-10133984D01*
X8405896Y-10133984D02*
X8386848Y-10133984D01*
X8386848Y-10133984D02*
X8367801Y-10124460D01*
X8367801Y-10124460D02*
X8358277Y-10114936D01*
X8358277Y-10114936D02*
X8348753Y-10095889D01*
X8348753Y-10095889D02*
X8339229Y-10057793D01*
X8339229Y-10057793D02*
X8339229Y-10010174D01*
X8339229Y-10010174D02*
X8348753Y-9972079D01*
X8348753Y-9972079D02*
X8358277Y-9953031D01*
X8358277Y-9953031D02*
X8367801Y-9943508D01*
X8367801Y-9943508D02*
X8386848Y-9933984D01*
X8520182Y-9933984D02*
X8643991Y-9933984D01*
X8643991Y-9933984D02*
X8577325Y-10010174D01*
X8577325Y-10010174D02*
X8605896Y-10010174D01*
X8605896Y-10010174D02*
X8624944Y-10019698D01*
X8624944Y-10019698D02*
X8634468Y-10029222D01*
X8634468Y-10029222D02*
X8643991Y-10048270D01*
X8643991Y-10048270D02*
X8643991Y-10095889D01*
X8643991Y-10095889D02*
X8634468Y-10114936D01*
X8634468Y-10114936D02*
X8624944Y-10124460D01*
X8624944Y-10124460D02*
X8605896Y-10133984D01*
X8605896Y-10133984D02*
X8548753Y-10133984D01*
X8548753Y-10133984D02*
X8529706Y-10124460D01*
X8529706Y-10124460D02*
X8520182Y-10114936D01*
X8739229Y-10133984D02*
X8777325Y-10133984D01*
X8777325Y-10133984D02*
X8796372Y-10124460D01*
X8796372Y-10124460D02*
X8805896Y-10114936D01*
X8805896Y-10114936D02*
X8824944Y-10086365D01*
X8824944Y-10086365D02*
X8834468Y-10048270D01*
X8834468Y-10048270D02*
X8834468Y-9972079D01*
X8834468Y-9972079D02*
X8824944Y-9953031D01*
X8824944Y-9953031D02*
X8815420Y-9943508D01*
X8815420Y-9943508D02*
X8796372Y-9933984D01*
X8796372Y-9933984D02*
X8758277Y-9933984D01*
X8758277Y-9933984D02*
X8739229Y-9943508D01*
X8739229Y-9943508D02*
X8729706Y-9953031D01*
X8729706Y-9953031D02*
X8720182Y-9972079D01*
X8720182Y-9972079D02*
X8720182Y-10019698D01*
X8720182Y-10019698D02*
X8729706Y-10038746D01*
X8729706Y-10038746D02*
X8739229Y-10048270D01*
X8739229Y-10048270D02*
X8758277Y-10057793D01*
X8758277Y-10057793D02*
X8796372Y-10057793D01*
X8796372Y-10057793D02*
X8815420Y-10048270D01*
X8815420Y-10048270D02*
X8824944Y-10038746D01*
X8824944Y-10038746D02*
X8834468Y-10019698D01*
X9005896Y-10000650D02*
X9005896Y-10133984D01*
X8958277Y-9924460D02*
X8910658Y-10067317D01*
X8910658Y-10067317D02*
X9034468Y-10067317D01*
X9101134Y-9933984D02*
X9101134Y-9972079D01*
X9177325Y-9933984D02*
X9177325Y-9972079D01*
X9472563Y-10210174D02*
X9463039Y-10200650D01*
X9463039Y-10200650D02*
X9443991Y-10172079D01*
X9443991Y-10172079D02*
X9434468Y-10153031D01*
X9434468Y-10153031D02*
X9424944Y-10124460D01*
X9424944Y-10124460D02*
X9415420Y-10076841D01*
X9415420Y-10076841D02*
X9415420Y-10038746D01*
X9415420Y-10038746D02*
X9424944Y-9991127D01*
X9424944Y-9991127D02*
X9434468Y-9962555D01*
X9434468Y-9962555D02*
X9443991Y-9943508D01*
X9443991Y-9943508D02*
X9463039Y-9914936D01*
X9463039Y-9914936D02*
X9472563Y-9905412D01*
X9653515Y-10133984D02*
X9539230Y-10133984D01*
X9596372Y-10133984D02*
X9596372Y-9933984D01*
X9596372Y-9933984D02*
X9577325Y-9962555D01*
X9577325Y-9962555D02*
X9558277Y-9981603D01*
X9558277Y-9981603D02*
X9539230Y-9991127D01*
X9777325Y-9933984D02*
X9796372Y-9933984D01*
X9796372Y-9933984D02*
X9815420Y-9943508D01*
X9815420Y-9943508D02*
X9824944Y-9953031D01*
X9824944Y-9953031D02*
X9834468Y-9972079D01*
X9834468Y-9972079D02*
X9843991Y-10010174D01*
X9843991Y-10010174D02*
X9843991Y-10057793D01*
X9843991Y-10057793D02*
X9834468Y-10095889D01*
X9834468Y-10095889D02*
X9824944Y-10114936D01*
X9824944Y-10114936D02*
X9815420Y-10124460D01*
X9815420Y-10124460D02*
X9796372Y-10133984D01*
X9796372Y-10133984D02*
X9777325Y-10133984D01*
X9777325Y-10133984D02*
X9758277Y-10124460D01*
X9758277Y-10124460D02*
X9748753Y-10114936D01*
X9748753Y-10114936D02*
X9739230Y-10095889D01*
X9739230Y-10095889D02*
X9729706Y-10057793D01*
X9729706Y-10057793D02*
X9729706Y-10010174D01*
X9729706Y-10010174D02*
X9739230Y-9972079D01*
X9739230Y-9972079D02*
X9748753Y-9953031D01*
X9748753Y-9953031D02*
X9758277Y-9943508D01*
X9758277Y-9943508D02*
X9777325Y-9933984D01*
X10082087Y-10133984D02*
X10082087Y-9933984D01*
X10167801Y-10133984D02*
X10167801Y-10029222D01*
X10167801Y-10029222D02*
X10158277Y-10010174D01*
X10158277Y-10010174D02*
X10139230Y-10000650D01*
X10139230Y-10000650D02*
X10110658Y-10000650D01*
X10110658Y-10000650D02*
X10091611Y-10010174D01*
X10091611Y-10010174D02*
X10082087Y-10019698D01*
X10291611Y-10133984D02*
X10272563Y-10124460D01*
X10272563Y-10124460D02*
X10263039Y-10114936D01*
X10263039Y-10114936D02*
X10253515Y-10095889D01*
X10253515Y-10095889D02*
X10253515Y-10038746D01*
X10253515Y-10038746D02*
X10263039Y-10019698D01*
X10263039Y-10019698D02*
X10272563Y-10010174D01*
X10272563Y-10010174D02*
X10291611Y-10000650D01*
X10291611Y-10000650D02*
X10320182Y-10000650D01*
X10320182Y-10000650D02*
X10339230Y-10010174D01*
X10339230Y-10010174D02*
X10348753Y-10019698D01*
X10348753Y-10019698D02*
X10358277Y-10038746D01*
X10358277Y-10038746D02*
X10358277Y-10095889D01*
X10358277Y-10095889D02*
X10348753Y-10114936D01*
X10348753Y-10114936D02*
X10339230Y-10124460D01*
X10339230Y-10124460D02*
X10320182Y-10133984D01*
X10320182Y-10133984D02*
X10291611Y-10133984D01*
X10472563Y-10133984D02*
X10453515Y-10124460D01*
X10453515Y-10124460D02*
X10443992Y-10105412D01*
X10443992Y-10105412D02*
X10443992Y-9933984D01*
X10624944Y-10124460D02*
X10605896Y-10133984D01*
X10605896Y-10133984D02*
X10567801Y-10133984D01*
X10567801Y-10133984D02*
X10548753Y-10124460D01*
X10548753Y-10124460D02*
X10539230Y-10105412D01*
X10539230Y-10105412D02*
X10539230Y-10029222D01*
X10539230Y-10029222D02*
X10548753Y-10010174D01*
X10548753Y-10010174D02*
X10567801Y-10000650D01*
X10567801Y-10000650D02*
X10605896Y-10000650D01*
X10605896Y-10000650D02*
X10624944Y-10010174D01*
X10624944Y-10010174D02*
X10634468Y-10029222D01*
X10634468Y-10029222D02*
X10634468Y-10048270D01*
X10634468Y-10048270D02*
X10539230Y-10067317D01*
X10710658Y-10124460D02*
X10729706Y-10133984D01*
X10729706Y-10133984D02*
X10767801Y-10133984D01*
X10767801Y-10133984D02*
X10786849Y-10124460D01*
X10786849Y-10124460D02*
X10796373Y-10105412D01*
X10796373Y-10105412D02*
X10796373Y-10095889D01*
X10796373Y-10095889D02*
X10786849Y-10076841D01*
X10786849Y-10076841D02*
X10767801Y-10067317D01*
X10767801Y-10067317D02*
X10739230Y-10067317D01*
X10739230Y-10067317D02*
X10720182Y-10057793D01*
X10720182Y-10057793D02*
X10710658Y-10038746D01*
X10710658Y-10038746D02*
X10710658Y-10029222D01*
X10710658Y-10029222D02*
X10720182Y-10010174D01*
X10720182Y-10010174D02*
X10739230Y-10000650D01*
X10739230Y-10000650D02*
X10767801Y-10000650D01*
X10767801Y-10000650D02*
X10786849Y-10010174D01*
X10863039Y-10210174D02*
X10872563Y-10200650D01*
X10872563Y-10200650D02*
X10891611Y-10172079D01*
X10891611Y-10172079D02*
X10901134Y-10153031D01*
X10901134Y-10153031D02*
X10910658Y-10124460D01*
X10910658Y-10124460D02*
X10920182Y-10076841D01*
X10920182Y-10076841D02*
X10920182Y-10038746D01*
X10920182Y-10038746D02*
X10910658Y-9991127D01*
X10910658Y-9991127D02*
X10901134Y-9962555D01*
X10901134Y-9962555D02*
X10891611Y-9943508D01*
X10891611Y-9943508D02*
X10872563Y-9914936D01*
X10872563Y-9914936D02*
X10863039Y-9905412D01*
D13*
X5897500Y-10306500D02*
G75*
G02*
X5787500Y-10306500I-55000J0D01*
G01*
X5787500Y-10306500D02*
G75*
G02*
X5897500Y-10306500I55000J0D01*
G01*
D11*
X6263039Y-10397984D02*
X6148753Y-10397984D01*
X6205896Y-10397984D02*
X6205896Y-10197984D01*
X6205896Y-10197984D02*
X6186848Y-10226555D01*
X6186848Y-10226555D02*
X6167801Y-10245603D01*
X6167801Y-10245603D02*
X6148753Y-10255127D01*
X6348753Y-10378936D02*
X6358277Y-10388460D01*
X6358277Y-10388460D02*
X6348753Y-10397984D01*
X6348753Y-10397984D02*
X6339229Y-10388460D01*
X6339229Y-10388460D02*
X6348753Y-10378936D01*
X6348753Y-10378936D02*
X6348753Y-10397984D01*
X6548753Y-10397984D02*
X6434467Y-10397984D01*
X6491610Y-10397984D02*
X6491610Y-10197984D01*
X6491610Y-10197984D02*
X6472562Y-10226555D01*
X6472562Y-10226555D02*
X6453515Y-10245603D01*
X6453515Y-10245603D02*
X6434467Y-10255127D01*
X6672562Y-10197984D02*
X6691610Y-10197984D01*
X6691610Y-10197984D02*
X6710658Y-10207508D01*
X6710658Y-10207508D02*
X6720182Y-10217031D01*
X6720182Y-10217031D02*
X6729705Y-10236079D01*
X6729705Y-10236079D02*
X6739229Y-10274174D01*
X6739229Y-10274174D02*
X6739229Y-10321793D01*
X6739229Y-10321793D02*
X6729705Y-10359889D01*
X6729705Y-10359889D02*
X6720182Y-10378936D01*
X6720182Y-10378936D02*
X6710658Y-10388460D01*
X6710658Y-10388460D02*
X6691610Y-10397984D01*
X6691610Y-10397984D02*
X6672562Y-10397984D01*
X6672562Y-10397984D02*
X6653515Y-10388460D01*
X6653515Y-10388460D02*
X6643991Y-10378936D01*
X6643991Y-10378936D02*
X6634467Y-10359889D01*
X6634467Y-10359889D02*
X6624943Y-10321793D01*
X6624943Y-10321793D02*
X6624943Y-10274174D01*
X6624943Y-10274174D02*
X6634467Y-10236079D01*
X6634467Y-10236079D02*
X6643991Y-10217031D01*
X6643991Y-10217031D02*
X6653515Y-10207508D01*
X6653515Y-10207508D02*
X6672562Y-10197984D01*
X6863039Y-10197984D02*
X6882086Y-10197984D01*
X6882086Y-10197984D02*
X6901134Y-10207508D01*
X6901134Y-10207508D02*
X6910658Y-10217031D01*
X6910658Y-10217031D02*
X6920182Y-10236079D01*
X6920182Y-10236079D02*
X6929705Y-10274174D01*
X6929705Y-10274174D02*
X6929705Y-10321793D01*
X6929705Y-10321793D02*
X6920182Y-10359889D01*
X6920182Y-10359889D02*
X6910658Y-10378936D01*
X6910658Y-10378936D02*
X6901134Y-10388460D01*
X6901134Y-10388460D02*
X6882086Y-10397984D01*
X6882086Y-10397984D02*
X6863039Y-10397984D01*
X6863039Y-10397984D02*
X6843991Y-10388460D01*
X6843991Y-10388460D02*
X6834467Y-10378936D01*
X6834467Y-10378936D02*
X6824943Y-10359889D01*
X6824943Y-10359889D02*
X6815420Y-10321793D01*
X6815420Y-10321793D02*
X6815420Y-10274174D01*
X6815420Y-10274174D02*
X6824943Y-10236079D01*
X6824943Y-10236079D02*
X6834467Y-10217031D01*
X6834467Y-10217031D02*
X6843991Y-10207508D01*
X6843991Y-10207508D02*
X6863039Y-10197984D01*
X7015420Y-10397984D02*
X7015420Y-10264650D01*
X7015420Y-10283698D02*
X7024943Y-10274174D01*
X7024943Y-10274174D02*
X7043991Y-10264650D01*
X7043991Y-10264650D02*
X7072563Y-10264650D01*
X7072563Y-10264650D02*
X7091610Y-10274174D01*
X7091610Y-10274174D02*
X7101134Y-10293222D01*
X7101134Y-10293222D02*
X7101134Y-10397984D01*
X7101134Y-10293222D02*
X7110658Y-10274174D01*
X7110658Y-10274174D02*
X7129705Y-10264650D01*
X7129705Y-10264650D02*
X7158277Y-10264650D01*
X7158277Y-10264650D02*
X7177324Y-10274174D01*
X7177324Y-10274174D02*
X7186848Y-10293222D01*
X7186848Y-10293222D02*
X7186848Y-10397984D01*
X7282086Y-10397984D02*
X7282086Y-10264650D01*
X7282086Y-10283698D02*
X7291610Y-10274174D01*
X7291610Y-10274174D02*
X7310658Y-10264650D01*
X7310658Y-10264650D02*
X7339229Y-10264650D01*
X7339229Y-10264650D02*
X7358277Y-10274174D01*
X7358277Y-10274174D02*
X7367801Y-10293222D01*
X7367801Y-10293222D02*
X7367801Y-10397984D01*
X7367801Y-10293222D02*
X7377324Y-10274174D01*
X7377324Y-10274174D02*
X7396372Y-10264650D01*
X7396372Y-10264650D02*
X7424943Y-10264650D01*
X7424943Y-10264650D02*
X7443991Y-10274174D01*
X7443991Y-10274174D02*
X7453515Y-10293222D01*
X7453515Y-10293222D02*
X7453515Y-10397984D01*
X7843991Y-10188460D02*
X7672563Y-10445603D01*
X8101134Y-10197984D02*
X8120182Y-10197984D01*
X8120182Y-10197984D02*
X8139229Y-10207508D01*
X8139229Y-10207508D02*
X8148753Y-10217031D01*
X8148753Y-10217031D02*
X8158277Y-10236079D01*
X8158277Y-10236079D02*
X8167801Y-10274174D01*
X8167801Y-10274174D02*
X8167801Y-10321793D01*
X8167801Y-10321793D02*
X8158277Y-10359889D01*
X8158277Y-10359889D02*
X8148753Y-10378936D01*
X8148753Y-10378936D02*
X8139229Y-10388460D01*
X8139229Y-10388460D02*
X8120182Y-10397984D01*
X8120182Y-10397984D02*
X8101134Y-10397984D01*
X8101134Y-10397984D02*
X8082086Y-10388460D01*
X8082086Y-10388460D02*
X8072563Y-10378936D01*
X8072563Y-10378936D02*
X8063039Y-10359889D01*
X8063039Y-10359889D02*
X8053515Y-10321793D01*
X8053515Y-10321793D02*
X8053515Y-10274174D01*
X8053515Y-10274174D02*
X8063039Y-10236079D01*
X8063039Y-10236079D02*
X8072563Y-10217031D01*
X8072563Y-10217031D02*
X8082086Y-10207508D01*
X8082086Y-10207508D02*
X8101134Y-10197984D01*
X8253515Y-10378936D02*
X8263039Y-10388460D01*
X8263039Y-10388460D02*
X8253515Y-10397984D01*
X8253515Y-10397984D02*
X8243991Y-10388460D01*
X8243991Y-10388460D02*
X8253515Y-10378936D01*
X8253515Y-10378936D02*
X8253515Y-10397984D01*
X8386848Y-10197984D02*
X8405896Y-10197984D01*
X8405896Y-10197984D02*
X8424944Y-10207508D01*
X8424944Y-10207508D02*
X8434468Y-10217031D01*
X8434468Y-10217031D02*
X8443991Y-10236079D01*
X8443991Y-10236079D02*
X8453515Y-10274174D01*
X8453515Y-10274174D02*
X8453515Y-10321793D01*
X8453515Y-10321793D02*
X8443991Y-10359889D01*
X8443991Y-10359889D02*
X8434468Y-10378936D01*
X8434468Y-10378936D02*
X8424944Y-10388460D01*
X8424944Y-10388460D02*
X8405896Y-10397984D01*
X8405896Y-10397984D02*
X8386848Y-10397984D01*
X8386848Y-10397984D02*
X8367801Y-10388460D01*
X8367801Y-10388460D02*
X8358277Y-10378936D01*
X8358277Y-10378936D02*
X8348753Y-10359889D01*
X8348753Y-10359889D02*
X8339229Y-10321793D01*
X8339229Y-10321793D02*
X8339229Y-10274174D01*
X8339229Y-10274174D02*
X8348753Y-10236079D01*
X8348753Y-10236079D02*
X8358277Y-10217031D01*
X8358277Y-10217031D02*
X8367801Y-10207508D01*
X8367801Y-10207508D02*
X8386848Y-10197984D01*
X8624944Y-10264650D02*
X8624944Y-10397984D01*
X8577325Y-10188460D02*
X8529706Y-10331317D01*
X8529706Y-10331317D02*
X8653515Y-10331317D01*
X8710658Y-10197984D02*
X8834468Y-10197984D01*
X8834468Y-10197984D02*
X8767801Y-10274174D01*
X8767801Y-10274174D02*
X8796372Y-10274174D01*
X8796372Y-10274174D02*
X8815420Y-10283698D01*
X8815420Y-10283698D02*
X8824944Y-10293222D01*
X8824944Y-10293222D02*
X8834468Y-10312270D01*
X8834468Y-10312270D02*
X8834468Y-10359889D01*
X8834468Y-10359889D02*
X8824944Y-10378936D01*
X8824944Y-10378936D02*
X8815420Y-10388460D01*
X8815420Y-10388460D02*
X8796372Y-10397984D01*
X8796372Y-10397984D02*
X8739229Y-10397984D01*
X8739229Y-10397984D02*
X8720182Y-10388460D01*
X8720182Y-10388460D02*
X8710658Y-10378936D01*
X8901134Y-10197984D02*
X9024944Y-10197984D01*
X9024944Y-10197984D02*
X8958277Y-10274174D01*
X8958277Y-10274174D02*
X8986849Y-10274174D01*
X8986849Y-10274174D02*
X9005896Y-10283698D01*
X9005896Y-10283698D02*
X9015420Y-10293222D01*
X9015420Y-10293222D02*
X9024944Y-10312270D01*
X9024944Y-10312270D02*
X9024944Y-10359889D01*
X9024944Y-10359889D02*
X9015420Y-10378936D01*
X9015420Y-10378936D02*
X9005896Y-10388460D01*
X9005896Y-10388460D02*
X8986849Y-10397984D01*
X8986849Y-10397984D02*
X8929706Y-10397984D01*
X8929706Y-10397984D02*
X8910658Y-10388460D01*
X8910658Y-10388460D02*
X8901134Y-10378936D01*
X9101134Y-10197984D02*
X9101134Y-10236079D01*
X9177325Y-10197984D02*
X9177325Y-10236079D01*
X9472563Y-10474174D02*
X9463039Y-10464650D01*
X9463039Y-10464650D02*
X9443991Y-10436079D01*
X9443991Y-10436079D02*
X9434468Y-10417031D01*
X9434468Y-10417031D02*
X9424944Y-10388460D01*
X9424944Y-10388460D02*
X9415420Y-10340841D01*
X9415420Y-10340841D02*
X9415420Y-10302746D01*
X9415420Y-10302746D02*
X9424944Y-10255127D01*
X9424944Y-10255127D02*
X9434468Y-10226555D01*
X9434468Y-10226555D02*
X9443991Y-10207508D01*
X9443991Y-10207508D02*
X9463039Y-10178936D01*
X9463039Y-10178936D02*
X9472563Y-10169412D01*
X9634468Y-10197984D02*
X9596372Y-10197984D01*
X9596372Y-10197984D02*
X9577325Y-10207508D01*
X9577325Y-10207508D02*
X9567801Y-10217031D01*
X9567801Y-10217031D02*
X9548753Y-10245603D01*
X9548753Y-10245603D02*
X9539230Y-10283698D01*
X9539230Y-10283698D02*
X9539230Y-10359889D01*
X9539230Y-10359889D02*
X9548753Y-10378936D01*
X9548753Y-10378936D02*
X9558277Y-10388460D01*
X9558277Y-10388460D02*
X9577325Y-10397984D01*
X9577325Y-10397984D02*
X9615420Y-10397984D01*
X9615420Y-10397984D02*
X9634468Y-10388460D01*
X9634468Y-10388460D02*
X9643991Y-10378936D01*
X9643991Y-10378936D02*
X9653515Y-10359889D01*
X9653515Y-10359889D02*
X9653515Y-10312270D01*
X9653515Y-10312270D02*
X9643991Y-10293222D01*
X9643991Y-10293222D02*
X9634468Y-10283698D01*
X9634468Y-10283698D02*
X9615420Y-10274174D01*
X9615420Y-10274174D02*
X9577325Y-10274174D01*
X9577325Y-10274174D02*
X9558277Y-10283698D01*
X9558277Y-10283698D02*
X9548753Y-10293222D01*
X9548753Y-10293222D02*
X9539230Y-10312270D01*
X9891611Y-10397984D02*
X9891611Y-10197984D01*
X9977325Y-10397984D02*
X9977325Y-10293222D01*
X9977325Y-10293222D02*
X9967801Y-10274174D01*
X9967801Y-10274174D02*
X9948753Y-10264650D01*
X9948753Y-10264650D02*
X9920182Y-10264650D01*
X9920182Y-10264650D02*
X9901134Y-10274174D01*
X9901134Y-10274174D02*
X9891611Y-10283698D01*
X10101134Y-10397984D02*
X10082087Y-10388460D01*
X10082087Y-10388460D02*
X10072563Y-10378936D01*
X10072563Y-10378936D02*
X10063039Y-10359889D01*
X10063039Y-10359889D02*
X10063039Y-10302746D01*
X10063039Y-10302746D02*
X10072563Y-10283698D01*
X10072563Y-10283698D02*
X10082087Y-10274174D01*
X10082087Y-10274174D02*
X10101134Y-10264650D01*
X10101134Y-10264650D02*
X10129706Y-10264650D01*
X10129706Y-10264650D02*
X10148753Y-10274174D01*
X10148753Y-10274174D02*
X10158277Y-10283698D01*
X10158277Y-10283698D02*
X10167801Y-10302746D01*
X10167801Y-10302746D02*
X10167801Y-10359889D01*
X10167801Y-10359889D02*
X10158277Y-10378936D01*
X10158277Y-10378936D02*
X10148753Y-10388460D01*
X10148753Y-10388460D02*
X10129706Y-10397984D01*
X10129706Y-10397984D02*
X10101134Y-10397984D01*
X10282087Y-10397984D02*
X10263039Y-10388460D01*
X10263039Y-10388460D02*
X10253515Y-10369412D01*
X10253515Y-10369412D02*
X10253515Y-10197984D01*
X10434468Y-10388460D02*
X10415420Y-10397984D01*
X10415420Y-10397984D02*
X10377325Y-10397984D01*
X10377325Y-10397984D02*
X10358277Y-10388460D01*
X10358277Y-10388460D02*
X10348753Y-10369412D01*
X10348753Y-10369412D02*
X10348753Y-10293222D01*
X10348753Y-10293222D02*
X10358277Y-10274174D01*
X10358277Y-10274174D02*
X10377325Y-10264650D01*
X10377325Y-10264650D02*
X10415420Y-10264650D01*
X10415420Y-10264650D02*
X10434468Y-10274174D01*
X10434468Y-10274174D02*
X10443992Y-10293222D01*
X10443992Y-10293222D02*
X10443992Y-10312270D01*
X10443992Y-10312270D02*
X10348753Y-10331317D01*
X10520182Y-10388460D02*
X10539230Y-10397984D01*
X10539230Y-10397984D02*
X10577325Y-10397984D01*
X10577325Y-10397984D02*
X10596373Y-10388460D01*
X10596373Y-10388460D02*
X10605896Y-10369412D01*
X10605896Y-10369412D02*
X10605896Y-10359889D01*
X10605896Y-10359889D02*
X10596373Y-10340841D01*
X10596373Y-10340841D02*
X10577325Y-10331317D01*
X10577325Y-10331317D02*
X10548753Y-10331317D01*
X10548753Y-10331317D02*
X10529706Y-10321793D01*
X10529706Y-10321793D02*
X10520182Y-10302746D01*
X10520182Y-10302746D02*
X10520182Y-10293222D01*
X10520182Y-10293222D02*
X10529706Y-10274174D01*
X10529706Y-10274174D02*
X10548753Y-10264650D01*
X10548753Y-10264650D02*
X10577325Y-10264650D01*
X10577325Y-10264650D02*
X10596373Y-10274174D01*
X10672563Y-10474174D02*
X10682087Y-10464650D01*
X10682087Y-10464650D02*
X10701134Y-10436079D01*
X10701134Y-10436079D02*
X10710658Y-10417031D01*
X10710658Y-10417031D02*
X10720182Y-10388460D01*
X10720182Y-10388460D02*
X10729706Y-10340841D01*
X10729706Y-10340841D02*
X10729706Y-10302746D01*
X10729706Y-10302746D02*
X10720182Y-10255127D01*
X10720182Y-10255127D02*
X10710658Y-10226555D01*
X10710658Y-10226555D02*
X10701134Y-10207508D01*
X10701134Y-10207508D02*
X10682087Y-10178936D01*
X10682087Y-10178936D02*
X10672563Y-10169412D01*
M02*
