%TF.GenerationSoftware,KiCad,Pcbnew,8.0.6-8.0.6-0~ubuntu24.04.1*%
%TF.CreationDate,2024-10-25T12:09:51+03:00*%
%TF.ProjectId,pss_v2_fan_block,7073735f-7632-45f6-9661-6e5f626c6f63,rev?*%
%TF.SameCoordinates,Original*%
%TF.FileFunction,Copper,L1,Top*%
%TF.FilePolarity,Positive*%
%FSLAX46Y46*%
G04 Gerber Fmt 4.6, Leading zero omitted, Abs format (unit mm)*
G04 Created by KiCad (PCBNEW 8.0.6-8.0.6-0~ubuntu24.04.1) date 2024-10-25 12:09:51*
%MOMM*%
%LPD*%
G01*
G04 APERTURE LIST*
G04 Aperture macros list*
%AMRoundRect*
0 Rectangle with rounded corners*
0 $1 Rounding radius*
0 $2 $3 $4 $5 $6 $7 $8 $9 X,Y pos of 4 corners*
0 Add a 4 corners polygon primitive as box body*
4,1,4,$2,$3,$4,$5,$6,$7,$8,$9,$2,$3,0*
0 Add four circle primitives for the rounded corners*
1,1,$1+$1,$2,$3*
1,1,$1+$1,$4,$5*
1,1,$1+$1,$6,$7*
1,1,$1+$1,$8,$9*
0 Add four rect primitives between the rounded corners*
20,1,$1+$1,$2,$3,$4,$5,0*
20,1,$1+$1,$4,$5,$6,$7,0*
20,1,$1+$1,$6,$7,$8,$9,0*
20,1,$1+$1,$8,$9,$2,$3,0*%
G04 Aperture macros list end*
%TA.AperFunction,ComponentPad*%
%ADD10RoundRect,0.250000X0.600000X0.750000X-0.600000X0.750000X-0.600000X-0.750000X0.600000X-0.750000X0*%
%TD*%
%TA.AperFunction,ComponentPad*%
%ADD11O,1.700000X2.000000*%
%TD*%
%TA.AperFunction,ComponentPad*%
%ADD12RoundRect,0.250000X-0.600000X-0.750000X0.600000X-0.750000X0.600000X0.750000X-0.600000X0.750000X0*%
%TD*%
%TA.AperFunction,SMDPad,CuDef*%
%ADD13RoundRect,0.250000X0.450000X-0.262500X0.450000X0.262500X-0.450000X0.262500X-0.450000X-0.262500X0*%
%TD*%
%TA.AperFunction,ComponentPad*%
%ADD14R,1.905000X2.000000*%
%TD*%
%TA.AperFunction,ComponentPad*%
%ADD15O,1.905000X2.000000*%
%TD*%
%TA.AperFunction,ComponentPad*%
%ADD16RoundRect,0.250000X-0.750000X0.600000X-0.750000X-0.600000X0.750000X-0.600000X0.750000X0.600000X0*%
%TD*%
%TA.AperFunction,ComponentPad*%
%ADD17O,2.000000X1.700000*%
%TD*%
%TA.AperFunction,ComponentPad*%
%ADD18R,2.000000X2.000000*%
%TD*%
%TA.AperFunction,ComponentPad*%
%ADD19C,2.000000*%
%TD*%
%TA.AperFunction,Conductor*%
%ADD20C,1.000000*%
%TD*%
G04 APERTURE END LIST*
D10*
%TO.P,SW2,1,1*%
%TO.N,GND*%
X85100000Y-76300000D03*
D11*
%TO.P,SW2,2,2*%
%TO.N,Net-(Q1-D)*%
X82600000Y-76300000D03*
%TD*%
D12*
%TO.P,SW1,1,1*%
%TO.N,VCC*%
X62300000Y-88200000D03*
D11*
%TO.P,SW1,2,2*%
%TO.N,Net-(Q2-G)*%
X64800000Y-88200000D03*
%TD*%
D13*
%TO.P,R1,1*%
%TO.N,Net-(Q2-G)*%
X73500000Y-81000000D03*
%TO.P,R1,2*%
%TO.N,Net-(Q1-D)*%
X73500000Y-79175000D03*
%TD*%
D14*
%TO.P,Q2,1,G*%
%TO.N,Net-(Q2-G)*%
X80560000Y-82900000D03*
D15*
%TO.P,Q2,2,D*%
%TO.N,Net-(J2-Pin_1)*%
X83100000Y-82900000D03*
%TO.P,Q2,3,S*%
%TO.N,GND*%
X85640000Y-82900000D03*
%TD*%
D14*
%TO.P,Q1,1,G*%
%TO.N,Net-(J2-Pin_1)*%
X76400000Y-74300000D03*
D15*
%TO.P,Q1,2,D*%
%TO.N,Net-(Q1-D)*%
X73860000Y-74300000D03*
%TO.P,Q1,3,S*%
%TO.N,GND*%
X71320000Y-74300000D03*
%TD*%
D12*
%TO.P,J2,1,Pin_1*%
%TO.N,Net-(J2-Pin_1)*%
X82550000Y-88175000D03*
D11*
%TO.P,J2,2,Pin_2*%
%TO.N,VCC*%
X85050000Y-88175000D03*
%TD*%
D16*
%TO.P,J1,1,Pin_1*%
%TO.N,GND*%
X63600000Y-79100000D03*
D17*
%TO.P,J1,2,Pin_2*%
%TO.N,VCC*%
X63600000Y-81600000D03*
%TD*%
D18*
%TO.P,C1,1*%
%TO.N,Net-(Q2-G)*%
X73400000Y-85400000D03*
D19*
%TO.P,C1,2*%
%TO.N,GND*%
X73400000Y-90400000D03*
%TD*%
D20*
%TO.N,VCC*%
X63600000Y-81600000D02*
X63600000Y-86900000D01*
X63600000Y-86900000D02*
X62300000Y-88200000D01*
%TO.N,Net-(J2-Pin_1)*%
X82550000Y-88175000D02*
X82550000Y-83450000D01*
X82550000Y-83450000D02*
X83100000Y-82900000D01*
%TO.N,Net-(Q2-G)*%
X80560000Y-82900000D02*
X75900000Y-82900000D01*
X75900000Y-82900000D02*
X73400000Y-85400000D01*
%TO.N,Net-(J2-Pin_1)*%
X76400000Y-74300000D02*
X83100000Y-81000000D01*
X83100000Y-81000000D02*
X83100000Y-82900000D01*
%TO.N,Net-(Q1-D)*%
X73500000Y-79175000D02*
X73500000Y-74660000D01*
X73500000Y-74660000D02*
X73860000Y-74300000D01*
%TO.N,Net-(Q2-G)*%
X73400000Y-85400000D02*
X73400000Y-81100000D01*
X73400000Y-81100000D02*
X73500000Y-81000000D01*
X64800000Y-88200000D02*
X70600000Y-88200000D01*
X70600000Y-88200000D02*
X73400000Y-85400000D01*
%TD*%
M02*
