%TF.GenerationSoftware,KiCad,Pcbnew,8.0.6-8.0.6-0~ubuntu24.04.1*%
%TF.CreationDate,2024-10-25T12:09:52+03:00*%
%TF.ProjectId,pss_v2_fan_block,7073735f-7632-45f6-9661-6e5f626c6f63,rev?*%
%TF.SameCoordinates,Original*%
%TF.FileFunction,Legend,Top*%
%TF.FilePolarity,Positive*%
%FSLAX46Y46*%
G04 Gerber Fmt 4.6, Leading zero omitted, Abs format (unit mm)*
G04 Created by KiCad (PCBNEW 8.0.6-8.0.6-0~ubuntu24.04.1) date 2024-10-25 12:09:52*
%MOMM*%
%LPD*%
G01*
G04 APERTURE LIST*
%ADD10C,0.150000*%
%ADD11C,0.120000*%
G04 APERTURE END LIST*
D10*
X74666667Y-79107200D02*
X74809524Y-79154819D01*
X74809524Y-79154819D02*
X75047619Y-79154819D01*
X75047619Y-79154819D02*
X75142857Y-79107200D01*
X75142857Y-79107200D02*
X75190476Y-79059580D01*
X75190476Y-79059580D02*
X75238095Y-78964342D01*
X75238095Y-78964342D02*
X75238095Y-78869104D01*
X75238095Y-78869104D02*
X75190476Y-78773866D01*
X75190476Y-78773866D02*
X75142857Y-78726247D01*
X75142857Y-78726247D02*
X75047619Y-78678628D01*
X75047619Y-78678628D02*
X74857143Y-78631009D01*
X74857143Y-78631009D02*
X74761905Y-78583390D01*
X74761905Y-78583390D02*
X74714286Y-78535771D01*
X74714286Y-78535771D02*
X74666667Y-78440533D01*
X74666667Y-78440533D02*
X74666667Y-78345295D01*
X74666667Y-78345295D02*
X74714286Y-78250057D01*
X74714286Y-78250057D02*
X74761905Y-78202438D01*
X74761905Y-78202438D02*
X74857143Y-78154819D01*
X74857143Y-78154819D02*
X75095238Y-78154819D01*
X75095238Y-78154819D02*
X75238095Y-78202438D01*
X75571429Y-78154819D02*
X75809524Y-79154819D01*
X75809524Y-79154819D02*
X76000000Y-78440533D01*
X76000000Y-78440533D02*
X76190476Y-79154819D01*
X76190476Y-79154819D02*
X76428572Y-78154819D01*
X76761905Y-78250057D02*
X76809524Y-78202438D01*
X76809524Y-78202438D02*
X76904762Y-78154819D01*
X76904762Y-78154819D02*
X77142857Y-78154819D01*
X77142857Y-78154819D02*
X77238095Y-78202438D01*
X77238095Y-78202438D02*
X77285714Y-78250057D01*
X77285714Y-78250057D02*
X77333333Y-78345295D01*
X77333333Y-78345295D02*
X77333333Y-78440533D01*
X77333333Y-78440533D02*
X77285714Y-78583390D01*
X77285714Y-78583390D02*
X76714286Y-79154819D01*
X76714286Y-79154819D02*
X77333333Y-79154819D01*
X74823809Y-80407200D02*
X74966666Y-80454819D01*
X74966666Y-80454819D02*
X75204761Y-80454819D01*
X75204761Y-80454819D02*
X75299999Y-80407200D01*
X75299999Y-80407200D02*
X75347618Y-80359580D01*
X75347618Y-80359580D02*
X75395237Y-80264342D01*
X75395237Y-80264342D02*
X75395237Y-80169104D01*
X75395237Y-80169104D02*
X75347618Y-80073866D01*
X75347618Y-80073866D02*
X75299999Y-80026247D01*
X75299999Y-80026247D02*
X75204761Y-79978628D01*
X75204761Y-79978628D02*
X75014285Y-79931009D01*
X75014285Y-79931009D02*
X74919047Y-79883390D01*
X74919047Y-79883390D02*
X74871428Y-79835771D01*
X74871428Y-79835771D02*
X74823809Y-79740533D01*
X74823809Y-79740533D02*
X74823809Y-79645295D01*
X74823809Y-79645295D02*
X74871428Y-79550057D01*
X74871428Y-79550057D02*
X74919047Y-79502438D01*
X74919047Y-79502438D02*
X75014285Y-79454819D01*
X75014285Y-79454819D02*
X75252380Y-79454819D01*
X75252380Y-79454819D02*
X75395237Y-79502438D01*
X75680952Y-79788152D02*
X76061904Y-79788152D01*
X75823809Y-79454819D02*
X75823809Y-80311961D01*
X75823809Y-80311961D02*
X75871428Y-80407200D01*
X75871428Y-80407200D02*
X75966666Y-80454819D01*
X75966666Y-80454819D02*
X76061904Y-80454819D01*
X76538095Y-80454819D02*
X76442857Y-80407200D01*
X76442857Y-80407200D02*
X76395238Y-80359580D01*
X76395238Y-80359580D02*
X76347619Y-80264342D01*
X76347619Y-80264342D02*
X76347619Y-79978628D01*
X76347619Y-79978628D02*
X76395238Y-79883390D01*
X76395238Y-79883390D02*
X76442857Y-79835771D01*
X76442857Y-79835771D02*
X76538095Y-79788152D01*
X76538095Y-79788152D02*
X76680952Y-79788152D01*
X76680952Y-79788152D02*
X76776190Y-79835771D01*
X76776190Y-79835771D02*
X76823809Y-79883390D01*
X76823809Y-79883390D02*
X76871428Y-79978628D01*
X76871428Y-79978628D02*
X76871428Y-80264342D01*
X76871428Y-80264342D02*
X76823809Y-80359580D01*
X76823809Y-80359580D02*
X76776190Y-80407200D01*
X76776190Y-80407200D02*
X76680952Y-80454819D01*
X76680952Y-80454819D02*
X76538095Y-80454819D01*
X77300000Y-79788152D02*
X77300000Y-80788152D01*
X77300000Y-79835771D02*
X77395238Y-79788152D01*
X77395238Y-79788152D02*
X77585714Y-79788152D01*
X77585714Y-79788152D02*
X77680952Y-79835771D01*
X77680952Y-79835771D02*
X77728571Y-79883390D01*
X77728571Y-79883390D02*
X77776190Y-79978628D01*
X77776190Y-79978628D02*
X77776190Y-80264342D01*
X77776190Y-80264342D02*
X77728571Y-80359580D01*
X77728571Y-80359580D02*
X77680952Y-80407200D01*
X77680952Y-80407200D02*
X77585714Y-80454819D01*
X77585714Y-80454819D02*
X77395238Y-80454819D01*
X77395238Y-80454819D02*
X77300000Y-80407200D01*
X59866667Y-93407200D02*
X60009524Y-93454819D01*
X60009524Y-93454819D02*
X60247619Y-93454819D01*
X60247619Y-93454819D02*
X60342857Y-93407200D01*
X60342857Y-93407200D02*
X60390476Y-93359580D01*
X60390476Y-93359580D02*
X60438095Y-93264342D01*
X60438095Y-93264342D02*
X60438095Y-93169104D01*
X60438095Y-93169104D02*
X60390476Y-93073866D01*
X60390476Y-93073866D02*
X60342857Y-93026247D01*
X60342857Y-93026247D02*
X60247619Y-92978628D01*
X60247619Y-92978628D02*
X60057143Y-92931009D01*
X60057143Y-92931009D02*
X59961905Y-92883390D01*
X59961905Y-92883390D02*
X59914286Y-92835771D01*
X59914286Y-92835771D02*
X59866667Y-92740533D01*
X59866667Y-92740533D02*
X59866667Y-92645295D01*
X59866667Y-92645295D02*
X59914286Y-92550057D01*
X59914286Y-92550057D02*
X59961905Y-92502438D01*
X59961905Y-92502438D02*
X60057143Y-92454819D01*
X60057143Y-92454819D02*
X60295238Y-92454819D01*
X60295238Y-92454819D02*
X60438095Y-92502438D01*
X60771429Y-92454819D02*
X61009524Y-93454819D01*
X61009524Y-93454819D02*
X61200000Y-92740533D01*
X61200000Y-92740533D02*
X61390476Y-93454819D01*
X61390476Y-93454819D02*
X61628572Y-92454819D01*
X62533333Y-93454819D02*
X61961905Y-93454819D01*
X62247619Y-93454819D02*
X62247619Y-92454819D01*
X62247619Y-92454819D02*
X62152381Y-92597676D01*
X62152381Y-92597676D02*
X62057143Y-92692914D01*
X62057143Y-92692914D02*
X61961905Y-92740533D01*
X63980952Y-93307200D02*
X64123809Y-93354819D01*
X64123809Y-93354819D02*
X64361904Y-93354819D01*
X64361904Y-93354819D02*
X64457142Y-93307200D01*
X64457142Y-93307200D02*
X64504761Y-93259580D01*
X64504761Y-93259580D02*
X64552380Y-93164342D01*
X64552380Y-93164342D02*
X64552380Y-93069104D01*
X64552380Y-93069104D02*
X64504761Y-92973866D01*
X64504761Y-92973866D02*
X64457142Y-92926247D01*
X64457142Y-92926247D02*
X64361904Y-92878628D01*
X64361904Y-92878628D02*
X64171428Y-92831009D01*
X64171428Y-92831009D02*
X64076190Y-92783390D01*
X64076190Y-92783390D02*
X64028571Y-92735771D01*
X64028571Y-92735771D02*
X63980952Y-92640533D01*
X63980952Y-92640533D02*
X63980952Y-92545295D01*
X63980952Y-92545295D02*
X64028571Y-92450057D01*
X64028571Y-92450057D02*
X64076190Y-92402438D01*
X64076190Y-92402438D02*
X64171428Y-92354819D01*
X64171428Y-92354819D02*
X64409523Y-92354819D01*
X64409523Y-92354819D02*
X64552380Y-92402438D01*
X64838095Y-92688152D02*
X65219047Y-92688152D01*
X64980952Y-92354819D02*
X64980952Y-93211961D01*
X64980952Y-93211961D02*
X65028571Y-93307200D01*
X65028571Y-93307200D02*
X65123809Y-93354819D01*
X65123809Y-93354819D02*
X65219047Y-93354819D01*
X65980952Y-93354819D02*
X65980952Y-92831009D01*
X65980952Y-92831009D02*
X65933333Y-92735771D01*
X65933333Y-92735771D02*
X65838095Y-92688152D01*
X65838095Y-92688152D02*
X65647619Y-92688152D01*
X65647619Y-92688152D02*
X65552381Y-92735771D01*
X65980952Y-93307200D02*
X65885714Y-93354819D01*
X65885714Y-93354819D02*
X65647619Y-93354819D01*
X65647619Y-93354819D02*
X65552381Y-93307200D01*
X65552381Y-93307200D02*
X65504762Y-93211961D01*
X65504762Y-93211961D02*
X65504762Y-93116723D01*
X65504762Y-93116723D02*
X65552381Y-93021485D01*
X65552381Y-93021485D02*
X65647619Y-92973866D01*
X65647619Y-92973866D02*
X65885714Y-92973866D01*
X65885714Y-92973866D02*
X65980952Y-92926247D01*
X66457143Y-93354819D02*
X66457143Y-92688152D01*
X66457143Y-92878628D02*
X66504762Y-92783390D01*
X66504762Y-92783390D02*
X66552381Y-92735771D01*
X66552381Y-92735771D02*
X66647619Y-92688152D01*
X66647619Y-92688152D02*
X66742857Y-92688152D01*
X66933334Y-92688152D02*
X67314286Y-92688152D01*
X67076191Y-92354819D02*
X67076191Y-93211961D01*
X67076191Y-93211961D02*
X67123810Y-93307200D01*
X67123810Y-93307200D02*
X67219048Y-93354819D01*
X67219048Y-93354819D02*
X67314286Y-93354819D01*
X71333333Y-79454819D02*
X71000000Y-78978628D01*
X70761905Y-79454819D02*
X70761905Y-78454819D01*
X70761905Y-78454819D02*
X71142857Y-78454819D01*
X71142857Y-78454819D02*
X71238095Y-78502438D01*
X71238095Y-78502438D02*
X71285714Y-78550057D01*
X71285714Y-78550057D02*
X71333333Y-78645295D01*
X71333333Y-78645295D02*
X71333333Y-78788152D01*
X71333333Y-78788152D02*
X71285714Y-78883390D01*
X71285714Y-78883390D02*
X71238095Y-78931009D01*
X71238095Y-78931009D02*
X71142857Y-78978628D01*
X71142857Y-78978628D02*
X70761905Y-78978628D01*
X72285714Y-79454819D02*
X71714286Y-79454819D01*
X72000000Y-79454819D02*
X72000000Y-78454819D01*
X72000000Y-78454819D02*
X71904762Y-78597676D01*
X71904762Y-78597676D02*
X71809524Y-78692914D01*
X71809524Y-78692914D02*
X71714286Y-78740533D01*
X76904761Y-82350057D02*
X76809523Y-82302438D01*
X76809523Y-82302438D02*
X76714285Y-82207200D01*
X76714285Y-82207200D02*
X76571428Y-82064342D01*
X76571428Y-82064342D02*
X76476190Y-82016723D01*
X76476190Y-82016723D02*
X76380952Y-82016723D01*
X76428571Y-82254819D02*
X76333333Y-82207200D01*
X76333333Y-82207200D02*
X76238095Y-82111961D01*
X76238095Y-82111961D02*
X76190476Y-81921485D01*
X76190476Y-81921485D02*
X76190476Y-81588152D01*
X76190476Y-81588152D02*
X76238095Y-81397676D01*
X76238095Y-81397676D02*
X76333333Y-81302438D01*
X76333333Y-81302438D02*
X76428571Y-81254819D01*
X76428571Y-81254819D02*
X76619047Y-81254819D01*
X76619047Y-81254819D02*
X76714285Y-81302438D01*
X76714285Y-81302438D02*
X76809523Y-81397676D01*
X76809523Y-81397676D02*
X76857142Y-81588152D01*
X76857142Y-81588152D02*
X76857142Y-81921485D01*
X76857142Y-81921485D02*
X76809523Y-82111961D01*
X76809523Y-82111961D02*
X76714285Y-82207200D01*
X76714285Y-82207200D02*
X76619047Y-82254819D01*
X76619047Y-82254819D02*
X76428571Y-82254819D01*
X77238095Y-81350057D02*
X77285714Y-81302438D01*
X77285714Y-81302438D02*
X77380952Y-81254819D01*
X77380952Y-81254819D02*
X77619047Y-81254819D01*
X77619047Y-81254819D02*
X77714285Y-81302438D01*
X77714285Y-81302438D02*
X77761904Y-81350057D01*
X77761904Y-81350057D02*
X77809523Y-81445295D01*
X77809523Y-81445295D02*
X77809523Y-81540533D01*
X77809523Y-81540533D02*
X77761904Y-81683390D01*
X77761904Y-81683390D02*
X77190476Y-82254819D01*
X77190476Y-82254819D02*
X77809523Y-82254819D01*
X67104761Y-75350057D02*
X67009523Y-75302438D01*
X67009523Y-75302438D02*
X66914285Y-75207200D01*
X66914285Y-75207200D02*
X66771428Y-75064342D01*
X66771428Y-75064342D02*
X66676190Y-75016723D01*
X66676190Y-75016723D02*
X66580952Y-75016723D01*
X66628571Y-75254819D02*
X66533333Y-75207200D01*
X66533333Y-75207200D02*
X66438095Y-75111961D01*
X66438095Y-75111961D02*
X66390476Y-74921485D01*
X66390476Y-74921485D02*
X66390476Y-74588152D01*
X66390476Y-74588152D02*
X66438095Y-74397676D01*
X66438095Y-74397676D02*
X66533333Y-74302438D01*
X66533333Y-74302438D02*
X66628571Y-74254819D01*
X66628571Y-74254819D02*
X66819047Y-74254819D01*
X66819047Y-74254819D02*
X66914285Y-74302438D01*
X66914285Y-74302438D02*
X67009523Y-74397676D01*
X67009523Y-74397676D02*
X67057142Y-74588152D01*
X67057142Y-74588152D02*
X67057142Y-74921485D01*
X67057142Y-74921485D02*
X67009523Y-75111961D01*
X67009523Y-75111961D02*
X66914285Y-75207200D01*
X66914285Y-75207200D02*
X66819047Y-75254819D01*
X66819047Y-75254819D02*
X66628571Y-75254819D01*
X68009523Y-75254819D02*
X67438095Y-75254819D01*
X67723809Y-75254819D02*
X67723809Y-74254819D01*
X67723809Y-74254819D02*
X67628571Y-74397676D01*
X67628571Y-74397676D02*
X67533333Y-74492914D01*
X67533333Y-74492914D02*
X67438095Y-74540533D01*
X80266666Y-92354819D02*
X80266666Y-93069104D01*
X80266666Y-93069104D02*
X80219047Y-93211961D01*
X80219047Y-93211961D02*
X80123809Y-93307200D01*
X80123809Y-93307200D02*
X79980952Y-93354819D01*
X79980952Y-93354819D02*
X79885714Y-93354819D01*
X80695238Y-92450057D02*
X80742857Y-92402438D01*
X80742857Y-92402438D02*
X80838095Y-92354819D01*
X80838095Y-92354819D02*
X81076190Y-92354819D01*
X81076190Y-92354819D02*
X81171428Y-92402438D01*
X81171428Y-92402438D02*
X81219047Y-92450057D01*
X81219047Y-92450057D02*
X81266666Y-92545295D01*
X81266666Y-92545295D02*
X81266666Y-92640533D01*
X81266666Y-92640533D02*
X81219047Y-92783390D01*
X81219047Y-92783390D02*
X80647619Y-93354819D01*
X80647619Y-93354819D02*
X81266666Y-93354819D01*
X82890476Y-92931009D02*
X82557143Y-92931009D01*
X82557143Y-93454819D02*
X82557143Y-92454819D01*
X82557143Y-92454819D02*
X83033333Y-92454819D01*
X83366667Y-93169104D02*
X83842857Y-93169104D01*
X83271429Y-93454819D02*
X83604762Y-92454819D01*
X83604762Y-92454819D02*
X83938095Y-93454819D01*
X84271429Y-93454819D02*
X84271429Y-92454819D01*
X84271429Y-92454819D02*
X84842857Y-93454819D01*
X84842857Y-93454819D02*
X84842857Y-92454819D01*
X78719048Y-89973866D02*
X79480953Y-89973866D01*
X79100000Y-90354819D02*
X79100000Y-89592914D01*
X60266666Y-74954819D02*
X60266666Y-75669104D01*
X60266666Y-75669104D02*
X60219047Y-75811961D01*
X60219047Y-75811961D02*
X60123809Y-75907200D01*
X60123809Y-75907200D02*
X59980952Y-75954819D01*
X59980952Y-75954819D02*
X59885714Y-75954819D01*
X61266666Y-75954819D02*
X60695238Y-75954819D01*
X60980952Y-75954819D02*
X60980952Y-74954819D01*
X60980952Y-74954819D02*
X60885714Y-75097676D01*
X60885714Y-75097676D02*
X60790476Y-75192914D01*
X60790476Y-75192914D02*
X60695238Y-75240533D01*
X60304762Y-73254819D02*
X60638095Y-74254819D01*
X60638095Y-74254819D02*
X60971428Y-73254819D01*
X61876190Y-74159580D02*
X61828571Y-74207200D01*
X61828571Y-74207200D02*
X61685714Y-74254819D01*
X61685714Y-74254819D02*
X61590476Y-74254819D01*
X61590476Y-74254819D02*
X61447619Y-74207200D01*
X61447619Y-74207200D02*
X61352381Y-74111961D01*
X61352381Y-74111961D02*
X61304762Y-74016723D01*
X61304762Y-74016723D02*
X61257143Y-73826247D01*
X61257143Y-73826247D02*
X61257143Y-73683390D01*
X61257143Y-73683390D02*
X61304762Y-73492914D01*
X61304762Y-73492914D02*
X61352381Y-73397676D01*
X61352381Y-73397676D02*
X61447619Y-73302438D01*
X61447619Y-73302438D02*
X61590476Y-73254819D01*
X61590476Y-73254819D02*
X61685714Y-73254819D01*
X61685714Y-73254819D02*
X61828571Y-73302438D01*
X61828571Y-73302438D02*
X61876190Y-73350057D01*
X62876190Y-74159580D02*
X62828571Y-74207200D01*
X62828571Y-74207200D02*
X62685714Y-74254819D01*
X62685714Y-74254819D02*
X62590476Y-74254819D01*
X62590476Y-74254819D02*
X62447619Y-74207200D01*
X62447619Y-74207200D02*
X62352381Y-74111961D01*
X62352381Y-74111961D02*
X62304762Y-74016723D01*
X62304762Y-74016723D02*
X62257143Y-73826247D01*
X62257143Y-73826247D02*
X62257143Y-73683390D01*
X62257143Y-73683390D02*
X62304762Y-73492914D01*
X62304762Y-73492914D02*
X62352381Y-73397676D01*
X62352381Y-73397676D02*
X62447619Y-73302438D01*
X62447619Y-73302438D02*
X62590476Y-73254819D01*
X62590476Y-73254819D02*
X62685714Y-73254819D01*
X62685714Y-73254819D02*
X62828571Y-73302438D01*
X62828571Y-73302438D02*
X62876190Y-73350057D01*
X64590476Y-74254819D02*
X64019048Y-74254819D01*
X64304762Y-74254819D02*
X64304762Y-73254819D01*
X64304762Y-73254819D02*
X64209524Y-73397676D01*
X64209524Y-73397676D02*
X64114286Y-73492914D01*
X64114286Y-73492914D02*
X64019048Y-73540533D01*
X64971429Y-73350057D02*
X65019048Y-73302438D01*
X65019048Y-73302438D02*
X65114286Y-73254819D01*
X65114286Y-73254819D02*
X65352381Y-73254819D01*
X65352381Y-73254819D02*
X65447619Y-73302438D01*
X65447619Y-73302438D02*
X65495238Y-73350057D01*
X65495238Y-73350057D02*
X65542857Y-73445295D01*
X65542857Y-73445295D02*
X65542857Y-73540533D01*
X65542857Y-73540533D02*
X65495238Y-73683390D01*
X65495238Y-73683390D02*
X64923810Y-74254819D01*
X64923810Y-74254819D02*
X65542857Y-74254819D01*
X65828572Y-73254819D02*
X66161905Y-74254819D01*
X66161905Y-74254819D02*
X66495238Y-73254819D01*
X66719048Y-83773866D02*
X67480953Y-83773866D01*
X67100000Y-84154819D02*
X67100000Y-83392914D01*
X70033333Y-93459580D02*
X69985714Y-93507200D01*
X69985714Y-93507200D02*
X69842857Y-93554819D01*
X69842857Y-93554819D02*
X69747619Y-93554819D01*
X69747619Y-93554819D02*
X69604762Y-93507200D01*
X69604762Y-93507200D02*
X69509524Y-93411961D01*
X69509524Y-93411961D02*
X69461905Y-93316723D01*
X69461905Y-93316723D02*
X69414286Y-93126247D01*
X69414286Y-93126247D02*
X69414286Y-92983390D01*
X69414286Y-92983390D02*
X69461905Y-92792914D01*
X69461905Y-92792914D02*
X69509524Y-92697676D01*
X69509524Y-92697676D02*
X69604762Y-92602438D01*
X69604762Y-92602438D02*
X69747619Y-92554819D01*
X69747619Y-92554819D02*
X69842857Y-92554819D01*
X69842857Y-92554819D02*
X69985714Y-92602438D01*
X69985714Y-92602438D02*
X70033333Y-92650057D01*
X70985714Y-93554819D02*
X70414286Y-93554819D01*
X70700000Y-93554819D02*
X70700000Y-92554819D01*
X70700000Y-92554819D02*
X70604762Y-92697676D01*
X70604762Y-92697676D02*
X70509524Y-92792914D01*
X70509524Y-92792914D02*
X70414286Y-92840533D01*
D11*
%TO.C,SW2*%
X87950000Y-79050000D02*
X87950000Y-77800000D01*
X87660000Y-78760000D02*
X87660000Y-72790000D01*
X87660000Y-72790000D02*
X80040000Y-72790000D01*
X87650000Y-78750000D02*
X87650000Y-78000000D01*
X87650000Y-78000000D02*
X85850000Y-78000000D01*
X87650000Y-76500000D02*
X86900000Y-76500000D01*
X86900000Y-76500000D02*
X86900000Y-73550000D01*
X86900000Y-73550000D02*
X83850000Y-73550000D01*
X86700000Y-79050000D02*
X87950000Y-79050000D01*
X85850000Y-78750000D02*
X87650000Y-78750000D01*
X85850000Y-78000000D02*
X85850000Y-78750000D01*
X84350000Y-78750000D02*
X84350000Y-78000000D01*
X84350000Y-78000000D02*
X83350000Y-78000000D01*
X83350000Y-78750000D02*
X84350000Y-78750000D01*
X83350000Y-78000000D02*
X83350000Y-78750000D01*
X81850000Y-78750000D02*
X81850000Y-78000000D01*
X81850000Y-78000000D02*
X80050000Y-78000000D01*
X80800000Y-76500000D02*
X80800000Y-73550000D01*
X80800000Y-73550000D02*
X83850000Y-73550000D01*
X80050000Y-78750000D02*
X81850000Y-78750000D01*
X80050000Y-78000000D02*
X80050000Y-78750000D01*
X80050000Y-76500000D02*
X80800000Y-76500000D01*
X80040000Y-78760000D02*
X87660000Y-78760000D01*
X80040000Y-72790000D02*
X80040000Y-78760000D01*
%TO.C,SW1*%
X59450000Y-85450000D02*
X59450000Y-86700000D01*
X59740000Y-85740000D02*
X59740000Y-91710000D01*
X59740000Y-91710000D02*
X67360000Y-91710000D01*
X59750000Y-85750000D02*
X59750000Y-86500000D01*
X59750000Y-86500000D02*
X61550000Y-86500000D01*
X59750000Y-88000000D02*
X60500000Y-88000000D01*
X60500000Y-88000000D02*
X60500000Y-90950000D01*
X60500000Y-90950000D02*
X63550000Y-90950000D01*
X60700000Y-85450000D02*
X59450000Y-85450000D01*
X61550000Y-85750000D02*
X59750000Y-85750000D01*
X61550000Y-86500000D02*
X61550000Y-85750000D01*
X63050000Y-85750000D02*
X63050000Y-86500000D01*
X63050000Y-86500000D02*
X64050000Y-86500000D01*
X64050000Y-85750000D02*
X63050000Y-85750000D01*
X64050000Y-86500000D02*
X64050000Y-85750000D01*
X65550000Y-85750000D02*
X65550000Y-86500000D01*
X65550000Y-86500000D02*
X67350000Y-86500000D01*
X66600000Y-88000000D02*
X66600000Y-90950000D01*
X66600000Y-90950000D02*
X63550000Y-90950000D01*
X67350000Y-85750000D02*
X65550000Y-85750000D01*
X67350000Y-86500000D02*
X67350000Y-85750000D01*
X67350000Y-88000000D02*
X66600000Y-88000000D01*
X67360000Y-85740000D02*
X59740000Y-85740000D01*
X67360000Y-91710000D02*
X67360000Y-85740000D01*
%TO.C,R1*%
X72765000Y-80314564D02*
X72765000Y-79860436D01*
X74235000Y-80314564D02*
X74235000Y-79860436D01*
%TO.C,Q2*%
X77980000Y-79630000D02*
X77980000Y-84271000D01*
X77980000Y-79630000D02*
X88220000Y-79630000D01*
X77980000Y-81140000D02*
X88220000Y-81140000D01*
X77980000Y-84271000D02*
X88220000Y-84271000D01*
X81250000Y-79630000D02*
X81250000Y-81140000D01*
X84951000Y-79630000D02*
X84951000Y-81140000D01*
X88220000Y-79630000D02*
X88220000Y-84271000D01*
%TO.C,Q1*%
X78980000Y-77570000D02*
X78980000Y-72929000D01*
X78980000Y-77570000D02*
X68740000Y-77570000D01*
X78980000Y-76060000D02*
X68740000Y-76060000D01*
X78980000Y-72929000D02*
X68740000Y-72929000D01*
X75710000Y-77570000D02*
X75710000Y-76060000D01*
X72009000Y-77570000D02*
X72009000Y-76060000D01*
X68740000Y-77570000D02*
X68740000Y-72929000D01*
%TO.C,J2*%
X79700000Y-85425000D02*
X79700000Y-86675000D01*
X79990000Y-85715000D02*
X79990000Y-91685000D01*
X79990000Y-91685000D02*
X87610000Y-91685000D01*
X80000000Y-85725000D02*
X80000000Y-86475000D01*
X80000000Y-86475000D02*
X81800000Y-86475000D01*
X80000000Y-87975000D02*
X80750000Y-87975000D01*
X80750000Y-87975000D02*
X80750000Y-90925000D01*
X80750000Y-90925000D02*
X83800000Y-90925000D01*
X80950000Y-85425000D02*
X79700000Y-85425000D01*
X81800000Y-85725000D02*
X80000000Y-85725000D01*
X81800000Y-86475000D02*
X81800000Y-85725000D01*
X83300000Y-85725000D02*
X83300000Y-86475000D01*
X83300000Y-86475000D02*
X84300000Y-86475000D01*
X84300000Y-85725000D02*
X83300000Y-85725000D01*
X84300000Y-86475000D02*
X84300000Y-85725000D01*
X85800000Y-85725000D02*
X85800000Y-86475000D01*
X85800000Y-86475000D02*
X87600000Y-86475000D01*
X86850000Y-87975000D02*
X86850000Y-90925000D01*
X86850000Y-90925000D02*
X83800000Y-90925000D01*
X87600000Y-85725000D02*
X85800000Y-85725000D01*
X87600000Y-86475000D02*
X87600000Y-85725000D01*
X87600000Y-87975000D02*
X86850000Y-87975000D01*
X87610000Y-85715000D02*
X79990000Y-85715000D01*
X87610000Y-91685000D02*
X87610000Y-85715000D01*
%TO.C,J1*%
X66350000Y-76250000D02*
X65100000Y-76250000D01*
X66060000Y-76540000D02*
X60090000Y-76540000D01*
X60090000Y-76540000D02*
X60090000Y-84160000D01*
X66050000Y-76550000D02*
X65300000Y-76550000D01*
X65300000Y-76550000D02*
X65300000Y-78350000D01*
X63800000Y-76550000D02*
X63800000Y-77300000D01*
X63800000Y-77300000D02*
X60850000Y-77300000D01*
X60850000Y-77300000D02*
X60850000Y-80350000D01*
X66350000Y-77500000D02*
X66350000Y-76250000D01*
X66050000Y-78350000D02*
X66050000Y-76550000D01*
X65300000Y-78350000D02*
X66050000Y-78350000D01*
X66050000Y-79850000D02*
X65300000Y-79850000D01*
X65300000Y-79850000D02*
X65300000Y-80850000D01*
X66050000Y-80850000D02*
X66050000Y-79850000D01*
X65300000Y-80850000D02*
X66050000Y-80850000D01*
X66050000Y-82350000D02*
X65300000Y-82350000D01*
X65300000Y-82350000D02*
X65300000Y-84150000D01*
X63800000Y-83400000D02*
X60850000Y-83400000D01*
X60850000Y-83400000D02*
X60850000Y-80350000D01*
X66050000Y-84150000D02*
X66050000Y-82350000D01*
X65300000Y-84150000D02*
X66050000Y-84150000D01*
X63800000Y-84150000D02*
X63800000Y-83400000D01*
X66060000Y-84160000D02*
X66060000Y-76540000D01*
X60090000Y-84160000D02*
X66060000Y-84160000D01*
%TO.C,C1*%
X76275000Y-82420354D02*
X76275000Y-83420354D01*
X76775000Y-82920354D02*
X75775000Y-82920354D01*
X78480000Y-87900000D02*
X68320000Y-87900000D01*
X78480000Y-87940000D02*
X68320000Y-87940000D01*
X78480000Y-87980000D02*
X68320000Y-87980000D01*
X78479000Y-88020000D02*
X68321000Y-88020000D01*
X78478000Y-88060000D02*
X68322000Y-88060000D01*
X78477000Y-88100000D02*
X68323000Y-88100000D01*
X78475000Y-88140000D02*
X68325000Y-88140000D01*
X78473000Y-88180000D02*
X68327000Y-88180000D01*
X78470000Y-88220000D02*
X68330000Y-88220000D01*
X78468000Y-88260000D02*
X68332000Y-88260000D01*
X78465000Y-88300000D02*
X68335000Y-88300000D01*
X78462000Y-88340000D02*
X68338000Y-88340000D01*
X78458000Y-88380000D02*
X68342000Y-88380000D01*
X78454000Y-88420000D02*
X68346000Y-88420000D01*
X78450000Y-88460000D02*
X68350000Y-88460000D01*
X78445000Y-88500000D02*
X68355000Y-88500000D01*
X78440000Y-88540000D02*
X68360000Y-88540000D01*
X78435000Y-88580000D02*
X68365000Y-88580000D01*
X78430000Y-88621000D02*
X68370000Y-88621000D01*
X78424000Y-88661000D02*
X68376000Y-88661000D01*
X78418000Y-88701000D02*
X68382000Y-88701000D01*
X78411000Y-88741000D02*
X68389000Y-88741000D01*
X78404000Y-88781000D02*
X68396000Y-88781000D01*
X78397000Y-88821000D02*
X68403000Y-88821000D01*
X78390000Y-88861000D02*
X68410000Y-88861000D01*
X78382000Y-88901000D02*
X68418000Y-88901000D01*
X78374000Y-88941000D02*
X68426000Y-88941000D01*
X78365000Y-88981000D02*
X68435000Y-88981000D01*
X78356000Y-89021000D02*
X68444000Y-89021000D01*
X78347000Y-89061000D02*
X68453000Y-89061000D01*
X78338000Y-89101000D02*
X68462000Y-89101000D01*
X78328000Y-89141000D02*
X68472000Y-89141000D01*
X78318000Y-89181000D02*
X74641000Y-89181000D01*
X72159000Y-89181000D02*
X68482000Y-89181000D01*
X78307000Y-89221000D02*
X74641000Y-89221000D01*
X72159000Y-89221000D02*
X68493000Y-89221000D01*
X78297000Y-89261000D02*
X74641000Y-89261000D01*
X72159000Y-89261000D02*
X68503000Y-89261000D01*
X78285000Y-89301000D02*
X74641000Y-89301000D01*
X72159000Y-89301000D02*
X68515000Y-89301000D01*
X78274000Y-89341000D02*
X74641000Y-89341000D01*
X72159000Y-89341000D02*
X68526000Y-89341000D01*
X78262000Y-89381000D02*
X74641000Y-89381000D01*
X72159000Y-89381000D02*
X68538000Y-89381000D01*
X78250000Y-89421000D02*
X74641000Y-89421000D01*
X72159000Y-89421000D02*
X68550000Y-89421000D01*
X78237000Y-89461000D02*
X74641000Y-89461000D01*
X72159000Y-89461000D02*
X68563000Y-89461000D01*
X78224000Y-89501000D02*
X74641000Y-89501000D01*
X72159000Y-89501000D02*
X68576000Y-89501000D01*
X78211000Y-89541000D02*
X74641000Y-89541000D01*
X72159000Y-89541000D02*
X68589000Y-89541000D01*
X78197000Y-89581000D02*
X74641000Y-89581000D01*
X72159000Y-89581000D02*
X68603000Y-89581000D01*
X78183000Y-89621000D02*
X74641000Y-89621000D01*
X72159000Y-89621000D02*
X68617000Y-89621000D01*
X78168000Y-89661000D02*
X74641000Y-89661000D01*
X72159000Y-89661000D02*
X68632000Y-89661000D01*
X78154000Y-89701000D02*
X74641000Y-89701000D01*
X72159000Y-89701000D02*
X68646000Y-89701000D01*
X78138000Y-89741000D02*
X74641000Y-89741000D01*
X72159000Y-89741000D02*
X68662000Y-89741000D01*
X78123000Y-89781000D02*
X74641000Y-89781000D01*
X72159000Y-89781000D02*
X68677000Y-89781000D01*
X78107000Y-89821000D02*
X74641000Y-89821000D01*
X72159000Y-89821000D02*
X68693000Y-89821000D01*
X78090000Y-89861000D02*
X74641000Y-89861000D01*
X72159000Y-89861000D02*
X68710000Y-89861000D01*
X78074000Y-89901000D02*
X74641000Y-89901000D01*
X72159000Y-89901000D02*
X68726000Y-89901000D01*
X78057000Y-89941000D02*
X74641000Y-89941000D01*
X72159000Y-89941000D02*
X68743000Y-89941000D01*
X78039000Y-89981000D02*
X74641000Y-89981000D01*
X72159000Y-89981000D02*
X68761000Y-89981000D01*
X78021000Y-90021000D02*
X74641000Y-90021000D01*
X72159000Y-90021000D02*
X68779000Y-90021000D01*
X78003000Y-90061000D02*
X74641000Y-90061000D01*
X72159000Y-90061000D02*
X68797000Y-90061000D01*
X77984000Y-90101000D02*
X74641000Y-90101000D01*
X72159000Y-90101000D02*
X68816000Y-90101000D01*
X77964000Y-90141000D02*
X74641000Y-90141000D01*
X72159000Y-90141000D02*
X68836000Y-90141000D01*
X77945000Y-90181000D02*
X74641000Y-90181000D01*
X72159000Y-90181000D02*
X68855000Y-90181000D01*
X77925000Y-90221000D02*
X74641000Y-90221000D01*
X72159000Y-90221000D02*
X68875000Y-90221000D01*
X77904000Y-90261000D02*
X74641000Y-90261000D01*
X72159000Y-90261000D02*
X68896000Y-90261000D01*
X77883000Y-90301000D02*
X74641000Y-90301000D01*
X72159000Y-90301000D02*
X68917000Y-90301000D01*
X77862000Y-90341000D02*
X74641000Y-90341000D01*
X72159000Y-90341000D02*
X68938000Y-90341000D01*
X77840000Y-90381000D02*
X74641000Y-90381000D01*
X72159000Y-90381000D02*
X68960000Y-90381000D01*
X77817000Y-90421000D02*
X74641000Y-90421000D01*
X72159000Y-90421000D02*
X68983000Y-90421000D01*
X77795000Y-90461000D02*
X74641000Y-90461000D01*
X72159000Y-90461000D02*
X69005000Y-90461000D01*
X77771000Y-90501000D02*
X74641000Y-90501000D01*
X72159000Y-90501000D02*
X69029000Y-90501000D01*
X77747000Y-90541000D02*
X74641000Y-90541000D01*
X72159000Y-90541000D02*
X69053000Y-90541000D01*
X77723000Y-90581000D02*
X74641000Y-90581000D01*
X72159000Y-90581000D02*
X69077000Y-90581000D01*
X77698000Y-90621000D02*
X74641000Y-90621000D01*
X72159000Y-90621000D02*
X69102000Y-90621000D01*
X77673000Y-90661000D02*
X74641000Y-90661000D01*
X72159000Y-90661000D02*
X69127000Y-90661000D01*
X77647000Y-90701000D02*
X74641000Y-90701000D01*
X72159000Y-90701000D02*
X69153000Y-90701000D01*
X77621000Y-90741000D02*
X74641000Y-90741000D01*
X72159000Y-90741000D02*
X69179000Y-90741000D01*
X77594000Y-90781000D02*
X74641000Y-90781000D01*
X72159000Y-90781000D02*
X69206000Y-90781000D01*
X77566000Y-90821000D02*
X74641000Y-90821000D01*
X72159000Y-90821000D02*
X69234000Y-90821000D01*
X77538000Y-90861000D02*
X74641000Y-90861000D01*
X72159000Y-90861000D02*
X69262000Y-90861000D01*
X77510000Y-90901000D02*
X74641000Y-90901000D01*
X72159000Y-90901000D02*
X69290000Y-90901000D01*
X77480000Y-90941000D02*
X74641000Y-90941000D01*
X72159000Y-90941000D02*
X69320000Y-90941000D01*
X77450000Y-90981000D02*
X74641000Y-90981000D01*
X72159000Y-90981000D02*
X69350000Y-90981000D01*
X77420000Y-91021000D02*
X74641000Y-91021000D01*
X72159000Y-91021000D02*
X69380000Y-91021000D01*
X77389000Y-91061000D02*
X74641000Y-91061000D01*
X72159000Y-91061000D02*
X69411000Y-91061000D01*
X77357000Y-91101000D02*
X74641000Y-91101000D01*
X72159000Y-91101000D02*
X69443000Y-91101000D01*
X77325000Y-91141000D02*
X74641000Y-91141000D01*
X72159000Y-91141000D02*
X69475000Y-91141000D01*
X77292000Y-91181000D02*
X74641000Y-91181000D01*
X72159000Y-91181000D02*
X69508000Y-91181000D01*
X77258000Y-91221000D02*
X74641000Y-91221000D01*
X72159000Y-91221000D02*
X69542000Y-91221000D01*
X77224000Y-91261000D02*
X74641000Y-91261000D01*
X72159000Y-91261000D02*
X69576000Y-91261000D01*
X77189000Y-91301000D02*
X74641000Y-91301000D01*
X72159000Y-91301000D02*
X69611000Y-91301000D01*
X77153000Y-91341000D02*
X74641000Y-91341000D01*
X72159000Y-91341000D02*
X69647000Y-91341000D01*
X77116000Y-91381000D02*
X74641000Y-91381000D01*
X72159000Y-91381000D02*
X69684000Y-91381000D01*
X77079000Y-91421000D02*
X74641000Y-91421000D01*
X72159000Y-91421000D02*
X69721000Y-91421000D01*
X77040000Y-91461000D02*
X74641000Y-91461000D01*
X72159000Y-91461000D02*
X69760000Y-91461000D01*
X77001000Y-91501000D02*
X74641000Y-91501000D01*
X72159000Y-91501000D02*
X69799000Y-91501000D01*
X76961000Y-91541000D02*
X74641000Y-91541000D01*
X72159000Y-91541000D02*
X69839000Y-91541000D01*
X76920000Y-91581000D02*
X74641000Y-91581000D01*
X72159000Y-91581000D02*
X69880000Y-91581000D01*
X76878000Y-91621000D02*
X74641000Y-91621000D01*
X72159000Y-91621000D02*
X69922000Y-91621000D01*
X76836000Y-91661000D02*
X69964000Y-91661000D01*
X76792000Y-91701000D02*
X70008000Y-91701000D01*
X76747000Y-91741000D02*
X70053000Y-91741000D01*
X76701000Y-91781000D02*
X70099000Y-91781000D01*
X76654000Y-91821000D02*
X70146000Y-91821000D01*
X76606000Y-91861000D02*
X70194000Y-91861000D01*
X76556000Y-91901000D02*
X70244000Y-91901000D01*
X76506000Y-91941000D02*
X70294000Y-91941000D01*
X76454000Y-91981000D02*
X70346000Y-91981000D01*
X76400000Y-92021000D02*
X70400000Y-92021000D01*
X76345000Y-92061000D02*
X70455000Y-92061000D01*
X76289000Y-92101000D02*
X70511000Y-92101000D01*
X76230000Y-92141000D02*
X70570000Y-92141000D01*
X76170000Y-92181000D02*
X70630000Y-92181000D01*
X76109000Y-92221000D02*
X70691000Y-92221000D01*
X76045000Y-92261000D02*
X70755000Y-92261000D01*
X75979000Y-92301000D02*
X70821000Y-92301000D01*
X75910000Y-92341000D02*
X70890000Y-92341000D01*
X75839000Y-92381000D02*
X70961000Y-92381000D01*
X75765000Y-92421000D02*
X71035000Y-92421000D01*
X75689000Y-92461000D02*
X71111000Y-92461000D01*
X75609000Y-92501000D02*
X71191000Y-92501000D01*
X75525000Y-92541000D02*
X71275000Y-92541000D01*
X75437000Y-92581000D02*
X71363000Y-92581000D01*
X75344000Y-92621000D02*
X71456000Y-92621000D01*
X75246000Y-92661000D02*
X71554000Y-92661000D01*
X75142000Y-92701000D02*
X71658000Y-92701000D01*
X75030000Y-92741000D02*
X71770000Y-92741000D01*
X74910000Y-92781000D02*
X71890000Y-92781000D01*
X74778000Y-92821000D02*
X72022000Y-92821000D01*
X74630000Y-92861000D02*
X72170000Y-92861000D01*
X74462000Y-92901000D02*
X72338000Y-92901000D01*
X74262000Y-92941000D02*
X72538000Y-92941000D01*
X73999000Y-92981000D02*
X72801000Y-92981000D01*
X78520000Y-87900000D02*
G75*
G02*
X68280000Y-87900000I-5120000J0D01*
G01*
X68280000Y-87900000D02*
G75*
G02*
X78520000Y-87900000I5120000J0D01*
G01*
%TD*%
M02*
